<svg xmlns="http://www.w3.org/2000/svg" xmlns:xlink="http://www.w3.org/1999/xlink" width="550" height="450" viewBox="0 0 550 450">
  <defs>
    <clipPath id="clip-path">
      <rect id="Rectangle_1439" data-name="Rectangle 1439" width="550" height="450" transform="translate(975 4065)" fill="#ffe2e2" opacity="0.74"/>
    </clipPath>
    <clipPath id="clip-path-2">
      <path id="Path_1801" data-name="Path 1801" d="M261.974,245.985a6.208,6.208,0,0,1,4.856-1.007,9.109,9.109,0,0,1,4.53,1.658c5.388,3.908,3.73,10.273,3.73,10.273l32.914-19,15.513-31.75-37.309-4-10.534,10.659-4.855,10.307Z" transform="translate(-261.974 -202.16)" fill="none"/>
    </clipPath>
  </defs>
  <g id="About_Img_3" transform="translate(-975 -4065)" clip-path="url(#clip-path)">
    <rect id="Rectangle_1194" data-name="Rectangle 1194" width="533" height="454" transform="translate(986 4062)" fill="none"/>
    <g id="Group_1185" data-name="Group 1185" transform="translate(955.072 4000.283)">
      <g id="Group_1160" data-name="Group 1160" transform="translate(247.764 90.377)">
        <path id="Path_1688" data-name="Path 1688" d="M215.662,87.4H251V219.292" transform="translate(-215.662 -87.403)" fill="none" stroke="#1b1a19" stroke-linecap="round" stroke-linejoin="round" stroke-width="2"/>
        <circle id="Ellipse_182" data-name="Ellipse 182" cx="6.801" cy="6.801" r="6.801" transform="translate(28.538 125.542)" fill="#1b1a19"/>
      </g>
      <path id="Path_1689" data-name="Path 1689" d="M401.889,149.05s-5.182-6.161-15.878-6.765l5.361-29.585s17.17.992,20.466,7.221Z" transform="translate(69.118 8.471)" fill="none" stroke="#1b1a19" stroke-linecap="round" stroke-linejoin="round" stroke-width="2"/>
      <path id="Path_1690" data-name="Path 1690" d="M355.962,151.465s12.694,6.632,8.172,19.507c0,0,9.272.995,18.1-10.937,0,0-4.123-15.648-19.538-22.569C362.7,137.466,362.728,142.322,355.962,151.465Z" transform="translate(62.589 13.852)" fill="none" stroke="#1b1a19" stroke-linecap="round" stroke-linejoin="round" stroke-width="2"/>
      <path id="Path_1691" data-name="Path 1691" d="M378.764,156.025c-2.106-12.5-11.66-20.469-11.66-20.469a13.041,13.041,0,0,1-2.956,4" transform="translate(64.368 13.437)" fill="none" stroke="#1b1a19" stroke-linecap="round" stroke-linejoin="round" stroke-width="2"/>
      <path id="Path_1692" data-name="Path 1692" d="M372.62,164.7l-1.551-7.726s5.094-3.366,1.7-10.724" transform="translate(65.871 15.761)" fill="none" stroke="#1b1a19" stroke-linecap="round" stroke-linejoin="round" stroke-width="2"/>
      <path id="Path_1693" data-name="Path 1693" d="M443.623,255.893c-.271.279-.544.551-.816.83q2.149,2.217,4.285,4.425c.22.228.433.449.648.67.036.036.051.066.007.11-.618.706-1.243,1.412-1.9,2.08-.051.051-.074.058-.133.007q-2.138-2.127-4.292-4.241c-.273-.271-.551-.544-.823-.816-1.618,1.631-3.227,3.271-4.845,4.9-.022.022-.036.052-.073.06s-.036-.022-.051-.038c-.9-.874-2.36-2.285-2.36-2.285s2.426-2.353,2.477-2.4c.853-.83,1.705-1.662,2.566-2.492q-2.427-2.4-4.852-4.792c-.022-.022-.051-.044-.058-.073a.076.076,0,0,1,.029-.058c.875-.9,2.293-2.36,2.293-2.36s2.352,2.426,2.4,2.477q1.245,1.28,2.492,2.573c1.455-1.4,2.918-2.823,4.38-4.234.221-.222.449-.435.669-.655.036-.036.058-.044.11,0,.7.617,1.4,1.243,2.08,1.9.052.051.052.073,0,.125Q445.748,253.75,443.623,255.893Z" transform="translate(79.388 38.179)" fill="#1b1a19"/>
      <g id="Group_1161" data-name="Group 1161" transform="translate(268.486 321.874)">
        <path id="Path_1694" data-name="Path 1694" d="M240.971,306.892c.2-1.158.377-2.385.626-3.6a2.238,2.238,0,0,0-.7-2.17,2.431,2.431,0,0,0-3.053-.845c-.65.258-1.422.225-2.056.51-1.64.736-2.312-.056-2.834-1.484-.279-.763-.192-1.175.481-1.6.845-.538,1.628-1.173,2.437-1.766,2.386-1.746,2.291-3.669-.257-5.233a8.183,8.183,0,0,0-1.513-.914c-1.816-.617-1.576-1.742-.986-3.138.329-.778.688-.945,1.461-.751.914.228,1.86.329,2.794.469,3.049.461,4.386-.97,3.667-3.917a11.575,11.575,0,0,0-.411-1.72c-.65-1.55-.054-2.3,1.433-2.846.866-.316,1.271-.186,1.724.527.505.8,1.1,1.533,1.662,2.3,1.785,2.448,3.729,2.352,5.338-.265.309-.5.614-1.009.925-1.511.965-1.562,2.062-1.744,3.533-.7.472.337.342.7.292,1.08a17,17,0,0,1-.465,2.968,2.908,2.908,0,0,0,1.149,3.514,1.611,1.611,0,0,0,1.718.435c.893-.293,1.866-.364,2.735-.7,1.568-.616,2.328-.071,2.867,1.447a1.2,1.2,0,0,1-.55,1.725c-.841.544-1.624,1.178-2.435,1.772-2.2,1.613-2.144,3.626.14,5.034a12.966,12.966,0,0,0,1.815,1.1c1.475.6,1.613,1.479.982,2.853-.387.844-.694,1.239-1.674.964a22.918,22.918,0,0,0-2.792-.465c-2.881-.43-4.246,1.054-3.559,3.853a15.481,15.481,0,0,0,.523,2.239c.514,1.245-.055,1.681-1.108,2.211-1.15.578-1.788.438-2.393-.661a19.7,19.7,0,0,0-1.446-2.012c-1.726-2.369-3.718-2.284-5.251.226q-.6.982-1.211,1.957a2.363,2.363,0,0,1-3.5.209C240.813,307.663,240.965,307.3,240.971,306.892Zm7.25-9.1a4.616,4.616,0,1,0,.08-9.232,4.616,4.616,0,0,0-.08,9.232Z" transform="translate(-232.685 -277.576)" fill="#1b1a19"/>
      </g>
      <g id="Group_1162" data-name="Group 1162" transform="translate(298.191 381.248)">
        <path id="Path_1695" data-name="Path 1695" d="M260.789,339.45c.089-.517.169-1.065.28-1.608a1,1,0,0,0-.312-.969,1.087,1.087,0,0,0-1.365-.379c-.291.116-.635.1-.919.229-.733.329-1.032-.026-1.266-.663-.124-.341-.086-.525.214-.717.379-.24.728-.523,1.089-.789,1.066-.779,1.024-1.64-.114-2.338a3.7,3.7,0,0,0-.677-.408c-.811-.276-.7-.779-.441-1.4.147-.348.308-.422.654-.336.408.1.83.146,1.248.209,1.363.206,1.96-.433,1.638-1.75a5.137,5.137,0,0,0-.184-.769c-.29-.691-.024-1.027.64-1.271.386-.141.567-.083.771.235.225.357.493.685.741,1.026.8,1.094,1.667,1.051,2.386-.118.139-.225.274-.452.413-.676a.949.949,0,0,1,1.579-.31c.212.151.153.312.131.482a7.729,7.729,0,0,1-.208,1.327,1.3,1.3,0,0,0,.514,1.57.719.719,0,0,0,.767.194c.4-.13.834-.162,1.222-.314.7-.275,1.041-.032,1.282.646a.538.538,0,0,1-.246.771c-.376.243-.727.527-1.088.792-.982.721-.958,1.62.062,2.248a5.814,5.814,0,0,0,.812.492c.659.267.721.661.438,1.275-.173.377-.31.554-.747.431a10.161,10.161,0,0,0-1.248-.207c-1.288-.192-1.9.47-1.591,1.721a6.921,6.921,0,0,0,.234,1c.23.556-.024.751-.494.987-.515.258-.8.2-1.07-.3a8.693,8.693,0,0,0-.646-.9c-.771-1.059-1.66-1.02-2.346.1-.179.292-.36.584-.542.874a1.055,1.055,0,0,1-1.564.094C260.718,339.795,260.786,339.634,260.789,339.45Zm3.24-4.066a2.063,2.063,0,1,0,.035-4.125,2.063,2.063,0,0,0-.035,4.125Z" transform="translate(-257.087 -326.351)" fill="#1b1a19"/>
      </g>
      <g id="Group_1165" data-name="Group 1165" transform="translate(304.17 461.307)">
        <g id="Group_1163" data-name="Group 1163" transform="translate(0 30.68)">
          <rect id="Rectangle_1294" data-name="Rectangle 1294" width="36.243" height="10.069" fill="#1b1a19"/>
        </g>
        <g id="Group_1164" data-name="Group 1164" transform="translate(5.824)">
          <path id="Path_1696" data-name="Path 1696" d="M278.914,397.706l-.164,0-9.138.093a1.719,1.719,0,0,0-1.7,1.849l1.662,21.768a1.714,1.714,0,0,0,1.26,1.526,29.811,29.811,0,0,0,16.5-.168,1.714,1.714,0,0,0,1.228-1.552l1.219-21.8a1.719,1.719,0,0,0-1.733-1.814Z" transform="translate(-266.538 -390.925)" fill="#fff" stroke="#1b1a19" stroke-linecap="round" stroke-linejoin="round" stroke-width="2"/>
          <path id="Path_1697" data-name="Path 1697" d="M290.5,395.46a1.747,1.747,0,0,0-1.545-1.441l-9.843.1h-.163l-9.843.1a1.744,1.744,0,0,0-1.514,1.473l-.768,2.929a1.289,1.289,0,0,0,1.26,1.615l10.926-.112h.164l10.925-.111a1.289,1.289,0,0,0,1.227-1.64Z" transform="translate(-266.783 -391.706)" fill="#1b1a19"/>
          <path id="Path_1698" data-name="Path 1698" d="M288.512,392.848a.735.735,0,0,0-.745-.729l-9.091.093h-.164l-9.091.092a.736.736,0,0,0-.729.745l.022,2.211,9.9-.723,9.916.521Z" transform="translate(-266.368 -392.119)" fill="#1b1a19"/>
          <path id="Path_1699" data-name="Path 1699" d="M267.55,402.685l.931,9.893a.4.4,0,0,0,.3.351,40.1,40.1,0,0,0,20.589-.209.4.4,0,0,0,.291-.357l.73-9.91a.4.4,0,0,0-.486-.422c-4.847,1.074-17.01,1.2-21.878.223A.4.4,0,0,0,267.55,402.685Z" transform="translate(-266.617 -389.967)" fill="#1b1a19"/>
          <path id="Path_1700" data-name="Path 1700" d="M281.5,407.258a3.941,3.941,0,1,1-4.652-3.069A3.941,3.941,0,0,1,281.5,407.258Z" transform="translate(-265.282 -389.514)" fill="#fff" stroke="#1b1a19" stroke-linecap="round" stroke-linejoin="round" stroke-width="2"/>
        </g>
      </g>
      <g id="Group_1174" data-name="Group 1174" transform="translate(67.928 185.855)">
        <g id="Group_1166" data-name="Group 1166" transform="translate(0 140.946)">
          <rect id="Rectangle_1295" data-name="Rectangle 1295" width="70.163" height="22.94" fill="#1b1a19"/>
        </g>
        <g id="Group_1170" data-name="Group 1170" transform="translate(8.967 18.262)">
          <path id="Path_1701" data-name="Path 1701" d="M123.708,242.18s5.814-.593,9.716-11.331c0,0,7.127,12.252,9.775,12.138,2.555-.11,19.87-13.769,21.572-15.149h0s6.244-5.808,6.722-5.915c.456-.1,4.076-7.5,7.182-4.483.245.237,1.173,6.616-6.67,11.5l-3.759,1.4h0c-1.272,2.05-15.12,24.323-26.721,24.5C136.067,254.929,123.708,242.18,123.708,242.18Z" transform="translate(-64.773 -173.044)" fill="#fff" stroke="#1b1a19" stroke-linecap="round" stroke-linejoin="round" stroke-width="2"/>
          <g id="Group_1169" data-name="Group 1169">
            <path id="Path_1702" data-name="Path 1702" d="M99.775,212.937c.245.245,5.356,3.758,5.356,3.758l6.8-.92,2.81-4.548a21.556,21.556,0,0,1-2.81.085v-8.85l-8.615-1.081v9.883c-1.382-.018-2.312-.038-2.312-.038S99.522,212.692,99.775,212.937Z" transform="translate(-69.98 -176.376)" fill="#fff" stroke="#1b1a19" stroke-linecap="round" stroke-linejoin="round" stroke-width="2"/>
            <path id="Path_1703" data-name="Path 1703" d="M102.681,208.588V203.8l8.611.947v4.066A14.853,14.853,0,0,1,102.681,208.588Z" transform="translate(-69.342 -175.852)" fill="#1b1a19"/>
            <path id="Path_1704" data-name="Path 1704" d="M142.846,319.369l1.369,11.011,7.368.573-.114-10.211Z" transform="translate(-60.615 -150.738)" fill="#fff" stroke="#1b1a19" stroke-linecap="round" stroke-linejoin="round" stroke-width="2"/>
            <g id="Group_1167" data-name="Group 1167" transform="translate(81.245 178.543)">
              <path id="Path_1705" data-name="Path 1705" d="M162.955,335.887l-20.129.136a.775.775,0,0,1-.79-.775l.006-.581a.8.8,0,0,1,.8-.785l20.128-.136a.775.775,0,0,1,.79.775l0,.581A.8.8,0,0,1,162.955,335.887Z" transform="translate(-142.036 -326.157)" fill="#1b1a19"/>
              <path id="Path_1706" data-name="Path 1706" d="M143.05,328.731l-.772,5.96c-.095.735.318,1.4.869,1.4l19.141-.129a1.42,1.42,0,0,0,1.257-.884,2.544,2.544,0,0,0-.511-2.651c-1.693-2.362-7.318-2.9-10.055-4.909l-8.917.061A1.188,1.188,0,0,0,143.05,328.731Z" transform="translate(-141.986 -327.512)" fill="#fff" stroke="#1b1a19" stroke-linecap="round" stroke-linejoin="round" stroke-width="2"/>
              <path id="Path_1707" data-name="Path 1707" d="M148.257,335.457c-1.466-4.8-4.061-5.315-5.481-5.194l-.5,3.833c-.095.735.318,1.4.869,1.4Z" transform="translate(-141.986 -326.918)" fill="#1b1a19"/>
              <path id="Path_1708" data-name="Path 1708" d="M155.016,335.445l4.5-.028a1.412,1.412,0,0,0,1.259-.883,2.542,2.542,0,0,0-.506-2.65,5.1,5.1,0,0,0-1.794-1.428A5.636,5.636,0,0,0,155.016,335.445Z" transform="translate(-139.215 -326.872)" fill="#1b1a19"/>
            </g>
            <path id="Path_1709" data-name="Path 1709" d="M132.4,319.561l3.257,10.625,7.5.052-1.306-7.756Z" transform="translate(-62.884 -150.696)" fill="#fff" stroke="#1b1a19" stroke-linecap="round" stroke-linejoin="round" stroke-width="2"/>
            <g id="Group_1168" data-name="Group 1168" transform="translate(70.124 178.739)">
              <path id="Path_1710" data-name="Path 1710" d="M153.818,336.049l-20.128.136a.775.775,0,0,1-.79-.775l0-.581a.8.8,0,0,1,.8-.785l20.129-.136a.774.774,0,0,1,.789.775l0,.581A.8.8,0,0,1,153.818,336.049Z" transform="translate(-132.9 -326.318)" fill="#1b1a19"/>
              <path id="Path_1711" data-name="Path 1711" d="M134.013,336.25l14.637-.1,4.5-.028a1.412,1.412,0,0,0,1.259-.883,2.54,2.54,0,0,0-.508-2.65,5.1,5.1,0,0,0-1.794-1.428c-2.424-1.277-6.181-1.954-8.267-3.485l-8.917.066c-.5,0-.92.488-1.014,1.155l-.771,5.956C133.046,335.583,133.458,336.25,134.013,336.25Z" transform="translate(-132.851 -327.673)" fill="#fff" stroke="#1b1a19" stroke-linecap="round" stroke-linejoin="round" stroke-width="2"/>
              <path id="Path_1712" data-name="Path 1712" d="M139.119,335.619c-1.464-4.8-4.06-5.315-5.482-5.194l-.5,3.833c-.1.735.318,1.4.869,1.4Z" transform="translate(-132.85 -327.078)" fill="#1b1a19"/>
              <path id="Path_1713" data-name="Path 1713" d="M145.879,335.524l4.5-.028a1.412,1.412,0,0,0,1.259-.883,2.54,2.54,0,0,0-.508-2.65,5.1,5.1,0,0,0-1.794-1.428A5.638,5.638,0,0,0,145.879,335.524Z" transform="translate(-130.08 -327.051)" fill="#1b1a19"/>
            </g>
            <path id="Path_1714" data-name="Path 1714" d="M133.328,282.629a48.249,48.249,0,0,1,8.314,2.509c1.72.761,3.082,1.653,3.345,2.64.46,1.709.45,9.5.376,15.774-.075,4.6-.179,8.388-.179,8.388s-1.973,22.182,3.166,23.769,11.63-1.512,11.63-1.512c1.184-4.651,5.956-55.326-1.155-62.061S114.4,261.293,114.4,261.293s-5.223,7.619-6.209,7.619S133.328,282.629,133.328,282.629Z" transform="translate(-68.152 -163.358)" fill="#fff" stroke="#1b1a19" stroke-linecap="round" stroke-linejoin="round" stroke-width="2"/>
            <path id="Path_1715" data-name="Path 1715" d="M120.172,262.914l10.066,6.8-13.977-4.276Z" transform="translate(-66.392 -163.006)" fill="#1b1a19"/>
            <path id="Path_1716" data-name="Path 1716" d="M79.358,271.724a59.775,59.775,0,0,1,2.606-17.843L98.712,268.34l.147-1.292s41.916-4.99,47.647,14.023,10.079,56.64,10.079,56.64-5.534,3.367-13.043,0c0,0-10.622-40.4-14.6-44.362-2.536-2.525-18.3-5.432-27.513-5.569C91.908,287.638,79.544,283.09,79.358,271.724Z" transform="translate(-74.412 -164.968)" fill="#fff" stroke="#1b1a19" stroke-linecap="round" stroke-linejoin="round" stroke-width="2"/>
            <path id="Path_1717" data-name="Path 1717" d="M110.329,287.085s-3.5-3.74-4.179-5.893c0,0-21.861-11.843-26.3-19.7v-1.1l27.947,18.685,5.167,8.337Z" transform="translate(-74.304 -163.553)" fill="#1b1a19"/>
            <path id="Path_1718" data-name="Path 1718" d="M91.073,244.672S82.2,261.356,82.608,261.78s19.147,17.614,19.147,17.614c19.973,2.358,26.634-4.857,26.634-4.857s.92-18.564,1.249-33.529l5.1,4.951c5.261-.836,10.2-10.729,10.2-10.729s-6.566-13.312-11.377-18.676-14.195-7.075-14.195-7.075c-7.77,5.271-13.736,0-13.736,0-24.134-1.531-27.187,29.265-27.187,29.265C80.945,242.079,91.073,244.672,91.073,244.672Z" transform="translate(-74.608 -174.629)" fill="#fff" stroke="#1b1a19" stroke-linecap="round" stroke-linejoin="round" stroke-width="2"/>
            <path id="Path_1719" data-name="Path 1719" d="M79.13,233.514s1.665,2.693,12.623,5.923c0,0-3.467,11.693-3.191,14.329.268,2.544,21.46,25.623,22.944,27.237l.146-.073S123,284.527,123.139,285c.13.449-.179.71-4.335.936a.339.339,0,0,0-.257.539c1.244,1.681,2.571,7.2,2.214,7.609a20.046,20.046,0,0,1-1.91,2.172c-.307.15-3.217.426-8.582-7.1l-1.984-3.053-.018-.223c-2.124-1.143-28.986-15.788-32.05-26.979C73.026,247.246,79.13,233.514,79.13,233.514Z" transform="translate(-75.294 -169.394)" fill="#fff" stroke="#1b1a19" stroke-linecap="round" stroke-linejoin="round" stroke-width="2"/>
            <path id="Path_1720" data-name="Path 1720" d="M87.669,243.514s6.135,19.457,12.324,25.2c0,0-12.017-12.881-13.8-17.116C86.2,251.593,85.948,249.764,87.669,243.514Z" transform="translate(-72.927 -167.221)" fill="#1b1a19"/>
            <path id="Path_1721" data-name="Path 1721" d="M133.931,274.693a13.391,13.391,0,0,1,.713,1.86c.536,1.766,1.053,3.7,1.559,5.749,1.645.743,2.931,1.607,3.186,2.565.432,1.607.45,8.587.385,14.637,1.324,7.45.884,4.312,1.72,10.306.084-.677,2.24-19.747.774-25.8C140.775,277.887,133.931,274.693,133.931,274.693Z" transform="translate(-62.552 -160.446)" fill="#1b1a19"/>
            <path id="Path_1722" data-name="Path 1722" d="M99.569,202.779c1.233,7.007,9.8,6.777,13.5,6.336,1.042-.123,1.7-.263,1.7-.263,1.175-.331,1.831-2.284,2.135-4.841.6-5.063-.159-12.493-.969-14.395-1.221-2.859-3.518-5.953-12.146-3.72S97.985,193.8,99.569,202.779Z" transform="translate(-70.396 -179.907)" fill="#fff" stroke="#1a1a1a" stroke-linecap="round" stroke-linejoin="round" stroke-width="2"/>
            <path id="Path_1723" data-name="Path 1723" d="M120.438,183.881a30.16,30.16,0,0,1-8.735-2.364c-3.836-1.668-8.676.169-10.247,1a2.349,2.349,0,0,1,.383-.946,2.107,2.107,0,0,0-.809,1.2c-.073.054-.1.09-.086.1a2.7,2.7,0,0,0-1.313.085s.359-.051.488.18a.217.217,0,0,0,.057.063c-5.984,2.891-6.537,12.349-4.611,14.538a76.12,76.12,0,0,1,5.816,8.59,10.84,10.84,0,0,0-.129-3.746c-.421-2.318,1.58-2.318,4.107-3.371s.421-4,2.633-5.792,10.321-.738,10.217-2.107C121.217,190.216,120.438,184.189,120.438,183.881Z" transform="translate(-71.104 -180.84)" fill="#1b1a19"/>
          </g>
          <path id="Path_1724" data-name="Path 1724" d="M147.375,337.338" transform="translate(-59.631 -146.834)" fill="#fff" stroke="#1b1a19" stroke-linecap="round" stroke-linejoin="round" stroke-width="2"/>
          <line id="Line_174" data-name="Line 174" y1="8.775" x2="2.488" transform="translate(16.46 61.268)" fill="#fff" stroke="#1b1a19" stroke-linecap="round" stroke-linejoin="round" stroke-width="2"/>
          <path id="Path_1725" data-name="Path 1725" d="M130.285,235.91s7.193,12.265,14.107,14.88c0,0-3.01,2.1-9.008-2.183a59.286,59.286,0,0,1-10.2-9.412A6.775,6.775,0,0,0,130.285,235.91Z" transform="translate(-64.453 -168.873)" fill="#1b1a19"/>
        </g>
        <g id="Group_1173" data-name="Group 1173" transform="translate(92.303 0)">
          <g id="Group_1172" data-name="Group 1172" transform="translate(15.794 14.311)">
            <g id="Group_1171" data-name="Group 1171">
              <path id="Path_1726" data-name="Path 1726" d="M178.888,188.674a11.08,11.08,0,1,0-18.925,7.822,12.566,12.566,0,0,1,3.255,5.59l.893,3.3h7.264l.846-3.128a12.6,12.6,0,0,1,3.355-5.687A11.049,11.049,0,0,0,178.888,188.674Z" transform="translate(-156.728 -177.594)" fill="#fff" stroke="#1b1a19" stroke-linecap="round" stroke-linejoin="round" stroke-width="2"/>
              <path id="Path_1727" data-name="Path 1727" d="M168.236,210.519h-3.541a1.879,1.879,0,0,1-1.918-1.681l-.3-9.583,8.021-.052-.343,9.635A1.879,1.879,0,0,1,168.236,210.519Z" transform="translate(-155.479 -172.898)" fill="#fff" stroke="#1b1a19" stroke-linecap="round" stroke-linejoin="round" stroke-width="2"/>
            </g>
            <path id="Path_1728" data-name="Path 1728" d="M169.674,204.031c-2.24.1-4.488-.018-6.728.08" transform="translate(-155.377 -171.849)" fill="#fff" stroke="#1b1a19" stroke-linecap="round" stroke-linejoin="round" stroke-width="2"/>
          </g>
          <line id="Line_175" data-name="Line 175" y1="7.054" transform="translate(26.197)" fill="none" stroke="#1b1a19" stroke-linecap="round" stroke-linejoin="round" stroke-width="2"/>
          <line id="Line_176" data-name="Line 176" x2="5.554" y2="4.349" transform="translate(7.713 6.56)" fill="none" stroke="#1b1a19" stroke-linecap="round" stroke-linejoin="round" stroke-width="2"/>
          <line id="Line_177" data-name="Line 177" y1="0.889" x2="6.998" transform="translate(44.967 24.193)" fill="none" stroke="#1b1a19" stroke-linecap="round" stroke-linejoin="round" stroke-width="2"/>
          <line id="Line_178" data-name="Line 178" x1="6.998" y1="0.889" transform="translate(0 21.363)" fill="none" stroke="#1b1a19" stroke-linecap="round" stroke-linejoin="round" stroke-width="2"/>
          <line id="Line_179" data-name="Line 179" y1="4.597" x2="5.35" transform="translate(40.815 7.767)" fill="none" stroke="#1b1a19" stroke-linecap="round" stroke-linejoin="round" stroke-width="2"/>
        </g>
      </g>
      <g id="Group_1176" data-name="Group 1176" transform="translate(349.77 291.634)">
        <g id="Group_1175" data-name="Group 1175" transform="translate(26.794 6.244)">
          <path id="Path_1729" data-name="Path 1729" d="M352.386,283.476l.007,1.339s-.365,4.188,4.791,4.8,8.984-.781,8.844-4.013a46.611,46.611,0,0,1-.929-7.142,14.476,14.476,0,0,1,.183-2.508l-9.992-.2-2.943.48Z" transform="translate(-314.761 -253.977)" fill="#fff" stroke="#1b1a19" stroke-linecap="round" stroke-linejoin="round" stroke-width="2"/>
          <path id="Path_1730" data-name="Path 1730" d="M359.618,427.483a23.148,23.148,0,0,1,1.586-5.939c1.108-2.215,8.156-.806,8.156-.806s1.41,1.208,1.712,6.846Z" transform="translate(-313.181 -222.568)" fill="#1b1a19"/>
          <path id="Path_1731" data-name="Path 1731" d="M343.9,428.262c1.656-1.01.713-8.551.713-8.551s-7.716-6.173-8.778-1.447-7.331,6.849-10.9,7.428c-2.464.4-3.226,1.764-3.462,2.571Z" transform="translate(-321.47 -223.397)" fill="#1b1a19"/>
          <path id="Path_1732" data-name="Path 1732" d="M357.716,390.847a35.487,35.487,0,0,0-.566,4.169c-.717,13.992-11.779,45.985-13.757,46.731-3.061,1.155-7.882-1.3-10.4-2.1a2.163,2.163,0,0,1-1.518-2.458c5.478-25.181,7.491-61.442,8.223-82.91a97.519,97.519,0,0,1,2.226-18.283s26.978-7.2,27.137,1.906C369.2,345.957,360.122,377.555,357.716,390.847Z" transform="translate(-319.306 -241.473)" fill="#fff" stroke="#1b1a19" stroke-linecap="round" stroke-linejoin="round" stroke-width="2"/>
          <path id="Path_1733" data-name="Path 1733" d="M352.231,396.206l-2.024-37.6s3.8,15.153,4.384,24.253C354.83,386.621,353.215,394.75,352.231,396.206Z" transform="translate(-315.226 -235.974)" fill="#1b1a19"/>
          <path id="Path_1734" data-name="Path 1734" d="M348.092,337.691l14.262,103.362s6.263,1.509,11.133.3c0,0,4.175-54.973,3.827-68.262s3-35.562-.763-38.019S348.092,337.691,348.092,337.691Z" transform="translate(-315.685 -241.232)" fill="#fff" stroke="#1b1a19" stroke-linecap="round" stroke-linejoin="round" stroke-width="2"/>
          <path id="Path_1735" data-name="Path 1735" d="M381.245,346.982a1.98,1.98,0,0,1-1.428,2.044c-1.99.578-4.284.98-8.707,1.9a84.355,84.355,0,0,1-16.612,1.67c-10.924.069-15.06-3.7-15.06-3.7-.471.009.248-2.278.9-13.148.22-3.684.432-8.351.584-14.25.138-5.309.231-11.614.24-19.1.012-9,13.942-18.682,14.2-18.682l0,0c0,1.3,2.041,3.687,5.187,3.893,3.733.245,8.314-1.614,8.314-3.764,0-.022,6.749,10.8,9.146,22.324C379.217,311.98,378.727,311.824,381.245,346.982Z" transform="translate(-317.599 -252.245)" fill="#fff" stroke="#1b1a19" stroke-linecap="round" stroke-linejoin="round" stroke-width="2"/>
          <path id="Path_1736" data-name="Path 1736" d="M370.593,317.431c-2.116,3.128-24.986,4.746-30.185,5.075.219-1.357.431-3.077.583-5.25Z" transform="translate(-317.355 -244.958)" fill="#1b1a19"/>
          <path id="Path_1737" data-name="Path 1737" d="M352.347,276.232l.039,7.244a8.454,8.454,0,0,0,3.6.795c4.593,0,7.561-3.368,9.113-5.813a14.476,14.476,0,0,1,.183-2.508l-9.992-.2Z" transform="translate(-314.761 -253.977)" fill="#1b1a19"/>
          <path id="Path_1738" data-name="Path 1738" d="M366.546,277.4c-1.159,6.239-9.21,6.034-12.689,5.642-.979-.11-1.595-.234-1.595-.234-1.1-.3-1.72-2.034-2.006-4.312-.569-4.508.148-11.125.911-12.818,1.145-2.545,3.3-5.3,11.412-3.314S368.034,269.4,366.546,277.4Z" transform="translate(-315.259 -257.033)" fill="#fff" stroke="#1b1a19" stroke-linecap="round" stroke-linejoin="round" stroke-width="2"/>
          <path id="Path_1739" data-name="Path 1739" d="M348.938,260.571a26.836,26.836,0,0,0,7.777-2.1c3.417-1.485,7.727.15,9.126.887a2.1,2.1,0,0,0-.341-.842,1.879,1.879,0,0,1,.721,1.069c.064.047.094.08.077.091a2.409,2.409,0,0,1,1.17.076s-.32-.045-.435.161a.186.186,0,0,1-.051.056c5.328,2.576,5.821,11,4.106,12.946a67.627,67.627,0,0,0-5.178,7.651,9.617,9.617,0,0,1,.114-3.337c.375-2.063-1.407-2.063-3.658-3s-.375-3.564-2.345-5.159-9.191-.656-9.1-1.875C348.245,266.214,348.938,260.845,348.938,260.571Z" transform="translate(-315.519 -257.864)" fill="#1b1a19"/>
          <path id="Path_1740" data-name="Path 1740" d="M361.941,314.555c-.439.1-.879.2-1.327.267a16.318,16.318,0,0,1-3.544-2.2c1.7.337,2.767.561,2.767.561a6.813,6.813,0,0,1,1.544.87A5.156,5.156,0,0,1,361.941,314.555Z" transform="translate(-313.734 -245.965)" fill="#fff" stroke="#1b1a19" stroke-linecap="round" stroke-linejoin="round" stroke-width="2"/>
          <path id="Path_1741" data-name="Path 1741" d="M354.454,280.319c-1.152-.128-1.876-.275-1.876-.275-1.3-.346-2.022-2.391-2.358-5.069a6.411,6.411,0,0,1,4.013,3.281A4.7,4.7,0,0,1,354.454,280.319Z" transform="translate(-315.223 -254.145)" fill="#1b1a19"/>
          <path id="Path_1742" data-name="Path 1742" d="M349.275,283.52s-4.509-7.44-1-7.763a5.3,5.3,0,0,1,5.421,2.92c.506.872-.131,4.8-.131,4.8Z" transform="translate(-315.936 -253.982)" fill="#fff" stroke="#1b1a19" stroke-linecap="round" stroke-linejoin="round" stroke-width="2"/>
          <path id="Path_1743" data-name="Path 1743" d="M347.016,308.17a28.287,28.287,0,0,1-1.293,8.093c5.025.543,13.007,1.9,16.524,2.586h.009c1.7.337,2.767.561,2.767.561a6.815,6.815,0,0,1,1.544.87,5.156,5.156,0,0,1,.56.5,5.279,5.279,0,0,1,1.544,3.9c-12.628,2.707-31.454,1.69-31.454,1.69v-.009c-1.121-.051-2.147-.853-3-2.715-3.559-7.819,3.276-31.342,6.388-35.713,1.775-2.482,6.715-3.517,10.654-3.956-.009,1.018.009,2.267.068,3.673" transform="translate(-318.918 -252.19)" fill="#fff" stroke="#1b1a19" stroke-linecap="round" stroke-linejoin="round" stroke-width="2"/>
          <path id="Path_1744" data-name="Path 1744" d="M366.957,284.437s9.547-.3,13.617,5.514c2.491,3.551.215,14.51-3.35,22.277a10.061,10.061,0,0,1-2.431,2.646c-.2.207-.4.4-.6.6-.319.292-.646.586-.974.87-.276.241-.551.474-.836.689-.319.259-.638.509-.965.741-.224.173-.448.327-.682.483-.155.112-.309.215-.456.31-.215.146-.439.284-.663.422-.086.051-.164.1-.25.155-.225.129-.458.259-.682.388-.551.3-1.1.577-1.673.819-.1.051-.207.094-.319.138a1.392,1.392,0,0,1-.189.078c-.234.1-.466.189-.707.275-.268.1-.534.19-.811.276-.362.112-.715.215-1.077.3a5.156,5.156,0,0,0-.56-.5,6.815,6.815,0,0,0-1.544-.87s-1.069-.224-2.767-.561h-.009c-.026-.017-.051-.043-.077-.06-.207-.173-.414-.353-.612-.534l-.828-.794c-.164-.163-.319-.327-.474-.5-.207-.224-.414-.458-.612-.69s-.38-.465-.551-.7l-3.75-6.7-.362-.906-.353-.982c-.1-.293-.207-.6-.3-.889-.139-.4-.259-.81-.38-1.215-.241-.792-.457-1.6-.655-2.405-.1-.431-.207-.853-.293-1.276-.129-.594-.25-1.2-.37-1.793-.224-1.2-.422-2.4-.587-3.559a1.2,1.2,0,0,1-.017-.164q-.091-.634-.155-1.24c-.027-.164-.044-.319-.061-.475-.2-1.724-.336-3.371-.414-4.87-.008-.172-.017-.336-.026-.5-.017-.327-.034-.646-.044-.957-.06-1.406-.077-2.655-.068-3.673,0-1.888.068-3.025.068-3.025,5.284-1.75,6.767,1.284,6.767,1.284s6.233,14.834,9.473,24.524a40.039,40.039,0,0,0,2.069-9.691" transform="translate(-315.698 -252.827)" fill="#fff" stroke="#1b1a19" stroke-linecap="round" stroke-linejoin="round" stroke-width="2"/>
          <path id="Path_1745" data-name="Path 1745" d="M376.476,309.923c-.178,1.139-2.231,2.261-3.014,3.027-.181.19-.364.364-.553.545-.293.269-.594.538-.893.8-.253.221-.506.435-.768.633-.292.237-.584.466-.885.68-.206.157-.411.3-.624.442-.142.1-.285.2-.42.285-.2.135-.4.26-.609.387-.079.047-.15.095-.229.142-.206.119-.419.237-.625.357-.506.276-1.013.53-1.535.751-.094.047-.189.086-.292.127a1.184,1.184,0,0,1-.174.071c-.213.095-.427.174-.648.253-.246.095-.491.174-.744.253-.332.1-.656.2-.988.276a4.915,4.915,0,0,0-.514-.459,6.343,6.343,0,0,0-1.416-.8s-.981-.2-2.538-.514H359c-.023-.016-.047-.039-.071-.055-.19-.158-.38-.325-.561-.491l-.76-.728c-.15-.15-.292-.3-.435-.458-.19-.206-.38-.42-.561-.633s-.348-.427-.506-.64l-3.44-6.145-.332-.83-.324-.9c-.095-.269-.19-.545-.276-.814-.127-.372-.237-.744-.348-1.115-.222-.728-.42-1.47-.6-2.207-.095-.394-.19-.783-.269-1.17-.118-.545-.229-1.1-.34-1.645-.214-1.107-.387-2.2-.538-3.266a1.169,1.169,0,0,1-.016-.15c-.055-.388-.1-.767-.142-1.139-.023-.15-.039-.292-.055-.435-.183-1.581-.3-3.092-.38-4.467-.009-.158-.016-.309-.024-.459-.016-.3-.032-.593-.039-.878,0,0,5.085,18.432,12,24.877a7.562,7.562,0,0,0,3.915,2.135s8.722-2.459,10.556-4.784A9.986,9.986,0,0,1,376.476,309.923Z" transform="translate(-315.492 -251.194)" fill="#1b1a19"/>
          <path id="Path_1746" data-name="Path 1746" d="M361.072,319.01a40.314,40.314,0,0,0,5.956-1.163c.872-.436,4.858-6.1,2.247-7.553s-9.619,4.358-9.619,4.358Z" transform="translate(-313.172 -246.521)" fill="#fff" stroke="#1b1a19" stroke-linecap="round" stroke-linejoin="round" stroke-width="2"/>
        </g>
        <path id="Path_1747" data-name="Path 1747" d="M341.937,399.648c-13.612,1.528-27.713,8.195-41.075,27.136" transform="translate(-299.154 -220.81)" fill="none" stroke="#1b1a19" stroke-linecap="round" stroke-linejoin="round" stroke-width="2"/>
        <path id="Path_1748" data-name="Path 1748" d="M358.56,401.424c-2.969-.521-6.016-1.031-9.122-1.43" transform="translate(-288.599 -220.735)" fill="none" stroke="#1b1a19" stroke-linecap="round" stroke-linejoin="round" stroke-width="2"/>
        <path id="Path_1749" data-name="Path 1749" d="M373.43,339.738c19.014,11.724,33.838,30.118,24.172,58.563-5.629,16.563-15.283,19.536-27.289,18.655" transform="translate(-284.063 -233.828)" fill="none" stroke="#1b1a19" stroke-linecap="round" stroke-linejoin="round" stroke-width="2"/>
        <path id="Path_1750" data-name="Path 1750" d="M374.707,268.672c16.892-13.678,35.554-22.553,52.212-9.693,34.621,26.726,1.3,118.108-42.835,112.82s-67.155-36.015-42.093-29.319" transform="translate(-292.463 -252.734)" fill="none" stroke="#1b1a19" stroke-linecap="round" stroke-linejoin="round" stroke-width="2"/>
        <path id="Path_1751" data-name="Path 1751" d="M299.459,313.06c7.053,10.565,22.815,17.278,36.543,10.408a33.62,33.62,0,0,0,6.177-4.332" transform="translate(-299.459 -239.625)" fill="none" stroke="#1b1a19" stroke-linecap="round" stroke-linejoin="round" stroke-width="2"/>
      </g>
      <line id="Line_180" data-name="Line 180" x1="292.987" transform="translate(149.267 502.894)" fill="none" stroke="#1b1a19" stroke-linecap="round" stroke-linejoin="round" stroke-width="2"/>
      <line id="Line_181" data-name="Line 181" x1="99.541" transform="translate(89.302 488.725)" fill="none" stroke="#1b1a19" stroke-linecap="round" stroke-linejoin="round" stroke-width="2"/>
      <line id="Line_182" data-name="Line 182" x1="19.477" transform="translate(453.874 502.894)" fill="none" stroke="#1b1a19" stroke-linecap="round" stroke-linejoin="round" stroke-width="2"/>
      <g id="Group_1177" data-name="Group 1177" transform="translate(201.056 73.717)">
        <path id="Path_1752" data-name="Path 1752" d="M193.51,105.729,177.294,98.4V79.739l16.216,7.33Z" transform="translate(-177.291 -72.408)" fill="none" stroke="#1b1a19" stroke-linecap="round" stroke-linejoin="round" stroke-width="2"/>
        <path id="Path_1753" data-name="Path 1753" d="M206.831,98.4l-16.216,7.33V87.069l16.216-7.33Z" transform="translate(-174.396 -72.408)" fill="none" stroke="#1b1a19" stroke-linecap="round" stroke-linejoin="round" stroke-width="2"/>
        <path id="Path_1754" data-name="Path 1754" d="M209.729,81.044,193.514,88.38l-16.223-7.336,16.223-7.327Z" transform="translate(-177.291 -73.717)" fill="#1b1a19" stroke="#231f20" stroke-linecap="round" stroke-linejoin="round" stroke-width="2"/>
      </g>
      <g id="Group_1179" data-name="Group 1179" transform="translate(242.099 408.682)">
        <rect id="Rectangle_1296" data-name="Rectangle 1296" width="61.541" height="40.885" transform="translate(0 4.452)" fill="none" stroke="#1b1a19" stroke-linecap="round" stroke-linejoin="round" stroke-width="2"/>
        <rect id="Rectangle_1297" data-name="Rectangle 1297" width="61.541" height="4.452" fill="none" stroke="#1b1a19" stroke-linecap="round" stroke-linejoin="round" stroke-width="2"/>
        <path id="Path_1755" data-name="Path 1755" d="M272.552,352.545a131.825,131.825,0,0,1-1.77,14.206c-2,11.094-6.119,24.916-14.334,26.677H211.01V352.545Z" transform="translate(-211.007 -348.094)" fill="none" stroke="#1b1a19" stroke-linecap="round" stroke-linejoin="round" stroke-width="2"/>
        <path id="Path_1756" data-name="Path 1756" d="M264.441,352.545v40.883h-16.1c8.214-1.761,12.334-15.583,14.334-26.677A131.825,131.825,0,0,0,264.441,352.545Z" transform="translate(-202.896 -348.094)" fill="none" stroke="#1b1a19" stroke-miterlimit="10" stroke-width="1"/>
        <path id="Path_1757" data-name="Path 1757" d="M246.439,390.216s6.409-1.553,4.593-10.168c0,0,7.462-1.664,12.077-16.724,0,0-3.141,20.929-10.413,25.807C252.7,389.131,250.97,391.19,246.439,390.216Z" transform="translate(-203.309 -345.752)" fill="#1b1a19"/>
        <g id="Group_1178" data-name="Group 1178" transform="translate(6.802 11.396)">
          <rect id="Rectangle_1298" data-name="Rectangle 1298" width="3.419" height="3.419" fill="none" stroke="#1b1a19" stroke-linecap="round" stroke-linejoin="round" stroke-width="2"/>
          <rect id="Rectangle_1299" data-name="Rectangle 1299" width="3.419" height="3.419" transform="translate(8.547)" fill="none" stroke="#1b1a19" stroke-linecap="round" stroke-linejoin="round" stroke-width="2"/>
          <rect id="Rectangle_1300" data-name="Rectangle 1300" width="3.419" height="3.419" transform="translate(17.095)" fill="none" stroke="#1b1a19" stroke-linecap="round" stroke-linejoin="round" stroke-width="2"/>
          <rect id="Rectangle_1301" data-name="Rectangle 1301" width="3.419" height="3.419" transform="translate(25.642)" fill="none" stroke="#1b1a19" stroke-linecap="round" stroke-linejoin="round" stroke-width="2"/>
          <rect id="Rectangle_1302" data-name="Rectangle 1302" width="3.419" height="3.419" transform="translate(34.189)" fill="none" stroke="#1b1a19" stroke-linecap="round" stroke-linejoin="round" stroke-width="2"/>
          <rect id="Rectangle_1303" data-name="Rectangle 1303" width="3.419" height="3.419" transform="translate(42.737)" fill="none" stroke="#1b1a19" stroke-linecap="round" stroke-linejoin="round" stroke-width="2"/>
          <rect id="Rectangle_1304" data-name="Rectangle 1304" width="3.419" height="3.419" transform="translate(0 8.227)" fill="none" stroke="#1b1a19" stroke-linecap="round" stroke-linejoin="round" stroke-width="2"/>
          <rect id="Rectangle_1305" data-name="Rectangle 1305" width="3.419" height="3.419" transform="translate(8.547 8.227)" fill="none" stroke="#1b1a19" stroke-linecap="round" stroke-linejoin="round" stroke-width="2"/>
          <rect id="Rectangle_1306" data-name="Rectangle 1306" width="3.419" height="3.419" transform="translate(17.095 8.227)" fill="none" stroke="#1b1a19" stroke-linecap="round" stroke-linejoin="round" stroke-width="2"/>
          <rect id="Rectangle_1307" data-name="Rectangle 1307" width="3.419" height="3.419" transform="translate(25.642 8.227)" fill="none" stroke="#1b1a19" stroke-linecap="round" stroke-linejoin="round" stroke-width="2"/>
          <rect id="Rectangle_1308" data-name="Rectangle 1308" width="3.419" height="3.419" transform="translate(34.189 8.227)" fill="none" stroke="#1b1a19" stroke-linecap="round" stroke-linejoin="round" stroke-width="2"/>
          <rect id="Rectangle_1309" data-name="Rectangle 1309" width="3.419" height="3.419" transform="translate(42.737 8.227)" fill="none" stroke="#1b1a19" stroke-linecap="round" stroke-linejoin="round" stroke-width="2"/>
          <rect id="Rectangle_1310" data-name="Rectangle 1310" width="3.419" height="3.419" transform="translate(0 16.454)" fill="none" stroke="#1b1a19" stroke-linecap="round" stroke-linejoin="round" stroke-width="2"/>
          <rect id="Rectangle_1311" data-name="Rectangle 1311" width="3.419" height="3.419" transform="translate(8.547 16.454)" fill="none" stroke="#1b1a19" stroke-linecap="round" stroke-linejoin="round" stroke-width="2"/>
          <rect id="Rectangle_1312" data-name="Rectangle 1312" width="3.419" height="3.419" transform="translate(17.095 16.454)" fill="none" stroke="#1b1a19" stroke-linecap="round" stroke-linejoin="round" stroke-width="2"/>
          <rect id="Rectangle_1313" data-name="Rectangle 1313" width="3.419" height="3.419" transform="translate(25.642 16.454)" fill="none" stroke="#1b1a19" stroke-linecap="round" stroke-linejoin="round" stroke-width="2"/>
          <rect id="Rectangle_1314" data-name="Rectangle 1314" width="3.419" height="3.419" transform="translate(0 24.681)" fill="none" stroke="#1b1a19" stroke-linecap="round" stroke-linejoin="round" stroke-width="2"/>
          <rect id="Rectangle_1315" data-name="Rectangle 1315" width="3.419" height="3.419" transform="translate(8.547 24.681)" fill="none" stroke="#1b1a19" stroke-linecap="round" stroke-linejoin="round" stroke-width="2"/>
          <rect id="Rectangle_1316" data-name="Rectangle 1316" width="3.419" height="3.419" transform="translate(17.095 24.681)" fill="none" stroke="#1b1a19" stroke-linecap="round" stroke-linejoin="round" stroke-width="2"/>
          <rect id="Rectangle_1317" data-name="Rectangle 1317" width="3.419" height="3.419" transform="translate(25.642 24.681)" fill="none" stroke="#1b1a19" stroke-linecap="round" stroke-linejoin="round" stroke-width="2"/>
        </g>
      </g>
      <circle id="Ellipse_183" data-name="Ellipse 183" cx="4.259" cy="4.259" r="4.259" transform="translate(208.765 378.924)" fill="#fff" stroke="#1b1a19" stroke-linecap="round" stroke-linejoin="round" stroke-width="2"/>
      <circle id="Ellipse_184" data-name="Ellipse 184" cx="4.259" cy="4.259" r="4.259" transform="translate(304.433 182.055)" fill="#fff" stroke="#1b1a19" stroke-linecap="round" stroke-linejoin="round" stroke-width="2"/>
      <circle id="Ellipse_185" data-name="Ellipse 185" cx="3.034" cy="3.034" r="3.034" transform="translate(143.683 224.649)" fill="#fff" stroke="#1b1a19" stroke-linecap="round" stroke-linejoin="round" stroke-width="2"/>
      <circle id="Ellipse_186" data-name="Ellipse 186" cx="7.695" cy="7.695" r="7.695" transform="translate(352.927 410.196)" fill="#fff" stroke="#1b1a19" stroke-linecap="round" stroke-linejoin="round" stroke-width="2"/>
      <circle id="Ellipse_187" data-name="Ellipse 187" cx="2.257" cy="2.257" r="2.257" transform="translate(323.199 417.891)" fill="#fff" stroke="#1b1a19" stroke-linecap="round" stroke-linejoin="round" stroke-width="2"/>
      <circle id="Ellipse_188" data-name="Ellipse 188" cx="2.257" cy="2.257" r="2.257" transform="translate(118.735 362.665)" fill="#fff" stroke="#1b1a19" stroke-linecap="round" stroke-linejoin="round" stroke-width="2"/>
      <circle id="Ellipse_189" data-name="Ellipse 189" cx="2.257" cy="2.257" r="2.257" transform="translate(461.355 307.051)" fill="#fff" stroke="#1b1a19" stroke-linecap="round" stroke-linejoin="round" stroke-width="2"/>
      <g id="Group_1180" data-name="Group 1180" transform="translate(214.372 243.659)">
        <path id="Path_1758" data-name="Path 1758" d="M256.921,227.92c-2.89-10.457-12.767-5.761-12.767-5.761-17.825-2.97-18.789,10.144-18.789,10.144-16.862-1.5-16.621,13.088-16.621,13.088s-12.526-1.34-15.657,7.385,0,14.082,0,14.082a11.58,11.58,0,0,0-4.336,12.711c2.409,8.19,14.453,10.117,14.453,10.117" transform="translate(-188.231 -211.632)" fill="none" stroke="#1b1a19" stroke-linecap="round" stroke-linejoin="round" stroke-width="2"/>
        <path id="Path_1759" data-name="Path 1759" d="M238.866,222.84s1.888-10.547,11.909-9.434c10.681,1.184,9.326,11.4,9.326,11.4s13.73-4.156,17.132,9.768c0,0,9.877-2.254,14.694,4.513s-.481,19.416-4.817,21.523c0,0,2.649,10.917-6.263,11.81" transform="translate(-177.228 -213.323)" fill="none" stroke="#1b1a19" stroke-linecap="round" stroke-linejoin="round" stroke-width="2"/>
        <path id="Path_1760" data-name="Path 1760" d="M300.461,241.131s10.425-2.8,15.243,6.055,0,15.412,0,15.412,12.231,6.689,2.141,19.215c0,0,1.833,9.635-5.754,13.129s-14.212,1.083-17.947-3.012c0,0-9.237,12.164-21.119.482,0,0-10.317,11.923-20.916-.964,0,0-7.949,12.888-20.475.6,0,0-4.577,5.685-9.153,5.432a15.348,15.348,0,0,1-14.334-14.465" transform="translate(-183.903 -207.372)" fill="none" stroke="#1b1a19" stroke-linecap="round" stroke-linejoin="round" stroke-width="2"/>
        <path id="Path_1761" data-name="Path 1761" d="M214.643,284.166s-4.617,7.712-13.41,5.3-9.5-11.971-8.662-15.26" transform="translate(-187.345 -200.093)" fill="none" stroke="#1b1a19" stroke-linecap="round" stroke-linejoin="round" stroke-width="2"/>
        <path id="Path_1762" data-name="Path 1762" d="M289,253.451s-7.859,5.3-2.5,14.471" transform="translate(-167.284 -204.604)" fill="none" stroke="#1b1a19" stroke-linecap="round" stroke-linejoin="round" stroke-width="2"/>
        <path id="Path_1763" data-name="Path 1763" d="M296.2,263.783s-8.913-2.289-13.55,7.467" transform="translate(-167.713 -202.41)" fill="none" stroke="#1b1a19" stroke-linecap="round" stroke-linejoin="round" stroke-width="2"/>
        <path id="Path_1764" data-name="Path 1764" d="M269,256.518s10.237,4.456,1.867,15.3" transform="translate(-170.68 -203.937)" fill="none" stroke="#1b1a19" stroke-linecap="round" stroke-linejoin="round" stroke-width="2"/>
        <path id="Path_1765" data-name="Path 1765" d="M278.794,284.8a13.255,13.255,0,0,0,1.446-11.261" transform="translate(-168.552 -200.239)" fill="none" stroke="#1b1a19" stroke-linecap="round" stroke-linejoin="round" stroke-width="2"/>
        <path id="Path_1766" data-name="Path 1766" d="M244.263,284.691s3.253-4.4,2.952-12.886" transform="translate(-176.055 -200.616)" fill="none" stroke="#1b1a19" stroke-linecap="round" stroke-linejoin="round" stroke-width="2"/>
        <path id="Path_1767" data-name="Path 1767" d="M241.394,275.211s5.6-7.467,12.285-.783" transform="translate(-176.679 -200.65)" fill="none" stroke="#1b1a19" stroke-linecap="round" stroke-linejoin="round" stroke-width="2"/>
        <path id="Path_1768" data-name="Path 1768" d="M261.445,285.372a15.892,15.892,0,0,0,3.776-12.261" transform="translate(-172.322 -200.332)" fill="none" stroke="#1b1a19" stroke-linecap="round" stroke-linejoin="round" stroke-width="2"/>
        <path id="Path_1769" data-name="Path 1769" d="M260.49,272.6s6.2-2.289,10.961,6.2" transform="translate(-172.529 -200.505)" fill="none" stroke="#1b1a19" stroke-linecap="round" stroke-linejoin="round" stroke-width="2"/>
        <path id="Path_1770" data-name="Path 1770" d="M216.528,271.285s6.873,4.426,1.905,13.008" transform="translate(-182.082 -200.729)" fill="none" stroke="#1b1a19" stroke-linecap="round" stroke-linejoin="round" stroke-width="2"/>
        <path id="Path_1771" data-name="Path 1771" d="M219.438,280.361a7.324,7.324,0,0,0,6.673-.9c3.071-2.329,2.71-10.063,2.71-10.063a8.626,8.626,0,0,0,9.214-2.111c4.066-4.246,2.168-11.021.995-12.918" transform="translate(-181.45 -204.405)" fill="none" stroke="#1b1a19" stroke-linecap="round" stroke-linejoin="round" stroke-width="2"/>
        <path id="Path_1772" data-name="Path 1772" d="M230.15,254.951s7.593,2.8,9.85-5.4" transform="translate(-179.122 -205.452)" fill="none" stroke="#1b1a19" stroke-linecap="round" stroke-linejoin="round" stroke-width="2"/>
        <path id="Path_1773" data-name="Path 1773" d="M205.849,271.875s4.54-9.74,14.853-3.974" transform="translate(-184.403 -201.86)" fill="none" stroke="#1b1a19" stroke-linecap="round" stroke-linejoin="round" stroke-width="2"/>
        <path id="Path_1774" data-name="Path 1774" d="M239.426,232.7s-7.581,7.5.819,14.723" transform="translate(-177.789 -209.113)" fill="none" stroke="#1b1a19" stroke-linecap="round" stroke-linejoin="round" stroke-width="2"/>
        <path id="Path_1775" data-name="Path 1775" d="M242.267,239.188s-6.791-1.086-10.4,1.9-5.781,7.481-5.691,10.426c0,0-9.3-2.656-14.273,4.118-6.859,9.355-.315,16.64-.315,16.64" transform="translate(-183.769 -207.745)" fill="none" stroke="#1b1a19" stroke-linecap="round" stroke-linejoin="round" stroke-width="2"/>
        <path id="Path_1776" data-name="Path 1776" d="M205.082,241.558s1.837,5.544,8.973,4.549a8.648,8.648,0,0,0,7.769-7.362" transform="translate(-184.569 -207.799)" fill="none" stroke="#1b1a19" stroke-linecap="round" stroke-linejoin="round" stroke-width="2"/>
        <path id="Path_1777" data-name="Path 1777" d="M204.289,251.685s-9.445,3.059-5.815,13.615" transform="translate(-186.186 -204.988)" fill="none" stroke="#1b1a19" stroke-linecap="round" stroke-linejoin="round" stroke-width="2"/>
        <path id="Path_1778" data-name="Path 1778" d="M192.863,267.145a12.52,12.52,0,0,1,14.874-3.384" transform="translate(-187.224 -202.622)" fill="none" stroke="#1b1a19" stroke-linecap="round" stroke-linejoin="round" stroke-width="2"/>
        <path id="Path_1779" data-name="Path 1779" d="M246.589,239.481s.606-12.9,12.586-9.876c5.842,1.477,7.2,7.105,7.189,10.3" transform="translate(-175.55 -209.886)" fill="none" stroke="#1b1a19" stroke-linecap="round" stroke-linejoin="round" stroke-width="2"/>
        <path id="Path_1780" data-name="Path 1780" d="M281.511,247.219s-7.791-5.511-15.219,1.988" transform="translate(-171.269 -206.382)" fill="none" stroke="#1b1a19" stroke-linecap="round" stroke-linejoin="round" stroke-width="2"/>
        <path id="Path_1781" data-name="Path 1781" d="M277.764,246.9s-.7-8.278-8.71-8.879-12.587,6.082-10.66,12.767c0,0-8.231-1.144-9.716,7.407a11.1,11.1,0,0,0,2.734,9.21" transform="translate(-175.131 -207.965)" fill="none" stroke="#1b1a19" stroke-linecap="round" stroke-linejoin="round" stroke-width="2"/>
        <path id="Path_1782" data-name="Path 1782" d="M246.143,268.559s3.253-9.153,13.731-6.985" transform="translate(-175.647 -202.911)" fill="none" stroke="#1b1a19" stroke-linecap="round" stroke-linejoin="round" stroke-width="2"/>
        <path id="Path_1783" data-name="Path 1783" d="M234.959,221.971a5.846,5.846,0,0,0-4.414,5.861" transform="translate(-179.036 -211.444)" fill="none" stroke="#1b1a19" stroke-linecap="round" stroke-linejoin="round" stroke-width="2"/>
      </g>
      <g id="Group_1183" data-name="Group 1183" transform="translate(304.14 230.07)">
        <g id="Group_1182" data-name="Group 1182" transform="translate(0)" clip-path="url(#clip-path-2)">
          <g id="Group_1181" data-name="Group 1181" transform="translate(-8.606 10.143)">
            <path id="Path_1784" data-name="Path 1784" d="M295.158,216.49c.077.084.152.169.225.257-.073-.088-.146-.175-.221-.26Z" transform="translate(-246.157 -209.19)" fill="#fff" stroke="#1a1a1a" stroke-linecap="round" stroke-linejoin="round" stroke-width="2"/>
            <path id="Path_1785" data-name="Path 1785" d="M292.351,220.24l.009.01,1.438-1.4a.274.274,0,0,1,.052-.069Z" transform="translate(-246.767 -208.692)" fill="#fff" stroke="#1a1a1a" stroke-linecap="round" stroke-linejoin="round" stroke-width="2"/>
            <path id="Path_1786" data-name="Path 1786" d="M288.618,213.513a1.229,1.229,0,0,0-.066.108,1.165,1.165,0,0,1,.107-.072l-.039-.039Z" transform="translate(-247.593 -209.836)" fill="#fff" stroke="#1a1a1a" stroke-linecap="round" stroke-linejoin="round" stroke-width="2"/>
            <path id="Path_1787" data-name="Path 1787" d="M295.156,222.282a1.658,1.658,0,0,0,2.009.407l0,0,.013-.045c0-.006.007-.012.01-.016l1.068-3.025,1.765-5-2.974-3.053-5.243,1.492-3.161.9.039.039a1.165,1.165,0,0,0-.107.072,1.711,1.711,0,0,0,.425,1.91,1.66,1.66,0,0,0,2.013.413l-.1.1a.409.409,0,0,0,.113-.066c-.784.857.091,2.285.8,3.012s2.052,1.587,2.918.878a.387.387,0,0,0-.043.055.274.274,0,0,0-.052.069l.156-.152A1.66,1.66,0,0,0,295.156,222.282Z" transform="translate(-247.618 -210.264)" fill="#fff" stroke="#1a1a1a" stroke-linecap="round" stroke-linejoin="round" stroke-width="2"/>
            <path id="Path_1788" data-name="Path 1788" d="M288.618,213.513a1.229,1.229,0,0,0-.066.108,1.165,1.165,0,0,1,.107-.072l-.039-.039Z" transform="translate(-247.593 -209.836)" fill="#fff" stroke="#1a1a1a" stroke-linecap="round" stroke-linejoin="round" stroke-width="2"/>
            <path id="Path_1789" data-name="Path 1789" d="M295.622,220.662l-.013.045.023-.061S295.622,220.656,295.622,220.662Z" transform="translate(-246.059 -208.286)" fill="#fff" stroke="#1a1a1a" stroke-linecap="round" stroke-linejoin="round" stroke-width="2"/>
            <path id="Path_1790" data-name="Path 1790" d="M292.351,220.24l.009.01,1.438-1.4a.274.274,0,0,1,.052-.069Z" transform="translate(-246.767 -208.692)" fill="#fff" stroke="#1a1a1a" stroke-linecap="round" stroke-linejoin="round" stroke-width="2"/>
            <path id="Path_1791" data-name="Path 1791" d="M255.385,248.771l6.476,6.651a1.348,1.348,0,0,0,1.869.224l4.7-4.578-6.149-6.315,0,0-2.364-2.427-4.712,4.575A1.345,1.345,0,0,0,255.385,248.771Z" transform="translate(-254.904 -203.576)" fill="#fff" stroke="#1a1a1a" stroke-linecap="round" stroke-linejoin="round" stroke-width="2"/>
            <rect id="Rectangle_1318" data-name="Rectangle 1318" width="0.005" height="5.435" transform="matrix(0.716, -0.698, 0.698, 0.716, 7.379, 41.177)" fill="#fff" stroke="#1a1a1a" stroke-linecap="round" stroke-linejoin="round" stroke-width="2"/>
            <path id="Path_1792" data-name="Path 1792" d="M292.351,220.24l.009.01,1.438-1.4a.274.274,0,0,1,.052-.069Z" transform="translate(-246.767 -208.692)" fill="#fff" stroke="#1a1a1a" stroke-linecap="round" stroke-linejoin="round" stroke-width="2"/>
            <path id="Path_1793" data-name="Path 1793" d="M288.618,213.513a1.229,1.229,0,0,0-.066.108,1.165,1.165,0,0,1,.107-.072l-.039-.039Z" transform="translate(-247.593 -209.836)" fill="#fff" stroke="#1a1a1a" stroke-linecap="round" stroke-linejoin="round" stroke-width="2"/>
            <path id="Path_1794" data-name="Path 1794" d="M267.61,247.969l.072-.069-.006-.006,0,0A.33.33,0,0,1,267.61,247.969Z" transform="translate(-252.144 -202.365)" fill="#fff" stroke="#1a1a1a" stroke-linecap="round" stroke-linejoin="round" stroke-width="2"/>
            <path id="Path_1795" data-name="Path 1795" d="M267.672,247.9a.33.33,0,0,1-.062.073l.068-.066Z" transform="translate(-252.144 -202.365)" fill="#fff" stroke="#1a1a1a" stroke-linecap="round" stroke-linejoin="round" stroke-width="2"/>
            <path id="Path_1796" data-name="Path 1796" d="M264.757,248.214l0,0-3.791-3.894Z" transform="translate(-253.587 -203.143)" fill="#fff" stroke="#1a1a1a" stroke-linecap="round" stroke-linejoin="round" stroke-width="2"/>
            <path id="Path_1797" data-name="Path 1797" d="M260.969,250.569l3.791,3.894,34.419-33.51-.009-.01,1.5-1.46a.387.387,0,0,1,.043-.055c-.866.71-2.208-.148-2.918-.878s-1.584-2.155-.8-3.012a.409.409,0,0,1-.113.066l-33.9,33.009,0,0Z" transform="translate(-253.587 -209.396)" fill="#fff" stroke="#1a1a1a" stroke-linecap="round" stroke-linejoin="round" stroke-width="2"/>
            <rect id="Rectangle_1319" data-name="Rectangle 1319" width="0.005" height="5.435" transform="matrix(0.716, -0.698, 0.698, 0.716, 7.379, 41.177)" fill="#fff" stroke="#1a1a1a" stroke-linecap="round" stroke-linejoin="round" stroke-width="2"/>
            <rect id="Rectangle_1320" data-name="Rectangle 1320" width="0.005" height="5.435" transform="matrix(0.716, -0.698, 0.698, 0.716, 7.379, 41.177)" fill="#fff" stroke="#1a1a1a" stroke-linecap="round" stroke-linejoin="round" stroke-width="2"/>
            <path id="Path_1798" data-name="Path 1798" d="M295.512,211.773l2.973,3.053,1.531-4.334Z" transform="translate(-246.08 -210.492)" fill="#1b1a19" stroke="#231f20" stroke-linecap="round" stroke-linejoin="round" stroke-width="2"/>
            <path id="Path_1799" data-name="Path 1799" d="M264.081,253.777l2.357,2.421,1.939-1.888a.329.329,0,0,0,.062-.073l0,0,.006.006,33.914-33.058.121-.117a1.647,1.647,0,0,1-1.92-.231c-.041-.037-.077-.072-.114-.111a1.968,1.968,0,0,1-.353-.487,1.5,1.5,0,0,1-.066-1.417c.021-.038.044-.073.066-.108Z" transform="translate(-252.91 -208.706)" fill="#fff" stroke="#1a1a1a" stroke-linecap="round" stroke-linejoin="round" stroke-width="2"/>
            <path id="Path_1800" data-name="Path 1800" d="M259.027,248.581l2.37,2.435,35.905-34.97.1-.1a1.66,1.66,0,0,1-2.013-.413,2.421,2.421,0,0,1-.2-.24,1.4,1.4,0,0,1-.107-.169c-.018-.033-.04-.068-.056-.1a.7.7,0,0,1-.035-.068,1.789,1.789,0,0,1-.121-.365.88.88,0,0,1-.023-.123,1.433,1.433,0,0,1,.03-.6.48.48,0,0,1,.033-.11,1.066,1.066,0,0,1,.047-.108l.01-.016a.023.023,0,0,0,.006-.013l0,0c.019-.026.046-.071.062-.093Z" transform="translate(-254.009 -209.835)" fill="#fff" stroke="#1a1a1a" stroke-linecap="round" stroke-linejoin="round" stroke-width="2"/>
          </g>
        </g>
      </g>
      <path id="Path_1802" data-name="Path 1802" d="M378.3,167.415s-.986,19.114-19.281,33.457" transform="translate(63.253 20.36)" fill="none" stroke="#1b1a19" stroke-linecap="round" stroke-linejoin="round" stroke-width="2"/>
      <path id="Path_1803" data-name="Path 1803" d="M387.946,166.7s5.959-7.014,6.914-16.044" transform="translate(69.539 16.718)" fill="none" stroke="#1b1a19" stroke-linecap="round" stroke-linejoin="round" stroke-width="2"/>
      <g id="Group_1184" data-name="Group 1184" transform="translate(348.946 204.545)">
        <path id="Path_1804" data-name="Path 1804" d="M344.225,181.191c-4.026,4.027-9.191-1.138-13.217,2.889s1.141,9.188-2.884,13.213-9.192-1.137-13.22,2.891,1.135,9.2-2.9,13.226-9.2-1.135-13.226,2.9" transform="translate(-298.782 -181.191)" fill="#fff"/>
        <path id="Path_1805" data-name="Path 1805" d="M344.225,181.191c-4.026,4.027-9.191-1.138-13.217,2.889s1.141,9.188-2.884,13.213-9.192-1.137-13.22,2.891,1.135,9.2-2.9,13.226-9.2-1.135-13.226,2.9" transform="translate(-298.782 -181.191)" fill="none" stroke="#1b1a19" stroke-linecap="round" stroke-linejoin="round" stroke-width="2"/>
      </g>
      <path id="Path_1806" data-name="Path 1806" d="M228.412,322.91a1.433,1.433,0,0,1-1.912.659,1.425,1.425,0,0,1-.657-1.907l1.3-2.674-2.674-1.3a1.43,1.43,0,1,1,1.253-2.572l2.674,1.3,1.3-2.674A1.428,1.428,0,1,1,232.268,315l-1.3,2.674,2.674,1.3a1.429,1.429,0,0,1,.657,1.908,1.425,1.425,0,0,1-1.908.659l-2.674-1.3Z" transform="translate(33.842 51.982)" fill="#231f20"/>
      <path id="Path_1807" data-name="Path 1807" d="M96.544,155.6c-.045,0-.063-.035-.089-.06L91.976,151.2q-2.284-2.213-4.572-4.422c-.089-.086-.088-.135-.012-.23a25.6,25.6,0,0,1,3.695-3.721c.075-.062.117-.051.181.009,1.738,1.626,3.475,3.251,5.163,4.93.084.084.129.088.215,0q2.925-2.838,5.854-5.669l9.473-9.171c.369-.358.74-.715,1.108-1.074.062-.062.1-.077.18-.01,1.166,1.03,2.332,2.058,3.446,3.145.083.08.095.124.006.213q-3.513,3.551-7.023,7.107L96.665,155.5C96.628,155.536,96.6,155.585,96.544,155.6Z" transform="translate(4.217 12.621)" fill="#fff" stroke="#1b1a19" stroke-linecap="round" stroke-linejoin="round" stroke-width="2"/>
      <path id="Path_1808" data-name="Path 1808" d="M364.686,236.68c-.45.463-.9.913-1.351,1.376q3.561,3.67,7.1,7.328l1.071,1.108c.061.061.085.11.012.183-1.023,1.169-2.057,2.337-3.141,3.445-.085.085-.122.1-.219.012q-3.542-3.524-7.109-7.024c-.45-.45-.913-.9-1.363-1.351q-4.017,4.054-8.022,8.119c-.037.037-.061.085-.122.1-.036,0-.061-.037-.085-.061-1.5-1.449-3.908-3.786-3.908-3.786s4.017-3.9,4.1-3.981q2.118-2.063,4.248-4.127-4.017-3.981-8.034-7.937c-.037-.036-.085-.073-.1-.122a.127.127,0,0,1,.049-.1c1.449-1.485,3.8-3.908,3.8-3.908s3.9,4.017,3.981,4.1q2.063,2.118,4.127,4.261c2.41-2.325,4.833-4.674,7.255-7.012.365-.365.743-.718,1.108-1.083.061-.061.1-.073.183,0,1.156,1.023,2.325,2.057,3.445,3.141.085.085.085.122,0,.207Q368.2,233.132,364.686,236.68Z" transform="translate(60.76 33.081)" fill="#fff" stroke="#1b1a19" stroke-linecap="round" stroke-linejoin="round" stroke-width="2"/>
    </g>
  </g>
</svg>
