<svg xmlns="http://www.w3.org/2000/svg" xmlns:xlink="http://www.w3.org/1999/xlink" width="550" height="450" viewBox="0 0 550 450">
  <defs>
    <clipPath id="clip-path">
      <rect id="Rectangle_1438" data-name="Rectangle 1438" width="550" height="450" transform="translate(390 3352)" fill="#ffe2e2" opacity="0.74"/>
    </clipPath>
    <clipPath id="clip-path-2">
      <circle id="Ellipse_153" data-name="Ellipse 153" cx="17.648" cy="17.648" r="17.648" transform="translate(0 0.763) rotate(-1.238)" fill="none" stroke="#1a1a1a" stroke-miterlimit="10" stroke-width="1"/>
    </clipPath>
    <clipPath id="clip-path-3">
      <rect id="Rectangle_1222" data-name="Rectangle 1222" width="82.905" height="112.239" rx="34.429" fill="none"/>
    </clipPath>
  </defs>
  <g id="About_Img_2" transform="translate(-390 -3352)" clip-path="url(#clip-path)">
    <rect id="Rectangle_1191" data-name="Rectangle 1191" width="533" height="454" transform="translate(401 3350)" fill="none"/>
    <g id="Group_1186" data-name="Group 1186" transform="translate(366.677 3258.324)">
      <g id="Group_1011" data-name="Group 1011" transform="translate(88.734 359.973)">
        <rect id="Rectangle_1213" data-name="Rectangle 1213" width="77.136" height="25.22" fill="#1b1a19"/>
      </g>
      <g id="Group_1018" data-name="Group 1018" transform="translate(326.278 171.221)">
        <g id="Group_1012" data-name="Group 1012" transform="translate(0 34.181)">
          <rect id="Rectangle_1214" data-name="Rectangle 1214" width="7.513" height="2.445" transform="translate(20.735 5.312) rotate(-45)" fill="#fff" stroke="#1a1a1a" stroke-linecap="round" stroke-linejoin="round" stroke-width="2"/>
          <rect id="Rectangle_1215" data-name="Rectangle 1215" width="28.176" height="5.896" transform="translate(0 23.607) rotate(-45)" fill="#fff" stroke="#1a1a1a" stroke-linecap="round" stroke-linejoin="round" stroke-width="2"/>
          <rect id="Rectangle_1216" data-name="Rectangle 1216" width="1.965" height="5.896" transform="translate(16.266 7.341) rotate(-45)" fill="#1b1a19"/>
        </g>
        <path id="Path_1396" data-name="Path 1396" d="M337.9,185.79A21.609,21.609,0,1,0,316.292,207.4,21.609,21.609,0,0,0,337.9,185.79Zm-39.256,0a17.647,17.647,0,1,1,17.647,17.648A17.647,17.647,0,0,1,298.645,185.79Z" transform="translate(-275.615 -164.182)" fill="#fff" stroke="#1a1a1a" stroke-linecap="round" stroke-linejoin="round" stroke-width="2"/>
        <g id="Group_1017" data-name="Group 1017" transform="translate(22.652 3.583)">
          <g id="Group_1016" data-name="Group 1016" transform="translate(0 0)" clip-path="url(#clip-path-2)">
            <g id="Group_1015" data-name="Group 1015" transform="translate(-2.38 2.376)">
              <g id="Group_1013" data-name="Group 1013">
                <path id="Path_1397" data-name="Path 1397" d="M298.282,186.8c.49-.655.991-1.359,1.53-2.034a1.558,1.558,0,0,0,.255-1.566,1.694,1.694,0,0,0-1.625-1.493c-.485-.047-.953-.312-1.436-.336-1.251-.064-1.416-.769-1.286-1.82.07-.561.253-.789.807-.842.695-.065,1.381-.21,2.072-.32,2.032-.325,2.584-1.548,1.5-3.327a5.641,5.641,0,0,0-.648-1.047c-.929-.958-.425-1.58.384-2.259a.727.727,0,0,1,1.145,0c.494.431,1.049.795,1.583,1.177,1.745,1.253,3.027.79,3.517-1.265a8.052,8.052,0,0,0,.29-1.2c.089-1.167.7-1.444,1.792-1.31.637.078.846.288.9.874.06.654.2,1.3.3,1.95.33,2.084,1.565,2.642,3.394,1.529.352-.213.7-.431,1.052-.643a1.479,1.479,0,0,1,2.412.69c.187.359-.01.542-.161.762a11.957,11.957,0,0,1-1.23,1.693,2.025,2.025,0,0,0-.4,2.543c.211.471.409.733.927.815.647.1,1.271.366,1.919.431,1.168.116,1.465.695,1.318,1.807-.084.642-.311.837-.889.895-.695.071-1.381.216-2.072.327-1.876.3-2.48,1.568-1.511,3.164a9.052,9.052,0,0,0,.778,1.258c.725.839.53,1.429-.3,2.08-.508.4-.824.548-1.344.067a15.648,15.648,0,0,0-1.585-1.175c-1.649-1.181-2.967-.693-3.429,1.259a10.934,10.934,0,0,0-.385,1.554c-.077.934-.568,1.025-1.388,1.019-.9-.006-1.249-.295-1.274-1.169a13.835,13.835,0,0,0-.259-1.706c-.319-2.018-1.581-2.6-3.328-1.527q-.684.419-1.373.83A1.646,1.646,0,0,1,298,187.51C297.939,187.23,298.148,187.056,298.282,186.8Zm7.383-3.341a3.216,3.216,0,1,0,2.979-5.7,3.216,3.216,0,0,0-2.979,5.7Z" transform="translate(-295.683 -169.131)" fill="#1b1a19"/>
              </g>
              <g id="Group_1014" data-name="Group 1014" transform="translate(18.31 9.994)">
                <path id="Path_1398" data-name="Path 1398" d="M315.554,197.269c.271-.772.536-1.594.848-2.4a1.562,1.562,0,0,0-.23-1.571,1.693,1.693,0,0,0-2-.933c-.477.1-1-.01-1.471.112-1.211.317-1.582-.306-1.775-1.347-.1-.556,0-.828.515-1.045.643-.272,1.253-.618,1.878-.931,1.841-.923,2-2.255.429-3.625a5.769,5.769,0,0,0-.933-.8c-1.176-.635-.883-1.379-.315-2.27.317-.5.582-.57,1.091-.347.6.261,1.239.441,1.865.645,2.041.668,3.124-.16,2.971-2.267a7.979,7.979,0,0,0-.084-1.229c-.267-1.14.229-1.587,1.314-1.789.631-.117.895.019,1.123.561.254.606.58,1.181.875,1.77.943,1.888,2.289,2.046,3.7.435.27-.309.538-.621.809-.931a1.479,1.479,0,0,1,2.507-.069c.287.287.154.519.077.775a11.96,11.96,0,0,1-.663,1.984,2.025,2.025,0,0,0,.383,2.546,1.122,1.122,0,0,0,1.131.5c.647-.1,1.322-.034,1.959-.167,1.149-.241,1.607.22,1.8,1.326.112.637-.045.891-.578,1.121-.641.277-1.252.622-1.877.937-1.7.852-1.891,2.243-.486,3.472a9.068,9.068,0,0,0,1.12.964c.944.583.937,1.2.346,2.074-.364.535-.62.771-1.262.468a15.892,15.892,0,0,0-1.864-.642c-1.93-.628-3.039.232-2.891,2.235a10.771,10.771,0,0,0,.1,1.6c.208.915-.232,1.149-1.017,1.391-.856.264-1.279.094-1.566-.732a13.858,13.858,0,0,0-.761-1.548c-.911-1.826-2.29-2-3.634-.453q-.525.607-1.058,1.205a1.644,1.644,0,0,1-2.427-.261C315.357,197.781,315.5,197.551,315.554,197.269Zm6.033-5.412a3.215,3.215,0,1,0,1.122-6.332,3.215,3.215,0,0,0-1.122,6.332Z" transform="translate(-310.891 -177.432)" fill="#1b1a19"/>
              </g>
            </g>
          </g>
          <circle id="Ellipse_154" data-name="Ellipse 154" cx="17.648" cy="17.648" r="17.648" transform="translate(0 0.763) rotate(-1.238)" fill="none" stroke="#1a1a1a" stroke-miterlimit="10" stroke-width="1"/>
        </g>
      </g>
      <g id="Group_1024" data-name="Group 1024" transform="translate(325.609 311.303)">
        <g id="Group_1019" data-name="Group 1019" transform="translate(0 49.858)">
          <path id="Path_1399" data-name="Path 1399" d="M438.137,449.276,294.58,450.394c-21.421-24.526-23.6-57.027,4.857-84.946,3.578-3.511,10.441-6,17.84-7.754,13.638-3.231,29.1-3.971,29.223-4.036a108.48,108.48,0,0,0,13.067-12.523c15.2-18.386,28.124-16.8,28.124-16.8,15.487-3.008,28.7-3.886,38.485,1.569l0,0c9.07,5.06,15.206,15.563,17.5,34.859q.652,5.472.884,11.913c.555,15.659,3.636,29.589,5.464,41.385l0,0C452.674,431.156,452.237,442.353,438.137,449.276Z" transform="translate(-278.29 -321.941)" fill="#fff" stroke="#1a1a1a" stroke-linecap="round" stroke-linejoin="round" stroke-width="2"/>
        </g>
        <path id="Path_1400" data-name="Path 1400" d="M412.153,345.288c-9.4,5.115-10.445,21.975-25.152,26.323s-39.673,3.942-53.839,19.3c-13.668,14.814-28.719-22.9-22.227-33.5,13.638-3.232,29.1-3.972,29.223-4.037a108.417,108.417,0,0,0,13.067-12.521c15.2-18.386,28.124-16.8,28.124-16.8,15.487-3.008,28.7-3.887,38.485,1.569l0,0C424.806,331.047,421.551,340.173,412.153,345.288Z" transform="translate(-271.949 -272.142)" fill="#1b1a19"/>
        <g id="Group_1023" data-name="Group 1023" transform="translate(13.132)">
          <path id="Path_1401" data-name="Path 1401" d="M322.14,410.781c-1.572,3.033-1.926,8.609-2.394,10.5s-8.707,8.318-9.416,8c-1.8-.814-.079-3.954,1.021-6.25.045-.093.087-.184.13-.274,1.086-2.314.152-7.478.714-10.145s-2.142-9.846-2.142-9.846l4.552-5.75s3.2,6.087,5.488,7.195a5.608,5.608,0,0,1,1.116.712C322.762,406.2,323.433,408.287,322.14,410.781Z" transform="translate(-285.046 -256.77)" fill="#fff" stroke="#1a1a1a" stroke-linecap="round" stroke-linejoin="round" stroke-width="2"/>
          <path id="Path_1402" data-name="Path 1402" d="M356.181,345.3s-47.155-.62-53.435,3.4,6.476,67.877,6.476,67.877,12.2.355,13.157-2.875c0,0-2.277-29.932-.371-35.109s.7-12.341.7-12.341,23.862,3.573,31.431,1.761S356.181,345.3,356.181,345.3Z" transform="translate(-286.788 -267.326)" fill="#fff" stroke="#1a1a1a" stroke-linecap="round" stroke-linejoin="round" stroke-width="2"/>
          <path id="Path_1403" data-name="Path 1403" d="M360.635,317.877c0,.037-6.635,15.468-9.869,17.111s-14.945,15.1-17.455,14.863,2.938,2.042,2.938,2.042,20.465-9.434,21.656-10.024,7.459-10.9,8.318-16.136S360.635,317.877,360.635,317.877Z" transform="translate(-280.333 -272.912)" fill="#fff" stroke="#1a1a1a" stroke-linecap="round" stroke-linejoin="round" stroke-width="2"/>
          <path id="Path_1404" data-name="Path 1404" d="M310.287,425.805c-3.154,1.3-7.023,5.334-8.6,6.478s-12.019.736-12.354.035c-.886-1.855,2.766-3.175,5.087-4.243.035-.016.066-.033.1-.048l.007,0c2.3-1.156,4.864-5.588,6.983-7.238,2.149-1.675,4.715-8.9,4.715-8.9l7.188-1.458s-1.48,6.717-.447,9.038a5.765,5.765,0,0,1,.247.663C313.874,422.281,313.148,424.625,310.287,425.805Z" transform="translate(-289.197 -254.034)" fill="#fff" stroke="#1a1a1a" stroke-linecap="round" stroke-linejoin="round" stroke-width="2"/>
          <path id="Path_1405" data-name="Path 1405" d="M369.069,318.646c-.961-1.109,14.2-5.68,17.436,6.764,0,0,27.907-7.42,10.752-19.854-5.938-4.3-6.535-8.9-7.395-13.1s-6.784-16.282-17.071-10.287c0,0-4.7.02-7.673,2.6C358.356,290.623,350.964,327.862,369.069,318.646Z" transform="translate(-275.218 -280.531)" fill="#1b1a19"/>
          <path id="Path_1406" data-name="Path 1406" d="M355.007,320.408l-1.423,3.008s2.614,9.9.264,16.033l3.334.825,2.076-7.079-.341-11.64Z" transform="translate(-276.063 -272.396)" fill="#1b1a19"/>
          <path id="Path_1407" data-name="Path 1407" d="M375.8,347.11s-48.9,4.969-53.2,9.961-21.193,69.893-21.193,69.893,4.989,2.782,9.526.183c0,0,12.938-22.017,18.663-28.928s7.868-28.253,8.813-28.471,31.587,4.278,42.14-3.82S375.8,347.11,375.8,347.11Z" transform="translate(-286.706 -266.949)" fill="#fff" stroke="#1a1a1a" stroke-linecap="round" stroke-linejoin="round" stroke-width="2"/>
          <path id="Path_1408" data-name="Path 1408" d="M394.361,310.843a50.943,50.943,0,0,0-26.454-2.829c-3.022.486-5.744,1.48-7.907,5.04-3.055,5.028-4.484,7.728-4.484,7.728s.294,2.331,4.466,4.188c-1.138,4.169,1.037,11.452-.967,14.278s-14.432,9.833-15.046,13.729c-1.131,7.161,21.234,20.144,27.9,18.758C391.064,367.748,404.1,316.327,394.361,310.843Z" transform="translate(-278.033 -275.052)" fill="#fff" stroke="#1a1a1a" stroke-linecap="round" stroke-linejoin="round" stroke-width="2"/>
          <path id="Path_1409" data-name="Path 1409" d="M383.215,301.133a27.2,27.2,0,0,0,2.605-8.235c.218-2.65-2.019-12.187-11.6-9.881a13.242,13.242,0,0,0-5.275,2.583c-1.974,1.623-4.727,4.982-.532,13.093l1.152,2.764Z" transform="translate(-273.486 -280.096)" fill="#1b1a19"/>
          <g id="Group_1020" data-name="Group 1020" transform="translate(87.384 6.637)">
            <path id="Path_1410" data-name="Path 1410" d="M369.5,313c-.968,1.021-.589,4.416,3.944,4.163,2.976-.167,9.354-3.846,8.757-6.387-.284-1.209-2.57-4.326-3.107-11.5l-.541.151-9.083,2.552s.437,2.887.659,5.621C370.317,309.9,369.9,312.58,369.5,313Z" transform="translate(-360.288 -283.343)" fill="#fff" stroke="#1a1a1a" stroke-linecap="round" stroke-linejoin="round" stroke-width="2"/>
            <path id="Path_1411" data-name="Path 1411" d="M369.4,301.96s.437,2.887.659,5.621c5.152-.55,7.512-5.475,8.424-8.174Z" transform="translate(-360.22 -283.317)" fill="#1b1a19"/>
            <path id="Path_1412" data-name="Path 1412" d="M370.573,308.7s11.886-2.988,9.91-10.362-1.771-12.724-9.443-11.127-8.387,4.8-8.327,7.424S367.431,309.291,370.573,308.7Z" transform="translate(-361.585 -285.862)" fill="#fff" stroke="#1a1a1a" stroke-linecap="round" stroke-linejoin="round" stroke-width="2"/>
            <path id="Path_1413" data-name="Path 1413" d="M365.112,288.665s3.989,7.6,11.517,8.424c4.405.479,5.614,3.382,5.614,3.382s-1.321-8.3-3.535-13.375C378.709,287.1,366.448,283.891,365.112,288.665Z" transform="translate(-361.095 -286.044)" fill="#1b1a19"/>
            <path id="Path_1414" data-name="Path 1414" d="M367.154,289.268a20.713,20.713,0,0,0-3.406,4.528c-1.19,2.773,1.129,8.616,2.087,9.875,0,0-5.53-9.384-3.681-13.447C364.113,285.914,367.154,289.268,367.154,289.268Z" transform="translate(-361.776 -285.639)" fill="#1b1a19"/>
          </g>
          <path id="Path_1415" data-name="Path 1415" d="M338.795,346.215s-2.367,2.505-2.656,2.64c-1.565.733-3.541.306-4.5.547s-.791-.354-.087-.838,2.439-.294,1.73-.47-4.534-.89-5.975-.5a5.372,5.372,0,0,1-4.224-.341c-.142-.232,5.207-2.847,6.736-2.76s5.924-.123,5.924-.123Z" transform="translate(-282.285 -267.509)" fill="#ffb27d"/>
          <path id="Path_1416" data-name="Path 1416" d="M322.14,409.441c-1.572,3.033-1.926,8.609-2.394,10.5s-8.707,8.318-9.416,8c-1.8-.814-.079-3.954,1.021-6.25a5.116,5.116,0,0,0,2.515-.936c2.06-1.374,5.554-6.552,5.866-9.609.254-2.491.1-6.06,1.477-7.565C322.762,404.856,323.433,406.948,322.14,409.441Z" transform="translate(-285.046 -255.43)" fill="#1b1a19"/>
          <path id="Path_1417" data-name="Path 1417" d="M394.331,353.845c-4.073,4.846-29.014-.545-29.014-.545s-1.983,2.015-2.734,3.039-6.033,2.886-6.154,2.342c-.076-.359.991-1.22,1.776-1.949a12.2,12.2,0,0,0-1.7.141c-1.634.36-4.846,2.048-5.576,1.656-1.165-.62,1.764-4.759,3.147-5.325s9.519-2.439,9.519-2.439,22.132-3.246,23.623-3.671c2.135-.6.654-24.6.654-24.6l9.138-8.387S398.427,348.954,394.331,353.845Z" transform="translate(-276.659 -273.683)" fill="#fff" stroke="#1a1a1a" stroke-linecap="round" stroke-linejoin="round" stroke-width="2"/>
          <path id="Path_1418" data-name="Path 1418" d="M386.117,309.8c.354.01,4.762,1.457,7.926,7.721,3.108,6.154,4.239,9.142,4.239,9.142s-13.79,10.684-19.275,6.75S381.059,309.671,386.117,309.8Z" transform="translate(-271.268 -274.56)" fill="#fff" stroke="#1a1a1a" stroke-linecap="round" stroke-linejoin="round" stroke-width="2"/>
          <path id="Path_1419" data-name="Path 1419" d="M310.287,424.161c-3.154,1.3-7.023,5.334-8.6,6.477s-12.019.736-12.354.035c-.886-1.855,2.766-3.175,5.087-4.243.035-.016.066-.033.1-.048l.007,0,.326-.107s4.505,1.607,8.25,0c2.922-1.253,7.253-5.9,10.11-7.79C313.874,420.637,313.148,422.982,310.287,424.161Z" transform="translate(-289.197 -252.391)" fill="#1b1a19"/>
          <g id="Group_1022" data-name="Group 1022" transform="translate(30.351 59.395)">
            <g id="Group_1021" data-name="Group 1021">
              <path id="Path_1420" data-name="Path 1420" d="M360.5,356.368H325.065l-10.659-26.505h35.378Z" transform="translate(-314.406 -329.863)" fill="#fff" stroke="#1a1a1a" stroke-linecap="round" stroke-linejoin="round" stroke-width="2"/>
              <path id="Path_1421" data-name="Path 1421" d="M322.914,351.019H369.7v1.559H323.329Z" transform="translate(-312.671 -325.547)" fill="#1b1a19"/>
            </g>
            <path id="Path_1422" data-name="Path 1422" d="M330.7,341.156a1.227,1.227,0,0,1,1.2-1.687,2.417,2.417,0,0,1,2.171,1.687,1.227,1.227,0,0,1-1.2,1.687A2.417,2.417,0,0,1,330.7,341.156Z" transform="translate(-311.097 -327.903)" fill="#fff" stroke="#1a1a1a" stroke-linecap="round" stroke-linejoin="round" stroke-width="2"/>
          </g>
          <path id="Path_1423" data-name="Path 1423" d="M381.954,337.742a20.917,20.917,0,0,0,8.91-6.807v-3.622l-4.455,2.168-4.455,1.232Z" transform="translate(-270.276 -270.988)" fill="#1b1a19"/>
        </g>
        <path id="Path_1424" data-name="Path 1424" d="M398.053,351.742s-4.633,4.338-24.018,4.953-44.663,22.028-44.9,28.075,39.026,15.253,39.633,14.388,24.908-21.725,24.908-21.725Z" transform="translate(-267.919 -266.004)" fill="#fff"/>
        <path id="Path_1425" data-name="Path 1425" d="M427.969,407.2c-10.436-18.789-34.269,7.125-40.193-1.642s8.374-19.9,21.271-29.487c12.635-9.394,12.582-21.672,12.574-22.169.435,3.648.732,7.612.884,11.913C423.061,381.478,426.142,395.408,427.969,407.2Z" transform="translate(-256.238 -265.563)" fill="#1b1a19"/>
        <path id="Path_1426" data-name="Path 1426" d="M398.095,351.742s-4.633,4.338-24.018,4.953-44.909,22.959-45.147,29.005" transform="translate(-267.961 -266.004)" fill="#fff" stroke="#1a1a1a" stroke-linecap="round" stroke-linejoin="round" stroke-width="2"/>
      </g>
      <g id="Group_1025" data-name="Group 1025" transform="translate(170.205 206.932)">
        <path id="Path_1427" data-name="Path 1427" d="M166.427,201.878s4.531,7.985,16.4,10.885l-12.161,32.059s-19.047-4.682-21.448-12.352Z" transform="translate(-149.216 -192.204)" fill="none" stroke="#1a1a1a" stroke-linecap="round" stroke-linejoin="round" stroke-width="2"/>
        <path id="Path_1428" data-name="Path 1428" d="M184.033,204.847s9.716,13.128-1.338,24.081c0,0,9.017,5.641,24.018-2.2,0,0,3.567-18.107-8.8-32.886C197.916,193.843,195.528,198.84,184.033,204.847Z" transform="translate(-142.387 -193.843)" fill="none" stroke="#1a1a1a" stroke-linecap="round" stroke-linejoin="round" stroke-width="2"/>
        <path id="Path_1429" data-name="Path 1429" d="M204.182,221.228c4.066-13.868-1.763-26.806-1.763-26.806a14.836,14.836,0,0,1-5.022,2.625" transform="translate(-139.387 -193.725)" fill="none" stroke="#1a1a1a" stroke-linecap="round" stroke-linejoin="round" stroke-width="2"/>
        <path id="Path_1430" data-name="Path 1430" d="M194.528,227.332l2.259-8.7s6.9-.915,7.085-10.154" transform="translate(-139.973 -190.857)" fill="none" stroke="#1a1a1a" stroke-linecap="round" stroke-linejoin="round" stroke-width="2"/>
      </g>
      <g id="Group_1026" data-name="Group 1026" transform="translate(347.006 311.431)">
        <rect id="Rectangle_1217" data-name="Rectangle 1217" width="7.118" height="14.614" transform="translate(35.477 36.951) rotate(-180)" fill="none" stroke="#1a1a1a" stroke-miterlimit="10" stroke-width="2"/>
        <rect id="Rectangle_1218" data-name="Rectangle 1218" width="7.118" height="26.489" transform="translate(28.359 36.951) rotate(-180)" fill="none" stroke="#1a1a1a" stroke-miterlimit="10" stroke-width="2"/>
        <rect id="Rectangle_1219" data-name="Rectangle 1219" width="7.118" height="21.666" transform="translate(21.241 36.951) rotate(-180)" fill="none" stroke="#1a1a1a" stroke-miterlimit="10" stroke-width="2"/>
        <rect id="Rectangle_1220" data-name="Rectangle 1220" width="7.118" height="36.951" transform="translate(14.124 36.951) rotate(-180)" fill="none" stroke="#1a1a1a" stroke-miterlimit="10" stroke-width="2"/>
        <line id="Line_106" data-name="Line 106" x2="44.173" transform="translate(0 36.951)" fill="none" stroke="#1a1a1a" stroke-linecap="round" stroke-linejoin="round" stroke-width="2"/>
      </g>
      <path id="Path_1431" data-name="Path 1431" d="M60.307,431.35s59.017,24.177,121.435-43.477S274.723,262.807,331.279,257.4s-44.519,77.077-82.9,94.748c-17.082,7.864,0-23.88,0-23.88s37.446-93.549,154.31-105.347c50.537-5.1,76.209-33.255,89.057-57.371" transform="translate(2.853 7.318)" fill="#fff" stroke="#1a1a1a" stroke-linecap="round" stroke-linejoin="round" stroke-width="2"/>
      <g id="Group_1028" data-name="Group 1028" transform="translate(251.227 247.226)">
        <g id="Group_1027" data-name="Group 1027" transform="translate(0)" clip-path="url(#clip-path-3)">
          <rect id="Rectangle_1221" data-name="Rectangle 1221" width="82.905" height="112.239" fill="#1b1a19"/>
          <path id="Path_1432" data-name="Path 1432" d="M299.416,268.738c-22.551,23.28-62.2,52.188-82.905,62.361" transform="translate(-216.511 -218.859)" fill="none" stroke="#fff" stroke-linecap="round" stroke-linejoin="round" stroke-width="2"/>
        </g>
      </g>
      <g id="Group_1033" data-name="Group 1033" transform="translate(233.057 129.676)">
        <g id="Group_1032" data-name="Group 1032" transform="translate(0 0)">
          <g id="Group_1031" data-name="Group 1031">
            <g id="Group_1030" data-name="Group 1030">
              <g id="Group_1029" data-name="Group 1029">
                <rect id="Rectangle_1223" data-name="Rectangle 1223" width="57.449" height="93.404" transform="translate(0 57.449) rotate(-90)" fill="#fff" stroke="#1a1a1a" stroke-linecap="round" stroke-linejoin="round" stroke-width="2"/>
              </g>
            </g>
          </g>
        </g>
        <path id="Path_1433" data-name="Path 1433" d="M201.419,165.211,226.1,143.224l30.295,29.889,20.872-16.009,17.559,13.07V184.36h-93.4Z" transform="translate(-201.419 -126.912)" fill="#fff" stroke="#1a1a1a" stroke-linecap="round" stroke-linejoin="round" stroke-width="2"/>
      </g>
      <line id="Line_107" data-name="Line 107" x1="14.918" transform="translate(261.328 508.023)" fill="#fff" stroke="#1a1a1a" stroke-linecap="round" stroke-linejoin="round" stroke-width="2"/>
      <line id="Line_108" data-name="Line 108" x1="5.826" transform="translate(255.502 421.712)" fill="#fff" stroke="#1a1a1a" stroke-linecap="round" stroke-linejoin="round" stroke-width="2"/>
      <line id="Line_109" data-name="Line 109" x1="54.141" transform="translate(424.552 482.618)" fill="#fff" stroke="#1a1a1a" stroke-linecap="round" stroke-linejoin="round" stroke-width="2"/>
      <g id="Group_1040" data-name="Group 1040" transform="translate(100.582 188.596)">
        <g id="Group_1037" data-name="Group 1037" transform="translate(24.085)">
          <g id="Group_1036" data-name="Group 1036">
            <g id="Group_1035" data-name="Group 1035" transform="translate(12.69 11.498)">
              <g id="Group_1034" data-name="Group 1034">
                <path id="Path_1434" data-name="Path 1434" d="M139.74,197.068a8.9,8.9,0,1,0-15.206,6.286,10.111,10.111,0,0,1,2.616,4.491l.718,2.655H133.7l.68-2.514a10.122,10.122,0,0,1,2.7-4.57A8.875,8.875,0,0,0,139.74,197.068Z" transform="translate(-121.934 -188.164)" fill="#fff" stroke="#1a1a1a" stroke-linecap="round" stroke-linejoin="round" stroke-width="2"/>
                <path id="Path_1435" data-name="Path 1435" d="M131.232,214.813h-2.845a1.511,1.511,0,0,1-1.542-1.351l-.24-7.7,6.444-.042-.275,7.742A1.51,1.51,0,0,1,131.232,214.813Z" transform="translate(-120.981 -184.583)" fill="#fff" stroke="#1a1a1a" stroke-linecap="round" stroke-linejoin="round" stroke-width="2"/>
              </g>
              <path id="Path_1436" data-name="Path 1436" d="M132.392,209.642c-1.8.077-3.606-.014-5.406.065" transform="translate(-120.903 -183.783)" fill="#fff" stroke="#1a1a1a" stroke-linecap="round" stroke-linejoin="round" stroke-width="2"/>
            </g>
            <line id="Line_110" data-name="Line 110" y1="5.668" transform="translate(21.05)" fill="none" stroke="#1a1a1a" stroke-linecap="round" stroke-linejoin="round" stroke-width="2"/>
            <line id="Line_111" data-name="Line 111" x2="4.463" y2="3.495" transform="translate(6.197 5.271)" fill="none" stroke="#1a1a1a" stroke-linecap="round" stroke-linejoin="round" stroke-width="2"/>
            <line id="Line_112" data-name="Line 112" y1="0.714" x2="5.623" transform="translate(36.132 19.439)" fill="none" stroke="#1a1a1a" stroke-linecap="round" stroke-linejoin="round" stroke-width="2"/>
            <line id="Line_113" data-name="Line 113" x1="5.623" y1="0.714" transform="translate(0 17.165)" fill="none" stroke="#1a1a1a" stroke-linecap="round" stroke-linejoin="round" stroke-width="2"/>
            <line id="Line_114" data-name="Line 114" y1="3.694" x2="4.299" transform="translate(32.796 6.241)" fill="none" stroke="#1a1a1a" stroke-linecap="round" stroke-linejoin="round" stroke-width="2"/>
          </g>
          <path id="Path_1437" data-name="Path 1437" d="M118.326,282.631s6.392-.651,10.682-12.456c0,0,7.836,13.47,10.747,13.345,2.809-.122,21.844-15.138,23.715-16.656h0s6.865-6.385,7.39-6.5c.5-.112,4.481-8.247,7.9-4.93.27.261,1.291,7.275-7.331,12.648l-4.133,1.544h0c-1.4,2.253-16.623,26.741-29.377,26.933C131.913,296.648,118.326,282.631,118.326,282.631Z" transform="translate(-109.98 -163.106)" fill="#fff" stroke="#1a1a1a" stroke-linecap="round" stroke-linejoin="round" stroke-width="2"/>
          <path id="Path_1438" data-name="Path 1438" d="M125.575,275.971s7.907,13.485,15.509,16.36c0,0-3.31,2.31-9.9-2.4a65.214,65.214,0,0,1-11.216-10.347A7.455,7.455,0,0,0,125.575,275.971Z" transform="translate(-109.646 -158.754)" fill="#1b1a19"/>
        </g>
        <g id="Group_1039" data-name="Group 1039" transform="translate(0 53.424)">
          <path id="Path_1439" data-name="Path 1439" d="M157.124,306.5s5.6-2.371,8.926,2.7-.246,10.618-.246,10.618" transform="translate(-77.98 -206.063)" fill="#fff" stroke="#1a1a1a" stroke-linecap="round" stroke-linejoin="round" stroke-width="2"/>
          <path id="Path_1440" data-name="Path 1440" d="M133.49,300.924l14.791-23.638h32.1l-20.746,34.167" transform="translate(-82.801 -211.909)" fill="#fff" stroke="#1a1a1a" stroke-linecap="round" stroke-linejoin="round" stroke-width="2"/>
          <path id="Path_1441" data-name="Path 1441" d="M117.2,251.383a21.383,21.383,0,0,1,7.409-8.265c5.188-3.324,8.755.243,7.3,2.595s-3.98,6.724-3.98,6.724" transform="translate(-86.124 -219.155)" fill="#fff" stroke="#1a1a1a" stroke-linecap="round" stroke-linejoin="round" stroke-width="2"/>
          <g id="Group_1038" data-name="Group 1038" transform="translate(0 92.761)">
            <path id="Path_1442" data-name="Path 1442" d="M92.125,300.031s-4.324,19.024,8,23.348,61.827,3.027,61.827,3.027l27.67,49.288,11.025-9.295-24-50.8s-2.378-8.432-10.16-9.079S96.231,303.707,92.125,300.031Z" transform="translate(-91.389 -300.031)" fill="#fff" stroke="#1a1a1a" stroke-linecap="round" stroke-linejoin="round" stroke-width="2"/>
            <path id="Path_1443" data-name="Path 1443" d="M180.186,373.183,195.643,368s-1.622-4.324-7.728-2.7-7.228-7.917-7.228-7.917l-7.016,5.916Z" transform="translate(-74.605 -288.333)" fill="#1b1a19"/>
            <path id="Path_1444" data-name="Path 1444" d="M147.072,322.042s-8.029,25.511-10.31,51.615l12.149,3.567,12.936-38.984-9.153-16.3Z" transform="translate(-82.134 -295.562)" fill="#fff" stroke="#1a1a1a" stroke-linecap="round" stroke-linejoin="round" stroke-width="2"/>
            <path id="Path_1445" data-name="Path 1445" d="M139.109,380.238l13.052,8.754s1.053-5.674-2.026-7.7-5.159-6.958-2.782-13.288l-8.244-2.42Z" transform="translate(-81.655 -286.659)" fill="#1b1a19"/>
          </g>
          <path id="Path_1446" data-name="Path 1446" d="M130.371,249.663s-15.24-5.837-26.59,22.051S92,310.409,92,310.409s2.02,1.825,17.824,3.032,56.54,3.454,56.54,3.454-.108-5.188-6.81-6.486-31.994-6.269-32.643-9.188S148.855,254.852,130.371,249.663Z" transform="translate(-91.265 -217.648)" fill="#fff" stroke="#1a1a1a" stroke-linecap="round" stroke-linejoin="round" stroke-width="2"/>
          <path id="Path_1447" data-name="Path 1447" d="M130.01,250.934s-7.3-4.6-12.382,8.151-8.647,43.993-8.647,43.993-.864,6.161,3.027,8.539,15.565,3.028,15.565,3.028" transform="translate(-87.818 -217.45)" fill="none" stroke="#1a1a1a" stroke-linecap="round" stroke-linejoin="round" stroke-width="2"/>
          <line id="Line_115" data-name="Line 115" y2="6.091" transform="translate(68.29 92.761)" fill="#fff" stroke="#1a1a1a" stroke-linecap="round" stroke-linejoin="round" stroke-width="2"/>
          <path id="Path_1448" data-name="Path 1448" d="M133.007,229.87a18.925,18.925,0,0,1,6.647,14.214c.163,9.35-1.19,9.738-3.324,10.409s-4.458-7.112-6.026-7.22-9.242.811-12-6.647,2.189-10.782,4.864-12.565,5.412-4.054,5.412-4.054,6.019-3.08,7.478,1.459S133.007,229.87,133.007,229.87Z" transform="translate(-86.064 -222.986)" fill="#fff" stroke="#1a1a1a" stroke-linecap="round" stroke-linejoin="round" stroke-width="2"/>
          <path id="Path_1449" data-name="Path 1449" d="M139.654,244.085c.763,4.6-1.19,9.738-3.324,10.409s-4.458-7.112-6.026-7.22-9.242.811-12-6.647,2.189-10.782,4.864-12.565,5.412-4.054,5.412-4.054,6.019-3.08,7.478,1.459-3.053,4.4-3.053,4.4-7.728,3.541-6.432,8.08S133.439,249.813,139.654,244.085Z" transform="translate(-86.064 -222.986)" fill="#1b1a19"/>
        </g>
        <path id="Path_1450" data-name="Path 1450" d="M155.821,264.792s1.188-.2,3.821,2.76" transform="translate(-78.246 -161.035)" fill="#1b1a19" stroke="#231f20" stroke-linecap="round" stroke-linejoin="round" stroke-width="2"/>
      </g>
      <circle id="Ellipse_155" data-name="Ellipse 155" cx="2.314" cy="2.314" r="2.314" transform="translate(244.864 215.621)" fill="#fff" stroke="#1a1a1a" stroke-linecap="round" stroke-linejoin="round" stroke-width="2"/>
      <circle id="Ellipse_156" data-name="Ellipse 156" cx="2.314" cy="2.314" r="2.314" transform="translate(413.948 144.553)" fill="#fff" stroke="#1a1a1a" stroke-linecap="round" stroke-linejoin="round" stroke-width="2"/>
      <circle id="Ellipse_157" data-name="Ellipse 157" cx="4.018" cy="4.018" r="4.018" transform="translate(483.842 328.149)" fill="#fff" stroke="#1a1a1a" stroke-linecap="round" stroke-linejoin="round" stroke-width="2"/>
      <circle id="Ellipse_158" data-name="Ellipse 158" cx="5.112" cy="5.112" r="5.112" transform="translate(301.705 394.533)" fill="#fff" stroke="#1a1a1a" stroke-linecap="round" stroke-linejoin="round" stroke-width="2"/>
      <line id="Line_116" data-name="Line 116" x2="12.622" transform="translate(497.341 489.614)" fill="#fff" stroke="#1a1a1a" stroke-linecap="round" stroke-linejoin="round" stroke-width="2"/>
      <line id="Line_117" data-name="Line 117" x2="7.807" transform="translate(404.344 482.618)" fill="#fff" stroke="#1a1a1a" stroke-linecap="round" stroke-linejoin="round" stroke-width="2"/>
      <path id="Path_1451" data-name="Path 1451" d="M382.516,396.2s.078-9.71,19.963-24.235" transform="translate(68.579 49.425)" fill="#fff" stroke="#1a1a1a" stroke-linecap="round" stroke-linejoin="round" stroke-width="2"/>
      <path id="Path_1452" data-name="Path 1452" d="M383.355,396.355" transform="translate(68.751 54.399)" fill="#fff" stroke="#1a1a1a" stroke-linecap="round" stroke-linejoin="round" stroke-width="2"/>
      <line id="Line_118" data-name="Line 118" x2="70.841" transform="translate(46.323 260.652)" fill="#fff" stroke="#1a1a1a" stroke-linecap="round" stroke-linejoin="round" stroke-width="2"/>
      <line id="Line_119" data-name="Line 119" x2="150.778" transform="translate(376.518 264.632)" fill="#fff" stroke="#1a1a1a" stroke-linecap="round" stroke-linejoin="round" stroke-width="2"/>
      <line id="Line_120" data-name="Line 120" x2="72.048" transform="translate(240.86 450.754)" fill="#fff" stroke="#1a1a1a" stroke-linecap="round" stroke-linejoin="round" stroke-width="2"/>
      <line id="Line_121" data-name="Line 121" x2="46.229" transform="translate(509.963 450.754)" fill="#fff" stroke="#1a1a1a" stroke-linecap="round" stroke-linejoin="round" stroke-width="2"/>
      <g id="Group_1041" data-name="Group 1041" transform="translate(463.53 240.219)">
        <path id="Rectangle_1224" data-name="Rectangle 1224" d="M0,0H14.8a0,0,0,0,1,0,0V31.607a5.413,5.413,0,0,1-5.413,5.413H5.413A5.413,5.413,0,0,1,0,31.607V0A0,0,0,0,1,0,0Z" transform="translate(6.176 14.168) rotate(-52.151)" fill="#fff" stroke="#1a1a1a" stroke-linecap="round" stroke-linejoin="round" stroke-width="2"/>
        <path id="Path_1453" data-name="Path 1453" d="M399.02,235.658l-6.176-14.168,15.255,2.484Z" transform="translate(-392.844 -221.49)" fill="#fff" stroke="#1a1a1a" stroke-linecap="round" stroke-linejoin="round" stroke-width="2"/>
        <path id="Path_1454" data-name="Path 1454" d="M395.291,227.1s4.047.3,3.6-4.628l-6.043-.984Z" transform="translate(-392.844 -221.49)" fill="#fff" stroke="#1a1a1a" stroke-linecap="round" stroke-linejoin="round" stroke-width="2"/>
        <line id="Line_122" data-name="Line 122" y1="2.508" x2="1.949" transform="translate(7.521 9.93)" fill="#fff" stroke="#1a1a1a" stroke-linecap="round" stroke-linejoin="round" stroke-width="2" opacity="0.3"/>
      </g>
      <path id="Path_1455" data-name="Path 1455" d="M430.71,246.161s13.2,12.04,4.35,40.7" transform="translate(78.41 23.762)" fill="#fff" stroke="#1a1a1a" stroke-linecap="round" stroke-linejoin="round" stroke-width="2"/>
      <path id="Path_1456" data-name="Path 1456" d="M425.677,251.839s10.876,8.388,6.37,29.517" transform="translate(77.384 24.92)" fill="#fff" stroke="#1a1a1a" stroke-linecap="round" stroke-linejoin="round" stroke-width="2"/>
      <line id="Line_123" data-name="Line 123" x1="0.854" y2="2.097" transform="translate(506.793 311.303)" fill="#fff" stroke="#1a1a1a" stroke-linecap="round" stroke-linejoin="round" stroke-width="2"/>
      <line id="Line_124" data-name="Line 124" x1="0.854" y2="2.097" transform="translate(507.22 321.168)" fill="#fff" stroke="#1a1a1a" stroke-linecap="round" stroke-linejoin="round" stroke-width="2"/>
      <path id="Path_1457" data-name="Path 1457" d="M425.242,249.792s5.488,2.273,7.987,6.175c0,0-.531-3.65-5.541-9.806Z" transform="translate(77.295 23.762)" fill="#1a1a1a"/>
      <line id="Line_125" data-name="Line 125" x2="20.118" y2="15.336" transform="translate(477.801 250.903)" fill="#fff" stroke="#1a1a1a" stroke-linecap="round" stroke-linejoin="round" stroke-width="2"/>
      <path id="Path_1458" data-name="Path 1458" d="M431.943,286.6a.352.352,0,0,1-.47.163.351.351,0,0,1-.163-.468l.32-.657-.656-.319a.351.351,0,1,1,.307-.632l.657.32.32-.657a.351.351,0,1,1,.63.308l-.32.657.657.32a.351.351,0,0,1-.04.647.346.346,0,0,1-.267-.017l-.657-.32Z" transform="translate(78.424 31.512)" fill="#231f20"/>
      <path id="Path_1459" data-name="Path 1459" d="M421.473,258.447a.352.352,0,0,1-.47.163.349.349,0,0,1-.161-.468l.319-.657-.656-.32a.351.351,0,1,1,.308-.631l.656.32.32-.657a.351.351,0,1,1,.63.308l-.319.657.656.319a.351.351,0,0,1,.161.468.34.34,0,0,1-.2.178.345.345,0,0,1-.267-.016l-.656-.32Z" transform="translate(76.288 25.768)" fill="#231f20"/>
      <path id="Path_1460" data-name="Path 1460" d="M417.571,225.5a.437.437,0,0,1-.807-.049.433.433,0,0,1,.02-.332l.4-.818-.818-.4a.437.437,0,0,1,.383-.786l.818.4.4-.818a.437.437,0,1,1,.785.383l-.4.818.818.4a.436.436,0,1,1-.382.785l-.817-.4Z" transform="translate(75.434 18.926)" fill="#231f20"/>
      <path id="Path_1461" data-name="Path 1461" d="M444.6,255.206a.722.722,0,0,1-.963.331.7.7,0,0,1-.364-.411.711.711,0,0,1,.034-.549l.655-1.345-1.345-.656a.719.719,0,1,1,.63-1.293l1.346.655.655-1.345a.719.719,0,1,1,1.292.631l-.655,1.345,1.345.656a.718.718,0,0,1,.331.96.717.717,0,0,1-.96.331l-1.346-.656Z" transform="translate(80.757 24.583)" fill="#231f20"/>
      <path id="Path_1462" data-name="Path 1462" d="M155.956,166.947a.719.719,0,1,1-1.293-.629l.656-1.345-1.346-.656a.719.719,0,1,1,.631-1.293l1.346.655.655-1.345a.719.719,0,0,1,1.292.631l-.656,1.346,1.346.655a.718.718,0,0,1,.331.96.718.718,0,0,1-.961.331l-1.345-.655Z" transform="translate(21.877 6.58)" fill="#231f20"/>
      <path id="Path_1463" data-name="Path 1463" d="M164.637,210.226l-11.185,20.569a15.1,15.1,0,0,0,7.884,5.219" transform="translate(21.853 16.431)" fill="none" stroke="#1a1a1a" stroke-linecap="round" stroke-linejoin="round" stroke-width="2"/>
      <path id="Path_1464" data-name="Path 1464" d="M192,202.452s3.185-1.834,4.195-3.387a45.651,45.651,0,0,1,2.874,5.437" transform="translate(29.716 14.155)" fill="none" stroke="#1a1a1a" stroke-linecap="round" stroke-linejoin="round" stroke-width="2"/>
      <line id="Line_126" data-name="Line 126" y1="11.496" x2="13.671" transform="translate(240.514 157.137)" fill="none" stroke="#1a1a1a" stroke-linecap="round" stroke-linejoin="round" stroke-width="2"/>
      <line id="Line_127" data-name="Line 127" y1="11.341" x2="14.448" transform="translate(294.698 166.556)" fill="#fff" stroke="#1a1a1a" stroke-linecap="round" stroke-linejoin="round" stroke-width="2"/>
      <path id="Path_1465" data-name="Path 1465" d="M237.6,159.347s12.41-9.846,23.571,1.943" transform="translate(39.017 5.267)" fill="#fff" stroke="#1a1a1a" stroke-linecap="round" stroke-linejoin="round" stroke-width="2"/>
      <path id="Path_1466" data-name="Path 1466" d="M259.871,137.387a3.52,3.52,0,0,1,1.476,3.029s3.5-.155,5.67,1.554" transform="translate(43.561 1.573)" fill="#fff" stroke="#1a1a1a" stroke-linecap="round" stroke-linejoin="round" stroke-width="2"/>
      <path id="Path_1467" data-name="Path 1467" d="M263.443,135.161s.932,1.5.485,2.544a5.9,5.9,0,0,1,3.729.427" transform="translate(44.29 1.119)" fill="#fff" stroke="#1a1a1a" stroke-linecap="round" stroke-linejoin="round" stroke-width="2"/>
      <path id="Path_1468" data-name="Path 1468" d="M83.871,398.217s22.953.311,41.6-10.991" transform="translate(7.659 52.537)" fill="none" stroke="#1a1a1a" stroke-linecap="round" stroke-linejoin="round" stroke-width="2"/>
      <path id="Path_1469" data-name="Path 1469" d="M168.921,414.058s-2.644,11.85,2.884,17.526,4.625,15.9,4.625,15.9-4.856-1.569-5.08,2.764h9.71a78.626,78.626,0,0,0,.448-9.337c-.224-2.69-.821-13.6-2.614-19.347S170.414,410.547,168.921,414.058Z" transform="translate(24.88 57.78)" fill="#fff" stroke="#1a1a1a" stroke-linecap="round" stroke-linejoin="round" stroke-width="2"/>
      <path id="Path_1470" data-name="Path 1470" d="M211.7,409.478s6.512.067,10.059,5.4,11.155,10.16,18.272,8.208c0,0-2.415,6.822-10.825,6.417a3.165,3.165,0,0,0,.659.886s-6.771-.213-9.828-5.547c-3.31-5.776-6.957-8.005-6.957-8.005Z" transform="translate(33.734 57.076)" fill="#fff" stroke="#1a1a1a" stroke-linecap="round" stroke-linejoin="round" stroke-width="2"/>
      <path id="Path_1471" data-name="Path 1471" d="M200.915,419.523s-3.735,8.814,1.793,14.491a16.123,16.123,0,0,1,4.482,12.7s-4.856-1.569-5.08,2.764h9.71a78.817,78.817,0,0,0,.449-9.337c-.225-2.69-.822-13.6-2.615-19.347S202.409,416.012,200.915,419.523Z" transform="translate(31.283 58.546)" fill="#fff" stroke="#1a1a1a" stroke-linecap="round" stroke-linejoin="round" stroke-width="2"/>
      <path id="Path_1472" data-name="Path 1472" d="M229.514,452.673H219.8c.229-4.334,5.081-2.757,5.081-2.757a16.12,16.12,0,0,0-4.479-12.7,10.753,10.753,0,0,1-2.926-6.309c-6.851,2.263-17.506,3.251-27.234,2.637.494,4.274.722,8.308.855,9.8a80.624,80.624,0,0,1-.445,9.331h-9.716c.229-4.334,5.081-2.757,5.081-2.757a16.12,16.12,0,0,0-4.479-12.7,10.469,10.469,0,0,1-2.757-5.3c-1.192-.3-2.324-.626-3.371-1-12.449-4.383-8.813-24.393-8.813-24.393l10.282-5.514s3.781,4.575,25.1,5.779a69.5,69.5,0,0,1,16.4,2.5,10.611,10.611,0,0,1,7.38,11.883,6.824,6.824,0,0,1,1.589,2.817c1.794,5.743,2.384,16.651,2.613,19.348A77.906,77.906,0,0,1,229.514,452.673Z" transform="translate(24.433 55.349)" fill="#fff" stroke="#1a1a1a" stroke-linecap="round" stroke-linejoin="round" stroke-width="2"/>
      <path id="Path_1473" data-name="Path 1473" d="M206.611,427.912a12.061,12.061,0,0,1,3.106-8.56,16.054,16.054,0,0,0-.471,7.793C208.41,427.425,207.522,427.675,206.611,427.912Z" transform="translate(32.697 59.09)" fill="#fff" stroke="#1a1a1a" stroke-linecap="round" stroke-linejoin="round" stroke-width="2"/>
      <path id="Path_1474" data-name="Path 1474" d="M176.322,428.182a8.46,8.46,0,0,1-1.649-.691,14.154,14.154,0,0,1,3.317-7.775,21.959,21.959,0,0,0-1.069,8.628C176.725,428.288,176.515,428.24,176.322,428.182Z" transform="translate(26.182 59.165)" fill="#fff" stroke="#1a1a1a" stroke-linecap="round" stroke-linejoin="round" stroke-width="2"/>
      <g id="Group_1043" data-name="Group 1043" transform="translate(180.048 440.613)">
        <path id="Path_1475" data-name="Path 1475" d="M176.869,388.847c-7.1-3.311-10.118,3.422-12.155,3.458s-4.149-.182-6.133-.072c0,0-.746-.164-1.074.819a2.785,2.785,0,0,0,.146,1.929,3.128,3.128,0,0,0,.333,2.292c.668.783.777,1.184.722,1.511s-1.056,1.42,1.783,2.474,7.389,3.513,7.88,7.934l19.95-1.648C182.354,404.925,183.967,392.159,176.869,388.847Z" transform="translate(-157.391 -387.932)" fill="#fff" stroke="#1a1a1a" stroke-linecap="round" stroke-linejoin="round" stroke-width="2"/>
        <g id="Group_1042" data-name="Group 1042" transform="translate(11.413 3.104)">
          <path id="Path_1476" data-name="Path 1476" d="M166.989,391.747a.384.384,0,0,1-.1-.384,1.181,1.181,0,0,1,2.27.657.383.383,0,1,1-.736-.213.411.411,0,0,0-.035-.315.407.407,0,0,0-.249-.2.415.415,0,0,0-.514.283.382.382,0,0,1-.474.261A.387.387,0,0,1,166.989,391.747Z" transform="translate(-166.87 -390.51)" fill="#fff" stroke="#1a1a1a" stroke-linecap="round" stroke-linejoin="round" stroke-width="2"/>
        </g>
        <path id="Path_1477" data-name="Path 1477" d="M177.537,390.266c2.44,3.01,5.046,2.735,6.036,4.563,1.5,2.764-6.916,7.118-9.64,11.827-1.3,2.243-4.454-4.233-3.478-7.207s3.349-8.845,2.682-11.095C173.137,388.354,175.1,387.255,177.537,390.266Z" transform="translate(-154.764 -387.885)" fill="#fff" stroke="#1a1a1a" stroke-linecap="round" stroke-linejoin="round" stroke-width="2"/>
        <path id="Path_1478" data-name="Path 1478" d="M158.872,391.493c-.1,0-.2.007-.291.013,0,0-.746-.164-1.074.819a2.785,2.785,0,0,0,.146,1.929A3.564,3.564,0,0,0,159.978,393C160.963,391.493,158.879,391.5,158.872,391.493Z" transform="translate(-157.391 -387.205)" fill="#fff" stroke="#1a1a1a" stroke-linecap="round" stroke-linejoin="round" stroke-width="2"/>
        <path id="Path_1479" data-name="Path 1479" d="M158.469,397.208a8.821,8.821,0,0,0,4.025,1.051,6.675,6.675,0,0,0,3.457-.945.372.372,0,0,0,.13-.5.346.346,0,0,0-.48-.134c-3.44,2.044-7.132-.3-7.169-.329a.374.374,0,0,0-.1-.042,1.127,1.127,0,0,1,.178.762A.7.7,0,0,1,158.469,397.208Z" transform="translate(-157.198 -386.222)" fill="#fff" stroke="#1a1a1a" stroke-linecap="round" stroke-linejoin="round" stroke-width="2"/>
      </g>
      <path id="Path_1480" data-name="Path 1480" d="M185.808,404.187s-9.708,5.59-19.518,4.018l.266-1.991s13.567-.278,17.551-3.681Z" transform="translate(24.472 55.66)" fill="#fff" stroke="#1a1a1a" stroke-linecap="round" stroke-linejoin="round" stroke-width="2"/>
      <path id="Path_1481" data-name="Path 1481" d="M178.793,409.374s21.932-9.61,32-25.793" transform="translate(27.022 51.794)" fill="none" stroke="#1a1a1a" stroke-linecap="round" stroke-linejoin="round" stroke-width="2"/>
      <circle id="Ellipse_159" data-name="Ellipse 159" cx="2.563" cy="2.563" r="2.563" transform="translate(245.43 419.149)" stroke="#000" stroke-linecap="round" stroke-linejoin="round" stroke-width="2"/>
      <path id="Path_1482" data-name="Path 1482" d="M206.208,386.824s-7.183-15.891,4.014-18.835S214.694,383.925,206.208,386.824Z" transform="translate(32.152 48.55)" fill="none" stroke="#1a1a1a" stroke-linecap="round" stroke-linejoin="round" stroke-width="2"/>
      <rect id="Rectangle_1225" data-name="Rectangle 1225" width="19.849" height="5.074" transform="translate(228.144 419.173)" fill="#fff" stroke="#000" stroke-linecap="round" stroke-linejoin="round" stroke-width="2"/>
      <circle id="Ellipse_160" data-name="Ellipse 160" cx="2.563" cy="2.563" r="2.563" transform="translate(225.838 419.149)" fill="#fff" stroke="#000" stroke-linecap="round" stroke-linejoin="round" stroke-width="2"/>
    </g>
  </g>
</svg>
