<svg xmlns="http://www.w3.org/2000/svg" width="55.441" height="48.014" viewBox="0 0 55.441 48.014">
  <g id="Group_1446" data-name="Group 1446" transform="translate(-74.981 -34.934)">
    <path id="Path_2054" data-name="Path 2054" d="M186.274,108.285l4.578,8.5.665-1.166-2.753-11.646Z" transform="translate(-92.715 -57.515)" fill="#171819"/>
    <path id="Path_2055" data-name="Path 2055" d="M162.931,174.755l.268-.469-5.9-6.26-1.034,1.79-.35.606Z" transform="translate(-67.425 -110.875)" fill="#171819"/>
    <path id="Path_2056" data-name="Path 2056" d="M175.742,149.971l.372-.653-4.584-8.512-1.681,2.912Z" transform="translate(-79.032 -88.199)" fill="#171819"/>
    <path id="Path_2057" data-name="Path 2057" d="M211.816,55.808l2.589-4.539,6.5,11.4h9.509l-2.152-3.727-13.86-24.007-5.338,9.246Z" transform="translate(-111.704)" fill="#171819"/>
    <path id="Path_2058" data-name="Path 2058" d="M118.769,244.41l.673-1.181-9.485-.126-2.185,3.784Z" transform="translate(-27.318 -173.421)" fill="#171819"/>
    <path id="Path_2059" data-name="Path 2059" d="M119.756,211.889h-9.521l6.083,10.663H89.085l1.155-2.024L79.227,223.01l-4.246,7.355h55.441Z" transform="translate(0 -147.417)" fill="#171819"/>
    <path id="Path_2060" data-name="Path 2060" d="M150.356,196.581l.281-.492-7.024-4.338-1.381,2.393Z" transform="translate(-56.025 -130.64)" fill="#171819"/>
    <path id="Path_2061" data-name="Path 2061" d="M136.527,218.614l.267-.468-8.134-2.44-1.607,2.783Z" transform="translate(-43.381 -150.596)" fill="#171819"/>
  </g>
</svg>
