<?xml version="1.0" encoding="UTF-8"?>
<svg xmlns="http://www.w3.org/2000/svg" xmlns:xlink="http://www.w3.org/1999/xlink" width="60pt" height="60pt" viewBox="0 0 60 60" version="1.1">
<g id="surface1">
<path style=" stroke:none;fill-rule:nonzero;fill:rgb(0%,0%,0%);fill-opacity:1;" d="M 54.726562 7.148438 L 5.273438 7.148438 C 2.371094 7.148438 0 9.515625 0 12.421875 L 0 47.578125 C 0 50.476562 2.359375 52.851562 5.273438 52.851562 L 54.726562 52.851562 C 57.625 52.851562 60 50.492188 60 47.578125 L 60 12.421875 C 60 9.523438 57.640625 7.148438 54.726562 7.148438 Z M 54 10.664062 L 30.113281 34.550781 L 6.019531 10.664062 Z M 3.515625 46.851562 L 3.515625 13.132812 L 20.445312 29.917969 Z M 6 49.335938 L 22.941406 32.394531 L 28.878906 38.28125 C 29.566406 38.960938 30.675781 38.957031 31.359375 38.273438 L 37.148438 32.484375 L 54 49.335938 Z M 56.484375 46.851562 L 39.632812 30 L 56.484375 13.148438 Z M 56.484375 46.851562 "/>
</g>
</svg>
