<svg xmlns="http://www.w3.org/2000/svg" width="74.94" height="74.94" viewBox="0 0 74.94 74.94">
  <g id="Group_3" data-name="Group 3" transform="translate(-44.809 -83.966)">
    <g id="Group_2" data-name="Group 2">
      <g id="Group_1" data-name="Group 1">
        <path id="Path_1" data-name="Path 1" d="M77.353,121.585v18.332a.478.478,0,0,0,.478.477h6.807a.478.478,0,0,0,.477-.477V121.286h4.936a.478.478,0,0,0,.476-.437L91,115.236a.478.478,0,0,0-.476-.518h-5.41v-3.982a1.69,1.69,0,0,1,1.69-1.69h3.8a.477.477,0,0,0,.477-.478v-5.613a.477.477,0,0,0-.477-.478H84.182a6.829,6.829,0,0,0-6.829,6.829v5.412h-3.4a.478.478,0,0,0-.477.478v5.613a.477.477,0,0,0,.477.477h3.4Z" fill-rule="evenodd"/>
      </g>
      <path id="Path_2" data-name="Path 2" d="M82.279,83.966a37.47,37.47,0,1,0,37.47,37.47A37.512,37.512,0,0,0,82.279,83.966Zm32.664,37.47A32.665,32.665,0,1,1,82.279,88.771,32.7,32.7,0,0,1,114.943,121.436Z"/>
    </g>
  </g>
</svg>
