<svg xmlns="http://www.w3.org/2000/svg" xmlns:xlink="http://www.w3.org/1999/xlink" width="583" height="385" viewBox="0 0 583 385">
  <defs>
    <clipPath id="clip-path">
      <rect id="Rectangle_1434" data-name="Rectangle 1434" width="583" height="385" transform="translate(296 283)" fill="#444"/>
    </clipPath>
  </defs>
  <g id="Home_Img" transform="translate(-296 -283)" clip-path="url(#clip-path)">
    <g id="Group_661" data-name="Group 661" transform="translate(3016.639 -594.754)">
      <circle id="Ellipse_95" data-name="Ellipse 95" cx="4.674" cy="4.674" r="4.674" transform="translate(-2490.043 1010.61)" fill="none" stroke="#231f20" stroke-miterlimit="10" stroke-width="2"/>
      <circle id="Ellipse_96" data-name="Ellipse 96" cx="1.608" cy="1.608" r="1.608" transform="translate(-2577.138 1140.999)" fill="none" stroke="#231f20" stroke-miterlimit="10" stroke-width="2"/>
      <circle id="Ellipse_97" data-name="Ellipse 97" cx="4.674" cy="4.674" r="4.674" transform="translate(-2559.049 1101.88)" fill="none" stroke="#231f20" stroke-miterlimit="10" stroke-width="2"/>
      <path id="Path_703" data-name="Path 703" d="M-2478.251,957.708a1.469,1.469,0,0,1,0,2.072,1.451,1.451,0,0,1-1.033.428,1.454,1.454,0,0,1-1.033-.428l-2.153-2.154-2.153,2.154a1.469,1.469,0,0,1-2.072,0,1.468,1.468,0,0,1,0-2.072l2.154-2.153-2.154-2.153a1.461,1.461,0,0,1,0-2.066,1.469,1.469,0,0,1,2.072,0l2.153,2.153,2.153-2.153a1.462,1.462,0,0,1,2.066,0,1.44,1.44,0,0,1,.43,1.033,1.442,1.442,0,0,1-.43,1.033l-2.153,2.153Z" transform="translate(35.422 10.305)" fill="#231f20"/>
      <path id="Path_704" data-name="Path 704" d="M-2313.685,905.434a1.468,1.468,0,0,1,0,2.071,1.448,1.448,0,0,1-1.033.428,1.449,1.449,0,0,1-1.033-.428l-2.153-2.154-2.154,2.154a1.468,1.468,0,0,1-2.071,0,1.468,1.468,0,0,1,0-2.071l2.154-2.154-2.154-2.153a1.462,1.462,0,0,1,0-2.066,1.468,1.468,0,0,1,2.071,0l2.154,2.154,2.153-2.154a1.462,1.462,0,0,1,2.066,0,1.441,1.441,0,0,1,.428,1.033,1.439,1.439,0,0,1-.428,1.033l-2.154,2.153Z" transform="translate(61.857 1.908)" fill="#231f20"/>
      <g id="Group_645" data-name="Group 645" transform="translate(-2510.074 886.754)">
        <path id="Path_705" data-name="Path 705" d="M-2512.712,886.754v24.705h-24.705a24.64,24.64,0,0,1,7.61-17.839,24.6,24.6,0,0,1,16.761-6.859C-2512.937,886.754-2512.821,886.754-2512.712,886.754Z" transform="translate(2537.417 -886.754)" fill="none" stroke="#231f20" stroke-miterlimit="10" stroke-width="2"/>
        <path id="Path_706" data-name="Path 706" d="M-2513.765,886.754v13.733a24.583,24.583,0,0,1-10.845-2.5,24.747,24.747,0,0,1-6.25-4.364,24.6,24.6,0,0,1,16.761-6.859C-2513.99,886.754-2513.875,886.754-2513.765,886.754Z" transform="translate(2538.47 -886.754)" fill="none" stroke="#231f20" stroke-miterlimit="10" stroke-width="2"/>
        <path id="Path_707" data-name="Path 707" d="M-2514.341,886.754v24.705h-12.936a42.188,42.188,0,0,1,2.091-13.475c2.253-6.6,6.11-11.012,10.511-11.223C-2514.566,886.754-2514.45,886.754-2514.341,886.754Z" transform="translate(2539.046 -886.754)" fill="none" stroke="#231f20" stroke-miterlimit="10" stroke-width="2"/>
        <path id="Path_708" data-name="Path 708" d="M-2516.131,886.754v24.705h24.705a24.636,24.636,0,0,0-7.612-17.839,24.6,24.6,0,0,0-16.76-6.859C-2515.907,886.754-2516.022,886.754-2516.131,886.754Z" transform="translate(2540.836 -886.754)" fill="none" stroke="#231f20" stroke-miterlimit="10" stroke-width="2"/>
        <path id="Path_709" data-name="Path 709" d="M-2516.131,886.754v13.733a24.574,24.574,0,0,0,10.844-2.5,24.716,24.716,0,0,0,6.25-4.364,24.6,24.6,0,0,0-16.76-6.859C-2515.907,886.754-2516.022,886.754-2516.131,886.754Z" transform="translate(2540.836 -886.754)" fill="none" stroke="#231f20" stroke-miterlimit="10" stroke-width="2"/>
        <path id="Path_710" data-name="Path 710" d="M-2516.131,886.754v24.705h12.937a42.18,42.18,0,0,0-2.093-13.475c-2.251-6.6-6.108-11.012-10.511-11.223C-2515.907,886.754-2516.022,886.754-2516.131,886.754Z" transform="translate(2540.836 -886.754)" fill="none" stroke="#231f20" stroke-miterlimit="10" stroke-width="2"/>
        <path id="Path_711" data-name="Path 711" d="M-2512.712,932.745V908.04h-24.705a24.64,24.64,0,0,0,7.61,17.839,24.6,24.6,0,0,0,16.761,6.859C-2512.937,932.745-2512.821,932.745-2512.712,932.745Z" transform="translate(2537.417 -883.335)" fill="none" stroke="#231f20" stroke-miterlimit="10" stroke-width="2"/>
        <path id="Path_712" data-name="Path 712" d="M-2513.765,931.227V917.494a24.567,24.567,0,0,0-10.845,2.5,24.744,24.744,0,0,0-6.25,4.363,24.6,24.6,0,0,0,16.761,6.859C-2513.99,931.227-2513.875,931.227-2513.765,931.227Z" transform="translate(2538.47 -881.816)" fill="none" stroke="#231f20" stroke-miterlimit="10" stroke-width="2"/>
        <path id="Path_713" data-name="Path 713" d="M-2514.341,932.745V908.04h-12.936a42.2,42.2,0,0,0,2.091,13.476c2.253,6.6,6.11,11.011,10.511,11.222C-2514.566,932.745-2514.45,932.745-2514.341,932.745Z" transform="translate(2539.046 -883.335)" fill="none" stroke="#231f20" stroke-miterlimit="10" stroke-width="2"/>
        <path id="Path_714" data-name="Path 714" d="M-2516.131,932.745V908.04h24.705a24.636,24.636,0,0,1-7.612,17.839,24.591,24.591,0,0,1-16.76,6.859C-2515.907,932.745-2516.022,932.745-2516.131,932.745Z" transform="translate(2540.836 -883.335)" fill="none" stroke="#231f20" stroke-miterlimit="10" stroke-width="2"/>
        <path id="Path_715" data-name="Path 715" d="M-2516.131,931.227V917.494a24.559,24.559,0,0,1,10.844,2.5,24.713,24.713,0,0,1,6.25,4.363,24.591,24.591,0,0,1-16.76,6.859C-2515.907,931.227-2516.022,931.227-2516.131,931.227Z" transform="translate(2540.836 -881.816)" fill="none" stroke="#231f20" stroke-miterlimit="10" stroke-width="2"/>
        <path id="Path_716" data-name="Path 716" d="M-2516.131,932.745V908.04h12.937a42.187,42.187,0,0,1-2.093,13.476c-2.251,6.6-6.108,11.011-10.511,11.222C-2515.907,932.745-2516.022,932.745-2516.131,932.745Z" transform="translate(2540.836 -883.335)" fill="none" stroke="#231f20" stroke-miterlimit="10" stroke-width="2"/>
      </g>
      <circle id="Ellipse_98" data-name="Ellipse 98" cx="9.69" cy="9.69" r="9.69" transform="translate(-2553.808 980.123)" fill="none" stroke="#231f20" stroke-miterlimit="10" stroke-width="2"/>
      <circle id="Ellipse_99" data-name="Ellipse 99" cx="3.523" cy="3.523" r="3.523" transform="translate(-2458.745 986.291)" fill="#231f20"/>
      <line id="Line_34" data-name="Line 34" x2="75.683" transform="translate(-2534.428 989.814)" fill="none" stroke="#231f20" stroke-miterlimit="10" stroke-width="2"/>
      <line id="Line_35" data-name="Line 35" x2="189.466" transform="translate(-2423.285 1046.774)" fill="none" stroke="#231f20" stroke-miterlimit="10" stroke-width="2"/>
      <path id="Path_717" data-name="Path 717" d="M-2276.87,1064.011a11.958,11.958,0,0,1-8.322,3.377h-177.449V919.2h189.473v136.165a12.1,12.1,0,0,1-.139,1.845" transform="translate(39.354 5.212)" fill="none" stroke="#231f20" stroke-miterlimit="10" stroke-width="2"/>
      <path id="Path_718" data-name="Path 718" d="M-2558.4,1033.756h10.871s22.923.621,33.078-5.472,22.052-7.347,33.368,5.467,26.114,2.716,40.912-14.578l20.988-24.063,16.863-18.443s9.059-11.928,20.277-.128,18.764,17.99,31.531,4.449,25.34-30.176,25.34-30.176,5.417-8.317,14.508-2.127,11.3-1.316,20.119-12.187" transform="translate(23.972 7.99)" fill="none" stroke="#231f20" stroke-miterlimit="10" stroke-width="2"/>
      <path id="Path_719" data-name="Path 719" d="M-2322.312,926.009l-9.571,5.526a2.354,2.354,0,0,0,0,4.078l9.571,5.526a2.355,2.355,0,0,0,3.533-2.039V928.048A2.355,2.355,0,0,0-2322.312,926.009Z" transform="translate(60.169 6.254)" fill="#231f20"/>
      <g id="Group_646" data-name="Group 646" transform="translate(-2396.432 940.937)">
        <rect id="Rectangle_1003" data-name="Rectangle 1003" width="11.389" height="2.902" rx="1.25" transform="translate(4.573 22.025)" fill="none" stroke="#231f20" stroke-miterlimit="10" stroke-width="2"/>
        <rect id="Rectangle_1004" data-name="Rectangle 1004" width="7.568" height="2.902" rx="1.25" transform="translate(6.483 24.927)" fill="none" stroke="#231f20" stroke-miterlimit="10" stroke-width="2"/>
        <rect id="Rectangle_1005" data-name="Rectangle 1005" width="4.473" height="2.902" rx="1.25" transform="translate(8.031 27.828)" fill="none" stroke="#231f20" stroke-miterlimit="10" stroke-width="2"/>
        <path id="Path_720" data-name="Path 720" d="M-2423.94,955.778l-.022-3.271a10.232,10.232,0,0,0,4.991-8.809,10.263,10.263,0,0,0-10.26-10.26A10.266,10.266,0,0,0-2439.5,943.7a10.232,10.232,0,0,0,4.991,8.809v3.517" transform="translate(2439.503 -933.438)" fill="none" stroke="#231f20" stroke-miterlimit="10" stroke-width="2"/>
        <line id="Line_36" data-name="Line 36" y2="7.157" transform="translate(9.989 14.868)" fill="none" stroke="#231f20" stroke-miterlimit="10" stroke-width="2"/>
        <path id="Path_721" data-name="Path 721" d="M-2433.179,943.967l2.648,2.648,2.492-2.492" transform="translate(2440.519 -931.747)" fill="none" stroke="#231f20" stroke-miterlimit="10" stroke-width="2"/>
        <circle id="Ellipse_100" data-name="Ellipse 100" cx="1.01" cy="1.01" r="1.01" transform="translate(5.83 10.878)" fill="none" stroke="#231f20" stroke-miterlimit="10" stroke-width="2"/>
        <circle id="Ellipse_101" data-name="Ellipse 101" cx="1.01" cy="1.01" r="1.01" transform="translate(12.032 10.878)" fill="none" stroke="#231f20" stroke-miterlimit="10" stroke-width="2"/>
      </g>
      <g id="Group_647" data-name="Group 647" transform="translate(-2403.723 933.317)">
        <line id="Line_37" data-name="Line 37" y1="2.757" transform="translate(17.558)" fill="none" stroke="#231f20" stroke-miterlimit="10" stroke-width="2"/>
        <line id="Line_38" data-name="Line 38" x1="1.175" y1="2.493" transform="translate(9.888 1.614)" fill="none" stroke="#231f20" stroke-miterlimit="10" stroke-width="2"/>
        <line id="Line_39" data-name="Line 39" x1="2.126" y1="1.755" transform="translate(3.638 6.344)" fill="none" stroke="#231f20" stroke-miterlimit="10" stroke-width="2"/>
        <line id="Line_40" data-name="Line 40" x1="2.671" y1="0.681" transform="translate(0 13.287)" fill="none" stroke="#231f20" stroke-miterlimit="10" stroke-width="2"/>
      </g>
      <g id="Group_648" data-name="Group 648" transform="translate(-2386.166 933.317)">
        <line id="Line_41" data-name="Line 41" y1="2.757" fill="none" stroke="#231f20" stroke-miterlimit="10" stroke-width="2"/>
        <line id="Line_42" data-name="Line 42" y1="2.493" x2="1.175" transform="translate(6.495 1.614)" fill="none" stroke="#231f20" stroke-miterlimit="10" stroke-width="2"/>
        <line id="Line_43" data-name="Line 43" y1="1.755" x2="2.126" transform="translate(11.794 6.344)" fill="none" stroke="#231f20" stroke-miterlimit="10" stroke-width="2"/>
        <line id="Line_44" data-name="Line 44" y1="0.681" x2="2.671" transform="translate(14.887 13.287)" fill="none" stroke="#231f20" stroke-miterlimit="10" stroke-width="2"/>
      </g>
      <line id="Line_45" data-name="Line 45" y1="28.493" x2="25.05" transform="translate(-2406.85 1000.625)" fill="none" stroke="#231f20" stroke-miterlimit="10" stroke-width="2"/>
      <path id="Path_722" data-name="Path 722" d="M-2296.672,901.989a12.274,12.274,0,0,1,6.15,8.709,12.268,12.268,0,0,1,10.642.645" transform="translate(66.014 2.447)" fill="none" stroke="#231f20" stroke-linecap="round" stroke-linejoin="round" stroke-width="2"/>
      <path id="Path_723" data-name="Path 723" d="M-2290.746,896.9a8.748,8.748,0,0,1,4.383,6.207,8.746,8.746,0,0,1,7.585.46" transform="translate(66.966 1.629)" fill="none" stroke="#231f20" stroke-linecap="round" stroke-linejoin="round" stroke-width="2"/>
      <path id="Path_724" data-name="Path 724" d="M-2655.814,1112.13a13.591,13.591,0,0,1-.443,3.456h-41.432a8.665,8.665,0,0,1,8.664-8.664,8.593,8.593,0,0,1,6.045,2.474,13.725,13.725,0,0,1,13.449-10.984A13.718,13.718,0,0,1-2655.814,1112.13Z" transform="translate(1.598 33.999)" fill="#fff" stroke="#231f20" stroke-linecap="round" stroke-linejoin="round" stroke-width="2"/>
      <path id="Path_725" data-name="Path 725" d="M-2455.812,1158.834h-56.268a8.659,8.659,0,0,1,8.658-8.659,8.572,8.572,0,0,1,6.012,2.438l.035.035a13.773,13.773,0,0,1,10.539-10.678c.36-.081.72-.139,1.079-.186a5.069,5.069,0,0,1,.6-.07,3.285,3.285,0,0,1,.476-.035c.22-.012.429-.023.65-.023h.162c.221,0,.43.011.65.023a3.276,3.276,0,0,1,.476.035,5.572,5.572,0,0,1,.615.07c.2.023.4.058.592.093.348.058.685.139,1.021.22a13.907,13.907,0,0,1,1.961.662,13.764,13.764,0,0,1,8.031,9.888l.035-.035a8.594,8.594,0,0,1,6.012-2.437A8.659,8.659,0,0,1-2455.812,1158.834Z" transform="translate(31.413 40.945)" fill="none" stroke="#231f20" stroke-linecap="round" stroke-linejoin="round" stroke-width="2"/>
      <path id="Path_726" data-name="Path 726" d="M-2597.048,1188.025s11.387-25.454,48.936-34.893,51.563-10.065,61.4-42.636,40.859-31.251,63.3-32.86,33.257-13.385,33.257-13.385" transform="translate(17.764 28.511)" fill="none" stroke="#231f20" stroke-linecap="round" stroke-linejoin="round" stroke-width="2" stroke-dasharray="5 9"/>
      <g id="Group_649" data-name="Group 649" transform="translate(-2319.899 968.674)">
        <rect id="Rectangle_1006" data-name="Rectangle 1006" width="12.702" height="26.079" transform="translate(9.459 39.862)" fill="none" stroke="#231f20" stroke-miterlimit="10" stroke-width="2"/>
        <rect id="Rectangle_1007" data-name="Rectangle 1007" width="12.702" height="47.272" transform="translate(22.161 18.67)" fill="none" stroke="#231f20" stroke-miterlimit="10" stroke-width="2"/>
        <rect id="Rectangle_1008" data-name="Rectangle 1008" width="12.702" height="38.664" transform="translate(34.863 27.278)" fill="none" stroke="#231f20" stroke-miterlimit="10" stroke-width="2"/>
        <rect id="Rectangle_1009" data-name="Rectangle 1009" width="12.702" height="65.942" transform="translate(47.565)" fill="none" stroke="#231f20" stroke-miterlimit="10" stroke-width="2"/>
        <line id="Line_46" data-name="Line 46" x2="71.347" transform="translate(0 65.942)" fill="none" stroke="#231f20" stroke-miterlimit="10" stroke-width="2"/>
      </g>
      <line id="Line_47" data-name="Line 47" x2="7.544" transform="translate(-2366.808 961.414)" fill="none" stroke="#231f20" stroke-miterlimit="10" stroke-width="2"/>
      <line id="Line_48" data-name="Line 48" x2="7.544" transform="translate(-2363.907 965.864)" fill="none" stroke="#231f20" stroke-miterlimit="10" stroke-width="2"/>
      <line id="Line_49" data-name="Line 49" x2="57.838" transform="translate(-2404.239 1055.232)" fill="none" stroke="#231f20" stroke-miterlimit="10" stroke-width="2"/>
      <line id="Line_50" data-name="Line 50" x2="57.838" transform="translate(-2404.239 1062.944)" fill="none" stroke="#231f20" stroke-miterlimit="10" stroke-width="2"/>
      <g id="Group_651" data-name="Group 651" transform="translate(-2381.297 1010.288)">
        <path id="Path_727" data-name="Path 727" d="M-2403.9,1004.483a11.274,11.274,0,0,1-11.277,11.277,11.281,11.281,0,0,1-11.285-11.277,11.288,11.288,0,0,1,11.285-11.285v11.285Z" transform="translate(2426.463 -993.19)" fill="none" stroke="#231f20" stroke-miterlimit="10" stroke-width="2"/>
        <path id="Path_728" data-name="Path 728" d="M-2405.463,1004.483h-11.277V993.2A11.281,11.281,0,0,1-2405.463,1004.483Z" transform="translate(2428.025 -993.19)" fill="#231f20" stroke="#231f20" stroke-miterlimit="10" stroke-width="2"/>
        <g id="Group_650" data-name="Group 650" transform="translate(34.03)">
          <path id="Path_729" data-name="Path 729" d="M-2374.584,1004.487a11.278,11.278,0,0,1-4.365,8.914,11.265,11.265,0,0,1-6.914,2.365,11.277,11.277,0,0,1-11.28-11.279,11.292,11.292,0,0,1,11.28-11.3,9.765,9.765,0,0,1,2.1.217A11.255,11.255,0,0,1-2374.584,1004.487Z" transform="translate(2397.143 -993.191)" fill="none" stroke="#231f20" stroke-miterlimit="10" stroke-width="2"/>
          <path id="Path_730" data-name="Path 730" d="M-2376.145,1004.457a11.278,11.278,0,0,1-4.365,8.914l-6.914-8.914,2.1-11.079A11.255,11.255,0,0,1-2376.145,1004.457Z" transform="translate(2398.704 -993.161)" fill="#231f20" stroke="#231f20" stroke-miterlimit="10" stroke-width="2"/>
        </g>
      </g>
      <g id="Group_652" data-name="Group 652" transform="translate(-2348.535 938.948)">
        <rect id="Rectangle_1010" data-name="Rectangle 1010" width="28.91" height="6.383" transform="translate(0 12.683)" fill="none" stroke="#231f20" stroke-miterlimit="10" stroke-width="2"/>
        <rect id="Rectangle_1011" data-name="Rectangle 1011" width="20.79" height="6.383" transform="translate(0 12.683)" fill="#231f20" stroke="#231f20" stroke-miterlimit="10" stroke-width="2"/>
        <rect id="Rectangle_1012" data-name="Rectangle 1012" width="28.91" height="6.383" fill="none" stroke="#231f20" stroke-miterlimit="10" stroke-width="2"/>
        <rect id="Rectangle_1013" data-name="Rectangle 1013" width="12.67" height="6.383" fill="#231f20" stroke="#231f20" stroke-miterlimit="10" stroke-width="2"/>
      </g>
      <g id="Group_655" data-name="Group 655" transform="translate(-2384.856 1150.433)">
        <g id="Group_654" data-name="Group 654">
          <g id="freepik--Plant--inject-4">
            <path id="Path_731" data-name="Path 731" d="M-2410.74,1138.049c-1.632,2.325-4.786,1.553-6.251.128s-2.081-3.477-2.647-5.431c-1.279-4.484-2.569-9.182-1.611-13.743a7.738,7.738,0,0,1,1.757-3.731,4,4,0,0,1,3.78-1.25c1.592.42,2.588,1.953,3.3,3.467a32.755,32.755,0,0,1,3.213,14.055,11.3,11.3,0,0,1-1.542,6.505" transform="translate(2430.806 -1113.94)" fill="#fff" stroke="#231f20" stroke-linecap="round" stroke-linejoin="round" stroke-width="2"/>
            <g id="Group_653" data-name="Group 653" transform="translate(9.225)" opacity="0.2">
              <path id="Path_732" data-name="Path 732" d="M-2410.74,1138.049c-1.632,2.325-4.786,1.553-6.251.128s-2.081-3.477-2.647-5.431c-1.279-4.484-2.569-9.182-1.611-13.743a7.738,7.738,0,0,1,1.757-3.731,4,4,0,0,1,3.78-1.25c1.592.42,2.588,1.953,3.3,3.467a32.755,32.755,0,0,1,3.213,14.055,11.3,11.3,0,0,1-1.542,6.505" transform="translate(2421.582 -1113.94)" fill="#fff" stroke="#231f20" stroke-linecap="round" stroke-linejoin="round" stroke-width="2"/>
            </g>
            <path id="Path_733" data-name="Path 733" d="M-2415.577,1145.074a14.044,14.044,0,0,0-8.792-1.075,7.254,7.254,0,0,0-4.316,1.953c-1,1.075-1.241,3.2-.02,4.239a4.176,4.176,0,0,0,2.725.694c2.314,0,4.884-.429,6.729.976,1.046.792,1.749,2.11,3.008,2.5a2.988,2.988,0,0,0,3.292-1.475,5.076,5.076,0,0,0,.371-3.75A5.72,5.72,0,0,0-2415.577,1145.074Z" transform="translate(2429.53 -1109.156)" fill="#fff" stroke="#231f20" stroke-linecap="round" stroke-linejoin="round" stroke-width="2"/>
            <path id="Path_734" data-name="Path 734" d="M-2408.153,1140.36a8.456,8.456,0,0,1-1.309-7.813,14.965,14.965,0,0,1,4.619-6.681,24.648,24.648,0,0,1,8.254-4.884,8.694,8.694,0,0,1,3.712-.626,3.909,3.909,0,0,1,3.115,1.885c.869,1.661,0,3.663-.869,5.3a63.08,63.08,0,0,1-5.431,8.244c-1.631,2.09-3.5,4.151-5.968,5.1s-5.05.83-6.358-.889" transform="translate(2432.683 -1112.911)" fill="#fff" stroke="#231f20" stroke-linecap="round" stroke-linejoin="round" stroke-width="2"/>
            <path id="Path_735" data-name="Path 735" d="M-2410.5,1167.856a3.8,3.8,0,0,1-.147-1.055c-.078-.761-.166-1.728-.283-2.881a40.1,40.1,0,0,0-.635-4.22,33,33,0,0,0-1.533-4.991,18.231,18.231,0,0,0-2.54-4.522,9.5,9.5,0,0,0-3.214-2.638,9.074,9.074,0,0,0-2.715-.85,4.92,4.92,0,0,1-1.055-.156" transform="translate(2430.639 -1108.702)" fill="none" stroke="#231f20" stroke-linecap="round" stroke-linejoin="round" stroke-width="2"/>
            <path id="Path_736" data-name="Path 736" d="M-2416.919,1121.963a3.089,3.089,0,0,1,.166.458l.409,1.349c.177.576.362,1.3.566,2.139s.449,1.8.675,2.861a158.05,158.05,0,0,1,2.686,16.8c.714,6.6,1.035,12.62,1.055,16.975,0,2.179,0,3.908-.077,5.158,0,.576-.069,1.035-.088,1.407a3.2,3.2,0,0,1-.088.478" transform="translate(2431.555 -1112.651)" fill="none" stroke="#231f20" stroke-linecap="round" stroke-linejoin="round" stroke-width="2"/>
            <path id="Path_737" data-name="Path 737" d="M-2396.855,1125.043a43.424,43.424,0,0,0-3.973,3.527,37.677,37.677,0,0,0-6.8,10.792,53.874,53.874,0,0,0-2.4,6.642c-.624,2.08-1.036,4-1.353,5.606s-.47,2.943-.575,3.835a9.046,9.046,0,0,1-.173,1.446" transform="translate(2432.324 -1112.156)" fill="none" stroke="#231f20" stroke-linecap="round" stroke-linejoin="round" stroke-width="2"/>
          </g>
          <path id="Path_738" data-name="Path 738" d="M-2396.856,1182.738c-1.554,9.229-7.3,17.508-13.125,17.508s-11.569-8.27-13.123-17.508,1.075-19.667,1.075-19.667h24.1S-2395.3,1173.509-2396.856,1182.738Z" transform="translate(2430.482 -1106.048)" fill="#231f20" stroke="#231f20" stroke-linecap="round" stroke-linejoin="round" stroke-width="2"/>
          <line id="Line_51" data-name="Line 51" x2="35.256" transform="translate(1.848 94.198)" fill="none" stroke="#231f20" stroke-linecap="round" stroke-linejoin="round" stroke-width="2"/>
        </g>
        <line id="Line_52" data-name="Line 52" x2="28.435" transform="translate(23.807 103.293)" fill="none" stroke="#231f20" stroke-linecap="round" stroke-linejoin="round" stroke-width="2"/>
      </g>
      <g id="Group_659" data-name="Group 659" transform="translate(-2707.639 1019.269)">
        <g id="freepik--Character--inject-2" transform="translate(59.304 30.981)">
          <path id="Path_739" data-name="Path 739" d="M-2623.511,1203.613a17.24,17.24,0,0,1,1.182-4.423c.825-1.65,6.073-.6,6.073-.6s1.049.9,1.274,5.1Z" transform="translate(2661.849 -1000.212)" fill="#231f20"/>
          <path id="Path_740" data-name="Path 740" d="M-2636.606,1202.734c1.233-.752.532-6.368.532-6.368s-5.747-4.6-6.538-1.077-5.458,5.1-8.116,5.53a2.854,2.854,0,0,0-2.579,1.915Z" transform="translate(2657.063 -1000.902)" fill="#231f20"/>
          <path id="Path_741" data-name="Path 741" d="M-2625.953,1174.339a26.682,26.682,0,0,0-.421,3.1c-.534,10.42-8.771,34.246-10.245,34.8-2.28.86-5.869-.968-7.747-1.567a1.61,1.61,0,0,1-1.13-1.83c4.079-18.752,5.578-63.76,6.123-79.748a72.528,72.528,0,0,1,1.657-13.614s20.091-5.361,20.21,1.419C-2617.4,1122.9-2624.161,1164.441-2625.953,1174.339Z" transform="translate(2658.312 -1013.831)" fill="#fff" stroke="#231f20" stroke-linecap="round" stroke-linejoin="round" stroke-width="2"/>
          <path id="Path_742" data-name="Path 742" d="M-2633.257,1111.057l11.485,101.237s4.663,1.125,8.29.225c0,0,3.109-58.943,2.851-68.839s2.231-26.483-.569-28.312S-2633.257,1111.057-2633.257,1111.057Z" transform="translate(2660.283 -1014.22)" fill="#fff"/>
          <path id="Path_743" data-name="Path 743" d="M-2619.254,1062.03c1.393-4.011,2.556-8.776-.767-12.225a11.956,11.956,0,0,0-12.923-3.167c-4.625,1.783-6.452,7.253-6.172,11.84,4.022-.5,8.011-1.179,12.016-1.762C-2624.485,1058.491-2621.915,1060.295-2619.254,1062.03Z" transform="translate(2659.337 -1024.689)" fill="#231f20"/>
          <path id="Path_744" data-name="Path 744" d="M-2629.658,1049.527c-3.606-1.209-6.567,2.353-7.634,5.089-1.182,3.037-1.333,8.071-1.315,10.484.038,4.853,1.331,5.138,4.13,8.055-.327,3.527-1,7.14-1.338,10.727,4.655-1.465,8.686,1.706,13.336-.276.342-7.889,2.574-20.477,2.8-27.26S-2626.051,1050.737-2629.658,1049.527Z" transform="translate(2659.424 -1024.142)" fill="#fff" stroke="#231f20" stroke-linecap="round" stroke-linejoin="round" stroke-width="2"/>
          <path id="Path_745" data-name="Path 745" d="M-2634.674,1070.684a25.109,25.109,0,0,0,8.959-2.095c-2.538,2.881-5.228,3.606-8.979,3.733C-2634.687,1071.776-2634.683,1071.229-2634.674,1070.684Z" transform="translate(2660.053 -1021.041)" fill="#231f20"/>
          <path id="Path_746" data-name="Path 746" d="M-2633.551,1064.112" transform="translate(2660.236 -1021.76)" fill="#eb996e"/>
          <path id="Path_747" data-name="Path 747" d="M-2637.48,1075.481c-.982,3.894-1.869,7.8-3.124,11.419-6.889-5.983-13.382-16.341-15.26-24.293s.795-16.668.2-21.778c-.474-4.086-.391-2.449-.391-2.468.129-2.673,1.722-4.781,3.335-7.016a1.832,1.832,0,0,1-.788-1.479,14.78,14.78,0,0,0-.2-1.926c1.561.21,2.093-.689,3.859-.137s3.616,3.74,3,5.617c-.278.848-.546.763-.771,1.269a2.561,2.561,0,0,1-.634.854c-1,1.193-2.442,2.28-2.591,3.791-.112,1.134-.3-3.128-.024,1.671a100.609,100.609,0,0,0,2.858,17.029C-2646.513,1064.078-2643.107,1071.4-2637.48,1075.481Z" transform="translate(2656.543 -1027.622)" fill="#fff" stroke="#231f20" stroke-linecap="round" stroke-linejoin="round" stroke-width="2"/>
          <g id="Group_656" data-name="Group 656" transform="translate(41.189 10.587)">
            <path id="Path_748" data-name="Path 748" d="M-2584,1042.847c-.968-.114-1.75,1.376-1.889,2.18a2.464,2.464,0,0,1-.9,1.665c-.015.014.112-.088.065-.038-1.508,2.2-.781,13.351-6.511,22.269s-14.239,16.761-25.2,19.365a32.874,32.874,0,0,1-2.626-3.97c.742-1.981,1.629-4.02,2.155-6,4.141-1.7,6.533-1.022,10.407-4.421a65.054,65.054,0,0,0,11.618-13.366c3.273-5.164,2.919-13.2,6.61-18.558.284-.413.306-.976.687-1.307,1.527-1.329,2.613-2.858,5.05-3,1.466-.086,4.226-2.03,6.191-.014S-2581.013,1043.2-2584,1042.847Z" transform="translate(2621.054 -1036.744)" fill="#fff" stroke="#231f20" stroke-linecap="round" stroke-linejoin="round" stroke-width="2"/>
          </g>
          <path id="Path_749" data-name="Path 749" d="M-2631.716,1076.53c5.265-.232,7.048-3.509,11.473-5.048s8.9-.836,13.3-2.183c1.046,4.069,2.489,7.08,5.877,9.637h0c-3.476,2.243-7.026,4.308-10.656,6.321-.511,2.732.117,9.175-.365,11.8s5.056,20.462,3.908,25.548c-.12.532-17.831-2.277-30.237,2.193-.885-13.359-1.782-26.719-2.581-40.084q-2.877-2.533-5.741-5.083c1.925-4.319,3.743-8.686,5.909-12.891,2.237,1.735,4.6,3.259,6.977,4.795C-2634.189,1074.233-2634.3,1075.014-2631.716,1076.53Z" transform="translate(2658.118 -1021.338)" fill="#fff" stroke="#231f20" stroke-linecap="round" stroke-linejoin="round" stroke-width="2"/>
          <path id="Path_750" data-name="Path 750" d="M-2618.458,1095.421" transform="translate(2662.66 -1016.731)" fill="#fff" stroke="#231f20" stroke-linecap="round" stroke-linejoin="round" stroke-width="2"/>
          <path id="Path_751" data-name="Path 751" d="M-2635.143,1070.488c5.578.387,8.961-1.33,12.744-5.348" transform="translate(2659.98 -1021.595)" fill="none" stroke="#231f20" stroke-linecap="round" stroke-linejoin="round" stroke-width="2"/>
          <path id="Path_752" data-name="Path 752" d="M-2621.4,1063.028a1.6,1.6,0,0,1,1.138-.124c.251-1.2.517-1.776.765-3.122s.466-3.448.694-4.954c-1.026-.986-2.149-2.21-3.079-3.181s-1.436-2.03-2.543-2.724-2.848-.476-4.149-.847c-1.806-1.222-5.961-2.68-6.216.317s2.1,5.988,4.45,7.43a6.365,6.365,0,0,1,.154-3.389A37.25,37.25,0,0,0-2621.4,1063.028Z" transform="translate(2660.034 -1024.569)" fill="#231f20"/>
          <path id="Path_753" data-name="Path 753" d="M-2624.135,1066a1.721,1.721,0,0,0,.418.218,2.4,2.4,0,0,0,2.841-1.782,2.408,2.408,0,0,0-1.112-3.169,1.919,1.919,0,0,0-1.714.279" transform="translate(2661.749 -1022.233)" fill="#fff" stroke="#231f20" stroke-linecap="round" stroke-linejoin="round" stroke-width="2"/>
          <path id="Path_754" data-name="Path 754" d="M-2630.2,1138.093l8.354,73.647s4.663,1.125,8.291.225c0,0,3.109-58.943,2.851-68.839s1.917-25.944-.882-27.773-21.206-.11-21.206-.11l.746,6.573" transform="translate(2660.358 -1013.665)" fill="#fff" stroke="#231f20" stroke-linecap="round" stroke-linejoin="round" stroke-width="2"/>
          <path id="Path_755" data-name="Path 755" d="M-2629.43,1143.024l-1.449,41.6,2.216-12.681,1.532-8.654Z" transform="translate(2660.665 -1009.085)" fill="#231f20"/>
        </g>
        <g id="Group_657" data-name="Group 657">
          <path id="Path_756" data-name="Path 756" d="M-2549.534,1034.514a11.191,11.191,0,0,0,11.2,11.189h-150.475a22.381,22.381,0,0,0,22.387-22.377,22.392,22.392,0,0,0-22.387-22.4h150.475a11.2,11.2,0,0,0-11.2,11.2,11.2,11.2,0,0,0,11.2,11.2A11.191,11.191,0,0,0-2549.534,1034.514Z" transform="translate(2710.663 -1000.929)" fill="#fff" stroke="#231f20" stroke-miterlimit="10" stroke-width="2"/>
          <path id="Path_757" data-name="Path 757" d="M-2685.252,1000.929a22.4,22.4,0,0,0-22.387,22.4,22.387,22.387,0,0,0,22.387,22.377,22.381,22.381,0,0,0,22.386-22.377A22.391,22.391,0,0,0-2685.252,1000.929Z" transform="translate(2707.639 -1000.929)" fill="none" stroke="#231f20" stroke-miterlimit="10" stroke-width="2"/>
          <path id="Path_758" data-name="Path 758" d="M-2676.707,1021.353a10.633,10.633,0,0,1-10.633,10.633,10.632,10.632,0,0,1-10.633-10.633,10.634,10.634,0,0,1,10.633-10.642A10.634,10.634,0,0,1-2676.707,1021.353Z" transform="translate(2709.192 -999.358)" fill="#231f20"/>
          <line id="Line_53" data-name="Line 53" x2="119.572" transform="translate(41.557 11.756)" fill="none" stroke="#231f20" stroke-miterlimit="10" stroke-width="2"/>
          <path id="Path_759" data-name="Path 759" d="M-2542.257,1011.477v23.687l-4.92,3.385-10.4,7.154h-.039a11.191,11.191,0,0,1-11.2-11.189,11.191,11.191,0,0,1,11.2-11.188,11.2,11.2,0,0,1-11.2-11.2,11.2,11.2,0,0,1,11.2-11.2h.039l10.4,7.164Z" transform="translate(2729.939 -1000.929)" fill="none" stroke="#231f20" stroke-linecap="round" stroke-linejoin="round" stroke-width="2"/>
          <path id="Path_760" data-name="Path 760" d="M-2528.729,1021.861l-17.2,11.844v-23.688Z" transform="translate(2733.614 -999.469)" fill="#231f20" stroke="#231f20" stroke-miterlimit="10" stroke-width="2"/>
        </g>
        <line id="Line_54" data-name="Line 54" x2="119.572" transform="translate(41.557 33.027)" fill="none" stroke="#231f20" stroke-miterlimit="10" stroke-width="2"/>
        <g id="Group_658" data-name="Group 658" transform="translate(131.284 41.567)">
          <path id="Path_761" data-name="Path 761" d="M-2594.525,1041.976c.284-.413.306-.976.687-1.307,1.527-1.329,2.613-2.858,5.05-3,1.466-.086,4.226-2.03,6.191-.014s-2.678,5.542-5.663,5.191c-.968-.114-1.75,1.376-1.889,2.18a2.465,2.465,0,0,1-.9,1.665c-.015.014.111-.088.065-.038" transform="translate(2594.525 -1036.744)" fill="#fff" stroke="#231f20" stroke-linecap="round" stroke-linejoin="round" stroke-width="2"/>
        </g>
      </g>
      <g id="Group_660" data-name="Group 660" transform="translate(-2296.308 993.347)">
        <path id="Path_762" data-name="Path 762" d="M-2283.76,1009.26l-3.7,19.35s-9.024-2.3-11.934-2.3v5.348s8.971,4.7,15.171,3.777l.858-12.532Z" transform="translate(2361.884 -973.669)" fill="none" stroke="#231f20" stroke-linecap="round" stroke-linejoin="round" stroke-width="2"/>
        <path id="Path_763" data-name="Path 763" d="M-2291.631,1074.177s-19.712,14.774-41.7,24.734l-6.813-9.466,29.919-23.156s6.087-5.212,10.983-7.053,18.961-2.043,18.961-2.043Z" transform="translate(2355.34 -965.969)" fill="#fff" stroke="#231f20" stroke-linecap="round" stroke-linejoin="round" stroke-width="2"/>
        <path id="Path_764" data-name="Path 764" d="M-2341.077,1097.116l-12.159-8.933s4.608-2.651,7.311-.593,3.719,2.117,8.494-1.883l4.622,6.422Z" transform="translate(2353.236 -961.389)" fill="#231f20"/>
        <path id="Path_765" data-name="Path 765" d="M-2272.972,1005.4a19.7,19.7,0,0,0-6.824-7.614c-4.78-3.062-8.065.224-6.721,2.39s3.667,6.193,3.667,6.193" transform="translate(2363.904 -975.712)" fill="#fff" stroke="#231f20" stroke-linecap="round" stroke-linejoin="round" stroke-width="2"/>
        <path id="Path_766" data-name="Path 766" d="M-2239.439,1052.212s3.982,17.522-7.368,21.505-39.148,2.224-39.148,2.224l-25.488,45.4-10.156-8.562,22.1-46.793s2.19-7.766,9.358-8.363S-2245.174,1055.014-2239.439,1052.212Z" transform="translate(2358.318 -966.769)" fill="#fff" stroke="#231f20" stroke-linecap="round" stroke-linejoin="round" stroke-width="2"/>
        <path id="Path_767" data-name="Path 767" d="M-2316.71,1121.079l-14.238-4.778s1.494-3.982,7.119-2.49,6.656-7.292,6.656-7.292l6.463,5.449Z" transform="translate(2356.816 -958.046)" fill="#231f20"/>
        <path id="Path_768" data-name="Path 768" d="M-2280.416,1004.068s14.038-5.376,24.492,20.31,10.853,35.643,10.853,35.643-13.906,2.624-28.464,3.736C-2273.536,1063.757-2297.44,1008.846-2280.416,1004.068Z" transform="translate(2363.95 -974.578)" fill="#fff" stroke="#231f20" stroke-linecap="round" stroke-linejoin="round" stroke-width="2"/>
        <path id="Path_769" data-name="Path 769" d="M-2283.711,1005.271s6.725-4.24,11.4,7.508" transform="translate(2364.404 -974.429)" fill="none" stroke="#231f20" stroke-linecap="round" stroke-linejoin="round" stroke-width="2"/>
        <path id="Path_770" data-name="Path 770" d="M-2286.633,984.937a17.427,17.427,0,0,0-6.123,13.092c-.15,8.612,1.094,8.969,3.061,9.588s4.107-6.552,5.552-6.651,8.512.747,11.05-6.122-2.016-9.932-4.48-11.574-4.984-3.734-4.984-3.734-5.544-2.838-6.888,1.344S-2286.633,984.937-2286.633,984.937Z" transform="translate(2362.949 -978.594)" fill="#fff" stroke="#231f20" stroke-linecap="round" stroke-linejoin="round" stroke-width="2"/>
        <path id="Path_771" data-name="Path 771" d="M-2292.736,998.029c-.7,4.235,1.094,8.969,3.061,9.588s4.107-6.552,5.551-6.651,8.512.747,11.051-6.122-2.016-9.932-4.48-11.574-4.984-3.734-4.984-3.734-5.544-2.838-6.888,1.344,2.813,4.058,2.813,4.058,7.119,3.26,5.924,7.442S-2287.011,1003.3-2292.736,998.029Z" transform="translate(2362.929 -978.594)" fill="#231f20"/>
        <path id="Path_772" data-name="Path 772" d="M-2299.27,1064.079-2323,1091.243l15.144-8.983Z" transform="translate(2358.093 -964.863)" fill="#231f20"/>
        <path id="Path_773" data-name="Path 773" d="M-2266.6,1026s-4.926,2.379-13.3-4.265c0,0,.33,13.263-1.837,14.471-2.09,1.166-22.593-1.228-24.627-1.494h0s-7.826-1.567-8.26-1.417c-.413.143-6.928-3.98-7.925-.051-.078.31,2.311,5.851,10.961,5.9l3.685-.727h0c2.02,1.01,23.986,11.972,33.319,6.421C-2270.2,1042.229-2266.6,1026-2266.6,1026Z" transform="translate(2358.164 -971.664)" fill="#fff" stroke="#231f20" stroke-linecap="round" stroke-linejoin="round" stroke-width="2"/>
        <path id="Path_774" data-name="Path 774" d="M-2274.258,1027.976s3.873-9.547-.631-18.517" transform="translate(2365.821 -973.637)" fill="none" stroke="#231f20" stroke-linecap="round" stroke-linejoin="round" stroke-width="2"/>
      </g>
      <line id="Line_55" data-name="Line 55" x2="63.427" transform="translate(-2214.765 1102.9)" fill="none" stroke="#231f20" stroke-linecap="round" stroke-miterlimit="10" stroke-width="2"/>
      <path id="Path_775" data-name="Path 775" d="M-2298.073,1041.842a17.686,17.686,0,0,1-2.981,3.215c-1.694,1.365-9.076-5.552-11.037-7.259l3.054-.6Z" transform="translate(63.538 24.166)" fill="#231f20" stroke="#231f20" stroke-miterlimit="10" stroke-width="2"/>
    </g>
  </g>
</svg>
