<svg xmlns="http://www.w3.org/2000/svg" width="74.94" height="74.94" viewBox="0 0 74.94 74.94">
  <g id="Group_11" data-name="Group 11" transform="translate(-271.283 -84.031)">
    <g id="Group_10" data-name="Group 10">
      <g id="Group_9" data-name="Group 9">
        <path id="Path_7" data-name="Path 7" d="M321.24,111.166A2.244,2.244,0,1,1,319,108.921,2.245,2.245,0,0,1,321.24,111.166Zm-2.795,10.062a9.428,9.428,0,1,1-9.428-9.428A9.439,9.439,0,0,1,318.445,121.228Zm-3.388,0a6.04,6.04,0,1,0-6.04,6.04A6.047,6.047,0,0,0,315.057,121.228Zm13.044-7.574a11.5,11.5,0,0,0-11.5-11.5H300.907a11.5,11.5,0,0,0-11.5,11.5v15.694a11.5,11.5,0,0,0,11.5,11.5H316.6a11.5,11.5,0,0,0,11.5-11.5Zm-3.776,15.521a7.9,7.9,0,0,1-7.9,7.9H301.08a7.9,7.9,0,0,1-7.9-7.9V113.827a7.9,7.9,0,0,1,7.9-7.9h15.347a7.9,7.9,0,0,1,7.9,7.9Z"/>
      </g>
      <path id="Path_8" data-name="Path 8" d="M308.753,84.031a37.47,37.47,0,1,0,37.47,37.47A37.512,37.512,0,0,0,308.753,84.031Zm0,70.135A32.665,32.665,0,1,1,341.418,121.5,32.7,32.7,0,0,1,308.753,154.166Z"/>
    </g>
  </g>
</svg>
