<svg xmlns="http://www.w3.org/2000/svg" width="74.941" height="74.94" viewBox="0 0 74.941 74.94">
  <g id="Group_13" data-name="Group 13" transform="translate(-44.809 -267.981)">
    <g id="Group_12" data-name="Group 12">
      <path id="Path_9" data-name="Path 9" d="M65.576,295.838h7.168v23.025H65.576ZM69.161,284.4a4.15,4.15,0,1,1-4.155,4.147,4.15,4.15,0,0,1,4.155-4.147m8.074,34.466h7.153V307.474c0-3,.567-5.91,4.293-5.91,3.668,0,3.72,3.433,3.72,6.105v11.194h7.151V306.235c0-6.2-1.335-10.966-8.582-10.966a7.524,7.524,0,0,0-6.777,3.719H84.1v-3.15H77.235Z"/>
    </g>
    <path id="Path_10" data-name="Path 10" d="M82.279,267.981a37.47,37.47,0,1,0,37.471,37.47A37.512,37.512,0,0,0,82.279,267.981Zm0,70.135a32.665,32.665,0,1,1,32.665-32.665A32.7,32.7,0,0,1,82.279,338.116Z"/>
  </g>
</svg>
