<svg width="100" height="101" viewBox="0 0 100 101" fill="none" xmlns="http://www.w3.org/2000/svg">
<g clip-path="url(#clip0_33_178)">
<path id="01" d="M33.5098 35.346L41.7672 50.6776L42.9667 48.5745L38.001 27.5684L33.5098 35.346Z" fill="white"/>
<path d="M37.0206 58.9907L37.504 58.1448L26.8621 46.8535L24.997 50.0822L24.3657 51.1752L37.0206 58.9907Z" fill="white"/>
<path d="M39.1928 55.1883L39.8638 54.0105L31.5955 38.6572L28.5635 43.9097L39.1928 55.1883Z" fill="white"/>
<path d="M45.3296 44.4313L49.9994 36.2442L61.7236 56.8066H78.8751L74.9935 50.0841L49.994 6.78223L40.3657 23.4594L45.3296 44.4313Z" fill="white"/>
<path d="M29.7071 71.8126L30.921 69.6824L13.8127 69.4551L9.87158 76.2803L29.7071 71.8126Z" fill="white"/>
<path d="M80.7615 60.0596H63.5883L74.5603 79.2926H25.4397L27.5229 75.6419L7.65858 80.1187L0 93.3851H100L80.7615 60.0596Z" fill="white"/>
<path d="M34.9015 62.709L35.4083 61.8216L22.739 53.9971L20.248 58.3134L34.9015 62.709Z" fill="white"/>
<path d="M32.7647 66.4542L33.2463 65.6101L18.5749 61.209L15.6763 66.2287L32.7647 66.4542Z" fill="white"/>
</g>
<defs>
<clipPath id="clip0_33_178">
<rect width="100" height="86.6038" fill="white" transform="translate(0 6.78223)"/>
</clipPath>
</defs>
</svg>
