<?xml version="1.0" encoding="UTF-8"?>
<svg xmlns="http://www.w3.org/2000/svg" xmlns:xlink="http://www.w3.org/1999/xlink" width="37pt" height="37pt" viewBox="0 0 37 37" version="1.1">
<g id="surface1">
<path style=" stroke:none;fill-rule:nonzero;fill:rgb(43.921569%,43.921569%,43.921569%);fill-opacity:1;" d="M 0 18.5 C 0 19.21875 0.582031 19.800781 1.300781 19.800781 L 32.601562 19.800781 L 24.402344 27.992188 C 24.152344 28.242188 24.023438 28.574219 24.023438 28.90625 C 24.023438 29.238281 24.152344 29.570312 24.402344 29.820312 C 24.910156 30.328125 25.730469 30.328125 26.238281 29.820312 L 36.636719 19.414062 C 37.121094 18.929688 37.121094 18.070312 36.636719 17.578125 L 26.230469 7.179688 C 25.726562 6.671875 24.902344 6.671875 24.394531 7.179688 C 23.886719 7.6875 23.886719 8.507812 24.394531 9.015625 L 32.585938 17.207031 L 1.292969 17.207031 C 0.574219 17.199219 0 17.78125 0 18.5 Z M 0 18.5 "/>
</g>
</svg>
