<?xml version="1.0" encoding="UTF-8"?>
<svg xmlns="http://www.w3.org/2000/svg" xmlns:xlink="http://www.w3.org/1999/xlink" width="60pt" height="60pt" viewBox="0 0 60 60" version="1.1">
<g id="surface1">
<path style=" stroke:none;fill-rule:nonzero;fill:rgb(0%,0%,0%);fill-opacity:1;" d="M 47.417969 37.167969 C 46.191406 35.890625 44.707031 35.203125 43.136719 35.203125 C 41.582031 35.203125 40.085938 35.875 38.808594 37.15625 L 34.804688 41.144531 C 34.476562 40.96875 34.148438 40.800781 33.832031 40.636719 C 33.375 40.410156 32.945312 40.195312 32.578125 39.964844 C 28.828125 37.585938 25.421875 34.484375 22.15625 30.46875 C 20.574219 28.46875 19.507812 26.785156 18.734375 25.074219 C 19.773438 24.125 20.738281 23.136719 21.675781 22.1875 C 22.027344 21.832031 22.382812 21.464844 22.738281 21.109375 C 25.398438 18.453125 25.398438 15.007812 22.738281 12.347656 L 19.28125 8.890625 C 18.886719 8.496094 18.484375 8.09375 18.101562 7.6875 C 17.34375 6.902344 16.546875 6.09375 15.722656 5.332031 C 14.492188 4.117188 13.023438 3.46875 11.480469 3.46875 C 9.933594 3.46875 8.441406 4.117188 7.175781 5.332031 C 7.160156 5.34375 7.160156 5.34375 7.148438 5.355469 L 2.84375 9.699219 C 1.222656 11.320312 0.296875 13.296875 0.0976562 15.589844 C -0.207031 19.289062 0.882812 22.730469 1.714844 24.984375 C 3.769531 30.519531 6.832031 35.648438 11.402344 41.144531 C 16.949219 47.765625 23.625 52.996094 31.246094 56.683594 C 34.160156 58.0625 38.046875 59.695312 42.390625 59.976562 C 42.65625 59.988281 42.9375 60 43.1875 60 C 46.113281 60 48.570312 58.949219 50.496094 56.859375 C 50.507812 56.835938 50.535156 56.820312 50.546875 56.796875 C 51.207031 56 51.964844 55.277344 52.761719 54.503906 C 53.308594 53.984375 53.863281 53.441406 54.410156 52.871094 C 55.664062 51.566406 56.320312 50.046875 56.320312 48.488281 C 56.320312 46.917969 55.648438 45.410156 54.371094 44.144531 Z M 51.953125 50.503906 C 51.941406 50.503906 51.941406 50.515625 51.953125 50.503906 C 51.457031 51.035156 50.953125 51.515625 50.40625 52.046875 C 49.585938 52.832031 48.75 53.65625 47.964844 54.578125 C 46.683594 55.949219 45.175781 56.59375 43.203125 56.59375 C 43.011719 56.59375 42.808594 56.59375 42.621094 56.582031 C 38.859375 56.339844 35.363281 54.871094 32.742188 53.617188 C 25.574219 50.148438 19.28125 45.222656 14.050781 38.980469 C 9.734375 33.773438 6.84375 28.960938 4.933594 23.796875 C 3.753906 20.640625 3.324219 18.183594 3.515625 15.867188 C 3.640625 14.386719 4.210938 13.15625 5.261719 12.105469 L 9.582031 7.789062 C 10.199219 7.207031 10.859375 6.890625 11.503906 6.890625 C 12.304688 6.890625 12.949219 7.371094 13.355469 7.777344 C 13.367188 7.789062 13.378906 7.800781 13.390625 7.8125 C 14.164062 8.535156 14.898438 9.28125 15.671875 10.082031 C 16.0625 10.484375 16.46875 10.890625 16.875 11.308594 L 20.332031 14.765625 C 21.675781 16.109375 21.675781 17.351562 20.332031 18.691406 C 19.964844 19.058594 19.609375 19.425781 19.242188 19.78125 C 18.179688 20.871094 17.164062 21.882812 16.0625 22.871094 C 16.039062 22.894531 16.011719 22.910156 16 22.933594 C 14.910156 24.023438 15.113281 25.085938 15.34375 25.808594 C 15.355469 25.847656 15.367188 25.886719 15.378906 25.921875 C 16.28125 28.101562 17.546875 30.152344 19.472656 32.597656 L 19.484375 32.609375 C 22.980469 36.914062 26.664062 40.269531 30.730469 42.839844 C 31.246094 43.171875 31.78125 43.4375 32.285156 43.691406 C 32.742188 43.917969 33.171875 44.132812 33.539062 44.359375 C 33.589844 44.386719 33.640625 44.425781 33.691406 44.449219 C 34.121094 44.664062 34.527344 44.765625 34.945312 44.765625 C 35.996094 44.765625 36.65625 44.105469 36.871094 43.890625 L 41.199219 39.5625 C 41.632812 39.128906 42.316406 38.613281 43.113281 38.613281 C 43.898438 38.613281 44.542969 39.105469 44.9375 39.535156 C 44.949219 39.546875 44.949219 39.546875 44.960938 39.5625 L 51.941406 46.539062 C 53.242188 47.832031 53.242188 49.160156 51.953125 50.503906 Z M 51.953125 50.503906 "/>
<path style=" stroke:none;fill-rule:nonzero;fill:rgb(0%,0%,0%);fill-opacity:1;" d="M 32.425781 14.273438 C 35.742188 14.828125 38.757812 16.398438 41.164062 18.804688 C 43.570312 21.210938 45.125 24.226562 45.695312 27.542969 C 45.835938 28.378906 46.558594 28.960938 47.382812 28.960938 C 47.480469 28.960938 47.570312 28.949219 47.671875 28.9375 C 48.609375 28.785156 49.230469 27.898438 49.078125 26.960938 C 48.394531 22.945312 46.496094 19.289062 43.59375 16.386719 C 40.695312 13.488281 37.035156 11.585938 33.019531 10.902344 C 32.082031 10.753906 31.210938 11.371094 31.046875 12.296875 C 30.878906 13.222656 31.488281 14.121094 32.425781 14.273438 Z M 32.425781 14.273438 "/>
<path style=" stroke:none;fill-rule:nonzero;fill:rgb(0%,0%,0%);fill-opacity:1;" d="M 59.929688 26.46875 C 58.804688 19.855469 55.6875 13.84375 50.902344 9.054688 C 46.113281 4.269531 40.097656 1.152344 33.488281 0.0273438 C 32.566406 -0.136719 31.691406 0.496094 31.527344 1.417969 C 31.375 2.355469 31.996094 3.230469 32.933594 3.394531 C 38.832031 4.394531 44.214844 7.195312 48.496094 11.460938 C 52.777344 15.742188 55.5625 21.125 56.5625 27.023438 C 56.703125 27.859375 57.421875 28.441406 58.246094 28.441406 C 58.347656 28.441406 58.4375 28.429688 58.539062 28.417969 C 59.460938 28.277344 60.09375 27.390625 59.929688 26.46875 Z M 59.929688 26.46875 "/>
</g>
</svg>
