<?xml version="1.0" encoding="UTF-8"?>
<svg xmlns="http://www.w3.org/2000/svg" xmlns:xlink="http://www.w3.org/1999/xlink" width="37pt" height="37pt" viewBox="0 0 37 37" version="1.1">
<g id="surface1">
<path style=" stroke:none;fill-rule:nonzero;fill:rgb(20%,20%,20%);fill-opacity:1;" d="M 36.574219 17.476562 L 29.023438 9.960938 C 28.457031 9.398438 27.542969 9.398438 26.980469 9.964844 C 26.414062 10.53125 26.417969 11.445312 26.984375 12.007812 L 32.054688 17.054688 L 1.445312 17.054688 C 0.648438 17.054688 0 17.703125 0 18.5 C 0 19.296875 0.648438 19.945312 1.445312 19.945312 L 32.054688 19.945312 L 26.984375 24.992188 C 26.417969 25.554688 26.414062 26.46875 26.980469 27.035156 C 27.542969 27.601562 28.457031 27.601562 29.023438 27.039062 L 36.574219 19.523438 C 37.140625 18.957031 37.140625 18.039062 36.574219 17.476562 Z M 36.574219 17.476562 "/>
</g>
</svg>
