<svg xmlns="http://www.w3.org/2000/svg" xmlns:xlink="http://www.w3.org/1999/xlink" width="550" height="450" viewBox="0 0 550 450">
  <defs>
    <clipPath id="clip-path">
      <rect id="Rectangle_1443" data-name="Rectangle 1443" width="550" height="450" transform="translate(1039 4512)" fill="#ffe2e2" opacity="0.74"/>
    </clipPath>
  </defs>
  <g id="Services_img_3" transform="translate(-1039 -4512)" clip-path="url(#clip-path)">
    <rect id="Rectangle_1189" data-name="Rectangle 1189" width="586" height="584" transform="translate(1021 4445)" fill="none"/>
    <g id="Group_1106" data-name="Group 1106" transform="translate(1043 4558)">
      <circle id="Ellipse_165" data-name="Ellipse 165" cx="4.557" cy="4.557" r="4.557" transform="translate(212.121 120.74)" fill="none" stroke="#231f20" stroke-miterlimit="10" stroke-width="2"/>
      <circle id="Ellipse_166" data-name="Ellipse 166" cx="1.568" cy="1.568" r="1.568" transform="translate(127.218 247.85)" fill="none" stroke="#231f20" stroke-miterlimit="10" stroke-width="2"/>
      <circle id="Ellipse_167" data-name="Ellipse 167" cx="4.557" cy="4.557" r="4.557" transform="translate(144.852 209.714)" fill="none" stroke="#231f20" stroke-miterlimit="10" stroke-width="2"/>
      <path id="Path_1553" data-name="Path 1553" d="M-3089.4,957.537a1.432,1.432,0,0,1,0,2.02,1.416,1.416,0,0,1-1.007.418,1.415,1.415,0,0,1-1.007-.418l-2.1-2.1-2.1,2.1a1.43,1.43,0,0,1-2.018,0,1.432,1.432,0,0,1,0-2.02l2.1-2.1-2.1-2.1a1.425,1.425,0,0,1,0-2.014,1.431,1.431,0,0,1,2.018,0l2.1,2.1,2.1-2.1a1.426,1.426,0,0,1,2.014,0,1.408,1.408,0,0,1,.418,1.007,1.41,1.41,0,0,1-.418,1.007l-2.1,2.1Z" transform="translate(3347.55 -878.322)" fill="#231f20"/>
      <path id="Path_1554" data-name="Path 1554" d="M-2924.836,905.263a1.43,1.43,0,0,1,0,2.018,1.407,1.407,0,0,1-1.007.418,1.413,1.413,0,0,1-1.007-.418l-2.1-2.1-2.1,2.1a1.43,1.43,0,0,1-2.018,0,1.429,1.429,0,0,1,0-2.018l2.1-2.1-2.1-2.1a1.423,1.423,0,0,1,0-2.014,1.43,1.43,0,0,1,2.018,0l2.1,2.1,2.1-2.1a1.425,1.425,0,0,1,2.014,0,1.4,1.4,0,0,1,.419,1.007,1.4,1.4,0,0,1-.419,1.007l-2.1,2.1Z" transform="translate(3369.179 -885.193)" fill="#231f20"/>
      <g id="Group_1090" data-name="Group 1090" transform="translate(192.594)">
        <path id="Path_1555" data-name="Path 1555" d="M-3124.26,886.754v24.084h-24.084a24.017,24.017,0,0,1,7.42-17.39,23.979,23.979,0,0,1,16.339-6.687C-3124.479,886.754-3124.367,886.754-3124.26,886.754Z" transform="translate(3148.344 -886.754)" fill="none" stroke="#231f20" stroke-miterlimit="10" stroke-width="2"/>
        <path id="Path_1556" data-name="Path 1556" d="M-3125.123,886.754v13.387a23.953,23.953,0,0,1-10.57-2.439,24.081,24.081,0,0,1-6.093-4.254,23.979,23.979,0,0,1,16.339-6.687C-3125.341,886.754-3125.229,886.754-3125.123,886.754Z" transform="translate(3149.206 -886.754)" fill="none" stroke="#231f20" stroke-miterlimit="10" stroke-width="2"/>
        <path id="Path_1557" data-name="Path 1557" d="M-3125.593,886.754v24.084H-3138.2a41.111,41.111,0,0,1,2.041-13.136c2.195-6.431,5.955-10.735,10.246-10.941C-3125.812,886.754-3125.7,886.754-3125.593,886.754Z" transform="translate(3149.677 -886.754)" fill="none" stroke="#231f20" stroke-miterlimit="10" stroke-width="2"/>
        <path id="Path_1558" data-name="Path 1558" d="M-3127.058,886.754v24.084h24.084a24.021,24.021,0,0,0-7.419-17.39,23.984,23.984,0,0,0-16.339-6.687C-3126.839,886.754-3126.952,886.754-3127.058,886.754Z" transform="translate(3151.142 -886.754)" fill="none" stroke="#231f20" stroke-miterlimit="10" stroke-width="2"/>
        <path id="Path_1559" data-name="Path 1559" d="M-3127.058,886.754v13.387a23.961,23.961,0,0,0,10.572-2.439,24.114,24.114,0,0,0,6.093-4.254,23.984,23.984,0,0,0-16.339-6.687C-3126.839,886.754-3126.952,886.754-3127.058,886.754Z" transform="translate(3151.142 -886.754)" fill="none" stroke="#231f20" stroke-miterlimit="10" stroke-width="2"/>
        <path id="Path_1560" data-name="Path 1560" d="M-3127.058,886.754v24.084h12.611a41.12,41.12,0,0,0-2.039-13.136c-2.2-6.431-5.956-10.735-10.246-10.941C-3126.839,886.754-3126.952,886.754-3127.058,886.754Z" transform="translate(3151.142 -886.754)" fill="none" stroke="#231f20" stroke-miterlimit="10" stroke-width="2"/>
        <path id="Path_1561" data-name="Path 1561" d="M-3124.26,932.124V908.04h-24.084a24.016,24.016,0,0,0,7.42,17.39,23.973,23.973,0,0,0,16.339,6.687C-3124.479,932.124-3124.367,932.124-3124.26,932.124Z" transform="translate(3148.344 -883.956)" fill="none" stroke="#231f20" stroke-miterlimit="10" stroke-width="2"/>
        <path id="Path_1562" data-name="Path 1562" d="M-3125.123,930.881V917.494a23.94,23.94,0,0,0-10.57,2.44,24.08,24.08,0,0,0-6.093,4.253,23.974,23.974,0,0,0,16.339,6.687C-3125.341,930.881-3125.229,930.881-3125.123,930.881Z" transform="translate(3149.206 -882.714)" fill="none" stroke="#231f20" stroke-miterlimit="10" stroke-width="2"/>
        <path id="Path_1563" data-name="Path 1563" d="M-3125.593,932.124V908.04H-3138.2a41.117,41.117,0,0,0,2.041,13.137c2.195,6.43,5.955,10.734,10.246,10.94C-3125.812,932.124-3125.7,932.124-3125.593,932.124Z" transform="translate(3149.677 -883.956)" fill="none" stroke="#231f20" stroke-miterlimit="10" stroke-width="2"/>
        <path id="Path_1564" data-name="Path 1564" d="M-3127.058,932.124V908.04h24.084a24.02,24.02,0,0,1-7.419,17.39,23.978,23.978,0,0,1-16.339,6.687C-3126.839,932.124-3126.952,932.124-3127.058,932.124Z" transform="translate(3151.142 -883.956)" fill="none" stroke="#231f20" stroke-miterlimit="10" stroke-width="2"/>
        <path id="Path_1565" data-name="Path 1565" d="M-3127.058,930.881V917.494a23.947,23.947,0,0,1,10.572,2.44,24.114,24.114,0,0,1,6.093,4.253,23.979,23.979,0,0,1-16.339,6.687C-3126.839,930.881-3126.952,930.881-3127.058,930.881Z" transform="translate(3151.142 -882.714)" fill="none" stroke="#231f20" stroke-miterlimit="10" stroke-width="2"/>
        <path id="Path_1566" data-name="Path 1566" d="M-3127.058,932.124V908.04h12.611a41.126,41.126,0,0,1-2.039,13.137c-2.2,6.43-5.956,10.734-10.246,10.94C-3126.839,932.124-3126.952,932.124-3127.058,932.124Z" transform="translate(3151.142 -883.956)" fill="none" stroke="#231f20" stroke-miterlimit="10" stroke-width="2"/>
      </g>
      <circle id="Ellipse_168" data-name="Ellipse 168" cx="9.446" cy="9.446" r="9.446" transform="translate(149.96 91.021)" fill="none" stroke="#231f20" stroke-miterlimit="10" stroke-width="2"/>
      <circle id="Ellipse_169" data-name="Ellipse 169" cx="3.434" cy="3.434" r="3.434" transform="translate(242.632 97.033)" fill="#231f20"/>
      <line id="Line_138" data-name="Line 138" x2="73.779" transform="translate(168.853 100.467)" fill="none" stroke="#231f20" stroke-miterlimit="10" stroke-width="2"/>
      <line id="Line_139" data-name="Line 139" x2="184.7" transform="translate(277.2 155.995)" fill="none" stroke="#231f20" stroke-miterlimit="10" stroke-width="2"/>
      <path id="Path_1567" data-name="Path 1567" d="M-2892.47,1060.369a11.656,11.656,0,0,1-8.112,3.292h-172.986V919.2h184.707v132.74a11.838,11.838,0,0,1-.135,1.8" transform="translate(3350.767 -882.49)" fill="none" stroke="#231f20" stroke-miterlimit="10" stroke-width="2"/>
      <path id="Path_1568" data-name="Path 1568" d="M-3169.327,1031.309h10.6s22.346.605,32.246-5.335,21.5-7.162,32.529,5.329,25.458,2.648,39.883-14.211l20.46-23.458,16.437-17.979s8.831-11.628,19.769-.124,18.292,17.537,30.738,4.337,24.7-29.417,24.7-29.417,5.28-8.108,14.143-2.074,11.018-1.283,19.611-11.88" transform="translate(3338.181 -880.216)" fill="none" stroke="#231f20" stroke-miterlimit="10" stroke-width="2"/>
      <path id="Path_1569" data-name="Path 1569" d="M-2933.509,926l-9.33,5.387a2.3,2.3,0,0,0,0,3.976l9.33,5.387a2.3,2.3,0,0,0,3.443-1.988V927.989A2.3,2.3,0,0,0-2933.509,926Z" transform="translate(3367.799 -881.636)" fill="#231f20"/>
      <g id="Group_1091" data-name="Group 1091" transform="translate(303.379 52.82)">
        <rect id="Rectangle_1268" data-name="Rectangle 1268" width="11.102" height="2.829" rx="1.25" transform="translate(4.458 21.471)" fill="none" stroke="#231f20" stroke-miterlimit="10" stroke-width="2"/>
        <rect id="Rectangle_1269" data-name="Rectangle 1269" width="7.378" height="2.829" rx="1.25" transform="translate(6.32 24.3)" fill="none" stroke="#231f20" stroke-miterlimit="10" stroke-width="2"/>
        <rect id="Rectangle_1270" data-name="Rectangle 1270" width="4.361" height="2.829" rx="1.25" transform="translate(7.828 27.128)" fill="none" stroke="#231f20" stroke-miterlimit="10" stroke-width="2"/>
        <path id="Path_1570" data-name="Path 1570" d="M-3035.259,955.216l-.021-3.188a9.975,9.975,0,0,0,4.865-8.588,10,10,0,0,0-10-10,10.007,10.007,0,0,0-10.013,10,9.976,9.976,0,0,0,4.865,8.588v3.428" transform="translate(3050.429 -933.438)" fill="none" stroke="#231f20" stroke-miterlimit="10" stroke-width="2"/>
        <line id="Line_140" data-name="Line 140" y2="6.977" transform="translate(9.737 14.494)" fill="none" stroke="#231f20" stroke-miterlimit="10" stroke-width="2"/>
        <path id="Path_1571" data-name="Path 1571" d="M-3044.105,943.967l2.581,2.581,2.429-2.429" transform="translate(3051.26 -932.054)" fill="none" stroke="#231f20" stroke-miterlimit="10" stroke-width="2"/>
        <circle id="Ellipse_170" data-name="Ellipse 170" cx="0.984" cy="0.984" r="0.984" transform="translate(5.683 10.604)" fill="none" stroke="#231f20" stroke-miterlimit="10" stroke-width="2"/>
        <circle id="Ellipse_171" data-name="Ellipse 171" cx="0.984" cy="0.984" r="0.984" transform="translate(11.729 10.604)" fill="none" stroke="#231f20" stroke-miterlimit="10" stroke-width="2"/>
      </g>
      <g id="Group_1092" data-name="Group 1092" transform="translate(296.271 45.392)">
        <line id="Line_141" data-name="Line 141" y1="2.687" transform="translate(17.117)" fill="none" stroke="#231f20" stroke-miterlimit="10" stroke-width="2"/>
        <line id="Line_142" data-name="Line 142" x1="1.146" y1="2.431" transform="translate(9.639 1.573)" fill="none" stroke="#231f20" stroke-miterlimit="10" stroke-width="2"/>
        <line id="Line_143" data-name="Line 143" x1="2.072" y1="1.711" transform="translate(3.546 6.184)" fill="none" stroke="#231f20" stroke-miterlimit="10" stroke-width="2"/>
        <line id="Line_144" data-name="Line 144" x1="2.604" y1="0.664" transform="translate(0 12.952)" fill="none" stroke="#231f20" stroke-miterlimit="10" stroke-width="2"/>
      </g>
      <g id="Group_1093" data-name="Group 1093" transform="translate(313.386 45.392)">
        <line id="Line_145" data-name="Line 145" y1="2.687" transform="translate(0)" fill="none" stroke="#231f20" stroke-miterlimit="10" stroke-width="2"/>
        <line id="Line_146" data-name="Line 146" y1="2.431" x2="1.146" transform="translate(6.332 1.573)" fill="none" stroke="#231f20" stroke-miterlimit="10" stroke-width="2"/>
        <line id="Line_147" data-name="Line 147" y1="1.711" x2="2.072" transform="translate(11.498 6.184)" fill="none" stroke="#231f20" stroke-miterlimit="10" stroke-width="2"/>
        <line id="Line_148" data-name="Line 148" y1="0.664" x2="2.604" transform="translate(14.513 12.952)" fill="none" stroke="#231f20" stroke-miterlimit="10" stroke-width="2"/>
      </g>
      <line id="Line_149" data-name="Line 149" y1="27.776" x2="24.42" transform="translate(293.222 111.006)" fill="none" stroke="#231f20" stroke-miterlimit="10" stroke-width="2"/>
      <path id="Path_1572" data-name="Path 1572" d="M-2907.6,901.989a11.964,11.964,0,0,1,5.994,8.49,11.96,11.96,0,0,1,10.374.629" transform="translate(3372.582 -884.752)" fill="none" stroke="#231f20" stroke-linecap="round" stroke-linejoin="round" stroke-width="2"/>
      <path id="Path_1573" data-name="Path 1573" d="M-2901.673,896.9a8.527,8.527,0,0,1,4.273,6.051,8.525,8.525,0,0,1,7.394.448" transform="translate(3373.361 -885.421)" fill="none" stroke="#231f20" stroke-linecap="round" stroke-linejoin="round" stroke-width="2"/>
      <path id="Path_1574" data-name="Path 1574" d="M-3267.8,1111.786a13.263,13.263,0,0,1-.431,3.369h-40.391a8.447,8.447,0,0,1,8.446-8.446,8.378,8.378,0,0,1,5.894,2.412,13.381,13.381,0,0,1,13.11-10.708A13.372,13.372,0,0,1-3267.8,1111.786Z" transform="translate(3319.873 -858.934)" fill="#fff" stroke="#231f20" stroke-linecap="round" stroke-linejoin="round" stroke-width="2"/>
      <path id="Path_1575" data-name="Path 1575" d="M-3068.154,1158.4h-54.852a8.441,8.441,0,0,1,8.441-8.441,8.356,8.356,0,0,1,5.861,2.376l.034.034a13.426,13.426,0,0,1,10.273-10.409c.351-.079.7-.136,1.052-.181a4.923,4.923,0,0,1,.588-.068,3.208,3.208,0,0,1,.464-.034c.215-.011.419-.023.634-.023h.158c.215,0,.419.011.634.023a3.2,3.2,0,0,1,.464.034,5.4,5.4,0,0,1,.6.068c.192.023.385.057.577.091.34.057.668.136,1,.215a13.558,13.558,0,0,1,1.912.645,13.419,13.419,0,0,1,7.83,9.64l.034-.034a8.376,8.376,0,0,1,5.861-2.376A8.441,8.441,0,0,1-3068.154,1158.4Z" transform="translate(3344.269 -853.25)" fill="none" stroke="#231f20" stroke-linecap="round" stroke-linejoin="round" stroke-width="2"/>
      <path id="Path_1576" data-name="Path 1576" d="M-3207.975,1184.911s11.1-24.814,47.705-34.016,50.265-9.812,59.853-41.563,39.831-30.465,61.708-32.033,32.419-13.049,32.419-13.049" transform="translate(3333.101 -863.424)" fill="none" stroke="#231f20" stroke-linecap="round" stroke-linejoin="round" stroke-width="2" stroke-dasharray="5 9"/>
      <g id="Group_1094" data-name="Group 1094" transform="translate(377.986 79.859)">
        <rect id="Rectangle_1271" data-name="Rectangle 1271" width="12.382" height="25.423" transform="translate(9.221 38.86)" fill="none" stroke="#231f20" stroke-miterlimit="10" stroke-width="2"/>
        <rect id="Rectangle_1272" data-name="Rectangle 1272" width="12.382" height="46.083" transform="translate(21.603 18.201)" fill="none" stroke="#231f20" stroke-miterlimit="10" stroke-width="2"/>
        <rect id="Rectangle_1273" data-name="Rectangle 1273" width="12.382" height="37.691" transform="translate(33.986 26.592)" fill="none" stroke="#231f20" stroke-miterlimit="10" stroke-width="2"/>
        <rect id="Rectangle_1274" data-name="Rectangle 1274" width="12.382" height="64.283" transform="translate(46.368)" fill="none" stroke="#231f20" stroke-miterlimit="10" stroke-width="2"/>
        <line id="Line_150" data-name="Line 150" x2="69.552" transform="translate(0 64.283)" fill="none" stroke="#231f20" stroke-miterlimit="10" stroke-width="2"/>
      </g>
      <line id="Line_151" data-name="Line 151" x2="7.354" transform="translate(332.257 72.782)" fill="none" stroke="#231f20" stroke-miterlimit="10" stroke-width="2"/>
      <line id="Line_152" data-name="Line 152" x2="7.354" transform="translate(335.085 77.12)" fill="none" stroke="#231f20" stroke-miterlimit="10" stroke-width="2"/>
      <line id="Line_153" data-name="Line 153" x2="56.383" transform="translate(295.768 164.24)" fill="none" stroke="#231f20" stroke-miterlimit="10" stroke-width="2"/>
      <line id="Line_154" data-name="Line 154" x2="56.383" transform="translate(295.768 171.758)" fill="none" stroke="#231f20" stroke-miterlimit="10" stroke-width="2"/>
      <g id="Group_1096" data-name="Group 1096" transform="translate(318.133 120.427)">
        <path id="Path_1577" data-name="Path 1577" d="M-3015.4,1004.2a10.991,10.991,0,0,1-10.994,10.993,11,11,0,0,1-11-10.993,11,11,0,0,1,11-11v11Z" transform="translate(3037.389 -993.19)" fill="none" stroke="#231f20" stroke-miterlimit="10" stroke-width="2"/>
        <path id="Path_1578" data-name="Path 1578" d="M-3016.673,1004.2h-10.994v-11A11,11,0,0,1-3016.673,1004.2Z" transform="translate(3038.667 -993.19)" fill="#231f20" stroke="#231f20" stroke-miterlimit="10" stroke-width="2"/>
        <g id="Group_1095" data-name="Group 1095" transform="translate(33.174)">
          <path id="Path_1579" data-name="Path 1579" d="M-2986.079,1004.2a10.991,10.991,0,0,1-4.255,8.689,10.982,10.982,0,0,1-6.74,2.306,10.993,10.993,0,0,1-11-11,11.007,11.007,0,0,1,11-11.012,9.536,9.536,0,0,1,2.047.212A10.972,10.972,0,0,1-2986.079,1004.2Z" transform="translate(3008.069 -993.191)" fill="none" stroke="#231f20" stroke-miterlimit="10" stroke-width="2"/>
          <path id="Path_1580" data-name="Path 1580" d="M-2987.356,1004.179a10.991,10.991,0,0,1-4.255,8.689l-6.74-8.689,2.047-10.8A10.972,10.972,0,0,1-2987.356,1004.179Z" transform="translate(3009.347 -993.167)" fill="#231f20" stroke="#231f20" stroke-miterlimit="10" stroke-width="2"/>
        </g>
      </g>
      <g id="Group_1097" data-name="Group 1097" transform="translate(350.07 50.881)">
        <rect id="Rectangle_1275" data-name="Rectangle 1275" width="28.183" height="6.223" transform="translate(0 12.364)" fill="none" stroke="#231f20" stroke-miterlimit="10" stroke-width="2"/>
        <rect id="Rectangle_1276" data-name="Rectangle 1276" width="20.267" height="6.223" transform="translate(0 12.364)" fill="#231f20" stroke="#231f20" stroke-miterlimit="10" stroke-width="2"/>
        <rect id="Rectangle_1277" data-name="Rectangle 1277" width="28.183" height="6.223" fill="none" stroke="#231f20" stroke-miterlimit="10" stroke-width="2"/>
        <rect id="Rectangle_1278" data-name="Rectangle 1278" width="12.351" height="6.223" transform="translate(0)" fill="#231f20" stroke="#231f20" stroke-miterlimit="10" stroke-width="2"/>
      </g>
      <g id="Group_1100" data-name="Group 1100" transform="translate(314.663 257.047)">
        <g id="Group_1099" data-name="Group 1099">
          <g id="freepik--Plant--inject-4">
            <path id="Path_1581" data-name="Path 1581" d="M-3021.939,1137.442c-1.59,2.266-4.666,1.514-6.094.125s-2.028-3.39-2.58-5.294c-1.248-4.371-2.505-8.951-1.572-13.4a7.542,7.542,0,0,1,1.714-3.637,3.894,3.894,0,0,1,3.685-1.219c1.551.41,2.523,1.9,3.218,3.38a31.932,31.932,0,0,1,3.133,13.7,11.03,11.03,0,0,1-1.5,6.342" transform="translate(3041.501 -1113.94)" fill="#fff" stroke="#231f20" stroke-linecap="round" stroke-linejoin="round" stroke-width="2"/>
            <g id="Group_1098" data-name="Group 1098" transform="translate(8.993)" opacity="0.2">
              <path id="Path_1582" data-name="Path 1582" d="M-3021.939,1137.442c-1.59,2.266-4.666,1.514-6.094.125s-2.028-3.39-2.58-5.294c-1.248-4.371-2.505-8.951-1.572-13.4a7.542,7.542,0,0,1,1.714-3.637,3.894,3.894,0,0,1,3.685-1.219c1.551.41,2.523,1.9,3.218,3.38a31.932,31.932,0,0,1,3.133,13.7,11.03,11.03,0,0,1-1.5,6.342" transform="translate(3032.509 -1113.94)" fill="#fff" stroke="#231f20" stroke-linecap="round" stroke-linejoin="round" stroke-width="2"/>
            </g>
            <path id="Path_1583" data-name="Path 1583" d="M-3026.855,1145.04a13.689,13.689,0,0,0-8.57-1.048,7.077,7.077,0,0,0-4.208,1.9c-.971,1.048-1.21,3.123-.02,4.132a4.073,4.073,0,0,0,2.657.677c2.257,0,4.761-.419,6.561.951,1.019.772,1.7,2.057,2.933,2.438a2.913,2.913,0,0,0,3.209-1.438,4.954,4.954,0,0,0,.362-3.656A5.579,5.579,0,0,0-3026.855,1145.04Z" transform="translate(3040.456 -1110.025)" fill="#fff" stroke="#231f20" stroke-linecap="round" stroke-linejoin="round" stroke-width="2"/>
            <path id="Path_1584" data-name="Path 1584" d="M-3019.124,1139.857a8.245,8.245,0,0,1-1.276-7.617,14.593,14.593,0,0,1,4.5-6.513,24.008,24.008,0,0,1,8.046-4.761,8.478,8.478,0,0,1,3.618-.61,3.813,3.813,0,0,1,3.038,1.837c.847,1.619,0,3.571-.847,5.171a61.707,61.707,0,0,1-5.294,8.037c-1.591,2.038-3.409,4.046-5.817,4.97s-4.923.809-6.2-.867" transform="translate(3043.037 -1113.098)" fill="#fff" stroke="#231f20" stroke-linecap="round" stroke-linejoin="round" stroke-width="2"/>
            <path id="Path_1585" data-name="Path 1585" d="M-3021.735,1167.32a3.692,3.692,0,0,1-.142-1.028c-.077-.742-.162-1.685-.277-2.808a39.386,39.386,0,0,0-.619-4.114,32.268,32.268,0,0,0-1.5-4.865,17.743,17.743,0,0,0-2.476-4.408,9.256,9.256,0,0,0-3.132-2.572,8.852,8.852,0,0,0-2.647-.828,4.789,4.789,0,0,1-1.029-.151" transform="translate(3041.364 -1109.654)" fill="none" stroke="#231f20" stroke-linecap="round" stroke-linejoin="round" stroke-width="2"/>
            <path id="Path_1586" data-name="Path 1586" d="M-3027.846,1121.963a3,3,0,0,1,.162.447l.4,1.315c.171.561.352,1.266.552,2.085s.438,1.751.656,2.789a154.011,154.011,0,0,1,2.619,16.377c.695,6.437,1.009,12.3,1.029,16.548,0,2.124,0,3.81-.077,5.028,0,.561-.067,1.009-.086,1.371a3.172,3.172,0,0,1-.085.466" transform="translate(3042.114 -1112.885)" fill="none" stroke="#231f20" stroke-linecap="round" stroke-linejoin="round" stroke-width="2"/>
            <path id="Path_1587" data-name="Path 1587" d="M-3008.166,1125.043a42.149,42.149,0,0,0-3.872,3.439,36.708,36.708,0,0,0-6.633,10.52,52.719,52.719,0,0,0-2.339,6.475c-.607,2.027-1.01,3.9-1.319,5.465s-.458,2.869-.561,3.738a8.786,8.786,0,0,1-.167,1.41" transform="translate(3042.743 -1112.48)" fill="none" stroke="#231f20" stroke-linecap="round" stroke-linejoin="round" stroke-width="2"/>
          </g>
          <path id="Path_1588" data-name="Path 1588" d="M-3008.456,1182.243c-1.515,9-7.117,17.068-12.793,17.068s-11.279-8.061-12.794-17.068,1.048-19.172,1.048-19.172h23.492S-3006.941,1173.246-3008.456,1182.243Z" transform="translate(3041.236 -1107.482)" fill="#231f20" stroke="#231f20" stroke-linecap="round" stroke-linejoin="round" stroke-width="2"/>
          <line id="Line_155" data-name="Line 155" x2="34.369" transform="translate(1.802 91.829)" fill="none" stroke="#231f20" stroke-linecap="round" stroke-linejoin="round" stroke-width="2"/>
        </g>
        <line id="Line_156" data-name="Line 156" x2="27.72" transform="translate(23.208 100.694)" fill="none" stroke="#231f20" stroke-linecap="round" stroke-linejoin="round" stroke-width="2"/>
      </g>
      <g id="Group_1104" data-name="Group 1104" transform="translate(0 129.182)">
        <g id="freepik--Character--inject-2" transform="translate(57.811 30.201)">
          <path id="Path_1589" data-name="Path 1589" d="M-3234.437,1203.478a16.836,16.836,0,0,1,1.151-4.312c.8-1.609,5.921-.585,5.921-.585s1.024.877,1.242,4.971Z" transform="translate(3271.812 -1005.194)" fill="#231f20"/>
          <path id="Path_1590" data-name="Path 1590" d="M-3247.953,1202.514c1.2-.733.518-6.208.518-6.208s-5.6-4.481-6.373-1.05-5.322,4.971-7.913,5.391a2.783,2.783,0,0,0-2.514,1.867Z" transform="translate(3267.895 -1005.759)" fill="#231f20"/>
          <path id="Path_1591" data-name="Path 1591" d="M-3237.371,1172.808a25.694,25.694,0,0,0-.412,3.025c-.521,10.158-8.551,33.384-9.986,33.926-2.223.839-5.723-.943-7.553-1.527a1.571,1.571,0,0,1-1.1-1.784c3.977-18.281,5.438-62.156,5.969-77.742a70.719,70.719,0,0,1,1.617-13.272s19.584-5.226,19.7,1.384C-3229.035,1122.667-3235.625,1163.159-3237.371,1172.808Z" transform="translate(3268.917 -1016.338)" fill="#fff" stroke="#231f20" stroke-linecap="round" stroke-linejoin="round" stroke-width="2"/>
          <path id="Path_1592" data-name="Path 1592" d="M-3244.184,1111.057l11.2,98.691s4.546,1.1,8.083.22c0,0,3.031-57.46,2.779-67.108s2.175-25.817-.554-27.6S-3244.184,1111.057-3244.184,1111.057Z" transform="translate(3270.531 -1016.655)" fill="#fff"/>
          <path id="Path_1593" data-name="Path 1593" d="M-3230.681,1061.624c1.358-3.91,2.491-8.555-.748-11.918a11.657,11.657,0,0,0-12.6-3.088c-4.507,1.738-6.289,7.071-6.016,11.542,3.92-.487,7.808-1.15,11.712-1.718C-3235.781,1058.174-3233.275,1059.932-3230.681,1061.624Z" transform="translate(3269.757 -1025.222)" fill="#231f20"/>
          <path id="Path_1594" data-name="Path 1594" d="M-3240.81,1049.521c-3.516-1.179-6.4,2.293-7.441,4.961-1.154,2.961-1.3,7.868-1.282,10.22.037,4.731,1.3,5.009,4.027,7.852-.32,3.438-.974,6.961-1.305,10.457,4.538-1.428,8.468,1.663,13-.269.332-7.69,2.508-19.962,2.731-26.574S-3237.295,1050.7-3240.81,1049.521Z" transform="translate(3269.827 -1024.775)" fill="#fff" stroke="#231f20" stroke-linecap="round" stroke-linejoin="round" stroke-width="2"/>
          <path id="Path_1595" data-name="Path 1595" d="M-3245.6,1070.631a24.483,24.483,0,0,0,8.735-2.042c-2.476,2.808-5.1,3.516-8.754,3.639C-3245.614,1071.7-3245.61,1071.163-3245.6,1070.631Z" transform="translate(3270.342 -1022.237)" fill="#231f20"/>
          <path id="Path_1596" data-name="Path 1596" d="M-3244.478,1064.112" transform="translate(3270.492 -1022.826)" fill="#eb996e"/>
          <path id="Path_1597" data-name="Path 1597" d="M-3248.885,1074.277c-.958,3.8-1.823,7.6-3.045,11.132-6.718-5.833-13.045-15.93-14.877-23.682s.775-16.249.2-21.23c-.462-3.983-.382-2.387-.38-2.406.124-2.606,1.679-4.66,3.251-6.84a1.786,1.786,0,0,1-.768-1.441,14.458,14.458,0,0,0-.191-1.877c1.522.2,2.041-.672,3.762-.133s3.526,3.645,2.927,5.476c-.27.827-.531.743-.751,1.237a2.5,2.5,0,0,1-.618.833c-.975,1.163-2.379,2.222-2.525,3.7-.109,1.105-.293-3.049-.023,1.629a97.867,97.867,0,0,0,2.786,16.6C-3257.692,1063.162-3254.372,1070.3-3248.885,1074.277Z" transform="translate(3267.47 -1027.622)" fill="#fff" stroke="#231f20" stroke-linecap="round" stroke-linejoin="round" stroke-width="2"/>
          <g id="Group_1101" data-name="Group 1101" transform="translate(40.154 10.32)">
            <path id="Path_1598" data-name="Path 1598" d="M-3195.858,1042.693c-.943-.111-1.705,1.342-1.841,2.125a2.393,2.393,0,0,1-.875,1.624c-.013.014.109-.086.063-.037-1.469,2.141-.761,13.015-6.346,21.709s-13.882,16.339-24.565,18.878a32.086,32.086,0,0,1-2.559-3.871c.722-1.931,1.588-3.919,2.1-5.845,4.037-1.66,6.37-1,10.146-4.31a63.425,63.425,0,0,0,11.325-13.03c3.192-5.034,2.847-12.863,6.445-18.092.277-.4.3-.951.668-1.274,1.488-1.3,2.547-2.786,4.924-2.925,1.429-.084,4.12-1.979,6.034-.014S-3192.948,1043.035-3195.858,1042.693Z" transform="translate(3231.98 -1036.744)" fill="#fff" stroke="#231f20" stroke-linecap="round" stroke-linejoin="round" stroke-width="2"/>
          </g>
          <path id="Path_1599" data-name="Path 1599" d="M-3243.021,1076.283c5.132-.226,6.871-3.42,11.184-4.921s8.676-.815,12.969-2.128c1.021,3.967,2.427,6.9,5.729,9.394h0c-3.388,2.187-6.849,4.2-10.387,6.162-.5,2.663.113,8.944-.356,11.508s4.927,19.947,3.81,24.905c-.116.518-17.382-2.22-29.477,2.137-.862-13.023-1.737-26.047-2.514-39.075q-2.807-2.469-5.6-4.956c1.877-4.21,3.649-8.468,5.76-12.567,2.181,1.692,4.484,3.177,6.8,4.674C-3245.432,1074.044-3245.542,1074.806-3243.021,1076.283Z" transform="translate(3268.76 -1022.48)" fill="#fff" stroke="#231f20" stroke-linecap="round" stroke-linejoin="round" stroke-width="2"/>
          <path id="Path_1600" data-name="Path 1600" d="M-3229.385,1095.421" transform="translate(3272.476 -1018.711)" fill="#fff" stroke="#231f20" stroke-linecap="round" stroke-linejoin="round" stroke-width="2"/>
          <path id="Path_1601" data-name="Path 1601" d="M-3246.07,1070.354c5.439.377,8.736-1.3,12.423-5.214" transform="translate(3270.283 -1022.691)" fill="none" stroke="#231f20" stroke-linecap="round" stroke-linejoin="round" stroke-width="2"/>
          <path id="Path_1602" data-name="Path 1602" d="M-3232.661,1062.616a1.555,1.555,0,0,1,1.109-.121c.245-1.17.5-1.731.746-3.043s.453-3.362.676-4.829c-1-.962-2.094-2.154-3-3.1s-1.4-1.979-2.479-2.656-2.775-.464-4.045-.826c-1.76-1.191-5.81-2.612-6.059.309s2.049,5.837,4.337,7.244a6.212,6.212,0,0,1,.151-3.3A36.317,36.317,0,0,0-3232.661,1062.616Z" transform="translate(3270.327 -1025.124)" fill="#231f20"/>
          <path id="Path_1603" data-name="Path 1603" d="M-3235.062,1065.875a1.673,1.673,0,0,0,.407.213,2.338,2.338,0,0,0,2.77-1.737,2.346,2.346,0,0,0-1.083-3.089,1.872,1.872,0,0,0-1.672.272" transform="translate(3271.729 -1023.213)" fill="#fff" stroke="#231f20" stroke-linecap="round" stroke-linejoin="round" stroke-width="2"/>
          <path id="Path_1604" data-name="Path 1604" d="M-3241.194,1137.5l8.144,71.794s4.546,1.1,8.083.22c0,0,3.031-57.46,2.779-67.108s1.868-25.291-.861-27.074-20.672-.108-20.672-.108l.727,6.407" transform="translate(3270.592 -1016.202)" fill="#fff" stroke="#231f20" stroke-linecap="round" stroke-linejoin="round" stroke-width="2"/>
          <path id="Path_1605" data-name="Path 1605" d="M-3240.393,1143.024l-1.413,40.556,2.16-12.361,1.494-8.437Z" transform="translate(3270.843 -1012.454)" fill="#231f20"/>
        </g>
        <g id="Group_1102" data-name="Group 1102">
          <path id="Path_1606" data-name="Path 1606" d="M-3163.965,1033.669a10.91,10.91,0,0,0,10.917,10.907h-146.691a21.818,21.818,0,0,0,21.824-21.814,21.828,21.828,0,0,0-21.824-21.833h146.691a10.919,10.919,0,0,0-10.917,10.917,10.919,10.919,0,0,0,10.917,10.916A10.91,10.91,0,0,0-3163.965,1033.669Z" transform="translate(3321.04 -1000.929)" fill="#fff" stroke="#231f20" stroke-miterlimit="10" stroke-width="2"/>
          <path id="Path_1607" data-name="Path 1607" d="M-3296.742,1000.929a21.833,21.833,0,0,0-21.823,21.833,21.823,21.823,0,0,0,21.823,21.814,21.819,21.819,0,0,0,21.824-21.814A21.828,21.828,0,0,0-3296.742,1000.929Z" transform="translate(3318.565 -1000.929)" fill="none" stroke="#231f20" stroke-miterlimit="10" stroke-width="2"/>
          <path id="Path_1608" data-name="Path 1608" d="M-3288.169,1021.085a10.365,10.365,0,0,1-10.365,10.365,10.365,10.365,0,0,1-10.365-10.365,10.367,10.367,0,0,1,10.365-10.374A10.366,10.366,0,0,1-3288.169,1021.085Z" transform="translate(3319.835 -999.643)" fill="#231f20"/>
          <line id="Line_157" data-name="Line 157" x2="116.564" transform="translate(40.511 11.461)" fill="none" stroke="#231f20" stroke-miterlimit="10" stroke-width="2"/>
          <path id="Path_1609" data-name="Path 1609" d="M-3153.851,1011.212V1034.3l-4.8,3.3-10.135,6.974h-.036a10.91,10.91,0,0,1-10.917-10.907,10.91,10.91,0,0,1,10.917-10.907,10.919,10.919,0,0,1-10.917-10.916,10.919,10.919,0,0,1,10.917-10.917h.036l10.135,6.983Z" transform="translate(3336.813 -1000.929)" fill="none" stroke="#231f20" stroke-linecap="round" stroke-linejoin="round" stroke-width="2"/>
          <path id="Path_1610" data-name="Path 1610" d="M-3140.089,1021.563l-16.77,11.546v-23.092Z" transform="translate(3339.819 -999.735)" fill="#231f20" stroke="#231f20" stroke-miterlimit="10" stroke-width="2"/>
        </g>
        <line id="Line_158" data-name="Line 158" x2="116.564" transform="translate(40.511 32.196)" fill="none" stroke="#231f20" stroke-miterlimit="10" stroke-width="2"/>
        <g id="Group_1103" data-name="Group 1103" transform="translate(127.981 40.522)">
          <path id="Path_1611" data-name="Path 1611" d="M-3205.451,1041.845c.277-.4.3-.951.668-1.274,1.488-1.3,2.547-2.786,4.924-2.925,1.429-.084,4.12-1.979,6.034-.014s-2.61,5.4-5.52,5.061c-.943-.111-1.705,1.342-1.841,2.125a2.393,2.393,0,0,1-.875,1.624c-.013.014.109-.086.063-.037" transform="translate(3205.451 -1036.744)" fill="#fff" stroke="#231f20" stroke-linecap="round" stroke-linejoin="round" stroke-width="2"/>
        </g>
      </g>
      <g id="Group_1105" data-name="Group 1105" transform="translate(400.984 103.912)">
        <path id="Path_1612" data-name="Path 1612" d="M-2895.081,1009.26l-3.609,18.863s-8.8-2.244-11.633-2.244v5.214s8.746,4.583,14.789,3.682l.836-12.217Z" transform="translate(2971.24 -974.564)" fill="none" stroke="#231f20" stroke-linecap="round" stroke-linejoin="round" stroke-width="2"/>
        <path id="Path_1613" data-name="Path 1613" d="M-2903.779,1073.75s-19.217,14.4-40.648,24.112l-6.642-9.228,29.167-22.573s5.932-5.081,10.706-6.876,18.485-1.991,18.485-1.991Z" transform="translate(2965.884 -968.264)" fill="#fff" stroke="#231f20" stroke-linecap="round" stroke-linejoin="round" stroke-width="2"/>
        <path id="Path_1614" data-name="Path 1614" d="M-2952.309,1096.829l-11.854-8.709s4.493-2.584,7.127-.578,3.626,2.064,8.28-1.835l4.507,6.26Z" transform="translate(2964.163 -964.516)" fill="#231f20"/>
        <path id="Path_1615" data-name="Path 1615" d="M-2884.248,1005.175a19.2,19.2,0,0,0-6.653-7.422c-4.659-2.985-7.861.218-6.551,2.33s3.574,6.037,3.574,6.037" transform="translate(2972.893 -976.236)" fill="#fff" stroke="#231f20" stroke-linecap="round" stroke-linejoin="round" stroke-width="2"/>
        <path id="Path_1616" data-name="Path 1616" d="M-2852.433,1052.212s3.882,17.081-7.182,20.964-38.163,2.168-38.163,2.168l-24.846,44.257-9.9-8.347,21.546-45.616s2.135-7.57,9.124-8.153S-2858.024,1054.943-2852.433,1052.212Z" transform="translate(2968.322 -968.918)" fill="#fff" stroke="#231f20" stroke-linecap="round" stroke-linejoin="round" stroke-width="2"/>
        <path id="Path_1617" data-name="Path 1617" d="M-2928,1120.713l-13.878-4.658s1.455-3.882,6.939-2.427,6.49-7.109,6.49-7.109l6.3,5.312Z" transform="translate(2967.093 -961.781)" fill="#231f20"/>
        <path id="Path_1618" data-name="Path 1618" d="M-2891.5,1004.056s13.685-5.241,23.876,19.8,10.579,34.746,10.579,34.746-13.557,2.558-27.747,3.642C-2884.789,1062.244-2908.093,1008.714-2891.5,1004.056Z" transform="translate(2972.93 -975.308)" fill="#fff" stroke="#231f20" stroke-linecap="round" stroke-linejoin="round" stroke-width="2"/>
        <path id="Path_1619" data-name="Path 1619" d="M-2894.638,1005.252s6.556-4.133,11.118,7.319" transform="translate(2973.302 -975.186)" fill="none" stroke="#231f20" stroke-linecap="round" stroke-linejoin="round" stroke-width="2"/>
        <path id="Path_1620" data-name="Path 1620" d="M-2897.713,984.777a16.993,16.993,0,0,0-5.969,12.763c-.146,8.4,1.068,8.744,2.985,9.347s4-6.387,5.41-6.484,8.3.729,10.774-5.968-1.966-9.682-4.367-11.283-4.86-3.64-4.86-3.64-5.405-2.766-6.715,1.31S-2897.713,984.777-2897.713,984.777Z" transform="translate(2972.111 -978.595)" fill="#fff" stroke="#231f20" stroke-linecap="round" stroke-linejoin="round" stroke-width="2"/>
        <path id="Path_1621" data-name="Path 1621" d="M-2903.667,997.54c-.686,4.129,1.068,8.744,2.985,9.347s4-6.387,5.41-6.484,8.3.729,10.773-5.968-1.965-9.682-4.367-11.283-4.859-3.64-4.859-3.64-5.405-2.766-6.715,1.31,2.742,3.956,2.742,3.956,6.939,3.178,5.775,7.255S-2898.086,1002.683-2903.667,997.54Z" transform="translate(2972.095 -978.595)" fill="#231f20"/>
        <path id="Path_1622" data-name="Path 1622" d="M-2910.793,1064.079l-23.135,26.481,14.763-8.757Z" transform="translate(2968.137 -967.359)" fill="#231f20"/>
        <path id="Path_1623" data-name="Path 1623" d="M-2878.936,1025.9s-4.8,2.32-12.969-4.158c0,0,.32,12.929-1.792,14.107-2.038,1.137-22.024-1.2-24.007-1.456h0s-7.63-1.527-8.052-1.381c-.4.139-6.755-3.88-7.725-.05-.077.3,2.251,5.7,10.684,5.751l3.593-.708h0c1.969.984,23.382,11.671,32.481,6.259C-2882.442,1041.713-2878.936,1025.9-2878.936,1025.9Z" transform="translate(2968.196 -972.924)" fill="#fff" stroke="#231f20" stroke-linecap="round" stroke-linejoin="round" stroke-width="2"/>
        <path id="Path_1624" data-name="Path 1624" d="M-2885.2,1027.51s3.777-9.307-.615-18.051" transform="translate(2974.461 -974.538)" fill="none" stroke="#231f20" stroke-linecap="round" stroke-linejoin="round" stroke-width="2"/>
      </g>
      <line id="Line_159" data-name="Line 159" x2="61.831" transform="translate(480.475 210.709)" fill="none" stroke="#231f20" stroke-linecap="round" stroke-miterlimit="10" stroke-width="2"/>
      <path id="Path_1625" data-name="Path 1625" d="M-2909.353,1041.725a17.186,17.186,0,0,1-2.906,3.134c-1.651,1.331-8.848-5.413-10.759-7.076l2.977-.586Z" transform="translate(3370.555 -866.98)" fill="#231f20" stroke="#231f20" stroke-miterlimit="10" stroke-width="2"/>
    </g>
  </g>
</svg>
