<svg xmlns="http://www.w3.org/2000/svg" xmlns:xlink="http://www.w3.org/1999/xlink" width="797.4" height="677.279" viewBox="0 0 797.4 677.279">
  <defs>
    <filter id="Path_15115" x="83.516" y="17.106" width="451" height="451" filterUnits="userSpaceOnUse">
      <feOffset input="SourceAlpha"/>
      <feGaussianBlur stdDeviation="12.5" result="blur"/>
      <feFlood flood-color="#242424" flood-opacity="0.161"/>
      <feComposite operator="in" in2="blur"/>
      <feComposite in="SourceGraphic"/>
    </filter>
    <filter id="Path_15116" x="195.516" y="204.106" width="451" height="451" filterUnits="userSpaceOnUse">
      <feOffset input="SourceAlpha"/>
      <feGaussianBlur stdDeviation="12.5" result="blur-2"/>
      <feFlood flood-color="#242424" flood-opacity="0.161"/>
      <feComposite operator="in" in2="blur-2"/>
      <feComposite in="SourceGraphic"/>
    </filter>
    <filter id="Path_15117" x="295.516" y="17.106" width="451" height="451" filterUnits="userSpaceOnUse">
      <feOffset input="SourceAlpha"/>
      <feGaussianBlur stdDeviation="12.5" result="blur-3"/>
      <feFlood flood-color="#242424" flood-opacity="0.161"/>
      <feComposite operator="in" in2="blur-3"/>
      <feComposite in="SourceGraphic"/>
    </filter>
  </defs>
  <g id="Group_7335" data-name="Group 7335" transform="translate(-699.6 13698.606)">
    <g transform="matrix(1, 0, 0, 1, 699.6, -13698.61)" filter="url(#Path_15115)">
      <g id="Path_15115-2" data-name="Path 15115" transform="translate(121.02 54.61)" fill="none">
        <path d="M188,0C291.83,0,376,84.17,376,188S291.83,376,188,376,0,291.83,0,188,84.17,0,188,0Z" stroke="none"/>
        <path d="M 188 3 C 175.4459991455078 3 162.9008026123047 4.264556884765625 150.7128448486328 6.75860595703125 C 138.8361968994141 9.18890380859375 127.1539001464844 12.8153076171875 115.9905395507812 17.5369873046875 C 105.0292053222656 22.17324829101562 94.45675659179688 27.911865234375 84.56686401367188 34.59329223632812 C 74.77011108398438 41.21185302734375 65.55758666992188 48.81283569335938 57.18524169921875 57.18524169921875 C 48.81283569335938 65.55758666992188 41.21185302734375 74.77011108398438 34.59329223632812 84.56686401367188 C 27.911865234375 94.45675659179688 22.17324829101562 105.0292053222656 17.5369873046875 115.9905395507812 C 12.8153076171875 127.1539001464844 9.18890380859375 138.8361968994141 6.75860595703125 150.7128448486328 C 4.264556884765625 162.9008026123047 3 175.4459991455078 3 188 C 3 200.5540008544922 4.264556884765625 213.0991973876953 6.75860595703125 225.2871551513672 C 9.18890380859375 237.1638031005859 12.8153076171875 248.8460998535156 17.5369873046875 260.0094604492188 C 22.17324829101562 270.9707946777344 27.911865234375 281.5432434082031 34.59329223632812 291.4331665039062 C 41.21185302734375 301.2298889160156 48.81283569335938 310.4423828125 57.18524169921875 318.8147583007812 C 65.55758666992188 327.1871337890625 74.77011108398438 334.7881469726562 84.56686401367188 341.4067077636719 C 94.45675659179688 348.088134765625 105.0292053222656 353.8267517089844 115.9905395507812 358.4630126953125 C 127.1539001464844 363.1846923828125 138.8361968994141 366.8110961914062 150.7128448486328 369.2413940429688 C 162.9008026123047 371.7354431152344 175.4459991455078 373 188 373 C 200.5540008544922 373 213.0991973876953 371.7354431152344 225.2871551513672 369.2413940429688 C 237.1638031005859 366.8110961914062 248.8460998535156 363.1846923828125 260.0094604492188 358.4630126953125 C 270.9707946777344 353.8267517089844 281.5432434082031 348.088134765625 291.4331665039062 341.4067077636719 C 301.2298889160156 334.7881469726562 310.4423828125 327.1871337890625 318.8147583007812 318.8147583007812 C 327.1871337890625 310.4423828125 334.7881469726562 301.2298889160156 341.4067077636719 291.4331665039062 C 348.088134765625 281.5432434082031 353.8267517089844 270.9707946777344 358.4630126953125 260.0094604492188 C 363.1846923828125 248.8460998535156 366.8110961914062 237.1638031005859 369.2413940429688 225.2871551513672 C 371.7354431152344 213.0991973876953 373 200.5540008544922 373 188 C 373 175.4459991455078 371.7354431152344 162.9008026123047 369.2413940429688 150.7128448486328 C 366.8110961914062 138.8361968994141 363.1846923828125 127.1539001464844 358.4630126953125 115.9905395507812 C 353.8267517089844 105.0292053222656 348.088134765625 94.45675659179688 341.4067077636719 84.56686401367188 C 334.7881469726562 74.77011108398438 327.1871337890625 65.55758666992188 318.8147583007812 57.18524169921875 C 310.4423828125 48.81283569335938 301.2298889160156 41.21185302734375 291.4331665039062 34.59329223632812 C 281.5432434082031 27.911865234375 270.9707946777344 22.17324829101562 260.0094604492188 17.5369873046875 C 248.8460998535156 12.8153076171875 237.1638031005859 9.18890380859375 225.2871551513672 6.75860595703125 C 213.0991973876953 4.264556884765625 200.5540008544922 3 188 3 M 188 0 C 291.8295593261719 0 376 84.17044067382812 376 188 C 376 291.8295593261719 291.8295593261719 376 188 376 C 84.17044067382812 376 0 291.8295593261719 0 188 C 0 84.17044067382812 84.17044067382812 0 188 0 Z" stroke="none" fill="#2e2e2e"/>
      </g>
    </g>
    <g transform="matrix(1, 0, 0, 1, 699.6, -13698.61)" filter="url(#Path_15116)">
      <g id="Path_15116-2" data-name="Path 15116" transform="translate(233.02 241.61)" fill="none">
        <path d="M188,0C291.83,0,376,84.17,376,188S291.83,376,188,376,0,291.83,0,188,84.17,0,188,0Z" stroke="none"/>
        <path d="M 188 3 C 175.4459991455078 3 162.9008026123047 4.264556884765625 150.7128448486328 6.75860595703125 C 138.8361968994141 9.18890380859375 127.1539001464844 12.8153076171875 115.9905395507812 17.5369873046875 C 105.0292053222656 22.17324829101562 94.45675659179688 27.911865234375 84.56686401367188 34.59329223632812 C 74.77011108398438 41.21185302734375 65.55758666992188 48.81283569335938 57.18524169921875 57.18524169921875 C 48.81283569335938 65.55758666992188 41.21185302734375 74.77011108398438 34.59329223632812 84.56686401367188 C 27.911865234375 94.45675659179688 22.17324829101562 105.0292053222656 17.5369873046875 115.9905395507812 C 12.8153076171875 127.1539001464844 9.18890380859375 138.8361968994141 6.75860595703125 150.7128448486328 C 4.264556884765625 162.9008026123047 3 175.4459991455078 3 188 C 3 200.5540008544922 4.264556884765625 213.0991973876953 6.75860595703125 225.2871551513672 C 9.18890380859375 237.1638031005859 12.8153076171875 248.8460998535156 17.5369873046875 260.0094604492188 C 22.17324829101562 270.9707946777344 27.911865234375 281.5432434082031 34.59329223632812 291.4331665039062 C 41.21185302734375 301.2298889160156 48.81283569335938 310.4423828125 57.18524169921875 318.8147583007812 C 65.55758666992188 327.1871337890625 74.77011108398438 334.7881469726562 84.56686401367188 341.4067077636719 C 94.45675659179688 348.088134765625 105.0292053222656 353.8267517089844 115.9905395507812 358.4630126953125 C 127.1539001464844 363.1846923828125 138.8361968994141 366.8110961914062 150.7128448486328 369.2413940429688 C 162.9008026123047 371.7354431152344 175.4459991455078 373 188 373 C 200.5540008544922 373 213.0991973876953 371.7354431152344 225.2871551513672 369.2413940429688 C 237.1638031005859 366.8110961914062 248.8460998535156 363.1846923828125 260.0094604492188 358.4630126953125 C 270.9707946777344 353.8267517089844 281.5432434082031 348.088134765625 291.4331665039062 341.4067077636719 C 301.2298889160156 334.7881469726562 310.4423828125 327.1871337890625 318.8147583007812 318.8147583007812 C 327.1871337890625 310.4423828125 334.7881469726562 301.2298889160156 341.4067077636719 291.4331665039062 C 348.088134765625 281.5432434082031 353.8267517089844 270.9707946777344 358.4630126953125 260.0094604492188 C 363.1846923828125 248.8460998535156 366.8110961914062 237.1638031005859 369.2413940429688 225.2871551513672 C 371.7354431152344 213.0991973876953 373 200.5540008544922 373 188 C 373 175.4459991455078 371.7354431152344 162.9008026123047 369.2413940429688 150.7128448486328 C 366.8110961914062 138.8361968994141 363.1846923828125 127.1539001464844 358.4630126953125 115.9905395507812 C 353.8267517089844 105.0292053222656 348.088134765625 94.45675659179688 341.4067077636719 84.56686401367188 C 334.7881469726562 74.77011108398438 327.1871337890625 65.55758666992188 318.8147583007812 57.18524169921875 C 310.4423828125 48.81283569335938 301.2298889160156 41.21185302734375 291.4331665039062 34.59329223632812 C 281.5432434082031 27.911865234375 270.9707946777344 22.17324829101562 260.0094604492188 17.5369873046875 C 248.8460998535156 12.8153076171875 237.1638031005859 9.18890380859375 225.2871551513672 6.75860595703125 C 213.0991973876953 4.264556884765625 200.5540008544922 3 188 3 M 188 0 C 291.8295593261719 0 376 84.17044067382812 376 188 C 376 291.8295593261719 291.8295593261719 376 188 376 C 84.17044067382812 376 0 291.8295593261719 0 188 C 0 84.17044067382812 84.17044067382812 0 188 0 Z" stroke="none" fill="#2e2e2e"/>
      </g>
    </g>
    <g transform="matrix(1, 0, 0, 1, 699.6, -13698.61)" filter="url(#Path_15117)">
      <g id="Path_15117-2" data-name="Path 15117" transform="translate(333.02 54.61)" fill="none">
        <path d="M188,0C291.83,0,376,84.17,376,188S291.83,376,188,376,0,291.83,0,188,84.17,0,188,0Z" stroke="none"/>
        <path d="M 188 3 C 175.4459991455078 3 162.9008026123047 4.264556884765625 150.7128448486328 6.75860595703125 C 138.8361968994141 9.18890380859375 127.1539001464844 12.8153076171875 115.9905395507812 17.5369873046875 C 105.0292053222656 22.17324829101562 94.45675659179688 27.911865234375 84.56686401367188 34.59329223632812 C 74.77011108398438 41.21185302734375 65.55758666992188 48.81283569335938 57.18524169921875 57.18524169921875 C 48.81283569335938 65.55758666992188 41.21185302734375 74.77011108398438 34.59329223632812 84.56686401367188 C 27.911865234375 94.45675659179688 22.17324829101562 105.0292053222656 17.5369873046875 115.9905395507812 C 12.8153076171875 127.1539001464844 9.18890380859375 138.8361968994141 6.75860595703125 150.7128448486328 C 4.264556884765625 162.9008026123047 3 175.4459991455078 3 188 C 3 200.5540008544922 4.264556884765625 213.0991973876953 6.75860595703125 225.2871551513672 C 9.18890380859375 237.1638031005859 12.8153076171875 248.8460998535156 17.5369873046875 260.0094604492188 C 22.17324829101562 270.9707946777344 27.911865234375 281.5432434082031 34.59329223632812 291.4331665039062 C 41.21185302734375 301.2298889160156 48.81283569335938 310.4423828125 57.18524169921875 318.8147583007812 C 65.55758666992188 327.1871337890625 74.77011108398438 334.7881469726562 84.56686401367188 341.4067077636719 C 94.45675659179688 348.088134765625 105.0292053222656 353.8267517089844 115.9905395507812 358.4630126953125 C 127.1539001464844 363.1846923828125 138.8361968994141 366.8110961914062 150.7128448486328 369.2413940429688 C 162.9008026123047 371.7354431152344 175.4459991455078 373 188 373 C 200.5540008544922 373 213.0991973876953 371.7354431152344 225.2871551513672 369.2413940429688 C 237.1638031005859 366.8110961914062 248.8460998535156 363.1846923828125 260.0094604492188 358.4630126953125 C 270.9707946777344 353.8267517089844 281.5432434082031 348.088134765625 291.4331665039062 341.4067077636719 C 301.2298889160156 334.7881469726562 310.4423828125 327.1871337890625 318.8147583007812 318.8147583007812 C 327.1871337890625 310.4423828125 334.7881469726562 301.2298889160156 341.4067077636719 291.4331665039062 C 348.088134765625 281.5432434082031 353.8267517089844 270.9707946777344 358.4630126953125 260.0094604492188 C 363.1846923828125 248.8460998535156 366.8110961914062 237.1638031005859 369.2413940429688 225.2871551513672 C 371.7354431152344 213.0991973876953 373 200.5540008544922 373 188 C 373 175.4459991455078 371.7354431152344 162.9008026123047 369.2413940429688 150.7128448486328 C 366.8110961914062 138.8361968994141 363.1846923828125 127.1539001464844 358.4630126953125 115.9905395507812 C 353.8267517089844 105.0292053222656 348.088134765625 94.45675659179688 341.4067077636719 84.56686401367188 C 334.7881469726562 74.77011108398438 327.1871337890625 65.55758666992188 318.8147583007812 57.18524169921875 C 310.4423828125 48.81283569335938 301.2298889160156 41.21185302734375 291.4331665039062 34.59329223632812 C 281.5432434082031 27.911865234375 270.9707946777344 22.17324829101562 260.0094604492188 17.5369873046875 C 248.8460998535156 12.8153076171875 237.1638031005859 9.18890380859375 225.2871551513672 6.75860595703125 C 213.0991973876953 4.264556884765625 200.5540008544922 3 188 3 M 188 0 C 291.8295593261719 0 376 84.17044067382812 376 188 C 376 291.8295593261719 291.8295593261719 376 188 376 C 84.17044067382812 376 0 291.8295593261719 0 188 C 0 84.17044067382812 84.17044067382812 0 188 0 Z" stroke="none" fill="#2e2e2e"/>
      </g>
    </g>
    <path id="Path_15118" data-name="Path 15118" d="M24.608,0h3.456L24.64-21.92H21.248l-6.176,17.5L8.864-21.92H5.408L1.984,0H5.44L7.808-15.424,13.28,0H16.8l5.472-15.36ZM38.976-11.584a3.762,3.762,0,0,1,2.08.576,4.376,4.376,0,0,1,1.984,3.84,4.551,4.551,0,0,1-.544,2.24,3.891,3.891,0,0,1-3.52,2.144,3.807,3.807,0,0,1-2.048-.576,4.278,4.278,0,0,1-2.016-3.808,4.862,4.862,0,0,1,.544-2.272A3.891,3.891,0,0,1,38.976-11.584ZM42.912,0H46.24V-14.368H43.3l-.288,1.6a5.97,5.97,0,0,0-4.48-1.92,6.831,6.831,0,0,0-3.584.96,7.548,7.548,0,0,0-3.424,6.56,7.89,7.89,0,0,0,.928,3.808A6.719,6.719,0,0,0,38.528.32a6.115,6.115,0,0,0,4.384-1.792ZM57.92-11.136a3.451,3.451,0,0,1,1.248.288l.032-3.3a.853.853,0,0,0-.416-.16h-.1l-.256.032a5.307,5.307,0,0,0-3.9,1.5v-1.6h-3.3V0h3.3V-9.216A4,4,0,0,1,57.92-11.136ZM72.576,0h4.032L69.344-8.608l6.5-5.984-4.1-.032L66.08-9.472V-22.56H62.688V0H66.08V-6.048l.832-.672Zm9.28-8.736a3.844,3.844,0,0,1,3.584-2.912,3.887,3.887,0,0,1,3.648,2.912ZM92.48-5.728a10.852,10.852,0,0,0,.128-1.44,7.738,7.738,0,0,0-.96-3.808,7,7,0,0,0-6.208-3.712,6.758,6.758,0,0,0-3.616.992,7.535,7.535,0,0,0-3.552,6.528,7.467,7.467,0,0,0,.992,3.776A7.457,7.457,0,0,0,85.76.32a9.282,9.282,0,0,0,6.272-2.368l-2.08-2.3A6.031,6.031,0,0,1,85.728-2.72a4.12,4.12,0,0,1-3.9-3.008ZM97.5-14.5l-3.008.16v2.912h2.848v6.368C97.344-1.728,99.2.32,102.176.32a5.869,5.869,0,0,0,4.288-1.952L104.7-4.064A3.367,3.367,0,0,1,102.5-2.848c-1.056,0-1.76-.8-1.76-2.24v-6.336h4.7V-14.5h-4.7v-3.968h-2.88ZM109.376,0h3.392V-14.56h-3.392Zm-.224-18.752a2.072,2.072,0,0,0,1.888,2.176,2.074,2.074,0,0,0,1.92-2.176,2.074,2.074,0,0,0-1.92-2.176A2.072,2.072,0,0,0,109.152-18.752ZM127.264,0h3.392V-8.384c0-3.936-2.08-6.3-5.568-6.3a5.954,5.954,0,0,0-4.32,2.048l-.32-1.728H117.5V0H120.9V-9.216a4.306,4.306,0,0,1,3.52-2.3c1.792,0,2.848,1.28,2.848,3.488Zm14.752-11.552a4,4,0,0,1,2.08.576,4.489,4.489,0,0,1,1.984,3.9,4.677,4.677,0,0,1-.544,2.272,3.921,3.921,0,0,1-3.52,2.176,3.761,3.761,0,0,1-2.048-.576,4.387,4.387,0,0,1-2.016-3.872,4.9,4.9,0,0,1,.544-2.3A3.921,3.921,0,0,1,142.016-11.552ZM142.08,6.72a9.278,9.278,0,0,0,4.256-.9c2.5-1.28,2.944-2.592,2.944-5.632v-14.56h-2.944l-.288,1.6a5.971,5.971,0,0,0-4.48-1.92,6.5,6.5,0,0,0-3.584.992,7.62,7.62,0,0,0-3.424,6.624,7.927,7.927,0,0,0,.928,3.84,6.778,6.778,0,0,0,6.08,3.744,6.14,6.14,0,0,0,4.864-2.368V.192c0,2.336-1.376,3.424-4.448,3.424a7.38,7.38,0,0,1-2.432-.352A8.925,8.925,0,0,1,137.088,1.6L135.3,4.192a9.983,9.983,0,0,0,3.168,2.016A10.944,10.944,0,0,0,142.08,6.72ZM161.792-5.216A10.544,10.544,0,0,0,171.232.32a11.3,11.3,0,0,0,8.224-3.808l-2.336-2.5a7.644,7.644,0,0,1-5.888,2.976,6.87,6.87,0,0,1-3.68-1.056A7.8,7.8,0,0,1,164-10.944a8.689,8.689,0,0,1,.96-4.1,6.938,6.938,0,0,1,6.272-3.872,7.817,7.817,0,0,1,5.664,2.656l2.24-2.432a10.725,10.725,0,0,0-7.9-3.552,10.517,10.517,0,0,0-5.568,1.472,11.193,11.193,0,0,0-5.312,9.824A11.624,11.624,0,0,0,161.792-5.216Zm27.328-6.368a3.762,3.762,0,0,1,2.08.576,4.339,4.339,0,0,1,1.984,3.84,4.732,4.732,0,0,1-.544,2.24,3.891,3.891,0,0,1-3.52,2.144,3.807,3.807,0,0,1-2.048-.576,4.278,4.278,0,0,1-2.016-3.808,4.441,4.441,0,0,1,.576-2.272A3.844,3.844,0,0,1,189.12-11.584Zm0,11.9a7.6,7.6,0,0,0,3.808-.992,7.252,7.252,0,0,0,3.648-6.5,7.808,7.808,0,0,0-.96-3.872,7.252,7.252,0,0,0-6.5-3.648,7.565,7.565,0,0,0-3.808.96,7.355,7.355,0,0,0-3.648,6.56,7.6,7.6,0,0,0,.992,3.808A7.228,7.228,0,0,0,189.12.32ZM210.3,0H213.7V-8.384c0-3.936-2.08-6.3-5.568-6.3a5.954,5.954,0,0,0-4.32,2.048l-.32-1.728h-2.944V0h3.392V-9.216a4.306,4.306,0,0,1,3.52-2.3c1.792,0,2.848,1.28,2.848,3.488Zm6.624-2.016A8.742,8.742,0,0,0,222.752.32c3.232,0,5.44-1.76,5.44-4.48,0-2.272-1.44-3.68-4.352-4.544a8.854,8.854,0,0,1-2.368-.928,1.074,1.074,0,0,1-.544-.928c0-.768.64-1.28,1.824-1.28a5.12,5.12,0,0,1,3.328,1.5l1.76-2.464a7.754,7.754,0,0,0-5.056-1.888c-2.944,0-5.056,1.632-5.056,4.16,0,2.4,1.376,3.712,4.672,4.7a9.594,9.594,0,0,1,2.144.832,1.121,1.121,0,0,1,.448.9c0,.9-.832,1.536-2.24,1.536a5.637,5.637,0,0,1-4.032-1.952ZM241.184,0h3.424V-14.368h-3.424v9.344a4.05,4.05,0,0,1-3.36,2.176c-1.76,0-2.72-1.152-2.72-3.232v-8.288h-3.392V-5.76c0,3.808,1.984,6.08,5.408,6.08a5.832,5.832,0,0,0,4.1-1.76Zm8.192,0h3.392V-22.56h-3.392Zm9.344-14.5-3.008.16v2.912h2.848v6.368c0,3.328,1.856,5.376,4.832,5.376a5.869,5.869,0,0,0,4.288-1.952l-1.76-2.432a3.367,3.367,0,0,1-2.208,1.216c-1.056,0-1.76-.8-1.76-2.24v-6.336h4.7V-14.5h-4.7v-3.968h-2.88ZM270.592,0h3.392V-14.56h-3.392Zm-.224-18.752a2.072,2.072,0,0,0,1.888,2.176,2.074,2.074,0,0,0,1.92-2.176,2.074,2.074,0,0,0-1.92-2.176A2.072,2.072,0,0,0,270.368-18.752ZM288.48,0h3.392V-8.384c0-3.936-2.08-6.3-5.568-6.3a5.954,5.954,0,0,0-4.32,2.048l-.32-1.728H278.72V0h3.392V-9.216a4.306,4.306,0,0,1,3.52-2.3c1.792,0,2.848,1.28,2.848,3.488Zm14.752-11.552a4,4,0,0,1,2.08.576,4.489,4.489,0,0,1,1.984,3.9,4.677,4.677,0,0,1-.544,2.272,3.921,3.921,0,0,1-3.52,2.176,3.761,3.761,0,0,1-2.048-.576,4.387,4.387,0,0,1-2.016-3.872,4.9,4.9,0,0,1,.544-2.3A3.921,3.921,0,0,1,303.232-11.552ZM303.3,6.72a9.278,9.278,0,0,0,4.256-.9c2.5-1.28,2.944-2.592,2.944-5.632v-14.56h-2.944l-.288,1.6a5.971,5.971,0,0,0-4.48-1.92,6.5,6.5,0,0,0-3.584.992,7.62,7.62,0,0,0-3.424,6.624,7.927,7.927,0,0,0,.928,3.84,6.778,6.778,0,0,0,6.08,3.744,6.14,6.14,0,0,0,4.864-2.368V.192c0,2.336-1.376,3.424-4.448,3.424a7.38,7.38,0,0,1-2.432-.352A8.925,8.925,0,0,1,298.3,1.6l-1.792,2.592a9.983,9.983,0,0,0,3.168,2.016A10.944,10.944,0,0,0,303.3,6.72Z" transform="translate(697.616 -13676.047)"/>
    <path id="Path_15119" data-name="Path 15119" d="M8.8-18.624c5.28,0,8.416,2.848,8.416,7.68,0,4.768-3.168,7.68-8.416,7.68H6.624v-15.36ZM8.64,0a14.816,14.816,0,0,0,6.5-1.344c3.68-1.76,5.728-5.152,5.728-9.6A11.056,11.056,0,0,0,19.392-16.8c-2.016-3.328-5.76-5.12-10.752-5.12H3.072V0ZM27.52-8.736A3.844,3.844,0,0,1,31.1-11.648a3.887,3.887,0,0,1,3.648,2.912ZM38.144-5.728a10.852,10.852,0,0,0,.128-1.44,7.738,7.738,0,0,0-.96-3.808A7,7,0,0,0,31.1-14.688a6.758,6.758,0,0,0-3.616.992,7.535,7.535,0,0,0-3.552,6.528,7.467,7.467,0,0,0,.992,3.776A7.457,7.457,0,0,0,31.424.32,9.282,9.282,0,0,0,37.7-2.048l-2.08-2.3A6.031,6.031,0,0,1,31.392-2.72a4.12,4.12,0,0,1-3.9-3.008Zm2.3,3.712A8.742,8.742,0,0,0,46.272.32c3.232,0,5.44-1.76,5.44-4.48,0-2.272-1.44-3.68-4.352-4.544a8.853,8.853,0,0,1-2.368-.928,1.074,1.074,0,0,1-.544-.928c0-.768.64-1.28,1.824-1.28a5.12,5.12,0,0,1,3.328,1.5L51.36-12.8A7.754,7.754,0,0,0,46.3-14.688c-2.944,0-5.056,1.632-5.056,4.16,0,2.4,1.376,3.712,4.672,4.7a9.594,9.594,0,0,1,2.144.832,1.121,1.121,0,0,1,.448.9c0,.9-.832,1.536-2.24,1.536A5.637,5.637,0,0,1,42.24-4.512ZM55.264,0h3.392V-14.56H55.264ZM55.04-18.752a2.072,2.072,0,0,0,1.888,2.176,2.074,2.074,0,0,0,1.92-2.176,2.074,2.074,0,0,0-1.92-2.176A2.072,2.072,0,0,0,55.04-18.752Zm14.976,7.2a4,4,0,0,1,2.08.576,4.489,4.489,0,0,1,1.984,3.9A4.677,4.677,0,0,1,73.536-4.8a3.921,3.921,0,0,1-3.52,2.176A3.761,3.761,0,0,1,67.968-3.2a4.387,4.387,0,0,1-2.016-3.872,4.9,4.9,0,0,1,.544-2.3A3.921,3.921,0,0,1,70.016-11.552ZM70.08,6.72a9.278,9.278,0,0,0,4.256-.9c2.5-1.28,2.944-2.592,2.944-5.632v-14.56H74.336l-.288,1.6a5.97,5.97,0,0,0-4.48-1.92,6.5,6.5,0,0,0-3.584.992A7.62,7.62,0,0,0,62.56-7.072a7.927,7.927,0,0,0,.928,3.84A6.778,6.778,0,0,0,69.568.512a6.14,6.14,0,0,0,4.864-2.368V.192c0,2.336-1.376,3.424-4.448,3.424a7.38,7.38,0,0,1-2.432-.352A8.925,8.925,0,0,1,65.088,1.6L63.3,4.192a9.983,9.983,0,0,0,3.168,2.016A10.944,10.944,0,0,0,70.08,6.72ZM91.936,0h3.392V-8.384c0-3.936-2.08-6.3-5.568-6.3a5.954,5.954,0,0,0-4.32,2.048l-.32-1.728H82.176V0h3.392V-9.216a4.306,4.306,0,0,1,3.52-2.3c1.792,0,2.848,1.28,2.848,3.488ZM107.68-5.216A10.544,10.544,0,0,0,117.12.32a11.3,11.3,0,0,0,8.224-3.808l-2.336-2.5a7.644,7.644,0,0,1-5.888,2.976,6.87,6.87,0,0,1-3.68-1.056,7.8,7.8,0,0,1-3.552-6.88,8.689,8.689,0,0,1,.96-4.1,6.938,6.938,0,0,1,6.272-3.872,7.817,7.817,0,0,1,5.664,2.656l2.24-2.432a10.725,10.725,0,0,0-7.9-3.552,10.517,10.517,0,0,0-5.568,1.472,11.193,11.193,0,0,0-5.312,9.824A11.624,11.624,0,0,0,107.68-5.216Zm27.328-6.368a3.762,3.762,0,0,1,2.08.576,4.339,4.339,0,0,1,1.984,3.84,4.732,4.732,0,0,1-.544,2.24,3.891,3.891,0,0,1-3.52,2.144,3.807,3.807,0,0,1-2.048-.576,4.278,4.278,0,0,1-2.016-3.808,4.441,4.441,0,0,1,.576-2.272A3.844,3.844,0,0,1,135.008-11.584Zm0,11.9a7.6,7.6,0,0,0,3.808-.992,7.252,7.252,0,0,0,3.648-6.5,7.808,7.808,0,0,0-.96-3.872,7.252,7.252,0,0,0-6.5-3.648,7.565,7.565,0,0,0-3.808.96,7.355,7.355,0,0,0-3.648,6.56,7.6,7.6,0,0,0,.992,3.808A7.228,7.228,0,0,0,135.008.32ZM156.192,0h3.392V-8.384c0-3.936-2.08-6.3-5.568-6.3a5.954,5.954,0,0,0-4.32,2.048l-.32-1.728h-2.944V0h3.392V-9.216a4.306,4.306,0,0,1,3.52-2.3c1.792,0,2.848,1.28,2.848,3.488Zm6.624-2.016A8.742,8.742,0,0,0,168.64.32c3.232,0,5.44-1.76,5.44-4.48,0-2.272-1.44-3.68-4.352-4.544a8.854,8.854,0,0,1-2.368-.928,1.074,1.074,0,0,1-.544-.928c0-.768.64-1.28,1.824-1.28a5.12,5.12,0,0,1,3.328,1.5l1.76-2.464a7.754,7.754,0,0,0-5.056-1.888c-2.944,0-5.056,1.632-5.056,4.16,0,2.4,1.376,3.712,4.672,4.7a9.594,9.594,0,0,1,2.144.832,1.121,1.121,0,0,1,.448.9c0,.9-.832,1.536-2.24,1.536a5.637,5.637,0,0,1-4.032-1.952ZM187.072,0H190.5V-14.368h-3.424v9.344a4.05,4.05,0,0,1-3.36,2.176c-1.76,0-2.72-1.152-2.72-3.232v-8.288H177.6V-5.76c0,3.808,1.984,6.08,5.408,6.08a5.832,5.832,0,0,0,4.1-1.76Zm8.192,0h3.392V-22.56h-3.392Zm9.344-14.5-3.008.16v2.912h2.848v6.368c0,3.328,1.856,5.376,4.832,5.376a5.869,5.869,0,0,0,4.288-1.952l-1.76-2.432A3.367,3.367,0,0,1,209.6-2.848c-1.056,0-1.76-.8-1.76-2.24v-6.336h4.7V-14.5h-4.7v-3.968h-2.88ZM216.48,0h3.392V-14.56H216.48Zm-.224-18.752a2.072,2.072,0,0,0,1.888,2.176,2.074,2.074,0,0,0,1.92-2.176,2.074,2.074,0,0,0-1.92-2.176A2.072,2.072,0,0,0,216.256-18.752ZM234.368,0h3.392V-8.384c0-3.936-2.08-6.3-5.568-6.3a5.954,5.954,0,0,0-4.32,2.048l-.32-1.728h-2.944V0H228V-9.216a4.306,4.306,0,0,1,3.52-2.3c1.792,0,2.848,1.28,2.848,3.488ZM249.12-11.552a4,4,0,0,1,2.08.576,4.489,4.489,0,0,1,1.984,3.9A4.677,4.677,0,0,1,252.64-4.8a3.921,3.921,0,0,1-3.52,2.176,3.761,3.761,0,0,1-2.048-.576,4.387,4.387,0,0,1-2.016-3.872,4.9,4.9,0,0,1,.544-2.3A3.921,3.921,0,0,1,249.12-11.552Zm.064,18.272a9.278,9.278,0,0,0,4.256-.9c2.5-1.28,2.944-2.592,2.944-5.632v-14.56H253.44l-.288,1.6a5.97,5.97,0,0,0-4.48-1.92,6.5,6.5,0,0,0-3.584.992,7.62,7.62,0,0,0-3.424,6.624,7.927,7.927,0,0,0,.928,3.84,6.778,6.778,0,0,0,6.08,3.744,6.14,6.14,0,0,0,4.864-2.368V.192c0,2.336-1.376,3.424-4.448,3.424a7.38,7.38,0,0,1-2.432-.352A8.925,8.925,0,0,1,244.192,1.6L242.4,4.192a9.983,9.983,0,0,0,3.168,2.016A10.944,10.944,0,0,0,249.184,6.72Z" transform="translate(1240.616 -13676.047)"/>
    <path id="Path_15120" data-name="Path 15120" d="M2.752,0h3.52V-21.92H2.752ZM30.976,0h3.456V-8.384c0-3.936-2.048-6.3-5.5-6.3a6.587,6.587,0,0,0-4.96,2.528,5.268,5.268,0,0,0-4.7-2.528,5.838,5.838,0,0,0-4.256,2.016l-.32-1.7H11.68V0h3.456V-9.216a4.142,4.142,0,0,1,3.424-2.336c1.76,0,2.784,1.216,2.784,3.52V0h3.424V-8.928c.992-1.76,2.112-2.624,3.424-2.624,1.76,0,2.784,1.216,2.784,3.52ZM46.432-11.552a4,4,0,0,1,2.08.576A4.432,4.432,0,0,1,50.5-7.1a4.862,4.862,0,0,1-.544,2.272,3.951,3.951,0,0,1-3.52,2.208A3.761,3.761,0,0,1,44.384-3.2a4.513,4.513,0,0,1-2.016-3.9,5.065,5.065,0,0,1,.544-2.272A3.886,3.886,0,0,1,46.432-11.552ZM46.88.512A6.84,6.84,0,0,0,50.464-.512,7.526,7.526,0,0,0,53.888-7.1a7.953,7.953,0,0,0-.9-3.872,6.761,6.761,0,0,0-6.112-3.712,5.97,5.97,0,0,0-4.48,1.92l-.288-1.6H39.168V6.4H42.56V-1.248A5.866,5.866,0,0,0,46.88.512Zm17.408-12.1a3.762,3.762,0,0,1,2.08.576,4.376,4.376,0,0,1,1.984,3.84,4.551,4.551,0,0,1-.544,2.24,3.891,3.891,0,0,1-3.52,2.144A3.807,3.807,0,0,1,62.24-3.36a4.278,4.278,0,0,1-2.016-3.808,4.861,4.861,0,0,1,.544-2.272A3.891,3.891,0,0,1,64.288-11.584ZM68.224,0h3.328V-14.368H68.608l-.288,1.6a5.97,5.97,0,0,0-4.48-1.92,6.831,6.831,0,0,0-3.584.96,7.548,7.548,0,0,0-3.424,6.56A7.89,7.89,0,0,0,57.76-3.36,6.719,6.719,0,0,0,63.84.32a6.115,6.115,0,0,0,4.384-1.792Zm8.288-3.36A7.142,7.142,0,0,0,82.944.32a7.859,7.859,0,0,0,5.824-2.592L86.56-4.544a5.05,5.05,0,0,1-3.616,1.76A3.807,3.807,0,0,1,80.9-3.36a4.321,4.321,0,0,1-1.984-3.808,4.862,4.862,0,0,1,.544-2.272,3.844,3.844,0,0,1,3.488-2.144,4.88,4.88,0,0,1,3.328,1.5l2.208-2.3a8.056,8.056,0,0,0-5.536-2.3,7.281,7.281,0,0,0-3.776.96,7.355,7.355,0,0,0-3.648,6.56A7.6,7.6,0,0,0,76.512-3.36ZM93.152-14.5l-3.008.16v2.912h2.848v6.368c0,3.328,1.856,5.376,4.832,5.376a5.869,5.869,0,0,0,4.288-1.952l-1.76-2.432a3.367,3.367,0,0,1-2.208,1.216c-1.056,0-1.76-.8-1.76-2.24v-6.336h4.7V-14.5h-4.7v-3.968H93.5Z" transform="translate(1064.616 -13397.047)"/>
    <path id="Path_15121" data-name="Path 15121" d="M9.5.32a8.02,8.02,0,0,0,3.648-.832A6.215,6.215,0,0,0,16.7-6.08c0-3.072-1.792-4.96-5.92-6.336a13.618,13.618,0,0,1-4.192-1.92,2.421,2.421,0,0,1-.9-1.888c0-1.7,1.312-2.784,3.52-2.784,1.632,0,3.072.7,4.9,2.4l2.08-2.464A9.726,9.726,0,0,0,9.184-22.24a8.493,8.493,0,0,0-3.552.736A5.785,5.785,0,0,0,2.24-16.16a5.6,5.6,0,0,0,.608,2.784c.864,1.568,2.72,2.784,6.08,3.9a11.674,11.674,0,0,1,3.488,1.664,2.313,2.313,0,0,1,.8,1.824c0,1.792-1.5,3.1-3.712,3.1-2.4,0-4.288-.928-6.3-3.1L1.152-3.456A11.074,11.074,0,0,0,9.5.32ZM21.824-14.5l-3.008.16v2.912h2.848v6.368C21.664-1.728,23.52.32,26.5.32a5.869,5.869,0,0,0,4.288-1.952l-1.76-2.432a3.367,3.367,0,0,1-2.208,1.216c-1.056,0-1.76-.8-1.76-2.24v-6.336h4.7V-14.5h-4.7v-3.968h-2.88Zm18.784,3.36a3.451,3.451,0,0,1,1.248.288l.032-3.3a.853.853,0,0,0-.416-.16h-.1l-.256.032a5.307,5.307,0,0,0-3.9,1.5v-1.6h-3.3V0h3.3V-9.216A4,4,0,0,1,40.608-11.136Zm11.2-.448a3.762,3.762,0,0,1,2.08.576,4.376,4.376,0,0,1,1.984,3.84,4.551,4.551,0,0,1-.544,2.24,3.891,3.891,0,0,1-3.52,2.144A3.807,3.807,0,0,1,49.76-3.36a4.278,4.278,0,0,1-2.016-3.808,4.861,4.861,0,0,1,.544-2.272A3.891,3.891,0,0,1,51.808-11.584ZM55.744,0h3.328V-14.368H56.128l-.288,1.6a5.97,5.97,0,0,0-4.48-1.92,6.831,6.831,0,0,0-3.584.96,7.548,7.548,0,0,0-3.424,6.56A7.89,7.89,0,0,0,45.28-3.36,6.719,6.719,0,0,0,51.36.32a6.115,6.115,0,0,0,4.384-1.792ZM65.28-14.5l-3.008.16v2.912H65.12v6.368C65.12-1.728,66.976.32,69.952.32A5.869,5.869,0,0,0,74.24-1.632L72.48-4.064a3.367,3.367,0,0,1-2.208,1.216c-1.056,0-1.76-.8-1.76-2.24v-6.336h4.7V-14.5h-4.7v-3.968h-2.88ZM79.9-8.736a3.844,3.844,0,0,1,3.584-2.912,3.887,3.887,0,0,1,3.648,2.912ZM90.528-5.728a10.852,10.852,0,0,0,.128-1.44,7.738,7.738,0,0,0-.96-3.808,7,7,0,0,0-6.208-3.712,6.758,6.758,0,0,0-3.616.992A7.535,7.535,0,0,0,76.32-7.168a7.467,7.467,0,0,0,.992,3.776A7.457,7.457,0,0,0,83.808.32,9.282,9.282,0,0,0,90.08-2.048L88-4.352A6.031,6.031,0,0,1,83.776-2.72a4.12,4.12,0,0,1-3.9-3.008Zm10.432-5.824a4,4,0,0,1,2.08.576,4.489,4.489,0,0,1,1.984,3.9A4.677,4.677,0,0,1,104.48-4.8a3.921,3.921,0,0,1-3.52,2.176A3.761,3.761,0,0,1,98.912-3.2,4.387,4.387,0,0,1,96.9-7.072a4.9,4.9,0,0,1,.544-2.3A3.921,3.921,0,0,1,100.96-11.552Zm.064,18.272a9.278,9.278,0,0,0,4.256-.9c2.5-1.28,2.944-2.592,2.944-5.632v-14.56H105.28l-.288,1.6a5.97,5.97,0,0,0-4.48-1.92,6.5,6.5,0,0,0-3.584.992A7.62,7.62,0,0,0,93.5-7.072a7.927,7.927,0,0,0,.928,3.84,6.778,6.778,0,0,0,6.08,3.744,6.14,6.14,0,0,0,4.864-2.368V.192c0,2.336-1.376,3.424-4.448,3.424A7.38,7.38,0,0,1,98.5,3.264,8.925,8.925,0,0,1,96.032,1.6L94.24,4.192a9.983,9.983,0,0,0,3.168,2.016A10.944,10.944,0,0,0,101.024,6.72Zm18.016,0a8.348,8.348,0,0,0,3.9-.9,5.69,5.69,0,0,0,2.688-4V-14.368h-3.424V-4.9a4.091,4.091,0,0,1-3.36,2.208c-1.76,0-2.72-1.152-2.72-3.3v-8.384h-3.392v8.736c0,3.84,1.984,6.144,5.408,6.144a5.107,5.107,0,0,0,4.416-1.92c.032.288.032.7.032,1.216-.032,2.464-.544,3.3-1.568,3.52a14.933,14.933,0,0,1-2.784.32c-1.312.064-2.144-.32-3.936-1.728L112.64,4.544A8.836,8.836,0,0,0,119.04,6.72ZM138.4-5.216A10.544,10.544,0,0,0,147.84.32a11.3,11.3,0,0,0,8.224-3.808l-2.336-2.5a7.644,7.644,0,0,1-5.888,2.976,6.87,6.87,0,0,1-3.68-1.056,7.8,7.8,0,0,1-3.552-6.88,8.689,8.689,0,0,1,.96-4.1,6.938,6.938,0,0,1,6.272-3.872,7.817,7.817,0,0,1,5.664,2.656l2.24-2.432a10.725,10.725,0,0,0-7.9-3.552,10.517,10.517,0,0,0-5.568,1.472,11.193,11.193,0,0,0-5.312,9.824A11.624,11.624,0,0,0,138.4-5.216Zm27.328-6.368a3.762,3.762,0,0,1,2.08.576,4.339,4.339,0,0,1,1.984,3.84,4.732,4.732,0,0,1-.544,2.24,3.891,3.891,0,0,1-3.52,2.144,3.807,3.807,0,0,1-2.048-.576,4.278,4.278,0,0,1-2.016-3.808,4.441,4.441,0,0,1,.576-2.272A3.844,3.844,0,0,1,165.728-11.584Zm0,11.9a7.6,7.6,0,0,0,3.808-.992,7.252,7.252,0,0,0,3.648-6.5,7.808,7.808,0,0,0-.96-3.872,7.252,7.252,0,0,0-6.5-3.648,7.565,7.565,0,0,0-3.808.96,7.355,7.355,0,0,0-3.648,6.56,7.6,7.6,0,0,0,.992,3.808A7.228,7.228,0,0,0,165.728.32ZM186.912,0H190.3V-8.384c0-3.936-2.08-6.3-5.568-6.3a5.954,5.954,0,0,0-4.32,2.048l-.32-1.728h-2.944V0h3.392V-9.216a4.306,4.306,0,0,1,3.52-2.3c1.792,0,2.848,1.28,2.848,3.488Zm6.624-2.016A8.742,8.742,0,0,0,199.36.32c3.232,0,5.44-1.76,5.44-4.48,0-2.272-1.44-3.68-4.352-4.544a8.854,8.854,0,0,1-2.368-.928,1.074,1.074,0,0,1-.544-.928c0-.768.64-1.28,1.824-1.28a5.12,5.12,0,0,1,3.328,1.5l1.76-2.464a7.754,7.754,0,0,0-5.056-1.888c-2.944,0-5.056,1.632-5.056,4.16,0,2.4,1.376,3.712,4.672,4.7a9.594,9.594,0,0,1,2.144.832,1.121,1.121,0,0,1,.448.9c0,.9-.832,1.536-2.24,1.536a5.637,5.637,0,0,1-4.032-1.952ZM217.792,0h3.424V-14.368h-3.424v9.344a4.05,4.05,0,0,1-3.36,2.176c-1.76,0-2.72-1.152-2.72-3.232v-8.288H208.32V-5.76c0,3.808,1.984,6.08,5.408,6.08a5.832,5.832,0,0,0,4.1-1.76Zm8.192,0h3.392V-22.56h-3.392Zm9.344-14.5-3.008.16v2.912h2.848v6.368c0,3.328,1.856,5.376,4.832,5.376a5.869,5.869,0,0,0,4.288-1.952l-1.76-2.432a3.367,3.367,0,0,1-2.208,1.216c-1.056,0-1.76-.8-1.76-2.24v-6.336h4.7V-14.5h-4.7v-3.968h-2.88ZM247.2,0h3.392V-14.56H247.2Zm-.224-18.752a2.072,2.072,0,0,0,1.888,2.176,2.074,2.074,0,0,0,1.92-2.176,2.074,2.074,0,0,0-1.92-2.176A2.072,2.072,0,0,0,246.976-18.752ZM265.088,0h3.392V-8.384c0-3.936-2.08-6.3-5.568-6.3a5.954,5.954,0,0,0-4.32,2.048l-.32-1.728h-2.944V0h3.392V-9.216a4.306,4.306,0,0,1,3.52-2.3c1.792,0,2.848,1.28,2.848,3.488ZM279.84-11.552a4,4,0,0,1,2.08.576,4.489,4.489,0,0,1,1.984,3.9A4.677,4.677,0,0,1,283.36-4.8a3.921,3.921,0,0,1-3.52,2.176,3.761,3.761,0,0,1-2.048-.576,4.387,4.387,0,0,1-2.016-3.872,4.9,4.9,0,0,1,.544-2.3A3.921,3.921,0,0,1,279.84-11.552ZM279.9,6.72a9.278,9.278,0,0,0,4.256-.9c2.5-1.28,2.944-2.592,2.944-5.632v-14.56H284.16l-.288,1.6a5.971,5.971,0,0,0-4.48-1.92,6.5,6.5,0,0,0-3.584.992,7.62,7.62,0,0,0-3.424,6.624,7.927,7.927,0,0,0,.928,3.84,6.778,6.778,0,0,0,6.08,3.744,6.14,6.14,0,0,0,4.864-2.368V.192c0,2.336-1.376,3.424-4.448,3.424a7.38,7.38,0,0,1-2.432-.352A8.925,8.925,0,0,1,274.912,1.6L273.12,4.192a9.983,9.983,0,0,0,3.168,2.016A10.944,10.944,0,0,0,279.9,6.72Z" transform="translate(966.616 -13028.047)"/>
  </g>
</svg>
