<svg xmlns="http://www.w3.org/2000/svg" width="105.743" height="48.686" viewBox="0 0 105.743 48.686">
    <path id="Path_5857" data-name="Path 5857" d="M99.97,36.268,79.085,57.155V1.282a1.282,1.282,0,1,0-2.564,0V57.155L55.636,36.268a1.282,1.282,0,0,0-1.813,1.813L76.9,61.154a1.282,1.282,0,0,0,1.813,0l0,0L101.788,38.08a1.282,1.282,0,0,0-1.813-1.813Z" transform="translate(-0.019 -323.668)" fill="#141639"/>
    <path id="Path_5858" data-name="Path 5858" d="M77.784,324.429a1.281,1.281,0,0,1-.908-.374L53.8,300.98a1.282,1.282,0,0,1,1.813-1.813l22.169,22.167,22.167-22.167a1.282,1.282,0,0,1,1.813,1.813L78.689,324.054A1.282,1.282,0,0,1,77.784,324.429Z" transform="translate(0 -586.565)" fill="#141639"/>
    <path id="Path_5859" data-name="Path 5859" d="M246.6-262.137a1.282,1.282,0,0,1-1.282-1.282V-366.6a1.282,1.282,0,0,1,1.282-1.282,1.282,1.282,0,0,1,1.282,1.282v103.179A1.282,1.282,0,0,1,246.6-262.137Z" transform="translate(-168.82)" fill="#141639"/>
 
</svg>
