<svg xmlns="http://www.w3.org/2000/svg" width="898.38" height="520.196" viewBox="0 0 898.38 520.196">
  <g id="Group_1431" data-name="Group 1431" transform="translate(-4789 -1747)">
    <g id="Group_1410" data-name="Group 1410" transform="translate(5058.4 2188.588)">
      <circle id="Ellipse_216" data-name="Ellipse 216" cx="3.513" cy="3.513" r="3.513" transform="translate(0 0)" fill="#333"/>
      <circle id="Ellipse_217" data-name="Ellipse 217" cx="3.513" cy="3.513" r="3.513" transform="translate(29.986 0)" fill="#333"/>
      <circle id="Ellipse_218" data-name="Ellipse 218" cx="3.513" cy="3.513" r="3.513" transform="translate(59.972 0)" fill="#333"/>
      <circle id="Ellipse_219" data-name="Ellipse 219" cx="3.513" cy="3.513" r="3.513" transform="translate(0 27.416)" fill="#333"/>
      <circle id="Ellipse_220" data-name="Ellipse 220" cx="3.513" cy="3.513" r="3.513" transform="translate(29.986 27.416)" fill="#333"/>
      <circle id="Ellipse_221" data-name="Ellipse 221" cx="3.513" cy="3.513" r="3.513" transform="translate(59.972 27.416)" fill="#333"/>
      <circle id="Ellipse_222" data-name="Ellipse 222" cx="3.513" cy="3.513" r="3.513" transform="translate(0 54.832)" fill="#333"/>
      <circle id="Ellipse_223" data-name="Ellipse 223" cx="3.513" cy="3.513" r="3.513" transform="translate(29.986 54.832)" fill="#333"/>
      <circle id="Ellipse_224" data-name="Ellipse 224" cx="3.513" cy="3.513" r="3.513" transform="translate(59.972 54.832)" fill="#333"/>
    </g>
    <g id="Group_1411" data-name="Group 1411" transform="translate(4796.806 1766.58)">
      <path id="Path_2023" data-name="Path 2023" d="M0,15.464C5.117,17.232,6.078,23.5,12.827,23.5c7.864,0,7.864-8.5,15.728-8.5s7.864,8.5,15.728,8.5c7.847,0,7.847-8.5,15.711-8.5s7.864,8.5,15.728,8.5S83.588,15,91.469,15" transform="translate(0 -15)" fill="none" stroke="#333" stroke-miterlimit="10" stroke-width="2"/>
      <path id="Path_2024" data-name="Path 2024" d="M0,25.924c5.117,1.769,6.078,8.019,12.827,8.019,7.864,0,7.864-8.482,15.728-8.482s7.864,8.482,15.728,8.482c7.847,0,7.847-8.482,15.711-8.482s7.864,8.482,15.728,8.482,7.864-8.482,15.746-8.482" transform="translate(0 -7.499)" fill="none" stroke="#333" stroke-miterlimit="10" stroke-width="2"/>
    </g>
    <g id="Group_1412" data-name="Group 1412" transform="translate(5561.547 2219.517)">
      <circle id="Ellipse_225" data-name="Ellipse 225" cx="2.395" cy="2.395" r="2.395" transform="translate(0 0)" fill="#777"/>
      <circle id="Ellipse_226" data-name="Ellipse 226" cx="2.395" cy="2.395" r="2.395" transform="translate(12.104 0)" fill="#777"/>
      <circle id="Ellipse_227" data-name="Ellipse 227" cx="2.395" cy="2.395" r="2.395" transform="translate(24.209 0)" fill="#777"/>
      <circle id="Ellipse_228" data-name="Ellipse 228" cx="2.395" cy="2.395" r="2.395" transform="translate(36.313 0)" fill="#777"/>
      <circle id="Ellipse_229" data-name="Ellipse 229" cx="2.395" cy="2.395" r="2.395" transform="translate(48.418 0)" fill="#777"/>
      <circle id="Ellipse_230" data-name="Ellipse 230" cx="2.395" cy="2.395" r="2.395" transform="translate(60.522 0)" fill="#777"/>
      <circle id="Ellipse_231" data-name="Ellipse 231" cx="2.395" cy="2.395" r="2.395" transform="translate(72.626 0)" fill="#777"/>
      <circle id="Ellipse_232" data-name="Ellipse 232" cx="2.395" cy="2.395" r="2.395" transform="translate(84.731 0)" fill="#777"/>
      <circle id="Ellipse_233" data-name="Ellipse 233" cx="2.395" cy="2.395" r="2.395" transform="translate(96.835 0)" fill="#777"/>
      <circle id="Ellipse_234" data-name="Ellipse 234" cx="2.395" cy="2.395" r="2.395" transform="translate(108.94 0)" fill="#777"/>
      <circle id="Ellipse_235" data-name="Ellipse 235" cx="2.395" cy="2.395" r="2.395" transform="translate(121.044 0)" fill="#777"/>
    </g>
    <circle id="Ellipse_236" data-name="Ellipse 236" cx="10.248" cy="10.248" r="10.248" transform="translate(5413.647 1762.953)" fill="none" stroke="#333" stroke-miterlimit="10" stroke-width="2"/>
    <circle id="Ellipse_237" data-name="Ellipse 237" cx="10.248" cy="10.248" r="10.248" transform="translate(5332.701 2245.7)" fill="none" stroke="#333" stroke-miterlimit="10" stroke-width="2"/>
    <circle id="Ellipse_238" data-name="Ellipse 238" cx="10.248" cy="10.248" r="10.248" transform="translate(4790 2114.833)" fill="none" stroke="#333" stroke-miterlimit="10" stroke-width="2"/>
    <path id="Path_2025" data-name="Path 2025" d="M87.92,14.574a2.367,2.367,0,0,1,0,3.341,2.35,2.35,0,0,1-3.335,0L81.11,14.44l-3.477,3.475a2.363,2.363,0,0,1-3.341-3.341L77.767,11.1,74.291,7.622a2.36,2.36,0,0,1,3.341-3.335L81.11,7.763l3.475-3.475a2.359,2.359,0,0,1,3.335,0,2.355,2.355,0,0,1,0,3.335L84.444,11.1Z" transform="translate(4849.583 1743.403)" fill="#333"/>
    <g id="Group_1413" data-name="Group 1413" transform="translate(5213.882 2158.683)">
      <path id="Path_2026" data-name="Path 2026" d="M260.247,246.19v14.518H245.728v-4.87h9.658V246.19Z" transform="translate(-240.867 -241.321)" fill="#333"/>
      <path id="Path_2027" data-name="Path 2027" d="M257.416,248.224v-4.87H242.9v14.518h4.861" transform="translate(-242.897 -243.354)" fill="none" stroke="#333" stroke-miterlimit="10" stroke-width="1"/>
    </g>
    <g id="Group_1414" data-name="Group 1414" transform="translate(4862.14 1848.067)">
      <path id="Path_2028" data-name="Path 2028" d="M76.027,62.457s.407,11.8,12.212,22.183l-32.97,29.305s-18.927-16.688-17.1-26.864Z" transform="translate(-38.049 -62.457)" fill="none" stroke="#333" stroke-miterlimit="10" stroke-width="2"/>
      <path id="Path_2029" data-name="Path 2029" d="M82.56,73.6s3.256,20.76-15.874,26.661c0,0,6.92,11.8,28.7,11.8,0,0,14.856-18.519,9.566-42.738C104.948,69.331,99.249,73.6,82.56,73.6Z" transform="translate(-17.514 -57.528)" fill="none" stroke="#333" stroke-miterlimit="10" stroke-width="2"/>
      <path id="Path_2030" data-name="Path 2030" d="M85.577,104.011C98.477,90.623,99.542,72.4,99.542,72.4a19.126,19.126,0,0,1-7.291,0" transform="translate(-3.968 -55.329)" fill="none" stroke="#333" stroke-miterlimit="10" stroke-width="2"/>
      <path id="Path_2031" data-name="Path 2031" d="M75.665,99.865l7.758-8.572s8.414,3.07,14.128-7.356" transform="translate(-11.076 -47.054)" fill="none" stroke="#333" stroke-miterlimit="10" stroke-width="2"/>
    </g>
    <path id="Path_2032" data-name="Path 2032" d="M44.935,277.2s14.415-27.688,39.525-13.376c10.095,5.754,16.568,15.7,27.2,22.325,20.753,12.928,41.239,6.12,72.78-6.015C224.657,264.665,265.6,239.5,288.493,215c12.3-13.163,58.728-62.479,103.619-165.606" transform="translate(4829.029 1776.242)" fill="none" stroke="#333" stroke-miterlimit="10" stroke-width="2"/>
    <g id="Group_1430" data-name="Group 1430" transform="translate(4891.332 2116.54)">
      <g id="Group_1418" data-name="Group 1418" transform="translate(0 0)">
        <path id="Path_2033" data-name="Path 2033" d="M126.881,258.824a16.442,16.442,0,0,0-.853-1.736,21.409,21.409,0,0,0-2.68-3.731,23.41,23.41,0,0,0-13.069-7.342.741.741,0,0,0-.366.031l-4.006,1.386v-27.92a.709.709,0,0,0-.7-.7H97.788a.714.714,0,0,0-.716.7,3,3,0,1,1-6,0,.711.711,0,0,0-.7-.7H55.751a.7.7,0,0,0-.7.7v17.3a.7.7,0,0,0,.7.716,4.242,4.242,0,0,1,0,8.484.689.689,0,0,0-.7.7v22.253a.7.7,0,0,0,.7.7H74.286a4.242,4.242,0,1,1,0,8.484.708.708,0,0,0-.7.7v4.95a.708.708,0,0,0,.7.7h30.919a.708.708,0,0,0,.7-.7,1.767,1.767,0,0,1,3.534,0,.709.709,0,0,0,.7.7h16.086a.709.709,0,0,0,.7-.7V259.068A.758.758,0,0,0,126.881,258.824Zm-20.974-9.535v-.38l4.281-1.478.153.031a21.7,21.7,0,0,1,11.88,6.748,19.791,19.791,0,0,1,2.452,3.365l.472.792H78.49L97.85,251.7l.228.288a4.417,4.417,0,0,0,7.828-2.7Zm-31.848,9.125a.7.7,0,0,0-.472.654v9.2H56.451V247.387l.426-.093a5.553,5.553,0,0,0,3.58-2.406,5.631,5.631,0,0,0-3.58-8.652l-.426-.091V220.214H89.7l.106.395a4.41,4.41,0,0,0,8.546,0l.091-.395h6.046v28.969a3,3,0,0,1-5.68,1.341.709.709,0,0,0-.869-.35ZM125.51,283.1H110.8l-.122-.366a3.184,3.184,0,0,0-6,0l-.122.366H75v-3.565l.426-.091a5.652,5.652,0,0,0,0-11.073L75,268.284v-8.5H125.51Z" transform="translate(-55.05 -218.811)" fill="#333"/>
      </g>
      <g id="Group_1419" data-name="Group 1419" transform="translate(59.341 51.925)">
        <path id="Path_2034" data-name="Path 2034" d="M94.027,249.051a4.409,4.409,0,1,0,4.4,4.416A4.42,4.42,0,0,0,94.027,249.051Zm0,7.418a3.008,3.008,0,1,1,0-6.017,2.981,2.981,0,0,1,2.117.884,3.005,3.005,0,0,1-2.117,5.132Z" transform="translate(-89.609 -249.051)" fill="#333"/>
      </g>
      <g id="Group_1420" data-name="Group 1420" transform="translate(27.188 44.507)">
        <path id="Path_2035" data-name="Path 2035" d="M75.3,244.731a4.409,4.409,0,1,0,4.418,4.418A4.42,4.42,0,0,0,75.3,244.731Zm0,7.418a3.008,3.008,0,0,1,0-6.017,2.924,2.924,0,0,1,2.117.884,3,3,0,0,1-2.117,5.132Z" transform="translate(-70.884 -244.731)" fill="#333"/>
      </g>
      <g id="Group_1421" data-name="Group 1421" transform="translate(9.885 7.418)">
        <path id="Path_2036" data-name="Path 2036" d="M65.223,223.131a4.409,4.409,0,1,0,4.418,4.4A4.421,4.421,0,0,0,65.223,223.131Zm0,7.418a3.008,3.008,0,1,1,3-3A3.018,3.018,0,0,1,65.223,230.549Z" transform="translate(-60.807 -223.131)" fill="#333"/>
      </g>
      <g id="Group_1422" data-name="Group 1422" transform="translate(37.087 16.07)">
        <path id="Path_2037" data-name="Path 2037" d="M81.052,228.17a4.409,4.409,0,1,0,4.416,4.416A4.418,4.418,0,0,0,81.052,228.17Zm0,7.418a3.006,3.006,0,1,1,3.015-3A3.006,3.006,0,0,1,81.052,235.588Z" transform="translate(-76.649 -228.17)" fill="#333"/>
      </g>
      <g id="Group_1423" data-name="Group 1423" transform="translate(37.087 54.392)">
        <path id="Path_2038" data-name="Path 2038" d="M79.817,250.488A3.176,3.176,0,1,0,83,253.671,3.179,3.179,0,0,0,79.817,250.488Zm0,4.95a1.767,1.767,0,1,1,1.767-1.767A1.767,1.767,0,0,1,79.817,255.438Z" transform="translate(-76.649 -250.488)" fill="#333"/>
      </g>
      <g id="Group_1424" data-name="Group 1424" transform="translate(48.207 44.507)">
        <path id="Path_2039" data-name="Path 2039" d="M86.308,244.731a3.176,3.176,0,1,0,3.168,3.168A3.179,3.179,0,0,0,86.308,244.731Zm0,4.95a1.775,1.775,0,1,1,1.767-1.782A1.781,1.781,0,0,1,86.308,249.681Z" transform="translate(-83.125 -244.731)" fill="#333"/>
      </g>
      <g id="Group_1425" data-name="Group 1425" transform="translate(21.019 22.253)">
        <path id="Path_2040" data-name="Path 2040" d="M70.459,231.771a3.176,3.176,0,1,0,3.183,3.168A3.166,3.166,0,0,0,70.459,231.771Zm0,4.95a1.775,1.775,0,1,1,1.767-1.782A1.781,1.781,0,0,1,70.459,236.721Z" transform="translate(-67.291 -231.771)" fill="#333"/>
      </g>
      <g id="Group_1426" data-name="Group 1426" transform="translate(6.183 39.556)">
        <path id="Path_2041" data-name="Path 2041" d="M61.819,241.848A3.176,3.176,0,1,0,65,245.031,3.179,3.179,0,0,0,61.819,241.848Zm0,4.95a1.767,1.767,0,1,1,1.767-1.767A1.768,1.768,0,0,1,61.819,246.8Z" transform="translate(-58.651 -241.848)" fill="#333"/>
      </g>
      <g id="Group_1427" data-name="Group 1427" transform="translate(58.108 34.622)">
        <path id="Path_2042" data-name="Path 2042" d="M90.292,239.675a.708.708,0,0,1-.7.7.7.7,0,0,1-.7-.7.689.689,0,0,1,.7-.7A.7.7,0,0,1,90.292,239.675Z" transform="translate(-88.891 -238.974)" fill="#333"/>
      </g>
      <g id="Group_1428" data-name="Group 1428" transform="translate(11.118 28.438)">
        <path id="Path_2043" data-name="Path 2043" d="M62.942,236.074a.708.708,0,0,1-1.417,0,.708.708,0,0,1,1.417,0Z" transform="translate(-61.525 -235.373)" fill="#333"/>
      </g>
      <g id="Group_1429" data-name="Group 1429" transform="translate(32.137 8.652)">
        <path id="Path_2044" data-name="Path 2044" d="M75.183,224.551a.708.708,0,0,1-1.417,0,.708.708,0,0,1,1.417,0Z" transform="translate(-73.766 -223.85)" fill="#333"/>
      </g>
    </g>
  </g>
</svg>
