<svg xmlns="http://www.w3.org/2000/svg" width="1533.887" height="602" viewBox="0 0 1533.887 602">
  <g id="Group_7223" data-name="Group 7223" transform="translate(-4225.113 -7132)">
    <g id="Group_7222" data-name="Group 7222">
      <path id="Path_7413" data-name="Path 7413" d="M0,0H1533V602H0Z" transform="translate(4226 7132)" fill="none"/>
      <g id="Group_1410" data-name="Group 1410" transform="translate(4495.002 7614.85)">
        <circle id="Ellipse_216" data-name="Ellipse 216" cx="3.513" cy="3.513" r="3.513" transform="translate(0 0)" fill="#333"/>
        <circle id="Ellipse_217" data-name="Ellipse 217" cx="3.513" cy="3.513" r="3.513" transform="translate(29.986 0)" fill="#333"/>
        <circle id="Ellipse_218" data-name="Ellipse 218" cx="3.513" cy="3.513" r="3.513" transform="translate(59.972 0)" fill="#333"/>
        <circle id="Ellipse_219" data-name="Ellipse 219" cx="3.513" cy="3.513" r="3.513" transform="translate(0 27.416)" fill="#333"/>
        <circle id="Ellipse_220" data-name="Ellipse 220" cx="3.513" cy="3.513" r="3.513" transform="translate(29.986 27.416)" fill="#333"/>
        <circle id="Ellipse_221" data-name="Ellipse 221" cx="3.513" cy="3.513" r="3.513" transform="translate(59.972 27.416)" fill="#333"/>
        <circle id="Ellipse_222" data-name="Ellipse 222" cx="3.513" cy="3.513" r="3.513" transform="translate(0 54.832)" fill="#333"/>
        <circle id="Ellipse_223" data-name="Ellipse 223" cx="3.513" cy="3.513" r="3.513" transform="translate(29.986 54.832)" fill="#333"/>
        <circle id="Ellipse_224" data-name="Ellipse 224" cx="3.513" cy="3.513" r="3.513" transform="translate(59.972 54.832)" fill="#333"/>
      </g>
      <g id="Group_1411" data-name="Group 1411" transform="translate(4267.248 7193.842)">
        <path id="Path_2023" data-name="Path 2023" d="M0,15.464C5.117,17.232,6.078,23.5,12.827,23.5c7.864,0,7.864-8.5,15.728-8.5s7.864,8.5,15.728,8.5c7.847,0,7.847-8.5,15.711-8.5s7.864,8.5,15.728,8.5S83.588,15,91.469,15" transform="translate(0 -15)" fill="none" stroke="#333" stroke-miterlimit="10" stroke-width="2"/>
        <path id="Path_2024" data-name="Path 2024" d="M0,25.924c5.117,1.769,6.078,8.019,12.827,8.019,7.864,0,7.864-8.482,15.728-8.482s7.864,8.482,15.728,8.482c7.847,0,7.847-8.482,15.711-8.482s7.864,8.482,15.728,8.482,7.864-8.482,15.746-8.482" transform="translate(0 -7.499)" fill="none" stroke="#333" stroke-miterlimit="10" stroke-width="2"/>
      </g>
      <g id="Group_1411-2" data-name="Group 1411" transform="translate(5417.813 7180.842)">
        <path id="Path_2023-2" data-name="Path 2023" d="M0,15.464C5.117,17.232,6.078,23.5,12.827,23.5c7.864,0,7.864-8.5,15.728-8.5s7.864,8.5,15.728,8.5c7.847,0,7.847-8.5,15.711-8.5s7.864,8.5,15.728,8.5S83.588,15,91.469,15" transform="translate(0 -15)" fill="none" stroke="#333" stroke-miterlimit="10" stroke-width="2"/>
        <path id="Path_2024-2" data-name="Path 2024" d="M0,25.924c5.117,1.769,6.078,8.019,12.827,8.019,7.864,0,7.864-8.482,15.728-8.482s7.864,8.482,15.728,8.482c7.847,0,7.847-8.482,15.711-8.482s7.864,8.482,15.728,8.482,7.864-8.482,15.746-8.482" transform="translate(0 -7.499)" fill="none" stroke="#333" stroke-miterlimit="10" stroke-width="2"/>
      </g>
      <circle id="Ellipse_236" data-name="Ellipse 236" cx="10.248" cy="10.248" r="10.248" transform="translate(4880.647 7148.215)" fill="none" stroke="#333" stroke-miterlimit="10" stroke-width="2"/>
      <circle id="Ellipse_237" data-name="Ellipse 237" cx="10.248" cy="10.248" r="10.248" transform="translate(4799.701 7630.962)" fill="none" stroke="#333" stroke-miterlimit="10" stroke-width="2"/>
      <circle id="Ellipse_238" data-name="Ellipse 238" cx="10.248" cy="10.248" r="10.248" transform="translate(4257 7500.095)" fill="none" stroke="#333" stroke-miterlimit="10" stroke-width="2"/>
      <circle id="Ellipse_238-2" data-name="Ellipse 238" cx="10.248" cy="10.248" r="10.248" transform="translate(4518.253 7285.752)" fill="none" stroke="#333" stroke-miterlimit="10" stroke-width="2"/>
      <g id="Group_1413" data-name="Group 1413" transform="translate(4309.756 7605.156)">
        <path id="Path_2026" data-name="Path 2026" d="M260.247,246.19v14.518H245.728v-4.87h9.658V246.19Z" transform="translate(-240.867 -241.321)" fill="#333"/>
        <path id="Path_2027" data-name="Path 2027" d="M257.416,248.224v-4.87H242.9v14.518h4.861" transform="translate(-242.897 -243.354)" fill="none" stroke="#333" stroke-miterlimit="10" stroke-width="1"/>
      </g>
      <g id="Group_1414" data-name="Group 1414" transform="translate(4277.5 7292.329)">
        <path id="Path_2028" data-name="Path 2028" d="M76.027,62.457s.407,11.8,12.212,22.183l-32.97,29.305s-18.927-16.688-17.1-26.864Z" transform="translate(-38.049 -62.457)" fill="none" stroke="#333" stroke-miterlimit="10" stroke-width="2"/>
        <path id="Path_2029" data-name="Path 2029" d="M82.56,73.6s3.256,20.76-15.874,26.661c0,0,6.92,11.8,28.7,11.8,0,0,14.856-18.519,9.566-42.738C104.948,69.331,99.249,73.6,82.56,73.6Z" transform="translate(-17.514 -57.528)" fill="none" stroke="#333" stroke-miterlimit="10" stroke-width="2"/>
        <path id="Path_2030" data-name="Path 2030" d="M85.577,104.011C98.477,90.623,99.542,72.4,99.542,72.4a19.126,19.126,0,0,1-7.291,0" transform="translate(-3.968 -55.329)" fill="none" stroke="#333" stroke-miterlimit="10" stroke-width="2"/>
        <path id="Path_2031" data-name="Path 2031" d="M75.665,99.865l7.758-8.572s8.414,3.07,14.128-7.356" transform="translate(-11.076 -47.054)" fill="none" stroke="#333" stroke-miterlimit="10" stroke-width="2"/>
      </g>
      <path id="Path_2032" data-name="Path 2032" d="M44.935,277.2S59.35,249.512,84.46,263.824c10.1,5.754,16.568,15.7,27.2,22.325,20.753,12.928,122.772-5.7,167.663-108.829" transform="translate(4181.065 7206.967)" fill="none" stroke="#333" stroke-miterlimit="10" stroke-width="2"/>
    </g>
  </g>
</svg>
