<svg xmlns="http://www.w3.org/2000/svg" width="74.94" height="74.94" viewBox="0 0 74.94 74.94">
  <g id="Group_8" data-name="Group 8" transform="translate(-156.502 -84.096)">
    <g id="Group_7" data-name="Group 7">
      <g id="Group_6" data-name="Group 6">
        <path id="Path_5" data-name="Path 5" d="M213.1,109.5a16.137,16.137,0,0,1-3.935,1.113c.627-.106,1.53-1.241,1.9-1.7a7.123,7.123,0,0,0,1.286-2.361c.034-.067.054-.152-.013-.2a.227.227,0,0,0-.209.017,19.879,19.879,0,0,1-4.625,1.77.309.309,0,0,1-.32-.085,3.772,3.772,0,0,0-.4-.413,8.163,8.163,0,0,0-2.24-1.372,7.8,7.8,0,0,0-3.435-.554,8.219,8.219,0,0,0-3.26.921,8.413,8.413,0,0,0-2.629,2.147,8.084,8.084,0,0,0-1.57,3.145,8.5,8.5,0,0,0-.083,3.321c.025.185.008.211-.16.185-6.35-.945-11.615-3.217-15.888-8.087-.185-.212-.286-.212-.439.016-1.869,2.8-.962,7.307,1.374,9.52.311.3.631.59.976.859a8.11,8.11,0,0,1-3.066-.859c-.185-.118-.278-.05-.295.16a4.827,4.827,0,0,0,.051.91,8.148,8.148,0,0,0,5.021,6.5,4.689,4.689,0,0,0,1.019.311,9.083,9.083,0,0,1-3.007.094c-.219-.043-.3.067-.219.277,1.323,3.607,4.179,4.68,6.318,5.291.286.05.573.05.86.117-.018.026-.035.026-.051.051-.71,1.082-3.169,1.887-4.315,2.287a15.453,15.453,0,0,1-6.553.839c-.352-.052-.426-.048-.522,0s-.012.143.1.235c.447.295.9.556,1.365.81a21.689,21.689,0,0,0,4.38,1.751c7.873,2.174,16.74.577,22.651-5.3,4.641-4.612,6.268-10.971,6.268-17.34,0-.249.295-.387.47-.518a15.631,15.631,0,0,0,3.153-3.206,1.248,1.248,0,0,0,.276-.614V109.5C213.325,109.4,213.252,109.429,213.1,109.5Z"/>
      </g>
      <path id="Path_6" data-name="Path 6" d="M193.972,84.1a37.47,37.47,0,1,0,37.47,37.47A37.512,37.512,0,0,0,193.972,84.1Zm0,70.135a32.665,32.665,0,1,1,32.665-32.665A32.7,32.7,0,0,1,193.972,154.231Z"/>
    </g>
  </g>
</svg>
