<svg   id="round" width="544" height="534" viewBox="0 0 544 534" fill="white" xmlns="http://www.w3.org/2000/svg">
<path d="M195.316 14.4025L210.773 55.2868L194.197 61.5535C189.91 63.1743 186.343 63.4036 183.496 62.2413C180.637 61.1044 178.516 58.7066 177.133 55.0478C176.337 52.9412 176.062 50.9859 176.309 49.1817C176.545 47.403 177.1 45.8835 177.976 44.6233C178.832 43.3701 179.788 42.4912 180.844 41.9866C179.689 42.3389 178.518 42.4542 177.331 42.3325C176.133 42.2363 175.012 41.7838 173.967 40.9751C172.922 40.1663 172.064 38.8749 171.393 37.101C170.897 35.789 170.408 34.4955 169.926 33.2204C169.444 31.9454 168.952 30.6427 168.449 29.3122C168.106 28.4067 167.724 27.5904 167.301 26.8632C166.867 26.1615 166.448 25.6967 166.045 25.4689L174.666 22.2097C175.045 22.4885 175.449 22.9695 175.876 23.6528C176.311 24.3545 176.699 25.1581 177.041 26.0635C177.488 27.2462 177.915 28.3734 178.32 29.4452C178.732 30.5354 179.162 31.6719 179.609 32.8545C180.217 34.4621 181.1 35.543 182.26 36.0971C183.427 36.6697 184.925 36.6102 186.755 35.9186L195.237 32.7118L193.973 36.3257L186.889 17.5883L195.316 14.4025ZM194.267 37.1018L197.752 39.3642L189.159 42.6128C188.05 43.032 187.156 43.6552 186.476 44.4825C185.796 45.3098 185.381 46.2797 185.232 47.3923C185.064 48.5119 185.214 49.6907 185.682 50.9288C186.339 52.6658 187.375 53.8156 188.792 54.3783C190.19 54.9479 191.831 54.8765 193.716 54.1639L202.337 50.9047L200.9 54.6474L194.267 37.1018Z" fill="white"/>
<path d="M135.373 60.6625C132.565 55.8968 131.723 51.5889 132.848 47.7387C133.983 43.9056 136.738 40.7003 141.112 38.1229C145.503 35.5354 149.65 34.6739 153.553 35.5384C157.449 36.4299 160.802 39.2585 163.61 44.0242C163.991 44.671 164.397 45.3603 164.828 46.0922C165.259 46.824 165.711 47.59 166.182 48.3899L177.781 68.0739L169.841 72.7524L157.58 51.9451C157.199 51.2984 156.843 50.6941 156.512 50.1325C156.181 49.5708 155.875 49.0517 155.595 48.5751C154.03 45.9199 152.392 44.2484 150.679 43.5606C148.977 42.8898 147.037 43.1962 144.858 44.4799C142.696 45.7536 141.488 47.3026 141.233 49.1267C140.988 50.9679 141.648 53.2161 143.212 55.8713L157.459 80.0486L149.544 84.7121L135.373 60.6625Z" fill="white"/>
<path d="M117.096 54.3417L145.533 87.5351L134.799 96.7313C132.578 98.6335 130.213 99.9571 127.704 100.702C125.193 101.475 122.654 101.685 120.09 101.333C117.523 101.009 115.019 100.136 112.579 98.7151C110.139 97.2938 107.871 95.3604 105.776 92.915C103.681 90.4696 102.112 87.9246 101.069 85.2802C100.026 82.6357 99.5288 80.0054 99.5766 77.3891C99.6223 74.8006 100.213 72.3173 101.35 69.9391C102.471 67.5738 104.142 65.44 106.362 63.5378L117.096 54.3417ZM111.849 62.4271L117.853 63.0587L111.889 68.1676C110.269 69.5557 109.192 71.2589 108.658 73.2773C108.121 75.3235 108.19 77.5145 108.865 79.8503C109.552 82.2011 110.885 84.5317 112.865 86.8421C114.857 89.1675 116.942 90.8276 119.121 91.8224C121.313 92.8322 123.448 93.2142 125.527 92.9683C127.603 92.7503 129.452 91.9472 131.072 90.5591L137.035 85.4502L136.738 91.4798L111.849 62.4271Z" fill="white"/>
<path d="M71.0916 98.5199C72.8024 96.3973 74.7862 94.7231 77.0429 93.4972C79.2997 92.2713 81.7381 91.5598 84.3582 91.3626C86.9783 91.1655 89.7028 91.5472 92.5316 92.5078C95.3758 93.4808 98.2129 95.1078 101.043 97.3889C103.889 99.6824 106.08 102.095 107.616 104.628C109.156 107.188 110.099 109.763 110.448 112.353C110.796 114.943 110.604 117.464 109.87 119.917C109.136 122.371 107.907 124.666 106.184 126.804C104.473 128.927 102.497 130.607 100.256 131.846C98.0018 133.099 95.5726 133.831 92.9678 134.04C90.3631 134.25 87.6525 133.867 84.8361 132.891C82.0351 131.927 79.2118 130.299 76.3663 128.005C73.5362 125.724 71.3437 123.297 69.7888 120.725C68.2369 118.18 67.2853 115.598 66.9339 112.981C66.57 110.379 66.7536 107.837 67.4846 105.356C68.2033 102.89 69.4056 100.612 71.0916 98.5199ZM76.8365 103.15C75.6835 104.581 75.0096 106.22 74.8147 108.067C74.6073 109.93 75.0751 111.931 76.2182 114.07C77.3765 116.222 79.3785 118.444 82.224 120.738C85.0849 123.043 87.6804 124.514 90.0106 125.149C92.3284 125.799 94.3538 125.82 96.0868 125.212C97.8353 124.617 99.286 123.604 100.439 122.174C101.592 120.743 102.28 119.103 102.502 117.253C102.728 115.43 102.277 113.455 101.15 111.329C100.022 109.202 98.0277 106.985 95.1667 104.68C92.3058 102.374 89.7088 100.889 87.3757 100.227C85.0425 99.5643 82.9941 99.5244 81.2302 100.107C79.454 100.705 77.9894 101.72 76.8365 103.15Z" fill="white"/>
<path d="M41.1329 145.03L84.009 155.662L80.4284 164.411L40.0519 152.912L40.6119 151.701L76.365 174.339L72.0211 184.952L30.6668 175.999L31.1171 174.742L67.969 194.852L64.3883 203.601L26.3612 181.121L31.7042 168.067L68.4707 176.807L68.1115 177.685L35.7899 158.084L41.1329 145.03Z" fill="white"/>
<path d="M56.8892 209.897L60.3895 214.816L42.6257 211.313L45.5854 209.783L42.467 225.599L35.4894 224.223L38.6079 208.407L40.765 210.947L22.8559 207.415L27.9613 204.194L23.8053 225.272L16.8277 223.896L21.9697 197.817L64.8527 206.273L59.7107 232.351L52.7331 230.975L56.8892 209.897Z" fill="white"/>
<path d="M15.2571 233.91L58.6561 246.201L58.1933 260.743L14.1026 270.192L14.4023 260.773L52.8274 253.279L52.8255 253.339L14.9574 243.328L15.2571 233.91ZM25.1376 242.051L32.3052 242.279L31.6455 263.012L24.4779 262.784L25.1376 242.051Z" fill="white"/>
<path d="M15.0658 281.105L58.4271 275.605L59.5868 284.748L18.9595 289.901L23.141 285.189L25.7103 305.444L18.2727 306.387L15.0658 281.105Z" fill="white"/>
<path d="M63.4205 334.905L59.533 321.007L64.7464 323.364L25.279 334.404L22.8123 325.586L62.2798 314.546L59.078 319.38L55.1665 305.397L62.0156 303.481L70.2695 332.989L63.4205 334.905Z" fill="white"/>
<path d="M85.831 367.045L46.2949 385.682L42.3653 377.346L61.3426 368.4L60.592 373.34L50.3068 351.522L54.4881 354.137L35.618 363.032L31.6884 354.696L71.2245 336.059L75.1541 344.395L56.0428 353.404L56.7666 348.477L67.0518 370.295L62.7901 367.718L81.9014 358.709L85.831 367.045Z" fill="white"/>
<path d="M55.0565 400.959C54.3162 399.814 54.0868 398.586 54.3681 397.275C54.6494 395.964 55.3624 394.938 56.507 394.198C57.635 393.469 58.8546 393.245 60.1658 393.526C61.477 393.807 62.5027 394.52 63.243 395.665C63.9725 396.793 64.1966 398.012 63.9152 399.324C63.6339 400.635 62.9293 401.655 61.8012 402.385C60.6566 403.125 59.4287 403.354 58.1175 403.073C56.8063 402.792 55.786 402.087 55.0565 400.959Z" fill="white"/>
<path d="M65.1077 414.678L98.5531 386.538L109.962 400.097C112.912 403.604 114.312 406.894 114.159 409.965C114.035 413.039 112.476 415.835 109.483 418.353C107.759 419.803 106.006 420.711 104.222 421.076C102.465 421.443 100.848 421.423 99.3686 421.015C97.9022 420.622 96.756 420.012 95.93 419.184C96.6454 420.157 97.1424 421.223 97.421 422.383C97.7275 423.545 97.6725 424.753 97.256 426.007C96.8395 427.261 95.9057 428.498 94.4545 429.719C93.3812 430.622 92.3231 431.513 91.28 432.39C90.237 433.268 89.1713 434.165 88.0829 435.08C87.3422 435.703 86.6989 436.335 86.153 436.975C85.635 437.617 85.3353 438.166 85.254 438.622L79.3208 431.57C79.4577 431.119 79.7777 430.579 80.2806 429.949C80.7986 429.307 81.428 428.674 82.1687 428.051C83.1362 427.237 84.0583 426.461 84.9351 425.724C85.8269 424.973 86.7566 424.191 87.7241 423.377C89.0392 422.27 89.7659 421.078 89.904 419.8C90.0573 418.509 89.5043 417.116 88.2452 415.619L82.4073 408.681L86.2356 408.674L70.9074 421.571L65.1077 414.678ZM86.8705 408.14L87.8493 404.102L93.7634 411.131C94.5266 412.038 95.4111 412.675 96.417 413.042C97.4229 413.409 98.4755 413.479 99.5747 413.251C100.687 413.039 101.749 412.506 102.762 411.654C104.183 410.459 104.924 409.099 104.985 407.576C105.059 406.068 104.447 404.543 103.15 403.002L97.2165 395.95L101.224 396.064L86.8705 408.14Z" fill="white"/>
<path d="M128.629 455.889C125.064 460.118 121.279 462.341 117.273 462.556C113.281 462.756 109.343 461.221 105.461 457.948C101.564 454.664 99.376 451.037 98.8973 447.068C98.4465 443.097 100.004 438.996 103.568 434.767C104.052 434.193 104.568 433.581 105.115 432.932C105.663 432.282 106.236 431.602 106.834 430.892L121.558 413.423L128.605 419.362L113.041 437.829C112.557 438.403 112.105 438.939 111.685 439.437C111.264 439.936 110.876 440.397 110.52 440.819C108.533 443.176 107.5 445.276 107.419 447.119C107.35 448.948 108.283 450.677 110.216 452.307C112.135 453.923 113.997 454.55 115.802 454.186C117.621 453.806 119.523 452.438 121.509 450.082L139.594 428.624L146.618 434.545L128.629 455.889Z" fill="white"/>
<path d="M128.725 475.226L150.611 437.392L162.847 444.469C165.377 445.933 167.41 447.725 168.945 449.846C170.507 451.959 171.547 454.284 172.066 456.82C172.611 459.349 172.618 462.001 172.086 464.774C171.555 467.548 170.483 470.328 168.87 473.115C167.258 475.903 165.377 478.227 163.228 480.088C161.079 481.948 158.762 483.29 156.278 484.112C153.821 484.928 151.282 485.194 148.662 484.91C146.059 484.637 143.492 483.768 140.961 482.304L128.725 475.226ZM138.093 477.496L136.698 471.622L143.496 475.554C145.343 476.623 147.307 477.074 149.388 476.909C151.496 476.736 153.54 475.944 155.52 474.534C157.51 473.106 159.267 471.075 160.79 468.442C162.323 465.791 163.198 463.273 163.414 460.887C163.64 458.485 163.292 456.344 162.371 454.464C161.477 452.578 160.106 451.1 158.259 450.032L151.462 446.1L157.249 444.381L138.093 477.496Z" fill="white"/>
<path d="M185.658 503.98C183.088 503.07 180.851 501.753 178.946 500.031C177.041 498.308 175.562 496.244 174.507 493.837C173.452 491.431 172.909 488.734 172.877 485.747C172.852 482.741 173.446 479.525 174.659 476.098C175.879 472.653 177.429 469.786 179.309 467.497C181.214 465.195 183.33 463.451 185.658 462.263C187.986 461.076 190.429 460.422 192.986 460.301C195.544 460.18 198.117 460.577 200.706 461.494C203.276 462.404 205.516 463.711 207.428 465.415C209.358 467.126 210.853 469.175 211.915 471.563C212.976 473.951 213.514 476.635 213.527 479.616C213.546 482.578 212.946 485.781 211.726 489.226C210.513 492.653 208.95 495.526 207.039 497.846C205.152 500.154 203.033 501.908 200.68 503.107C198.345 504.313 195.887 504.983 193.304 505.116C190.739 505.256 188.191 504.877 185.658 503.98ZM188.122 497.025C189.853 497.638 191.623 497.73 193.431 497.302C195.257 496.88 196.989 495.775 198.628 493.987C200.274 492.181 201.707 489.555 202.927 486.11C204.154 482.646 204.681 479.71 204.507 477.301C204.352 474.899 203.7 472.981 202.552 471.548C201.411 470.096 199.974 469.063 198.242 468.449C196.51 467.836 194.735 467.731 192.915 468.135C191.121 468.526 189.408 469.606 187.775 471.375C186.142 473.144 184.713 475.761 183.486 479.224C182.259 482.688 181.72 485.63 181.869 488.051C182.017 490.472 182.659 492.418 183.794 493.889C184.947 495.366 186.39 496.411 188.122 497.025Z" fill="white"/>
<path d="M239.472 516.82L235.285 472.844L244.726 473.321L247.267 515.226L245.938 515.099L255.44 473.862L266.893 474.441L272.16 516.424L270.825 516.416L277.577 474.981L287.018 475.458L278.419 518.788L264.332 518.076L260.386 480.492L261.333 480.539L253.559 517.532L239.472 516.82Z" fill="white"/>
<path d="M295.445 480.445L298.924 475.512L301.51 493.432L299.085 491.147L315.04 488.844L316.056 495.883L300.101 498.186L301.781 495.309L304.389 513.375L299.656 509.627L320.92 506.559L321.935 513.598L295.627 517.394L289.384 474.134L315.692 470.337L316.708 477.376L295.445 480.445Z" fill="white"/>
<path d="M331.904 511.76L329.109 466.741L342.982 462.355L366.516 500.818L357.531 503.659L337.719 469.893L337.776 469.875L340.889 508.92L331.904 511.76ZM336.308 499.739L334.147 492.901L353.925 486.649L356.086 493.486L336.308 499.739Z" fill="white"/>
<path d="M376.491 496.29L356.924 457.206L365.165 453.081L383.498 489.7L377.666 487.318L395.923 478.178L399.279 484.882L376.491 496.29Z" fill="white"/>
<path d="M411.213 432.832L399.391 441.108L399.886 435.408L423.389 468.981L415.888 474.232L392.385 440.659L398.007 442.076L386.112 450.403L382.034 444.577L407.135 427.005L411.213 432.832Z" fill="white"/>
<path d="M434.103 401.03L464.796 432.149L458.235 438.621L443.502 423.684L448.412 422.753L431.238 439.692L432.319 434.88L446.968 449.733L440.407 456.204L409.714 425.085L416.276 418.613L431.112 433.656L426.223 434.607L443.397 417.669L442.378 422.544L427.542 407.502L434.103 401.03Z" fill="white"/>
<path d="M476.304 418.818C475.47 419.896 474.387 420.52 473.057 420.689C471.727 420.859 470.523 420.526 469.445 419.692C468.382 418.869 467.767 417.793 467.597 416.463C467.428 415.133 467.76 413.929 468.595 412.851C469.417 411.788 470.493 411.172 471.824 411.003C473.154 410.834 474.35 411.16 475.412 411.982C476.49 412.817 477.114 413.899 477.283 415.23C477.453 416.56 477.126 417.756 476.304 418.818Z" fill="white"/>
<path d="M485.912 404.787L448.274 382.565L457.283 367.306C459.613 363.359 462.252 360.948 465.201 360.074C468.142 359.172 471.297 359.715 474.665 361.704C476.604 362.849 478.042 364.203 478.978 365.765C479.907 367.3 480.424 368.832 480.53 370.363C480.646 371.877 480.45 373.161 479.942 374.214C480.623 373.217 481.464 372.394 482.466 371.747C483.461 371.072 484.619 370.724 485.94 370.701C487.261 370.678 488.738 371.149 490.371 372.113C491.579 372.826 492.77 373.529 493.944 374.222C495.118 374.915 496.317 375.623 497.542 376.346C498.375 376.838 499.185 377.236 499.969 377.539C500.747 377.814 501.365 377.915 501.821 377.841L497.136 385.777C496.665 385.797 496.049 385.674 495.289 385.408C494.511 385.133 493.705 384.749 492.871 384.257C491.783 383.614 490.745 383.001 489.758 382.419C488.755 381.826 487.708 381.208 486.62 380.566C485.14 379.692 483.774 379.402 482.522 379.695C481.254 379.978 480.122 380.962 479.128 382.646L474.518 390.455L473.242 386.845L490.492 397.03L485.912 404.787ZM472.528 386.423L468.394 386.839L473.064 378.929C473.667 377.908 473.974 376.862 473.987 375.791C474 374.721 473.717 373.705 473.137 372.743C472.568 371.765 471.713 370.939 470.574 370.266C468.974 369.322 467.446 369.073 465.989 369.521C464.542 369.951 463.306 371.034 462.282 372.769L457.597 380.705L456.375 376.887L472.528 386.423Z" fill="white"/>
<path d="M503.728 331.194C508.901 333.155 512.252 335.989 513.784 339.696C515.297 343.396 515.153 347.62 513.354 352.368C511.547 357.134 508.851 360.401 505.265 362.168C501.668 363.91 497.284 363.801 492.111 361.841C491.409 361.574 490.661 361.291 489.867 360.99C489.073 360.689 488.241 360.374 487.373 360.044L466.009 351.946L469.276 343.329L491.859 351.889C492.561 352.155 493.217 352.404 493.826 352.635C494.436 352.866 494.999 353.079 495.517 353.276C498.398 354.368 500.722 354.647 502.488 354.112C504.236 353.57 505.558 352.117 506.454 349.752C507.343 347.406 507.317 345.442 506.375 343.86C505.414 342.27 503.492 340.929 500.611 339.837L474.37 329.89L477.626 321.3L503.728 331.194Z" fill="white"/>
<path d="M521.941 324.691L478.989 316.59L481.609 302.7C482.151 299.827 483.168 297.314 484.659 295.163C486.135 292.989 487.983 291.237 490.204 289.907C492.41 288.553 494.909 287.668 497.701 287.25C500.494 286.832 503.473 286.921 506.637 287.518C509.802 288.115 512.618 289.118 515.086 290.529C517.554 291.939 519.588 293.68 521.187 295.751C522.771 297.798 523.864 300.105 524.466 302.672C525.071 305.218 525.103 307.928 524.561 310.801L521.941 324.691ZM520.975 315.101L515.897 318.364L517.352 310.648C517.748 308.551 517.522 306.549 516.676 304.64C515.814 302.708 514.389 301.042 512.402 299.642C510.395 298.238 507.897 297.254 504.907 296.691C501.898 296.123 499.232 296.133 496.91 296.72C494.569 297.304 492.664 298.342 491.197 299.834C489.713 301.303 488.774 303.086 488.378 305.183L486.923 312.899L483.382 308.01L520.975 315.101Z" fill="white"/>
<path d="M530.188 261.444C530.181 264.17 529.681 266.717 528.688 269.085C527.694 271.454 526.237 273.534 524.317 275.327C522.396 277.121 520.032 278.527 517.224 279.548C514.397 280.568 511.166 281.074 507.531 281.066C503.876 281.057 500.657 280.545 497.874 279.531C495.071 278.497 492.724 277.079 490.832 275.277C488.939 273.475 487.512 271.387 486.55 269.014C485.587 266.641 485.11 264.082 485.116 261.336C485.123 258.609 485.613 256.062 486.586 253.694C487.56 251.306 488.997 249.215 490.898 247.422C492.799 245.629 495.153 244.232 497.961 243.231C500.749 242.23 503.97 241.734 507.625 241.743C511.26 241.752 514.489 242.273 517.311 243.307C520.114 244.321 522.471 245.739 524.383 247.561C526.295 249.364 527.742 251.461 528.724 253.854C529.706 256.227 530.194 258.757 530.188 261.444ZM522.809 261.426C522.814 259.589 522.314 257.888 521.31 256.325C520.306 254.743 518.689 253.474 516.459 252.521C514.21 251.567 511.257 251.086 507.603 251.077C503.928 251.068 500.983 251.545 498.768 252.508C496.554 253.451 494.96 254.702 493.989 256.26C492.997 257.818 492.499 259.516 492.495 261.353C492.49 263.191 492.98 264.901 493.964 266.483C494.928 268.046 496.516 269.305 498.726 270.258C500.936 271.212 503.879 271.693 507.553 271.702C511.228 271.71 514.182 271.243 516.417 270.301C518.651 269.358 520.274 268.107 521.286 266.549C522.297 264.971 522.805 263.263 522.809 261.426Z" fill="white"/>
<path d="M524.458 206.417L484.358 224.95L481.678 215.885L520.369 199.592L520.69 200.888L478.636 205.598L475.384 194.601L513.245 175.71L513.68 176.972L472.35 184.342L469.67 175.277L513.399 169.021L517.399 182.547L483.25 198.733L482.981 197.824L520.458 192.891L524.458 206.417Z" fill="white"/>
<path d="M471.58 165.674L465.772 164.028L481.82 155.645L480.469 158.691L473.006 144.402L479.31 141.11L486.773 155.399L483.501 154.767L499.681 146.317L497.714 152.024L487.769 132.981L494.072 129.689L506.378 153.25L467.635 173.485L455.33 149.924L461.634 146.631L471.58 165.674Z" fill="white"/>
<path d="M489.033 120.895L447.488 138.46L438.75 126.826L467.233 91.8695L472.892 99.4042L447.606 129.292L447.571 129.244L483.374 113.36L489.033 120.895ZM476.232 120.726L470.498 125.032L458.041 108.447L463.775 104.14L476.232 120.726Z" fill="white"/>
<path d="M459.652 83.958L429.268 115.379L422.643 108.972L451.112 79.5327L450.798 85.825L436.121 71.632L441.332 66.2426L459.652 83.958Z" fill="white"/>
<path d="M388.271 72.2442L399.999 80.6533L394.457 82.0764L418.338 48.7705L425.779 54.1061L401.899 87.4119L401.372 81.6376L413.172 90.0985L409.028 95.8782L384.127 78.024L388.271 72.2442Z" fill="white"/>
<path d="M350.679 61.1941L369.86 21.9188L378.141 25.963L368.934 44.8151L366.429 40.4916L388.103 51.0768L383.205 51.6527L392.36 32.907L400.641 36.9512L381.46 76.2265L373.179 72.1823L382.451 53.1971L384.97 57.4939L363.295 46.9088L368.232 46.253L358.96 65.2383L350.679 61.1941Z" fill="white"/>
<path d="M353.467 15.4825C354.76 15.9123 355.708 16.7266 356.309 17.9254C356.909 19.1243 356.995 20.3705 356.565 21.6641C356.142 22.939 355.331 23.8769 354.132 24.4778C352.933 25.0787 351.687 25.1643 350.393 24.7346C349.118 24.3111 348.18 23.4999 347.579 22.301C346.978 21.1021 346.89 19.8653 347.313 18.5904C347.743 17.2968 348.557 16.3496 349.756 15.7486C350.955 15.1477 352.192 15.059 353.467 15.4825Z" fill="white"/>
</svg>
