<svg width="373" height="122" viewBox="0 0 373 122" fill="none" xmlns="http://www.w3.org/2000/svg">
<g clip-path="url(#clip0_713_11931)">
<path d="M175.358 73.1476L166.791 53.5982H159.991V73.1476H141.189V11.0645H174.327C188.845 11.0645 196.665 20.7432 196.665 32.3819C196.665 43.081 190.432 48.7589 185.501 51.1836L196.766 73.1476H175.358V73.1476ZM177.591 32.2909C177.591 28.9367 174.61 27.4516 171.448 27.4516H160.001V37.2212H171.448C174.62 37.2212 177.591 35.7361 177.591 32.2909Z" fill="white"/>
<path d="M232.976 73.148V68.1268C230.37 71.0162 225.439 74.2694 217.529 74.2694C207.102 74.2694 202.637 68.0358 202.637 60.307V28.1895H219.388V53.1338C219.388 57.6903 221.812 59.4583 225.904 59.4583C229.632 59.4583 231.582 57.5085 232.976 55.9223V28.1895H249.727V73.148H232.976Z" fill="white"/>
<path d="M258.102 73.1476V11.0645H285.834C305.384 11.0645 319.902 22.2283 319.902 42.0606C319.902 61.8928 305.384 73.1476 285.925 73.1476H258.102ZM300.817 42.0606C300.817 33.6852 295.978 27.4516 285.925 27.4516H276.893V56.7706H285.824C295.24 56.7605 300.817 49.8803 300.817 42.0606Z" fill="white"/>
<path d="M321.853 50.6273C321.853 38.0592 331.157 27.0771 347.08 27.0771C363.083 27.0771 372.398 38.0592 372.398 50.6273C372.398 63.1955 363.093 74.2684 347.08 74.2684C331.157 74.2583 321.853 63.1854 321.853 50.6273ZM355.172 50.6273C355.172 45.697 352.283 41.8781 347.08 41.8781C341.958 41.8781 339.078 45.697 339.078 50.6273C339.078 55.6485 341.968 59.4675 347.08 59.4675C352.293 59.4675 355.172 55.6485 355.172 50.6273Z" fill="white"/>
<path d="M160.72 111.69L156.325 94.8983L151.9 111.69H147.636L141.16 88.9678H145.585L150.01 106.446L154.708 88.9678H157.881L162.579 106.446L167.004 88.9678H171.469L164.963 111.69H160.72Z" fill="white"/>
<path d="M194.354 111.69V88.9678H209.922V92.4735H198.344V98.3333H209.69V101.839H198.344V108.174H209.922V111.679H194.354V111.69Z" fill="white"/>
<path d="M250.193 111.69L248.526 107.295H238.099L236.432 111.69H231.906L240.827 88.9678H245.798L254.719 111.69H250.193ZM243.302 92.9585L239.211 103.789H247.384L243.302 92.9585Z" fill="white"/>
<path d="M277.137 111.69V88.9678H281.127V108.184H291.14V111.69H277.137Z" fill="white"/>
<path d="M316.892 111.69V92.4735H310.012V88.9678H327.763V92.4735H320.883V111.69H316.892Z" fill="white"/>
<path d="M367.175 111.69V101.738H355.355V111.69H351.374V88.9678H355.355V98.2323H367.175V88.9678H371.166V111.69H367.175Z" fill="white"/>
<path d="M69.6299 74.0359C69.6299 79.6633 66.397 83.9268 60.5776 83.9268C54.8492 83.9268 51.6162 79.6633 51.6162 74.0359C51.6162 68.5197 54.8492 64.2461 60.5776 64.2461C66.397 64.2461 69.6299 68.5197 69.6299 74.0359Z" fill="#E75553"/>
<path d="M102.566 0.000976562H18.6603C8.35521 0.000976562 0 8.35619 0 18.6714V102.577C0 112.882 8.35521 121.237 18.6603 121.237H102.566C112.881 121.237 121.236 112.882 121.236 102.577V18.6714C121.236 8.35619 112.881 0.000976562 102.566 0.000976562ZM60.5677 100.496C42.7561 100.496 32.3297 88.0995 32.3297 74.036C32.3297 59.9726 42.7561 47.6873 60.5677 47.6873C78.4804 47.6873 88.8966 59.9726 88.8966 74.0461C88.8966 88.0995 78.4804 100.496 60.5677 100.496ZM60.4364 42.3125C49.4038 42.1104 39.4928 37.3923 32.3903 29.906L46.1709 16.4184C49.8686 20.3081 55.0312 22.7732 60.7799 22.8844C66.5386 22.9854 71.7821 20.7122 75.6212 16.9539L88.9067 30.9466C81.5315 38.1601 71.4588 42.5247 60.4364 42.3125Z" fill="#E75553"/>
<path d="M60.5681 47.6875C42.7564 47.6875 32.3301 59.9728 32.3301 74.0362C32.3301 88.0895 42.7564 100.486 60.558 100.486C78.4706 100.486 88.8869 88.0895 88.8869 74.0362C88.897 59.9728 78.4807 47.6875 60.5681 47.6875ZM60.5681 83.9271C54.8396 83.9271 51.6067 79.6636 51.6067 74.0362C51.6067 68.52 54.8396 64.2464 60.5681 64.2464C66.3975 64.2464 69.6204 68.52 69.6204 74.0362C69.6204 79.6636 66.3874 83.9271 60.5681 83.9271Z" fill="white"/>
<path d="M88.9067 30.9468C81.5416 38.1603 71.4688 42.5249 60.4464 42.3228C49.4139 42.1207 39.5028 37.4026 32.4004 29.9163L46.1809 16.4287C49.8786 20.3184 55.0413 22.7835 60.7899 22.8947C66.5487 22.9957 71.7921 20.7225 75.6313 16.9642L88.9067 30.9468Z" fill="white"/>
</g>
<defs>
<clipPath id="clip0_713_11931">
<rect width="372.388" height="121.236" fill="white"/>
</clipPath>
</defs>
</svg>
