<svg width="685" height="152" viewBox="0 0 685 152" fill="none" xmlns="http://www.w3.org/2000/svg">
<mask id="mask0_391_22065" style="mask-type:alpha" maskUnits="userSpaceOnUse" x="10" y="0" width="663" height="126">
<path d="M36.8441 125.891H10.4091V0.515623H53.3341C62.9107 0.515623 71.0991 2.38562 77.8991 6.12562C84.7557 9.80895 89.9691 14.8239 93.5391 21.1706C97.1657 27.4606 98.9791 34.5723 98.9791 42.5056C98.9791 50.3823 97.1374 57.6073 93.4541 64.1806C89.8274 70.6973 84.6141 75.939 77.8141 79.9056C71.0141 83.8156 62.8541 85.7706 53.3341 85.7706H36.8441V125.891ZM36.8441 77.6106L24.9441 65.3706H50.5291C54.9491 65.3706 58.8024 64.4923 62.0891 62.7356C65.3757 60.9223 67.9257 58.3156 69.7391 54.9156C71.5524 51.459 72.4591 47.3223 72.4591 42.5056C72.4591 37.6323 71.5524 33.609 69.7391 30.4356C67.9824 27.2056 65.4607 24.8256 62.1741 23.2956C58.9441 21.709 55.0624 20.9156 50.5291 20.9156H24.9441L36.8441 8.33562V77.6106ZM99.509 125.891L130.789 0.345615H172.524L203.634 125.891H176.604L151.614 16.4106H151.784L126.539 125.891H99.509ZM121.949 96.8206V76.2506H181.449V96.8206H121.949ZM218.261 125.891V0.515623H244.696V117.986L232.796 104.386H291.361V125.891H218.261ZM307.909 125.891V0.515623H334.344V117.986L322.444 104.386H381.009V125.891H307.909ZM391.863 125.891L423.143 0.345615H464.878L495.988 125.891H468.958L443.968 16.4106H444.138L418.893 125.891H391.863ZM414.303 96.8206V76.2506H473.803V96.8206H414.303ZM580.548 20.9156H539.153L549.693 8.33562V125.891H523.428V8.33562L534.308 20.9156H492.658V0.515623H580.548V20.9156ZM611.23 20.9156L623.13 8.33562V60.2706L617.18 52.7906H663.42V73.1906H617.18L623.13 65.7106V118.071L611.23 105.491H672.855V125.891H596.61V0.515623H672.855V20.9156H611.23Z" fill="white"/>
</mask>
<g mask="url(#mask0_391_22065)">
<g filter="url(#filter0_d_391_22065)">
<rect x="7.55469" y="125.891" width="40.3326" height="670.053" transform="rotate(-90 7.55469 125.891)" fill="#4CBF9B"/>
</g>
<rect x="7.55469" y="85.5586" width="40.3326" height="670.053" transform="rotate(-90 7.55469 85.5586)" fill="#FFF2DB"/>
<rect x="7.55469" y="45.2246" width="40.3326" height="670.053" transform="rotate(-90 7.55469 45.2246)" fill="#E9615F"/>
</g>
<defs>
<filter id="filter0_d_391_22065" x="3.55469" y="85.5586" width="678.053" height="48.332" filterUnits="userSpaceOnUse" color-interpolation-filters="sRGB">
<feFlood flood-opacity="0" result="BackgroundImageFix"/>
<feColorMatrix in="SourceAlpha" type="matrix" values="0 0 0 0 0 0 0 0 0 0 0 0 0 0 0 0 0 0 127 0" result="hardAlpha"/>
<feOffset dy="4"/>
<feGaussianBlur stdDeviation="2"/>
<feComposite in2="hardAlpha" operator="out"/>
<feColorMatrix type="matrix" values="0 0 0 0 0 0 0 0 0 0 0 0 0 0 0 0 0 0 0.25 0"/>
<feBlend mode="normal" in2="BackgroundImageFix" result="effect1_dropShadow_391_22065"/>
<feBlend mode="normal" in="SourceGraphic" in2="effect1_dropShadow_391_22065" result="shape"/>
</filter>
</defs>
</svg>
