<svg width="131" height="184" viewBox="0 0 131 184" fill="none" xmlns="http://www.w3.org/2000/svg">
<path d="M64.729 49.6827C43.2377 49.2923 23.9395 40.2217 10.1064 25.8705L36.9422 0C44.1462 7.4666 54.2105 12.2006 65.4104 12.4065C76.6103 12.6123 86.8449 8.24733 94.3115 1.05043L120.182 27.8862C105.838 41.7193 86.2203 50.0731 64.729 49.6827Z" fill="#E75553"/>
<path d="M0 122.808C0 90.4153 23.9967 62.1104 65.0275 62.1104C106.293 62.1104 130.289 90.4153 130.289 122.808C130.289 155.202 106.293 183.755 65.0275 183.755C23.9967 183.755 0 155.202 0 122.808ZM85.9014 122.808C85.9014 110.097 78.4561 100.252 65.0275 100.252C51.8332 100.252 44.388 110.09 44.388 122.808C44.388 135.768 51.8332 145.606 65.0275 145.606C78.4561 145.613 85.9014 135.776 85.9014 122.808Z" fill="#E75553"/>
</svg>
