<svg width="394" height="555" viewBox="0 0 394 555" fill="none" xmlns="http://www.w3.org/2000/svg">
<path d="M0 370.681C0 272.907 72.4312 187.472 196.278 187.472C320.831 187.472 393.262 272.907 393.262 370.681C393.262 468.456 320.831 554.641 196.278 554.641C72.4312 554.641 0 468.456 0 370.681ZM259.283 370.681C259.283 332.313 236.81 302.599 196.278 302.599C156.452 302.599 133.98 332.291 133.98 370.681C133.98 409.8 156.452 439.492 196.278 439.492C236.81 439.513 259.283 409.821 259.283 370.681Z" fill="#1C1C1C"/>
<path d="M194.651 149.961C129.782 148.783 71.5328 121.404 29.7793 78.0869L110.78 0C132.524 22.537 162.902 36.8262 196.708 37.4474C230.513 38.0687 261.405 24.8935 283.942 3.17061L362.029 84.171C318.733 125.924 259.52 151.139 194.651 149.961Z" fill="#1C1C1C"/>
</svg>
