<svg xmlns="http://www.w3.org/2000/svg" width="598.604" height="493.493" viewBox="0 0 598.604 493.493">
  <g id="Group_536" data-name="Group 536" transform="translate(-76.94 -239)">
    <g id="Group_535" data-name="Group 535" transform="translate(76.94 239)">
      <path id="Path_1136" data-name="Path 1136" d="M498.454,463.363c-45.91-26.208-91.05-37.05-139.352-32.989-53.037,4.459-100.874,22.406-141.22,58.175-10.311,9.15-20.271,7.824-29.64-1.507q-52.264-52.03-104.433-104.165c-11.851-11.885-6.854-22.655,3.546-31.951,36.779-32.864,77.431-59.8,123.149-78.672,96-39.634,194.022-43.152,293.15-14.226,62.725,18.305,117.008,52.261,165.705,95.4a20.483,20.483,0,0,1,5.1,7.087c4.8,11.348-6.752,30.015-26.92,43.565-10.243,6.889-18.2,2.99-26.773-4.481C541.5,330.645,449.122,300.308,344.554,308.46,281,313.418,222.628,334.108,167.267,372.624c12.555,12.481,23.942,24.892,36.745,35.617,2.7,2.261,11.388-.311,15.965-2.967,95.787-55.588,194.054-56.386,293.161-11.354,23.749,10.791,44.721,28.189,65.954,43.922,14.128,10.475,13.665,21.189.781,34.15C546.45,505.6,512.719,538.9,479.454,572.662c-9.8,9.937-18.673,12.185-30.99,3.62-45.728-31.787-93.293-31.662-139.567-2.583-16.906,10.628-27.658,9.546-39.181-4.991-2.186-2.758-5.019-5.014-7.523-7.529-14.481-14.565-14.549-26.065,1.7-38.036,30.489-22.462,64.481-38.352,102.8-36.835,27.317,1.088,54.34,8.612,81.591,12.622,4.8.7,11.374-.17,14.9-3.047C474.6,486.567,484.982,475.974,498.454,463.363Z" transform="translate(-76.94 -239)" fill="#e0e1e3"/>
      <path id="Path_1137" data-name="Path 1137" d="M313.378,634.527c-35.237-.023-59.892-24.939-59.733-60.357.16-35.157,25.368-60.266,60.346-60.108,34.579.159,60.142,25.958,60.119,60.714C374.085,609.5,348.627,634.549,313.378,634.527Z" transform="translate(-14.005 -141.034)" fill="#e0e1e3"/>
    </g>
  </g>
</svg>
