<svg xmlns="http://www.w3.org/2000/svg" width="1425" height="344" viewBox="0 0 1425 344">
  <g id="Group_2499" data-name="Group 2499" transform="translate(-248 -24628)">
    <path id="Path_1583" data-name="Path 1583" d="M0,0H348V344H0Z" transform="translate(605 24628)" fill="#fff"/>
    <path id="Path_1584" data-name="Path 1584" d="M0,0H348V344H0Z" transform="translate(1325 24628)" fill="#fff"/>
    <path id="Path_1585" data-name="Path 1585" d="M0,0H348V344H0Z" transform="translate(248 24628)" fill="#f3f3f3"/>
    <path id="Path_1586" data-name="Path 1586" d="M0,0H348V344H0Z" transform="translate(964 24628)" fill="#f3f3f3"/>
    <g id="SMS_Email_and_App_alerts" data-name="SMS Email and App alerts" transform="translate(353.999 24679.588)">
      <g id="_075---Mobile-Alarm" data-name="075---Mobile-Alarm" transform="translate(0.001 0)">
        <path id="Shape" d="M83.475,8.277v114.01a7.277,7.277,0,0,1-7.277,7.277H8.277A7.277,7.277,0,0,1,1,122.287V8.277A7.277,7.277,0,0,1,8.277,1h9.7l6.938,7.4a7.251,7.251,0,0,0,5.312,2.3H54.245a7.251,7.251,0,0,0,5.312-2.3L66.495,1h9.7A7.277,7.277,0,0,1,83.475,8.277Z" transform="translate(1.426 1.426)" fill="#d9d9d9"/>
        <path id="Shape-2" data-name="Shape" d="M83.475,51V63.129A7.277,7.277,0,0,1,76.2,70.406H8.277A7.277,7.277,0,0,1,1,63.129V51a7.277,7.277,0,0,0,7.277,7.277H76.2A7.277,7.277,0,0,0,83.475,51Z" transform="translate(1.426 72.713)" fill="#d9d9d9"/>
        <path id="Shape-3" data-name="Shape" d="M56.515,1,49.577,8.4a7.251,7.251,0,0,1-5.312,2.3H20.25a7.251,7.251,0,0,1-5.312-2.3L8,1Z" transform="translate(11.406 1.426)" fill="#607d8b"/>
        <path id="Shape-4" data-name="Shape" d="M32.2,1,25.262,8.4a7.251,7.251,0,0,1-5.312,2.3h7.277A7.251,7.251,0,0,0,32.54,8.4L39.477,1Z" transform="translate(28.443 1.426)" fill="#37474f"/>
        <path id="Shape-5" data-name="Shape" d="M50.479,88.866C42.76,95.083,32.186,96.039,25.7,95.94a2.411,2.411,0,0,1-1.732-4.046,25.635,25.635,0,0,0,5.322-11.129,4.769,4.769,0,0,0-1.48-4.665A34.843,34.843,0,0,1,15,49.812C15,28.368,36.71,11,63.515,11s48.515,17.368,48.515,38.812S90.319,88.624,63.515,88.624a61.4,61.4,0,0,1-9.179-.691,4.932,4.932,0,0,0-3.857.934Z" transform="translate(21.386 15.683)" fill="#f4f7f7"/>
        <path id="Shape-6" data-name="Shape" d="M58.109,33.555V45.683H29V33.555A14.537,14.537,0,0,1,39.722,19.534,13.424,13.424,0,0,1,43.554,19l3.833.534a14.178,14.178,0,0,1,6.452,3.736,14.419,14.419,0,0,1,4.269,10.285Z" transform="translate(41.346 27.089)" fill="#d9d9d9"/>
        <rect id="Rectangle-path" width="38.783" height="12.928" rx="2" transform="translate(65.134 73.33)" fill="#d9d9d9"/>
        <path id="Shape-7" data-name="Shape" d="M42.7,20.851a4.706,4.706,0,0,1-1.019,2.959l-3.833-.534a13.424,13.424,0,0,0-3.833.534A4.706,4.706,0,0,1,33,20.851a4.851,4.851,0,0,1,9.7,0Z" transform="translate(47.049 22.812)" fill="#d9d9d9"/>
        <path id="Shape-8" data-name="Shape" d="M46.554,35A7.277,7.277,0,0,1,32,35Z" transform="translate(45.624 49.901)" fill="#d9d9d9"/>
        <path id="Shape-9" data-name="Shape" d="M6.426,16.7A2.426,2.426,0,0,1,4,14.277V9.426a2.426,2.426,0,0,1,4.851,0v4.851A2.426,2.426,0,0,1,6.426,16.7Z" transform="translate(5.703 9.98)" fill="#0e65d1"/>
        <path id="Shape-10" data-name="Shape" d="M6.426,56.663A2.426,2.426,0,0,1,4,54.238V15.426a2.426,2.426,0,1,1,4.851,0V54.238A2.426,2.426,0,0,1,6.426,56.663Z" transform="translate(5.703 18.535)" fill="#0e65d1"/>
        <g id="Group_2056" data-name="Group 2056">
          <path id="Shape-11" data-name="Shape" d="M0,9.7V135.841a9.7,9.7,0,0,0,9.7,9.7H77.624a9.7,9.7,0,0,0,9.7-9.7V114.01a2.426,2.426,0,1,0-4.851,0v9.7a4.851,4.851,0,0,1-4.851,4.851H9.7a4.851,4.851,0,0,1-4.851-4.851V9.7A4.851,4.851,0,0,1,9.7,4.851h8.653l6.22,6.634a9.734,9.734,0,0,0,7.081,3.069H55.671a9.734,9.734,0,0,0,7.081-3.069l6.22-6.634h8.653A4.851,4.851,0,0,1,82.475,9.7V24.357C55.515,25.393,33.96,43.421,33.96,65.495A37.216,37.216,0,0,0,47.6,93.6a2.363,2.363,0,0,1,.708,2.29,23.132,23.132,0,0,1-4.8,10.089,4.89,4.89,0,0,0-.788,5.235,4.771,4.771,0,0,0,4.335,2.824h.919c7.5,0,17.679-1.383,25.419-7.622A2.579,2.579,0,0,1,75.37,106a63.8,63.8,0,0,0,9.531.728c28.088,0,50.94-18.5,50.94-41.238,0-22.074-21.558-40.1-48.515-41.138V9.7a9.7,9.7,0,0,0-9.7-9.7H9.7A9.7,9.7,0,0,0,0,9.7ZM130.99,65.495c0,20.063-20.675,36.386-46.089,36.386a59.21,59.21,0,0,1-8.815-.662,7.345,7.345,0,0,0-5.739,1.429c-7.3,5.885-17.676,6.622-23.154,6.5a27.971,27.971,0,0,0,5.851-12.172,7.173,7.173,0,0,0-2.258-7.035A32.447,32.447,0,0,1,38.812,65.495c0-20.063,20.675-36.386,46.089-36.386S130.99,45.432,130.99,65.495ZM62.322,4.851,59.212,8.17A4.871,4.871,0,0,1,55.671,9.7H31.656A4.851,4.851,0,0,1,28.117,8.17l-3.11-3.318ZM9.7,133.415H77.624a9.6,9.6,0,0,0,4.851-1.349v3.774a4.851,4.851,0,0,1-4.851,4.851H9.7a4.851,4.851,0,0,1-4.851-4.851v-3.774A9.6,9.6,0,0,0,9.7,133.415Z" transform="translate(0 0)" fill="#0e65d1"/>
          <path id="Shape-12" data-name="Shape" d="M44.328,20.671c9.856,5.021,15.738,13.223,15.738,21.938a2.426,2.426,0,1,0,4.851,0c0-10.576-6.875-20.393-18.387-26.259a2.426,2.426,0,1,0-2.2,4.32Z" transform="translate(61.22 22.886)" fill="#0e65d1"/>
          <path id="Shape-13" data-name="Shape" d="M40.554,22.323a7.312,7.312,0,0,0,.189,1.569A16.992,16.992,0,0,0,30.851,39.3V49.452A7.277,7.277,0,0,0,26,56.283v2.426a7.277,7.277,0,0,0,7.277,7.277h5.2a9.657,9.657,0,0,0,18.717,0h5.2a7.277,7.277,0,0,0,7.277-7.277V56.283a7.277,7.277,0,0,0-4.851-6.831V39.3A16.992,16.992,0,0,0,54.92,23.892a7.277,7.277,0,1,0-14.365-1.569Zm7.277,46.089a4.834,4.834,0,0,1-4.177-2.426h8.354A4.834,4.834,0,0,1,47.832,68.412Zm16.98-9.7a2.426,2.426,0,0,1-2.426,2.426H33.277a2.426,2.426,0,0,1-2.426-2.426V56.283a2.426,2.426,0,0,1,2.426-2.426H62.386a2.426,2.426,0,0,1,2.426,2.426ZM59.96,39.3v9.7H35.7V39.3a12.129,12.129,0,0,1,24.257,0Zm-9.7-16.98c0,.068-.024.124-.029.189a15.282,15.282,0,0,0-4.793,0c0-.065-.029-.121-.029-.189a2.426,2.426,0,0,1,4.851,0Z" transform="translate(37.069 21.34)" fill="#0e65d1"/>
        </g>
      </g>
    </g>
    <path id="Path_1587" data-name="Path 1587" d="M-59.628.216a6.54,6.54,0,0,0,4.656-1.608,5.067,5.067,0,0,0,1.728-3.816,4.5,4.5,0,0,0-1.344-3.36,11.744,11.744,0,0,0-4.824-2.376c-2.3-.7-3.48-1.464-3.48-2.88,0-1.512,1.32-2.568,3.144-2.568a3.847,3.847,0,0,1,3.792,2.64l2.448-1.32a6.208,6.208,0,0,0-6.168-3.984,6.537,6.537,0,0,0-4.44,1.584,4.841,4.841,0,0,0-1.8,3.816,4.337,4.337,0,0,0,1.44,3.432A12.308,12.308,0,0,0-60.06-8.04c2.688.84,3.768,1.632,3.768,3,0,1.56-1.368,2.568-3.288,2.568a4.619,4.619,0,0,1-4.464-3.12l-2.5,1.3A6.931,6.931,0,0,0-59.628.216ZM-32.34,0h2.928V-18.792h-3.864L-39.54-4.416h-.024l-6.36-14.376h-3.768V0h2.9V-13.632h.048L-40.668,0h2.184l6.1-13.7h.048Zm13.176.216a6.54,6.54,0,0,0,4.656-1.608A5.067,5.067,0,0,0-12.78-5.208a4.5,4.5,0,0,0-1.344-3.36,11.744,11.744,0,0,0-4.824-2.376c-2.3-.7-3.48-1.464-3.48-2.88,0-1.512,1.32-2.568,3.144-2.568a3.847,3.847,0,0,1,3.792,2.64l2.448-1.32a6.208,6.208,0,0,0-6.168-3.984,6.537,6.537,0,0,0-4.44,1.584,4.841,4.841,0,0,0-1.8,3.816,4.337,4.337,0,0,0,1.44,3.432A12.308,12.308,0,0,0-19.6-8.04c2.688.84,3.768,1.632,3.768,3,0,1.56-1.368,2.568-3.288,2.568a4.619,4.619,0,0,1-4.464-3.12l-2.5,1.3A6.931,6.931,0,0,0-19.164.216Zm28.3-16.344v-2.664H-2.892V0H9.228V-2.688H.06V-8.232H8.316V-10.9H.06v-5.232ZM23.8,0V-7.152c0-1.944,1.08-3.24,2.832-3.24,1.9,0,2.736,1.224,2.736,3.168V0H32.22V-7.92c0-3.072-1.56-5.184-4.656-5.184A5.541,5.541,0,0,0,23.1-10.992,4.166,4.166,0,0,0,19.14-13.1a4.593,4.593,0,0,0-3.816,2.016v-1.728H12.54V0H15.4V-7.128c0-1.944,1.08-3.264,2.808-3.264,1.9,0,2.76,1.272,2.76,3.192V0Zm19.44-8.688c0,.72-.408,1.08-1.2,1.08H40.452c-2.256,0-5.328.936-5.328,3.912v.144A3.408,3.408,0,0,0,36.348-.84a4.611,4.611,0,0,0,3.1,1.056,4.053,4.053,0,0,0,3.768-1.968V0H46.02V-8.16a5.639,5.639,0,0,0-.432-2.3c-.792-1.752-2.4-2.616-4.8-2.616A5.482,5.482,0,0,0,35.34-9.816l2.184,1.248a3.3,3.3,0,0,1,3.192-2.04C42.324-10.608,43.236-9.744,43.236-8.688Zm-.024,3.5a2.943,2.943,0,0,1-3.192,3.12,1.8,1.8,0,0,1-2.04-1.752,1.464,1.464,0,0,1,.768-1.3,3.326,3.326,0,0,1,1.7-.48h2.76Zm6.6-10.464a1.84,1.84,0,0,0,2.64,0,1.84,1.84,0,0,0,0-2.64,1.8,1.8,0,0,0-2.64,0A1.84,1.84,0,0,0,49.812-15.648Zm2.76,2.832H49.716V0h2.856ZM56.388,0h2.856V-19.536H56.388ZM-78.528,21.312c0,.72-.408,1.08-1.2,1.08h-1.584c-2.256,0-5.328.936-5.328,3.912v.144a3.408,3.408,0,0,0,1.224,2.712,4.611,4.611,0,0,0,3.1,1.056,4.053,4.053,0,0,0,3.768-1.968V30h2.808V21.84a5.639,5.639,0,0,0-.432-2.3c-.792-1.752-2.4-2.616-4.8-2.616a5.482,5.482,0,0,0-5.448,3.264l2.184,1.248a3.3,3.3,0,0,1,3.192-2.04C-79.44,19.392-78.528,20.256-78.528,21.312Zm-.024,3.5a2.943,2.943,0,0,1-3.192,3.12,1.8,1.8,0,0,1-2.04-1.752,1.464,1.464,0,0,1,.768-1.3,3.326,3.326,0,0,1,1.7-.48h2.76Zm18,5.184V22.1c0-3.072-1.656-5.184-4.8-5.184a4.645,4.645,0,0,0-3.912,1.992V17.184h-2.784V30h2.856V22.872a2.919,2.919,0,0,1,2.952-3.24c1.9,0,2.832,1.272,2.832,3.192V30Zm2.808-6.432a6.711,6.711,0,0,0,1.8,4.656,5.843,5.843,0,0,0,4.512,1.968,6.061,6.061,0,0,0,2.3-.528,4.019,4.019,0,0,0,1.992-1.656V30h2.784V10.464h-2.856v8.544a3.8,3.8,0,0,0-1.9-1.536,5.575,5.575,0,0,0-2.256-.528,5.881,5.881,0,0,0-4.632,2.016A6.787,6.787,0,0,0-57.744,23.568ZM-51,19.512a3.542,3.542,0,0,1,2.76,1.176,4.129,4.129,0,0,1,1.08,2.88,4.129,4.129,0,0,1-1.08,2.88A3.569,3.569,0,0,1-51,27.6a3.657,3.657,0,0,1-2.784-1.152,4.221,4.221,0,0,1-1.056-2.88,4.221,4.221,0,0,1,1.056-2.88A3.593,3.593,0,0,1-51,19.512ZM-36.744,30h3.024l1.728-4.416h9.216l1.7,4.416H-18l-7.608-18.792h-3.48Zm9.36-15.96,3.576,8.928h-7.128Zm24.72,9.5A6.771,6.771,0,0,0-4.416,18.96a5.685,5.685,0,0,0-4.536-2.016,5.892,5.892,0,0,0-2.328.528,4.123,4.123,0,0,0-1.968,1.7V17.184h-2.784V36.312h2.856V28.128a4.148,4.148,0,0,0,1.92,1.56,6.123,6.123,0,0,0,2.232.5,5.873,5.873,0,0,0,4.56-1.968A6.727,6.727,0,0,0-2.664,23.544Zm-9.5-2.856a3.593,3.593,0,0,1,2.784-1.176,3.508,3.508,0,0,1,2.76,1.176,4.129,4.129,0,0,1,1.08,2.88,4.129,4.129,0,0,1-1.08,2.88A3.569,3.569,0,0,1-9.384,27.6a3.657,3.657,0,0,1-2.784-1.152,4.221,4.221,0,0,1-1.056-2.88A4.221,4.221,0,0,1-12.168,20.688ZM13.68,23.544a6.771,6.771,0,0,0-1.752-4.584,5.685,5.685,0,0,0-4.536-2.016,5.892,5.892,0,0,0-2.328.528,4.123,4.123,0,0,0-1.968,1.7V17.184H.312V36.312H3.168V28.128a4.148,4.148,0,0,0,1.92,1.56,6.123,6.123,0,0,0,2.232.5,5.873,5.873,0,0,0,4.56-1.968A6.727,6.727,0,0,0,13.68,23.544Zm-9.5-2.856A3.593,3.593,0,0,1,6.96,19.512a3.508,3.508,0,0,1,2.76,1.176,4.38,4.38,0,0,1,0,5.76A3.569,3.569,0,0,1,6.96,27.6a3.657,3.657,0,0,1-2.784-1.152,4.455,4.455,0,0,1,0-5.76Zm26.136.624c0,.72-.408,1.08-1.2,1.08H27.528c-2.256,0-5.328.936-5.328,3.912v.144a3.408,3.408,0,0,0,1.224,2.712,4.611,4.611,0,0,0,3.1,1.056,4.053,4.053,0,0,0,3.768-1.968V30H33.1V21.84a5.639,5.639,0,0,0-.432-2.3c-.792-1.752-2.4-2.616-4.8-2.616a5.482,5.482,0,0,0-5.448,3.264L24.6,21.432a3.3,3.3,0,0,1,3.192-2.04C29.4,19.392,30.312,20.256,30.312,21.312Zm-.024,3.5a2.943,2.943,0,0,1-3.192,3.12,1.8,1.8,0,0,1-2.04-1.752,1.464,1.464,0,0,1,.768-1.3,3.326,3.326,0,0,1,1.7-.48h2.76ZM36.792,30h2.856V10.464H36.792Zm18.456-5.568a7.83,7.83,0,0,0,.048-.888,6.866,6.866,0,0,0-1.656-4.8,5.863,5.863,0,0,0-4.584-1.824,6.072,6.072,0,0,0-4.608,1.944,6.6,6.6,0,0,0-1.848,4.7,6.514,6.514,0,0,0,1.92,4.776,6.588,6.588,0,0,0,4.8,1.9,6.077,6.077,0,0,0,5.472-3.1l-2.064-1.368a3.615,3.615,0,0,1-3.456,1.992,3.913,3.913,0,0,1-2.592-.936,3.16,3.16,0,0,1-1.152-2.4Zm-6.192-5.064a3.083,3.083,0,0,1,3.336,2.9h-6.72A3.315,3.315,0,0,1,49.056,19.368Zm16.176-2.232a2.564,2.564,0,0,0-.7-.072,3.806,3.806,0,0,0-3.528,2.16v-2.04H58.224V30H61.08V23.5c0-2.232,1.152-3.5,3.336-3.5a4.126,4.126,0,0,1,.816.072Zm9.408,2.616V17.184H71.5v-3.96H68.64v3.96H66.288v2.568H68.64v6.12c0,2.784,1.632,4.272,4.44,4.272a4.482,4.482,0,0,0,1.536-.264V27.456a4.067,4.067,0,0,1-.912.1c-1.464,0-2.208-.6-2.208-2.136V19.752Zm7.152,10.464a5.284,5.284,0,0,0,3.5-1.1,3.6,3.6,0,0,0,1.344-2.88c0-1.992-1.536-3.384-4.44-4.032-1.656-.36-2.376-.792-2.376-1.632,0-.7.912-1.248,1.8-1.248a2.826,2.826,0,0,1,2.688,1.728L86.52,19.8a4.84,4.84,0,0,0-4.8-2.88,5.068,5.068,0,0,0-3.264,1.1,3.445,3.445,0,0,0-1.392,2.832,3.3,3.3,0,0,0,.912,2.328,5.87,5.87,0,0,0,3.192,1.536c1.752.36,2.64.936,2.64,1.68,0,.864-.936,1.416-2.016,1.416a3.3,3.3,0,0,1-3.072-2.064L76.488,27A5.358,5.358,0,0,0,81.792,30.216Z" transform="translate(422 24887)"/>
    <path id="Path_1588" data-name="Path 1588" d="M-59.952-4.176l-4.224-14.616h-3.168L-61.68,0h3.312l4.536-14.688h.024L-49.32,0h3.36l5.712-18.792H-43.32l-4.3,14.616-4.536-14.616H-55.44Zm27-8.9a6.687,6.687,0,0,0-4.8,1.92,6.325,6.325,0,0,0-1.992,4.728A6.3,6.3,0,0,0-37.776-1.7a6.687,6.687,0,0,0,4.8,1.92A6.553,6.553,0,0,0-28.2-1.7,6.41,6.41,0,0,0-26.232-6.48a6.252,6.252,0,0,0-1.968-4.7A6.594,6.594,0,0,0-32.952-13.08ZM-35.76-9.312a3.593,3.593,0,0,1,2.784-1.176,3.508,3.508,0,0,1,2.76,1.176,4.129,4.129,0,0,1,1.08,2.88,4.221,4.221,0,0,1-1.056,2.88,3.508,3.508,0,0,1-2.76,1.176,3.613,3.613,0,0,1-2.784-1.2,4.23,4.23,0,0,1-1.08-2.9A4.058,4.058,0,0,1-35.76-9.312Zm19.512-3.552a2.564,2.564,0,0,0-.7-.072,3.806,3.806,0,0,0-3.528,2.16v-2.04h-2.784V0H-20.4V-6.5c0-2.232,1.152-3.5,3.336-3.5a4.126,4.126,0,0,1,.816.072ZM-13.824,0h2.856V-6.264h.072L-5.544,0h3.768l-6.1-7.008,5.784-5.808H-5.976l-4.968,5.04h-.024v-11.76h-2.856ZM7.536-19.416a5.163,5.163,0,0,0-1.32-.192c-3.144,0-5.04,1.824-5.04,4.992v1.8H-1.176v2.52H1.176V0h2.88V-10.3H7.464v-2.52H4.056v-1.7c0-1.7.816-2.544,2.448-2.544a4.311,4.311,0,0,1,1.032.1Zm7.92,6.336a6.687,6.687,0,0,0-4.8,1.92A6.325,6.325,0,0,0,8.664-6.432,6.3,6.3,0,0,0,10.632-1.7a6.687,6.687,0,0,0,4.8,1.92A6.553,6.553,0,0,0,20.208-1.7,6.41,6.41,0,0,0,22.176-6.48a6.252,6.252,0,0,0-1.968-4.7A6.594,6.594,0,0,0,15.456-13.08ZM12.648-9.312a3.593,3.593,0,0,1,2.784-1.176,3.508,3.508,0,0,1,2.76,1.176,4.129,4.129,0,0,1,1.08,2.88,4.221,4.221,0,0,1-1.056,2.88,3.508,3.508,0,0,1-2.76,1.176,3.613,3.613,0,0,1-2.784-1.2,4.23,4.23,0,0,1-1.08-2.9A4.058,4.058,0,0,1,12.648-9.312ZM32.16-12.864a2.564,2.564,0,0,0-.7-.072,3.806,3.806,0,0,0-3.528,2.16v-2.04H25.152V0h2.856V-6.5c0-2.232,1.152-3.5,3.336-3.5a4.126,4.126,0,0,1,.816.072ZM40.1.216A6.021,6.021,0,0,0,43.92-.936a5.956,5.956,0,0,0,2.04-2.712l-2.5-1.1a3.3,3.3,0,0,1-3.312,2.376A3.573,3.573,0,0,1,37.44-3.528,4.144,4.144,0,0,1,36.36-6.48a3.969,3.969,0,0,1,1.08-2.88,3.662,3.662,0,0,1,2.688-1.128,3.227,3.227,0,0,1,3.288,2.352l2.448-1.1a5.769,5.769,0,0,0-5.76-3.84,6.32,6.32,0,0,0-4.752,1.968,6.531,6.531,0,0,0-1.92,4.68,6.46,6.46,0,0,0,1.92,4.752A6.44,6.44,0,0,0,40.1.216ZM60.5-5.568a7.83,7.83,0,0,0,.048-.888,6.866,6.866,0,0,0-1.656-4.8,5.863,5.863,0,0,0-4.584-1.824A6.072,6.072,0,0,0,49.7-11.136a6.6,6.6,0,0,0-1.848,4.7,6.514,6.514,0,0,0,1.92,4.776,6.588,6.588,0,0,0,4.8,1.9,6.077,6.077,0,0,0,5.472-3.1L57.984-4.224a3.615,3.615,0,0,1-3.456,1.992,3.913,3.913,0,0,1-2.592-.936,3.16,3.16,0,0,1-1.152-2.4Zm-6.192-5.064a3.083,3.083,0,0,1,3.336,2.9h-6.72A3.315,3.315,0,0,1,54.312-10.632Zm-113.8,37.176a6.771,6.771,0,0,0-1.752-4.584,5.685,5.685,0,0,0-4.536-2.016,5.892,5.892,0,0,0-2.328.528,4.123,4.123,0,0,0-1.968,1.7V20.184h-2.784V39.312H-70V31.128a4.148,4.148,0,0,0,1.92,1.56,6.123,6.123,0,0,0,2.232.5,5.873,5.873,0,0,0,4.56-1.968A6.727,6.727,0,0,0-59.484,26.544Zm-9.5-2.856A3.593,3.593,0,0,1-66.2,22.512a3.508,3.508,0,0,1,2.76,1.176,4.129,4.129,0,0,1,1.08,2.88,4.129,4.129,0,0,1-1.08,2.88A3.569,3.569,0,0,1-66.2,30.6a3.657,3.657,0,0,1-2.784-1.152,4.221,4.221,0,0,1-1.056-2.88A4.221,4.221,0,0,1-68.988,23.688ZM-49.5,20.136a2.564,2.564,0,0,0-.7-.072,3.806,3.806,0,0,0-3.528,2.16v-2.04h-2.784V33h2.856V26.5c0-2.232,1.152-3.5,3.336-3.5a4.126,4.126,0,0,1,.816.072Zm8.04-.216a6.687,6.687,0,0,0-4.8,1.92,6.325,6.325,0,0,0-1.992,4.728A6.3,6.3,0,0,0-46.284,31.3a6.687,6.687,0,0,0,4.8,1.92,6.553,6.553,0,0,0,4.776-1.92A6.409,6.409,0,0,0-34.74,26.52a6.252,6.252,0,0,0-1.968-4.7A6.594,6.594,0,0,0-41.46,19.92Zm-2.808,3.768a3.593,3.593,0,0,1,2.784-1.176,3.508,3.508,0,0,1,2.76,1.176,4.129,4.129,0,0,1,1.08,2.88,4.221,4.221,0,0,1-1.056,2.88,3.508,3.508,0,0,1-2.76,1.176,3.613,3.613,0,0,1-2.784-1.2,4.23,4.23,0,0,1-1.08-2.9A4.058,4.058,0,0,1-44.268,23.688Zm11.616,2.88a6.711,6.711,0,0,0,1.8,4.656,5.843,5.843,0,0,0,4.512,1.968,6.062,6.062,0,0,0,2.3-.528,4.019,4.019,0,0,0,1.992-1.656V33h2.784V13.464h-2.856v8.544a3.8,3.8,0,0,0-1.9-1.536,5.575,5.575,0,0,0-2.256-.528A5.881,5.881,0,0,0-30.9,21.96,6.787,6.787,0,0,0-32.652,26.568Zm6.744-4.056a3.542,3.542,0,0,1,2.76,1.176,4.129,4.129,0,0,1,1.08,2.88,4.129,4.129,0,0,1-1.08,2.88,3.569,3.569,0,0,1-2.76,1.152,3.657,3.657,0,0,1-2.784-1.152,4.221,4.221,0,0,1-1.056-2.88,4.221,4.221,0,0,1,1.056-2.88A3.593,3.593,0,0,1-25.908,22.512Zm10.344-2.328v7.872c0,3.072,1.7,5.208,4.8,5.208a4.645,4.645,0,0,0,3.912-1.992V33h2.784V20.184H-6.924v7.128a2.919,2.919,0,0,1-2.952,3.24c-1.9,0-2.832-1.272-2.832-3.192V20.184ZM5.58,33.216A6.021,6.021,0,0,0,9.4,32.064a5.956,5.956,0,0,0,2.04-2.712l-2.5-1.1a3.3,3.3,0,0,1-3.312,2.376,3.573,3.573,0,0,1-2.712-1.152,4.143,4.143,0,0,1-1.08-2.952,3.969,3.969,0,0,1,1.08-2.88A3.662,3.662,0,0,1,5.6,22.512a3.227,3.227,0,0,1,3.288,2.352l2.448-1.1a5.769,5.769,0,0,0-5.76-3.84A6.32,6.32,0,0,0,.828,21.888a6.531,6.531,0,0,0-1.92,4.68A6.52,6.52,0,0,0,5.58,33.216Zm15.6-10.464V20.184H18.036v-3.96H15.18v3.96H12.828v2.568H15.18v6.12c0,2.784,1.632,4.272,4.44,4.272a4.482,4.482,0,0,0,1.536-.264V30.456a4.067,4.067,0,0,1-.912.1c-1.464,0-2.208-.6-2.208-2.136V22.752Zm3.1-5.4a1.867,1.867,0,1,0,2.64-2.64,1.8,1.8,0,0,0-2.64,0A1.84,1.84,0,0,0,24.276,17.352Zm2.76,2.832H24.18V33h2.856Zm2.3,0L34.764,33H37.62l5.352-12.816h-3L36.2,29.664l-3.768-9.48Zm16.1-2.832a1.867,1.867,0,1,0,2.64-2.64,1.8,1.8,0,0,0-2.64,0A1.84,1.84,0,0,0,45.444,17.352Zm2.76,2.832H45.348V33H48.2ZM59,22.752V20.184H55.86v-3.96H53v3.96H50.652v2.568H53v6.12c0,2.784,1.632,4.272,4.44,4.272a4.482,4.482,0,0,0,1.536-.264V30.456a4.067,4.067,0,0,1-.912.1c-1.464,0-2.208-.6-2.208-2.136V22.752Zm4.728-2.568H60.468L66.18,31.56l-3.528,7.752H65.7l8.808-19.128h-3.1l-3.7,8.4Z" transform="translate(779 24887)"/>
    <path id="Path_1589" data-name="Path 1589" d="M-79.044,0h2.952V-7.128h3.576L-68.436,0H-65.1l-4.464-7.632a5.42,5.42,0,0,0,3.984-5.376,5.808,5.808,0,0,0-1.56-4.128,6.374,6.374,0,0,0-4.848-1.656h-7.056Zm2.952-16.056H-72.3c3.072,0,3.72,1.68,3.72,3.12,0,1.728-1.1,3.144-3.72,3.144h-3.792ZM-50.8-5.568a7.83,7.83,0,0,0,.048-.888,6.866,6.866,0,0,0-1.656-4.8,5.863,5.863,0,0,0-4.584-1.824A6.072,6.072,0,0,0-61.6-11.136a6.6,6.6,0,0,0-1.848,4.7,6.514,6.514,0,0,0,1.92,4.776,6.588,6.588,0,0,0,4.8,1.9,6.077,6.077,0,0,0,5.472-3.1l-2.064-1.368a3.615,3.615,0,0,1-3.456,1.992,3.913,3.913,0,0,1-2.592-.936,3.16,3.16,0,0,1-1.152-2.4Zm-6.192-5.064a3.083,3.083,0,0,1,3.336,2.9h-6.72A3.315,3.315,0,0,1-56.988-10.632ZM-40.5-8.688c0,.72-.408,1.08-1.2,1.08h-1.584c-2.256,0-5.328.936-5.328,3.912v.144A3.408,3.408,0,0,0-47.388-.84a4.611,4.611,0,0,0,3.1,1.056,4.053,4.053,0,0,0,3.768-1.968V0h2.808V-8.16a5.639,5.639,0,0,0-.432-2.3c-.792-1.752-2.4-2.616-4.8-2.616A5.482,5.482,0,0,0-48.4-9.816l2.184,1.248a3.3,3.3,0,0,1,3.192-2.04C-41.412-10.608-40.5-9.744-40.5-8.688Zm-.024,3.5a2.943,2.943,0,0,1-3.192,3.12,1.8,1.8,0,0,1-2.04-1.752,1.464,1.464,0,0,1,.768-1.3,3.326,3.326,0,0,1,1.7-.48h2.76ZM-34.02,0h2.856V-19.536H-34.02Zm19.992-10.248v-2.568h-3.144v-3.96h-2.856v3.96H-22.38v2.568h2.352v6.12c0,2.784,1.632,4.272,4.44,4.272A4.482,4.482,0,0,0-14.052-.12V-2.544a4.067,4.067,0,0,1-.912.1c-1.464,0-2.208-.6-2.208-2.136v-5.664Zm3.1-5.4a1.84,1.84,0,0,0,2.64,0,1.84,1.84,0,0,0,0-2.64,1.8,1.8,0,0,0-2.64,0A1.84,1.84,0,0,0-10.932-15.648Zm2.76,2.832h-2.856V0h2.856ZM6.9,0V-7.152c0-1.944,1.08-3.24,2.832-3.24,1.9,0,2.736,1.224,2.736,3.168V0h2.856V-7.92c0-3.072-1.56-5.184-4.656-5.184A5.541,5.541,0,0,0,6.2-10.992,4.166,4.166,0,0,0,2.244-13.1a4.593,4.593,0,0,0-3.816,2.016v-1.728H-4.356V0H-1.5V-7.128c0-1.944,1.08-3.264,2.808-3.264,1.9,0,2.76,1.272,2.76,3.192V0ZM30.8-5.568a7.83,7.83,0,0,0,.048-.888,6.866,6.866,0,0,0-1.656-4.8,5.863,5.863,0,0,0-4.584-1.824A6.072,6.072,0,0,0,20-11.136a6.6,6.6,0,0,0-1.848,4.7,6.514,6.514,0,0,0,1.92,4.776,6.588,6.588,0,0,0,4.8,1.9,6.077,6.077,0,0,0,5.472-3.1L28.284-4.224a3.615,3.615,0,0,1-3.456,1.992,3.913,3.913,0,0,1-2.592-.936,3.16,3.16,0,0,1-1.152-2.4Zm-6.192-5.064a3.083,3.083,0,0,1,3.336,2.9h-6.72A3.315,3.315,0,0,1,24.612-10.632ZM44.268.216a5.284,5.284,0,0,0,3.5-1.1,3.6,3.6,0,0,0,1.344-2.88c0-1.992-1.536-3.384-4.44-4.032C43.02-8.16,42.3-8.592,42.3-9.432c0-.7.912-1.248,1.8-1.248a2.826,2.826,0,0,1,2.688,1.728L49-10.2a4.84,4.84,0,0,0-4.8-2.88,5.068,5.068,0,0,0-3.264,1.1A3.445,3.445,0,0,0,39.54-9.144a3.3,3.3,0,0,0,.912,2.328A5.87,5.87,0,0,0,43.644-5.28c1.752.36,2.64.936,2.64,1.68,0,.864-.936,1.416-2.016,1.416A3.3,3.3,0,0,1,41.2-4.248L38.964-3A5.358,5.358,0,0,0,44.268.216ZM52.26-15.648a1.84,1.84,0,0,0,2.64,0,1.84,1.84,0,0,0,0-2.64,1.8,1.8,0,0,0-2.64,0A1.84,1.84,0,0,0,52.26-15.648Zm2.76,2.832H52.164V0H55.02Zm10.8,2.568v-2.568H62.676v-3.96H59.82v3.96H57.468v2.568H59.82v6.12c0,2.784,1.632,4.272,4.44,4.272A4.482,4.482,0,0,0,65.8-.12V-2.544a4.067,4.067,0,0,1-.912.1c-1.464,0-2.208-.6-2.208-2.136v-5.664Zm14.568,4.68a7.831,7.831,0,0,0,.048-.888,6.866,6.866,0,0,0-1.656-4.8A5.863,5.863,0,0,0,74.2-13.08a6.072,6.072,0,0,0-4.608,1.944,6.6,6.6,0,0,0-1.848,4.7,6.514,6.514,0,0,0,1.92,4.776,6.588,6.588,0,0,0,4.8,1.9,6.077,6.077,0,0,0,5.472-3.1L77.868-4.224a3.615,3.615,0,0,1-3.456,1.992,3.913,3.913,0,0,1-2.592-.936,3.16,3.16,0,0,1-1.152-2.4ZM74.2-10.632a3.083,3.083,0,0,1,3.336,2.9h-6.72A3.315,3.315,0,0,1,74.2-10.632ZM-94.572,20.184-89.148,33h2.856l5.352-12.816h-3l-3.768,9.48-3.768-9.48Zm16.1-2.832a1.84,1.84,0,0,0,2.64,0,1.84,1.84,0,0,0,0-2.64,1.8,1.8,0,0,0-2.64,0A1.84,1.84,0,0,0-78.468,17.352Zm2.76,2.832h-2.856V33h2.856Zm7.968,13.032a5.284,5.284,0,0,0,3.5-1.1,3.6,3.6,0,0,0,1.344-2.88c0-1.992-1.536-3.384-4.44-4.032-1.656-.36-2.376-.792-2.376-1.632,0-.7.912-1.248,1.8-1.248a2.826,2.826,0,0,1,2.688,1.728l2.208-1.248a4.84,4.84,0,0,0-4.8-2.88,5.068,5.068,0,0,0-3.264,1.1,3.445,3.445,0,0,0-1.392,2.832,3.3,3.3,0,0,0,.912,2.328,5.87,5.87,0,0,0,3.192,1.536c1.752.36,2.64.936,2.64,1.68,0,.864-.936,1.416-2.016,1.416a3.3,3.3,0,0,1-3.072-2.064L-73.044,30A5.358,5.358,0,0,0-67.74,33.216Zm7.992-15.864a1.84,1.84,0,0,0,2.64,0,1.84,1.84,0,0,0,0-2.64,1.8,1.8,0,0,0-2.64,0A1.84,1.84,0,0,0-59.748,17.352Zm2.76,2.832h-2.856V33h2.856Zm10.8,2.568V20.184h-3.144v-3.96h-2.856v3.96H-54.54v2.568h2.352v6.12c0,2.784,1.632,4.272,4.44,4.272a4.482,4.482,0,0,0,1.536-.264V30.456a4.067,4.067,0,0,1-.912.1c-1.464,0-2.208-.6-2.208-2.136V22.752ZM-25.6,33V25.848c0-1.944,1.08-3.24,2.832-3.24,1.9,0,2.736,1.224,2.736,3.168V33h2.856V25.08c0-3.072-1.56-5.184-4.656-5.184a5.541,5.541,0,0,0-4.464,2.112,4.166,4.166,0,0,0-3.96-2.112,4.593,4.593,0,0,0-3.816,2.016V20.184h-2.784V33H-34V25.872c0-1.944,1.08-3.264,2.808-3.264,1.9,0,2.76,1.272,2.76,3.192V33ZM-7.572,19.92a6.687,6.687,0,0,0-4.8,1.92,6.325,6.325,0,0,0-1.992,4.728A6.3,6.3,0,0,0-12.4,31.3a6.687,6.687,0,0,0,4.8,1.92A6.553,6.553,0,0,0-2.82,31.3,6.41,6.41,0,0,0-.852,26.52a6.252,6.252,0,0,0-1.968-4.7A6.594,6.594,0,0,0-7.572,19.92Zm-2.808,3.768A3.593,3.593,0,0,1-7.6,22.512a3.508,3.508,0,0,1,2.76,1.176,4.129,4.129,0,0,1,1.08,2.88,4.221,4.221,0,0,1-1.056,2.88,3.508,3.508,0,0,1-2.76,1.176,3.613,3.613,0,0,1-2.784-1.2,4.23,4.23,0,0,1-1.08-2.9A4.058,4.058,0,0,1-10.38,23.688ZM13.62,33V25.1c0-3.072-1.656-5.184-4.8-5.184a4.645,4.645,0,0,0-3.912,1.992V20.184H2.124V33H4.98V25.872a2.919,2.919,0,0,1,2.952-3.24c1.9,0,2.832,1.272,2.832,3.192V33Zm3.792-15.648a1.867,1.867,0,1,0,2.64-2.64,1.8,1.8,0,0,0-2.64,0A1.84,1.84,0,0,0,17.412,17.352Zm2.76,2.832H17.316V33h2.856Zm10.8,2.568V20.184H27.828v-3.96H24.972v3.96H22.62v2.568h2.352v6.12c0,2.784,1.632,4.272,4.44,4.272a4.482,4.482,0,0,0,1.536-.264V30.456a4.067,4.067,0,0,1-.912.1c-1.464,0-2.208-.6-2.208-2.136V22.752ZM39.66,19.92a6.687,6.687,0,0,0-4.8,1.92,6.325,6.325,0,0,0-1.992,4.728A6.3,6.3,0,0,0,34.836,31.3a6.687,6.687,0,0,0,4.8,1.92,6.553,6.553,0,0,0,4.776-1.92A6.409,6.409,0,0,0,46.38,26.52a6.252,6.252,0,0,0-1.968-4.7A6.594,6.594,0,0,0,39.66,19.92Zm-2.808,3.768a3.593,3.593,0,0,1,2.784-1.176,3.508,3.508,0,0,1,2.76,1.176,4.129,4.129,0,0,1,1.08,2.88,4.221,4.221,0,0,1-1.056,2.88,3.508,3.508,0,0,1-2.76,1.176,3.613,3.613,0,0,1-2.784-1.2,4.23,4.23,0,0,1-1.08-2.9A4.058,4.058,0,0,1,36.852,23.688Zm19.512-3.552a2.564,2.564,0,0,0-.7-.072,3.806,3.806,0,0,0-3.528,2.16v-2.04H49.356V33h2.856V26.5c0-2.232,1.152-3.5,3.336-3.5a4.126,4.126,0,0,1,.816.072Zm2.52-2.784a1.867,1.867,0,0,0,2.64-2.64,1.8,1.8,0,0,0-2.64,0A1.84,1.84,0,0,0,58.884,17.352Zm2.76,2.832H58.788V33h2.856ZM76.956,33V25.1c0-3.072-1.656-5.184-4.8-5.184a4.645,4.645,0,0,0-3.912,1.992V20.184H65.46V33h2.856V25.872a2.919,2.919,0,0,1,2.952-3.24c1.9,0,2.832,1.272,2.832,3.192V33ZM86,33.1a5.754,5.754,0,0,0,2.256-.528A4.07,4.07,0,0,0,90.2,30.936v2.016a3.622,3.622,0,0,1-3.888,3.912,4.3,4.3,0,0,1-4.032-2.712L79.908,35.52c1.176,2.592,3.336,3.888,6.456,3.888a6.7,6.7,0,0,0,4.848-1.776,6.363,6.363,0,0,0,1.848-4.8V20.184H90.276v1.944a4.217,4.217,0,0,0-1.92-1.608,5.636,5.636,0,0,0-2.256-.552,5.831,5.831,0,0,0-4.608,2.016,6.8,6.8,0,0,0-1.728,4.56,6.618,6.618,0,0,0,1.752,4.608A5.817,5.817,0,0,0,86,33.1Zm4.248-6.6a4.129,4.129,0,0,1-1.08,2.88,3.518,3.518,0,0,1-2.736,1.152,3.6,3.6,0,0,1-2.76-1.152A4.221,4.221,0,0,1,82.62,26.5a4.017,4.017,0,0,1,1.056-2.832,3.882,3.882,0,0,1,5.52,0A4.058,4.058,0,0,1,90.252,26.5Z" transform="translate(1499 24888)"/>
    <g id="Workforce_productivity" data-name="Workforce productivity" transform="translate(706 24679.828)">
      <path id="Path_647" data-name="Path 647" d="M87.708,68.317A21.219,21.219,0,0,1,84.9,75.048l7.263,7.263-6.852,6.852L78.048,81.9a21.219,21.219,0,0,1-6.731,2.809V94.95H61.632V84.708A21.219,21.219,0,0,1,54.9,81.9l-7.263,7.263-6.852-6.852,7.263-7.263a21.219,21.219,0,0,1-2.809-6.731H35V58.633H45.241a20.866,20.866,0,0,1,1.525-4.382A16.947,16.947,0,0,1,48.05,51.9l-7.263-7.263,6.852-6.852L54.9,45.05a21.219,21.219,0,0,1,6.731-2.809V32h9.685V42.241a17.188,17.188,0,0,1,1.913.533,20.428,20.428,0,0,1,4.818,2.276l7.263-7.263,6.852,6.852L84.9,51.9a21.218,21.218,0,0,1,2.809,6.731H97.95v9.685Z" transform="translate(44.898 40.671)" fill="#d9d9d9"/>
      <path id="Path_648" data-name="Path 648" d="M55.324,40.025A.67.67,0,0,0,55.106,40a12.106,12.106,0,0,0-11.864,9.687A11.409,11.409,0,0,0,43,52.106,12.106,12.106,0,1,0,55.324,40.025Z" transform="translate(56.266 52.039)" fill="#f4f7f7"/>
      <path id="Path_649" data-name="Path 649" d="M116.53,56.265a53.243,53.243,0,0,1-14.309,36.341,54.234,54.234,0,0,1-12.081,9.66,52.487,52.487,0,0,1-19.611,6.755,51.3,51.3,0,0,1-7.263.508,53.1,53.1,0,0,1-26.923-7.288,54.523,54.523,0,0,1-9.66-7.263,53.347,53.347,0,0,1-10.871-14.5A52.713,52.713,0,0,1,10.1,59.412c-.073-1.041-.1-2.082-.1-3.147a53.265,53.265,0,1,1,106.53,0Z" transform="translate(9.369 -0.542)" fill="#e6e7e7"/>
      <path id="Path_650" data-name="Path 650" d="M101.161,50.626a43.6,43.6,0,0,1-43.58,43.58,43.1,43.1,0,0,1-19.635-4.7,41.72,41.72,0,0,1-9.491-6.489A43.537,43.537,0,0,1,14,50.626q0-1.852.145-3.632a43.58,43.58,0,0,1,87.016,3.632Z" transform="translate(15.054 5.097)" fill="#f4f7f7"/>
      <circle id="Ellipse_107" data-name="Ellipse 107" cx="4.842" cy="4.842" r="4.842" transform="translate(67.792 50.88)" fill="#fff"/>
      <path id="Path_652" data-name="Path 652" d="M36.9,72.083,53.844,55.136V48.09l6.247,1.695A14.558,14.558,0,0,1,70.792,63.8V79.347H3V63.8A14.558,14.558,0,0,1,13.7,49.785l6.247-1.695v7.046Z" transform="translate(-0.579 63.537)" fill="#d9d9d9"/>
      <path id="Path_653" data-name="Path 653" d="M43.9,49.113v7.046L26.948,73.107,10,56.159V49.113l6.392-1.743,10.556,8.789L37.5,47.37Z" transform="translate(9.369 62.513)" fill="#e6e7e8"/>
      <path id="Path_654" data-name="Path 654" d="M33.752,51.562,23.2,60.351,12.64,51.562l3.293-.9V44.42a19.488,19.488,0,0,0,14.527,0v6.247Z" transform="translate(13.121 58.321)" fill="#e6e7e7"/>
      <path id="Path_655" data-name="Path 655" d="M42.339,38.82a14.636,14.636,0,0,1-5.883-6.174L35.632,31l-4.019,4.019a19.352,19.352,0,0,1-13.679,5.665H9v4.842A19.363,19.363,0,0,0,35.632,63.492a21.682,21.682,0,0,0,2.131-1.041,19.369,19.369,0,0,0,9.975-16.924V40.685l.024-.1a14.9,14.9,0,0,1-5.423-1.767Z" transform="translate(7.948 39.25)" fill="#d9d9d9"/>
      <path id="Path_656" data-name="Path 656" d="M29.79,23a21.032,21.032,0,0,0-7.118,1.211,21.437,21.437,0,0,0-9.733,6.779A21.739,21.739,0,0,0,8,44.79v7.263H19.355A19.351,19.351,0,0,0,33.033,46.39l4.02-4.02.823,1.646a14.636,14.636,0,0,0,5.883,6.174,14.9,14.9,0,0,0,5.423,1.767,13.011,13.011,0,0,0,1.695.1h.7V44.79A21.79,21.79,0,0,0,29.79,23Z" transform="translate(6.527 27.88)" fill="#d9d9d9"/>
      <path id="Path_657" data-name="Path 657" d="M32.369,38H27.527a4.842,4.842,0,1,1-9.685,0H13a9.685,9.685,0,1,0,19.369,0Z" transform="translate(13.633 49.197)" fill="#0e65d1"/>
      <path id="Path_658" data-name="Path 658" d="M43.083,41.632H55.634V36.79H43.083a7.263,7.263,0,0,0-4.4-4.4V15H33.844V32.393a7.246,7.246,0,1,0,9.239,9.239Zm-9.239-2.421a2.421,2.421,0,1,1,2.421,2.421A2.421,2.421,0,0,1,33.844,39.211Z" transform="translate(36.369 16.511)" fill="#0e65d1"/>
      <rect id="Rectangle_655" data-name="Rectangle 655" width="4.842" height="4.842" transform="translate(70.213 19.406)" fill="#0e65d1"/>
      <rect id="Rectangle_656" data-name="Rectangle 656" width="4.842" height="4.842" transform="translate(93.179 31.754) rotate(-45)" fill="#0e65d1"/>
      <rect id="Rectangle_657" data-name="Rectangle 657" width="4.842" height="4.842" transform="translate(104.109 53.302)" fill="#0e65d1"/>
      <rect id="Rectangle_658" data-name="Rectangle 658" width="4.842" height="4.842" transform="translate(93.179 79.69) rotate(-45)" fill="#0e65d1"/>
      <rect id="Rectangle_659" data-name="Rectangle 659" width="4.842" height="4.842" transform="translate(70.213 87.197)" fill="#0e65d1"/>
      <rect id="Rectangle_660" data-name="Rectangle 660" width="4.842" height="4.842" transform="translate(45.243 31.754) rotate(-45)" fill="#0e65d1"/>
      <path id="Path_659" data-name="Path 659" d="M144.847,98.867h-8.392a23.607,23.607,0,0,0-1.629-3.915l5.946-5.946a2.421,2.421,0,0,0,0-3.423L133.92,78.73a2.421,2.421,0,0,0-3.423,0l-5.944,5.944c-.312-.165-.639-.3-.968-.453A55.686,55.686,0,1,0,18.948,57.708c0,.806.039,1.593.075,2.385a24.044,24.044,0,0,0-4.917,14.563v7.263a2.421,2.421,0,0,0,2.421,2.421v2.421a21.79,21.79,0,0,0,12.106,19.49v2.871l-14.154,3.85A17.023,17.023,0,0,0,2,129.325v15.544a2.421,2.421,0,0,0,2.421,2.421H72.213a2.421,2.421,0,0,0,2.421-2.421V129.325A17.025,17.025,0,0,0,62.148,112.97L48,109.123V106.6a55.4,55.4,0,0,0,32.731,6.457,2.344,2.344,0,0,0,1.165.341h8.392a23.61,23.61,0,0,0,1.629,3.915l-5.946,5.946a2.421,2.421,0,0,0,0,3.424l6.852,6.852a2.421,2.421,0,0,0,3.423,0l5.946-5.946a23.609,23.609,0,0,0,3.915,1.629v8.392a2.421,2.421,0,0,0,2.421,2.421h9.685a2.421,2.421,0,0,0,2.421-2.421v-8.392a23.61,23.61,0,0,0,3.915-1.629l5.946,5.946a2.421,2.421,0,0,0,3.423,0l6.852-6.852a2.421,2.421,0,0,0,0-3.423l-5.946-5.946a23.609,23.609,0,0,0,1.629-3.915h8.392a2.421,2.421,0,0,0,2.421-2.421v-9.685A2.421,2.421,0,0,0,144.847,98.867ZM18.948,74.656a19.369,19.369,0,0,1,38.738,0v4.724a12.028,12.028,0,0,1-9.113-6.573l-.826-1.654a2.421,2.421,0,0,0-1.78-1.307,2.455,2.455,0,0,0-2.1.678l-4.012,4.012A16.837,16.837,0,0,1,27.875,79.5H18.948ZM60.107,86.761V84.34a2.421,2.421,0,0,0,2.421-2.421V74.656A24.107,24.107,0,0,0,34.063,50.841,41.181,41.181,0,1,1,58.274,95.465a21.667,21.667,0,0,0,1.833-8.7Zm-38.738,0V84.34h6.506A21.642,21.642,0,0,0,43.28,77.958l1.695-1.695a16.81,16.81,0,0,0,10.29,7.561v2.937a16.948,16.948,0,0,1-33.9,0Zm2.421,28.7,3.39-.922L35.9,121.8v6.123h4.842v-6.128l8.716-7.263,3.39.922v4.2L38.317,134.177,23.79,119.65Zm14.527-6.905a21.719,21.719,0,0,0,4.842-.562v2.983a2.394,2.394,0,0,0,.845,1.8l-5.687,4.738-5.687-4.736a2.394,2.394,0,0,0,.845-1.8V107.99a21.719,21.719,0,0,0,4.842.562Zm31.475,20.773v13.123H6.842V129.325a12.164,12.164,0,0,1,8.917-11.682l3.189-.859v3.874a2.421,2.421,0,0,0,.709,1.711l16.948,16.948a2.421,2.421,0,0,0,3.423,0l16.948-16.948a2.421,2.421,0,0,0,.709-1.712v-3.874l3.181.867a12.169,12.169,0,0,1,8.924,11.675ZM52.36,103.419a21.95,21.95,0,0,0,3.489-3.743,46,46,0,1,0-26.858-47.36,24.236,24.236,0,0,0-5.084,2.922A50.764,50.764,0,1,1,52.36,103.407ZM103.8,105.14a55.958,55.958,0,0,0,10.675-8.554,9.653,9.653,0,1,1-10.784,9.544,9.081,9.081,0,0,1,.1-1Zm38.629,3.411h-7.82a2.421,2.421,0,0,0-2.361,1.879,18.718,18.718,0,0,1-2.484,5.963,2.421,2.421,0,0,0,.324,3.022l5.561,5.552-3.438,3.438-5.552-5.569a2.421,2.421,0,0,0-3.022-.324,18.718,18.718,0,0,1-5.963,2.5,2.421,2.421,0,0,0-1.879,2.349v7.82h-4.842v-7.82A2.421,2.421,0,0,0,109.072,125a18.717,18.717,0,0,1-5.963-2.484,2.421,2.421,0,0,0-3.022.324L94.536,128.4,91.1,124.967l5.569-5.552a2.421,2.421,0,0,0,.324-3.022,18.718,18.718,0,0,1-2.484-5.963,2.361,2.361,0,0,0-.257-.613q2.409-.908,4.7-2.024a14.527,14.527,0,1,0,19.173-15.362q1.562-1.949,2.946-4.034a17.675,17.675,0,0,1,2.564,1.341,2.421,2.421,0,0,0,3.026-.322l5.544-5.561,3.438,3.438-5.569,5.552a2.421,2.421,0,0,0-.324,3.022,18.718,18.718,0,0,1,2.5,5.963,2.421,2.421,0,0,0,2.349,1.879h7.82Z" transform="translate(-2 -1.985)" fill="#0e65d1"/>
    </g>
    <g id="Productivity_optimisation" data-name="Productivity optimisation" transform="translate(1064 24680.912)">
      <path id="Path_660" data-name="Path 660" d="M94.951,55.474A39.475,39.475,0,1,1,17.975,43.138c.148-.493.321-.962.493-1.431a39.492,39.492,0,0,1,74.016,0c.173.469.345.938.493,1.431A39.154,39.154,0,0,1,94.951,55.474Z" transform="translate(18.54 18.542)" fill="#f4f7f7"/>
      <path id="Path_661" data-name="Path 661" d="M136.228,60.979l-6.785-.839a56.835,56.835,0,0,0-5.9-14.211l.74-.962L133.86,32.68,116.417,15.237,103.168,25.55a56.836,56.836,0,0,0-14.211-5.9L86.884,3H62.213L60.14,19.654a56.837,56.837,0,0,0-14.211,5.9L32.68,15.237,15.237,32.68,24.81,44.967l.74.962a56.836,56.836,0,0,0-5.9,14.211l-6.785.839L3,62.213V86.884l5.65.715,11,1.357a56.836,56.836,0,0,0,5.9,14.211l-.765.987-9.548,12.262L32.68,133.86l13.249-10.313a56.836,56.836,0,0,0,14.211,5.9L62.213,146.1H86.884l2.072-16.654a56.835,56.835,0,0,0,14.211-5.9l13.249,10.313,17.443-17.443-9.548-12.262-.765-.987a56.836,56.836,0,0,0,5.9-14.211l11-1.357,5.65-.715V62.213Zm-32.073,39.7A39.475,39.475,0,0,1,37.047,62.213c.148-.493.321-.962.493-1.431a39.492,39.492,0,0,1,74.016,0c.173.469.345.938.493,1.431a39.448,39.448,0,0,1-7.9,38.463Z" transform="translate(-0.533 -0.533)" fill="#f4f7f7"/>
      <path id="Path_662" data-name="Path 662" d="M83.475,49.8v7.4H44V49.8A14.8,14.8,0,0,1,58.8,35l4.934,4.934L68.672,35A14.8,14.8,0,0,1,83.475,49.8Z" transform="translate(59.622 46.417)" fill="#d9d9d9"/>
      <path id="Path_663" data-name="Path 663" d="M59.869,32.46v6.267l-4.934,4.934L50,38.727V32.46A9.8,9.8,0,0,0,59.869,32.46Z" transform="translate(68.425 42.691)" fill="#fff"/>
      <path id="Path_664" data-name="Path 664" d="M71.672,32.336V37.27H68.785a4.949,4.949,0,0,1-3.5-1.456L61.8,32.336l-2.048,2.048a9.869,9.869,0,0,1-6.982,2.887H47V32.336a12.336,12.336,0,1,1,24.672,0Z" transform="translate(64.023 24.409)" fill="#d9d9d9"/>
      <path id="Path_665" data-name="Path 665" d="M67.738,29.934v4.934a9.854,9.854,0,0,1-14.8,8.536,10.424,10.424,0,0,1-2.048-1.554A9.93,9.93,0,0,1,48,34.869V29.934h3.306a9.869,9.869,0,0,0,6.982-2.887L60.336,25l3.479,3.479a4.949,4.949,0,0,0,3.5,1.456Z" transform="translate(65.491 31.745)" fill="#fff"/>
      <path id="Path_666" data-name="Path 666" d="M43.475,49.8v7.4H4V49.8A14.8,14.8,0,0,1,18.8,35l4.934,4.934L28.672,35A14.8,14.8,0,0,1,43.475,49.8Z" transform="translate(0.934 46.417)" fill="#d9d9d9"/>
      <path id="Path_667" data-name="Path 667" d="M19.869,32.46v6.267l-4.934,4.934L10,38.727V32.46A9.8,9.8,0,0,0,19.869,32.46Z" transform="translate(9.738 42.691)" fill="#fff"/>
      <path id="Path_668" data-name="Path 668" d="M31.672,32.336V37.27H28.785a4.949,4.949,0,0,1-3.5-1.456L21.8,32.336l-2.048,2.048a9.869,9.869,0,0,1-6.982,2.887H7V32.336a12.336,12.336,0,1,1,24.672,0Z" transform="translate(5.336 24.409)" fill="#d9d9d9"/>
      <path id="Path_669" data-name="Path 669" d="M27.738,29.934v4.934a9.854,9.854,0,0,1-14.8,8.536,10.424,10.424,0,0,1-2.048-1.554A9.93,9.93,0,0,1,8,34.869V29.934h3.306a9.869,9.869,0,0,0,6.982-2.887L20.336,25l3.479,3.479a4.949,4.949,0,0,0,3.5,1.456Z" transform="translate(6.803 31.745)" fill="#fff"/>
      <path id="Path_670" data-name="Path 670" d="M63.475,49.8v7.4H24V49.8A14.8,14.8,0,0,1,38.8,35l4.934,4.934L48.672,35A14.8,14.8,0,0,1,63.475,49.8Z" transform="translate(30.278 46.417)" fill="#d9d9d9"/>
      <path id="Path_671" data-name="Path 671" d="M39.869,32.46v6.267l-4.934,4.934L30,38.727V32.46A9.8,9.8,0,0,0,39.869,32.46Z" transform="translate(39.081 42.691)" fill="#fff"/>
      <path id="Path_672" data-name="Path 672" d="M51.672,32.336V37.27H48.785a4.949,4.949,0,0,1-3.5-1.456L41.8,32.336l-2.048,2.048a9.869,9.869,0,0,1-6.982,2.887H27V32.336a12.336,12.336,0,1,1,24.672,0Z" transform="translate(34.68 24.409)" fill="#d9d9d9"/>
      <path id="Path_673" data-name="Path 673" d="M47.737,29.934v4.934a9.854,9.854,0,0,1-14.8,8.536,10.424,10.424,0,0,1-2.048-1.554A9.93,9.93,0,0,1,28,34.869V29.934h3.306a9.869,9.869,0,0,0,6.982-2.887L40.336,25l3.479,3.479a4.949,4.949,0,0,0,3.5,1.456Z" transform="translate(36.147 31.745)" fill="#fff"/>
      <path id="Path_674" data-name="Path 674" d="M147.87,61.232l-7.708-.965V58.745a14.815,14.815,0,0,0-9.98-13.979l7.091-9.1a2.467,2.467,0,0,0-.2-3.262L119.628,14.96a2.467,2.467,0,0,0-3.262-.2l-11.949,9.3a59.526,59.526,0,0,0-11.749-4.873L90.8,4.161A2.467,2.467,0,0,0,88.352,2H63.68a2.467,2.467,0,0,0-2.447,2.161l-1.87,15.025a59.44,59.44,0,0,0-11.749,4.873l-11.951-9.3a2.467,2.467,0,0,0-3.259.2L14.96,32.4a2.467,2.467,0,0,0-.2,3.262l7.091,9.1a14.815,14.815,0,0,0-9.98,13.979v1.522l-7.707.965A2.467,2.467,0,0,0,2,63.68V88.352A2.467,2.467,0,0,0,4.158,90.8l1.888.247A17.149,17.149,0,0,0,4.467,98.22v7.4a2.467,2.467,0,0,0,2.467,2.467H21.2l-6.447,8.28a2.467,2.467,0,0,0,.2,3.259L32.4,137.071a2.467,2.467,0,0,0,3.259.2l11.951-9.3a59.437,59.437,0,0,0,11.749,4.873l1.87,15.025a2.467,2.467,0,0,0,2.447,2.161H88.352A2.467,2.467,0,0,0,90.8,147.87l1.87-15.025a59.524,59.524,0,0,0,11.749-4.873l11.949,9.3a2.467,2.467,0,0,0,3.262-.2l17.443-17.443a2.467,2.467,0,0,0,.2-3.259l-6.447-8.28H145.1a2.467,2.467,0,0,0,2.467-2.467v-7.4a17.149,17.149,0,0,0-1.579-7.182l1.89-.247a2.467,2.467,0,0,0,2.156-2.44V63.68A2.467,2.467,0,0,0,147.87,61.232ZM127.827,82.4l-2.467,2.467L122.892,82.4V80.7a12.336,12.336,0,0,0,4.934,0Zm-2.467-6.38a7.4,7.4,0,0,1-7.4-7.4V66.147h.846a12.257,12.257,0,0,0,8.724-3.612l.3-.3,1.744,1.742a7.3,7.3,0,0,0,3.19,1.848v2.788A7.4,7.4,0,0,1,125.359,76.016Zm9.869-17.27v2.467H134.8a2.489,2.489,0,0,1-1.744-.723L129.571,57a2.467,2.467,0,0,0-3.489,0l-2.043,2.045a7.36,7.36,0,0,1-5.235,2.166h-3.313V58.745a9.869,9.869,0,1,1,19.737,0Zm-118.425,0a9.869,9.869,0,0,1,19.738,0v2.467h-.422a2.467,2.467,0,0,1-1.747-.723L30.883,57a2.467,2.467,0,0,0-3.489,0l-2.045,2.045a7.451,7.451,0,0,1-5.233,2.166H16.8ZM29.139,82.4l-2.467,2.467L24.2,82.4V80.7a12.336,12.336,0,0,0,4.934,0Zm-2.467-6.38a7.4,7.4,0,0,1-7.4-7.4V66.147h.846a12.252,12.252,0,0,0,8.722-3.612l.3-.3,1.744,1.744a7.3,7.3,0,0,0,3.19,1.848v2.788A7.4,7.4,0,0,1,26.672,76.016ZM6.934,86.178V65.858l5.487-.686a2.425,2.425,0,0,0,1.915.975v2.467a12.279,12.279,0,0,0,4.934,9.8v2.714A17.233,17.233,0,0,0,9.128,86.462ZM9.4,98.22A12.314,12.314,0,0,1,20.81,85.978L24.928,90.1a2.467,2.467,0,0,0,3.489,0l4.118-4.118A12.314,12.314,0,0,1,43.942,98.22v4.934H9.4Zm122.639,19.461-14.362,14.359-11.529-8.973a2.467,2.467,0,0,0-2.748-.175,54.5,54.5,0,0,1-13.594,5.64,2.467,2.467,0,0,0-1.818,2.08L86.173,145.1H65.858l-1.8-14.492a2.467,2.467,0,0,0-1.818-2.08,54.576,54.576,0,0,1-13.607-5.633,2.467,2.467,0,0,0-2.758.183L34.34,132.048,19.981,117.689l7.478-9.6h18.95a2.467,2.467,0,0,0,2.467-2.467v-7.4a17.3,17.3,0,0,0-14.8-17.1V78.411a12.279,12.279,0,0,0,4.934-9.8V66.147a2.467,2.467,0,0,0,2.467-2.467V58.745A14.8,14.8,0,0,0,27.5,43.984l-7.505-9.622L34.35,20l11.532,8.973a2.467,2.467,0,0,0,2.748.163,54.577,54.577,0,0,1,13.6-5.64,2.467,2.467,0,0,0,1.818-2.08L65.858,6.934H86.173l1.8,14.492a2.467,2.467,0,0,0,1.818,2.08A54.5,54.5,0,0,1,103.4,29.139a2.467,2.467,0,0,0,2.761-.183l11.529-8.973,14.361,14.359-7.505,9.622a14.8,14.8,0,0,0-13.991,14.781V63.68a2.467,2.467,0,0,0,2.467,2.467v2.467a12.279,12.279,0,0,0,4.934,9.8v2.714a17.3,17.3,0,0,0-14.8,17.088v7.4a2.467,2.467,0,0,0,2.467,2.467h18.95Zm10.589-14.527H108.089V98.22A12.314,12.314,0,0,1,119.5,85.978l4.118,4.118a2.467,2.467,0,0,0,3.489,0l4.118-4.118A12.314,12.314,0,0,1,142.63,98.22Zm-9.869-22.03V78.411a12.279,12.279,0,0,0,4.934-9.8V66.147a2.425,2.425,0,0,0,1.915-.975l5.487.686v20.32l-2.193.276A17.233,17.233,0,0,0,132.761,81.125Z" transform="translate(-2 -2)" fill="#0e65d1"/>
      <rect id="Rectangle_661" data-name="Rectangle 661" width="3.636" height="5.454" transform="translate(72.674 14.513)" fill="#0e65d1"/>
      <rect id="Rectangle_662" data-name="Rectangle 662" width="4.934" height="4.934" transform="translate(30.402 33.89) rotate(-45)" fill="#0e65d1"/>
      <rect id="Rectangle_663" data-name="Rectangle 663" width="4.934" height="4.934" transform="translate(30.403 114.142) rotate(-45)" fill="#0e65d1"/>
      <rect id="Rectangle_664" data-name="Rectangle 664" width="3.636" height="5.454" transform="translate(72.674 127.234)" fill="#0e65d1"/>
      <rect id="Rectangle_665" data-name="Rectangle 665" width="4.934" height="4.934" transform="translate(110.652 114.14) rotate(-44.99)" fill="#0e65d1"/>
      <rect id="Rectangle_666" data-name="Rectangle 666" width="4.934" height="4.934" transform="translate(110.655 33.891) rotate(-45)" fill="#0e65d1"/>
      <path id="Path_675" data-name="Path 675" d="M51.478,19.935a36.847,36.847,0,0,1,28.9,13.878l3.849-3.084a41.967,41.967,0,0,0-65.506,0l3.854,3.084a36.833,36.833,0,0,1,28.9-13.878Z" transform="translate(22.537 17.073)" fill="#0e65d1"/>
      <path id="Path_676" data-name="Path 676" d="M69.794,80.66V73.278a17.3,17.3,0,0,0-14.8-17.1V53.469a12.279,12.279,0,0,0,4.934-9.8V41.2a2.467,2.467,0,0,0,2.467-2.467V33.8a14.8,14.8,0,0,0-29.606,0v4.934A2.467,2.467,0,0,0,35.253,41.2v2.467a12.279,12.279,0,0,0,4.934,9.8V56.19a17.3,17.3,0,0,0-14.8,17.088V80.66c-.306-.232-.624-.439-.925-.681L21.375,83.83a42,42,0,0,0,52.428,0l-3.084-3.851C70.418,80.221,70.1,80.433,69.794,80.66ZM37.72,33.8a9.869,9.869,0,0,1,19.737,0V36.27h-.424a2.489,2.489,0,0,1-1.744-.723L51.8,32.059a2.467,2.467,0,0,0-3.489,0L46.266,34.1a7.451,7.451,0,0,1-5.233,2.166H37.72Zm3.313,7.4a12.252,12.252,0,0,0,8.722-3.612l.3-.3L51.8,39.036a7.3,7.3,0,0,0,3.19,1.848v2.788a7.4,7.4,0,0,1-14.8,0V41.2Zm6.555,14.8a12.336,12.336,0,0,0,2.467-.247v1.695l-2.467,2.467-2.467-2.467V55.761A12.337,12.337,0,0,0,47.589,56.008Zm-17.27,17.27A12.314,12.314,0,0,1,41.727,61.036l4.118,4.118a2.467,2.467,0,0,0,3.489,0l4.118-4.118A12.314,12.314,0,0,1,64.859,73.278v4.934H30.319Zm-1.2,9.869H66.056A37.023,37.023,0,0,1,29.122,83.147Z" transform="translate(26.427 22.942)" fill="#0e65d1"/>
    </g>
    <path id="Path_1590" data-name="Path 1590" d="M-59.172-12.96a5.705,5.705,0,0,0-1.656-4.128,6.545,6.545,0,0,0-4.92-1.7H-72.4V0h2.952V-6.96h3.336a7.2,7.2,0,0,0,5.088-1.7A5.682,5.682,0,0,0-59.172-12.96Zm-6.84-3.1a3.886,3.886,0,0,1,2.952.936,3.1,3.1,0,0,1,.888,2.232c0,1.728-1.224,3.216-3.84,3.216h-3.432v-6.384Zm16.536,3.192a2.564,2.564,0,0,0-.7-.072,3.806,3.806,0,0,0-3.528,2.16v-2.04h-2.784V0h2.856V-6.5c0-2.232,1.152-3.5,3.336-3.5a4.126,4.126,0,0,1,.816.072Zm8.04-.216a6.687,6.687,0,0,0-4.8,1.92,6.325,6.325,0,0,0-1.992,4.728A6.3,6.3,0,0,0-46.26-1.7a6.687,6.687,0,0,0,4.8,1.92A6.553,6.553,0,0,0-36.684-1.7,6.41,6.41,0,0,0-34.716-6.48a6.252,6.252,0,0,0-1.968-4.7A6.594,6.594,0,0,0-41.436-13.08Zm-2.808,3.768a3.593,3.593,0,0,1,2.784-1.176A3.508,3.508,0,0,1-38.7-9.312a4.129,4.129,0,0,1,1.08,2.88,4.221,4.221,0,0,1-1.056,2.88,3.508,3.508,0,0,1-2.76,1.176,3.613,3.613,0,0,1-2.784-1.2,4.23,4.23,0,0,1-1.08-2.9A4.058,4.058,0,0,1-44.244-9.312Zm11.616,2.88a6.711,6.711,0,0,0,1.8,4.656A5.843,5.843,0,0,0-26.316.192a6.061,6.061,0,0,0,2.3-.528A4.019,4.019,0,0,0-22.02-1.992V0h2.784V-19.536h-2.856v8.544a3.8,3.8,0,0,0-1.9-1.536,5.575,5.575,0,0,0-2.256-.528,5.881,5.881,0,0,0-4.632,2.016A6.787,6.787,0,0,0-32.628-6.432Zm6.744-4.056a3.542,3.542,0,0,1,2.76,1.176,4.129,4.129,0,0,1,1.08,2.88,4.129,4.129,0,0,1-1.08,2.88A3.569,3.569,0,0,1-25.884-2.4a3.657,3.657,0,0,1-2.784-1.152,4.221,4.221,0,0,1-1.056-2.88,4.221,4.221,0,0,1,1.056-2.88A3.593,3.593,0,0,1-25.884-10.488Zm10.344-2.328v7.872c0,3.072,1.7,5.208,4.8,5.208A4.645,4.645,0,0,0-6.828-1.728V0h2.784V-12.816H-6.9v7.128a2.919,2.919,0,0,1-2.952,3.24c-1.9,0-2.832-1.272-2.832-3.192v-7.176ZM5.6.216A6.022,6.022,0,0,0,9.42-.936a5.956,5.956,0,0,0,2.04-2.712l-2.5-1.1A3.3,3.3,0,0,1,5.652-2.376,3.573,3.573,0,0,1,2.94-3.528,4.143,4.143,0,0,1,1.86-6.48,3.969,3.969,0,0,1,2.94-9.36a3.662,3.662,0,0,1,2.688-1.128A3.227,3.227,0,0,1,8.916-8.136l2.448-1.1A5.769,5.769,0,0,0,5.6-13.08,6.32,6.32,0,0,0,.852-11.112a6.531,6.531,0,0,0-1.92,4.68A6.46,6.46,0,0,0,.852-1.68,6.44,6.44,0,0,0,5.6.216ZM21.2-10.248v-2.568H18.06v-3.96H15.2v3.96H12.852v2.568H15.2v6.12c0,2.784,1.632,4.272,4.44,4.272A4.482,4.482,0,0,0,21.18-.12V-2.544a4.068,4.068,0,0,1-.912.1c-1.464,0-2.208-.6-2.208-2.136v-5.664Zm3.1-5.4a1.84,1.84,0,0,0,2.64,0,1.84,1.84,0,0,0,0-2.64,1.8,1.8,0,0,0-2.64,0A1.84,1.84,0,0,0,24.3-15.648Zm2.76,2.832H24.2V0H27.06Zm2.3,0L34.788,0h2.856L43-12.816H40l-3.768,9.48-3.768-9.48Zm16.1-2.832a1.84,1.84,0,0,0,2.64,0,1.84,1.84,0,0,0,0-2.64,1.8,1.8,0,0,0-2.64,0A1.84,1.84,0,0,0,45.468-15.648Zm2.76,2.832H45.372V0h2.856Zm10.8,2.568v-2.568H55.884v-3.96H53.028v3.96H50.676v2.568h2.352v6.12c0,2.784,1.632,4.272,4.44,4.272A4.482,4.482,0,0,0,59-.12V-2.544a4.067,4.067,0,0,1-.912.1c-1.464,0-2.208-.6-2.208-2.136v-5.664Zm4.728-2.568H60.492L66.2-1.44,62.676,6.312h3.048l8.808-19.128h-3.1l-3.7,8.4ZM-67.98,18.92a6.687,6.687,0,0,0-4.8,1.92,6.325,6.325,0,0,0-1.992,4.728A6.3,6.3,0,0,0-72.8,30.3a6.687,6.687,0,0,0,4.8,1.92,6.553,6.553,0,0,0,4.776-1.92A6.409,6.409,0,0,0-61.26,25.52a6.252,6.252,0,0,0-1.968-4.7A6.594,6.594,0,0,0-67.98,18.92Zm-2.808,3.768A3.593,3.593,0,0,1-68,21.512a3.508,3.508,0,0,1,2.76,1.176,4.129,4.129,0,0,1,1.08,2.88,4.221,4.221,0,0,1-1.056,2.88,3.508,3.508,0,0,1-2.76,1.176,3.613,3.613,0,0,1-2.784-1.2,4.23,4.23,0,0,1-1.08-2.9A4.058,4.058,0,0,1-70.788,22.688Zm25.872,2.856a6.771,6.771,0,0,0-1.752-4.584A5.685,5.685,0,0,0-51.2,18.944a5.892,5.892,0,0,0-2.328.528,4.123,4.123,0,0,0-1.968,1.7V19.184h-2.784V38.312h2.856V30.128a4.148,4.148,0,0,0,1.92,1.56,6.123,6.123,0,0,0,2.232.5,5.873,5.873,0,0,0,4.56-1.968A6.727,6.727,0,0,0-44.916,25.544Zm-9.5-2.856a3.593,3.593,0,0,1,2.784-1.176,3.508,3.508,0,0,1,2.76,1.176,4.129,4.129,0,0,1,1.08,2.88,4.129,4.129,0,0,1-1.08,2.88,3.569,3.569,0,0,1-2.76,1.152,3.657,3.657,0,0,1-2.784-1.152,4.221,4.221,0,0,1-1.056-2.88A4.221,4.221,0,0,1-54.42,22.688Zm19.248-.936V19.184h-3.144v-3.96h-2.856v3.96h-2.352v2.568h2.352v6.12c0,2.784,1.632,4.272,4.44,4.272A4.482,4.482,0,0,0-35.2,31.88V29.456a4.067,4.067,0,0,1-.912.1c-1.464,0-2.208-.6-2.208-2.136V21.752Zm3.1-5.4a1.84,1.84,0,0,0,2.64,0,1.84,1.84,0,0,0,0-2.64,1.8,1.8,0,0,0-2.64,0A1.84,1.84,0,0,0-32.076,16.352Zm2.76,2.832h-2.856V32h2.856ZM-14.244,32V24.848c0-1.944,1.08-3.24,2.832-3.24,1.9,0,2.736,1.224,2.736,3.168V32H-5.82V24.08c0-3.072-1.56-5.184-4.656-5.184a5.541,5.541,0,0,0-4.464,2.112A4.166,4.166,0,0,0-18.9,18.9a4.593,4.593,0,0,0-3.816,2.016V19.184H-25.5V32h2.856V24.872c0-1.944,1.08-3.264,2.808-3.264,1.9,0,2.76,1.272,2.76,3.192V32ZM-2.028,16.352a1.84,1.84,0,0,0,2.64,0,1.84,1.84,0,0,0,0-2.64,1.8,1.8,0,0,0-2.64,0A1.84,1.84,0,0,0-2.028,16.352Zm2.76,2.832H-2.124V32H.732ZM8.7,32.216a5.284,5.284,0,0,0,3.5-1.1,3.6,3.6,0,0,0,1.344-2.88c0-1.992-1.536-3.384-4.44-4.032-1.656-.36-2.376-.792-2.376-1.632,0-.7.912-1.248,1.8-1.248a2.826,2.826,0,0,1,2.688,1.728L13.428,21.8a4.84,4.84,0,0,0-4.8-2.88,5.068,5.068,0,0,0-3.264,1.1,3.445,3.445,0,0,0-1.392,2.832,3.3,3.3,0,0,0,.912,2.328A5.87,5.87,0,0,0,8.076,26.72c1.752.36,2.64.936,2.64,1.68,0,.864-.936,1.416-2.016,1.416a3.3,3.3,0,0,1-3.072-2.064L3.4,29A5.358,5.358,0,0,0,8.7,32.216Zm15.216-8.9c0,.72-.408,1.08-1.2,1.08H21.132c-2.256,0-5.328.936-5.328,3.912v.144a3.408,3.408,0,0,0,1.224,2.712,4.611,4.611,0,0,0,3.1,1.056,4.053,4.053,0,0,0,3.768-1.968V32H26.7V23.84a5.639,5.639,0,0,0-.432-2.3c-.792-1.752-2.4-2.616-4.8-2.616a5.482,5.482,0,0,0-5.448,3.264L18.2,23.432a3.3,3.3,0,0,1,3.192-2.04C23,21.392,23.916,22.256,23.916,23.312Zm-.024,3.5a2.943,2.943,0,0,1-3.192,3.12,1.8,1.8,0,0,1-2.04-1.752,1.464,1.464,0,0,1,.768-1.3,3.326,3.326,0,0,1,1.7-.48h2.76ZM37.26,21.752V19.184H34.116v-3.96H31.26v3.96H28.908v2.568H31.26v6.12c0,2.784,1.632,4.272,4.44,4.272a4.482,4.482,0,0,0,1.536-.264V29.456a4.067,4.067,0,0,1-.912.1c-1.464,0-2.208-.6-2.208-2.136V21.752Zm3.1-5.4A1.867,1.867,0,0,0,43,13.712a1.8,1.8,0,0,0-2.64,0A1.84,1.84,0,0,0,40.356,16.352Zm2.76,2.832H40.26V32h2.856Zm9.72-.264a6.687,6.687,0,0,0-4.8,1.92,6.325,6.325,0,0,0-1.992,4.728A6.3,6.3,0,0,0,48.012,30.3a6.687,6.687,0,0,0,4.8,1.92,6.553,6.553,0,0,0,4.776-1.92,6.409,6.409,0,0,0,1.968-4.776,6.252,6.252,0,0,0-1.968-4.7A6.594,6.594,0,0,0,52.836,18.92Zm-2.808,3.768a3.593,3.593,0,0,1,2.784-1.176,3.508,3.508,0,0,1,2.76,1.176,4.129,4.129,0,0,1,1.08,2.88,4.221,4.221,0,0,1-1.056,2.88,3.508,3.508,0,0,1-2.76,1.176,3.613,3.613,0,0,1-2.784-1.2,4.23,4.23,0,0,1-1.08-2.9A4.058,4.058,0,0,1,50.028,22.688Zm24,9.312V24.1c0-3.072-1.656-5.184-4.8-5.184a4.645,4.645,0,0,0-3.912,1.992V19.184H62.532V32h2.856V24.872a2.919,2.919,0,0,1,2.952-3.24c1.9,0,2.832,1.272,2.832,3.192V32Z" transform="translate(1138 24888)"/>
    <g id="order-tracking" transform="translate(1430 24686.375)">
      <circle id="Ellipse_108" data-name="Ellipse 108" cx="47.174" cy="47.174" r="47.174" transform="translate(1.974 2.025)" fill="#f4f7f7"/>
      <circle id="Ellipse_109" data-name="Ellipse 109" cx="34.648" cy="34.648" r="34.648" transform="translate(14.501 14.551)" fill="#d9d9d9"/>
      <path id="Path_677" data-name="Path 677" d="M48.81,25.436A12.265,12.265,0,0,0,36.545,37.7C36.475,49.4,48.81,63.909,48.81,63.909S61.145,49.4,61.074,37.7A12.265,12.265,0,0,0,48.81,25.436Zm0,16.58a4.309,4.309,0,1,1,3.053-1.261,4.316,4.316,0,0,1-3.053,1.261Z" transform="translate(0.339 -1.327)" fill="#d9d9d9"/>
      <path id="Path_678" data-name="Path 678" d="M55.187,52.408a73.085,73.085,0,0,1-5.3,7.337,73.082,73.082,0,0,1-5.3-7.337c-8.643.872-15,3.826-15,7.337,0,4.2,9.091,7.6,20.3,7.6s20.3-3.4,20.3-7.6c0-3.511-6.361-6.465-15-7.337Z" transform="translate(-0.737 2.841)" fill="#d9d9d9"/>
      <path id="Path_679" data-name="Path 679" d="M126.72,111.437,83.963,68.68l-.044.045A47.008,47.008,0,0,1,68.725,83.919l-.045.044,42.757,42.757a10.806,10.806,0,1,0,15.283-15.283Z" transform="translate(5.305 5.355)" fill="#f4f7f7"/>
      <g id="Group_2055" data-name="Group 2055" transform="translate(0 0)">
        <path id="Path_680" data-name="Path 680" d="M26.148,26.147A36.669,36.669,0,1,0,52.077,15.41,36.669,36.669,0,0,0,26.148,26.147ZM84.7,52.076A32.628,32.628,0,1,1,75.148,29,32.629,32.629,0,0,1,84.7,52.076Z" transform="translate(-2.928 -2.877)" fill="#0e65d1"/>
        <path id="Path_682" data-name="Path 682" d="M138.051,119.919,96.4,78.266A49.24,49.24,0,0,0,79.2,11.65,2.02,2.02,0,0,0,77.105,15.1a45.154,45.154,0,1,1-9.031-4.176,2.02,2.02,0,1,0,1.279-3.833A49.183,49.183,0,1,0,78.26,96.4l12.7,12.7a2.02,2.02,0,1,0,2.856-2.856L81.753,94.185A48.545,48.545,0,0,0,94.178,81.76l41.016,41.015A8.786,8.786,0,0,1,122.768,135.2l-11.5-11.495a2.02,2.02,0,0,0-2.856,2.856l11.5,11.5a12.826,12.826,0,1,0,18.139-18.139Z" transform="translate(-4.598 -4.554)" fill="#0e65d1"/>
        <path id="Path_683" data-name="Path 683" d="M35.877,37.959c-.036,5.829,2.7,12.171,5.657,17.3-8.428,1.407-13.7,4.773-13.7,8.925,0,6.315,11.232,9.62,22.326,9.62s22.326-3.3,22.326-9.62c0-4.156-5.281-7.517-13.693-8.925,2.949-5.127,5.687-11.466,5.651-17.288a14.284,14.284,0,1,0-28.567-.013ZM68.442,64.184c0,1.893-6.454,5.579-18.286,5.579s-18.286-3.689-18.286-5.579c0-1.593,4.156-4.185,11.961-5.183a71.809,71.809,0,0,0,4.786,6.5,2.018,2.018,0,0,0,3.078,0,72.007,72.007,0,0,0,4.786-6.491C64.288,60,68.442,62.591,68.442,64.184ZM60.4,37.985c.051,8.407-7.043,18.716-10.245,22.943C46.95,56.7,39.861,46.4,39.912,37.972a10.244,10.244,0,1,1,20.488.013Z" transform="translate(-1.008 -1.599)" fill="#0e65d1"/>
        <path id="Path_684" data-name="Path 684" d="M41.68,36.907a6.336,6.336,0,1,0,6.336-6.336A6.336,6.336,0,0,0,41.68,36.907Zm8.631,0a2.3,2.3,0,1,1-2.3-2.3,2.3,2.3,0,0,1,2.3,2.3Z" transform="translate(1.132 -0.534)" fill="#0e65d1"/>
        <path id="Path_685" data-name="Path 685" d="M112.858,111.134a2.022,2.022,0,0,0,1.432-3.45L100.631,94.028a2.021,2.021,0,0,0-2.857,2.857l13.656,13.656a2.015,2.015,0,0,0,1.429.592Z" transform="translate(9.709 9.181)" fill="#0e65d1"/>
        <path id="Path_718" data-name="Path 718" d="M126.189,124.464a2.022,2.022,0,0,0,1.432-3.45L97.631,91.028a2.021,2.021,0,0,0-2.857,2.857l29.986,29.986a2.015,2.015,0,0,0,1.429.592Z" transform="translate(-11.786 7.282)" fill="#0e65d1"/>
        <path id="Path_686" data-name="Path 686" d="M95.38,88.778l-4.11-4.111a2.021,2.021,0,0,0-2.857,2.857l4.111,4.111a2.02,2.02,0,1,0,2.857-2.858Z" transform="translate(8.263 7.734)" fill="#0e65d1"/>
      </g>
    </g>
  </g>
</svg>
