<svg xmlns="http://www.w3.org/2000/svg" width="358.85" height="328.059" viewBox="0 0 358.85 328.059">
  <g id="Arrow_08" transform="translate(85.159 -2.41) rotate(21)">
    <path id="Path_6621" data-name="Path 6621" d="M148.706,216.015c-32.958,22.985-70.6,39.757-107.9,36.432-13.7-1.222-26.38-6.328-39.393-11.412a2.225,2.225,0,0,1,1.617-4.147c12.618,4.93,24.9,9.942,38.167,11.123,36.735,3.277,73.732-13.623,106.081-36.426-.109-.33-.222-.659-.336-.989-2.5-7.242-.912-17.8,3.168-28.9,5.919-16.107,16.953-33.415,26.875-42.974,4.575-4.412,9.005-7.183,12.623-7.766a7.767,7.767,0,0,1,7.6,2.671,12.847,12.847,0,0,1,2.86,7.271c.368,3.847-.458,8.519-2.2,13.6-6.432,18.807-25.328,43.557-35.572,51.5q-4.814,3.733-9.8,7.318c.663,2.082,1.3,4.072,2.088,5.906a14.651,14.651,0,0,0,5.07,6.726c4.539,3.117,9.981,3.648,15.546,2.834,8.91-1.294,18.124-6,24.919-10.037,38.218-22.7,57.087-62.081,67.236-101.6,10.267-39.962,11.611-80.107,14.647-103.786a2.226,2.226,0,0,1,4.416.565c-3.055,23.808-4.435,64.159-14.752,104.327-10.435,40.615-29.994,80.99-69.278,104.321-7.231,4.289-17.067,9.231-26.549,10.613-6.7.971-13.236.183-18.7-3.571a18.991,18.991,0,0,1-6.645-8.641C149.836,219.421,149.264,217.752,148.706,216.015Zm2.356-7.136c-2.106-6.495-.386-15.819,3.227-25.643,5.687-15.478,16.254-32.121,25.786-41.31,3.2-3.077,6.232-5.306,8.915-6.23,1.938-.671,3.631-.588,4.834.824a9.5,9.5,0,0,1,1.884,6.43,33.012,33.012,0,0,1-2.047,10.118c-6.168,18.037-24.261,41.8-34.083,49.416Q155.383,205.732,151.062,208.88Z" transform="translate(6.718 -11.426)" fill="#00d176" fill-rule="evenodd"/>
    <path id="Path_6622" data-name="Path 6622" d="M124.844,112.828a16.585,16.585,0,0,0,1.244,3.67c1.321,3.076,3.2,6.36,4.036,7.948a2.227,2.227,0,1,1-3.946,2.064,89.945,89.945,0,0,1-4.838-9.9,12.782,12.782,0,0,1-.98-4.79,3.463,3.463,0,0,1,1.265-2.593,5.013,5.013,0,0,1,3.4-.919c1.669.054,4.052.583,6.672.777a12.765,12.765,0,0,0,6.78-1,2.223,2.223,0,1,1,2,3.97c-4.095,2.06-8.743,1.613-12.415,1.084C126.965,112.979,125.608,112.875,124.844,112.828Z" transform="translate(-120.352 109.923)" fill="#00d176" fill-rule="evenodd"/>
  </g>
</svg>
