<svg xmlns="http://www.w3.org/2000/svg" width="630" height="719" viewBox="0 0 630 719">
  <g id="evremobileapppage" transform="translate(-286 -28581)">
    <rect id="BG" width="630" height="719" rx="26" transform="translate(286 28581)" fill="#4a4a4a"/>
    <rect id="Title" width="161" height="13" rx="6.5" transform="translate(383 28734)" fill="#77777a"/>
    <rect id="Title-2" data-name="Title" width="161" height="13" rx="6.5" transform="translate(440 29067)" fill="#77777a"/>
    <rect id="Title-3" data-name="Title" width="204" height="13" rx="6.5" transform="translate(383 28770)" fill="#5e5e5e"/>
    <rect id="Title-4" data-name="Title" width="204" height="13" rx="6.5" transform="translate(440 29105)" fill="#5e5e5e"/>
    <rect id="Title-5" data-name="Title" width="204" height="13" rx="6.5" transform="translate(383 28794)" fill="#5e5e5e"/>
    <rect id="Title-6" data-name="Title" width="204" height="13" rx="6.5" transform="translate(440 29129)" fill="#5e5e5e"/>
    <rect id="Title-7" data-name="Title" width="139" height="13" rx="6.5" transform="translate(440 29153)" fill="#5e5e5e"/>
    <rect id="Title-8" data-name="Title" width="126" height="13" rx="6.5" transform="translate(383 28818)" fill="#5e5e5e"/>
    <g id="Group_7018" data-name="Group 7018" transform="translate(-721 1862)">
      <rect id="_3" data-name="3" width="24" height="11" rx="5.5" transform="translate(1565 26750)" fill="#858585"/>
      <rect id="_2" data-name="2" width="24" height="11" rx="5.5" transform="translate(1530 26750)" fill="#858585"/>
      <rect id="_1" data-name="1" width="23" height="11" rx="5.5" transform="translate(1495 26750)" fill="#858585"/>
      <rect id="Rectangle_1568" data-name="Rectangle 1568" width="56" height="18" rx="9" transform="translate(1055 26746)" fill="#858585"/>
    </g>
    <rect id="Rectangle_1602" data-name="Rectangle 1602" width="165" height="174" rx="35" transform="translate(627 28701)" fill="#858585"/>
    <rect id="Title-9" data-name="Title" width="38" height="10" rx="5" transform="translate(339 28669)" fill="#5e5e5e"/>
    <rect id="Title-10" data-name="Title" width="51" height="10" rx="5" transform="translate(389 28669)" fill="#858585"/>
    <rect id="Title-11" data-name="Title" width="12" height="41" rx="6" transform="translate(862 28875)" fill="#5e5e5e"/>
    <rect id="Title-12" data-name="Title" width="62" height="24" rx="12" transform="translate(440 29191)" fill="#858585"/>
    <rect id="Title-13" data-name="Title" width="48" height="15" rx="7.5" transform="translate(383 28948)" fill="#858585"/>
    <rect id="Title-14" data-name="Title" width="51" height="15" rx="7.5" transform="translate(438 28948)" fill="#858585"/>
    <rect id="BG-2" data-name="BG" width="106" height="84" rx="6" transform="translate(383 28854)" fill="#676767"/>
  </g>
</svg>
