<svg xmlns="http://www.w3.org/2000/svg" width="33" height="27" viewBox="0 0 33 27">
  <g id="Icon_ux-design" data-name="Icon ux-design" transform="translate(-1.5 -4.735)">
    <path id="Path_9979" data-name="Path 9979" d="M6,6H30a3.009,3.009,0,0,1,3,3V27a3.009,3.009,0,0,1-3,3H6a3.009,3.009,0,0,1-3-3V9A3.009,3.009,0,0,1,6,6Z" transform="translate(0 0.235)" fill="none" stroke="#000" stroke-linecap="round" stroke-linejoin="round" stroke-width="3"/>
    <path id="Union_2" data-name="Union 2" d="M8699.765,7990.2l.662-.52-14.055-10.649,14.086,10.624,13.938-10.937-13.905,10.962,14.119,10.649-13.428-10.078-.723-.546-13.873,10.936Z" transform="translate(-8682.344 -7971.481)" fill="none" stroke="#000" stroke-linecap="round" stroke-linejoin="round" stroke-width="3"/>
  </g>
</svg>
