<svg xmlns="http://www.w3.org/2000/svg" width="1154.405" height="434.914" viewBox="0 0 1154.405 434.914">
  <g id="Layer_2" data-name="Layer 2" transform="translate(0.5 0.5)">
    <g id="Layer_1" data-name="Layer 1">
      <g id="Hills" transform="translate(837.186 187.871)">
        <path id="Path_10019" data-name="Path 10019" d="M493.237,162.706h-1.745v-48h-4.6l-4.764-21.456H433.344l-6.858,17.186v7.843H407.74v-1.745h17v-6.447L432.174,91.5h51.351l4.764,21.456h4.948Z" transform="translate(-407.74 -91.5)" fill="none" stroke="#707070" stroke-width="1"/>
        <path id="Path_10020" data-name="Path 10020" d="M506.077,169.681,483,156.314V122.621l-6.878-17.186h-5.708v12.545l-4.764,5.954v20.491L444.931,155.39l-.821-1.519,19.814-10.492v-20.04l4.764-5.975V103.69h8.6l7.433,18.582v33.057l22.216,12.853Z" transform="translate(-369.434 -78.661)" fill="none" stroke="#707070" stroke-width="1"/>
        <rect id="Rectangle_1387" data-name="Rectangle 1387" width="5.954" height="1.725" transform="translate(100.116 38.149)" fill="none" stroke="#707070" stroke-width="1"/>
        <path id="Path_10021" data-name="Path 10021" d="M459.279,110.088H438.357L434.62,96.332l1.663-.452,3.408,12.463h19.588Z" transform="translate(-379.429 -86.887)" fill="none" stroke="#707070" stroke-width="1"/>
        <rect id="Rectangle_1388" data-name="Rectangle 1388" width="1.725" height="23.407" transform="translate(78.803 30.491)" fill="none" stroke="#707070" stroke-width="1"/>
      </g>
      <g id="Hills-2" data-name="Hills" transform="translate(145.718 198.856)">
        <path id="Path_10022" data-name="Path 10022" d="M71.853,157.486l-.883-1.5,15.666-9.219v-7.925h77.407l5.667-25.563H181.7v1.745H171.106l-5.687,25.542H88.361v7.207Z" transform="translate(-70.97 -79.545)" fill="none" stroke="#707070" stroke-width="1"/>
        <rect id="Rectangle_1389" data-name="Rectangle 1389" width="72.52" height="1.725" transform="translate(43.939 73.013)" fill="none" stroke="#707070" stroke-width="1"/>
        <rect id="Rectangle_1390" data-name="Rectangle 1390" width="17.021" height="1.725" transform="translate(78.146 77.735)" fill="none" stroke="#707070" stroke-width="1"/>
        <path id="Path_10023" data-name="Path 10023" d="M198.756,171.136l-8.5-34.9H178.511L174.425,111.3H163.584l-4.291-12.73H130.671l-6.016,52.665-1.725-.205,6.18-54.185h31.415l4.312,12.73H175.9l4.086,24.926h11.642l8.808,36.2Z" transform="translate(-16.244 -96.85)" fill="none" stroke="#707070" stroke-width="1"/>
        <rect id="Rectangle_1391" data-name="Rectangle 1391" width="1.725" height="25.255" transform="matrix(0.987, -0.161, 0.161, 0.987, 162.123, 38.682)" fill="none" stroke="#707070" stroke-width="1"/>
        <rect id="Rectangle_1392" data-name="Rectangle 1392" width="7.125" height="1.725" transform="translate(122.804 5.092)" fill="none" stroke="#707070" stroke-width="1"/>
        <rect id="Rectangle_1393" data-name="Rectangle 1393" width="32.195" height="1.725" transform="translate(112.794 57.287) rotate(-84.54)" fill="none" stroke="#707070" stroke-width="1"/>
        <rect id="Rectangle_1394" data-name="Rectangle 1394" width="37.143" height="1.725" transform="translate(30.716 99.212)" fill="none" stroke="#707070" stroke-width="1"/>
        <path id="Path_10024" data-name="Path 10024" d="M170.523,144.088l-1.643-.513,3.655-11.58h6.3l5.195-23.694h19.321l5.913,29.587-1.684.349-5.646-28.211H185.429l-5.195,23.694h-6.427Z" transform="translate(32.152 -84.79)" fill="none" stroke="#707070" stroke-width="1"/>
        <rect id="Rectangle_1395" data-name="Rectangle 1395" width="22.976" height="1.725" transform="translate(238.401 40.018)" fill="none" stroke="#707070" stroke-width="1"/>
      </g>
      <g id="Power_pole" data-name="Power pole" transform="translate(150.317)">
        <path id="Path_10025" data-name="Path 10025" d="M523.487,86.748c-114.714,0-238.175-27.616-311.927-72.869l.9-1.478c91.923,56.423,261.52,85.415,394.529,67.264,60.632-8.213,131.736-62.377,132.454-62.932l1.047,1.376a446.427,446.427,0,0,1-43.467,28.478c-23.325,13.469-57.86,30.45-89.788,34.8a625.662,625.662,0,0,1-83.751,5.359Z" transform="translate(72.505 13.06)" fill="none" stroke="#707070" stroke-width="1"/>
        <rect id="Rectangle_1396" data-name="Rectangle 1396" width="9.917" height="322.912" transform="translate(310.819)" fill="none" stroke="#707070" stroke-width="1"/>
        <rect id="Rectangle_1397" data-name="Rectangle 1397" width="94.901" height="11.334" transform="translate(268.337 30.449)" fill="none" stroke="#707070" stroke-width="1"/>
        <path id="Path_10026" data-name="Path 10026" d="M206.31,9.31v9.917a5.687,5.687,0,0,0,5.667,5.667h0a5.667,5.667,0,0,0,5.667-5.667V9.31Z" transform="translate(66.976 9.806)" fill="none" stroke="#707070" stroke-width="1"/>
        <path id="Path_10027" data-name="Path 10027" d="M212.419,26.2a6.55,6.55,0,0,1-6.529-6.529V8.89h13.059V19.669A6.529,6.529,0,0,1,212.419,26.2Zm-4.784-15.584v9.055a4.8,4.8,0,1,0,9.589,0V10.615Z" transform="translate(66.533 9.363)" fill="none" stroke="#707070" stroke-width="1"/>
        <path id="Path_10028" data-name="Path 10028" d="M242.18,9.31v9.917a5.688,5.688,0,0,0,5.667,5.667h0a5.667,5.667,0,0,0,5.667-5.667V9.31Z" transform="translate(104.755 9.806)" fill="none" stroke="#707070" stroke-width="1"/>
        <path id="Path_10029" data-name="Path 10029" d="M248.289,26.2a6.55,6.55,0,0,1-6.529-6.529V8.89h13.059V19.669a6.529,6.529,0,0,1-6.529,6.529Zm-4.784-15.584v9.055a4.8,4.8,0,1,0,9.589,0V10.615Z" transform="translate(104.313 9.363)" fill="none" stroke="#707070" stroke-width="1"/>
        <path id="Path_10030" data-name="Path 10030" d="M203.3,62.6A154.218,154.218,0,0,1,147.683,52.52C107.07,36.936,86.455,8.294,86.25,8.006L87.667,7c.205.287,20.532,28.561,60.714,43.939,37.081,14.208,99.089,20.019,184.052-32.852l.226-.144H343.4v1.745H333.131C295.413,43.137,258.989,57.14,224.864,61.308A175.426,175.426,0,0,1,203.3,62.6Z" transform="translate(-59.476 7.373)" fill="none" stroke="#707070" stroke-width="1"/>
        <path id="Path_10031" data-name="Path 10031" d="M752.523,81.606h-8.008c-44.637-.678-94.613-6.919-148.531-18.479a1142.806,1142.806,0,0,1-164.731-48.99H421.4c-26.261,18.89-50.407,31.517-74.122,38.56-21.682,6.386-40.8,7.371-56.156,8.213a435,435,0,0,1-159.68-20.84C94.3,27.626,73.415,14.136,73.21,13.993l.945-1.437c.205.123,20.943,13.531,57.9,25.891A432.966,432.966,0,0,0,291.017,59.164c33.036-1.684,70.467-3.614,129.58-46.649l.226-.164h10.923A1135.235,1135.235,0,0,0,596.354,61.32c84.511,18.212,203.27,32.174,288.972-4.887L886,58.014C849.805,73.68,804.921,81.606,752.523,81.606Z" transform="translate(-73.21 13.007)" fill="none" stroke="#707070" stroke-width="1"/>
        <rect id="Rectangle_1398" data-name="Rectangle 1398" width="15.81" height="1.725" transform="translate(307.451 29.587)" fill="none" stroke="#707070" stroke-width="1"/>
      </g>
      <g id="Cloud" transform="translate(981.179 223.351)">
        <rect id="Rectangle_1399" data-name="Rectangle 1399" width="63.568" height="1.725" transform="translate(49.134 16.754)" fill="none" stroke="#707070" stroke-width="1"/>
        <rect id="Rectangle_1400" data-name="Rectangle 1400" width="15.03" height="1.725" transform="translate(138.717)" fill="none" stroke="#707070" stroke-width="1"/>
        <rect id="Rectangle_1401" data-name="Rectangle 1401" width="68.352" height="1.725" transform="translate(60.694)" fill="none" stroke="#707070" stroke-width="1"/>
        <rect id="Rectangle_1402" data-name="Rectangle 1402" width="46.239" height="1.725" transform="translate(125.986 9.24)" fill="none" stroke="#707070" stroke-width="1"/>
        <rect id="Rectangle_1403" data-name="Rectangle 1403" width="75.703" height="1.725" transform="translate(36.999 9.24)" fill="none" stroke="#707070" stroke-width="1"/>
        <rect id="Rectangle_1404" data-name="Rectangle 1404" width="20.738" height="1.725" transform="translate(0 9.24)" fill="none" stroke="#707070" stroke-width="1"/>
      </g>
      <g id="Cloud-2" data-name="Cloud" transform="translate(0 205.898)">
        <rect id="Rectangle_1405" data-name="Rectangle 1405" width="63.568" height="1.725" transform="translate(49.134 16.754)" fill="none" stroke="#707070" stroke-width="1"/>
        <rect id="Rectangle_1406" data-name="Rectangle 1406" width="68.352" height="1.725" transform="translate(60.694)" fill="none" stroke="#707070" stroke-width="1"/>
        <rect id="Rectangle_1407" data-name="Rectangle 1407" width="75.703" height="1.725" transform="translate(36.979 9.24)" fill="none" stroke="#707070" stroke-width="1"/>
        <rect id="Rectangle_1408" data-name="Rectangle 1408" width="20.738" height="1.725" transform="translate(0 9.24)" fill="none" stroke="#707070" stroke-width="1"/>
      </g>
      <g id="Cloud-3" data-name="Cloud" transform="translate(822.362 152.884)">
        <rect id="Rectangle_1409" data-name="Rectangle 1409" width="55.519" height="1.725" transform="translate(42.892 14.64)" fill="none" stroke="#707070" stroke-width="1"/>
        <rect id="Rectangle_1410" data-name="Rectangle 1410" width="59.708" height="1.725" transform="translate(52.994)" fill="none" stroke="#707070" stroke-width="1"/>
        <rect id="Rectangle_1411" data-name="Rectangle 1411" width="66.114" height="1.725" transform="translate(32.297 8.09)" fill="none" stroke="#707070" stroke-width="1"/>
        <rect id="Rectangle_1412" data-name="Rectangle 1412" width="18.11" height="1.725" transform="translate(0 8.09)" fill="none" stroke="#707070" stroke-width="1"/>
      </g>
      <g id="Cloud-4" data-name="Cloud" transform="translate(260.597 132.66)">
        <rect id="Rectangle_1413" data-name="Rectangle 1413" width="55.519" height="1.725" transform="translate(56.197 6.55)" fill="none" stroke="#707070" stroke-width="1"/>
        <rect id="Rectangle_1414" data-name="Rectangle 1414" width="66.114" height="1.725" transform="translate(32.297)" fill="none" stroke="#707070" stroke-width="1"/>
        <rect id="Rectangle_1415" data-name="Rectangle 1415" width="18.11" height="1.725" fill="none" stroke="#707070" stroke-width="1"/>
      </g>
      <g id="Car" transform="translate(222.519 198.89)">
        <path id="Path_10032" data-name="Path 10032" d="M499.19,235.2,467.2,246.922H362.28V149.25H499Z" transform="translate(159.047 -41.694)" fill="none" stroke="#707070" stroke-width="1"/>
        <path id="Path_10033" data-name="Path 10033" d="M455.9,211.969c0,26.528-2.669,48.929-23.653,52.152-1.766.267-17.1-.123-18.931-.123-23.51,0-42.564-23.284-42.564-52.029S389.8,159.94,413.314,159.94,455.9,183.244,455.9,211.969Z" transform="translate(167.968 -30.435)" fill="none" stroke="#707070" stroke-width="1"/>
        <ellipse id="Ellipse_139" data-name="Ellipse 139" cx="42.564" cy="52.029" rx="42.564" ry="52.029" transform="translate(558.182 129.505)" fill="none" stroke="#707070" stroke-width="1"/>
        <path id="Path_10034" data-name="Path 10034" d="M423.581,266.151c-24.29,0-44.021-24-44.021-53.487s19.732-53.384,44.021-53.384,44,23.982,44,53.384S447.769,266.151,423.581,266.151Zm0-104.078c-22.586,0-41.065,22.709-41.065,50.592S401,263.256,423.581,263.256s41.065-22.586,41.065-50.592S446.167,162.072,423.581,162.072Z" transform="translate(177.247 -31.13)" fill="none" stroke="#707070" stroke-width="1"/>
        <ellipse id="Ellipse_140" data-name="Ellipse 140" cx="27.205" cy="33.262" rx="27.205" ry="33.262" transform="translate(573.376 149.298)" fill="none" stroke="#707070" stroke-width="1"/>
        <ellipse id="Ellipse_141" data-name="Ellipse 141" cx="55.478" cy="57.224" rx="55.478" ry="57.224" transform="translate(406.941 119.403)" fill="none" stroke="#707070" stroke-width="1"/>
        <rect id="Rectangle_1416" data-name="Rectangle 1416" width="153.5" height="100.28" transform="translate(152.545 107.268)" fill="none" stroke="#707070" stroke-width="1"/>
        <path id="Path_10035" data-name="Path 10035" d="M278.568,211.969c0,26.528-2.669,48.929-23.653,52.152-1.766.267-17.1-.123-18.931-.123-23.51,0-42.564-23.284-42.564-52.029s19.054-52.029,42.564-52.029S278.568,183.244,278.568,211.969Z" transform="translate(-18.802 -30.435)" fill="none" stroke="#707070" stroke-width="1"/>
        <ellipse id="Ellipse_142" data-name="Ellipse 142" cx="55.478" cy="57.224" rx="55.478" ry="57.224" transform="translate(45.141 119.403)" fill="none" stroke="#707070" stroke-width="1"/>
        <path id="Path_10036" data-name="Path 10036" d="M792.252,250.825c0,6.16-.246,11.745-.472,16.426-.431,8.357-.965,13.633-.965,13.633l-33.529,11.56c2.053-45.664-16.775-63.794-31.743-70.98a43.261,43.261,0,0,0-32.954-1.622c-45.479,15.913-36.424,83.587-36.424,83.587H394.356c5.318-48.272-10.43-69.112-24.762-78.6a44.617,44.617,0,0,0-34.371-6.344c-52.111,12.319-42.584,84.942-42.584,84.942H119.818l-10.964-31.8v-.287a156.663,156.663,0,0,1,.411-16.241c2.218-28.745,12.114-39.648,14.8-42.132l.7-.575c41.065-28.889,154.3-38.149,154.3-38.149l.39-.267c47.224-33.488,89.275-51.105,116.747-60.1a223.579,223.579,0,0,1,33.427-8.685c138.7-20.224,194.5,1.951,252.548,27.739,36.157,16.056,97.1,41.065,97.1,41.065q.534.924.985,1.848a71.131,71.131,0,0,1,3.141,7.166,117.72,117.72,0,0,1,5.667,21.785c.308,1.7.575,3.408.821,5.133a282.485,282.485,0,0,1,2.361,40.9Z" transform="translate(-107.919 -96.393)" fill="none" stroke="#707070" stroke-width="1"/>
        <path id="Path_10037" data-name="Path 10037" d="M656.62,304.7H393.806l.123-.965c4.106-38.108-4.106-64.266-24.372-77.777a43.734,43.734,0,0,0-33.694-6.16c-21.272,5.072-34.782,20.7-40.2,46.465a126.989,126.989,0,0,0-1.745,37.513l.144.986h-174.4l-11.231-32.523v-.575a161.723,161.723,0,0,1,.411-16.3c2.238-28.745,12.114-39.956,15.091-42.707a7.589,7.589,0,0,1,.76-.637c21.333-15.03,62.3-24.639,92.888-30.059,31.5-5.585,58.784-7.987,61.6-8.213l.185-.123c47.615-33.714,89.911-51.331,117.034-60.242a230.833,230.833,0,0,1,33.57-8.644c63.794-9.3,113.605-10.266,156.805-3.388,37.882,6.16,66.011,17.76,96.235,31.189,35.726,15.871,96.5,40.777,97.077,41.065l.287.123.144.267c.328.6.678,1.232,1.006,1.868a69.361,69.361,0,0,1,3.182,7.248,120.468,120.468,0,0,1,5.708,21.949c.308,1.868.575,3.552.8,5.154a277.924,277.924,0,0,1,2.423,41.065c0,5.3-.205,10.821-.493,16.426-.411,8.213-.965,13.634-.965,13.675v.554L756.92,294.087v-1.273c2.053-44.576-15.851-62.767-31.25-70.159a42.071,42.071,0,0,0-32.3-1.581c-18.479,6.488-30.2,22.319-34.7,47.06a129.56,129.56,0,0,0-1.17,35.583l.144.986Zm-260.761-1.745H655.634a132.431,132.431,0,0,1,1.273-35.09c4.537-25.07,16.939-41.8,35.849-48.436a43.693,43.693,0,0,1,33.611,1.663c15.728,7.556,34.022,25.932,32.3,70.529l31.8-10.964c.144-1.56.554-6.324.9-13.038.267-5.564.431-11.046.472-16.323h0a277.7,277.7,0,0,0-2.382-40.88c-.226-1.6-.493-3.265-.8-5.092a118.763,118.763,0,0,0-5.544-21.641,70.275,70.275,0,0,0-3.1-7.063c-.288-.534-.554-1.068-.842-1.56-4.537-1.868-62.336-25.6-96.831-40.921-53.672-23.859-109.191-48.518-252.076-27.678a221.182,221.182,0,0,0-33.283,8.644c-26.98,8.829-69.071,26.4-116.521,60l-.575.411h-.226c-1.15,0-113.523,9.548-153.89,37.985h0s-.226.164-.6.493c-2.854,2.649-12.319,13.408-14.537,41.558-.39,5.071-.534,10.492-.411,16.159v.164l10.718,31.065H292.171a129.7,129.7,0,0,1,1.889-37.122c5.482-26.1,19.814-42.625,41.475-47.779a45.459,45.459,0,0,1,34.987,6.406A53.815,53.815,0,0,1,390.6,249.614c5.688,14.024,7.412,31.948,5.174,53.343Z" transform="translate(-108.375 -96.866)" fill="none" stroke="#707070" stroke-width="1"/>
        <path id="Path_10038" data-name="Path 10038" d="M280.395,132.36l-.7,18.315-10.287.986,4.332-19.3Z" transform="translate(61.233 -59.483)" fill="none" stroke="#707070" stroke-width="1"/>
        <path id="Path_10039" data-name="Path 10039" d="M268.87,153.088l4.743-21.148h8.213l-.76,19.957Zm6.16-19.424-3.84,17.473,8.336-.821.637-16.652Z" transform="translate(60.664 -59.926)" fill="none" stroke="#707070" stroke-width="1"/>
        <ellipse id="Ellipse_143" data-name="Ellipse 143" cx="42.564" cy="52.029" rx="42.564" ry="52.029" transform="translate(194.062 129.505)" fill="none" stroke="#707070" stroke-width="1"/>
        <path id="Path_10040" data-name="Path 10040" d="M246.191,266.151c-24.269,0-44-24-44-53.487s19.732-53.384,44-53.384,44.021,23.982,44.021,53.384S270.46,266.151,246.191,266.151Zm0-104.078c-22.586,0-41.065,22.709-41.065,50.592s18.479,50.592,41.065,50.592,41.065-22.586,41.065-50.592S268.879,162.072,246.191,162.072Z" transform="translate(-9.566 -31.13)" fill="none" stroke="#707070" stroke-width="1"/>
        <path id="Path_10041" data-name="Path 10041" d="M252.48,185.343l.123-1.643a30.471,30.471,0,0,1,8.213-18.212c1.252-1.355,2.567-2.731,4.107-4.23a189.6,189.6,0,0,1,81.021-49.442c28.417-8.6,49.483-7.392,49.688-7.371h.185c3.449.185,6.9.431,10.636.739,1.868.144,3.778.329,5.852.534,9.917.986,20,2.382,29.957,4.106,72.849,13.038,124.323,43.488,124.837,43.8l2.259,1.355Zm140.051-79.337a164.587,164.587,0,0,0-46.075,7.351,187.911,187.911,0,0,0-80.425,49.113c-1.458,1.478-2.772,2.854-4,4.107a28.869,28.869,0,0,0-7.659,16.754l309.5-29.69a415.242,415.242,0,0,0-121.9-42.235c-9.917-1.766-19.958-3.183-29.813-4.106-2.053-.205-3.983-.39-5.831-.534-3.716-.308-7.166-.554-10.533-.739h-.246S394.441,106.006,392.531,106.006Z" transform="translate(43.402 -88.957)" fill="none" stroke="#707070" stroke-width="1"/>
        <path id="Path_10042" data-name="Path 10042" d="M390.991,109.113a221.912,221.912,0,0,0-47.224,27.513h0c-3.634,2.69-7.063,5.359-10.266,7.967h0c-5.01,4.106-9.486,7.864-13.284,11.272-8.726,7.761-13.942,13.161-13.942,13.161L191.95,165.577c47.224-33.488,89.275-51.105,116.747-60.1l6.488-.205,5.462-.123h19.4c21.354.246,41.516,1.252,50.674,1.766a1.109,1.109,0,0,1,.267,2.2Z" transform="translate(-20.351 -88.142)" fill="none" stroke="#707070" stroke-width="1"/>
        <path id="Path_10043" data-name="Path 10043" d="M308,170.381h-.39L190.58,166.849l2.053-1.5c47.615-33.714,89.911-51.331,117.034-60.242h.1l6.632-.205,5.482-.123h19.444c21.087.246,40.818,1.211,50.715,1.766a2.053,2.053,0,0,1,1.848,1.663,1.93,1.93,0,0,1-1.211,2.053h0a217.89,217.89,0,0,0-47,27.411c-3.408,2.546-6.858,5.215-10.266,7.967h0c-4.5,3.614-8.952,7.412-13.243,11.231-8.6,7.659-13.839,13.079-13.88,13.141Zm-112.066-5.113,111.347,3.367c1.191-1.211,6.16-6.16,13.7-12.956,4.332-3.84,8.808-7.638,13.346-11.293h0c3.429-2.751,6.878-5.441,10.266-7.967A220.863,220.863,0,0,1,392,108.784h0a.246.246,0,0,0,.164-.267.226.226,0,0,0-.246-.205c-9.876-.554-29.587-1.519-50.612-1.766H321.925c-1.827,0-3.655,0-5.462.123l-6.365.185c-26.466,8.644-67.675,25.85-114.16,58.415Z" transform="translate(-21.794 -88.532)" fill="none" stroke="#707070" stroke-width="1"/>
        <path id="Path_10044" data-name="Path 10044" d="M494.391,239.28H252.52l.575-95.66h1.745l-.575,93.915H493.549a133.256,133.256,0,0,1,6.16-32.852c7.6-23.222,21.087-38.457,39.011-44.062a58,58,0,0,1,48.949,6.16c16.98,11.272,27.411,32.564,30.183,61.6l-1.725.164c-2.71-28.478-12.894-49.278-29.423-60.283a56.156,56.156,0,0,0-47.471-6.016c-21.908,6.837-32.667,27.1-37.841,42.892a128.963,128.963,0,0,0-6.057,33.16v.862Z" transform="translate(43.444 -47.624)" fill="none" stroke="#707070" stroke-width="1"/>
        <path id="Path_10045" data-name="Path 10045" d="M329.825,246.3l-1.725-.1,5.77-95.5-4.291-14,1.663-.513,4.373,14.311v.144Z" transform="translate(123.047 -55.46)" fill="none" stroke="#707070" stroke-width="1"/>
        <path id="Path_10046" data-name="Path 10046" d="M394.126,189.448l-1.745-.082,2.074-43.221-10.574-14.64,1.4-1.006,10.944,15.112Z" transform="translate(181.797 -61.442)" fill="none" stroke="#707070" stroke-width="1"/>
        <ellipse id="Ellipse_144" data-name="Ellipse 144" cx="27.205" cy="33.262" rx="27.205" ry="33.262" transform="translate(209.276 149.298)" fill="none" stroke="#707070" stroke-width="1"/>
        <path id="Path_10047" data-name="Path 10047" d="M233.507,221.709c-10.779,0-19.547-10.636-19.547-23.694s8.767-23.715,19.547-23.715,19.567,10.636,19.567,23.715S244.286,221.709,233.507,221.709Zm0-45.684c-9.814,0-17.822,9.876-17.822,21.99s8.008,21.97,17.822,21.97,17.822-9.856,17.822-21.97S243.342,176.025,233.507,176.025Z" transform="translate(2.831 -15.311)" fill="none" stroke="#707070" stroke-width="1"/>
        <ellipse id="Ellipse_145" data-name="Ellipse 145" cx="4.846" cy="5.934" rx="4.846" ry="5.934" transform="translate(230.958 176.914)" fill="none" stroke="#707070" stroke-width="1"/>
        <ellipse id="Ellipse_146" data-name="Ellipse 146" cx="4.846" cy="5.934" rx="4.846" ry="5.934" transform="translate(596.208 176.914)" fill="none" stroke="#707070" stroke-width="1"/>
        <path id="Path_10048" data-name="Path 10048" d="M411.137,221.709c-10.8,0-19.567-10.636-19.567-23.694s8.767-23.715,19.567-23.715,19.547,10.636,19.547,23.715S421.917,221.709,411.137,221.709Zm0-45.684c-9.835,0-17.822,9.876-17.822,21.99s7.987,21.97,17.822,21.97,17.822-9.856,17.822-21.97S420.952,176.025,411.137,176.025Z" transform="translate(189.896 -15.311)" fill="none" stroke="#707070" stroke-width="1"/>
        <path id="Path_10049" data-name="Path 10049" d="M305.412,146.58s-4.353,2.053-10.266,5.626c-8.5,5.072-20.245,13-26.692,21.538l-64.246,13.572-6.837,1.437s-21.333,5.051-31.456,14.886a10.553,10.553,0,0,1-7.33,3.039h-41a28.15,28.15,0,0,1-8.562-3.532q.349-4.5.924-8.439c.144-.986.308-2.053.472-2.875.534-3.059,1.15-5.852,1.827-8.377.267-1.006.554-2.053.842-2.9a67.985,67.985,0,0,1,3.141-8.213c.493-1.047.986-2.053,1.458-2.875a32.563,32.563,0,0,1,6.16-8.4h73.424Z" transform="translate(-107.695 -44.506)" fill="none" stroke="#707070" stroke-width="1"/>
        <path id="Path_10050" data-name="Path 10050" d="M158.976,208.352H117.911a29.649,29.649,0,0,1-8.849-3.655l-.452-.267V203.9c.226-2.916.534-5.79.945-8.5.144-.986.287-2.053.452-2.9.534-3,1.15-5.852,1.848-8.459.287-1.047.575-2.053.862-2.916a62.832,62.832,0,0,1,3.182-8.377c.472-1.006.965-2.053,1.478-2.957a33.385,33.385,0,0,1,6.406-8.6l.246-.226H197.7L311.018,145.81l-4.8,2.443s-4.394,2.053-10.266,5.605c-8.562,5.071-20.1,12.915-26.487,21.292l-.185.267h-.329l-71.083,15.03c-.185,0-21.189,5.092-31.045,14.66A11.334,11.334,0,0,1,158.976,208.352Zm-40.88-1.725h40.88a9.568,9.568,0,0,0,6.714-2.792c10.266-9.9,31-14.886,31.887-15.112l70.775-14.948c6.591-8.521,18.171-16.426,26.795-21.5,2.238-1.335,4.291-2.484,5.934-3.388L197.823,162.626H124.6a31.723,31.723,0,0,0-5.729,7.925c-.493.9-.965,1.868-1.417,2.833a66.952,66.952,0,0,0-3.121,8.213c-.287.883-.554,1.827-.821,2.854-.7,2.567-1.314,5.359-1.827,8.213-.144.924-.308,1.889-.452,2.875-.37,2.5-.657,5.133-.883,7.823a28.479,28.479,0,0,0,7.741,3.265Z" transform="translate(-108.127 -45.317)" fill="none" stroke="#707070" stroke-width="1"/>
        <path id="Path_10051" data-name="Path 10051" d="M171.536,198.22H114.312l-5.482-15.892v-.287h48.99a10.266,10.266,0,0,1,9.465,6.262Z" transform="translate(-107.896 -7.159)" fill="none" stroke="#707070" stroke-width="1"/>
        <path id="Path_10052" data-name="Path 10052" d="M250.723,149.32c-8.5,5.072-20.245,13-26.692,21.538L159.785,184.43c-4.825-3.183-8.952-7-8.562-10.7.862-8.377,11.56-10.389,11.56-10.389Z" transform="translate(-63.273 -41.621)" fill="none" stroke="#707070" stroke-width="1"/>
        <path id="Path_10053" data-name="Path 10053" d="M160.046,186.155l-.308-.205c-6.3-4.106-9.322-8.008-8.952-11.5.924-8.911,11.786-11.067,12.319-11.17l92.4-14.722-3.9,2.32c-8.562,5.072-20.1,12.915-26.487,21.292l-.185.267H224.6ZM247,151.681l-83.669,13.3s-10.04,2.053-10.821,9.65c-.287,2.69,2.443,6.036,7.884,9.671l63.65-13.428c5.585-7.33,14.968-14.188,22.955-19.2Z" transform="translate(-63.738 -42.421)" fill="none" stroke="#707070" stroke-width="1"/>
        <path id="Path_10054" data-name="Path 10054" d="M182.648,159.137h0a1.437,1.437,0,0,1-1.437,1.437H112.53c.493-1.047.986-2.053,1.458-2.875h67.264A1.437,1.437,0,0,1,182.648,159.137Z" transform="translate(-103.999 -32.794)" fill="none" stroke="#707070" stroke-width="1"/>
        <path id="Path_10055" data-name="Path 10055" d="M111.432,163.13h65.7a1.458,1.458,0,0,1,1.437,1.437h0a1.458,1.458,0,0,1-1.437,1.458H110.59Z" transform="translate(-106.042 -27.075)" fill="none" stroke="#707070" stroke-width="1"/>
        <path id="Path_10056" data-name="Path 10056" d="M109.942,168.62H172.3a1.437,1.437,0,0,1,1.437,1.437h0a1.437,1.437,0,0,1-1.437,1.437H109.47Z" transform="translate(-107.221 -21.293)" fill="none" stroke="#707070" stroke-width="1"/>
        <path id="Path_10057" data-name="Path 10057" d="M143.488,205.15v-1.725l29.361-.575c28.91-2.5,38.457-13.141,40.264-15.564l-8.562-10.143-44.227,1.478-27.575,13.223-.739-1.56,27.9-13.367h.185l45.171-1.458,9.917,11.765-.308.534c-.329.575-8.4,14-41.989,16.9Z" transform="translate(-83.482 -14.089)" fill="none" stroke="#707070" stroke-width="1"/>
        <path id="Path_10058" data-name="Path 10058" d="M195.435,220.419H193.69c0-.37,2.053-37.451,25.173-57.2,11.642-9.9,26.692-13.88,44.576-11.827,21.477,2.484,46.116,21.374,52.768,58l-1.7.308c-6.488-35.767-30.429-54.185-51.331-56.587-17.432-2.053-31.969,1.848-43.241,11.437C197.365,183.707,195.435,220.049,195.435,220.419Z" transform="translate(-18.518 -39.994)" fill="none" stroke="#707070" stroke-width="1"/>
        <ellipse id="Ellipse_147" data-name="Ellipse 147" cx="4.62" cy="5.482" rx="4.62" ry="5.482" transform="translate(108.996 167.674)" fill="none" stroke="#707070" stroke-width="1"/>
        <path id="Path_10059" data-name="Path 10059" d="M183.133,159.492a3.7,3.7,0,1,1-3.634-4.332A4.106,4.106,0,0,1,183.133,159.492Z" transform="translate(-37.364 -35.47)" fill="none" stroke="#707070" stroke-width="1"/>
        <path id="Path_10060" data-name="Path 10060" d="M175,160.9a3.716,3.716,0,1,1-3.655-4.332A4.106,4.106,0,0,1,175,160.9Z" transform="translate(-45.981 -33.985)" fill="none" stroke="#707070" stroke-width="1"/>
        <ellipse id="Ellipse_148" data-name="Ellipse 148" cx="3.655" cy="4.332" rx="3.655" ry="4.332" transform="translate(104.951 126.055)" fill="none" stroke="#707070" stroke-width="1"/>
        <path id="Path_10061" data-name="Path 10061" d="M393.369,151.634l-7.392.7-92.067,8.849c.123-5.934-1.17-38.4,2.977-40.2,9.24-4.106,24.1-1.581,31.435.123a9.732,9.732,0,0,1,7.453,8.213l-.76,19.916,56.649-9.835Z" transform="translate(86.934 -73.809)" fill="none" stroke="#707070" stroke-width="1"/>
        <path id="Path_10062" data-name="Path 10062" d="M253.064,167.812l-.164-1.725L573.472,135.74l58.743,6.652-.185,1.725-58.579-6.632Z" transform="translate(43.844 -55.923)" fill="none" stroke="#707070" stroke-width="1"/>
        <rect id="Rectangle_1417" data-name="Rectangle 1417" width="247.62" height="1.725" transform="translate(296.767 184.952) rotate(-6)" fill="none" stroke="#707070" stroke-width="1"/>
        <path id="Path_10063" data-name="Path 10063" d="M324.179,137.722,296.83,136.47v-1.725l23.653,1.068a10.862,10.862,0,0,1-1.868-7.227,12.32,12.32,0,0,1,4.23-7.535l1.068,1.376-.534-.7.534.7a10.574,10.574,0,0,0-3.573,6.365,9.958,9.958,0,0,0,2.566,7.433Z" transform="translate(90.113 -71.396)" fill="none" stroke="#707070" stroke-width="1"/>
        <path id="Path_10064" data-name="Path 10064" d="M138.18,191.953l-.78-1.54,19.732-9.773H186.8v1.725H157.542Z" transform="translate(-77.805 -8.633)" fill="none" stroke="#707070" stroke-width="1"/>
        <path id="Path_10065" data-name="Path 10065" d="M484.714,153.24,347.558,166.4l-17.268-61C419.544,114.249,484.714,153.24,484.714,153.24Z" transform="translate(125.354 -87.879)" fill="none" stroke="#707070" stroke-width="1"/>
        <path id="Path_10066" data-name="Path 10066" d="M379.2,116.77l10.369,28.253Z" transform="translate(176.868 -75.903)" fill="none" stroke="#707070" stroke-width="1"/>
        <rect id="Rectangle_1418" data-name="Rectangle 1418" width="1.725" height="30.1" transform="translate(555.275 41.122) rotate(-20.14)" fill="none" stroke="#707070" stroke-width="1"/>
        <path id="Path_10067" data-name="Path 10067" d="M403.46,123.21H361.245a11.827,11.827,0,0,0-11.005,7.535L344.08,146.6Z" transform="translate(139.878 -69.121)" fill="none" stroke="#707070" stroke-width="1"/>
        <path id="Path_10068" data-name="Path 10068" d="M345.3,147.347l-1.622-.636,6.16-15.83a12.566,12.566,0,0,1,11.806-8.09h42.235v1.745H361.666A10.862,10.862,0,0,0,351.4,131.5Z" transform="translate(139.457 -69.563)" fill="none" stroke="#707070" stroke-width="1"/>
        <path id="Path_10069" data-name="Path 10069" d="M394.037,110.226l-12.71,46.342-19.649,1.15s-3.552-32.462-63.548-45.541c28.6-8.644,49.4-7.33,49.4-7.33q8.439.431,16.631,1.273C374.469,107.064,384.448,108.5,394.037,110.226Z" transform="translate(91.482 -88.537)" fill="none" stroke="#707070" stroke-width="1"/>
        <path id="Path_10070" data-name="Path 10070" d="M349.588,167.692l-1.581.144-21.764,2.053L322.3,104.76c3.573.205,7.084.452,10.574.739Z" transform="translate(116.938 -88.553)" fill="none" stroke="#707070" stroke-width="1"/>
        <path id="Path_10071" data-name="Path 10071" d="M325.936,171.357,321.83,104.38h.986c3.388.185,6.837.431,10.574.739h.616l.144.6,17,63.137Zm-2.217-65.149,3.84,63.1,21.436-2.053-16.3-60.591c-3.141-.164-6.078-.37-8.973-.534Z" transform="translate(116.443 -88.953)" fill="none" stroke="#707070" stroke-width="1"/>
        <path id="Path_10072" data-name="Path 10072" d="M281.83,148.62a15.033,15.033,0,0,1-.411,3.491l-28.5,2.73v-.616a29.382,29.382,0,0,1,7.9-17.7c1.335-1.437,2.669-2.833,4.106-4.106C274.356,132.728,281.83,139.873,281.83,148.62Z" transform="translate(43.865 -59.42)" fill="none" stroke="#707070" stroke-width="1"/>
        <path id="Path_10073" data-name="Path 10073" d="M119.981,198.24l-5.852-16.2H111.07l5.852,16.2Z" transform="translate(-105.536 -7.159)" fill="none" stroke="#707070" stroke-width="1"/>
        <path id="Path_10074" data-name="Path 10074" d="M124.481,198.24h-3.059l-5.852-16.2h3.08Z" transform="translate(-100.797 -7.159)" fill="none" stroke="#707070" stroke-width="1"/>
        <path id="Path_10075" data-name="Path 10075" d="M128.991,198.24l-5.852-16.2H120.08l5.831,16.2Z" transform="translate(-96.047 -7.159)" fill="none" stroke="#707070" stroke-width="1"/>
        <path id="Path_10076" data-name="Path 10076" d="M133.491,198.24h-3.059l-5.852-16.2h3.08Z" transform="translate(-91.307 -7.159)" fill="none" stroke="#707070" stroke-width="1"/>
        <path id="Path_10077" data-name="Path 10077" d="M137.991,198.24l-5.831-16.2h-3.08l5.852,16.2Z" transform="translate(-86.568 -7.159)" fill="none" stroke="#707070" stroke-width="1"/>
        <path id="Path_10078" data-name="Path 10078" d="M172.934,204.8l-7.248-11.724H115.3V191.33h51.351l7.761,12.545Z" transform="translate(-101.081 2.626)" fill="none" stroke="#707070" stroke-width="1"/>
        <path id="Path_10079" data-name="Path 10079" d="M320.607,105.19c-36.958,14.886-74.758,48.559-74.758,48.559l74.327,2.053c-8.726,7.761-13.941,13.161-13.941,13.161L191.91,165.514c47.224-33.488,89.275-51.105,116.747-60.1l6.488-.205Z" transform="translate(-20.393 -88.1)" fill="none" stroke="#707070" stroke-width="1"/>
        <path id="Path_10080" data-name="Path 10080" d="M271.176,136.658h0l-10.266,7.967h0l.205-39.5h6.344Z" transform="translate(52.28 -88.174)" fill="none" stroke="#707070" stroke-width="1"/>
        <rect id="Rectangle_1419" data-name="Rectangle 1419" width="98.761" height="1.725" transform="translate(197.935 100.94) rotate(-3.86)" fill="none" stroke="#707070" stroke-width="1"/>
        <rect id="Rectangle_1420" data-name="Rectangle 1420" width="1.725" height="16.549" transform="translate(390.803 92.193) rotate(-77.91)" fill="none" stroke="#707070" stroke-width="1"/>
        <rect id="Rectangle_1421" data-name="Rectangle 1421" width="1.725" height="12.443" transform="translate(396.013 82.461) rotate(-21.8)" fill="none" stroke="#707070" stroke-width="1"/>
        <path id="Path_10081" data-name="Path 10081" d="M329.306,151.071a6.776,6.776,0,0,1-6.776-6.611h1.745a5.03,5.03,0,0,0,5.544,4.887l10.266-1.068L340.27,150,330,151.071Z" transform="translate(117.181 -46.739)" fill="none" stroke="#707070" stroke-width="1"/>
        <path id="Path_10082" data-name="Path 10082" d="M387.576,145.441a6.776,6.776,0,0,1-6.775-6.611h1.725a5.031,5.031,0,0,0,1.725,3.655,4.928,4.928,0,0,0,3.84,1.232l10.266-1.068.185,1.725-10.266,1.068Z" transform="translate(178.553 -52.669)" fill="none" stroke="#707070" stroke-width="1"/>
        <path id="Path_10083" data-name="Path 10083" d="M460.332,167.392C429.287,159.056,421.69,137.6,421.69,137.6l32.154,2.875a117.718,117.718,0,0,1,5.667,21.785C459.819,163.964,460.086,165.668,460.332,167.392Z" transform="translate(221.619 -53.964)" fill="none" stroke="#707070" stroke-width="1"/>
        <path id="Path_10084" data-name="Path 10084" d="M462,169.089l-1.252-.349c-31.127-8.357-39.155-30.121-39.237-30.347l-.452-1.273,34.043,3.039.205.513a120.441,120.441,0,0,1,5.708,21.949c.308,1.868.575,3.552.8,5.154Zm-38.293-30c2.2,4.62,11.334,20.532,36.2,27.616-.164-1.191-.37-2.443-.6-3.8a119.094,119.094,0,0,0-5.441-21.107Z" transform="translate(220.956 -54.47)" fill="none" stroke="#707070" stroke-width="1"/>
      </g>
      <path id="Path_10085" data-name="Path 10085" d="M311.389,112.51l2.4,45.356-29.156,3.9L265.91,140.229,286.2,125.363Z" transform="translate(280.066 118.499)" fill="none" stroke="#707070" stroke-width="1"/>
      <path id="Path_10086" data-name="Path 10086" d="M342.224,131.888l2.567,25.953-20.82,1.519.76-19.916h0a8.377,8.377,0,0,0-4.928-7.289h0L304.26,109.2l5.605.411a39.012,39.012,0,0,1,32.318,22.278Z" transform="translate(320.457 115.013)" fill="none" stroke="#707070" stroke-width="1"/>
      <path id="Path_10087" data-name="Path 10087" d="M310.024,153.962l-1.294-23.51s5.215.472,5.852-6.427c0,0,0-5.811-4.106-4.106l-3.347-7.823-20.04-1.417s-8.583,30.059,5.256,28.622l-.534,16.138Z" transform="translate(299.602 116.572)" fill="none" stroke="#707070" stroke-width="1"/>
      <path id="Path_10088" data-name="Path 10088" d="M291.288,156.849l.534-16.159h0a6.468,6.468,0,0,1-5.236-2.341c-5.708-6.817-.144-26.692.1-27.452l.185-.678,21.271,1.519,3.244,7.576a3.285,3.285,0,0,1,2.587.39c1.889,1.252,2.053,4.435,2.053,4.784h0c-.513,5.77-4.106,6.96-5.811,7.186l1.314,23.489Zm2.341-18.048-.534,16.159,16.426-1.314-1.314-23.653h.986c.452,0,4.373.164,4.928-5.605,0-.7-.267-2.69-1.211-3.326-.164-.1-.657-.431-1.786,0l-.78.329-3.47-8.213-18.808-1.355c-.924,3.532-4.825,19.732-.246,25.193a5.051,5.051,0,0,0,4.764,1.663Z" transform="translate(299.141 116.088)" fill="none" stroke="#707070" stroke-width="1"/>
      <path id="Path_10089" data-name="Path 10089" d="M316.455,128.876s-3.655-3.183-5.729,3.573l-2.053.472-3.183-12.833s-18.274,2.217-23.16-4.764a5.113,5.113,0,0,1,.821-6.714c1.437-1.191,3.716-1.6,7.063,1.54,0,0-1.437-8.829,5.256-5.708,2.259,1.047,4.291,4.661,8.583,5.195,0,0,7.166,0,7.638,4.681C311.671,114.5,319.309,113.148,316.455,128.876Z" transform="translate(296.415 109.299)" fill="none" stroke="#707070" stroke-width="1"/>
      <path id="Path_10090" data-name="Path 10090" d="M296.743,121.94a11.847,11.847,0,0,1-8.6,5.729Z" transform="translate(303.479 128.431)" fill="none" stroke="#707070" stroke-width="1"/>
      <path id="Path_10091" data-name="Path 10091" d="M288.378,128.7l-.308-1.7a10.923,10.923,0,0,0,7.967-5.236l1.56.739a12.628,12.628,0,0,1-9.219,6.2Z" transform="translate(303.405 128.242)" fill="none" stroke="#707070" stroke-width="1"/>
      <path id="Path_10092" data-name="Path 10092" d="M302.718,128.784l-7.9.842a15.563,15.563,0,0,0-13.12,10.533l-8.213,19.732,43.344-2.361,5.071,21.025s28.191,14.373,33.488-.924c4.476-12.956-15.995-51.721-15.995-51.721a14.681,14.681,0,0,0-19.67,2.875S303.663,146.606,302.718,128.784Z" transform="translate(288.039 129.923)" fill="none" stroke="#707070" stroke-width="1"/>
      <path id="Path_10093" data-name="Path 10093" d="M317.4,146.609s0,12.586-3.757,17.288l-18.7-19.4-13.531.575s4.907-9.65,12.443-8.706S317.4,146.609,317.4,146.609Z" transform="translate(296.391 143.554)" fill="none" stroke="#707070" stroke-width="1"/>
      <path id="Path_10094" data-name="Path 10094" d="M314.424,165.663,295.37,145.829l-14.64.616.678-1.314c.226-.411,5.277-10.266,13.325-9.178,7.6.945,23.181,9.979,23.838,10.369l.431.246v.493c0,.534,0,12.956-3.963,17.843Zm-18.356-21.6,18.192,18.931c2.608-4.332,2.957-13.223,3-15.42-2.608-1.5-16.159-9.1-22.75-9.917-5.195-.637-9.157,4.435-10.759,6.94Z" transform="translate(295.675 143.102)" fill="none" stroke="#707070" stroke-width="1"/>
      <path id="Path_10095" data-name="Path 10095" d="M269.706,125.57l-6.406,5.585a21.169,21.169,0,0,1,20.06,21.128,20.369,20.369,0,0,1-.862,5.954l6.94-.637a28.483,28.483,0,0,0,.513-5.318,27.8,27.8,0,0,0-20.245-26.713Z" transform="translate(277.317 132.255)" fill="none" stroke="#707070" stroke-width="1"/>
      <path id="Path_10096" data-name="Path 10096" d="M281.963,139.49l-.862,2.977s-11.272-9.835-10.533-12.771,6.037-3.942,11.067,6.016A5.031,5.031,0,0,1,281.963,139.49Z" transform="translate(284.935 134.473)" fill="none" stroke="#707070" stroke-width="1"/>
      <path id="Path_10097" data-name="Path 10097" d="M281.993,144.416l-1.027-.883c-2.731-2.4-11.6-10.43-10.8-13.654a3.47,3.47,0,0,1,3.059-2.567c1.54-.164,5.523.308,9.63,8.418a6.16,6.16,0,0,1,.39,4.414h0Zm-8.213-15.4h-.288a1.745,1.745,0,0,0-1.581,1.273c-.329,1.355,4.332,6.591,9.24,11.005l.493-1.663h0a4.271,4.271,0,0,0-.287-3.141c-2.854-5.523-5.749-7.474-7.638-7.474Z" transform="translate(284.495 134.065)" fill="none" stroke="#707070" stroke-width="1"/>
      <g id="Leaf" transform="translate(911.862 309.295)">
        <path id="Path_10098" data-name="Path 10098" d="M524.985,160.538a45.911,45.911,0,0,0-19.875,17.1,19.546,19.546,0,0,1,8.973,3.285c4.271,3.018,6.427,7.72,6.386,13.962a11.95,11.95,0,0,1-7.72,9.548c-2.669.78-6.673.37-10.677-5.913a17.9,17.9,0,0,1-1.4-14.66,26.955,26.955,0,0,1,1.848-4.8,35.377,35.377,0,0,0-12.75,2.053,271.023,271.023,0,0,1-29.423,8.952l-.37-1.56a272.483,272.483,0,0,0,29.238-8.911,36.959,36.959,0,0,1,14.126-2.053,46.977,46.977,0,0,1,20.923-18.479Zm-22.77,23.776a16.426,16.426,0,0,0,1.212,13.346c2.751,4.291,5.811,6.16,8.87,5.236a10.451,10.451,0,0,0,6.55-8.008,14.372,14.372,0,0,0-5.708-12.648,18.479,18.479,0,0,0-8.87-3.08A28.078,28.078,0,0,0,502.215,184.315Z" transform="translate(-427.395 -141.767)" fill="none" stroke="#707070" stroke-width="1"/>
        <path id="Path_10099" data-name="Path 10099" d="M462.117,175.122c-13.161,1.54-17.1-.8-17.145-.842l-.862,1.376c.185.1,4.456,2.69,18.192,1.068Z" transform="translate(-444.11 -125.737)" fill="none" stroke="#707070" stroke-width="1"/>
        <path id="Path_10100" data-name="Path 10100" d="M526.341,156.864a36.26,36.26,0,0,0-11.621-5.708c-7.7-1.91-17.247,1.5-15.009,9.589C501.188,166.083,513.118,166.822,526.341,156.864Z" transform="translate(-385.899 -150.638)" fill="none" stroke="#707070" stroke-width="1"/>
        <path id="Path_10101" data-name="Path 10101" d="M514.611,153.78a100.92,100.92,0,0,0-19.341,6.16l.636,1.478a100.1,100.1,0,0,1,18.993-6.037Z" transform="translate(-390.226 -147.328)" fill="none" stroke="#707070" stroke-width="1"/>
      </g>
    </g>
  </g>
</svg>
