<svg xmlns="http://www.w3.org/2000/svg" width="630" height="381" viewBox="0 0 630 381">
  <g id="productpage" transform="translate(-286 -27234)">
    <rect id="BG" width="630" height="381" rx="26" transform="translate(286 27234)" fill="#4a4a4a"/>
    <g id="Group_7011" data-name="Group 7011" transform="translate(91 -72)">
      <rect id="Rectangle_1566" data-name="Rectangle 1566" width="141" height="174" rx="35" transform="translate(328 27404)" fill="#858585"/>
      <rect id="Title" width="173" height="13" rx="6.5" transform="translate(519 27446)" fill="#77777a"/>
      <rect id="Title-2" data-name="Title" width="138" height="13" rx="6.5" transform="translate(519 27476)" fill="#5e5e5e"/>
      <rect id="Title-3" data-name="Title" width="62" height="24" rx="12" transform="translate(519 27513)" fill="#858585"/>
    </g>
    <g id="Group_7006" data-name="Group 7006" transform="translate(-721 515)">
      <rect id="_3" data-name="3" width="24" height="11" rx="5.5" transform="translate(1565 26750)" fill="#858585"/>
      <rect id="_2" data-name="2" width="24" height="11" rx="5.5" transform="translate(1530 26750)" fill="#858585"/>
      <rect id="_1" data-name="1" width="23" height="11" rx="5.5" transform="translate(1495 26750)" fill="#858585"/>
      <rect id="Rectangle_1568" data-name="Rectangle 1568" width="56" height="18" rx="9" transform="translate(1055 26746)" fill="#858585"/>
    </g>
    <g id="Group_7012" data-name="Group 7012" transform="translate(62 -56)">
      <rect id="_1-2" data-name="1" width="26" height="8" rx="4" transform="translate(780 27575)" fill="#858585"/>
      <rect id="_1-3" data-name="1" width="26" height="8" rx="4" transform="translate(780 27595)" fill="#858585"/>
      <rect id="_1-4" data-name="1" width="26" height="8" rx="4" transform="translate(780 27615)" fill="#858585"/>
      <rect id="_1-5" data-name="1" width="26" height="8" rx="4" transform="translate(780 27634)" fill="#858585"/>
    </g>
    <rect id="Title-4" data-name="Title" width="61" height="10" rx="5" transform="translate(339 27581)" fill="#5e5e5e"/>
  </g>
</svg>
