<svg xmlns="http://www.w3.org/2000/svg" width="187.318" height="181.32" viewBox="0 0 187.318 181.32">
  <g id="Group_7045" data-name="Group 7045" transform="translate(-861 -44332.5)">
    <g id="Icon_feather-smile" data-name="Icon feather-smile" transform="translate(874 44339.5)">
      <path id="Path_10106" data-name="Path 10106" d="M170.318,86.659A83.659,83.659,0,1,1,86.659,3,83.659,83.659,0,0,1,170.318,86.659Z" fill="none" stroke="#00bf5f" stroke-linecap="round" stroke-linejoin="round" stroke-width="8"/>
      <path id="Path_10107" data-name="Path 10107" d="M12,21S24.549,37.732,45.464,37.732,78.927,21,78.927,21" transform="translate(41.196 82.391)" fill="none" stroke="#00bf5f" stroke-linecap="round" stroke-linejoin="round" stroke-width="8"/>
      <path id="Path_10108" data-name="Path 10108" d="M13.5,13.5h.084" transform="translate(48.061 48.061)" fill="none" stroke="#00bf5f" stroke-linecap="round" stroke-linejoin="round" stroke-width="8"/>
      <path id="Path_10109" data-name="Path 10109" d="M22.5,13.5h.084" transform="translate(89.257 48.061)" fill="none" stroke="#00bf5f" stroke-linecap="round" stroke-linejoin="round" stroke-width="8"/>
    </g>
    <g id="Icon_feather-smile-2" data-name="Icon feather-smile" transform="translate(862 44333.5)" opacity="0.1">
      <path id="Path_10106-2" data-name="Path 10106" d="M170.318,86.659A83.659,83.659,0,1,1,86.659,3,83.659,83.659,0,0,1,170.318,86.659Z" fill="none" stroke="#aeaeae" stroke-linecap="round" stroke-linejoin="round" stroke-width="8"/>
      <path id="Path_10107-2" data-name="Path 10107" d="M12,21S24.549,37.732,45.464,37.732,78.927,21,78.927,21" transform="translate(41.196 82.391)" fill="none" stroke="#aeaeae" stroke-linecap="round" stroke-linejoin="round" stroke-width="8"/>
      <path id="Path_10108-2" data-name="Path 10108" d="M13.5,13.5h.084" transform="translate(48.061 48.061)" fill="none" stroke="#aeaeae" stroke-linecap="round" stroke-linejoin="round" stroke-width="8"/>
      <path id="Path_10109-2" data-name="Path 10109" d="M22.5,13.5h.084" transform="translate(89.257 48.061)" fill="none" stroke="#aeaeae" stroke-linecap="round" stroke-linejoin="round" stroke-width="8"/>
    </g>
  </g>
</svg>
