<svg id="Arrow_08" xmlns="http://www.w3.org/2000/svg" width="344.107" height="283.398" viewBox="0 0 344.107 283.398">
  <path id="Path_6621" data-name="Path 6621" d="M174.547,54.683C135.862,27.7,91.679,8.017,47.9,11.92c-16.078,1.434-30.964,7.428-46.239,13.4a2.612,2.612,0,0,0,1.9,4.867c14.811-5.787,29.222-11.67,44.8-13.056C91.477,13.28,134.9,33.117,172.874,59.881c-.128.387-.261.774-.394,1.161-2.93,8.5-1.071,20.895,3.719,33.918,6.947,18.906,19.9,39.221,31.545,50.442,5.37,5.179,10.57,8.431,14.816,9.115a9.117,9.117,0,0,0,8.919-3.135,15.079,15.079,0,0,0,3.356-8.535c.432-4.516-.538-10-2.579-15.965-7.549-22.076-29.729-51.125-41.753-60.447q-5.65-4.381-11.5-8.589c.778-2.444,1.529-4.78,2.451-6.932a17.2,17.2,0,0,1,5.951-7.895c5.328-3.658,11.716-4.281,18.248-3.327,10.458,1.519,21.274,7.044,29.249,11.781,44.86,26.639,67.007,72.869,78.92,119.251,12.051,46.907,13.628,94.027,17.193,121.82a2.613,2.613,0,0,0,5.184-.663c-3.586-27.945-5.205-75.308-17.315-122.456-12.248-47.673-35.206-95.063-81.317-122.448-8.487-5.034-20.033-10.835-31.162-12.457-7.869-1.14-15.536-.215-21.95,4.191a22.291,22.291,0,0,0-7.8,10.143C175.873,50.685,175.2,52.644,174.547,54.683Zm2.765,8.376c-2.472,7.623-.453,18.568,3.788,30.1,6.676,18.168,19.079,37.7,30.267,48.488,3.751,3.611,7.315,6.228,10.464,7.312,2.275.787,4.262.69,5.674-.967,1.625-1.906,2.238-4.509,2.211-7.547a38.748,38.748,0,0,0-2.4-11.877c-7.24-21.171-28.477-49.068-40.006-58Q182.384,66.753,177.312,63.058Z" transform="translate(7.885 -11.426)" fill="#e94600" fill-rule="evenodd"/>
  <path id="Path_6622" data-name="Path 6622" d="M125.625,125.31A19.468,19.468,0,0,1,127.086,121c1.551-3.611,3.756-7.465,4.737-9.329a2.613,2.613,0,1,0-4.631-2.423,105.573,105.573,0,0,0-5.678,11.619,15,15,0,0,0-1.151,5.623,4.065,4.065,0,0,0,1.485,3.043,5.884,5.884,0,0,0,3.987,1.079c1.959-.064,4.756-.684,7.831-.912a14.983,14.983,0,0,1,7.958,1.174,2.609,2.609,0,1,0,2.346-4.66c-4.806-2.418-10.262-1.893-14.573-1.272C128.114,125.133,126.521,125.254,125.625,125.31Z" transform="translate(-120.352 -103.37)" fill="#e94600" fill-rule="evenodd"/>
</svg>
