<svg xmlns="http://www.w3.org/2000/svg" width="155.325" height="55.092" viewBox="0 0 155.325 55.092">
  <g id="Arrow_11" transform="matrix(-0.017, -1, 1, -0.017, 0.722, 55.094)">
    <path id="Path_6627" data-name="Path 6627" d="M53.833,90.056a12.023,12.023,0,0,1,.647-2.012c1.165-3.614,2.46-7.828,4.791-10.94,3.107-4.08,6.6-5.657,10.1-5.622,4.92.053,9.97,3.682,13.077,8.656,3.108,4.928,4.4,11.1,2.461,16.07-1.295,3.407-4.143,6.314-9.064,7.9-5.568,1.828-10.876.333-15.538-2.89a30.355,30.355,0,0,1-4.92-4.268q-.583,3.164-1.166,6.4a109.875,109.875,0,0,0-.907,21.631,78.38,78.38,0,0,0,5.957,27.163,1.694,1.694,0,0,1-.907,2.058,1.623,1.623,0,0,1-2.071-.858,81.453,81.453,0,0,1-6.216-28.231,116.39,116.39,0,0,1,1.037-22.259c.518-3.014,1.036-5.973,1.683-8.9a49.185,49.185,0,0,1-6.733-11.727C37,57.973,48.782,25.315,60.436,3.338a1.5,1.5,0,0,1,2.073-.655,1.584,1.584,0,0,1,.647,2.131c-11.265,21.271-22.919,52.826-14.114,76.3A43.278,43.278,0,0,0,53.833,90.056Zm2.461,3.139a24.362,24.362,0,0,1,1.165-4.134c1.165-3.312,2.2-7.2,4.273-10.054,2.331-3.08,4.921-4.4,7.511-4.371,4.143.043,8.027,3.163,10.487,7.186,2.59,4.067,3.885,9.135,2.2,13.238-1.036,2.641-3.238,4.821-6.992,6.049-4.661,1.506-9.063.17-12.818-2.486A27.072,27.072,0,0,1,56.293,93.195Z" transform="translate(-33.423 0.474)" fill="#ff4e00" fill-rule="evenodd"/>
    <path id="Path_6628" data-name="Path 6628" d="M80.679,3.579A14.261,14.261,0,0,0,78.737,5.4a34.389,34.389,0,0,1-3.5,3.448c-6.215,4.529-13.725,9.883-21.105,12.258a1.567,1.567,0,0,1-.907-3c6.992-2.279,14.114-7.465,20.2-11.811a46.9,46.9,0,0,0,3.754-3.827,8.97,8.97,0,0,1,3.5-2.389c.647-.233,1.813.026,2.59,1.484,1.036,2.067,1.943,7.805,2.073,8.361,1.295,5.627,2.589,10.579,7.51,14.131a1.78,1.78,0,0,1,.388,2.2,1.584,1.584,0,0,1-2.2.346c-5.568-4.05-7.38-9.6-8.8-16.01a35.372,35.372,0,0,0-1.295-6.223C80.809,4.116,80.808,3.833,80.679,3.579Z" transform="translate(-52.114 -0.008)" fill="#ff4e00" fill-rule="evenodd"/>
  </g>
</svg>
