<svg id="Arrow_08" xmlns="http://www.w3.org/2000/svg" width="344.107" height="283.398" viewBox="0 0 344.107 283.398">
  <path id="Path_6621" data-name="Path 6621" d="M161.675,54.683C200.36,27.7,244.543,8.017,288.322,11.92c16.078,1.434,30.964,7.428,46.239,13.4a2.612,2.612,0,0,1-1.9,4.867c-14.811-5.787-29.222-11.67-44.8-13.056-43.118-3.847-86.544,15.991-124.515,42.755.128.387.261.774.394,1.161,2.93,8.5,1.071,20.895-3.719,33.918-6.947,18.906-19.9,39.221-31.545,50.442-5.37,5.179-10.57,8.431-14.816,9.115a9.117,9.117,0,0,1-8.919-3.135,15.079,15.079,0,0,1-3.356-8.535c-.432-4.516.538-10,2.579-15.965,7.549-22.076,29.729-51.125,41.753-60.447q5.65-4.381,11.5-8.589c-.778-2.444-1.529-4.78-2.451-6.932a17.2,17.2,0,0,0-5.951-7.895c-5.328-3.658-11.716-4.281-18.248-3.327-10.458,1.519-21.274,7.044-29.249,11.781C56.458,78.111,34.31,124.341,22.4,170.723,10.346,217.63,8.769,264.75,5.2,292.543a2.613,2.613,0,0,1-5.184-.663c3.586-27.945,5.205-75.308,17.315-122.456C29.585,121.752,52.542,74.362,98.653,46.976c8.487-5.034,20.033-10.835,31.162-12.457,7.869-1.14,15.536-.215,21.95,4.191a22.291,22.291,0,0,1,7.8,10.143C160.348,50.685,161.02,52.644,161.675,54.683Zm-2.765,8.376c2.472,7.623.453,18.568-3.788,30.1-6.676,18.168-19.079,37.7-30.267,48.488-3.751,3.611-7.315,6.228-10.464,7.312-2.275.787-4.262.69-5.674-.967-1.625-1.906-2.238-4.509-2.211-7.547a38.748,38.748,0,0,1,2.4-11.877c7.24-21.171,28.477-49.068,40.006-58Q153.838,66.753,158.91,63.058Z" transform="translate(0 -11.426)" fill="#e94600" fill-rule="evenodd"/>
  <path id="Path_6622" data-name="Path 6622" d="M140.135,125.31A19.468,19.468,0,0,0,138.674,121c-1.551-3.611-3.756-7.465-4.737-9.329a2.613,2.613,0,1,1,4.631-2.423,105.573,105.573,0,0,1,5.678,11.619,15,15,0,0,1,1.151,5.623,4.065,4.065,0,0,1-1.485,3.043,5.884,5.884,0,0,1-3.987,1.079c-1.959-.064-4.756-.684-7.831-.912a14.983,14.983,0,0,0-7.958,1.174,2.609,2.609,0,1,1-2.346-4.66c4.806-2.418,10.262-1.893,14.573-1.272C137.645,125.133,139.239,125.254,140.135,125.31Z" transform="translate(198.699 -103.37)" fill="#e94600" fill-rule="evenodd"/>
</svg>
