<svg xmlns="http://www.w3.org/2000/svg" xmlns:xlink="http://www.w3.org/1999/xlink" width="421.079" height="421.08" viewBox="0 0 421.079 421.08">
  <defs>
    <clipPath id="clip-path">
      <rect id="Rectangle_764" data-name="Rectangle 764" width="306.863" height="306.863" fill="#ff4e00" stroke="#ff4e00" stroke-width="1"/>
    </clipPath>
  </defs>
  <g id="Arrow_01" transform="translate(158.046) rotate(31)" clip-path="url(#clip-path)">
    <path id="Path_6634" data-name="Path 6634" d="M155.7,198.842c-34.589,18.744-74.149,32.51-113.371,29.814-14.271-.98-27.482-5.1-41.045-9.187a1.807,1.807,0,1,1,1.047-3.458c13.3,4.011,26.249,8.077,40.245,9.039,38.665,2.659,77.639-11.032,111.705-29.547l-.243-.547c-2.65-5.932-1.008-14.589,3.321-23.676,6.2-13.025,17.753-27.019,28.148-34.75,4.671-3.473,9.148-5.68,12.839-6.141A8.745,8.745,0,0,1,205.6,132.4c4.063,3.672,3.92,9.937.7,17.2-6.731,15.194-26.5,35.2-37.224,41.62q-5.023,3-10.213,5.889c.438,1.056.871,2.088,1.337,3.073a13.928,13.928,0,0,0,6.141,6.931c4.933,2.611,10.846,3.063,16.9,2.388,9.443-1.062,19.219-4.9,26.416-8.2,40.083-18.362,59.934-50.212,70.581-82.183,10.746-32.291,12.154-64.734,15.337-83.872a1.806,1.806,0,0,1,3.563.595c-3.2,19.261-4.652,51.914-15.475,84.419-10.922,32.823-31.354,65.476-72.5,84.328-7.5,3.435-17.687,7.4-27.52,8.5-6.807.761-13.443.152-19-2.788C159.666,207.662,157.688,203.543,155.7,198.842Zm1.76-5.089-.124-.272c-2.317-5.184-.5-12.7,3.287-20.645,5.961-12.516,17.049-25.974,27.044-33.4a30.125,30.125,0,0,1,9.585-5.152c2.379-.633,4.443-.542,5.923.8a6.305,6.305,0,0,1,1.936,5.019A21.182,21.182,0,0,1,203,148.132c-6.47,14.6-25.474,33.818-35.778,39.984Q162.418,190.983,157.459,193.753Z" transform="translate(7.327 21.902)" fill="#ff4e00" stroke="#ff4e00" stroke-width="1" fill-rule="evenodd"/>
    <path id="Path_6635" data-name="Path 6635" d="M177.422,145.222a11.235,11.235,0,0,0,1.265,2.791c1.378,2.483,3.344,5.129,4.219,6.414a1.808,1.808,0,0,1-2.993,2.031,67.555,67.555,0,0,1-5.084-8.03,8.658,8.658,0,0,1-1.057-4.063c.144-1.773,1.547-2.883,4.33-2.816,3.291.08,9.4,1.732,14.523-.252a1.808,1.808,0,0,1,1.3,3.373c-4.881,1.888-10.57.98-14.4.6A17.939,17.939,0,0,0,177.422,145.222Z" transform="translate(-173.396 90.557)" fill="#ff4e00" stroke="#ff4e00" stroke-width="1" fill-rule="evenodd"/>
  </g>
</svg>
