<svg xmlns="http://www.w3.org/2000/svg" xmlns:xlink="http://www.w3.org/1999/xlink" width="470.144" height="470.145" viewBox="0 0 470.144 470.145">
  <defs>
    <clipPath id="clip-path">
      <rect id="Rectangle_761" data-name="Rectangle 761" width="338.664" height="338.664" transform="translate(0 0)" fill="#e94600"/>
    </clipPath>
  </defs>
  <g id="Arrow_10" transform="translate(280.765 470.145) rotate(-146)" clip-path="url(#clip-path)">
    <path id="Path_6625" data-name="Path 6625" d="M161.354,162.8a83.326,83.326,0,0,0,5.988-21.683c7.569-55.351-36.5-85.683-83.35-99.594-12.55-3.734-33.052-5.214-48.525.4-10.874,3.94-19.3,11.3-21.412,23.444C11.708,78.6,18.174,92.42,28.617,104.89c15.089,18.049,38.417,33.323,53.075,39.956,16.909,7.645,44.262,16.622,72.045,21.883-4.646,8.831-11.688,18.607-22.61,28.7-4.838,4.5-11.5,8.352-19.065,11.448a103.875,103.875,0,0,0-24.43-30.712c-8.91-7.728-30.658-20.439-49.914-24.34-13.748-2.774-26.2-.988-32.813,8.942-8.191,12.344-5.317,23.849,2.682,33.472C18.845,207.792,40.64,217.424,53.526,219.8c14.993,2.756,37.22.2,55.854-6.423,17.293,38.415,4.695,83.6-35.831,108.452a2.662,2.662,0,0,0-.862,3.582,2.624,2.624,0,0,0,3.593.858c42.872-26.3,56.284-74.108,38.034-114.779,8.047-3.314,15.185-7.432,20.358-12.239,12.023-11.124,19.592-21.9,24.43-31.553,5.221.9,10.443,1.649,15.616,2.225,23.232,2.6,45.028,1.524,59.35-5.95,33.1-17.268,42.3-51.478,36.022-84.871-6.227-33.072-27.639-65.22-55.374-78.835a2.607,2.607,0,1,0-2.3,4.681C238.81,17.9,259.074,48.593,264.966,80.062c5.844,31.148-2.442,63.181-33.293,79.288-13.652,7.095-34.3,7.859-56.38,5.392Q168.4,163.972,161.354,162.8Zm-54.225,45.961A98.694,98.694,0,0,0,84.183,180.1c-8.479-7.357-29.125-19.452-47.519-23.166-11.4-2.3-21.939-1.529-27.4,6.717-6.706,10.058-4.167,19.418,2.347,27.259,10.443,12.64,30.849,21.55,42.873,23.765C68.568,217.271,89.548,214.937,107.128,208.757Zm48.956-46.891a79.446,79.446,0,0,0,6.083-21.46c7.185-52.48-35.256-80.7-79.661-93.89-11.688-3.483-30.8-4.933-45.267.3-9.054,3.294-16.287,9.295-18.059,19.447-2.108,11.856,4.072,24.1,13.412,35.277C47.155,118.963,69.717,133.7,83.848,140.1,100.758,147.742,128.253,156.738,156.084,161.867Z" transform="translate(33.258 0)" fill="#e94600" fill-rule="evenodd"/>
    <path id="Path_6626" data-name="Path 6626" d="M5.5,25.348c.958-2.482,3.688-9.634,4.072-10.724a15.34,15.34,0,0,0,1.054-6.478,32.463,32.463,0,0,1-.24-5.414A2.614,2.614,0,0,0,5.166,2.48a31.455,31.455,0,0,0,.192,5.174,10.371,10.371,0,0,1-.718,5.273C4.209,14.186,1.047,20.938.233,24.29a5.3,5.3,0,0,0,.144,3.636,5.2,5.2,0,0,0,2.683,2.13,45.665,45.665,0,0,0,7.808,1.582,39.773,39.773,0,0,1,9.389,2.351,9.978,9.978,0,0,1,5.7,5.273,2.579,2.579,0,0,0,3.353,1.473,2.617,2.617,0,0,0,1.485-3.383c-1.533-3.957-4.694-6.5-8.478-8.143a44.3,44.3,0,0,0-10.634-2.721c-2.06-.328-3.976-.584-5.461-.923A6.845,6.845,0,0,1,5.5,25.348Z" transform="translate(104.573 297.235)" fill="#e94600" fill-rule="evenodd"/>
  </g>
</svg>
