<svg xmlns="http://www.w3.org/2000/svg" width="1293.27" height="542.47" viewBox="0 0 1293.27 542.47"><defs><style>.a{fill:#fff;mix-blend-mode:overlay;isolation:isolate;}</style></defs><path class="a" d="M1380.2,413.577c-8.755-17.486-20.268-31.254-34.539-41.174q-21.584-15.066-39.215-23.066a205.41,205.41,0,0,0-36.215-12.4,138.828,138.828,0,0,0,26.144-10.168c8.752-4.34,18.468-10.542,29.26-18.6s19.307-18.727,25.783-32.12c6.355-13.27,9.595-28.278,9.595-44.771V221.1c0-36.46-15.95-66.347-47.731-89.415s-85.5-34.6-161.412-34.6L100,97.107V639.555l1056.546-.019q236.723,0,236.724-156.012V473.353C1393.27,451.03,1388.952,431.063,1380.2,413.577Zm-1101.038-202,842.006-.022q62.241,0,62.241,43.036v1.488q0,43.716-62.241,43.778l-842.006.019Zm928.109,256.693c0,14.015-5.155,26.416-15.35,37.205q-15.469,16-55.4,16l-857.355.021V414.962l857.355-.022c47.131,0,70.754,16.867,70.754,50.352Z" transform="translate(-100 -97.085)"/></svg>