<svg xmlns="http://www.w3.org/2000/svg" width="187.433" height="54.92" viewBox="0 0 187.433 54.92">
  <path id="_380fb5fe1782bb0bdefcf5347d28ae3d1d9997b2-200x80" data-name="380fb5fe1782bb0bdefcf5347d28ae3d1d9997b2-200x80" d="M29,19.708c0-.343.172-.5.515-.5h3.248a.885.885,0,0,1,.871.5L49.306,45.557h.211V19.708a.436.436,0,0,1,.5-.5h3.208c.343,0,.515.158.515.5v33.44a.449.449,0,0,1-.515.515H49.979a.9.9,0,0,1-.871-.515L33.384,27.418h-.158v25.73a.449.449,0,0,1-.515.515H29.516A.449.449,0,0,1,29,53.148ZM74.983,53.663a.449.449,0,0,1-.515-.515V50.877a7.01,7.01,0,0,1-2.64,2.429,8.146,8.146,0,0,1-3.961.911,8.013,8.013,0,0,1-6.258-2.482,9.915,9.915,0,0,1-2.244-6.693V29.886a.449.449,0,0,1,.515-.5h3.261a.449.449,0,0,1,.5.515V44.026a7.208,7.208,0,0,0,1.32,4.621,4.99,4.99,0,0,0,4.079,1.611A5.149,5.149,0,0,0,73,48.646a6.112,6.112,0,0,0,1.518-4.37V29.9a.449.449,0,0,1,.515-.515h3.208a.449.449,0,0,1,.5.515V53.148a.449.449,0,0,1-.5.515Zm16.647.251a6.759,6.759,0,0,1-5.1-1.624,7.842,7.842,0,0,1-1.465-5.281V33.134a.277.277,0,0,0-.317-.3H82.72a.436.436,0,0,1-.5-.5V29.9c0-.343.158-.515.5-.515h2.033c.211,0,.317-.092.317-.3V22.243a.436.436,0,0,1,.5-.5h3.261a.436.436,0,0,1,.5.5v6.839a.264.264,0,0,0,.3.3h3.881a.449.449,0,0,1,.5.515v2.429a.449.449,0,0,1-.5.5H89.637a.277.277,0,0,0-.3.3v13.73a3.393,3.393,0,0,0,.713,2.442,3.961,3.961,0,0,0,2.4.594h1.069a.449.449,0,0,1,.5.515V53.4a.449.449,0,0,1-.5.515Zm7-.251a.449.449,0,0,1-.515-.515V29.9a.449.449,0,0,1,.515-.515h3.248a.449.449,0,0,1,.515.515v2.482a6.218,6.218,0,0,1,2.39-2.535,8.3,8.3,0,0,1,6.825-.515,6.139,6.139,0,0,1,2.231,1.32.5.5,0,0,1,.106.713l-1.769,2.482a.462.462,0,0,1-.713.106,7.6,7.6,0,0,0-1.769-.871,6.825,6.825,0,0,0-1.993-.3,4.343,4.343,0,0,0-3.961,1.98,9.4,9.4,0,0,0-1.228,5.122v13.2a.449.449,0,0,1-.515.515ZM123.2,50.626a7.353,7.353,0,0,0,4.528-1.215,4.238,4.238,0,0,0,1.611-3.6v-2.64a.277.277,0,0,0-.317-.3h-4.885a8.594,8.594,0,0,0-4.634.964,3.776,3.776,0,0,0-.092,5.835,6.363,6.363,0,0,0,3.789.964Zm6.773,3.1a.449.449,0,0,1-.515-.515V51.022a6.5,6.5,0,0,1-2.64,2.284,10.06,10.06,0,0,1-4.581.911,11.314,11.314,0,0,1-3.261-.462,7.551,7.551,0,0,1-2.64-1.32,7.169,7.169,0,0,1-1.729-2.284,7.921,7.921,0,0,1-.607-3.195,6.6,6.6,0,0,1,2.5-5.677,11.882,11.882,0,0,1,7.023-1.822h5.545a.277.277,0,0,0,.317-.3V37.345a4.753,4.753,0,0,0-1.228-3.657q-1.228-1.109-4.634-1.109a10.3,10.3,0,0,0-3.459.5,9.427,9.427,0,0,0-2.442,1.228c-.3.224-.541.211-.713,0l-1.32-2.337a.581.581,0,0,1,.092-.713,11.222,11.222,0,0,1,3.406-1.756,16.133,16.133,0,0,1,4.832-.66c3.459,0,5.928.647,7.38,1.927s2.191,3.353,2.191,6.337v16.04a.449.449,0,0,1-.515.515Zm10.416,0a.449.449,0,0,1-.515-.515V33.134a.277.277,0,0,0-.3-.3h-2.086a.449.449,0,0,1-.515-.5V29.9a.449.449,0,0,1,.515-.515h2.086a.264.264,0,0,0,.3-.3V27.008c0-2.878.594-4.885,1.782-6.033a7.921,7.921,0,0,1,5.65-1.769h1.835a.436.436,0,0,1,.5.5v2.944a.449.449,0,0,1-.5.5h-1.32a8.924,8.924,0,0,0-1.875.158,2.06,2.06,0,0,0-1.122.554,2.165,2.165,0,0,0-.568,1.109,9.757,9.757,0,0,0-.145,1.822v2.284c0,.211.092.3.3.3h4.726a.449.449,0,0,1,.5.515v2.429a.449.449,0,0,1-.5.5H144.4a.277.277,0,0,0-.3.3V53.148a.449.449,0,0,1-.515.515Zm12.845,0a.449.449,0,0,1-.515-.515V29.9a.449.449,0,0,1,.515-.515h3.248a.449.449,0,0,1,.515.515v2.482a6.31,6.31,0,0,1,2.39-2.535,8.3,8.3,0,0,1,6.825-.515,6.258,6.258,0,0,1,2.231,1.32.5.5,0,0,1,.106.713l-1.888,2.482a.462.462,0,0,1-.713.106,7.445,7.445,0,0,0-1.782-.871,6.667,6.667,0,0,0-1.98-.3,4.37,4.37,0,0,0-3.961,1.98,9.518,9.518,0,0,0-1.215,5.122v13.2a.449.449,0,0,1-.515.515Zm33.137,0c-.343,0-.5-.172-.5-.515V50.877a7.155,7.155,0,0,1-2.64,2.429A9.241,9.241,0,0,1,172.9,51.735a9.915,9.915,0,0,1-2.178-6.693V29.886a.436.436,0,0,1,.5-.5h3.261c.343,0,.5.172.5.515V44.026a7.142,7.142,0,0,0,1.32,4.621,4.964,4.964,0,0,0,4.066,1.611,5.149,5.149,0,0,0,3.961-1.611,6.126,6.126,0,0,0,1.531-4.37V29.9c0-.343.158-.515.5-.515h3.261a.449.449,0,0,1,.515.515V53.148a.449.449,0,0,1-.515.515Zm10.086,0a.449.449,0,0,1-.515-.515V29.9a.449.449,0,0,1,.515-.515h3.261a.449.449,0,0,1,.5.515V53.148a.449.449,0,0,1-.5.515Zm-.106-29.744c-.343,0-.5-.172-.5-.515v-3.7a.436.436,0,0,1,.5-.5h3.459c.343,0,.515.158.515.5v3.7a.449.449,0,0,1-.515.515ZM213.1,53.98a6.759,6.759,0,0,1-5.1-1.624,7.842,7.842,0,0,1-1.479-5.281V33.134a.264.264,0,0,0-.3-.3H204.19a.436.436,0,0,1-.5-.5V29.9c0-.343.158-.515.5-.515h2.033c.211,0,.3-.092.3-.3V22.243c0-.343.172-.5.515-.5H210.3a.436.436,0,0,1,.5.5v6.839a.264.264,0,0,0,.3.3h3.881a.449.449,0,0,1,.5.515v2.429a.449.449,0,0,1-.5.5h-3.881a.277.277,0,0,0-.3.3v13.73a3.393,3.393,0,0,0,.713,2.5,3.961,3.961,0,0,0,2.4.594h1.069a.449.449,0,0,1,.5.515V53.4a.449.449,0,0,1-.5.515ZM131.976,71.393c-.092,0-.145,0-.145-.158V66.983a2.086,2.086,0,0,0-.422-1.32,1.479,1.479,0,0,0-1.215-.475,1.663,1.663,0,0,0-1.228.475,1.8,1.8,0,0,0-.449,1.32v4.33a.145.145,0,0,1-.158.158h-.977c-.106,0-.145,0-.145-.158v-7.05c0-.106,0-.145.145-.145h.977c.106,0,.158,0,.158.145v.673a1.835,1.835,0,0,1,.779-.7,2.5,2.5,0,0,1,1.32-.29,2.4,2.4,0,0,1,1.861.739,2.865,2.865,0,0,1,.673,1.993v4.568c0,.092,0,.145-.158.145Zm5.2-.924a2.152,2.152,0,0,0,1.32-.37,1.32,1.32,0,0,0,.5-1.056v-.805a.079.079,0,0,0-.092-.092h-1.479a2.64,2.64,0,0,0-1.386.277,1,1,0,0,0-.422.9.99.99,0,0,0,.4.858,1.967,1.967,0,0,0,1.122.251Zm2.02.924c-.092,0-.145,0-.145-.158V70.6a2.086,2.086,0,0,1-.805.687,2.918,2.918,0,0,1-1.32.277,3.367,3.367,0,0,1-.977-.145,2.324,2.324,0,0,1-.779-.409,2.046,2.046,0,0,1-.515-.686,2.349,2.349,0,0,1-.185-.951,1.954,1.954,0,0,1,.752-1.7,3.512,3.512,0,0,1,2.1-.554H139a.066.066,0,0,0,.079-.079v-.568a1.452,1.452,0,0,0-.356-1.1,2.152,2.152,0,0,0-1.4-.33,2.917,2.917,0,0,0-1.03.158,2.562,2.562,0,0,0-.739.356c-.092.079-.158.066-.211,0l-.409-.7a.185.185,0,0,1,0-.211,3.34,3.34,0,0,1,1.043-.515,4.488,4.488,0,0,1,1.452-.2,3.274,3.274,0,0,1,2.2.581,2.337,2.337,0,0,1,.66,1.9v4.805c0,.106,0,.158-.145.158Zm4.858.079a2.06,2.06,0,0,1-1.531-.488,2.363,2.363,0,0,1-.436-1.584V65.241a.1.1,0,0,0-.106-.092h-.607c-.092,0-.145,0-.145-.158v-.726a.132.132,0,0,1,.145-.145h.607a.079.079,0,0,0,.092-.092V61.967c0-.106,0-.145.158-.145h.977c.106,0,.158,0,.158.145v2.059a.079.079,0,0,0,.092.092h1.149c.106,0,.158,0,.158.145v.726a.145.145,0,0,1-.158.158h-1.149a.091.091,0,0,0-.092.092V69.36a.99.99,0,0,0,.211.739,1.149,1.149,0,0,0,.713.185h.33a.132.132,0,0,1,.145.145v.885a.145.145,0,0,1-.158.158Zm6.535-.079c-.092,0-.145,0-.145-.158v-.673a2.007,2.007,0,0,1-.792.726,2.72,2.72,0,0,1-3.076-.475,2.957,2.957,0,0,1-.66-2.007V64.264c0-.106,0-.145.158-.145h.977a.132.132,0,0,1,.145.145V68.5a2.165,2.165,0,0,0,.4,1.386,1.479,1.479,0,0,0,1.228.488,1.518,1.518,0,0,0,1.188-.488,1.861,1.861,0,0,0,.462-1.32v-4.3a.132.132,0,0,1,.145-.145h.977c.106,0,.158,0,.158.145v6.971a.145.145,0,0,1-.158.158Zm3.023,0c-.092,0-.145,0-.145-.158V64.264a.132.132,0,0,1,.145-.145h.977c.106,0,.158,0,.158.145V65a1.954,1.954,0,0,1,.713-.752,2.231,2.231,0,0,1,1.228-.3,2.377,2.377,0,0,1,.819.145,1.9,1.9,0,0,1,.673.4c.079.079.092.145,0,.211l-.568.753a.132.132,0,0,1-.211,0,2.231,2.231,0,0,0-.541-.251,1.809,1.809,0,0,0-.594-.092,1.32,1.32,0,0,0-1.2.594,2.746,2.746,0,0,0-.37,1.531v3.961a.145.145,0,0,1-.158.158Zm7.406-.964a2.191,2.191,0,0,0,1.32-.37A1.32,1.32,0,0,0,162.828,69V68.2a.079.079,0,0,0-.092-.092H161.27a2.64,2.64,0,0,0-1.4.277,1,1,0,0,0-.422.9.99.99,0,0,0,.4.858,1.967,1.967,0,0,0,1.175.29Zm2.02.924c-.092,0-.145,0-.145-.158v-.634a1.954,1.954,0,0,1-.792.686,2.983,2.983,0,0,1-1.32.277,3.5,3.5,0,0,1-.977-.145,2.04,2.04,0,0,1-1.307-1.1,2.64,2.64,0,0,1-.185-.951,1.954,1.954,0,0,1,.752-1.7,3.551,3.551,0,0,1,2.112-.554h1.663s.092,0,.092-.079v-.528a1.465,1.465,0,0,0-.37-1.1,2.126,2.126,0,0,0-1.32-.33,2.943,2.943,0,0,0-1.043.158,2.548,2.548,0,0,0-.739.356.119.119,0,0,1-.211,0l-.409-.7a.185.185,0,0,1,0-.211,3.34,3.34,0,0,1,1.043-.515,4.832,4.832,0,0,1,1.452-.2,3.314,3.314,0,0,1,2.218.581,2.376,2.376,0,0,1,.647,1.9v4.805c0,.106,0,.158-.145.158Zm4.489.079a1.8,1.8,0,0,1-1.32-.462,2.138,2.138,0,0,1-.409-1.452v-8.33c0-.106,0-.158.145-.158h.977a.145.145,0,0,1,.158.158v8.264a.885.885,0,0,0,.172.634.752.752,0,0,0,.554.172h.29a.145.145,0,0,1,.158.158v.871a.145.145,0,0,1-.158.158Zm3.446,0a1.756,1.756,0,0,1-1.32-.462,2.139,2.139,0,0,1-.422-1.452v-8.33a.145.145,0,0,1,.158-.158h.871a.145.145,0,0,1,.158.158v8.264a.964.964,0,0,0,.158.634.805.805,0,0,0,.568.172h.29a.145.145,0,0,1,.145.172V71.3a.145.145,0,0,1-.158.158Zm1.716,2.64c-.106,0-.158,0-.158-.145V73.07a.145.145,0,0,1,.158-.158h.211a1.056,1.056,0,0,0,.713-.238,2.019,2.019,0,0,0,.515-.845l.251-.673-2.64-6.918c0-.106,0-.145.132-.145h1.03a.172.172,0,0,1,.172.145L175,69.518l1.848-5.281c0-.106.092-.145.185-.145h1.043c.106,0,.158,0,.119.145l-2.878,7.7a10.886,10.886,0,0,1-.488,1.056,2.533,2.533,0,0,1-.515.673,1.32,1.32,0,0,1-.581.33,2.046,2.046,0,0,1-.726.106Zm12.357-3.644a1.558,1.558,0,0,0,1.611-1.109,4.235,4.235,0,0,0,.119-.66,7.918,7.918,0,0,0,0-.858,8.163,8.163,0,0,0,0-.858,2.773,2.773,0,0,0-.119-.66,1.545,1.545,0,0,0-1.611-1.135,1.518,1.518,0,0,0-1.611,1.1,3.265,3.265,0,0,0-.145.62v1.809a3.417,3.417,0,0,0,.145.607A1.518,1.518,0,0,0,185.047,70.429Zm-2.918,1.017c-.092,0-.145,0-.145-.158v-10.1c0-.106,0-.158.145-.158h.977a.145.145,0,0,1,.158.158v3.736a1.967,1.967,0,0,1,.752-.713,2.64,2.64,0,0,1,1.32-.29,2.825,2.825,0,0,1,1.611.436,2.456,2.456,0,0,1,.911,1.32,3.764,3.764,0,0,1,.2.911,9,9,0,0,1,0,1.149,9.243,9.243,0,0,1,0,1.149,3.5,3.5,0,0,1-.2.911,2.4,2.4,0,0,1-.911,1.32,3.129,3.129,0,0,1-2.931.158,1.993,1.993,0,0,1-.753-.726v.7c0,.092,0,.145-.158.145Zm11.657-4.277c.066,0,.092,0,.092-.079a2.839,2.839,0,0,0-.106-.832,1.531,1.531,0,0,0-.634-.832,1.769,1.769,0,0,0-1.043-.3,1.862,1.862,0,0,0-1.069.3,1.558,1.558,0,0,0-.62.832,2.9,2.9,0,0,0-.106.832.082.082,0,0,0,.092.079Zm-1.624,4.449a3.393,3.393,0,0,1-1.875-.5,2.838,2.838,0,0,1-1.056-1.479,5.146,5.146,0,0,1-.185-.779,6.98,6.98,0,0,1,0-1.056V66.733a3.961,3.961,0,0,1,.185-.779,2.64,2.64,0,0,1,1.056-1.452,3.248,3.248,0,0,1,1.822-.5,3.089,3.089,0,0,1,1.8.515,2.641,2.641,0,0,1,1.069,1.439.592.592,0,0,0,.092.383c.092.132,0,.264.079.422s0,.356,0,.568v.713a.145.145,0,0,1-.158.158h-4.634s-.092,0-.092.079a2.56,2.56,0,0,0,0,.5,1.8,1.8,0,0,0,.079.383,1.9,1.9,0,0,0,.687.964,2.178,2.178,0,0,0,1.162.3,2.64,2.64,0,0,0,1.122-.224,2.733,2.733,0,0,0,.766-.581c.079-.079.158-.092.224,0l.62.568a.145.145,0,0,1,0,.211,3.366,3.366,0,0,1-1.175.9,3.789,3.789,0,0,1-1.69.356Zm6.442-.092a2.086,2.086,0,0,1-1.531-.488,2.363,2.363,0,0,1-.436-1.584V65.241a.091.091,0,0,0-.092-.092h-.607a.145.145,0,0,1-.158-.158v-.726c0-.106,0-.145.158-.145h.607a.079.079,0,0,0,.092-.092V61.967a.132.132,0,0,1,.145-.145h.977c.106,0,.158,0,.158.145v2.059a.079.079,0,0,0,.092.092h1.162c.106,0,.145,0,.145.145v.726c0,.106,0,.158-.145.158h-1.188c-.066,0-.092,0-.092.092V69.36a.99.99,0,0,0,.211.739,1.2,1.2,0,0,0,.726.185h.317a.132.132,0,0,1,.158.145v.885c0,.106,0,.158-.145.158Zm4.066,0a2.033,2.033,0,0,1-1.518-.488,2.3,2.3,0,0,1-.449-1.584V65.241l-.079-.092h-.607a.145.145,0,0,1-.158-.158v-.726c0-.106,0-.145.158-.145h.607a.079.079,0,0,0,.092-.092v-2.06c0-.106,0-.145.158-.145h.977a.132.132,0,0,1,.145.145v2.059a.092.092,0,0,0,.092.092h1.175c.106,0,.158,0,.158.145v.726a.145.145,0,0,1-.158.158H202.1a.079.079,0,0,0-.092.092V69.36a1.056,1.056,0,0,0,.211.739,1.2,1.2,0,0,0,.726.185h.317c.106,0,.158,0,.158.145v.885a.145.145,0,0,1-.158.158Zm6.3-4.357c.066,0,.092,0,.092-.079a2.456,2.456,0,0,0-.106-.832,1.571,1.571,0,0,0-.621-.832,1.809,1.809,0,0,0-1.056-.3,1.861,1.861,0,0,0-1.069.3,1.6,1.6,0,0,0-.607.832,2.5,2.5,0,0,0-.106.832.082.082,0,0,0,.092.079Zm-1.611,4.449a3.406,3.406,0,0,1-1.888-.5,2.825,2.825,0,0,1-1.043-1.479,3.183,3.183,0,0,1-.185-.779,6.988,6.988,0,0,1-.066-1.056,8.1,8.1,0,0,1,0-1.069,3.962,3.962,0,0,1,.172-.779A2.641,2.641,0,0,1,205.4,64.5a3.3,3.3,0,0,1,1.822-.5,3.063,3.063,0,0,1,1.8.515,2.64,2.64,0,0,1,1.069,1.439,2.016,2.016,0,0,1,.092.383,1.847,1.847,0,0,1,.079.422V68.04c0,.277,0,.158-.172.158H205.47s-.092,0-.092.079a2.72,2.72,0,0,0,0,.5,2.086,2.086,0,0,0,.779,1.347,2.139,2.139,0,0,0,1.162.3,2.35,2.35,0,0,0,1.875-.805c.079-.079.158-.092.224,0l.634.568a.132.132,0,0,1,0,.211,3.248,3.248,0,0,1-1.175.9,3.736,3.736,0,0,1-1.677.356Zm4.462-.172c-.092,0-.145,0-.145-.158V64.264a.132.132,0,0,1,.145-.145h.977c.106,0,.158,0,.158.145V65a1.861,1.861,0,0,1,.713-.752,2.231,2.231,0,0,1,1.228-.3,2.377,2.377,0,0,1,.819.145,1.9,1.9,0,0,1,.673.4.158.158,0,0,1,0,.211l-.568.753a.132.132,0,0,1-.211,0,2.231,2.231,0,0,0-.541-.251,1.809,1.809,0,0,0-.594-.092,1.32,1.32,0,0,0-1.2.594,2.746,2.746,0,0,0-.37,1.531v3.961a.145.145,0,0,1-.158.158Z" transform="translate(-28.996 -19.181)" fill="#fff" opacity="0.2"/>
</svg>
