<svg xmlns="http://www.w3.org/2000/svg" width="267" height="58.552" viewBox="0 0 267 58.552">
  <path id="a072b9d94ccae5018aed2f8541cd11c134de320f-200x80" d="M49,86.121h7.408l2.2-11.6H70.884l2.225,11.6h8.141L68.606,30H60.753ZM59.837,68.268l4.869-25.6h.157l4.869,25.6ZM108.054,84.89a15.863,15.863,0,0,0,4.424-6.1,31.176,31.176,0,0,0,2.2-8.612,77.36,77.36,0,0,0,.628-9.921V53.793H99.6v7.015h7.853q-.157,4.345-.471,7.853a31.019,31.019,0,0,1-1.073,6.178A10.13,10.13,0,0,1,103.971,79a4.11,4.11,0,0,1-3.22,1.387,3.926,3.926,0,0,1-3.429-1.675,14.056,14.056,0,0,1-2.068-4.581,32.878,32.878,0,0,1-.969-6.649c-.157-2.618-.236-5.235-.236-8.062a101.436,101.436,0,0,1,.524-11.151,41.7,41.7,0,0,1,1.544-7.356,8.822,8.822,0,0,1,1.937-3.8,3.927,3.927,0,0,1,2.749-1.152,4.476,4.476,0,0,1,3.822,2.225,15.078,15.078,0,0,1,1.911,6.021l7.539-2.827a43.477,43.477,0,0,0-1.754-5.026,11.387,11.387,0,0,0-6.413-6.492,13.35,13.35,0,0,0-5.1-.916,11.465,11.465,0,0,0-7.46,2.461,16.255,16.255,0,0,0-4.5,6.387,34.945,34.945,0,0,0-2.3,9.319,99.06,99.06,0,0,0-.6,10.942q0,5.419.471,10.68a34.159,34.159,0,0,0,1.859,9.371,15.967,15.967,0,0,0,4.5,6.649,12.041,12.041,0,0,0,8.01,2.618,10.811,10.811,0,0,0,7.277-2.487Zm168.158,0a15.863,15.863,0,0,0,4.424-6.1,31.175,31.175,0,0,0,2.2-8.612,77.343,77.343,0,0,0,.628-9.921V53.793H267.757v7.015h7.853q-.157,4.345-.471,7.853a31.014,31.014,0,0,1-1.073,6.178,10.13,10.13,0,0,1-1.963,3.953,4.136,4.136,0,0,1-3.22,1.387,3.926,3.926,0,0,1-3.429-1.675,14.056,14.056,0,0,1-2.068-4.581,32.875,32.875,0,0,1-.969-6.649c-.157-2.618-.236-5.235-.236-8.062A101.428,101.428,0,0,1,262.7,48.06a41.7,41.7,0,0,1,1.387-7.225,8.822,8.822,0,0,1,2.173-3.717,3.926,3.926,0,0,1,2.749-1.152,4.476,4.476,0,0,1,3.822,2.225,15.077,15.077,0,0,1,1.911,6.021l7.539-2.827a43.474,43.474,0,0,0-1.754-5.026,11.387,11.387,0,0,0-6.413-6.6,13.35,13.35,0,0,0-5.1-.916,11.465,11.465,0,0,0-7.46,2.461,16.255,16.255,0,0,0-4.5,6.387,34.942,34.942,0,0,0-2.3,9.319,99.048,99.048,0,0,0-.6,11.047q0,5.418.471,10.68a34.161,34.161,0,0,0,1.885,9.371,15.968,15.968,0,0,0,4.529,6.649,12.041,12.041,0,0,0,8.01,2.618,10.811,10.811,0,0,0,7.172-2.487Zm-153.918,1.23h7.853V60.415h1.832l10.314,25.705h8.9L139.858,59.29a11.492,11.492,0,0,0,4.214-2.146,13.952,13.952,0,0,0,3.036-3.351,14.869,14.869,0,0,0,1.754-4.057,15.706,15.706,0,0,0,.6-4.345A17.669,17.669,0,0,0,148.418,39a14.685,14.685,0,0,0-3.063-4.816,13.323,13.323,0,0,0-4.581-3.115A15.078,15.078,0,0,0,134.99,30h-12.7Zm7.853-49.5h2.618A8.115,8.115,0,0,1,139.1,39a8.35,8.35,0,0,1,2.225,5.968,8.272,8.272,0,0,1-2.618,6.937,14.083,14.083,0,0,1-8.4,1.989ZM156.9,68.739a34.03,34.03,0,0,0,2.042,9.371,15.706,15.706,0,0,0,4.476,6.649,12.041,12.041,0,0,0,8.01,2.618,11.779,11.779,0,0,0,7.408-2.461,14.947,14.947,0,0,0,4.581-6.387,37.172,37.172,0,0,0,2.2-9.319,93.149,93.149,0,0,0,.6-11.046c0-3.612-.236-7.172-.445-10.68a30.679,30.679,0,0,0-1.911-9.371,16.727,16.727,0,0,0-4.5-6.649,11.622,11.622,0,0,0-7.853-2.618,11.465,11.465,0,0,0-7.46,2.461,16.256,16.256,0,0,0-4.5,6.387,34.031,34.031,0,0,0-2.277,9.319,93,93,0,0,0-.942,11.046q.183,5.419.576,10.68Zm8.219-20.6a41.7,41.7,0,0,1,1.387-7.225,8.822,8.822,0,0,1,2.042-3.8,4.031,4.031,0,0,1,2.618-1.152,4.319,4.319,0,0,1,2.618.838,7.539,7.539,0,0,1,2.251,2.932,21.256,21.256,0,0,1,1.44,6.178,91.45,91.45,0,0,1,.471,10.471,95.323,95.323,0,0,1-.314,9.842,53.5,53.5,0,0,1-.995,7.539,12.067,12.067,0,0,1-1.989,4.816,4.11,4.11,0,0,1-3.377,1.675,3.927,3.927,0,0,1-3.429-1.675A13.509,13.509,0,0,1,165.8,74a32.747,32.747,0,0,1-.995-6.649c-.157-2.618-.236-5.235-.236-8.062a101.44,101.44,0,0,1,.55-11.151Zm54.028,20.6a33.192,33.192,0,0,0,1.911,9.371,15.706,15.706,0,0,0,4.476,6.649,12.041,12.041,0,0,0,8.01,2.618,11.779,11.779,0,0,0,7.408-2.461,14.947,14.947,0,0,0,4.581-6.387,37.171,37.171,0,0,0,2.2-9.319,93.133,93.133,0,0,0,.6-11.046c0-3.612-.236-7.172-.445-10.68a30.679,30.679,0,0,0-1.911-9.371,16.726,16.726,0,0,0-4.5-6.649,11.727,11.727,0,0,0-7.853-2.618,11.465,11.465,0,0,0-7.46,2.461,16.255,16.255,0,0,0-4.5,6.387,34.031,34.031,0,0,0-2.277,9.319,92.983,92.983,0,0,0-.628,11.046Q218.781,63.478,219.147,68.739Zm8.219-20.6a41.7,41.7,0,0,1,1.387-7.225,8.821,8.821,0,0,1,2.042-3.9,3.926,3.926,0,0,1,2.749-1.152,4.319,4.319,0,0,1,2.618.838,7.853,7.853,0,0,1,2.147,3.063,21.255,21.255,0,0,1,1.44,6.178,91.471,91.471,0,0,1,.471,10.471,95.328,95.328,0,0,1-.314,9.842,53.51,53.51,0,0,1-.995,7.539,12.041,12.041,0,0,1-1.989,4.895,4.057,4.057,0,0,1-3.351,1.675,3.927,3.927,0,0,1-3.429-1.675,13.508,13.508,0,0,1-2.042-4.581,31.02,31.02,0,0,1-.995-6.649c-.157-2.618-.236-5.235-.236-8.062a101.445,101.445,0,0,1,.524-11.256Zm-32.9,37.982h20.287V79H202.237V30h-7.853ZM288.017,30,298.3,63.478V86.121h7.853V63.478L316,30h-7.853l-5.811,23.4H302.2l-6.1-23.4Z" transform="translate(-49 -28.836)" fill="#fff"/>
</svg>
