<svg xmlns="http://www.w3.org/2000/svg" width="188.852" height="61.331" viewBox="0 0 188.852 61.331">
  <g id="f771a78f3ba0b84989cf873f1f64396d5e58a369-200x80" opacity="0.2" style="isolation: isolate">
    <path id="Path_9971" data-name="Path 9971" d="M138.319,10.878a21.041,21.041,0,0,1,6.2,2.338C138.372,15.887,135.3,21.1,132,26.094a67.254,67.254,0,0,1-6,8.1,16.86,16.86,0,0,1-21.375,3.393c4.622-7.575,10.407-13.894,18.423-18.089-6.119.815-11.2,4.275-19.759,13.36a15.4,15.4,0,0,1,.254-7.254c1.737-8.5,7.508-13,15.457-15.257a39.905,39.905,0,0,1,8.51-.762,58.918,58.918,0,0,1,10.808,1.3Z" transform="translate(-4.562 -9.575)" fill="#fff"/>
    <path id="Path_9972" data-name="Path 9972" d="M134.611,69.067c.254-5.464.107-10.928.08-16.392a2.672,2.672,0,0,0-2.672-2.939,2.819,2.819,0,0,0-3.153,2.485,12.357,12.357,0,0,0-.16,2.338V68.546h-7.628V34.532c2.472-.307,4.863,0,7.562-.174V44.752a14.415,14.415,0,0,1,4.288-2.031c5.344-.842,9.272,2.218,9.726,7.588.147,1.79.08,3.594.08,5.344v13.36ZM77.578,68.88c-5.771-1.055-8.39-4.943-9.071-10.447A18.209,18.209,0,0,1,69.3,50.1c1.79-5.143,5.825-7.709,11.663-7.468a10.688,10.688,0,0,1,10.274,8.417,22.15,22.15,0,0,1,.428,7.214H76.43a3.233,3.233,0,0,0,1.9,3.607c2,1.149,4.622.628,7.735-1.416A38.288,38.288,0,0,1,90.6,64.885c-1.59,2.445-5.531,3.914-6.934,4.141A21.536,21.536,0,0,1,77.578,68.88Zm6.212-15.871c-.387-2.832-1.83-4.155-4.1-4.008s-3.26,1.523-3.233,4.008Zm72.65,15.871c-5.771-1.055-8.39-4.943-9.071-10.447a18.209,18.209,0,0,1,.788-8.336c1.79-5.143,5.825-7.709,11.663-7.468a10.688,10.688,0,0,1,10.274,8.417,22.151,22.151,0,0,1,.428,7.214h-15.23a3.22,3.22,0,0,0,1.951,3.607c2,1.149,4.622.628,7.735-1.416a38.289,38.289,0,0,1,4.542,4.435c-1.683,2.445-5.584,3.914-7.027,4.141a21.442,21.442,0,0,1-6.052-.147Zm6.2-15.871c-.374-2.832-1.817-4.155-4.088-4.008s-3.26,1.523-3.233,4.008Zm40.533,15.5a9.886,9.886,0,0,1-7.054-8.791,34.269,34.269,0,0,1,.067-8.189,10.06,10.06,0,0,1,9.419-8.857,12.518,12.518,0,0,1,6.867,1,9.512,9.512,0,0,1,5.411,7.2,42.924,42.924,0,0,1,0,9.793c-.721,4.355-3.126,6.426-6.773,7.8a12.865,12.865,0,0,1-7.936.04Zm7.214-12.625h-.12V53.076a4.075,4.075,0,0,0,0-.695,2.872,2.872,0,0,0-3.019-2.672c-1.777,0-2.672.628-3.073,2.525a16.673,16.673,0,0,0,0,6.947c.4,1.937,1.456,2.806,3.166,2.672a2.993,2.993,0,0,0,2.926-2.806,29.383,29.383,0,0,0,.12-3.166ZM101.706,69.067c-4.5-1.256-5.344-1.67-7.521-3.741a68.775,68.775,0,0,1,4.876-5.01,11.356,11.356,0,0,0,4.569,1.977A8.323,8.323,0,0,0,107.558,62c.721-.227,1.336-.655,1.216-1.5a1.336,1.336,0,0,0-1.336-1.336l-3.26-.387c-.922-.107-1.857-.16-2.779-.347-2.765-.534-4.89-1.91-5.6-4.689A8.2,8.2,0,0,1,100.49,43.67a17.635,17.635,0,0,1,13.026.281,5.424,5.424,0,0,1,2.4,1.884l-4.008,4.008c-.548.588-1,.454-1.63.094a9.151,9.151,0,0,0-5.023-.8c-.975,0-2,.254-2.031,1.47s1.015,1.336,1.844,1.416c1.47.2,2.966.2,4.435.454,4.462.775,6.613,2.926,7.054,7.147.387,3.848-1.8,6.92-5.6,8.537a19.92,19.92,0,0,1-4.783,1.216,13.106,13.106,0,0,1-4.475-.307Zm-72.4-25.4h2.338c-.12-3.059.187-6.079,2.926-8.149S43.925,33.9,43.925,33.9v6.68s-3.487-.16-4.1.641a4.863,4.863,0,0,0-.267,2.5h4.195V50.1H39.69V68.559H31.782V50.1H29.31Zm85.3-21.8a34.615,34.615,0,0,1,9.352,10.18c-3.42,1.617-6.68,2.111-10.153.561a11.716,11.716,0,0,1-4.3-3.567c-.975-1.216-1.9-2.485-2.752-3.794-2.2-3.313-4.3-6.68-8.163-8.817a14.415,14.415,0,0,1,6.2-2.111,22.337,22.337,0,0,1,13.079,1.456,12.251,12.251,0,0,1,6.787,13.079c-2.819-3.206-5.664-6.065-9.592-7.428a2.151,2.151,0,0,0-2-.6,4.489,4.489,0,0,0,1.55,1.042ZM56.029,68.613h-7.8V42.922h7.388l.347,1.683c4.008-2.538,8.016-3.033,11.85,0l-5.918,5.731c-.254.468-.508,0-.908-.24-2.538-1.229-4.823.08-4.876,2.926V65.7ZM183.187,68.6h-7.6V42.8h6.453c1.336,0,.868,1.015,1.189,1.777a11.382,11.382,0,0,1,6.052-1.991,7.535,7.535,0,0,1,5.758,2.271,16.754,16.754,0,0,1-2.779,3.126c-.868.989-1.777,1.951-2.672,2.872a5.343,5.343,0,0,1-.882-.294c-3.046-1.79-5.451-.534-5.544,3.019s0,6.88,0,10.314ZM199.1,40.745a14.027,14.027,0,0,1,0-3.888h16.726a16.446,16.446,0,0,1,0,3.888Z" transform="translate(-29.31 -8.114)" fill="#fff"/>
  </g>
</svg>
