<svg xmlns="http://www.w3.org/2000/svg" width="180.212" height="60.254" viewBox="0 0 180.212 60.254">
  <g id="Group_6955" data-name="Group 6955" transform="translate(5943 11063)" opacity="0.2">
    <path id="_061334fa2dbbcb4a434931dcd729c48e541f0b8e-200x80" data-name="061334fa2dbbcb4a434931dcd729c48e541f0b8e-200x80" d="M127.228,56.675a9.817,9.817,0,0,1-10.971,1.9c-4.116-1.638-5.807-5.046-6.029-9.437-.354-7.052,5.806-13.107,14.588-11.561v4.05c-1.062-.1-2.019-.236-3.093-.262a6.069,6.069,0,0,0-6.632,5.78c-.341,3.106-.066,5.951,3.159,7.655a6.016,6.016,0,0,0,9.175-4.522,36.335,36.335,0,0,0,.144-4.784V28.259h4.548V59.021h-4.771s-.026-1.009-.118-2.346Zm-19.975-3.7a7.733,7.733,0,0,1-2.281,4.011c-4.181,3.526-13.841,3.736-17.144-2.962-2.2-4.5-1.743-11.194,3.093-14.536,4.64-3.185,12.15-2.281,15.113,2.045a11.587,11.587,0,0,1,2.032,6.436v1.8s-9.175-.131-13-.1H93.831V46.32h9.359s.485-.695-.564-2.517c-1.52-2.621-3.932-2.779-6.554-2.53a4.81,4.81,0,0,0-4.365,3.932,9.686,9.686,0,0,0-.249,5.806,7.288,7.288,0,0,0,11.1,3.932,6.554,6.554,0,0,0,1.625-1.966Zm70.111,6.344a10.486,10.486,0,0,1-11.207-10.486c.092-6.554,4.417-11.076,11-11.141s11.351,4.365,11.39,10.774a10.486,10.486,0,0,1-11.18,10.853ZM170.81,48.3c-.2,3.434,2.045,7.052,5.82,7.353a6.082,6.082,0,0,0,6.4-3.355,8.271,8.271,0,0,0-1.219-9.175,6.554,6.554,0,0,0-6.881-1.442c-2.451.668-4.063,3.526-4.089,6.619Zm-25.992,4.535a24.662,24.662,0,0,1,3.264.157c2.346,3.644,6.947,3.395,10.053,2.556a2.1,2.1,0,0,0,1.678-2.49c-.21-.813-1-2.058-6.37-3.224a21.863,21.863,0,0,1-5.243-1.756c-3.749-1.887-3.631-5.715-.839-8.323,3.369-3.159,11.429-2.87,14.693.38a5.466,5.466,0,0,1,1.52,3.211,24.1,24.1,0,0,1-3.159.079c-2.045-3.473-6.278-2.621-7.773-2.49a2.8,2.8,0,0,0-2.621,1.665c-.5,1.6.944,2.372,1.665,2.621a22.849,22.849,0,0,0,2.831.826c2.2.564,4.43,1.035,6.554,1.691a4.561,4.561,0,0,1,3.408,4.063,5.4,5.4,0,0,1-2.333,5.7,7.864,7.864,0,0,1-2.621,1.311c-3.644.682-7.314,1-10.813-.721a6.554,6.554,0,0,1-3.893-5.256Zm54.133-10.892V38.535c4.653-1.73,12.321-.5,12.426,6.069.066,4.076,0,8.153.1,12.229v2.189h-4.024s0-8.218-.459-12.871c-.38-4.221-2.53-5.348-6.7-4.522ZM141.463,28.835v4H137.19v-4Zm-4.614,9.424h4.758V58.943h-4.758Zm54.8.275h4.6V59.021h-4.6Z" transform="translate(-5974.269 -11076.5)" fill="#fff"/>
    <path id="_061334fa2dbbcb4a434931dcd729c48e541f0b8e-200x80-2" data-name="061334fa2dbbcb4a434931dcd729c48e541f0b8e-200x80" d="M59.529,14.391A22.007,22.007,0,0,1,75.337,39.439,28.692,28.692,0,0,1,71.4,49.925c-3.329,5.243-5.924,10.748-5.689,17.262a6.213,6.213,0,0,1-5.6,6.344c-.393,0-2.7.2-2.7.2V70.765a3.447,3.447,0,0,0,1.18-.21c3.5-1.389,4.063-1.809,3.84-5.387-.38-6.265,2.621-11.285,5.571-16.345a27.04,27.04,0,0,0,4.116-14.143c0-7.1-6.16-14.837-13.5-17.039-8.4-2.621-18.35,2.176-21.941,9.516a19.988,19.988,0,0,0,0,17.328,65.823,65.823,0,0,0,3.932,7.327,26.031,26.031,0,0,1,3.932,14.2C44.469,69.022,46.2,70.53,49.2,70.53c2.163,0,2.386-.184,2.517-2.359.079-1.311,0-2.621,0-3.932,0-3.6-.079-7.2,0-10.787.079-2.4,0-4.483-2.739-5.584a3.473,3.473,0,0,1-1.468-2.621c-.17-4.089,0-14.012,0-14.012h2.346s0,4.889.223,6.462c0,.537.406,1.481,1.14,1.481s.944-1,.983-1.52c.131-1.691.1-6.423.1-6.423h2.268s.184,5.872.341,6.842c0,.406.21,1.062.865,1.088s1.022-.708,1.1-1.14c.184-.97.2-6.79.2-6.79h2.307s.144,2.241.144,2.844v9.28c0,2.451-.485,4.614-3.12,5.505-1.455.5-1.232,1.638-1.232,2.7V70.451c0,3.237,0,3.316-3.395,3.29a30.592,30.592,0,0,1-5.374-.315c-2.949-.537-5.6-3.146-5.335-5.99.655-7.078-2.726-12.662-6-18.35A26.45,26.45,0,0,1,31.283,34.55a21.784,21.784,0,0,1,15.6-19.975A27.682,27.682,0,0,1,53.435,13.5a23.278,23.278,0,0,1,6.095.891ZM69.543,67.62v3.211h-.616V67.62H67.774v-.5H70.71v.5Zm5.374,3.211V67.738L73.7,70.831h-.38L72.1,67.738v3.093h-.616V67.122h.944l1.114,2.818,1.088-2.818h.852v3.709Z" transform="translate(-5974.269 -11076.5)" fill="#fff"/>
  </g>
</svg>
