<svg id="Layer_x0020_1" xmlns="http://www.w3.org/2000/svg" width="158.967" height="40.828" viewBox="0 0 158.967 40.828">
  <g id="_439874616">
    <path id="Path_2050" data-name="Path 2050" d="M88.123,22.161a4.851,4.851,0,0,0,1.564,3.822,5.386,5.386,0,0,0,9.208-3.822,5.386,5.386,0,1,0-10.772,0ZM93.509,10a12.327,12.327,0,0,1,8.86,3.475,11.529,11.529,0,0,1,3.648,8.86,11.412,11.412,0,0,1-3.648,8.687,13.034,13.034,0,0,1-17.721,0A11.412,11.412,0,0,1,81,22.335a11.529,11.529,0,0,1,3.648-8.86A12.623,12.623,0,0,1,93.509,10Z" transform="translate(-66.928 -8.263)" fill="#fff"/>
    <path id="Path_2051" data-name="Path 2051" d="M0,15H6.949V31.678h6.776v6.254H0Z" transform="translate(0 -12.394)" fill="#fff"/>
    <path id="Path_2052" data-name="Path 2052" d="M250.068,11.39v9.729a7.625,7.625,0,0,0-2.432-2.78,4.85,4.85,0,0,0-3.127-1.042,5.344,5.344,0,0,0-5.212,5.212,4.487,4.487,0,0,0,1.564,3.648,4.6,4.6,0,0,0,3.648,1.39,4.742,4.742,0,0,0,3.127-.869,8.1,8.1,0,0,0,2.432-2.432V33.28a14,14,0,0,1-5.559,1.216,12.623,12.623,0,0,1-8.86-3.475A11.791,11.791,0,0,1,232,22.161a11.3,11.3,0,0,1,3.648-8.513,12.293,12.293,0,0,1,14.42-2.259Z" transform="translate(-191.694 -8.263)" fill="#fff"/>
    <path id="Path_2053" data-name="Path 2053" d="M370.458,23.153v3.3a7.042,7.042,0,0,1-1.564.869c-.521.174-1.216.347-1.737.521-.695.174-1.39.347-2.258.521-.7,0-1.39.174-1.911.174a10.607,10.607,0,0,1-7.818-3.127,14.455,14.455,0,0,1-3.822-6.428,4.811,4.811,0,0,1-.174-1.564A4.317,4.317,0,0,1,351,16.03v-.347h0v-.174a11.426,11.426,0,0,1,2.259-7.3,13.886,13.886,0,0,1,4.865-3.822,11.043,11.043,0,0,1,3.127-1.042A16.194,16.194,0,0,1,363.683,3a23.949,23.949,0,0,1,3.822.347,21.189,21.189,0,0,1,2.953,1.216V8.038c-.174-.174-.347-.174-.695-.347-.174-.174-.348-.174-.521-.347a7.982,7.982,0,0,0-2.78-1.216,6.971,6.971,0,0,0-2.606-.521,9.26,9.26,0,0,0-6.949,3.127,9.751,9.751,0,0,0-2.78,6.776c0,3.127.869,5.559,2.953,7.3a10.594,10.594,0,0,0,6.776,2.78h.521c.174,0,.521-.174.695-.174a9.294,9.294,0,0,0,2.78-.695,10.37,10.37,0,0,0,2.606-1.564Z" transform="translate(-290.019 -2.479)" fill="#fff"/>
    <path id="Path_2054" data-name="Path 2054" d="M478.466,6.776,474.123,16.5h8.687Zm0-6.776,11.64,25.539h-3.3l-2.78-6.254H473.081l-2.78,6.254H467Z" transform="translate(-385.866)" fill="#fff"/>
    <path id="Path_2055" data-name="Path 2055" d="M611.127,9.78v9.034a14.463,14.463,0,0,0,5.386-.869c1.39-.521,1.911-1.737,2.085-3.3v-.174h0l-.174-.174v-.174h0a3.669,3.669,0,0,0-1.39-2.953C616.166,10.3,614.6,9.953,612,9.78h-.347c-.174.174-.174.174-.348.174h-.174ZM608,7h6.949a6.546,6.546,0,0,1,4.17,1.737,7.511,7.511,0,0,1,2.259,3.3,1.3,1.3,0,0,0,.174.869v.869a6.27,6.27,0,0,1-1.911,4.865,7.6,7.6,0,0,1-4.17,2.259l7.818,10.424h-3.822l-7.123-10.25h-1.216v10.25H608Z" transform="translate(-502.37 -5.784)" fill="#fff"/>
    <path id="Path_2056" data-name="Path 2056" d="M693.907,9.78H688V7h14.767V9.78h-5.559V31.323h-3.3Z" transform="translate(-568.471 -5.784)" fill="#fff"/>
    <path id="Path_2057" data-name="Path 2057" d="M789.586,16.509a10.151,10.151,0,0,0-2.085-6.081,9.308,9.308,0,0,0-4.17-2.78,2.8,2.8,0,0,0-1.564-.521,4.81,4.81,0,0,0-1.564-.174h-.347a8.664,8.664,0,0,0-6.776,2.78,9.267,9.267,0,0,0-2.953,6.6v.174h0v.347a8.728,8.728,0,0,0,2.432,6.6c1.564,1.911,4.17,2.953,7.471,3.127h.347a7.9,7.9,0,0,0,5.907-2.085,10.227,10.227,0,0,0,2.954-4.343c.174-.521.174-1.042.347-1.564,0-.521.174-1.042.174-1.39v-.347l-.174-.174v-.174ZM767,16.335c.347-4,1.737-6.949,4.343-9.034A13.289,13.289,0,0,1,780.2,4a11.506,11.506,0,0,1,7.818,2.953,14.181,14.181,0,0,1,4.17,6.254,5.074,5.074,0,0,1,.347,1.564,4.811,4.811,0,0,1,.174,1.564,13.3,13.3,0,0,1-3.475,9.382,13.24,13.24,0,0,1-9.729,3.648h-.347a11.265,11.265,0,0,1-7.818-2.78,14.9,14.9,0,0,1-3.822-6.254,6.174,6.174,0,0,1-.347-1.737A6.518,6.518,0,0,1,767,16.856v-.521Z" transform="translate(-633.746 -3.305)" fill="#fff"/>
    <path id="Path_2058" data-name="Path 2058" d="M211.517,164.042v8.513H210.3v-8.513H207V163h7.644v1.042Z" transform="translate(-171.037 -134.681)" fill="#fff"/>
    <path id="Path_2059" data-name="Path 2059" d="M252,177.347h1.042v1.216c.521-.869,1.042-1.39,1.564-1.39.174-.174.174-.174.348-.174s.174,0,.521.174v1.042a2.245,2.245,0,0,0-1.39.347h-.174c-.521.347-.695,1.042-.695,2.085v3.475H252Z" transform="translate(-208.219 -146.249)" fill="#fff"/>
    <path id="Path_2060" data-name="Path 2060" d="M281.691,182.038v-1.216a8.81,8.81,0,0,0-1.564.347h-.347c-.869.174-1.39.347-1.564.869v.347a1.1,1.1,0,0,0,.869,1.042h.521a2.8,2.8,0,0,0,1.564-.521C281.517,182.559,281.691,182.386,281.691,182.038Zm1.911,1.39v.869a1.889,1.889,0,0,1-.869.174,1.1,1.1,0,0,1-1.042-.869v-.174a3.754,3.754,0,0,1-2.432,1.042,2,2,0,0,1-1.911-1.042,2.469,2.469,0,0,1-.348-1.042,1.889,1.889,0,0,1,1.216-1.737,3.738,3.738,0,0,1,1.737-.347.638.638,0,0,1,.521-.174q1.042,0,1.042-.521l.174-.174v-.347c0-.521-.347-.869-1.216-1.042h-.347q-1.564,0-1.564,1.042l-.174.174h-1.042a1.973,1.973,0,0,1,.521-1.39,3,3,0,0,1,2.259-.869q2.345,0,2.606,1.564v4.517a.461.461,0,0,0,.521.521C283.428,183.6,283.428,183.6,283.6,183.428Z" transform="translate(-228.876 -146.249)" fill="#fff"/>
    <path id="Path_2061" data-name="Path 2061" d="M326.733,179.606h-1.042a1.868,1.868,0,0,0-1.39-1.564h-.347a1.829,1.829,0,0,0-1.737,1.39c0,.347-.174.869-.174,1.39,0,1.216.347,2.085,1.042,2.432a1.566,1.566,0,0,0,.869.174,1.6,1.6,0,0,0,1.737-1.564h1.042a2.328,2.328,0,0,1-1.39,2.259,4.088,4.088,0,0,1-1.39.347,2.773,2.773,0,0,1-2.432-1.39,4.808,4.808,0,0,1-.521-2.259,3.717,3.717,0,0,1,1.216-3.127,3.087,3.087,0,0,1,1.737-.695,2.581,2.581,0,0,1,2.258,1.042h0A2.124,2.124,0,0,1,326.733,179.606Z" transform="translate(-265.231 -146.249)" fill="#fff"/>
    <path id="Path_2062" data-name="Path 2062" d="M364.042,163v5.559L367,165.78h1.39l-2.432,2.259,2.954,4.517h-1.39l-2.432-3.648-1.042,1.042v2.606H363V163Z" transform="translate(-299.935 -134.681)" fill="#fff"/>
    <path id="Path_2063" data-name="Path 2063" d="M405.042,164.39H404V163h1.042Zm0,8.165H404V165.78h1.042Z" transform="translate(-333.812 -134.681)" fill="#fff"/>
    <path id="Path_2064" data-name="Path 2064" d="M423,177.347h1.042v1.042a2.1,2.1,0,0,1,1.564-1.216c.174-.174.347-.174.695-.174a2,2,0,0,1,1.911,1.042,1.3,1.3,0,0,1,.174.869v5.212h-1.042v-4.691a1.25,1.25,0,0,0-.695-1.216,1.313,1.313,0,0,0-.695-.174,1.67,1.67,0,0,0-1.564,1.042,2.512,2.512,0,0,0-.347,1.216v3.822H423Z" transform="translate(-349.511 -146.249)" fill="#fff"/>
    <path id="Path_2065" data-name="Path 2065" d="M466.954,178.042a1.612,1.612,0,0,0-1.564,1.216,3.469,3.469,0,0,0-.347,1.564,2.705,2.705,0,0,0,1.042,2.432,1.566,1.566,0,0,0,.869.174,1.672,1.672,0,0,0,1.737-1.216,3.386,3.386,0,0,0,.174-1.39q0-2.085-1.042-2.606A7.519,7.519,0,0,0,466.954,178.042Zm2.085-.695h1.042v5.733a4.107,4.107,0,0,1-.695,2.78c0,.174,0,.174-.174.347-.347.521-1.042.695-2.085.869h-.174a2.6,2.6,0,0,1-2.432-1.216c-.174-.347-.347-.521-.347-.869h1.042a2.4,2.4,0,0,0,.521.695,1.466,1.466,0,0,0,1.216.347,2.123,2.123,0,0,0,1.564-.521,4.648,4.648,0,0,0,.348-1.911v-.347a2.937,2.937,0,0,1-1.737,1.216h-.347a2.79,2.79,0,0,1-1.911-.869h0a3.589,3.589,0,0,1-.869-2.78,4.247,4.247,0,0,1,1.042-3.127,3.643,3.643,0,0,1,1.911-.695,2.649,2.649,0,0,1,2.085,1.216Z" transform="translate(-383.387 -146.249)" fill="#fff"/>
    <path id="Path_2066" data-name="Path 2066" d="M532,177.347h1.042v.869a2.115,2.115,0,0,1,1.737-1.042c0-.174.174-.174.348-.174a1.917,1.917,0,0,1,1.737.869.17.17,0,0,0,.174.174,1.824,1.824,0,0,1,1.564-.869.638.638,0,0,1,.521-.174,1.757,1.757,0,0,1,1.911,1.39v5.733h-1.042v-4.691a1.376,1.376,0,0,0-.869-1.39h-.348a1.58,1.58,0,0,0-1.39.695,2.47,2.47,0,0,0-.347,1.042v4.343H536v-4.691c0-.869-.347-1.216-.869-1.39h-.348a1.58,1.58,0,0,0-1.39.695,2.47,2.47,0,0,0-.347,1.042v4.343H532Z" transform="translate(-439.574 -146.249)" fill="#fff"/>
    <path id="Path_2067" data-name="Path 2067" d="M599.517,182.038v-1.216c-.174,0-.695.174-1.39.347h-.347c-.869.174-1.39.347-1.564.869v.347c0,.521.174.869.869,1.042h.347a2.935,2.935,0,0,0,1.737-.521C599.343,182.559,599.517,182.386,599.517,182.038Zm1.911,1.39v.869a1.045,1.045,0,0,1-.695.174c-.695,0-1.042-.347-1.042-.869v-.174a3.754,3.754,0,0,1-2.432,1.042,2.275,2.275,0,0,1-2.085-1.042,2.2,2.2,0,0,1-.174-1.042,1.672,1.672,0,0,1,1.216-1.737,3.738,3.738,0,0,1,1.737-.347.638.638,0,0,1,.521-.174c.521,0,1.042-.174,1.042-.521v-.521q0-.782-1.042-1.042h-.521a1.4,1.4,0,0,0-1.564,1.042v.174h-1.042a3.272,3.272,0,0,1,.347-1.39,3.437,3.437,0,0,1,2.432-.869c1.564,0,2.258.521,2.432,1.564.174.174.174.174.174.347v4.17a.461.461,0,0,0,.521.521A.17.17,0,0,0,601.428,183.428Z" transform="translate(-491.628 -146.249)" fill="#fff"/>
    <path id="Path_2068" data-name="Path 2068" d="M641.127,166.475a2.115,2.115,0,0,0-1.737,1.042,2.957,2.957,0,0,0-.174,1.216v.521a2.093,2.093,0,0,0,1.911,2.606,1.669,1.669,0,0,0,1.564-1.042,2.582,2.582,0,0,0,.347-1.564,3.15,3.15,0,0,0-.869-2.432A2.469,2.469,0,0,0,641.127,166.475ZM644.081,163v9.555h-.869v-.869A3.3,3.3,0,0,1,641.3,172.9h-.347a2.62,2.62,0,0,1-2.432-1.564,4.345,4.345,0,0,1-.521-2.259,3.579,3.579,0,0,1,1.216-2.953,3.086,3.086,0,0,1,1.737-.695,2.269,2.269,0,0,1,2.085,1.216V163Z" transform="translate(-527.158 -134.681)" fill="#fff"/>
    <path id="Path_2069" data-name="Path 2069" d="M684.216,180.127h3.822a2.231,2.231,0,0,0-.7-1.737,2.511,2.511,0,0,0-1.216-.347,1.67,1.67,0,0,0-1.564,1.042A2.468,2.468,0,0,0,684.216,180.127Zm5.038.869h-5.038c0,.695,0,1.216.347,1.564a1.825,1.825,0,0,0,1.564.869,1.883,1.883,0,0,0,1.911-1.39h1.042a3.06,3.06,0,0,1-1.564,2.259c-.521,0-.869.174-1.39.174a2.858,2.858,0,0,1-2.606-1.39,4.808,4.808,0,0,1-.521-2.259,3.717,3.717,0,0,1,1.216-3.127,3.643,3.643,0,0,1,1.911-.695,2.629,2.629,0,0,1,2.432,1.216.9.9,0,0,1,.347.695A6.481,6.481,0,0,1,689.254,181Z" transform="translate(-564.34 -146.249)" fill="#fff"/>
    <path id="Path_2070" data-name="Path 2070" d="M749.216,180.127h3.822a2.23,2.23,0,0,0-.695-1.737,2.512,2.512,0,0,0-1.216-.347,1.67,1.67,0,0,0-1.564,1.042A2.47,2.47,0,0,0,749.216,180.127Zm5.038.869h-5.038a3.47,3.47,0,0,0,.347,1.564,1.917,1.917,0,0,0,1.737.869,1.829,1.829,0,0,0,1.737-1.39h1.042a3.06,3.06,0,0,1-1.564,2.259c-.347,0-.869.174-1.39.174a2.858,2.858,0,0,1-2.606-1.39,4.809,4.809,0,0,1-.521-2.259,4.311,4.311,0,0,1,1.216-3.127,3.643,3.643,0,0,1,1.911-.695,2.629,2.629,0,0,1,2.432,1.216,2.4,2.4,0,0,1,.521.695A7.153,7.153,0,0,1,754.255,181Z" transform="translate(-618.047 -146.249)" fill="#fff"/>
    <path id="Path_2071" data-name="Path 2071" d="M797.517,182.038v-1.216a8.809,8.809,0,0,0-1.564.347h-.174c-1.042.174-1.564.347-1.737.869v.347a1.1,1.1,0,0,0,.869,1.042h.521a2.123,2.123,0,0,0,1.564-.521C797.343,182.559,797.517,182.386,797.517,182.038Zm1.911,1.39v.869a1.313,1.313,0,0,1-.695.174,1.157,1.157,0,0,1-1.216-.869v-.174a3.364,3.364,0,0,1-2.259,1.042,2.1,2.1,0,0,1-2.085-1.042,2.2,2.2,0,0,1-.174-1.042,1.672,1.672,0,0,1,1.216-1.737,2.937,2.937,0,0,1,1.564-.347.638.638,0,0,1,.521-.174c.695,0,1.042-.174,1.216-.521v-.521q0-.782-1.042-1.042h-.521a1.4,1.4,0,0,0-1.564,1.042v.174h-1.216a1.973,1.973,0,0,1,.521-1.39,3,3,0,0,1,2.259-.869q2.345,0,2.606,1.564v4.517c0,.347.174.521.695.521Z" transform="translate(-655.229 -146.249)" fill="#fff"/>
    <path id="Path_2072" data-name="Path 2072" d="M841.386,179.259H840.17c0-.869-.521-1.216-1.39-1.216-.7,0-1.216.174-1.39.695v.347c0,.347.174.695.869.869a.606.606,0,0,0,.347.174l1.042.174c1.042.347,1.737.695,1.911,1.39v.521a1.879,1.879,0,0,1-1.216,1.911,3.47,3.47,0,0,1-1.564.347c-1.737,0-2.606-.695-2.78-2.085v-.347h1.216a1.021,1.021,0,0,0,.347.869,1.353,1.353,0,0,0,1.216.521q1.3,0,1.564-.521c0-.174.174-.347.174-.521a1.154,1.154,0,0,0-.695-.869l-.348-.174-1.042-.174a5.657,5.657,0,0,1-2.085-1.042c0-.347-.174-.521-.174-1.042a1.911,1.911,0,0,1,1.042-1.737A5.073,5.073,0,0,1,838.78,177a2.27,2.27,0,0,1,2.432,1.39A7.528,7.528,0,0,1,841.386,179.259Z" transform="translate(-690.758 -146.249)" fill="#fff"/>
    <path id="Path_2073" data-name="Path 2073" d="M879.865,179h1.216l-3.127,8.339a5.408,5.408,0,0,1-.695,1.042,2.471,2.471,0,0,1-1.042.347c-.347,0-.521-.174-.7-.174v-1.042c.174,0,.348.174.521.174a1.154,1.154,0,0,0,.869-.695h0l.348-1.216L875,179h1.216l1.737,5.212Z" transform="translate(-722.983 -147.902)" fill="#fff"/>
    <path id="Path_2074" data-name="Path 2074" d="M130.161,163l-6.081,9.034L118,163Z" transform="translate(-97.499 -134.681)" fill="#fff" fill-rule="evenodd"/>
  </g>
</svg>
