<svg xmlns="http://www.w3.org/2000/svg" width="127.695" height="59.131" viewBox="0 0 127.695 59.131">
  <g id="Layer_x0020_1" transform="translate(-5358.001 -16613)">
    <g id="_336483272" transform="translate(5358.001 16613)">
      <path id="Path_2014" data-name="Path 2014" d="M7647.453,18314.748h7.671a4.649,4.649,0,0,0,.508,2.348,3.5,3.5,0,0,0,3.252,1.563,4.471,4.471,0,0,0,2.78-.807,2.993,2.993,0,0,0,1.254-1.861,2.02,2.02,0,0,0-.547-1.8c-.5-.523-1.774-1.031-3.823-1.49-3.363-.795-5.672-1.836-6.938-3.141a5.389,5.389,0,0,1-1.353-4.988,8.058,8.058,0,0,1,1.837-3.775,9.948,9.948,0,0,1,3.983-2.793,17.806,17.806,0,0,1,6.542-1q4.953,0,7.224,1.838c1.514,1.229,2.185,3.188,2.036,5.869l-.025.434h-7.584a3.34,3.34,0,0,0-.807-2.531,3.456,3.456,0,0,0-2.507-.793,3.68,3.68,0,0,0-2.209.594,2.262,2.262,0,0,0-.968,1.428,1.242,1.242,0,0,0,.385,1.119,5.49,5.49,0,0,0,2.508.943,28.472,28.472,0,0,1,7.087,2.3,5.927,5.927,0,0,1,2.78,2.863,6.536,6.536,0,0,1,.348,3.824,9.726,9.726,0,0,1-2.209,4.58,11.023,11.023,0,0,1-4.418,3.189,17.1,17.1,0,0,1-6.429,1.08q-6.591,0-8.664-2.531A8.458,8.458,0,0,1,7647.453,18314.748Z" transform="translate(-7618.979 -18276.098)" fill="#fff"/>
      <path id="Path_2015" data-name="Path 2015" d="M9483.507,18332h7.991l-3.114,17.316h8.167l-1.39,7.57H9479Z" transform="translate(-9427.85 -18310.664)" fill="#fff"/>
      <path id="Path_2016" data-name="Path 2016" d="M10929.668,18314.748h7.671a4.613,4.613,0,0,0,.51,2.348,3.5,3.5,0,0,0,3.251,1.563,4.477,4.477,0,0,0,2.781-.807,2.993,2.993,0,0,0,1.253-1.861,2.018,2.018,0,0,0-.547-1.8c-.5-.523-1.774-1.031-3.822-1.49-3.364-.795-5.672-1.836-6.938-3.141a5.39,5.39,0,0,1-1.353-4.988,8.184,8.184,0,0,1,1.837-3.775,9.955,9.955,0,0,1,3.983-2.793,17.811,17.811,0,0,1,6.543-1q4.951,0,7.222,1.838c1.516,1.229,2.186,3.188,2.036,5.869l-.049.41-7.56.023a3.346,3.346,0,0,0-.806-2.531,3.462,3.462,0,0,0-2.509-.793,3.678,3.678,0,0,0-2.209.594,2.314,2.314,0,0,0-.968,1.428,1.243,1.243,0,0,0,.385,1.119,5.49,5.49,0,0,0,2.508.943,28.48,28.48,0,0,1,7.087,2.3,6.018,6.018,0,0,1,2.793,2.863,6.65,6.65,0,0,1,.335,3.824,9.743,9.743,0,0,1-2.209,4.58,11.032,11.032,0,0,1-4.419,3.189,17.084,17.084,0,0,1-6.417,1.08q-6.611,0-8.677-2.531a7.836,7.836,0,0,1-1.737-4.369A13.052,13.052,0,0,1,10929.668,18314.748Z" transform="translate(-10860.459 -18276.098)" fill="#fff"/>
      <path id="Path_2017" data-name="Path 2017" d="M8017,20682.59l.311-.869a1.315,1.315,0,0,0,.571.264,2.63,2.63,0,0,0,.731.111,1.4,1.4,0,0,0,.882-.264.905.905,0,0,0,.359-.719.981.981,0,0,0-.211-.67,4.581,4.581,0,0,0-.807-.719,3.656,3.656,0,0,1-.819-.807,1.379,1.379,0,0,1-.223-.92,1.851,1.851,0,0,1,.633-1.4,2.235,2.235,0,0,1,1.489-.506,3.473,3.473,0,0,1,1.341.172l-.3.883a1.509,1.509,0,0,0-.422-.2,2.31,2.31,0,0,0-.547-.086,1.543,1.543,0,0,0-.931.258,1,1,0,0,0-.372.76.857.857,0,0,0,.087.395,1.187,1.187,0,0,0,.272.35c.111.1.348.3.721.57a3.1,3.1,0,0,1,.781.855,1.968,1.968,0,0,1,.211,1.02,1.764,1.764,0,0,1-.67,1.377,2.649,2.649,0,0,1-1.614.473,3.266,3.266,0,0,1-.794-.1A2.558,2.558,0,0,1,8017,20682.59Zm4.083,2.111.05-.857a2.142,2.142,0,0,0,1.205-.26,1.47,1.47,0,0,0,.545-.758c-.422,0-.683-.422-.781-1.254l-.435-3.6h.931l.372,3.5c.025.346.149.521.335.521l1.949-4.023h.968l-2.692,5.414a2.361,2.361,0,0,1-.857,1.006A3.2,3.2,0,0,1,8021.083,20684.7Zm4.581-2.186.483-.8a1.718,1.718,0,0,0,.484.32,1.351,1.351,0,0,0,.559.148,1,1,0,0,0,.671-.223.734.734,0,0,0,.3-.582.49.49,0,0,0-.124-.336,1.758,1.758,0,0,0-.459-.346l-.621-.35a1.134,1.134,0,0,1-.422-.422,1.084,1.084,0,0,1-.112-.547,1.358,1.358,0,0,1,.571-1.078,2.131,2.131,0,0,1,1.316-.412,3.115,3.115,0,0,1,1.253.336l-.422.8a1.324,1.324,0,0,0-.943-.412.924.924,0,0,0-.583.176.55.55,0,0,0-.273.457.5.5,0,0,0,.124.361,2.128,2.128,0,0,0,.46.322l.62.348a1.108,1.108,0,0,1,.422.41,1,1,0,0,1,.112.547,1.611,1.611,0,0,1-.621,1.227,2.3,2.3,0,0,1-1.452.449A2.32,2.32,0,0,1,8025.664,20682.516Zm5.337-3.871h-.56l.175-.672h.558l.249-1.006,1.006-.373-.385,1.379h1.327l-.173.672h-1.341l-.634,2.406a1.853,1.853,0,0,0-.074.436c-.024.459.187.693.646.693a1.9,1.9,0,0,0,.732-.172l-.074.758a3.95,3.95,0,0,1-1.2.137.991.991,0,0,1-.781-.324,1.183,1.183,0,0,1-.236-.867,1.057,1.057,0,0,1,.05-.311Zm3.736,1.873c-.025.148-.05.285-.062.424a1.2,1.2,0,0,0,.3.918,1.233,1.233,0,0,0,.907.32,1.909,1.909,0,0,0,1.092-.395l-.123.881a4.651,4.651,0,0,1-1.292.236c-1.24,0-1.837-.7-1.763-2.1a3.069,3.069,0,0,1,.882-2.072,2.712,2.712,0,0,1,2.022-.846,1.9,1.9,0,0,1,1.13.3.989.989,0,0,1,.385.881,1.511,1.511,0,0,1-.732,1.242,2.876,2.876,0,0,1-1.65.457A2.244,2.244,0,0,1,8034.737,20680.518Zm.187-.621a1.721,1.721,0,0,0,.794.16,2.4,2.4,0,0,0,1.153-.234.746.746,0,0,0,.484-.656c.013-.373-.224-.561-.732-.561A1.781,1.781,0,0,0,8034.924,20679.9Zm9.122,2.9.7-3.053c.024-.123.037-.236.05-.346a.671.671,0,0,0-.758-.8,1.2,1.2,0,0,0-.608.188,1.324,1.324,0,0,0-.472.434l-.807,3.574h-.894l.795-3.426a.587.587,0,0,0,.013-.148c.024-.41-.249-.621-.819-.621a1.146,1.146,0,0,0-.584.2,1.584,1.584,0,0,0-.5.434l-.808,3.563h-.868l.794-3.512a2.968,2.968,0,0,0,.05-.436,2.667,2.667,0,0,0-.062-.82l.845-.148a3.032,3.032,0,0,1,.063.633,1.335,1.335,0,0,1,.62-.457,2.174,2.174,0,0,1,.881-.176c.683,0,1.118.215,1.3.648a1.555,1.555,0,0,1,.646-.473,2.383,2.383,0,0,1,.844-.176c.881,0,1.291.412,1.254,1.256a2.858,2.858,0,0,1-.062.432l-.732,3.229Zm4.965,0,1.5-6.6h.919l-1.315,5.8h2.992l-.187.8Zm5.821-2.283c-.025.148-.05.285-.062.424a1.156,1.156,0,0,0,.3.918,1.225,1.225,0,0,0,.905.32,1.912,1.912,0,0,0,1.093-.395l-.124.881a4.639,4.639,0,0,1-1.292.236c-1.253,0-1.837-.7-1.763-2.1a3.073,3.073,0,0,1,.882-2.072,2.713,2.713,0,0,1,2.023-.846,1.9,1.9,0,0,1,1.129.3.989.989,0,0,1,.385.881,1.511,1.511,0,0,1-.732,1.242,2.915,2.915,0,0,1-1.662.457A2.232,2.232,0,0,1,8054.832,20680.518Zm.186-.621a1.728,1.728,0,0,0,.795.16,2.409,2.409,0,0,0,1.154-.234.749.749,0,0,0,.484-.656c.012-.373-.224-.561-.745-.561A1.78,1.78,0,0,0,8055.018,20679.9Zm5.325,3.006h-.224l-1.154-4.941h.895l.7,3.326,2-3.326h.992Zm3.984-2.385a1.736,1.736,0,0,0-.062.424,1.148,1.148,0,0,0,.285.918,1.261,1.261,0,0,0,.919.32,1.938,1.938,0,0,0,1.092-.395l-.137.881a4.555,4.555,0,0,1-1.291.236c-1.241,0-1.837-.7-1.763-2.1a3.077,3.077,0,0,1,.881-2.072,2.716,2.716,0,0,1,2.024-.846,1.875,1.875,0,0,1,1.129.3.963.963,0,0,1,.385.881,1.513,1.513,0,0,1-.732,1.242,2.879,2.879,0,0,1-1.651.457A2.164,2.164,0,0,1,8064.327,20680.518Zm.174-.621a1.724,1.724,0,0,0,.794.16,2.5,2.5,0,0,0,1.167-.234.756.756,0,0,0,.472-.656c.025-.373-.224-.561-.731-.561A1.793,1.793,0,0,0,8064.5,20679.9Zm5.5,2.371-.138.635c-.968,0-1.427-.361-1.39-1.082a10.623,10.623,0,0,1,.3-1.439l1.078-4.381h.895l-1.03,4.107a12.564,12.564,0,0,0-.335,1.6C8069.354,20682.084,8069.565,20682.268,8070,20682.268Zm3.909.322.311-.869a1.309,1.309,0,0,0,.571.264,2.632,2.632,0,0,0,.732.111,1.4,1.4,0,0,0,.881-.264.9.9,0,0,0,.359-.719.985.985,0,0,0-.21-.67,4.631,4.631,0,0,0-.808-.719,3.656,3.656,0,0,1-.819-.807,1.39,1.39,0,0,1-.223-.92,1.853,1.853,0,0,1,.632-1.4,2.241,2.241,0,0,1,1.49-.506,3.473,3.473,0,0,1,1.341.172l-.3.883a1.469,1.469,0,0,0-.422-.2,2.2,2.2,0,0,0-.546-.086,1.545,1.545,0,0,0-.931.258,1,1,0,0,0-.372.76.869.869,0,0,0,.086.395,1.223,1.223,0,0,0,.273.35c.111.1.348.3.721.57a3.088,3.088,0,0,1,.781.855,1.968,1.968,0,0,1,.212,1.02,1.768,1.768,0,0,1-.671,1.377,2.646,2.646,0,0,1-1.613.473,3.263,3.263,0,0,1-.795-.1A2.558,2.558,0,0,1,8073.909,20682.59Zm4.468-1.562a3.5,3.5,0,0,1,.87-2.223,2.526,2.526,0,0,1,1.96-.92,1.7,1.7,0,0,1,1.329.473,1.849,1.849,0,0,1,.4,1.354,4.6,4.6,0,0,1-.347,1.439,3.024,3.024,0,0,1-.969,1.254,2.568,2.568,0,0,1-1.539.5,1.616,1.616,0,0,1-1.3-.5A1.782,1.782,0,0,1,8078.377,20681.027Zm.907-.051c-.037.809.272,1.217.955,1.217a1.467,1.467,0,0,0,1.254-.732,3.432,3.432,0,0,0,.533-1.713c.037-.77-.285-1.166-.968-1.166a1.337,1.337,0,0,0-.931.373,2.249,2.249,0,0,0-.62.941A3.6,3.6,0,0,0,8079.284,20680.977Zm5.857,1.291-.124.635c-.968,0-1.438-.361-1.4-1.082a10.494,10.494,0,0,1,.3-1.439l1.08-4.381h.894l-1.03,4.107a12.948,12.948,0,0,0-.335,1.6C8084.509,20682.084,8084.708,20682.268,8085.142,20682.268Zm2.893-4.295-.7,3.078a2.516,2.516,0,0,0-.062.373c-.024.5.224.756.746.756a1.547,1.547,0,0,0,.942-.359,1.509,1.509,0,0,0,.57-.869l.708-2.979h.906l-1.129,4.828h-.907l.162-.682a2.02,2.02,0,0,1-1.787.783,1.087,1.087,0,0,1-.856-.336,1.306,1.306,0,0,1-.273-.943,3.47,3.47,0,0,1,.074-.473l.708-3.178Zm4.643.672h-.56l.175-.672h.558l.249-1.006,1-.373-.385,1.379h1.328l-.174.672h-1.341l-.632,2.406a1.814,1.814,0,0,0-.075.436c-.025.459.187.693.646.693a1.843,1.843,0,0,0,.72-.172l-.062.758a4.016,4.016,0,0,1-1.205.137,1,1,0,0,1-.782-.324,1.249,1.249,0,0,1-.247-.867,1.938,1.938,0,0,1,.062-.311Zm4.555-2.557a.569.569,0,0,1,.422.172.525.525,0,0,1,.149.422.594.594,0,0,1-.2.424.556.556,0,0,1-.422.172.522.522,0,0,1-.422-.172.551.551,0,0,1-.148-.424.623.623,0,0,1,.2-.422A.613.613,0,0,1,8097.231,20676.088Zm-1.713,6.713.931-4.1h-.633l.2-.707h1.464l-1.092,4.8Zm2.632-1.773a3.565,3.565,0,0,1,.868-2.223,2.533,2.533,0,0,1,1.974-.92,1.689,1.689,0,0,1,1.316.473,1.791,1.791,0,0,1,.4,1.354,4.227,4.227,0,0,1-.348,1.439,3,3,0,0,1-.969,1.254,2.509,2.509,0,0,1-1.538.5,1.634,1.634,0,0,1-1.3-.5A1.778,1.778,0,0,1,8098.15,20681.027Zm.905-.051c-.037.809.286,1.217.956,1.217a1.467,1.467,0,0,0,1.254-.732,3.452,3.452,0,0,0,.534-1.713c.037-.77-.286-1.166-.969-1.166a1.341,1.341,0,0,0-.932.373,2.258,2.258,0,0,0-.62.941A4.117,4.117,0,0,0,8099.056,20680.977Zm6.914,1.824.645-2.8a3.4,3.4,0,0,0,.088-.621c.037-.521-.224-.77-.757-.77a1.586,1.586,0,0,0-.658.176,1.919,1.919,0,0,0-.584.434l-.794,3.586h-.869l.832-3.66c.012-.088.024-.176.037-.3a2.641,2.641,0,0,0-.062-.793l.844-.164a4.475,4.475,0,0,1,.075.721,1.974,1.974,0,0,1,1.626-.721c.868,0,1.278.449,1.241,1.33a3.949,3.949,0,0,1-.087.607l-.67,2.979Zm1.825-.285.483-.8a1.636,1.636,0,0,0,.5.32,1.309,1.309,0,0,0,.547.148,1.05,1.05,0,0,0,.682-.223.759.759,0,0,0,.286-.582.441.441,0,0,0-.124-.336,1.758,1.758,0,0,0-.459-.346l-.621-.35a1.1,1.1,0,0,1-.409-.422.961.961,0,0,1-.125-.547,1.389,1.389,0,0,1,.571-1.078,2.155,2.155,0,0,1,1.316-.412,3.115,3.115,0,0,1,1.253.336l-.422.8a1.32,1.32,0,0,0-.931-.412.983.983,0,0,0-.6.176.544.544,0,0,0-.149.818,2.277,2.277,0,0,0,.472.322l.608.348a1.03,1.03,0,0,1,.422.41,1.017,1.017,0,0,1,.112.547,1.578,1.578,0,0,1-.621,1.227,2.286,2.286,0,0,1-1.44.449A2.36,2.36,0,0,1,8107.795,20682.516Z" transform="translate(-7983.996 -20625.57)" fill="#fff"/>
      <path id="Path_2018" data-name="Path 2018" d="M5409.933,16613c-7.024,2.719-14.323,5.51-21.374,10.178-6.354,4.2-13.268,10.141-18.047,18.494-7.783,13.828.98,24.6,20.1,24.227-11,1.082-22.417.311-28.809-6.639a12.989,12.989,0,0,1-3.5-12.053,24.978,24.978,0,0,1,3.525-8.117C5369.93,16625.6,5390.968,16615.73,5409.933,16613Z" transform="translate(-5358.001 -16613)" fill="#fff"/>
      <path id="Path_2019" data-name="Path 2019" d="M7608,16889.8c7.708-4.73,15.317-9.98,31.291-10.947,8.527-.127,12.437,4.307,10.786,11.617,3.5-4.494,4.828-7.969,3.413-11.109a7.765,7.765,0,0,0-5.461-4.4,21.744,21.744,0,0,0-7.262-.385C7629.783,16875.332,7616.266,16882.182,7608,16889.8Z" transform="translate(-7580.073 -16871.211)" fill="#fff"/>
    </g>
  </g>
</svg>
