<svg id="Group_9214" data-name="Group 9214" xmlns="http://www.w3.org/2000/svg" width="137.254" height="56.685" viewBox="0 0 137.254 56.685">
  <path id="Path_6723" data-name="Path 6723" d="M540.432,80.693a9.615,9.615,0,0,1-.359,1.369,3.592,3.592,0,0,1-2.456,2.045,10.092,10.092,0,0,1-5.665-.092,11.128,11.128,0,0,1-2.525-1.08c-.268-.15-.34-.3-.167-.588.3-.5.559-1.024.837-1.539.061-.109.132-.214.188-.3.614.313,1.185.637,1.783.9a7.187,7.187,0,0,0,3.663.652,3.279,3.279,0,0,0,1.024-.275,1.173,1.173,0,0,0,.27-1.988,5.418,5.418,0,0,0-1.556-.759c-1.124-.374-2.283-.651-3.409-1.03a3.442,3.442,0,0,1-2.019-1.536,3.314,3.314,0,0,1-.37-2.038,4.016,4.016,0,0,1,3.153-3.54,8.6,8.6,0,0,1,6.825,1.057,1.722,1.722,0,0,1,.237.193c-.368.645-.729,1.268-1.084,1.894-.094.166-.2.159-.345.058A6.657,6.657,0,0,0,535.68,73a3.845,3.845,0,0,0-2.356.206,1.3,1.3,0,0,0-.789,1.138,1.13,1.13,0,0,0,.7,1.212,18.973,18.973,0,0,0,2.105.722,12.874,12.874,0,0,1,3.581,1.29,2.977,2.977,0,0,1,1.456,2.332,2.245,2.245,0,0,0,.059.278Z" transform="translate(-403.178 -49.108)" fill="#fff" fill-rule="evenodd"/>
  <path id="Path_6724" data-name="Path 6724" d="M415.137,45.235a2.11,2.11,0,0,0,.226.3q2.458,2.338,4.92,4.67c.323.306.325.368.009.67q-2.122,2.008-4.24,4.016a1.551,1.551,0,0,1-.923.389,2.245,2.245,0,0,1-2.009-.855c-1.088-1.086-2.2-2.144-3.305-3.21-.14-.134-.287-.263-.439-.383-.229-.186-.236-.35-.013-.557.943-.878,1.872-1.771,2.811-2.65.8-.757,1.617-1.5,2.424-2.258a.687.687,0,0,0,.083-.131Z" transform="translate(-384.853 -45.235)" fill="#fff" fill-rule="evenodd"/>
  <path id="Path_6725" data-name="Path 6725" d="M380.463,77.443a2.59,2.59,0,0,0,.308-.215q2.429-2.3,4.854-4.6c.465-.444.465-.444.929,0,1.337,1.274,2.667,2.557,4.017,3.821a1.24,1.24,0,0,1,.427.9c.006.121.01.241.026.358a1.117,1.117,0,0,1-.455,1.09c-.855.745-1.644,1.565-2.465,2.347-.595.569-1.195,1.13-1.792,1.694-.183.178-.329.164-.518-.018q-2.5-2.4-5.018-4.793c-.11-.105-.209-.218-.313-.327Z" transform="translate(-380.463 -49.369)" fill="#fff" fill-rule="evenodd"/>
  <path id="Path_6726" data-name="Path 6726" d="M442.694,75.694c-.013.22-.026.356-.026.49v7.731c0,.455,0,.455-.448.458h-1.852c-.473,0-.473,0-.473-.466V73.319c0-.735.008-1.473-.007-2.209-.005-.27.087-.363.355-.353.5.018,1,.012,1.495,0a.61.61,0,0,1,.524.252q3.459,4.143,6.935,8.282c.08.094.169.18.254.268.03-.011.058-.02.087-.029V71.2c0-.425,0-.425.429-.425.649,0,1.3.014,1.948-.008.313-.01.4.083.4.4-.012,3.616-.006,7.234-.006,10.85,0,.671-.007,1.342,0,2.012,0,.247-.074.356-.333.349-.542-.013-1.084.014-1.624-.014a.777.777,0,0,1-.493-.233q-3.407-4-6.792-8.02c-.1-.121-.211-.236-.377-.415" transform="translate(-389.54 -49.133)" fill="#fff" fill-rule="evenodd"/>
  <path id="Path_6727" data-name="Path 6727" d="M509.321,77.53v6.333c0,.461,0,.461-.473.463q-.924,0-1.852,0c-.429,0-.439-.012-.439-.432v-4.9c0-.477,0-.477-.491-.477q-2.779-.005-5.555,0c-.43,0-.44.009-.44.435,0,1.655-.009,3.311.005,4.967,0,.316-.1.423-.411.417-.671-.014-1.342-.01-2.013,0-.27,0-.392-.076-.391-.37q.009-6.433,0-12.865c0-.281.108-.383.383-.378.673.01,1.344.013,2.014,0,.3-.006.42.089.419.412-.014,1.559-.006,3.118-.005,4.676,0,.4.016.418.427.418,1.882,0,3.765-.005,5.651.007.307,0,.415-.088.413-.4-.012-1.56,0-3.121-.012-4.678,0-.331.1-.44.426-.43.649.016,1.3.019,1.949,0,.323-.009.4.116.4.42-.01,2.132-.006,4.264-.006,6.4" transform="translate(-398.304 -49.127)" fill="#fff" fill-rule="evenodd"/>
  <path id="Path_6728" data-name="Path 6728" d="M489.522,82.833c-.408.3-.719.567-1.066.781a5.055,5.055,0,0,1-3.8.69,6.656,6.656,0,0,1-5.112-4.4,6.735,6.735,0,0,1,4.174-8.944,6.424,6.424,0,0,1,6.474,1.135,4.027,4.027,0,0,1,1.124,1.488c-.639.45-1.264.891-1.894,1.326-.205.141-.267-.067-.338-.18a3.68,3.68,0,0,0-1.284-1.257,3.765,3.765,0,0,0-5.461,1.839,5.146,5.146,0,0,0,.257,4.828,3.889,3.889,0,0,0,5.557,1.27c.325-.21.607-.485.919-.716a1.136,1.136,0,0,0,.458-1.1c-.021-.245-.086-.347-.342-.344-.716.013-1.43.006-2.144,0-.4,0-.418-.019-.42-.423s.006-.825,0-1.235c0-.207.08-.29.287-.29,1.55.006,3.1.008,4.648,0,.295,0,.262.19.262.372q0,2.856,0,5.717a4.443,4.443,0,0,1-.013.68.328.328,0,0,1-.221.226c-.6.015-1.214,0-1.82.01-.212,0-.249-.113-.247-.288.006-.365,0-.734,0-1.179" transform="translate(-395.524 -49.102)" fill="#fff" fill-rule="evenodd"/>
  <path id="Path_6729" data-name="Path 6729" d="M415.2,74.172c-.662-.31-1.26-.636-1.894-.873a5.138,5.138,0,0,0-3.184-.23,1.4,1.4,0,0,0-1.108,1.247,1.169,1.169,0,0,0,.756,1.273,16.711,16.711,0,0,0,2.019.678,14.74,14.74,0,0,1,3.392,1.166,3.341,3.341,0,0,1,1.634,3.791,3.6,3.6,0,0,1-2.813,2.9,10.016,10.016,0,0,1-5.571-.11,10.591,10.591,0,0,1-2.606-1.132c-.214-.128-.255-.236-.124-.462q.487-.841.923-1.707c.121-.236.223-.223.422-.095a8.218,8.218,0,0,0,4.991,1.45A3.6,3.6,0,0,0,413.2,81.8a1.18,1.18,0,0,0,.286-2.021,5.345,5.345,0,0,0-1.529-.738c-1.137-.378-2.308-.652-3.44-1.041a3.359,3.359,0,0,1-2.035-1.608,3.612,3.612,0,0,1-.2-2.6,3.98,3.98,0,0,1,3.093-2.914,8.6,8.6,0,0,1,6.762,1.073c.14.08.248.186.142.367-.363.624-.724,1.25-1.072,1.85" transform="translate(-384.308 -49.108)" fill="#fff" fill-rule="evenodd"/>
  <path id="Path_6730" data-name="Path 6730" d="M467.564,72.147c-.408.7-.8,1.392-1.214,2.1a6.763,6.763,0,0,0-2.294-1.09,4.44,4.44,0,0,0-3.081.059,1.25,1.25,0,0,0-.758,1.157,1.121,1.121,0,0,0,.684,1.181,19.652,19.652,0,0,0,2.107.719,14.643,14.643,0,0,1,3.36,1.157,3.2,3.2,0,0,1,1.715,2.886,3.705,3.705,0,0,1-2.9,3.824,10.072,10.072,0,0,1-5.007.02,10.725,10.725,0,0,1-3.06-1.216c-.352-.212-.361-.255-.169-.609.287-.53.581-1.06.861-1.6.116-.224.215-.26.445-.114a8.152,8.152,0,0,0,5.018,1.446,3.431,3.431,0,0,0,1.156-.281,1.192,1.192,0,0,0,.288-2,3.849,3.849,0,0,0-1.562-.759c-1.145-.343-2.31-.639-3.441-1.029a3.314,3.314,0,0,1-2.122-1.783,3.625,3.625,0,0,1-.165-2.232,4.006,4.006,0,0,1,3.172-3.113,8.565,8.565,0,0,1,6.78,1.118,1.65,1.65,0,0,1,.19.156" transform="translate(-392.127 -49.108)" fill="#fff" fill-rule="evenodd"/>
  <path id="Path_6731" data-name="Path 6731" d="M421.475,74.753c0-1.223.008-2.444-.005-3.671,0-.29.079-.408.386-.4.639.019,1.277.006,1.916.007.475,0,.475,0,.475.463,0,2.156-.008,4.312.007,6.464a5.945,5.945,0,0,0,.565,2.739,3.217,3.217,0,0,0,3.429,1.684,3.3,3.3,0,0,0,2.871-3.024,17.964,17.964,0,0,0,.139-2.23c.018-1.874.005-3.748.005-5.621,0-.476,0-.476.493-.476.649,0,1.3.007,1.947,0,.236-.006.329.078.329.318-.01,2.394.031,4.789-.03,7.18a6.573,6.573,0,0,1-1.468,4.239,5.453,5.453,0,0,1-3.422,1.868,7.8,7.8,0,0,1-3.41-.153A5.26,5.26,0,0,1,422.1,81a8.172,8.172,0,0,1-.618-3.2c0-1.016,0-2.036,0-3.053Z" transform="translate(-386.727 -49.122)" fill="#fff" fill-rule="evenodd"/>
  <path id="Path_6732" data-name="Path 6732" d="M414.85,100.423a1.28,1.28,0,0,1,1.217.5c1.157,1.121,2.348,2.2,3.523,3.306.2.183.381.381.579.568s.2.359-.02.563c-1.3,1.206-2.584,2.421-3.877,3.636-.4.379-.8.763-1.206,1.136a.509.509,0,0,1-.839-.009q-2.528-2.4-5.05-4.8c-.193-.186-.208-.332-.013-.514q2.18-2.037,4.355-4.085c.357-.335.8-.267,1.331-.293" transform="translate(-384.826 -53.66)" fill="#fff" fill-rule="evenodd"/>
  <path id="Path_6733" data-name="Path 6733" d="M393.188,75.512a1.3,1.3,0,0,1-1.131-.466c-1.319-1.3-2.658-2.574-3.99-3.856-.077-.075-.144-.163-.229-.232-.2-.163-.144-.284.025-.443.936-.867,1.861-1.749,2.792-2.622.8-.749,1.6-1.49,2.393-2.245a.294.294,0,0,1,.486,0c1.451,1.4,2.913,2.776,4.353,4.185a1.264,1.264,0,0,1,.287.655,2.559,2.559,0,0,1,.029.839,1.1,1.1,0,0,1-.266.6c-1.041,1.007-2.1,1.992-3.161,2.982a1.674,1.674,0,0,1-1.587.6" transform="translate(-381.57 -48.334)" fill="#fff" fill-rule="evenodd"/>
  <path id="Path_6734" data-name="Path 6734" d="M417.272,57.436a1.279,1.279,0,0,1,.508-1.249c1.384-1.273,2.741-2.572,4.112-3.863.374-.353.379-.353.753.007l4.894,4.7c.333.321.336.343,0,.658-1.384,1.306-2.773,2.606-4.155,3.915a1.73,1.73,0,0,1-.911.41,2,2,0,0,1-1.994-.758c-.942-.964-1.958-1.863-2.932-2.8a.952.952,0,0,1-.228-.441,3.5,3.5,0,0,1-.05-.579" transform="translate(-386.082 -46.278)" fill="#fff" fill-rule="evenodd"/>
  <path id="Path_6735" data-name="Path 6735" d="M421.981,93.621a1.307,1.307,0,0,1,1.284.463c1.335,1.31,2.7,2.588,4.057,3.88.324.307.319.389,0,.7q-2.493,2.369-4.983,4.736c-.306.291-.358.29-.665-.012q-1.643-1.613-3.286-3.23a9.645,9.645,0,0,0-.849-.753,1.131,1.131,0,0,1-.48-.974,2.088,2.088,0,0,0,0-.262,1.5,1.5,0,0,1,.693-1.4c.89-.77,1.751-1.575,2.6-2.389.473-.453.926-.9,1.637-.759" transform="translate(-386.05 -52.621)" fill="#fff" fill-rule="evenodd"/>
  <path id="Path_6736" data-name="Path 6736" d="M407.385,103.588c-.824-.78-1.623-1.536-2.42-2.3-.968-.924-1.929-1.856-2.9-2.776-.207-.2-.21-.334,0-.529q1.624-1.515,3.234-3.042c.4-.378.785-.774,1.2-1.13a1.987,1.987,0,0,1,.546-.236c.01,0,.022,0,.032,0a2.14,2.14,0,0,1,2.143.776c.844.95,1.821,1.787,2.754,2.654.585.544.433,1.218.379,1.878-.006.08-.1.162-.172.227q-2.229,2.1-4.462,4.2c-.093.086-.2.164-.332.273" transform="translate(-383.739 -52.613)" fill="#fff" fill-rule="evenodd"/>
  <path id="Path_6737" data-name="Path 6737" d="M405.407,64.237a1.211,1.211,0,0,1-.478,1.133c-1.041.942-2.055,1.917-3.07,2.887a1.26,1.26,0,0,1-1,.437,1.7,1.7,0,0,0-.421.036,1.183,1.183,0,0,1-1.123-.408c-1.225-1.2-2.483-2.379-3.728-3.564-.163-.157-.322-.321-.5-.463-.226-.18-.226-.33-.009-.524.676-.607,1.342-1.223,2-1.842,1.027-.961,2.055-1.921,3.07-2.9a.4.4,0,0,1,.659,0c1.452,1.388,2.928,2.759,4.35,4.179.224.224.226.668.331,1.011-.03.008-.059.012-.089.019" transform="translate(-382.671 -47.316)" fill="#fff" fill-rule="evenodd"/>
  <path id="Path_6738" data-name="Path 6738" d="M407.754,61.967a1.423,1.423,0,0,1-1.323-.472c-1.311-1.288-2.655-2.541-3.986-3.813-.442-.424-.435-.442,0-.856q2.439-2.309,4.871-4.624c.326-.313.3-.29.623.025.9.878,1.811,1.734,2.723,2.6.493.468.991.937,1.493,1.4a1.416,1.416,0,0,1,.413.881,1.811,1.811,0,0,1-.79,1.809c-.926.791-1.821,1.628-2.683,2.49a1.461,1.461,0,0,1-1.34.563" transform="translate(-383.771 -46.265)" fill="#fff" fill-rule="evenodd"/>
  <path id="Path_6739" data-name="Path 6739" d="M393.338,80.075a1.46,1.46,0,0,1,1.463.555c.965.962,1.967,1.884,2.956,2.821a1.7,1.7,0,0,1-.014,2.326q-2.111,1.971-4.219,3.942c-.214.2-.373.228-.6.01q-2.5-2.385-5.006-4.756c-.331-.313-.324-.341.012-.653,1.342-1.238,2.693-2.465,4.012-3.725a1.387,1.387,0,0,1,1.4-.52" transform="translate(-381.565 -50.55)" fill="#fff" fill-rule="evenodd"/>
  <path id="Path_6740" data-name="Path 6740" d="M519.893,70.719h5.524c.435,0,.457.026.457.462,0,.487-.012.975,0,1.462.009.3-.111.4-.4.4-1.244-.008-2.489,0-3.736,0-.427,0-.432.008-.432.439V83.844c0,.48,0,.48-.492.482h-1.853c-.44,0-.447-.01-.447-.463V73.6c0-.556,0-.556-.56-.556h-3.606c-.4,0-.424-.026-.426-.425,0-.5.015-1-.005-1.5-.014-.323.119-.406.42-.4,1.851.008,3.7,0,5.555,0" transform="translate(-400.849 -49.127)" fill="#fff" fill-rule="evenodd"/>
  <path id="Path_6741" data-name="Path 6741" d="M405.292,91.586a.988.988,0,0,1-.424.94c-1.418,1.318-2.815,2.66-4.22,3.992-.319.3-.325.295-.627.006q-2.519-2.434-5.04-4.867c-.209-.2-.2-.31.01-.508,1.437-1.328,2.856-2.676,4.292-4.007a1.074,1.074,0,0,1,1.713.1,9.922,9.922,0,0,0,2.869,2.244,6.587,6.587,0,0,1,.572.365c.765.558.842.712.856,1.73" transform="translate(-382.657 -51.579)" fill="#fff" fill-rule="evenodd"/>
  <path id="Path_6742" data-name="Path 6742" d="M416.3,65.981c-1.5.042-3.005.094-4.509.13a1.718,1.718,0,0,1-1.689-1.6,1.613,1.613,0,0,1,.622-1.537c1.062-.9,2.046-1.9,3.053-2.864a.982.982,0,0,1,.839-.326,1.1,1.1,0,0,0,.358,0,1.465,1.465,0,0,1,1.474.566c.989,1,2.019,1.951,3.018,2.939a1.321,1.321,0,0,1,.263.567,2.9,2.9,0,0,1,.046.518,1.317,1.317,0,0,1-1.4,1.52c-.348,0-.695.014-1.04.032s-.691.04-1.037.061v-.007" transform="translate(-384.989 -47.451)" fill="#fff" fill-rule="evenodd"/>
  <path id="Path_6743" data-name="Path 6743" d="M434.929,64.18c-.038.075-.042.086-.048.095a3.05,3.05,0,0,1-2.7,1.1c-2.139-.025-4.283.132-6.424.219-.96.036-1.272-.307-1.369-1.26a1.637,1.637,0,0,1,.661-1.5c1.367-1.245,2.7-2.525,4.037-3.8.233-.223.371-.156.563.03q2.369,2.293,4.743,4.573c.184.176.358.367.536.546" transform="translate(-387.171 -47.321)" fill="#fff" fill-rule="evenodd"/>
  <path id="Path_6744" data-name="Path 6744" d="M429.163,97.488c-.534-.508-1.06-1.006-1.579-1.509q-1.44-1.4-2.873-2.807a1.981,1.981,0,0,1-.329-1.871.879.879,0,0,1,.617-.314c.937-.065,1.879-.086,2.82-.118,1.416-.05,2.834-.092,4.251-.137.1-.005.195,0,.288-.009a1.692,1.692,0,0,1,1.645.62,4.715,4.715,0,0,0,.613.577c.217.186.2.343-.007.531q-1.645,1.5-3.271,3.008c-.635.587-1.26,1.185-1.888,1.777-.086.083-.177.156-.287.252" transform="translate(-387.154 -52.181)" fill="#fff" fill-rule="evenodd"/>
  <path id="Path_6745" data-name="Path 6745" d="M475.72,77.531v6.363c0,.434,0,.436-.428.436-.67,0-1.342-.008-2.011,0-.254.005-.343-.087-.341-.341q.006-6.46,0-12.921c0-.239.085-.326.323-.324.693.01,1.384.016,2.077,0,.3-.007.389.09.386.391-.013,2.131-.007,4.262-.007,6.394" transform="translate(-394.589 -49.132)" fill="#fff" fill-rule="evenodd"/>
  <path id="Path_6746" data-name="Path 6746" d="M414.792,91.359c1.438-.054,2.878-.114,4.318-.158.509-.016.537.076.6.574a1.874,1.874,0,0,1-.738,1.8c-1.035.9-2,1.886-3.012,2.811a1.325,1.325,0,0,1-.691.305c-1.113.125-1.111.107-1.91-.671q-1.5-1.453-3.021-2.9c-.466-.442-.3-1-.3-1.529,0-.048.2-.144.3-.147.434-.009.868.022,1.3.009,1.05-.025,2.1-.071,3.148-.109Z" transform="translate(-384.977 -52.256)" fill="#fff" fill-rule="evenodd"/>
  <path id="Path_6747" data-name="Path 6747" d="M399.755,73.574a10.283,10.283,0,0,0-.923,7.7c-.038.011-.076.019-.113.03a2.07,2.07,0,0,1-.238-.175q-1.238-1.192-2.466-2.392a.646.646,0,0,1-.178-.368,7.639,7.639,0,0,1-.013-1.1.66.66,0,0,1,.2-.38q1.659-1.592,3.335-3.173a2.784,2.784,0,0,1,.272-.2c.04.022.08.042.12.062" transform="translate(-382.807 -49.554)" fill="#fff" fill-rule="evenodd"/>
  <path id="Path_6748" data-name="Path 6748" d="M523.634,92.382H526v.326h-1.928V93.73h1.792v.351h-1.794v1.112h2.033v.322h-2.472Z" transform="translate(-402.333 -52.437)" fill="#fff" fill-rule="evenodd"/>
  <path id="Path_6749" data-name="Path 6749" d="M475.254,93.743a6.207,6.207,0,0,1-.1-.795c0-.339.237-.543.613-.6a.793.793,0,0,1,.863.369.677.677,0,0,1-.269.826c-.174.124-.369.219-.6.351.208.291.409.578.665.937.153-.351.274-.63.411-.942l.32.089-.492,1.111c.215.067.432.132.709.219.071.15-.022.255-.245.248a.822.822,0,0,1-.436-.086.557.557,0,0,0-.638-.005,1.541,1.541,0,0,1-.693.1.788.788,0,0,1-.776-.585.887.887,0,0,1,.31-.99c.116-.1.247-.171.358-.247m.193.285a.707.707,0,0,0-.524.664.509.509,0,0,0,.374.546.794.794,0,0,0,.854-.2c-.129-.175-.247-.326-.359-.485s-.224-.339-.345-.524m.152-.393c.222-.124.379-.194.521-.29.178-.118.3-.316.175-.493a.684.684,0,0,0-.48-.214c-.225-.007-.343.177-.329.4a5.5,5.5,0,0,0,.113.6" transform="translate(-394.834 -52.43)" fill="#fff" fill-rule="evenodd"/>
  <path id="Path_6750" data-name="Path 6750" d="M535.034,96.05c.185-.081.324-.118.495.09a.592.592,0,0,0,1-.256,3.109,3.109,0,0,0,.048-.53,3.172,3.172,0,0,1-.655.3.725.725,0,0,1-.946-.641,3.334,3.334,0,0,1,0-1.126c.15-.774.937-.946,1.565-.344.024-.1.044-.186.068-.29h.346c0,.866.018,1.719-.008,2.571a.806.806,0,0,1-.8.787c-.485.054-1.023-.093-1.109-.563m.279-1.616a1.593,1.593,0,0,0,.083.515c.086.164.242.382.389.4a.777.777,0,0,0,.584-.223,1.217,1.217,0,0,0-.005-1.39.755.755,0,0,0-.553-.214c-.154.024-.32.226-.4.386a1.612,1.612,0,0,0-.092.527" transform="translate(-404.058 -52.559)" fill="#fff" fill-rule="evenodd"/>
  <path id="Path_6751" data-name="Path 6751" d="M444.583,94.776l.371-.073c.285.58.793.6,1.332.5.276-.049.492-.178.512-.5s-.2-.435-.452-.506c-.313-.086-.632-.151-.94-.247-.5-.158-.716-.447-.684-.859a.826.826,0,0,1,.843-.749,3.947,3.947,0,0,1,.963.053.782.782,0,0,1,.613.627c-.13.034-.242.061-.38.1-.213-.5-.645-.512-1.091-.463-.263.028-.491.125-.521.436-.027.3.175.422.419.491.313.086.63.153.941.249.509.153.744.446.718.868a.827.827,0,0,1-.791.807,4.517,4.517,0,0,1-1.272-.069.772.772,0,0,1-.581-.664" transform="translate(-390.258 -52.43)" fill="#fff" fill-rule="evenodd"/>
  <path id="Path_6752" data-name="Path 6752" d="M501.146,93.034c-.137.03-.251.054-.359.08a1,1,0,0,0-1.27-.411.592.592,0,0,0-.329.4.56.56,0,0,0,.292.428,10.4,10.4,0,0,0,1.056.3.865.865,0,0,1,.692.651.819.819,0,0,1-.537.958,2.094,2.094,0,0,1-1.521.006.886.886,0,0,1-.576-.674c.133-.027.246-.047.356-.069a1.151,1.151,0,0,0,1.445.474.486.486,0,0,0,.416-.472.461.461,0,0,0-.387-.489c-.331-.1-.67-.164-1-.266-.492-.155-.723-.455-.689-.856a.834.834,0,0,1,.84-.753,3.5,3.5,0,0,1,.931.044c.364.064.509.241.641.645" transform="translate(-398.508 -52.429)" fill="#fff" fill-rule="evenodd"/>
  <path id="Path_6753" data-name="Path 6753" d="M479.77,94.783l.352-.073c.307.558.825.638,1.473.468a.483.483,0,0,0,.385-.471.46.46,0,0,0-.372-.473c-.341-.1-.693-.173-1.033-.276a.831.831,0,0,1-.648-.574.72.72,0,0,1,.515-.946,4.366,4.366,0,0,1,1.308-.015.712.712,0,0,1,.565.615l-.376.088c-.241-.552-.717-.512-1.185-.446a.455.455,0,0,0-.434.419.433.433,0,0,0,.36.471c.342.1.693.172,1.034.278.486.153.685.408.685.826a.743.743,0,0,1-.448.731,2,2,0,0,1-1.727,0,.782.782,0,0,1-.454-.62" transform="translate(-395.633 -52.437)" fill="#fff" fill-rule="evenodd"/>
  <path id="Path_6754" data-name="Path 6754" d="M442.553,95.5c-.32.1-.457,0-.551-.267-.223-.619-.236-.617-.891-.617h-.785a6.486,6.486,0,0,0-.24.616c-.08.3-.256.368-.556.271q.475-1.168.951-2.333a5.084,5.084,0,0,1,.279-.652.4.4,0,0,1,.309-.14.337.337,0,0,1,.275.14c.409.987.8,1.977,1.208,2.982m-.924-1.232c-.195-.512-.38-1-.584-1.534-.2.531-.384,1.023-.576,1.534Z" transform="translate(-389.486 -52.435)" fill="#fff" fill-rule="evenodd"/>
  <path id="Path_6755" data-name="Path 6755" d="M466.339,95.213c-.02.108-.035.189-.051.279h-.345v-3.3h.369v1.114a3.187,3.187,0,0,1,.7-.265.722.722,0,0,1,.883.618,3.632,3.632,0,0,1,0,1.245.847.847,0,0,1-1.447.406l-.113-.1m1.225-.872c-.015-.189-.013-.342-.04-.489-.052-.288-.19-.5-.529-.507a.537.537,0,0,0-.6.469,3.844,3.844,0,0,0,.014,1.025c.042.291.275.414.575.414a.49.49,0,0,0,.518-.436c.037-.169.044-.34.063-.476" transform="translate(-393.52 -52.408)" fill="#fff" fill-rule="evenodd"/>
  <path id="Path_6756" data-name="Path 6756" d="M405.61,68.331c0-.068-.009-.1,0-.111a18.98,18.98,0,0,1,1.758-1.6,2,2,0,0,1,2.1.281.311.311,0,0,1,.1.218c-.01.053-.123.111-.195.118a11.683,11.683,0,0,0-3.619,1.05c-.036.014-.076.024-.144.048" transform="translate(-384.304 -48.472)" fill="#fff" fill-rule="evenodd"/>
  <path id="Path_6757" data-name="Path 6757" d="M457.055,95.24a.971.971,0,0,1-.88.468.647.647,0,0,1-.692-.552.69.69,0,0,1,.448-.862,10.149,10.149,0,0,1,1.107-.162c.039-.238.041-.477-.246-.6a.646.646,0,0,0-.842.345l-.364-.056a1.885,1.885,0,0,1,.086-.255,1.109,1.109,0,0,1,1.2-.352.724.724,0,0,1,.611.765c.014.366-.013.735.015,1.1.009.112.139.217.215.325.037.053.1.1.108.154,0,.029-.075.092-.127.106-.292.09-.495-.036-.635-.424m-.017-.781a6.626,6.626,0,0,0-.757.052.462.462,0,0,0-.39.571c.054.258.256.363.581.3.388-.075.6-.406.566-.924" transform="translate(-391.92 -52.557)" fill="#fff" fill-rule="evenodd"/>
  <path id="Path_6758" data-name="Path 6758" d="M463.23,93.888c-.108-.019-.22-.036-.334-.058l-.067-.086c.149-.149.278-.39.451-.428a2.548,2.548,0,0,1,1.037-.028c.332.064.443.386.45.709.008.358,0,.714.006,1.069,0,.169,0,.335.235.358.041,0,.112.1.1.119a.254.254,0,0,1-.14.136c-.29.084-.479-.042-.629-.408a.989.989,0,0,1-.853.45.66.66,0,0,1-.719-.564.71.71,0,0,1,.492-.868,2.993,2.993,0,0,1,.607-.089c.147-.013.3,0,.467,0,.025-.3.03-.541-.262-.658a.658.658,0,0,0-.841.35m1.1.565a5.556,5.556,0,0,0-.874.112c-.255.068-.317.3-.265.55s.22.3.437.292c.46-.013.738-.357.7-.954" transform="translate(-393.033 -52.569)" fill="#fff" fill-rule="evenodd"/>
  <path id="Path_6759" data-name="Path 6759" d="M532.205,94.536h-1.7a.784.784,0,0,0,.368.8.81.81,0,0,0,.885-.182c.082-.069.232-.052.35-.073a.962.962,0,0,1,.055.1,2.111,2.111,0,0,1-.27.328,1.125,1.125,0,0,1-1.79-.718,2.4,2.4,0,0,1-.03-.452c.043-.79.458-1.193,1.173-1.152.663.035,1.018.515.963,1.354m-.424-.335c-.016-.495-.228-.723-.651-.715-.39.01-.605.259-.605.715Z" transform="translate(-403.315 -52.559)" fill="#fff" fill-rule="evenodd"/>
  <path id="Path_6760" data-name="Path 6760" d="M514.911,94.533h-1.677a.735.735,0,0,0,.34.8.8.8,0,0,0,.891-.173c.086-.071.245-.054.425-.09a1,1,0,0,1-1.106.637.939.939,0,0,1-.919-.691,2.354,2.354,0,0,1-.081-.641c0-.792.441-1.229,1.166-1.19.671.033,1.025.51.959,1.35M514.5,94.2c-.04-.524-.245-.739-.682-.713-.375.016-.585.272-.576.713Z" transform="translate(-400.676 -52.559)" fill="#fff" fill-rule="evenodd"/>
  <path id="Path_6761" data-name="Path 6761" d="M485.505,94.536h-1.712c.006.359.063.676.4.808a.73.73,0,0,0,.857-.191c.067-.072.23-.054.348-.076.018.032.038.064.056.094a1.8,1.8,0,0,1-.267.326,1.124,1.124,0,0,1-1.8-.71,2.626,2.626,0,0,1-.025-.418c.023-.807.443-1.231,1.174-1.187.659.036,1.017.515.963,1.353M483.8,94.2h1.274c0-.449-.187-.685-.544-.713-.435-.034-.651.169-.73.713" transform="translate(-396.182 -52.559)" fill="#fff" fill-rule="evenodd"/>
  <path id="Path_6762" data-name="Path 6762" d="M496.031,95.072a.933.933,0,0,1-1.1.626.89.89,0,0,1-.873-.735,2.621,2.621,0,0,1-.041-.9,1.013,1.013,0,0,1,1.251-.878c.6.09.926.589.84,1.336h-1.686a.775.775,0,0,0,.376.819.815.815,0,0,0,.862-.184c.09-.073.247-.06.375-.089m-1.6-.876H495.7c-.056-.527-.246-.723-.67-.709-.377.014-.574.241-.6.709" transform="translate(-397.805 -52.558)" fill="#fff" fill-rule="evenodd"/>
  <path id="Path_6763" data-name="Path 6763" d="M472.132,95.063a1,1,0,0,1-1.156.639.967.967,0,0,1-.912-.865,2.9,2.9,0,0,1-.022-.582,1.006,1.006,0,0,1,.988-1.071.99.99,0,0,1,1.141.968,3.582,3.582,0,0,1,.017.377h-1.7a.75.75,0,0,0,.357.818.834.834,0,0,0,.862-.188c.089-.07.248-.058.426-.1m-1.66-.866h1.268c-.021-.48-.21-.7-.594-.709-.415-.012-.619.2-.674.709" transform="translate(-394.146 -52.559)" fill="#fff" fill-rule="evenodd"/>
  <path id="Path_6764" data-name="Path 6764" d="M519.515,94.343c0,1.064-.614,1.571-1.473,1.307-.022-.007-.043-.008-.064-.016a1.047,1.047,0,0,1-.632-1.039c-.023-.482-.009-.98.469-1.262a1.172,1.172,0,0,1,1.263.014,1.123,1.123,0,0,1,.437,1m-.427.141c-.01-.168-.013-.278-.024-.384-.047-.406-.229-.6-.577-.613a.567.567,0,0,0-.684.563,3.16,3.16,0,0,0,.031.9.528.528,0,0,0,.58.454.563.563,0,0,0,.613-.463,3.857,3.857,0,0,0,.061-.453" transform="translate(-401.371 -52.555)" fill="#fff" fill-rule="evenodd"/>
  <path id="Path_6765" data-name="Path 6765" d="M502.173,94.521c0-1.077.619-1.564,1.511-1.283a1.064,1.064,0,0,1,.149.059,1.555,1.555,0,0,1,.361,1.9,1.136,1.136,0,0,1-1.506.378,1.109,1.109,0,0,1-.514-1.055m.4-.086c.023.153.035.3.068.45a.624.624,0,0,0,1.234-.042,3.723,3.723,0,0,0,0-.836.533.533,0,0,0-.587-.523.565.565,0,0,0-.643.5c-.034.148-.047.3-.069.449" transform="translate(-399.055 -52.556)" fill="#fff" fill-rule="evenodd"/>
  <path id="Path_6766" data-name="Path 6766" d="M537.743,93.278c.311-.105.448-.006.538.265.175.53.388,1.047.617,1.657.209-.6.4-1.117.563-1.644.083-.269.208-.384.484-.3.008.017.029.038.025.052-.341.885-.674,1.775-1.029,2.658a.881.881,0,0,1-.828.662c-.217,0-.3-.071-.235-.281.022.022.042.043.061.066a4.8,4.8,0,0,0,.6-.452.481.481,0,0,0,.05-.565c-.295-.695-.562-1.4-.847-2.119" transform="translate(-404.488 -52.567)" fill="#fff" fill-rule="evenodd"/>
  <path id="Path_6767" data-name="Path 6767" d="M461.8,95.64h-.387c0-.5,0-1,0-1.495,0-.476-.115-.632-.448-.646a.592.592,0,0,0-.669.624c-.022.495-.007.99-.007,1.509h-.4V93.248l.335-.016c.013.114.028.208.044.342a.979.979,0,0,1,.912-.391.606.606,0,0,1,.613.595c.025.613.005,1.227.005,1.861" transform="translate(-392.596 -52.558)" fill="#fff" fill-rule="evenodd"/>
  <path id="Path_6768" data-name="Path 6768" d="M505.334,93.258h.394v1.313c0,.086,0,.173,0,.26.013.4.124.545.424.57a.572.572,0,0,0,.674-.507c.039-.406.025-.82.032-1.229,0-.129,0-.256,0-.4h.394v2.385c-.1.007-.2.016-.332.026-.019-.114-.036-.213-.039-.236a3.7,3.7,0,0,1-.84.269.6.6,0,0,1-.7-.659c-.018-.584-.005-1.167-.005-1.789" transform="translate(-399.537 -52.571)" fill="#fff" fill-rule="evenodd"/>
  <path id="Path_6769" data-name="Path 6769" d="M529.129,95.638h-.408c0-.515.006-1.01,0-1.507s-.115-.621-.459-.63a.6.6,0,0,0-.662.638c-.022.493-.006.989-.006,1.5h-.387V93.252h.331c.021.095.038.185.045.22a3.268,3.268,0,0,1,.729-.28.649.649,0,0,1,.809.7c.031.57.008,1.145.008,1.75" transform="translate(-402.879 -52.559)" fill="#fff" fill-rule="evenodd"/>
  <path id="Path_6770" data-name="Path 6770" d="M453.03,93.844a1.821,1.821,0,0,1-.353-.186.9.9,0,0,0-.884-.087.287.287,0,0,0,.06.53c.219.091.456.136.68.208.467.144.654.371.623.745-.029.355-.281.6-.737.636a2.515,2.515,0,0,1-.767-.062c-.253-.056-.43-.231-.489-.626a1.728,1.728,0,0,1,.424.19.994.994,0,0,0,1,.121.372.372,0,0,0,.163-.281.481.481,0,0,0-.216-.317,6.45,6.45,0,0,0-.7-.226c-.424-.14-.6-.351-.577-.674.023-.341.25-.546.681-.615.6-.1,1.018.092,1.162.539-.022.036-.042.071-.064.107" transform="translate(-391.263 -52.558)" fill="#fff" fill-rule="evenodd"/>
  <path id="Path_6771" data-name="Path 6771" d="M489.239,93.253h.4c0,.423,0,.84,0,1.258,0,.117,0,.238.006.358.02.258.065.5.4.53a.569.569,0,0,0,.674-.422,4.36,4.36,0,0,0,.062-.8c.009-.3,0-.6,0-.918.137,0,.242-.008.374-.016v2.408h-.329c-.016-.092-.031-.185-.047-.286a.639.639,0,0,0-.083.038,2.3,2.3,0,0,1-.646.3.65.65,0,0,1-.807-.7c-.023-.572,0-1.142,0-1.752" transform="translate(-397.078 -52.568)" fill="#fff" fill-rule="evenodd"/>
  <path id="Path_6772" data-name="Path 6772" d="M450.238,93.239v2.408h-.329c-.019-.093-.038-.185-.041-.2a3.75,3.75,0,0,1-.8.262.611.611,0,0,1-.739-.662c-.024-.583,0-1.168,0-1.775h.4c0,.506,0,1,0,1.495s.108.621.455.635a.6.6,0,0,0,.658-.641c.019-.454.008-.908.011-1.362a1.11,1.11,0,0,1,.023-.14l.367-.019" transform="translate(-390.828 -52.568)" fill="#fff" fill-rule="evenodd"/>
  <path id="Path_6773" data-name="Path 6773" d="M488.343,93.893c-.134.019-.239.034-.321.043a1.874,1.874,0,0,0-.327-.369.547.547,0,0,0-.827.377,3.349,3.349,0,0,0-.028.8c.029.38.213.6.491.634a.539.539,0,0,0,.644-.441h.365a.788.788,0,0,1-.664.744.974.974,0,0,1-1.1-.43,1.7,1.7,0,0,1,0-1.617.95.95,0,0,1,1.031-.449.839.839,0,0,1,.738.7" transform="translate(-396.641 -52.558)" fill="#fff" fill-rule="evenodd"/>
  <path id="Path_6774" data-name="Path 6774" d="M511.653,94.941h.362a.808.808,0,0,1-.7.752.971.971,0,0,1-1.088-.46,1.764,1.764,0,0,1,0-1.567.946.946,0,0,1,1.017-.48.845.845,0,0,1,.768.693c-.2.069-.357.112-.5-.152a.593.593,0,0,0-.488-.206.624.624,0,0,0-.439.307,1.457,1.457,0,0,0,.014,1.227.747.747,0,0,0,.471.319c.316.067.49-.159.586-.432" transform="translate(-400.257 -52.558)" fill="#fff" fill-rule="evenodd"/>
  <path id="Path_6775" data-name="Path 6775" d="M521,93.069l.4.025c.03.246.03.246-.434.3v2.09h-.416v-2.1c-.121-.014-.214-.027-.3-.039-.124-.3.114-.255.2-.272a3.78,3.78,0,0,1,.314-.789c.07-.1.319-.1.484-.1.078,0,.155.133.276.248-.57.112-.61.166-.528.632" transform="translate(-401.81 -52.407)" fill="#fff" fill-rule="evenodd"/>
  <path id="Path_6776" data-name="Path 6776" d="M454.5,93.523c0,.466,0,.983,0,1.5,0,.312.252.259.457.259a.768.768,0,0,1,.049.087c-.075.076-.14.193-.23.219a.491.491,0,0,1-.647-.268,1.379,1.379,0,0,1-.042-.385c-.005-.4,0-.8,0-1.2,0-.147.036-.313-.2-.326-.038,0-.071-.124-.105-.192l.109.029c.1-.145.191-.292.29-.433.056-.076.119-.147.179-.22a1.183,1.183,0,0,1,.136.236.638.638,0,0,1,.018.211l.435.254c-.126.062-.251.129-.443.23" transform="translate(-391.662 -52.469)" fill="#fff" fill-rule="evenodd"/>
  <path id="Path_6777" data-name="Path 6777" d="M436.031,90.739c.1-.061.144-.112.19-.114.56-.018,1.12-.036,1.679-.031.214,0,.263.169.125.313a9.9,9.9,0,0,1-.779.727.246.246,0,0,1-.23.014c-.33-.287-.643-.591-.984-.909" transform="translate(-388.951 -52.164)" fill="#fff" fill-rule="evenodd"/>
  <rect id="Rectangle_2332" data-name="Rectangle 2332" width="0.36" height="3.294" transform="translate(74.998 39.778)" fill="#fff"/>
  <path id="Path_6778" data-name="Path 6778" d="M493.447,93.531c-.572.072-.712.217-.734.8-.016.43,0,.86,0,1.31h-.391V93.247l.336-.014c.017.119.033.219.054.368.169-.271.345-.5.723-.386,0,.1.011.207.015.316" transform="translate(-397.549 -52.56)" fill="#fff" fill-rule="evenodd"/>
  <path id="Path_6779" data-name="Path 6779" d="M508.417,93.244h.314c.025.108.047.209.086.368.143-.319.341-.485.691-.406.008.108.014.214.021.311-.611.121-.725.261-.729.9-.006.4,0,.8,0,1.22h-.38Z" transform="translate(-400.008 -52.56)" fill="#fff" fill-rule="evenodd"/>
  <path id="Path_6780" data-name="Path 6780" d="M533.65,95.642h-.38V93.25l.308-.026c.029.117.052.219.08.33a1.34,1.34,0,0,1,.275-.3,1.59,1.59,0,0,1,.422-.105c.01.153.019.255.025.358-.613.131-.725.268-.73.9,0,.4,0,.8,0,1.235" transform="translate(-403.805 -52.554)" fill="#fff" fill-rule="evenodd"/>
  <path id="Path_6781" data-name="Path 6781" d="M458.647,95.65c-.007-.069-.019-.131-.019-.193,0-.724,0-1.447,0-2.188h.38V95.65Z" transform="translate(-392.403 -52.572)" fill="#fff" fill-rule="evenodd"/>
  <path id="Path_6782" data-name="Path 6782" d="M459.012,92.2v.346h-.369c-.006-.116-.012-.219-.019-.346Z" transform="translate(-392.403 -52.408)" fill="#fff" fill-rule="evenodd"/>
</svg>
