<svg xmlns="http://www.w3.org/2000/svg" width="1104" height="320" viewBox="0 0 1104 320">
  <g id="Group_8874" data-name="Group 8874" transform="translate(-409 -46255)">
    <g id="_336483272" transform="translate(409 46262)">
      <path id="Path_2014" data-name="Path 2014" d="M7647.723,18398.58h43.9c0,5.678.994,10.164,2.909,13.432,3.625,5.961,9.8,8.947,18.613,8.947,6.463,0,11.794-1.486,15.909-4.621,4.048-3.055,6.463-6.607,7.179-10.648a11.568,11.568,0,0,0-3.131-10.3c-2.838-3-10.149-5.9-21.875-8.525-19.25-4.553-32.461-10.5-39.708-17.973s-9.8-16.977-7.741-28.545c1.346-7.7,4.9-14.852,10.513-21.605s13.212-12.072,22.8-15.988c9.521-3.84,22.024-5.746,37.437-5.746q28.345,0,41.341,10.514c8.666,7.029,12.5,18.248,11.652,33.588l-.142,2.484h-43.408c.072-6.607-1.487-11.49-4.615-14.486-3.122-3.055-7.885-4.543-14.352-4.543-5.325,0-9.515,1.135-12.643,3.4a12.96,12.96,0,0,0-5.539,8.164,7.107,7.107,0,0,0,2.2,6.406c1.777,1.916,6.608,3.758,14.355,5.4q28.871,6.5,40.557,13.148c7.885,4.393,13.213,9.787,15.91,16.385,2.767,6.471,3.483,13.793,1.989,21.889a55.684,55.684,0,0,1-12.646,26.207,63.135,63.135,0,0,1-25.289,18.256c-10.152,4.123-22.443,6.176-36.792,6.176q-37.719,0-49.581-14.486C7649.5,18425.787,7646.3,18413.488,7647.723,18398.58Z" transform="translate(-7484.77 -18177.381)" fill="#0426a1" fill-rule="evenodd"/>
      <path id="Path_2015" data-name="Path 2015" d="M9504.795,18332h45.735l-17.826,99.113h46.738l-7.952,43.324H9479Z" transform="translate(-9186.262 -18209.891)" fill="#0426a1" fill-rule="evenodd"/>
      <path id="Path_2016" data-name="Path 2016" d="M10929.925,18398.58h43.9c0,5.758,1,10.164,2.918,13.432,3.616,5.961,9.866,8.947,18.6,8.947,6.466,0,11.791-1.486,15.918-4.621,4.042-3.055,6.461-6.607,7.171-10.648a11.561,11.561,0,0,0-3.129-10.3c-2.839-3-10.156-5.9-21.873-8.525-19.257-4.553-32.463-10.5-39.712-17.973s-9.8-16.977-7.743-28.545a46.783,46.783,0,0,1,10.514-21.605q8.423-10.14,22.8-15.988c9.521-3.84,22.027-5.746,37.445-5.746q28.333,0,41.331,10.514c8.674,7.029,12.506,18.248,11.648,33.588l-.278,2.348-43.26.137c.067-6.607-1.493-11.49-4.616-14.486-3.127-3.055-7.89-4.543-14.357-4.543-5.318,0-9.514,1.135-12.642,3.4a13.259,13.259,0,0,0-5.535,8.164,7.108,7.108,0,0,0,2.2,6.406c1.778,1.916,6.6,3.758,14.352,5.4q28.869,6.5,40.557,13.148c7.886,4.393,13.212,9.787,15.987,16.385,2.7,6.471,3.4,13.793,1.913,21.889a55.728,55.728,0,0,1-12.643,26.207,63.186,63.186,0,0,1-25.286,18.256c-10.161,4.123-22.452,6.176-36.725,6.176q-37.835,0-49.657-14.486c-5.746-6.961-9.022-15.26-9.947-25A74.8,74.8,0,0,1,10929.925,18398.58Z" transform="translate(-10533.835 -18177.381)" fill="#0426a1" fill-rule="evenodd"/>
      <path id="Path_2018" data-name="Path 2018" d="M5655.208,16613c-40.2,15.561-81.971,31.529-122.321,58.248-36.368,24.008-75.934,58.035-103.283,105.842-44.54,79.139,5.612,140.791,115.006,138.645-62.936,6.2-128.29,1.783-164.874-37.99-18.328-19.961-25.286-41.771-20.029-68.977,3.123-16.406,10.94-31.107,20.174-46.455C5426.269,16685.113,5546.671,16628.629,5655.208,16613Z" transform="translate(-5358.002 -16613.002)" fill="#de141a" fill-rule="evenodd"/>
      <path id="Path_2019" data-name="Path 2019" d="M7608,16962.3c44.112-27.08,87.659-57.125,179.079-62.652,48.8-.729,71.174,24.648,61.73,66.49,20.031-25.73,27.631-45.611,19.532-63.584-5.325-11.719-14.424-20.527-31.252-25.205-12.862-3.557-26.569-3.215-41.559-2.2C7732.667,16879.473,7655.31,16918.666,7608,16962.3Z" transform="translate(-7448.176 -16855.883)" fill="#0426a1" fill-rule="evenodd"/>
    </g>
    <text id="SYSTEM_LEVEL_SOLUTIONS" data-name="SYSTEM
LEVEL
SOLUTIONS" transform="translate(982 46369)" fill="#171515" font-size="100" font-family="Access-ExtraBold, Access" font-weight="800" letter-spacing="-0.02em"><tspan x="0" y="0">SYSTEM</tspan><tspan fill="#de141a"><tspan x="0" y="90">LEVEL</tspan></tspan><tspan x="0" y="180">SOLUTIONS</tspan></text>
  </g>
</svg>
