<svg id="Group_8948" data-name="Group 8948" xmlns="http://www.w3.org/2000/svg" width="220.389" height="35.433" viewBox="0 0 220.389 35.433">
  <path id="Path_4121" data-name="Path 4121" d="M72.986,778.694h8.46a5.641,5.641,0,0,0-1.29-3.576,3.873,3.873,0,0,0-2.946-1.185,3.743,3.743,0,0,0-2.864,1.2,5.965,5.965,0,0,0-1.359,3.559m9.13,2.661h-9.13a6.238,6.238,0,0,0,.64,2.806,4.3,4.3,0,0,0,3.94,2.445,5.42,5.42,0,0,0,1.528-.2,4.779,4.779,0,0,0,1.342-.613,9.331,9.331,0,0,0,1.2-.9c.368-.32.84-.753,1.424-1.3a1.522,1.522,0,0,1,1.021-.31,1.706,1.706,0,0,1,1.167.4,1.408,1.408,0,0,1,.443,1.109,3.075,3.075,0,0,1-.5,1.475,5.8,5.8,0,0,1-1.5,1.617,8.386,8.386,0,0,1-2.509,1.29,10.786,10.786,0,0,1-3.478.512,9.3,9.3,0,0,1-6.99-2.567,9.543,9.543,0,0,1-2.491-6.955,11.691,11.691,0,0,1,.613-3.838,8.519,8.519,0,0,1,1.791-3.034,7.8,7.8,0,0,1,2.905-1.937,10.42,10.42,0,0,1,3.828-.677,9.049,9.049,0,0,1,4.69,1.155,7.583,7.583,0,0,1,2.936,2.987,7.877,7.877,0,0,1,.974,3.728,2.342,2.342,0,0,1-1.01,2.288A6.321,6.321,0,0,1,82.116,781.354Z" transform="translate(-34.216 -763.78)" fill="#fff"/>
  <path id="Path_4122" data-name="Path 4122" d="M87.27,782.944v3.9a3,3,0,0,1-.664,2.125,2.215,2.215,0,0,1-1.687.71,2.131,2.131,0,0,1-1.657-.717,3.067,3.067,0,0,1-.648-2.118V773.848q0-3.142,2.27-3.145a1.888,1.888,0,0,1,1.668.735,4.071,4.071,0,0,1,.566,2.177,8.042,8.042,0,0,1,1.716-2.177,3.555,3.555,0,0,1,2.351-.735,6.016,6.016,0,0,1,2.853.735,2.2,2.2,0,0,1,1.383,1.954,1.845,1.845,0,0,1-.589,1.413,1.813,1.813,0,0,1-1.273.554,5.89,5.89,0,0,1-1.236-.316,5.848,5.848,0,0,0-1.74-.314,2.557,2.557,0,0,0-1.674.536,3.5,3.5,0,0,0-1.011,1.6,11.272,11.272,0,0,0-.495,2.52c-.087.974-.135,2.158-.135,3.558" transform="translate(-29.567 -763.771)" fill="#fff"/>
  <path id="Path_4123" data-name="Path 4123" d="M96.5,781.854a8.006,8.006,0,0,0,.59,3.232,4.436,4.436,0,0,0,1.615,2,3.988,3.988,0,0,0,2.235.679,4.129,4.129,0,0,0,2.247-.643,4.381,4.381,0,0,0,1.622-1.961,7.981,7.981,0,0,0,.607-3.308,7.748,7.748,0,0,0-.607-3.2,4.788,4.788,0,0,0-1.639-2.053,3.912,3.912,0,0,0-2.264-.706,3.814,3.814,0,0,0-2.288.724A4.7,4.7,0,0,0,97.05,778.7a8.363,8.363,0,0,0-.554,3.15m9.173,6.849v-.46a11.649,11.649,0,0,1-1.856,1.75,6.968,6.968,0,0,1-1.983,1.027,7.424,7.424,0,0,1-2.334.349,6.869,6.869,0,0,1-3.1-.71,7.2,7.2,0,0,1-2.473-2.026,9.26,9.26,0,0,1-1.582-3.092A13.314,13.314,0,0,1,91.8,781.7a10.025,10.025,0,0,1,2.137-6.82,7.113,7.113,0,0,1,5.624-2.445,7.557,7.557,0,0,1,3.4.695,9.4,9.4,0,0,1,2.7,2.134v-6.889a3.5,3.5,0,0,1,.572-2.171,1.953,1.953,0,0,1,1.634-.736,2.029,2.029,0,0,1,1.633.677,3.017,3.017,0,0,1,.573,1.99V788.7a2.876,2.876,0,0,1-.613,2,2.085,2.085,0,0,1-1.593.664,2.04,2.04,0,0,1-1.581-.693A2.853,2.853,0,0,1,105.668,788.7Z" transform="translate(-26.598 -765.464)" fill="#fff"/>
  <path id="Path_4124" data-name="Path 4124" d="M111.3,778.694h8.46a5.634,5.634,0,0,0-1.29-3.576,3.87,3.87,0,0,0-2.945-1.185,3.748,3.748,0,0,0-2.866,1.2,5.982,5.982,0,0,0-1.359,3.559m9.132,2.661H111.3a6.238,6.238,0,0,0,.642,2.806,4.3,4.3,0,0,0,3.937,2.445,5.417,5.417,0,0,0,1.529-.2,4.762,4.762,0,0,0,1.342-.613,9.329,9.329,0,0,0,1.2-.9q.552-.48,1.424-1.3a1.522,1.522,0,0,1,1.021-.31,1.706,1.706,0,0,1,1.167.4,1.4,1.4,0,0,1,.443,1.109,3.076,3.076,0,0,1-.5,1.475,5.8,5.8,0,0,1-1.5,1.617,8.378,8.378,0,0,1-2.51,1.29,10.764,10.764,0,0,1-3.476.512,9.3,9.3,0,0,1-6.991-2.567,9.549,9.549,0,0,1-2.491-6.955,11.656,11.656,0,0,1,.613-3.838,8.519,8.519,0,0,1,1.791-3.034,7.805,7.805,0,0,1,2.905-1.937,10.43,10.43,0,0,1,3.828-.677,9.057,9.057,0,0,1,4.692,1.155,7.58,7.58,0,0,1,2.935,2.987,7.864,7.864,0,0,1,.975,3.728,2.342,2.342,0,0,1-1.01,2.288A6.329,6.329,0,0,1,120.428,781.354Z" transform="translate(-21.839 -763.78)" fill="#fff"/>
  <path id="Path_4125" data-name="Path 4125" d="M130.158,787.066,126.137,771.1V788.4a3.151,3.151,0,0,1-.642,2.153,2.341,2.341,0,0,1-3.366.007,3.11,3.11,0,0,1-.648-2.159V768.571a2.5,2.5,0,0,1,.852-2.218,4.116,4.116,0,0,1,2.3-.572h1.576a5.978,5.978,0,0,1,2.052.257,1.735,1.735,0,0,1,.953.921,14.5,14.5,0,0,1,.7,2.171l3.64,13.735,3.641-13.735a14.469,14.469,0,0,1,.7-2.171,1.721,1.721,0,0,1,.945-.921,6.036,6.036,0,0,1,2.06-.257h1.569a4.131,4.131,0,0,1,2.311.572,2.505,2.505,0,0,1,.852,2.218V788.4a3.151,3.151,0,0,1-.643,2.153,2.176,2.176,0,0,1-1.709.717,2.131,2.131,0,0,1-1.656-.717,3.118,3.118,0,0,1-.648-2.153V771.1l-4.019,15.963c-.262,1.033-.474,1.8-.642,2.282a3.148,3.148,0,0,1-.91,1.318,2.662,2.662,0,0,1-1.851.6A2.7,2.7,0,0,1,131.1,789.9a5.577,5.577,0,0,1-.537-1.326c-.135-.483-.269-.991-.4-1.511" transform="translate(-17.01 -765.361)" fill="#fff"/>
  <path id="Path_4126" data-name="Path 4126" d="M160.864,781.994a6.422,6.422,0,0,0,1.273,4.276,4.17,4.17,0,0,0,3.337,1.5,3.829,3.829,0,0,0,3.034-1.529,6.691,6.691,0,0,0,1.271-4.382,8.528,8.528,0,0,0-.529-3.174,4.619,4.619,0,0,0-1.5-2.06,3.706,3.706,0,0,0-2.276-.724,4.032,4.032,0,0,0-2.368.724,4.806,4.806,0,0,0-1.641,2.1,8.1,8.1,0,0,0-.6,3.273m-.222-13.863v7.129a10.8,10.8,0,0,1,2.684-2.1,7.153,7.153,0,0,1,3.384-.729,7.479,7.479,0,0,1,4.078,1.1,7.241,7.241,0,0,1,2.714,3.2,11.716,11.716,0,0,1,.97,4.966,13.443,13.443,0,0,1-.537,3.886,9.334,9.334,0,0,1-1.564,3.07,7.045,7.045,0,0,1-2.491,2.007,7.294,7.294,0,0,1-3.222.71,7.72,7.72,0,0,1-2.024-.257,5.85,5.85,0,0,1-1.617-.676,7.1,7.1,0,0,1-1.137-.862c-.31-.292-.725-.736-1.238-1.331v.46a2.815,2.815,0,0,1-.63,1.99,2.126,2.126,0,0,1-1.61.676,2,2,0,0,1-1.581-.676,2.961,2.961,0,0,1-.59-1.99V768.335a3.429,3.429,0,0,1,.574-2.147,1.919,1.919,0,0,1,1.6-.724,2.046,2.046,0,0,1,1.658.695A2.974,2.974,0,0,1,160.642,768.131Z" transform="translate(-5.783 -765.464)" fill="#fff"/>
  <path id="Path_4127" data-name="Path 4127" d="M174.053,770.174a2.456,2.456,0,0,1-1.663-.6,2.115,2.115,0,0,1-.689-1.692,2.09,2.09,0,0,1,.707-1.622,2.385,2.385,0,0,1,1.646-.642,2.439,2.439,0,0,1,1.6.577,2.07,2.07,0,0,1,.7,1.687,2.131,2.131,0,0,1-.683,1.68,2.368,2.368,0,0,1-1.622.607" transform="translate(-0.786 -765.413)" fill="#fff"/>
  <path id="Path_4128" data-name="Path 4128" d="M176.358,773.352v13.49a3.012,3.012,0,0,1-.665,2.118,2.2,2.2,0,0,1-1.687.717,2.1,2.1,0,0,1-1.663-.734,3.114,3.114,0,0,1-.642-2.1v-13.35a3.011,3.011,0,0,1,.642-2.089,2.15,2.15,0,0,1,1.663-.7,2.227,2.227,0,0,1,1.687.7,2.724,2.724,0,0,1,.665,1.949" transform="translate(-0.786 -763.771)" fill="#fff"/>
  <path id="Path_4129" data-name="Path 4129" d="M177.07,788.534V768.3a3.148,3.148,0,0,1,.624-2.118,2.1,2.1,0,0,1,1.68-.718,2.2,2.2,0,0,1,1.7.712,3.05,3.05,0,0,1,.648,2.125v20.234a3.034,3.034,0,0,1-.659,2.125,2.208,2.208,0,0,1-1.692.71,2.1,2.1,0,0,1-1.663-.734,3.1,3.1,0,0,1-.642-2.1" transform="translate(0.949 -765.464)" fill="#fff"/>
  <path id="Path_4130" data-name="Path 4130" d="M184.789,770.174a2.466,2.466,0,0,1-1.663-.6,2.115,2.115,0,0,1-.689-1.692,2.087,2.087,0,0,1,.708-1.622,2.38,2.38,0,0,1,1.645-.642,2.445,2.445,0,0,1,1.6.577,2.078,2.078,0,0,1,.7,1.687,2.131,2.131,0,0,1-.683,1.68,2.365,2.365,0,0,1-1.622.607" transform="translate(2.683 -765.413)" fill="#fff"/>
  <path id="Path_4131" data-name="Path 4131" d="M187.094,773.352v13.49a3.006,3.006,0,0,1-.665,2.118,2.2,2.2,0,0,1-1.687.717,2.1,2.1,0,0,1-1.662-.734,3.107,3.107,0,0,1-.643-2.1v-13.35a3,3,0,0,1,.643-2.089,2.147,2.147,0,0,1,1.662-.7,2.227,2.227,0,0,1,1.687.7,2.719,2.719,0,0,1,.665,1.949" transform="translate(2.683 -763.771)" fill="#fff"/>
  <path id="Path_4132" data-name="Path 4132" d="M189.185,772.671h.515v-2.806c0-.753.016-1.343.057-1.768a2.61,2.61,0,0,1,.333-1.1,2.079,2.079,0,0,1,.787-.782,2.218,2.218,0,0,1,1.144-.3,2.294,2.294,0,0,1,1.6.666,1.981,1.981,0,0,1,.606,1.091,9.671,9.671,0,0,1,.128,1.821v3.179h1.709a2.193,2.193,0,0,1,1.511.467,1.546,1.546,0,0,1,.525,1.2,1.353,1.353,0,0,1-.746,1.319,4.831,4.831,0,0,1-2.129.373h-.871v8.578a13.6,13.6,0,0,0,.077,1.686,1.717,1.717,0,0,0,.409.957,1.417,1.417,0,0,0,1.09.369,5.675,5.675,0,0,0,1.109-.147,6.036,6.036,0,0,1,1.09-.146,1.4,1.4,0,0,1,1.021.455,1.513,1.513,0,0,1,.45,1.121,1.863,1.863,0,0,1-1.225,1.72,8.261,8.261,0,0,1-3.543.6,6.069,6.069,0,0,1-3.306-.734,3.4,3.4,0,0,1-1.477-2.036,13.734,13.734,0,0,1-.349-3.465v-8.957h-.614a2.2,2.2,0,0,1-1.54-.479,1.549,1.549,0,0,1-.532-1.213,1.517,1.517,0,0,1,.554-1.2,2.474,2.474,0,0,1,1.617-.467" transform="translate(4.161 -765.319)" fill="#fff"/>
  <path id="Path_4133" data-name="Path 4133" d="M202.126,790.267l.431-1.044-5.741-14.465a5.4,5.4,0,0,1-.531-1.814,2.176,2.176,0,0,1,.308-1.115,2.29,2.29,0,0,1,.847-.816,2.21,2.21,0,0,1,1.114-.31,1.829,1.829,0,0,1,1.523.643,5.855,5.855,0,0,1,.9,1.838l3.949,11.487,3.742-10.683a17.92,17.92,0,0,1,.8-2.036,2.365,2.365,0,0,1,.758-.992,2.134,2.134,0,0,1,1.138-.257,2.019,2.019,0,0,1,1.015.28,2.044,2.044,0,0,1,1.015,1.774c-.046.216-.116.524-.222.922s-.226.8-.372,1.212l-6.086,15.935a19.006,19.006,0,0,1-1.535,3.3,5.037,5.037,0,0,1-1.994,1.838,7.338,7.338,0,0,1-3.339.642,8.058,8.058,0,0,1-3.074-.444,1.626,1.626,0,0,1-1.027-1.622,1.559,1.559,0,0,1,.49-1.237,2.09,2.09,0,0,1,1.441-.437,2.818,2.818,0,0,1,.736.1,3.5,3.5,0,0,0,.771.1,2.774,2.774,0,0,0,1.26-.239,2.2,2.2,0,0,0,.828-.828,12.665,12.665,0,0,0,.845-1.739" transform="translate(6.985 -763.771)" fill="#fff"/>
  <path id="Path_4134" data-name="Path 4134" d="M154.92,780.2a7.024,7.024,0,0,0-1.254-4.44,4.087,4.087,0,0,0-3.374-1.586,4.17,4.17,0,0,0-2.408.705,4.489,4.489,0,0,0-1.6,2.1,9.485,9.485,0,0,0-.012,6.423,4.617,4.617,0,0,0,1.588,2.094,4.124,4.124,0,0,0,2.437.724,4.065,4.065,0,0,0,3.374-1.6,7,7,0,0,0,1.254-4.418m4.692,0a11.035,11.035,0,0,1-.648,3.845,8.519,8.519,0,0,1-1.884,3.023A8.256,8.256,0,0,1,154.139,789a10.4,10.4,0,0,1-3.846.676,10.116,10.116,0,0,1-3.816-.681,8.427,8.427,0,0,1-4.812-4.966,11.065,11.065,0,0,1-.642-3.84,11.182,11.182,0,0,1,.647-3.881,8.529,8.529,0,0,1,1.867-3.01,8.271,8.271,0,0,1,2.94-1.92,11.132,11.132,0,0,1,7.662.005,8.286,8.286,0,0,1,4.831,4.966A11.1,11.1,0,0,1,159.612,780.2Z" transform="translate(-10.697 -763.771)" fill="#fff"/>
  <path id="Path_4135" data-name="Path 4135" d="M65.018,789.357a1.885,1.885,0,0,1,.351-1.306,1.679,1.679,0,0,1,1.238-.367h.558A1.862,1.862,0,0,1,68.4,788a1.381,1.381,0,0,1,.356,1.076v.212h-.544v-.133a1.016,1.016,0,0,0-.221-.757,1.332,1.332,0,0,0-.867-.2h-.368a2.637,2.637,0,0,0-.63.054.75.75,0,0,0-.328.182.67.67,0,0,0-.185.325,3.467,3.467,0,0,0-.052.736v1.389a3.447,3.447,0,0,0,.052.732.671.671,0,0,0,.185.325.73.73,0,0,0,.319.183,2.621,2.621,0,0,0,.639.054h.368a1.3,1.3,0,0,0,.879-.213,1.146,1.146,0,0,0,.218-.816c0-.062,0-.108,0-.14s0-.065,0-.093h.541v.322a1.5,1.5,0,0,1-.345,1.131,1.848,1.848,0,0,1-1.246.32h-.558a1.673,1.673,0,0,1-1.238-.369,1.885,1.885,0,0,1-.351-1.306Z" transform="translate(-35.251 -758.285)" fill="#fff"/>
  <path id="Path_4136" data-name="Path 4136" d="M71.081,792.611V787.73h.525v2.108h2.748V787.73h.525v4.881h-.525v-2.263H71.605v2.263Z" transform="translate(-33.293 -758.27)" fill="#fff"/>
  <path id="Path_4137" data-name="Path 4137" d="M77,792.611l1.762-4.881h.868l1.77,4.881H80.86l-.455-1.249H77.991l-.445,1.249Zm1.166-1.732h2.067l-.951-2.63h-.171Z" transform="translate(-31.379 -758.271)" fill="#fff"/>
  <path id="Path_4138" data-name="Path 4138" d="M83.376,792.611V787.73h2.153a1.832,1.832,0,0,1,1.106.245,1.057,1.057,0,0,1,.3.868v.738a1.039,1.039,0,0,1-.152.6.68.68,0,0,1-.463.272.744.744,0,0,1,.478.3,1.312,1.312,0,0,1,.138.683v1.172h-.552v-1.006a1.116,1.116,0,0,0-.161-.709.825.825,0,0,0-.632-.185H83.9v1.9Zm2.047-4.364H83.9V790.2h1.522a1.343,1.343,0,0,0,.779-.151.666.666,0,0,0,.184-.54v-.57a.682.682,0,0,0-.177-.545A1.374,1.374,0,0,0,85.423,788.247Z" transform="translate(-29.321 -758.271)" fill="#fff"/>
  <path id="Path_4139" data-name="Path 4139" d="M89.265,789.357a1.793,1.793,0,0,1,.378-1.3,1.907,1.907,0,0,1,1.339-.368h.606a2.209,2.209,0,0,1,1.3.306,1.108,1.108,0,0,1,.418.957v.208h-.545v-.06a.851.851,0,0,0-.25-.7,1.622,1.622,0,0,0-.954-.2h-.421a3.112,3.112,0,0,0-.7.057.9.9,0,0,0-.366.185.647.647,0,0,0-.193.324,3.221,3.221,0,0,0-.056.732v1.391a3.179,3.179,0,0,0,.056.726.648.648,0,0,0,.193.324.9.9,0,0,0,.359.186,3.121,3.121,0,0,0,.712.056h.421a2.96,2.96,0,0,0,.643-.049.83.83,0,0,0,.328-.167.626.626,0,0,0,.181-.3,2.925,2.925,0,0,0,.052-.663v-.3H91.436v-.5h1.87v.818a1.782,1.782,0,0,1-.38,1.306,1.9,1.9,0,0,1-1.338.368h-.606a1.907,1.907,0,0,1-1.339-.368,1.788,1.788,0,0,1-.378-1.306Z" transform="translate(-27.418 -758.285)" fill="#fff"/>
  <rect id="Rectangle_2266" data-name="Rectangle 2266" width="0.531" height="4.881" transform="translate(70.233 29.46)" fill="#fff"/>
  <path id="Path_4140" data-name="Path 4140" d="M99.439,792.611V787.73h.813l2.584,4.356V787.73h.525v4.881h-.814l-2.584-4.363v4.363Z" transform="translate(-24.131 -758.27)" fill="#fff"/>
  <path id="Path_4141" data-name="Path 4141" d="M105.7,789.357a1.8,1.8,0,0,1,.378-1.3,1.911,1.911,0,0,1,1.34-.368h.6a2.211,2.211,0,0,1,1.3.306,1.111,1.111,0,0,1,.417.957v.208H109.2v-.06a.851.851,0,0,0-.25-.7,1.627,1.627,0,0,0-.955-.2h-.419a3.126,3.126,0,0,0-.705.057.9.9,0,0,0-.365.185.659.659,0,0,0-.194.324,3.222,3.222,0,0,0-.056.732v1.391a3.18,3.18,0,0,0,.056.726.659.659,0,0,0,.194.324.9.9,0,0,0,.359.186,3.121,3.121,0,0,0,.712.056h.419a2.975,2.975,0,0,0,.644-.049.824.824,0,0,0,.327-.167.628.628,0,0,0,.183-.3,2.925,2.925,0,0,0,.052-.663v-.3h-1.323v-.5h1.867v.818a1.782,1.782,0,0,1-.378,1.306,1.907,1.907,0,0,1-1.339.368h-.6a1.91,1.91,0,0,1-1.34-.368,1.794,1.794,0,0,1-.378-1.306Z" transform="translate(-22.108 -758.285)" fill="#fff"/>
  <rect id="Rectangle_2267" data-name="Rectangle 2267" width="0.531" height="4.881" transform="translate(96.414 29.46)" fill="#fff"/>
  <path id="Path_4142" data-name="Path 4142" d="M119.226,792.611V787.73h.813l2.585,4.356V787.73h.524v4.881h-.813l-2.585-4.363v4.363Z" transform="translate(-17.738 -758.27)" fill="#fff"/>
  <path id="Path_4143" data-name="Path 4143" d="M125.138,788.247v-.517h3.568v.517h-1.521v4.364h-.532v-4.364Z" transform="translate(-15.829 -758.27)" fill="#fff"/>
  <path id="Path_4144" data-name="Path 4144" d="M130.664,789.359a1.8,1.8,0,0,1,.378-1.306,1.913,1.913,0,0,1,1.342-.368h.6a1.926,1.926,0,0,1,1.346.362,1.814,1.814,0,0,1,.373,1.311v1.652a1.79,1.79,0,0,1-.38,1.307,1.913,1.913,0,0,1-1.339.368h-.6a1.912,1.912,0,0,1-1.342-.368,1.79,1.79,0,0,1-.378-1.307Zm2.165-1.164h-.3a3.108,3.108,0,0,0-.71.057.9.9,0,0,0-.359.185.679.679,0,0,0-.2.336,3.136,3.136,0,0,0-.058.726v1.383a3.055,3.055,0,0,0,.058.718.671.671,0,0,0,.2.334.9.9,0,0,0,.359.186,3.116,3.116,0,0,0,.71.056h.3a3.173,3.173,0,0,0,.714-.056.9.9,0,0,0,.361-.186.652.652,0,0,0,.193-.326,3.1,3.1,0,0,0,.056-.726v-1.389a3.135,3.135,0,0,0-.057-.725.663.663,0,0,0-.2-.336.877.877,0,0,0-.355-.182A3.236,3.236,0,0,0,132.829,788.194Z" transform="translate(-14.043 -758.285)" fill="#fff"/>
  <path id="Path_4145" data-name="Path 4145" d="M139.893,788.247v-.517h3.568v.517h-1.522v4.364h-.531v-4.364Z" transform="translate(-11.062 -758.27)" fill="#fff"/>
  <path id="Path_4146" data-name="Path 4146" d="M145.534,792.611V787.73h.523v2.108h2.749V787.73h.524v4.881h-.524v-2.263h-2.749v2.263Z" transform="translate(-9.239 -758.27)" fill="#fff"/>
  <path id="Path_4147" data-name="Path 4147" d="M151.837,792.611V787.73h3.345v.517h-2.821v1.6H155.1v.5h-2.741V792.1h2.821v.511Z" transform="translate(-7.203 -758.27)" fill="#fff"/>
  <path id="Path_4148" data-name="Path 4148" d="M160.918,792.611V787.73H163.9v.517h-2.454v1.6h2.379v.5h-2.379v2.269Z" transform="translate(-4.269 -758.27)" fill="#fff"/>
  <path id="Path_4149" data-name="Path 4149" d="M166.382,787.73h.533v3.2a2.967,2.967,0,0,0,.049.659.624.624,0,0,0,.171.3.731.731,0,0,0,.307.167,2.72,2.72,0,0,0,.613.046h.5a2.765,2.765,0,0,0,.619-.046.736.736,0,0,0,.308-.167.607.607,0,0,0,.165-.3,3.08,3.08,0,0,0,.049-.661v-3.2h.531V791a1.843,1.843,0,0,1-.361,1.3,1.74,1.74,0,0,1-1.271.371h-.578a1.74,1.74,0,0,1-1.271-.371,1.837,1.837,0,0,1-.363-1.3Z" transform="translate(-2.504 -758.271)" fill="#fff"/>
  <path id="Path_4150" data-name="Path 4150" d="M172.2,788.247v-.517h3.569v.517h-1.522v4.364h-.531v-4.364Z" transform="translate(-0.626 -758.27)" fill="#fff"/>
  <path id="Path_4151" data-name="Path 4151" d="M177.8,787.73h.532v3.2a3.075,3.075,0,0,0,.048.659.648.648,0,0,0,.172.3.73.73,0,0,0,.307.167,2.72,2.72,0,0,0,.613.046h.5a2.76,2.76,0,0,0,.618-.046.735.735,0,0,0,.308-.167.608.608,0,0,0,.167-.3,3.2,3.2,0,0,0,.048-.661v-3.2h.531V791a1.844,1.844,0,0,1-.36,1.3,1.741,1.741,0,0,1-1.273.371h-.578a1.742,1.742,0,0,1-1.271-.371,1.843,1.843,0,0,1-.361-1.3Z" transform="translate(1.185 -758.271)" fill="#fff"/>
  <path id="Path_4152" data-name="Path 4152" d="M184.107,792.611V787.73h2.151a1.834,1.834,0,0,1,1.107.245,1.061,1.061,0,0,1,.3.868v.738a1.029,1.029,0,0,1-.153.6.677.677,0,0,1-.462.272.747.747,0,0,1,.478.3,1.312,1.312,0,0,1,.138.683v1.172h-.552v-1.006a1.126,1.126,0,0,0-.16-.709.829.829,0,0,0-.634-.185h-1.692v1.9Zm2.045-4.364h-1.522V790.2h1.522a1.341,1.341,0,0,0,.779-.151.662.662,0,0,0,.185-.54v-.57a.682.682,0,0,0-.177-.545A1.38,1.38,0,0,0,186.152,788.247Z" transform="translate(3.222 -758.271)" fill="#fff"/>
  <path id="Path_4153" data-name="Path 4153" d="M190.134,792.611V787.73h3.345v.517h-2.821v1.6H193.4v.5h-2.741V792.1h2.821v.511Z" transform="translate(5.17 -758.27)" fill="#fff"/>
  <path id="Path_4154" data-name="Path 4154" d="M83.405,768.712c-9.709,3.9-12.422,18.321-17.205,27.7-1.544,3.025-3.04,4.432-5.611,4.432a5.077,5.077,0,0,1-4.041-2.175L43.757,777.429c-6.652-11.047,15.084-13.483,27.917-10.807-3.8,1.65-6.64,4.567-10.492,15.525a1.722,1.722,0,0,1-1.543,1.145,1.746,1.746,0,0,1-1.683-.923l-3.71-6.8a11.663,11.663,0,0,0-1.343-2.127,1.832,1.832,0,0,0-1.739-.421,2.259,2.259,0,0,0-1.088.484,2.333,2.333,0,0,0-.691.914,1.877,1.877,0,0,0-.143,1.016,3.043,3.043,0,0,0,.232.732,7.384,7.384,0,0,0,.415.807l.454.787,6.3,10.487c.623,1,1.064,1.678,1.312,2.011a3.085,3.085,0,0,0,1.047.869,2.623,2.623,0,0,0,1.686.209,2.82,2.82,0,0,0,1.285-.509,2.708,2.708,0,0,0,.791-.973c7-14.37,6.393-22.508,20.637-21.139" transform="translate(-42.52 -765.411)" fill="#fff" fill-rule="evenodd"/>
</svg>
