<svg xmlns="http://www.w3.org/2000/svg" width="159.507" height="38.459" viewBox="0 0 159.507 38.459">
  <g id="Layer_x0020_1" style="mix-blend-mode: normal;isolation: isolate">
    <g id="_251474080">
      <path id="Path_2020" data-name="Path 2020" d="M4.668,31.9c2.89-1.667,12.672-9.559,17.674-16.451C20.786,13.672,13.227,8.337,9,8.781c2.668-1,5.891-.556,8.67.222,3.112.889,4.446,2.445,6.669,3.557,3.446-4.446,3.112-7.67-2-9.337,23.9-1.778-9.226,24.9-16.562,29.567a.109.109,0,0,0-.111.111ZM19.23,38.459A19.23,19.23,0,1,0,0,19.23,19.165,19.165,0,0,0,19.23,38.459Z" fill="#fff" fill-rule="evenodd"/>
      <path id="Path_2021" data-name="Path 2021" d="M389.78,44.676h5.78V34.117l5.891-13.339h-5.558l-3,7.559-3.112-7.559H384l5.78,13.339Zm15.006-9H407.9L406.342,25Zm-7,9,5.558-23.9H409.9l5.335,23.9h-5.891l-.778-4.668h-4.224l-.778,4.668Zm18.674,0v-23.9h5.78v19.23h6.78v4.668Zm25.01-2c-.111.778-.667,1.334-1.778,1.89a8.7,8.7,0,0,1-3.446.778H435.8a6.773,6.773,0,0,1-3.779-1.667c-1.112-1-1.667-2.668-1.667-5.224V26.78a6.729,6.729,0,0,1,1.779-5c1.223-1.223,3.112-1.778,5.78-1.778a8.3,8.3,0,0,1,5.558,1.667,6.379,6.379,0,0,1,2,5.113v2.112h-5.78V25.78a1.167,1.167,0,0,0-.556-1,2.24,2.24,0,0,0-1.223-.333H437.8a2.383,2.383,0,0,0-1.334.445A1.353,1.353,0,0,0,435.8,26V39.007a1.792,1.792,0,0,0,.667,1.445,2.535,2.535,0,0,0,1.334.667h.333a2.65,2.65,0,0,0,1.223-.667,1.592,1.592,0,0,0,.556-1.223V36.117h-2V31.894h7.559V44.676h-3.779Zm13.005-7h3L456.028,25Zm-7,9,5.447-23.9h6.558l5.447,23.9h-5.891l-.778-4.668h-4.335l-.667,4.668Zm25.343-9h3L474.369,25Zm-7,9,5.447-23.9h6.669l5.335,23.9H477.37l-.778-4.668h-4.335l-.667,4.668Zm24.009-13.561h1.334a2.152,2.152,0,0,0,1.445-.667,3.137,3.137,0,0,0,.778-2.223v-.667c-.334-1.445-.667-2.223-1.334-2.445a6.244,6.244,0,0,0-2.223-.333Zm-5.78,13.561v-23.9h8.337a7.218,7.218,0,0,1,4.78,1.445c1.223.889,1.89,2.445,2,4.557a9.211,9.211,0,0,1-.667,3.779,4.583,4.583,0,0,1-2.445,2.334,3.855,3.855,0,0,1,2.112,1.112,2.29,2.29,0,0,1,.778,1.89l.222,5.78a3.062,3.062,0,0,0,.333,1.778c.222.333.445.556.667.556v.667h-5.113a2.292,2.292,0,0,1-1.445-.333,4.406,4.406,0,0,1-.222-1.667v-5a2.3,2.3,0,0,0-.556-1.667,1.82,1.82,0,0,0-1.667-.667h-1.334v9.337Z" transform="translate(-341.317 -17.777)" fill="#fff" fill-rule="evenodd"/>
      <path id="Path_2022" data-name="Path 2022" d="M430,280.447,431.779,274h.889l1.778,6.447h-.778l-.445-1.89h-2l-.445,1.89Zm1.334-2.557H433l-.778-3.335Z" transform="translate(-382.204 -243.544)" fill="#fff" fill-rule="evenodd"/>
      <path id="Path_2023" data-name="Path 2023" d="M495,280.447V274h1.779a2.475,2.475,0,0,1,1.445.445,1.385,1.385,0,0,1,.445,1.223,2.22,2.22,0,0,1-.222,1,1.528,1.528,0,0,1-.889.556,1.009,1.009,0,0,1,.778.333,7.654,7.654,0,0,1,.333.889v.667a1.93,1.93,0,0,0,.333,1.334h-.889a2.787,2.787,0,0,1-.111-1.112,1.411,1.411,0,0,1-.111-.667,1.094,1.094,0,0,0-.334-.889,2.218,2.218,0,0,0-1-.222h-.889v2.89Zm.667-3.446h.889a1.878,1.878,0,0,0,1.112-.333,1.094,1.094,0,0,0,.333-.889,1.262,1.262,0,0,0-.333-.889,2.22,2.22,0,0,0-1-.222h-1Z" transform="translate(-439.978 -243.544)" fill="#fff" fill-rule="evenodd"/>
      <path id="Path_2024" data-name="Path 2024" d="M538.334,291.224H539a3.754,3.754,0,0,1-.445,1.334,1.482,1.482,0,0,1-1.112.445,1.223,1.223,0,0,1-1.112-.667,3.594,3.594,0,0,1-.333-1.778,4.644,4.644,0,0,1,.333-2c.222-.445.667-.556,1.223-.556a1.083,1.083,0,0,1,1,.445,2.485,2.485,0,0,1,.445,1.667v.333h-2.334v.222a3.192,3.192,0,0,0,.222,1.334.751.751,0,0,0,.667.445.611.611,0,0,0,.556-.333,1.721,1.721,0,0,0,.222-.889ZM536.667,290h1.667v-.222a2.093,2.093,0,0,0-.222-.889.611.611,0,0,0-.556-.333.672.672,0,0,0-.667.333A2.391,2.391,0,0,0,536.667,290Z" transform="translate(-476.421 -255.987)" fill="#fff" fill-rule="evenodd"/>
      <path id="Path_2025" data-name="Path 2025" d="M572.224,292.891h-.333a.786.786,0,0,1-.667-.667,1.11,1.11,0,0,1-.445.556.939.939,0,0,1-.667.222.839.839,0,0,1-.778-.445,1.262,1.262,0,0,1-.333-.889,1.358,1.358,0,0,1,.333-1c.111-.222.556-.333,1.112-.556h0c.556-.222.778-.333.778-.556v-.445a.578.578,0,0,0-.222-.445c-.111-.111-.222-.111-.556-.111-.222,0-.333,0-.445.111a.849.849,0,0,0-.222.556v.111h-.556A1.179,1.179,0,0,1,570.556,288a2.22,2.22,0,0,1,1,.222,1.359,1.359,0,0,1,.333,1v3c.111.111.111.111.222.111h.111Zm-1-2.557a1.811,1.811,0,0,1-.667.333h-.111c-.333.111-.556.222-.556.333a.939.939,0,0,0-.222.667c0,.222.111.333.222.556.111.111.222.111.445.111a1.581,1.581,0,0,0,.667-.222,2.1,2.1,0,0,0,.222-.889Z" transform="translate(-505.753 -255.987)" fill="#fff" fill-rule="evenodd"/>
      <path id="Path_2026" data-name="Path 2026" d="M604,274h.667v6.447H604Z" transform="translate(-536.863 -243.544)" fill="#fff" fill-rule="evenodd"/>
      <path id="Path_2027" data-name="Path 2027" d="M618,307h2v.778h-2Z" transform="translate(-549.307 -272.876)" fill="#fff" fill-rule="evenodd"/>
      <path id="Path_2028" data-name="Path 2028" d="M640.334,282.113a1.119,1.119,0,0,0,.111.333c.111.111.222.111.556.111h.111v.556h-.445a1.648,1.648,0,0,1-.778-.111.849.849,0,0,1-.222-.556V278.89H639v-.556h.667V277h.667v1.334h.778v.556h-.778Z" transform="translate(-567.972 -246.21)" fill="#fff" fill-rule="evenodd"/>
      <path id="Path_2029" data-name="Path 2029" d="M663,275.667h.667v4.78H663ZM663,274h.667v.889H663Z" transform="translate(-589.305 -243.544)" fill="#fff" fill-rule="evenodd"/>
      <path id="Path_2030" data-name="Path 2030" d="M678,292.891v-4.78h.667v.556a1.11,1.11,0,0,1,.445-.556,1.647,1.647,0,0,1,.778-.111,1.409,1.409,0,0,1,.667.111c.111.222.333.333.333.556a1.34,1.34,0,0,1,.556-.556,1.409,1.409,0,0,1,.667-.111,1.094,1.094,0,0,1,.889.333.865.865,0,0,1,.334.778v3.779h-.667v-3.335a1.3,1.3,0,0,0-.222-.778c0-.111-.222-.222-.445-.222a1.179,1.179,0,0,0-1,1v3.335h-.667v-3.335c0-.333,0-.667-.111-.778a.849.849,0,0,0-.556-.222,1.009,1.009,0,0,0-.778.333.939.939,0,0,0-.222.667v3.335Z" transform="translate(-602.637 -255.987)" fill="#fff" fill-rule="evenodd"/>
      <path id="Path_2031" data-name="Path 2031" d="M736.223,291.224h.667a2.37,2.37,0,0,1-.333,1.334,1.975,1.975,0,0,1-1.112.445,1.116,1.116,0,0,1-1.111-.667,3.593,3.593,0,0,1-.333-1.778,4.643,4.643,0,0,1,.333-2,1.129,1.129,0,0,1,1.111-.556,1.171,1.171,0,0,1,1.112.445,3.4,3.4,0,0,1,.333,1.667v.333h-2.223v.222c0,.667,0,1.111.222,1.334a.751.751,0,0,0,.667.445c.222,0,.333-.111.556-.333a1.91,1.91,0,0,0,.111-.889ZM734.667,290h1.556v-.222a2.166,2.166,0,0,0-.111-.889.792.792,0,0,0-.667-.333.611.611,0,0,0-.556.333C734.667,289.112,734.667,289.445,734.667,290Z" transform="translate(-652.413 -255.987)" fill="#fff" fill-rule="evenodd"/>
      <path id="Path_2032" data-name="Path 2032" d="M792.335,280.447v-6l-1.556,6h-.667l-1.445-6v6H788V274h1.112l1.334,5.447L791.891,274H793v6.447Z" transform="translate(-700.41 -243.544)" fill="#fff" fill-rule="evenodd"/>
      <path id="Path_2033" data-name="Path 2033" d="M844.334,291.224H845a3.752,3.752,0,0,1-.445,1.334,1.482,1.482,0,0,1-1.112.445,1.223,1.223,0,0,1-1.112-.667,3.593,3.593,0,0,1-.333-1.778,4.643,4.643,0,0,1,.333-2c.222-.445.667-.556,1.223-.556a1.084,1.084,0,0,1,1,.445,2.485,2.485,0,0,1,.445,1.667v.333h-2.334v.222a3.193,3.193,0,0,0,.222,1.334.751.751,0,0,0,.667.445.611.611,0,0,0,.556-.333,1.722,1.722,0,0,0,.222-.889ZM842.667,290h1.667v-.222a2.094,2.094,0,0,0-.222-.889.611.611,0,0,0-.556-.333.672.672,0,0,0-.667.333A2.391,2.391,0,0,0,842.667,290Z" transform="translate(-748.408 -255.987)" fill="#fff" fill-rule="evenodd"/>
      <path id="Path_2034" data-name="Path 2034" d="M875,291.446h.667v.111a.849.849,0,0,0,.222.556c.222.222.333.222.667.222.222,0,.445,0,.556-.222.222-.111.222-.222.222-.556s-.222-.667-.778-.778h0a2.947,2.947,0,0,1-1.223-.667,1.607,1.607,0,0,1-.222-.778,1.359,1.359,0,0,1,.333-1,1.878,1.878,0,0,1,1.112-.333,1.179,1.179,0,0,1,1.334,1.334h-.667a1.409,1.409,0,0,0-.111-.667,1.446,1.446,0,0,0-1.112,0c-.222.111-.222.333-.222.556v.333l.222.222a1.811,1.811,0,0,0,.667.333c.222,0,.333.111.445.111a1.711,1.711,0,0,1,.667.445.938.938,0,0,1,.222.778,1.475,1.475,0,0,1-.333,1.112,1.518,1.518,0,0,1-1.223.445,1.084,1.084,0,0,1-1-.445,1.409,1.409,0,0,1-.445-1Z" transform="translate(-777.74 -255.987)" fill="#fff" fill-rule="evenodd"/>
      <path id="Path_2035" data-name="Path 2035" d="M909,291.446h.667v.111a.849.849,0,0,0,.222.556c.111.222.333.222.667.222.222,0,.445,0,.556-.222a.653.653,0,0,0,.222-.556c0-.333-.222-.667-.889-.778h0a3.209,3.209,0,0,1-1.112-.667,1.607,1.607,0,0,1-.222-.778A1.179,1.179,0,0,1,910.445,288a1.66,1.66,0,0,1,1.112.333,1.359,1.359,0,0,1,.333,1h-.667a1.579,1.579,0,0,0-.222-.667c-.111-.111-.222-.111-.445-.111-.333,0-.556,0-.667.111a.833.833,0,0,0-.111.556v.333c0,.111.111.111.111.222a2.657,2.657,0,0,0,.778.333c.222,0,.333.111.445.111a1.71,1.71,0,0,1,.667.445,1.606,1.606,0,0,1,.222.778,1.171,1.171,0,0,1-.445,1.112,1.612,1.612,0,0,1-2.223,0,1.359,1.359,0,0,1-.333-1Z" transform="translate(-807.961 -255.987)" fill="#fff" fill-rule="evenodd"/>
      <path id="Path_2036" data-name="Path 2036" d="M946.224,292.891h-.444a.842.842,0,0,1-.445-.222c-.111-.111-.111-.222-.111-.445a2.42,2.42,0,0,1-.445.556,1.579,1.579,0,0,1-.667.222.9.9,0,0,1-.889-.445,2.092,2.092,0,0,1-.222-.889,2.217,2.217,0,0,1,.222-1,3.137,3.137,0,0,1,1.223-.556h0c.445-.222.667-.333.667-.556v-.445c0-.222,0-.333-.111-.445a.685.685,0,0,0-1.223.556v.111h-.667a1.359,1.359,0,0,1,.333-1,1.476,1.476,0,0,1,1.112-.333,1.436,1.436,0,0,1,.889.222,1.358,1.358,0,0,1,.334,1V292c0,.111,0,.222.111.222,0,.111.111.111.222.111h.111Zm-1.111-2.557a1.813,1.813,0,0,1-.667.333h-.111a2.431,2.431,0,0,0-.556.333c-.111.111-.111.333-.111.667a1,1,0,0,0,.111.556c.111.111.222.111.445.111a.94.94,0,0,0,.667-.222,1.2,1.2,0,0,0,.222-.889Z" transform="translate(-838.181 -255.987)" fill="#fff" fill-rule="evenodd"/>
      <path id="Path_2037" data-name="Path 2037" d="M977.111,293.224l.667.111c0,.111.111.333.222.333a.85.85,0,0,0,.556.222.672.672,0,0,0,.667-.333c.222-.222.222-.556.222-1v-.333a1.11,1.11,0,0,1-.445.556.833.833,0,0,1-.556.111,1.116,1.116,0,0,1-1.112-.667,3.8,3.8,0,0,1-.333-1.89,3.9,3.9,0,0,1,.333-1.778,1.368,1.368,0,0,1,1.112-.556,1.409,1.409,0,0,1,.667.111.946.946,0,0,1,.333.556v-.556h.667v4.557a1.772,1.772,0,0,1-.445,1.334,1.385,1.385,0,0,1-1.223.445,1.793,1.793,0,0,1-1-.333,1.009,1.009,0,0,1-.333-.778Zm.556-2.779a3.861,3.861,0,0,0,.222,1.445.723.723,0,0,0,1.334,0,4.805,4.805,0,0,0,0-2.89.723.723,0,0,0-1.334,0A4.353,4.353,0,0,0,977.667,290.445Z" transform="translate(-868.402 -255.987)" fill="#fff" fill-rule="evenodd"/>
      <path id="Path_2038" data-name="Path 2038" d="M1014,275.667h.667v4.78H1014Zm0-1.667h.667v.889H1014Z" transform="translate(-901.289 -243.544)" fill="#fff" fill-rule="evenodd"/>
      <path id="Path_2039" data-name="Path 2039" d="M1029,292.891v-4.78h.667v.556a.868.868,0,0,1,.445-.445.817.817,0,0,1,.667-.222c.445,0,.778.111.889.333a1.475,1.475,0,0,1,.334,1.112v3.446h-.667v-3.557a.849.849,0,0,0-.222-.556.578.578,0,0,0-.445-.222,1.009,1.009,0,0,0-.778.333,1.3,1.3,0,0,0-.222.778v3.224Z" transform="translate(-914.622 -255.987)" fill="#fff" fill-rule="evenodd"/>
      <path id="Path_2040" data-name="Path 2040" d="M1064.111,293.224l.667.111c0,.111.111.333.222.333a.849.849,0,0,0,.556.222.672.672,0,0,0,.667-.333,2.221,2.221,0,0,0,.222-1v-.333a1.111,1.111,0,0,1-.445.556.833.833,0,0,1-.556.111,1.116,1.116,0,0,1-1.111-.667,3.8,3.8,0,0,1-.334-1.89,3.9,3.9,0,0,1,.334-1.778,1.367,1.367,0,0,1,1.111-.556,1.409,1.409,0,0,1,.667.111,2.44,2.44,0,0,1,.333.556v-.556h.667v4.557a1.772,1.772,0,0,1-.445,1.334,1.385,1.385,0,0,1-1.223.445,1.794,1.794,0,0,1-1-.333,1.009,1.009,0,0,1-.333-.778Zm.556-2.779a3.858,3.858,0,0,0,.222,1.445.722.722,0,0,0,1.334,0,4.805,4.805,0,0,0,0-2.89.722.722,0,0,0-1.334,0A4.35,4.35,0,0,0,1064.667,290.445Z" transform="translate(-945.732 -255.987)" fill="#fff" fill-rule="evenodd"/>
      <path id="Path_2041" data-name="Path 2041" d="M1120,280.447V274h3v.667h-2.223v2.112h2v.556h-2v3.112Z" transform="translate(-995.507 -243.544)" fill="#fff" fill-rule="evenodd"/>
      <path id="Path_2042" data-name="Path 2042" d="M1151,292.891v-4.78h.667v.778a1.021,1.021,0,0,1,.445-.667.94.94,0,0,1,.667-.222H1153v.667h-.222A.865.865,0,0,0,1152,289a1.262,1.262,0,0,0-.334.889v3Z" transform="translate(-1023.061 -255.987)" fill="#fff" fill-rule="evenodd"/>
      <path id="Path_2043" data-name="Path 2043" d="M1175.224,292.891h-.334a.786.786,0,0,1-.667-.667,1.11,1.11,0,0,1-.445.556,1.579,1.579,0,0,1-.667.222.744.744,0,0,1-.778-.445,1.262,1.262,0,0,1-.334-.889,2.22,2.22,0,0,1,.222-1,4.256,4.256,0,0,1,1.223-.556h0c.444-.222.667-.333.667-.556v-.445c0-.222,0-.333-.111-.445a.685.685,0,0,0-1.223.556v.111h-.667a1.359,1.359,0,0,1,.333-1,1.66,1.66,0,0,1,1.112-.333,2.222,2.222,0,0,1,1,.222,1.359,1.359,0,0,1,.333,1v3c.111.111.111.111.222.111h.111Zm-1-2.557a1.716,1.716,0,0,1-.778.333h0a1.811,1.811,0,0,0-.667.333,3.94,3.94,0,0,0-.111.667c0,.222.111.333.111.556a.669.669,0,0,0,.445.111.94.94,0,0,0,.667-.222,1.262,1.262,0,0,0,.334-.889Z" transform="translate(-1041.727 -255.987)" fill="#fff" fill-rule="evenodd"/>
      <path id="Path_2044" data-name="Path 2044" d="M1207,292.891v-4.78h.667v.556a1.11,1.11,0,0,1,.445-.556,1.647,1.647,0,0,1,.778-.111,1.409,1.409,0,0,1,.667.111c.111.222.333.333.333.556a1.341,1.341,0,0,1,.556-.556,1.409,1.409,0,0,1,.667-.111,1.094,1.094,0,0,1,.889.333.866.866,0,0,1,.334.778v3.779h-.667v-3.335a1.294,1.294,0,0,0-.223-.778c0-.111-.222-.222-.444-.222a1.179,1.179,0,0,0-1,1v3.335h-.667v-3.335a6.27,6.27,0,0,0-.111-.778.849.849,0,0,0-.556-.222,1.009,1.009,0,0,0-.778.333.939.939,0,0,0-.222.667v3.335Z" transform="translate(-1072.836 -255.987)" fill="#fff" fill-rule="evenodd"/>
      <path id="Path_2045" data-name="Path 2045" d="M1265.223,291.224h.667a2.37,2.37,0,0,1-.334,1.334,1.976,1.976,0,0,1-1.112.445,1.116,1.116,0,0,1-1.111-.667,3.6,3.6,0,0,1-.333-1.778,4.646,4.646,0,0,1,.333-2,1.129,1.129,0,0,1,1.111-.556,1.171,1.171,0,0,1,1.112.445,3.4,3.4,0,0,1,.334,1.667v.333h-2.223v.222c0,.667,0,1.111.222,1.334a.751.751,0,0,0,.667.445c.222,0,.333-.111.445-.333.222-.222.222-.445.222-.889ZM1263.667,290h1.556v-.222a2.17,2.17,0,0,0-.111-.889.792.792,0,0,0-.667-.333.611.611,0,0,0-.556.333C1263.667,289.112,1263.667,289.445,1263.667,290Z" transform="translate(-1122.612 -255.987)" fill="#fff" fill-rule="evenodd"/>
      <path id="Path_2046" data-name="Path 2046" d="M1295.223,293.78,1294,289h.667l.889,3.779.778-3.779H1297l.778,3.779.889-3.779h.667l-1.223,4.78h-.667l-.778-3.779-.778,3.779Z" transform="translate(-1150.166 -256.876)" fill="#fff" fill-rule="evenodd"/>
      <path id="Path_2047" data-name="Path 2047" d="M1347.667,290.445a4.6,4.6,0,0,0,.222,1.556.8.8,0,0,0,.778.445.75.75,0,0,0,.667-.445,5.15,5.15,0,0,0,.222-1.556,3.861,3.861,0,0,0-.222-1.445.609.609,0,0,0-.667-.445c-.444,0-.667.111-.778.445A3.862,3.862,0,0,0,1347.667,290.445Zm-.667,0a4.427,4.427,0,0,1,.334-1.89,1.387,1.387,0,0,1,1.334-.556,1.3,1.3,0,0,1,1.223.556,3.922,3.922,0,0,1,.445,1.89,3.592,3.592,0,0,1-.445,1.89,1.277,1.277,0,0,1-1.223.667,1.455,1.455,0,0,1-1.334-.667A3.8,3.8,0,0,1,1347,290.445Z" transform="translate(-1197.275 -255.987)" fill="#fff" fill-rule="evenodd"/>
      <path id="Path_2048" data-name="Path 2048" d="M1384,292.891v-4.78h.667v.778a1.021,1.021,0,0,1,.445-.667,1.58,1.58,0,0,1,.667-.222H1386v.667h-.222A1.009,1.009,0,0,0,1385,289a1.262,1.262,0,0,0-.334.889v3Z" transform="translate(-1230.162 -255.987)" fill="#fff" fill-rule="evenodd"/>
      <path id="Path_2049" data-name="Path 2049" d="M1407,280.447V274h.556v3.779l1.667-2.112H1410l-1.445,1.778,1.556,3h-.778l-1.223-2.334-.556.556v1.778Z" transform="translate(-1250.606 -243.544)" fill="#fff" fill-rule="evenodd"/>
    </g>
  </g>
</svg>
