<svg xmlns="http://www.w3.org/2000/svg" width="379.431" height="373.748" viewBox="0 0 379.431 373.748">
  <g id="Group_7019" data-name="Group 7019" transform="translate(-1156.521 -442.658)" opacity="0.5">
    <path id="Path_9955" data-name="Path 9955" d="M1200.2,620.806c-.949-1.877-2.115-1.78-3.884-1.241-4,1.23-7.951,2.719-12.374,2.222a35.823,35.823,0,0,0-5.178-.129,9.934,9.934,0,0,1-7.552-3.1c-3.97-3.884-7.983-7.724-11.856-11.716a26.281,26.281,0,0,1-2.514-3.765c-.734-1.1-.119-2.168.874-2.934a45.127,45.127,0,0,1,10.141-5.578c3.539-1.478,6.894-3.441,10.659-4.4a7.142,7.142,0,0,1,3.711-.119c4.6,1.327,9.267,2.524,13.323,5.211a30.645,30.645,0,0,1,4.617,3.485c1.349,1.338,2.449,1.381,3.862.022-3.312-3.452-5.826-7.563-8.943-11.2-.874-1.025-1.327-2.05-.41-3.183.949-1.165,2.082-.734,3.2-.129a37.569,37.569,0,0,0,10.81,3.722,9.6,9.6,0,0,0,4.25-.453c1.845-.539,2.514-1.823,2.039-3.776-.453-1.866-1.165-3.668-1.78-5.491-.723-2.136.518-4.164,2.8-4.1,2.934.086,5.858-.151,8.782-.162a59,59,0,0,0,6.462-.3c1.305-.14,1.759-1.521,2.988-1.856,1.435-.388.885-1.748,1.144-2.783.928-3.7-1.9-5.955-3.15-8.782-1.176-2.665-2.827-5.124-4.11-7.746a2.744,2.744,0,0,1,2.147-4.067c1.888-.378,3.8-.68,5.653-1.165a3.041,3.041,0,0,0,2.212-4.488,14.474,14.474,0,0,0-4.887-6.462c-2.071-1.446-3.657-3.539-6.02-4.671a1.864,1.864,0,0,1-.777-2.481,1.785,1.785,0,0,1,2.147-1.133c4.283.744,8.674.766,12.924,1.823,1.866.464,2.384.011,2.168-1.575a1,1,0,0,0-.949-.96,26.546,26.546,0,0,1-5.48-2.3c-4.865-2.19-8.706-5.793-12.32-9.612-1.931-2.039-2.028-4.768-2.341-7.325-.583-4.887-.993-9.785-1.359-14.694-.108-1.51.539-2.988.561-4.553a1.959,1.959,0,0,1,2.319-1.748,51.162,51.162,0,0,1,7.573,1.165c4.143,1.057,8.2,2.449,12.32,3.571a10.4,10.4,0,0,1,6.505,4.661c2.136,3.431,4.563,6.7,5.7,10.648q.906,3.123,1.629,6.3c.464,2.028.41,2.039,2.783,2.46,0-.647.032-1.262-.011-1.877-.27-4.272.572-8.5.388-12.773a2.155,2.155,0,0,1,1.791-2.5c1.456-.237,2.125.874,2.546,2.05a33.379,33.379,0,0,0,5.47,9.235,8.065,8.065,0,0,0,4.585,3.042,2.6,2.6,0,0,0,3.312-1.564c.831-1.726,1.456-3.56,2.19-5.329,1.079-2.6,3.064-2.9,5.276-1.079q5.5,4.515,11.252,8.728a4.96,4.96,0,0,0,5.211.572,7.211,7.211,0,0,0,3.625-5.275,66.8,66.8,0,0,1,1.985-9.666,16.8,16.8,0,0,0,.324-2.395c.324-2.794,2.406-3.916,4.9-2.632,1.553.8,3.064,1.672,4.639,2.417,2.212,1.046,4.024.248,4.736-2.082a14.458,14.458,0,0,0,.388-7.929c-.615-2.46-.593-5.06-1.553-7.466a1.8,1.8,0,0,1,.949-2.384,2.047,2.047,0,0,1,2.686.7c3.032,3.905,6.926,7.045,9.72,11.155,1.5-1.111,1.791-2.115.744-3.787a37.3,37.3,0,0,1-5.362-20.681,8.007,8.007,0,0,1,1.715-4.283c2.848-4.24,5.664-8.49,8.685-12.611,1.122-1.532,2.708-2.481,3.722-4.078.755-1.187,2.589-.885,3.646.14a56.6,56.6,0,0,1,6.624,8.177c2.05,2.9,3.959,5.912,5.912,8.879,1.672,2.524,1.532,5.34,1.251,8.167A39.237,39.237,0,0,1,1356.286,486c-.971,1.554.464,1.974,1.111,2.945,2.87-4.218,6.753-7.379,9.806-11.274a1.981,1.981,0,0,1,2.686-.615c1.4.8,1.1,2.114.7,3.334a35.738,35.738,0,0,0-1.683,10.626,7.63,7.63,0,0,0,1.737,5.394,2.445,2.445,0,0,0,3.1.777c1.791-.874,3.528-1.845,5.308-2.762,2.471-1.273,4.4-.065,4.887,2.719.788,4.52,1.78,9.008,2.719,13.5.378,1.834,1.931,3.021,3.247,3.819a4.882,4.882,0,0,0,4.9-.442c3.873-2.729,7.638-5.642,11.284-8.674,2.514-2.093,4.38-1.856,5.61,1.111.636,1.543,1.122,3.161,1.834,4.671,1.219,2.589,2.686,2.686,4.973,1.456a11.714,11.714,0,0,0,5.232-5.448c1.122-2.4,2.988-4.412,3.765-7.045a1.82,1.82,0,0,1,2.244-1.284,2.163,2.163,0,0,1,1.7,2.384c-.151,4.391.636,8.749.421,13.151-.022.518-.539,1.607.561,1.532.809-.065,1.9.022,2.114-1.532a32.2,32.2,0,0,1,2.622-9.666,44.791,44.791,0,0,1,6.71-10.54,7.9,7.9,0,0,1,3.916-2.093c4.952-1.37,9.86-2.87,14.866-4.078,1.877-.453,3.765-.043,5.588-.788,1.176-.475,2.665.96,2.589,2.341-.108,2.093.518,4.121.248,6.246-.669,5.178-.777,10.432-1.672,15.589-.68,3.905-3.711,6.063-6.408,8.458a31.465,31.465,0,0,1-10.076,6.29,17.63,17.63,0,0,1-2.924,1.176c-1.553.27-1.338,1.359-1.176,2.276.226,1.208,1.349.507,1.8.378,3.927-1.068,8.048-.8,11.986-1.78a5.826,5.826,0,0,1,.755-.032c1.2-.129,2.352-.065,2.7,1.37.324,1.316-.475,2.093-1.532,2.719a37.68,37.68,0,0,0-8.167,6.98,11.583,11.583,0,0,0-2.071,3.743,3.025,3.025,0,0,0,2.125,4.391c1.737.475,3.517.766,5.275,1.133,2.88.6,3.636,2.535,2.212,5.038-2.3,4.046-4.4,8.2-6.635,12.277a6.115,6.115,0,0,0,.075,5.168,5.2,5.2,0,0,0,3.959,2.7,60.542,60.542,0,0,0,7.552.313c2.675,0,5.383.054,8.048.27a2.834,2.834,0,0,1,2.373,3.97c-.539,1.6-1.154,3.161-1.64,4.768-.885,2.967.226,4.326,3.29,4.833,4.887.82,8.857-1.7,13.119-3.2a13.979,13.979,0,0,0,1.327-.68,1.831,1.831,0,0,1,2.492.6,1.948,1.948,0,0,1-.119,2.6c-3.28,3.711-5.739,8.059-9.31,11.565,1.305,1.543,2.373,1.424,3.8.108,5.124-4.758,11.49-7.088,18.124-8.749a8.957,8.957,0,0,1,5.675.788c4.218,1.823,8.415,3.711,12.611,5.577a45.449,45.449,0,0,1,6.2,3.862,2.1,2.1,0,0,1,.647,3.139,52.267,52.267,0,0,1-4.607,5.912c-2.945,3.064-6.279,5.761-9.159,8.889-3.28,3.571-7.53,3.625-11.738,3.711-2.622.054-5.319.216-7.919-.637-1.942-.636-4.035-.885-5.9-1.672-1.726-.723-2.924-.68-3.927,1.2,4.272,1.985,7.918,5.027,12.061,7.282,1.251.68,2.352,1.543,1.672,3.1-.647,1.456-2,1.575-3.377,1.025-1.305-.518-2.611-.086-3.905-.076-3.215.032-6.43-.216-9.461,1.424-2.956,1.6-3.6,3.506-1.715,5.707q1.521,1.78,2.934,3.657c1.856,2.481,1.09,4.369-1.845,5.459-4.359,1.618-8.685,3.377-12.946,5.243a5,5,0,0,0-3.01,4.251,7.824,7.824,0,0,0,3.064,6.041c3.323,2.643,6.451,5.524,9.58,8.393,1.78,1.629,1.51,3.474-.561,4.779-1.586,1-3.226,1.91-4.779,2.945-2.233,1.489-1.856,3.42-.1,5.491,2.287,2.7,5.534,3.636,8.663,4.812a12.855,12.855,0,0,0,3.722,1.133c1.327.086,2.783.615,2.772,2.255,0,1.618-1.316,1.985-2.751,2.222-4.348.723-8.555,2.19-12.968,2.622-.529.054-.906.334-.626.852.378.68.237,1.78,1.543,1.791,1.618.022,3.291.259,4.844.216,4.4-.14,8.177,1.759,12.2,2.967,5.534,1.672,7.919,6.02,9.968,10.831.971,2.287,2.039,4.542,3.215,6.721a34.793,34.793,0,0,1,2.751,8,2.085,2.085,0,0,1-1.661,2.578,37.55,37.55,0,0,1-7.39,1.489c-4.488.324-8.965.788-13.464,1.025a8.967,8.967,0,0,1-5.739-1.305c-4.056-2.837-8.1-5.7-11.026-9.8a31,31,0,0,1-2.87-4.358c-.8-1.64-1.791-2.266-3.549-1.6a6.181,6.181,0,0,0,.227,1.079c1.823,4.1,2.622,8.544,4.24,12.719.442,1.154.572,2.384-.82,3.1s-2.19-.259-3.064-1.1c-3.355-3.215-6.495-6.732-11.3-7.9-3.4-.831-4.995.356-5.027,3.873a25.252,25.252,0,0,0,.032,4.143c.442,2.74-2.5,3.905-4.714,3.075-4.337-1.651-8.814-2.934-13.2-4.445-1.834-.637-3.484.248-4.909.852s-1.92,2.654-2.061,4.261a23.918,23.918,0,0,0,.734,7.034c.6,2.8.658,5.675,1.251,8.49.442,2.082-1.262,3.42-3.452,3.129-1.845-.237-3.679-.637-5.534-.734-2.514-.14-3.636.928-3.657,3.388a12.574,12.574,0,0,0,2.082,7.433c1.489,2.2,2.3,4.812,4.229,6.775a1.832,1.832,0,0,1-.14,2.719,2.089,2.089,0,0,1-2.762.14c-3.722-2.276-7.854-3.808-11.543-6.171-.421-.27-.993-1.349-1.607-.313-.485.809-.96,1.683.183,2.589a33.779,33.779,0,0,1,6.851,6.9,40.606,40.606,0,0,1,6.031,11.533,7.054,7.054,0,0,1-.108,3.722c-1.1,4.52-2.05,9.073-3.312,13.55a56.114,56.114,0,0,1-2.848,7.131,2.456,2.456,0,0,1-3.366,1.046,51.963,51.963,0,0,1-9.17-5.513c-2.913-2.05-5.729-4.24-8.587-6.376-3.4-2.535-3.819-6.451-4.456-10.152a29.23,29.23,0,0,1-.874-5.329,50.125,50.125,0,0,1,.939-9.85c.334-1.543-.8-1.564-1.478-1.888-.949-.464-.82.593-1.014,1.09-1.618,4.035-3.236,8.059-4.833,12.1-.442,1.122-1.068,2.136-2.417,1.91-1.4-.237-1.672-1.359-1.791-2.686-.421-4.758-.755-9.548-3.711-13.636-1.575-2.168-4.121-2.891-5.739-.68a44.542,44.542,0,0,1-3.355,3.787c-1.888,2.05-3.895,1.661-5.362-.8-2.384-4-4.855-7.972-7.433-11.856-1.133-1.715-3.2-2.88-4.995-2.47a7.913,7.913,0,0,0-5.243,4.024c-2.017,3.722-4.3,7.293-6.548,10.875a2.839,2.839,0,0,1-4.822.432c-1.273-1.381-2.632-2.7-3.754-4.175-1.51-1.985-3.927-1.111-5.4.636-2.514,2.978-2.7,6.732-3.528,10.281a11.926,11.926,0,0,0-.356,3.711A2.138,2.138,0,0,1,1314.32,792c-1.37.281-2.017-.7-2.46-1.812q-2.444-6.133-4.887-12.277c-.2-.518-.14-1.489-1.079-.939-.615.356-1.694.324-1.392,1.769a35.077,35.077,0,0,1,.885,9.656,42.782,42.782,0,0,1-2.686,12.7,8.262,8.262,0,0,1-3.118,3.463q-6.861,5.017-13.82,9.914c-1.2.842-2.751.971-4.056,1.726a1.865,1.865,0,0,1-2.557-.971c-.507-1.338-1.435-2.449-1.888-3.754-.906-2.632-1.607-5.329-2.287-8.026-.734-2.945-1.284-5.934-2.039-8.868a9.279,9.279,0,0,1,.626-6.376c2.8-6.236,6.484-11.824,12.018-15.977,1.273-.949.647-1.758.27-2.7-.3-.744-.669-.248-1-.032-3.571,2.3-7.53,3.884-11.2,6a11.55,11.55,0,0,1-1.489.788,1.929,1.929,0,0,1-2.384-.529,1.75,1.75,0,0,1-.086-2.417c2.071-2.158,3-4.995,4.6-7.422a11.212,11.212,0,0,0,1.737-7.3c-.216-2.665-2-3.6-5.092-2.956-1.273.27-2.557.507-3.851.658-2.762.334-4.013-1.316-3.539-4.046a136.473,136.473,0,0,0,1.942-14.2,5.908,5.908,0,0,0-1.7-4.326,5.024,5.024,0,0,0-4.714-1.176c-4.574,1.305-9.138,2.729-13.625,4.315-3.042,1.079-4.833.065-4.855-3.1-.011-1.381.011-2.762,0-4.143-.032-3.28-1.64-4.477-4.822-3.819-3.4.7-5.869,2.88-8.372,5.006a15.753,15.753,0,0,0-3.258,3.085,2.169,2.169,0,0,1-2.9,1.036c-1.413-.7-1.295-1.953-.852-3.085,1.564-3.992,2.33-8.242,4-12.2.226-.55.938-1.413.1-1.694-.766-.259-1.877-.6-2.589.69a32.994,32.994,0,0,1-5.739,8.059c-3.085,3.01-6.29,5.944-10.249,7.789a8.62,8.62,0,0,1-4.024.626q-8.593-.583-17.164-1.456a15.966,15.966,0,0,1-4.229-1.187,2.122,2.122,0,0,1-1.327-2.632,54.1,54.1,0,0,1,2.309-6.991c1.521-3.463,3.517-6.732,4.909-10.238,1.823-4.6,5.308-7.077,9.731-8.577,3.053-1.036,6.031-2.373,9.332-2.514,2.039-.086,4.078-.313,6.106-.237,1.305.043,1.7-.593,2.071-1.607.291-.809-.011-1-.734-1.068-4.6-.421-8.954-2.1-13.518-2.708a2.109,2.109,0,0,1-2.05-2.1,1.957,1.957,0,0,1,1.877-2.017c3.042-.237,5.642-1.834,8.447-2.762a9.962,9.962,0,0,0,6.009-5.275,2.554,2.554,0,0,0-.777-3.28,34.692,34.692,0,0,0-5.049-3.2c-2.363-1.5-2.373-3.593-.248-5.427,3.646-3.139,7.207-6.365,10.734-9.645,1.51-1.4,1.284-4.585.475-6.236-1.683-3.463-5.243-3.506-8.059-4.758-2.589-1.154-5.221-2.32-7.94-3.226-2.158-.712-2.47-2.762-1.057-4.65,1.09-1.446,2.276-2.827,3.3-4.3,1.532-2.2,1.079-4.153-1.338-5.2-2.309-1.014-4.661-1.963-7.347-1.607-2.514.334-5.081-.539-7.638.3a1.923,1.923,0,0,1-2.373-1.4,2.1,2.1,0,0,1,1.23-2.643C1191.959,626.049,1195.768,622.877,1200.2,620.806Zm305.63-13.669c-.41-.583-.993-.583-1.64-.572a32.75,32.75,0,0,1-11.2-1.748c-3.862-1.338-7.573-3.1-11.328-4.725a3.688,3.688,0,0,0-2.546-.259c-5.362,1.51-10.961,2.341-15.783,5.459-1.349.874-2.686.572-4.056-.216-5.567-3.215-10.8-6.958-16.463-10a2.119,2.119,0,0,0-2.46,0c-3.56,1.985-6.969,4.348-11.187,4.952-3.01.432-6.052-1.392-5.1-3.571,1.262-2.88.281-4.725-1.079-7.034-.734-1.241-1.305-1.737-2.632-1.758-3.031-.054-4.143-1.683-3.182-4.574a8.908,8.908,0,0,1,1.37-2.438c2.427-3.3,6.171-4.79,9.461-6.872a2.207,2.207,0,0,0,1.241-2.125c.227-6.4-.388-12.773-.432-19.171a3.888,3.888,0,0,1,2.1-3.873,33.861,33.861,0,0,0,9.245-7.563c1.413-1.553,3.722-2.665,3.97-4.833.281-2.341.8-4.661.917-7.023a39.088,39.088,0,0,1,4.8-16.312,3.083,3.083,0,0,0,.593-1.769,1.992,1.992,0,0,0-1.6.7,36.547,36.547,0,0,1-9.051,5.534,80.1,80.1,0,0,1-11.133,3.571,7.487,7.487,0,0,0-4.628,3.441c-.313.464-.636.917-.949,1.381-2.093,3.15-4.725,6-5.7,9.774-.766,2.945-2.794,3.948-5.6,4.283-5.923.712-11.845,1.51-17.714,2.632-.539.108-1.316.129-1.359.766-.119,2.082-1.413,3.7-2.028,5.588-1.036,3.118-2.6,5.955-5.664,7.584-2.546,1.349-4.358.4-4.833-2.449-.313-1.9-5.707-4.261-7.3-3.2a1.456,1.456,0,0,0-.151.119c-3.1,2.3-4.617,1.812-5.912-1.834a6.763,6.763,0,0,1-.226-1.661c-.421-4.326,1.64-8.08,2.9-12a1.618,1.618,0,0,0-.291-1.866c-3.862-5.092-8.469-9.537-12.6-14.392-1.295-1.521-1.942-2.978-1.068-4.93a23.019,23.019,0,0,0,1-3.2c1.187-4.38,1.046-8.9,1.413-13.367a2.1,2.1,0,0,0-.55-1.564c-1.564-1.737-2.395-3.927-3.776-5.782a40.2,40.2,0,0,1-6.344-13.82c-.291-1.079.14-2.535-1.251-3.355a8.715,8.715,0,0,0-.539,1.489,33.822,33.822,0,0,1-4.175,11.694c-1.856,3.161-3.959,6.182-5.955,9.256a4.041,4.041,0,0,0-.852,2.611c.432,5.329.248,10.767,2.373,15.837.885,2.1.28,3.625-1.133,5.265-4.153,4.844-8.749,9.3-12.59,14.4-.27.356-.928.583-.475,1.23,1.262,1.769,1.284,3.992,2.158,5.923a12.576,12.576,0,0,1,.949,7.314c-.55,3.269-2.384,5.394-4.65,3.679s-3.992-1.37-6.041-.162a1.629,1.629,0,0,1-.7.227c-1.456.076-2.007.874-2.168,2.287-.227,1.92-1.812,3.312-3.236,2.913a7.987,7.987,0,0,1-3.819-2.287c-2.827-3.085-3.873-7.045-5.254-10.81a1.9,1.9,0,0,0-1.7-1.51c-5.858-1.165-11.792-1.931-17.714-2.6-3.129-.345-4.876-1.834-5.578-4.812a8.924,8.924,0,0,0-.777-1.888c-1.91-3.895-4.768-7.142-7.174-10.691a2.029,2.029,0,0,0-1.187-.874c-2.179-.518-4.218-1.553-6.365-2.028a40.2,40.2,0,0,1-14.154-6.462c-1-.69-1.748-1.985-3.291-1.974a4.6,4.6,0,0,0,.626,1.769,37.339,37.339,0,0,1,4.056,10.95c.68,3.916,1.23,7.854,1.532,11.824a3.259,3.259,0,0,0,.96,2.158c3.873,3.8,7.271,8.134,12.245,10.68a4.121,4.121,0,0,1,2.276,4.164c-.065,6.4-.69,12.773-.4,19.171.022.539-.313,1.165.529,1.6,1.823.939,3.582,2.017,5.319,3.107,2.794,1.737,5.34,3.722,6.311,7.1.626,2.147-.248,3.981-2.363,3.927-2.33-.054-3.452.863-4.067,2.88a1.483,1.483,0,0,1-.345.658c-1.532,1.295-1.456,2.589-.432,4.261a2.613,2.613,0,0,1-1.273,4.046,8.119,8.119,0,0,1-4,.518c-4.078-.5-7.26-2.913-10.68-4.747a2.414,2.414,0,0,0-2.772,0c-5.621,2.988-10.788,6.732-16.3,9.9-1.295.744-2.6,1.133-3.873.291-4.315-2.837-9.321-3.744-14.143-5.124-1.219-.345-2.632-1.036-3.83-.356-1.91,1.09-4.067,1.554-5.987,2.546a41.282,41.282,0,0,1-15.2,4.143c-1.165.119-2.5-.55-3.6.6a4.181,4.181,0,0,0,1.09.777c3.549.971,6.505,3.064,9.537,4.995,2.492,1.586,4.434,3.851,6.592,5.847,2.611,2.417,5.017,4.779,9.148,4.617,3.571-.14,7.142.831,10.788.151,1.694-.313,3.646-1.241,5.168.432a51.418,51.418,0,0,1,5.178,6.2c2.395,3.636,5.48,6.678,8.124,10.087.291.367.593.874,1.23.583,1.974-.906,4.153-.68,6.225-1.079,2.956-.561,5.944-.583,8.674,1.057,2.762,1.661,2.978,3.6.507,5.621-1.025.841-1.4,1.715-.777,2.88a4.3,4.3,0,0,1,.485,2.524c-.226,1.554.529,2.115,1.759,2.611,3.021,1.219,3.441,3.172,1.251,5.653a11.053,11.053,0,0,1-2.017,1.651c-3.193,2.266-7.066,2.244-10.648,3.053a2.918,2.918,0,0,0-2.557,2.06c-2.276,5.847-3.873,11.921-6.02,17.811a3.9,3.9,0,0,1-3.28,2.9,34.664,34.664,0,0,0-3.646.755c-3.754.96-7.023,3.064-10.551,4.574-.938.4-2.071.69-2.524,1.812-.809,2.017-2.136,3.8-2.967,5.772a41.541,41.541,0,0,1-9.095,13.1c-.777.788-2.039,1.219-2.33,2.524a2.518,2.518,0,0,0,1.866-.194,28.262,28.262,0,0,1,8.544-1.856c4.607-.442,9.267-.011,13.906.248,1.025.054,2.1.334,3.1-.356,4.628-3.258,9.6-6.085,13.172-10.67a3.336,3.336,0,0,1,3.657-1.2c6.484,1.392,13.011,2.632,19.527,3.905.475.1,1.144.248,1.381-.281.874-1.964,2.729-3.064,3.992-4.693,2.061-2.654,4.617-4.79,8.167-5.135,2.438-.237,3.819,1.09,3.377,3.485-.334,1.823-.022,2.956,1.726,3.657a2.711,2.711,0,0,1,1.295,1.046c.863,1.607,2,1.586,3.539,1.014,2.071-.766,3.7.011,4.035,1.769a8.929,8.929,0,0,1-.291,4.412c-1.219,3.916-4.186,6.592-6.581,9.655a1.9,1.9,0,0,0-.432,2.136c1.974,6.225,4.941,12.072,7.045,18.254.485,1.435.583,2.708-.421,3.851a32.608,32.608,0,0,0-6.117,10.162c-.787,2.125-2.568,3.97-2.233,6.419a43.739,43.739,0,0,0,1.381,6.538,35.964,35.964,0,0,1,.982,17.736c-.108.507-.259,1.122.313,1.295.529.151.809-.464,1.068-.874.691-1.111,1.273-2.287,2.039-3.344,3.657-5.027,8.652-8.631,13.572-12.245,1.7-1.262,3-2.514,3.5-4.542.2-.841.334-1.7.572-2.535,1.068-3.646,2.125-7.282,1.866-11.166-.151-2.276.863-3.787,2.978-4.919,5.427-2.924,11-5.556,16.226-8.857.507-.324,1.521-.55,1.359-1.09-.583-1.963.27-3.862.086-5.75a14.015,14.015,0,0,1,1.381-7.768c1.51-3,4.477-5.081,6.926-.658a1.859,1.859,0,0,0,2.309.949,5.32,5.32,0,0,1,2.934-.011,1.907,1.907,0,0,0,2.46-1.014c2.039-3.7,4.585-2.891,6.667.313a8.43,8.43,0,0,1,.669,1.532c1.467,3.679,1.025,7.584,1.1,11.392a2.021,2.021,0,0,0,1.165,2.071c5.416,3.334,11.166,6.041,16.722,9.116,1.694.939,2.665,2.2,2.524,4.013-.388,4.93,1.37,9.451,2.492,14.089a6.3,6.3,0,0,0,2.33,4.11c2.913,2.028,5.837,4.078,8.534,6.376a35.529,35.529,0,0,1,8.318,10.022c.216.388.539,1.036,1.111.788.529-.237.291-.841.2-1.327-.237-1.4-.5-2.8-.626-4.229-.561-6.527,1.413-12.687,2.837-18.922a4.286,4.286,0,0,0,0-2.934c-2.33-4.995-4.1-10.292-7.973-14.445a3.749,3.749,0,0,1-.636-4.164c2.125-6.171,5.07-12.029,7.056-18.254a1.882,1.882,0,0,0-.453-2.136c-2.449-3.107-5.47-5.847-6.613-9.839-.529-1.856-.874-3.776.345-5.372,1.165-1.521,2.848-.744,4.348-.345,1.338.356,6.02-3.366,5.923-4.714-.011-.173-.162-.345-.194-.529-.626-3.129.96-4.779,4.067-4.186A9.835,9.835,0,0,1,1412.8,697c3.549,1.888,5.6,5.3,8.242,8.091.658.69,1.068,1.025,1.963.874,5.933-1.025,11.792-2.384,17.682-3.614,1.834-.378,3.808-1.057,5.351.9a34.381,34.381,0,0,0,9.127,7.94c1.64,1.014,3,2.751,4.855,3.031a29.925,29.925,0,0,0,7.347-.1,45.538,45.538,0,0,1,15.049,1.025c1.359.313,2.589,1.4,4.164.939a1.949,1.949,0,0,0-.928-1.284,37.918,37.918,0,0,1-7.627-8.868c-1.478-2.363-2.524-4.995-3.948-7.39-1.284-2.147-1.64-5.1-4.714-5.858a12.94,12.94,0,0,1-2.212-.982c-3.42-1.575-6.71-3.485-10.594-3.841a5,5,0,0,1-4.66-3.873c-1.845-5.793-3.56-11.63-5.793-17.283-.248-.626-.183-1.769-1.154-1.726-2.255.1-4.24-.96-6.408-1.219a11.481,11.481,0,0,1-8.253-4.553c-.982-1.327-1.187-3.075.367-3.754,2.719-1.187,3.42-3.075,3.765-5.815.2-1.575.194-2.471-1.014-3.474-2.039-1.694-1.866-3.6.3-5.081a10.375,10.375,0,0,1,3.625-1.435c3.15-.744,6.2.173,9.224.647,2.3.356,3.927.5,5.254-1.78a31.046,31.046,0,0,1,3.474-4.2c2.74-3.182,4.9-6.807,7.8-9.86a3.389,3.389,0,0,1,3.3-1.349,32.611,32.611,0,0,0,11.349.356c3.549-.453,7.325-.043,9.709-3.657.5-.744,1.51-1.133,2.125-1.812a42.037,42.037,0,0,1,13.852-9.709C1504.224,607.99,1505.336,608.173,1505.832,607.137ZM1312.453,498.176c-1.154,3.549-1.618,7.185-2.417,10.745-.507,2.255-.6,4.715-2.729,6.322a5.08,5.08,0,0,0-2.168,2.33,2.334,2.334,0,0,1-3.085,1.057,4.721,4.721,0,0,0-2.8-.345,4.751,4.751,0,0,1-3.366-.874,75.889,75.889,0,0,1-6.344-4.952c-1.694-1.4-3.539-2.632-5.319-3.927a12.391,12.391,0,0,0-1.165,2.751,20.967,20.967,0,0,1-1.305,2.481c-1.036,1.834-4.024,3.614-5.707,3.366-3.3-.485-5.836-2.341-8.134-4.617-1.4-1.381-2.19-3.183-3.3-4.812-.194,2.449-.1,4.822-.227,7.2-.086,1.726.043,2.945,2.233,3.053a4.214,4.214,0,0,1,3.053,1.683c1.273,1.694,2.492,3.42,3.614,5.211a2.3,2.3,0,0,0,2.384,1.381,70.58,70.58,0,0,1,9.181-.388,39.835,39.835,0,0,0,5.448-.108,17.975,17.975,0,0,1,7.239.194c.928.259,2.5.788,2.772.432a8.05,8.05,0,0,1,5.8-3.172.309.309,0,0,0,.151-.119,3.608,3.608,0,0,1,3.992-.755,1.538,1.538,0,0,0,1.985-.712,25.416,25.416,0,0,1,3.819-4.337c1.456-1.219,3.172-1.974,4.585-3.247a59.54,59.54,0,0,1,7.3-5.89c2.222-1.446,3.895-2.826,3.2-5.761a12.8,12.8,0,0,1-.226-1.456c-.237-2.287-.755-4.725.874-6.667,1.154-1.37,1.381-2.266.043-3.636-1.748-1.78-3.258-3.8-4.866-5.707-.162.065-.324.14-.485.205,1.4,3.377,1.09,6.743.14,10.076-1.295,4.531-4.844,7.185-9.655,5.308C1315.463,499.892,1314.136,498.975,1312.453,498.176Zm53.186-13.539a65.23,65.23,0,0,1-5.254,6.451c-1.241,1.2-.777,1.715,0,2.708a5.84,5.84,0,0,1,1.392,4.682c-.3,1.9-.313,3.841-.464,5.761a2.122,2.122,0,0,0,.993,2.233,91.443,91.443,0,0,1,8.889,6.894c3.172,2.6,6.948,4.531,9.116,8.21a1.411,1.411,0,0,0,1.963.734,3.673,3.673,0,0,1,4.143.874,1.109,1.109,0,0,0,1,.388c1.91-.3,3.064.8,4.046,2.179a1.3,1.3,0,0,0,1.7.55,17.46,17.46,0,0,1,7.767-.788,61.956,61.956,0,0,0,7.865.324,41,41,0,0,1,6.182.313c1.91.367,3.884.345,4.725-2.136a7.934,7.934,0,0,1,1.392-1.974c1.295-1.7,2.33-3.927,4.812-4.1,2.19-.151,2.3-1.349,2.222-3.064-.119-2.384-.032-4.768-.032-7.153-.162-.043-.324-.086-.5-.119a15.262,15.262,0,0,1-6.8,7.973c-4.046,2.557-8.048,1.888-10.389-2.492-.777-1.456-1.37-3-2.071-4.563-3.064,2.115-5.869,4.4-8.685,6.678-1.91,1.532-3.733,3.463-6.581,3.075a3.734,3.734,0,0,0-2.438.291,2.388,2.388,0,0,1-3.258-1.025,5.641,5.641,0,0,0-2.179-2.33,5.1,5.1,0,0,1-1.888-2.9q-.971-3.965-1.683-7.994a24.265,24.265,0,0,0-1.64-6.149,37.656,37.656,0,0,1-4.973,2.5,6.444,6.444,0,0,1-7.314-2.082c-2.524-3.183-2.665-6.872-2.546-10.648C1365.186,486.978,1366.124,486.18,1365.639,484.637ZM1206.5,693.4c2.654.841,5.34,1.057,7.929,1.651,1.5.345,1.791.011,2.222-1.241a5.7,5.7,0,0,1,2.622-3.334c1.866-.949,3.83-1.694,5.739-2.557a2.784,2.784,0,0,0,1.769-2.179c.4-1.856.14-3.722.55-5.567a50.354,50.354,0,0,0,1.316-8.285,24.022,24.022,0,0,1,2.276-9.494,1.2,1.2,0,0,0-.248-1.607c-1.144-1.284-2.287-2.557-1.4-4.509.108-.248-.119-.734-.324-1.014a3.876,3.876,0,0,1-.151-4.251,1.526,1.526,0,0,0-.4-2.071,17.006,17.006,0,0,1-4.423-6.214,59.184,59.184,0,0,0-3.344-6.473,53.459,53.459,0,0,1-3.3-6.279c-.41-1.068-.734-2.514-2.3-2.7a42.083,42.083,0,0,0-6.117-.593,4.693,4.693,0,0,1-3.948-1.758c-1.176-1.456-2.158-1.694-3.668-.615-1.985,1.413-4.326,2.287-6.192,4.013a17.181,17.181,0,0,1,10.173,2.05c3.959,2.093,6.031,5.9,3.172,10.27a29.143,29.143,0,0,1-2.438,3.29c-.636.723-.421,1,.334,1.305,3.107,1.251,6.2,2.514,9.332,3.7,2.082.788,4.51,1.359,5.621,3.743a4.773,4.773,0,0,0,1.942,2.546,2.175,2.175,0,0,1,.69,2.88c-1,1.37-.906,2.9-1.262,4.358a3.925,3.925,0,0,1-1.295,2.007c-3.215,2.967-6.387,5.966-9.655,8.868-1.079.96-.787,1.446.27,1.963.281.14.583.227.852.388,4.024,2.471,6.581,5.912,3.905,10.454a17.73,17.73,0,0,1-4.855,4.844C1210.31,692.213,1208.357,692.667,1206.5,693.4Zm279.544-.065a16.622,16.622,0,0,1-8.555-5.017c-3.571-3.571-3.948-7.983.216-11.209a31.153,31.153,0,0,1,3.28-2.147c.636-.378.788-.637.2-1.23-2.33-2.352-4.865-4.477-7.336-6.667-1.78-1.586-3.992-2.956-4.25-5.7a4.543,4.543,0,0,0-.809-2.751,2.371,2.371,0,0,1,.485-3.388,5.653,5.653,0,0,0,1.931-2.546,4.889,4.889,0,0,1,2.2-2.179c3.959-2.125,8.372-3.161,12.4-5.114,1.057-.507,1.316-.766.442-1.748a25.323,25.323,0,0,1-2.676-3.8,6.327,6.327,0,0,1,.227-6.581c2.05-2.557,4.855-3.722,7.951-4.531,1.877-.5,3.765-.173,5.7-.593-2.276-1.489-4.725-2.589-6.894-4.11-1.23-.863-1.7-.485-2.449.378a5.929,5.929,0,0,1-3.754,2.32c-2.212.259-4.445.41-6.667.539a2.112,2.112,0,0,0-1.823,1.37c-1.09,1.964-1.78,4.11-2.988,6.009a36.633,36.633,0,0,0-3.539,6.16,22.669,22.669,0,0,1-5.491,8.361,1,1,0,0,0-.291,1.284c.874,1.812,1.068,3.56-.237,5.275a.618.618,0,0,0-.076.529c.9,1.931-.226,3.247-1.4,4.5-.572.6-.421,1.025-.183,1.769.453,1.424,1.208,2.7,1.586,4.186.636,2.568.55,5.178.96,7.757.507,3.118,1.338,6.192,1.338,9.418,0,1.219-.27,3.01,1.489,3.754,1.079.464,2.1,1.057,3.2,1.456,2.8,1.014,5.114,2.524,6.052,5.556.086.291-.011.928.572.734C1479.811,694.393,1483.015,694.608,1486.046,693.335Zm-209.6,76.176c.13.119.259.227.388.345,2.46-1.478,4.865-3.053,7.411-4.369.842-.432.928-.6.626-1.413a6.819,6.819,0,0,1-.313-4.919,60.282,60.282,0,0,1,2.632-5.534,2.683,2.683,0,0,0-.022-2.934c-.982-1.661-2.276-3.1-3.258-4.779a69.738,69.738,0,0,0-5.276-8.587,13.874,13.874,0,0,1-2.729-5.48c-.194-.874-.054-2.492-1.316-2.643-2.093-.237-3.722-.906-4.714-2.848a1.2,1.2,0,0,0-.777-.485c-1.607-.324-2.19-1.564-2.611-2.9a1.745,1.745,0,0,0-1.737-1.5,16.243,16.243,0,0,1-5.621-1.23c-5.265-2.654-11.047-4.078-16.312-6.732a2.273,2.273,0,0,0-2.611.216c-.885.68-1.769,1.359-2.654,2.05-2.568,2.017-5.329,3.236-8.587,2.05-.723,3.247-2.46,6.041-3.1,9.429a4.053,4.053,0,0,0,.842-.539c2.19-2.632,5.221-3.83,8.382-4.542,2.74-.615,5.491-.572,7.552,1.953,1.726,2.1,1.823,4.574,1.78,7.088-.022,1.305,0,1.942,1.7,1.392,3.064-.992,6.1-2.06,9.159-3.042,2.363-.755,4.833-1.909,7.325-.313a2.277,2.277,0,0,0,1.888.334,2.9,2.9,0,0,1,3.01,2.481c.054.475-.162.949.281,1.4,2.319,2.406,1.661,5.308,1.23,8.145-.539,3.549-1.133,7.1-1.413,10.821,1.1-.227,2.061-.475,3.031-.6,4.261-.572,8.21.647,9.138,5.491a16.028,16.028,0,0,1-.583,7.023A17.461,17.461,0,0,1,1276.442,769.511ZM1232.361,552.1a6.984,6.984,0,0,0,.227.669c1.575,3.172,3.28,6.268,4.995,9.364,1.273,2.287,2.816,4.7,1.316,7.53-.259.5.043.82.162,1.219a2.844,2.844,0,0,1-2.061,3.593,2.047,2.047,0,0,0-1.392.777,6.191,6.191,0,0,1-5.135,2.255c-3.959.1-7.918.27-11.889.356-1.036.022-1.543.129-1.014,1.37a14.255,14.255,0,0,1,1.251,5.211c.043,2.147-.453,4.261-2.4,5.394a13.647,13.647,0,0,1-13.054.55c-.475-.216-.917-.744-1.64-.14,1.758,2.179,3.6,4.272,5.372,6.43.7.852,1.047.766,1.715.356a6.35,6.35,0,0,1,4.639-1.046,36.213,36.213,0,0,1,6.246,1.715,2.186,2.186,0,0,0,2.093-.3c1.553-.939,2.352-2.568,3.733-3.668,2.546-2.028,5.07-4.11,7.4-6.376a23.916,23.916,0,0,1,5.826-4.617c.917-.464,2.578-.637,2.524-1.888-.1-2.1.3-3.8,1.974-5.124a.934.934,0,0,0,.313-.669c-.043-1.845,1.262-2.557,2.6-3.312.432-.237,1.176-.313,1.057-1.111-.55-3.722.27-7.25,1.251-10.842,1.079-3.938,1.2-8.1,2.524-12.018a2.962,2.962,0,0,0-.442-3.323c-.842-.831-1.769-1.575-2.578-2.438-1.435-1.521-3.539-2.859-3.355-5.157.227-2.837-1.586-3.042-3.431-3.312-2.039-.291-4.035-1.036-6.753-.82a21.573,21.573,0,0,1,4.143,3.528,25.317,25.317,0,0,1,2.675,4.477c2,4.143.669,8.7-4.218,10.13C1235.533,551.308,1233.9,551.362,1232.361,552.1Zm183.9,217.955a10.323,10.323,0,0,0-.734-1.51c-2.471-2.978-2.945-6.516-2.87-10.184a6.69,6.69,0,0,1,6.861-6.646,20.751,20.751,0,0,1,4.628.583c.69.14,1.025.1.863-.626-.744-3.474-.949-7.023-1.618-10.508-.4-2.06-.809-4.348.421-6.408a6.149,6.149,0,0,0,1.338-3.161,2.2,2.2,0,0,1,2.212-1.953c1.64.237,2.827-.615,4.2-1.025a3.99,3.99,0,0,1,1.985-.011c3.808.69,7.293,2.406,10.972,3.463,3.441.982,3.344,1.09,3.571-2.46.335-5.394,2.837-8.21,8.339-7.627a16.821,16.821,0,0,1,5.286,1.694,22.254,22.254,0,0,1,4.758,3.4c-.539-3.258-2.147-6.085-2.967-9.278-3.5,1.273-6.279-.162-8.89-2.341-3.431-2.87-3.517-2.816-7.53-.712a33.626,33.626,0,0,1-3.992,1.554c-2.266.852-4.607,1.543-6.775,2.6-2.255,1.09-4.445,2.179-7,2.32-1.7.1-3.269.367-3.625,2.557a2.5,2.5,0,0,1-2.017,2.007,2.075,2.075,0,0,0-1.467,1.1c-.7,1.607-2.1,2.071-3.646,2.212-.874.086-1.273.313-1.478,1.273a16.631,16.631,0,0,1-3.139,6.915c-2.093,2.611-3.474,5.61-5.232,8.393a30.32,30.32,0,0,1-2.514,3.711,3.881,3.881,0,0,0-.5,5.017c1.715,3.129,3.787,6.451,1.715,10.314a.429.429,0,0,0,.227.615C1410.367,766.781,1413.075,768.292,1416.257,770.05Zm41.2-237.319a2.523,2.523,0,0,0-.68-.1c-2.762.442-5.513.917-8.275,1.349-.475.076-.442.388-.41.669.334,3.56-1.834,5.7-4.164,7.908-1.284,1.219-3.452,2.287-2.6,4.725,1.273,3.6,1.6,7.4,2.406,11.1.874,4,2.309,7.919,1.543,12.126a.709.709,0,0,0,.432.9,5.1,5.1,0,0,1,3.484,4.207,1.255,1.255,0,0,0,.561.723,3.5,3.5,0,0,1,1.4,3.636c-.151,1.057.248,1.521,1.176,2.007a20.381,20.381,0,0,1,5.168,3.312c1.025,1.014,2.028,2.05,3.053,3.053,2.826,2.751,6.236,4.822,8.792,7.9.734.874,1.737,2.05,3.172,1.532.949-.334,1.963-.442,2.848-.8,3.269-1.327,6.387-1.554,9.407.712.626-1.629,2.061-2.438,2.945-3.733a48.1,48.1,0,0,1,3.236-3.873c-.55-.054-.842-.173-1-.076-3,1.834-6.236,1.942-9.591,1.456-4.089-.583-6.753-2.654-6.667-7.034a17.235,17.235,0,0,1,1.295-5.394c.227-.637.345-1.111-.55-1.144-3.344-.1-6.7-.151-10.044-.313-2.2-.108-4.531.281-6.441-1.305a7.715,7.715,0,0,0-3.021-2,2.606,2.606,0,0,1-1.564-3.247c.086-.41.529-.734.291-1.219-1.607-3.29.335-5.826,1.769-8.49a91.775,91.775,0,0,0,4.747-9.3c-1.025-.151-1.92-.388-2.827-.572-6.138-1.241-8.782-5.427-5.793-11.414A18.407,18.407,0,0,1,1457.457,532.731Zm-78.322,250.136a1.156,1.156,0,0,0,.852-.992c.734-2.179,1.435-4.391,2.33-6.462.647-1.5.162-1.715-.852-2.395a5.931,5.931,0,0,1-2.794-3.172c-.539-1.974-.993-3.981-1.5-5.966a2.49,2.49,0,0,0-1.791-2.147c-1.5-.378-2.978-.842-4.466-1.273-3.7-1.068-7.174-2.783-10.982-3.593a12.383,12.383,0,0,1-5.416-2.417c-.68-.561-1.877-1.467-2.266-1.241-2.093,1.23-4.186,1.068-6.495,1.111-1.683.032-3.1.119-4.5-.8a1.419,1.419,0,0,0-1.91.108,17.7,17.7,0,0,1-6.851,3.29,75.331,75.331,0,0,0-8.523,2.729,34.413,34.413,0,0,1-5.351,1.607c-1.413.227-3.075.669-3.237,2.546a23.594,23.594,0,0,1-.766,3.269c-.485,2.125-.917,4.466-3.053,5.545-1.737.885-1.866,1.791-1.165,3.431.96,2.233,1.543,4.628,2.827,6.807a30.084,30.084,0,0,1,1.2-5.017,17.431,17.431,0,0,1,2.568-4.531c2.794-3.819,7.131-4.919,10.885-1.295,1.144,1.1,2.341,2.158,3.5,3.226a86.88,86.88,0,0,0,5.459-8.512c1.575-2.654,3-5.383,6.495-5.858.539-.076.647-.529.949-.809a2.62,2.62,0,0,1,3.743-.14,4.891,4.891,0,0,0,2.373,1.251,4.968,4.968,0,0,1,3.226,2.363c1.974,3.161,3.938,6.322,5.944,9.472,1.629,2.557,1.672,2.557,3.636.334,4.218-4.747,9.084-4.9,12.913.831A16.189,16.189,0,0,1,1379.135,782.867Zm54.858-124.874c3.193,2.309,6.829,2.708,10.324,3.15,3.182.4,3.743.572,4.919,3.539,2.3,5.782,4.046,11.738,6.009,17.628.281.841.572,1.629,1.586,1.834,1.683.345,3.355.712,5.254,1.111-.594-1.1-.162-2.125-.291-3.172-.5-3.948-1.64-7.778-1.737-11.813-.054-2-.183-4.358-2.449-5.545-2.028-1.068-2.2-2.061-.636-3.69.96-.992,2.05-2.093,2.244-3.355.485-3.183,1.564-6.419-.367-9.6a1.7,1.7,0,0,1,1.5-2.589c2.093,0,3.193-1.165,3.981-2.848,1.262-2.708,2.622-5.351,4.132-7.929,1.305-2.222,2.891-4.326,3.42-6.98-2.136.022-4.359-1.456-6.063-.453-1.726,1.014-3,3.01-4.153,4.779-2.729,4.153-6.214,7.67-9.321,11.511a3.057,3.057,0,0,1-3.5,1.241c-2.546-1.1-5.286-.766-7.843-1.456-1.338-.367-2.449.2-3.668.151-.82-.032-.7.432-.248.939,2.848,3.236.615,6.7.421,10.065-.011.162-.216.3-.313.464A7.087,7.087,0,0,1,1433.993,657.993Zm-213.445-30.272a33.664,33.664,0,0,0,1.435,3.517c1.78,3.344,3.992,6.441,5.427,9.99.755,1.856,1.6,4.046,4.229,4.261,2.114.173,2.665,1.187,1.8,3.172-.529,1.208-1.23,2.535-.993,3.744.615,3.215.518,6.721,3.506,9.116a1.724,1.724,0,0,1-.55,3.042c-1.812.669-2.384,2.1-2.632,3.754-.281,1.9-.421,3.819-.647,5.729-.442,3.722-1.64,7.358-1.435,11.22a31.394,31.394,0,0,1,3.992-.949,2.794,2.794,0,0,0,2.686-2.266c1.985-6.138,3.895-12.3,6.246-18.308a3.358,3.358,0,0,1,3.161-2.46c2.74,0,5.243-1.025,7.875-1.435a9.663,9.663,0,0,0,3.722-1.812c-2.179-1.758-4.553-3.29-3.474-6.613a.441.441,0,0,0-.108-.345c-1.9-2.438-.68-4.563.7-6.646.313-.464.518-.788-.183-.906a7.453,7.453,0,0,0-2.924-.291c-2.88.734-6,.194-8.749,1.651-.378.194-.982,0-1.467-.086-1.651-.291-2.406-1.694-3.387-2.794-3.992-4.488-7.541-9.343-11.241-14.057a1.849,1.849,0,0,0-2.061-.928A22.271,22.271,0,0,1,1220.548,627.721Zm200.337-43.8a4.762,4.762,0,0,1,3.064.841c2.643,1.618,3.409,4.509,4.693,7,.7,1.359.162,3-.626,4.639,4.218-.561,7.444-2.643,10.583-4.79,1.553-1.057,2.967-1.5,4.65-.539,2.223,1.273,4.456,2.524,6.646,3.841,3.517,2.125,7.012,4.294,10.5,6.473a1.779,1.779,0,0,0,2.05.216c1.456-.831,2.956-1.6,4.466-2.406a15.552,15.552,0,0,0-1.791-2.179,132.093,132.093,0,0,1-10.26-9.094c-1.316-1.381-2.891-2.222-5.06-1.467-1.284.453-2.082-.5-2.093-1.92-.011-1.5.378-3.139-.4-4.456-1.672-2.837-2.837-6.117-6.43-7.39a1.692,1.692,0,0,1-.583-2.924c1.78-1.381,1.467-3.139,1.23-4.93-.248-1.909-1.057-3.668-1.413-5.567-.658-3.549-.809-7.228-2.4-10.6-1.413.906-2.686,1.791-4.035,2.568a1.937,1.937,0,0,0-1.079,1.963c.076,2.557.173,5.114.335,7.67.248,4.067.022,8.167.086,12.245a3.493,3.493,0,0,1-2.417,3.657c-2.233.68-3.819,2.319-5.826,3.29A9.365,9.365,0,0,0,1420.885,583.921Zm-166.2-35.31c-1.823,5.653-2.19,11.533-3.787,17.153a3.513,3.513,0,0,0,.906,3.646c1.543,1.467,1.305,2.6-.636,3.571-1.23.615-2.622,1.241-3.269,2.406-1.564,2.848-3.722,5.491-3.15,9.159.248,1.564-.874,2.352-2.395,1.856a3.854,3.854,0,0,0-3.808.809c-2.352,1.78-4.207,4.089-6.495,5.955-2.255,1.845-4.865,3.409-6.4,6.139a11.465,11.465,0,0,1,2.276,1.111c2.125,1.758,4,1.392,6.149-.119,4.79-3.366,9.925-6.214,15-9.148,1.467-.841,3.021-.992,4.2.022,2.082,1.8,4.7,2.546,6.9,4.035,1.305.885,2.751.766,4.434,1.1-1.251-1.909-1-3.679-.583-5.48.259-1.1,1.661-1.37,1.791-2.3.475-3.312,3-4.067,5.685-4.876-2.061-3.247-5.437-4.768-8.555-6.441-2.632-1.413-3.366-1.931-3.452-4.822-.173-6.333.281-12.644.388-18.977.011-.723.151-1.467-.7-1.963C1257.692,550.607,1256.257,549.625,1254.682,548.611ZM1339.046,725.4a23.8,23.8,0,0,0-1.208,11.4c.194,2.05-.108,3.323-1.91,4.423-1.435.874-2.934,1.672-4.348,2.578-4.153,2.654-8.749,4.509-12.978,7.034-.734.442-1.392.82-1.381,1.8.022,1.672.011,3.344.011,5.254,5.653-1.834,11.187-3.592,16.7-5.427a3.624,3.624,0,0,0,2.611-2.88,1.815,1.815,0,0,1,3-1.219,11.7,11.7,0,0,0,13.41,0,1.83,1.83,0,0,1,3.021,1.2,3.737,3.737,0,0,0,2.773,2.945c3.895,1.241,7.843,2.319,11.641,3.873a17.6,17.6,0,0,0,4.909,1.262,32.2,32.2,0,0,1,.032-3.83c.194-1.694-.518-2.557-2-3.334-5.631-2.945-11.274-5.869-16.7-9.192-1.327-.82-2.233-1.963-1.985-3.3a33.665,33.665,0,0,0,.1-6.505,10.525,10.525,0,0,0-1.381-5.923c-1.154,1.974-3.193,3.344-4.8,2.934-1.963-.5-3.733.69-5.513-.119-.054-.022-.13-.022-.183-.043A6.521,6.521,0,0,1,1339.046,725.4Zm-49.173,22.429a41.516,41.516,0,0,1,2.568-3.323,2.875,2.875,0,0,0,.5-3.539c-2.449-5.836-4.833-11.694-6.883-17.693-.7-2.06-.011-3.29,1.489-4.887,2.276-2.427,4.639-4.876,5.815-8.145.313-.863.334-1.187-.831-1.068-2.309.248-4.477-.086-5.7-2.481-.108-.216-.259-.507-.442-.561-3.344-.885-3.6-3.571-3.733-6.333-2.924.9-6.354,5.265-8.113,7.757-1.241,1.769-2.578,2.686-4.693,2.244-5.157-1.09-10.389-1.748-15.5-3.085-2.2-.572-4.682-1.974-6.84.917-2.406,3.226-2.611,2.988,1.413,4.531,3.528,1.359,7.174,2.384,10.551,4.164,1.985,1.046,4.046,1.791,6.268,0,1.208-.971,2.287.076,2.708,1.327,1.651,4.9,4.876,7.832,10.1,8.469a1.9,1.9,0,0,1,1.629,2.967,3.974,3.974,0,0,0,.28,4.078c.906,1.489,1.942,2.891,2.9,4.337C1285.558,740.9,1287.057,744.73,1289.873,747.827Zm125.651-217.685a15.531,15.531,0,0,0-4.412-.561c-3.56-.086-7.12.194-10.691-.291-2.287-.313-4.725-.507-6.279,2.158-.691,1.187-2.071.712-2.859-.334-3.2-4.24-7.39-5.621-12.525-4.563-1.715.356-2.708-.593-2.5-2.266a4.094,4.094,0,0,0-1.651-3.7c-1.748-1.618-3.884-2.686-5.707-4.229-2.611-2.2-4.984-4.779-8.167-6.2-.529,1.6-1.079,3.172-1.564,4.768a1.527,1.527,0,0,0,.194,1.586,41.121,41.121,0,0,0,3.625,4.3c3.776,3.344,6.516,7.584,9.925,11.241a3.169,3.169,0,0,1,.507,4c-1.338,2.05-1.564,4.445-2.492,6.6a9.268,9.268,0,0,0-.442,5.027,24.073,24.073,0,0,1,2.794-1.133c2.881-.475,5.125,1.338,7.627,2.1,1.51.453,2.611,2.147,2.913,4.283,2.87-3.053,4.089-6.559,5.017-10.119.572-2.2,1.521-3.4,3.733-3.787,5.8-1.046,11.608-2.125,17.488-2.719,1.165-.119,2.891.259,3.56-1.467C1414.251,533.27,1414.887,531.728,1415.524,530.142Zm-12.924,217.7a24.121,24.121,0,0,0,3.485-4.941,73.055,73.055,0,0,1,5.016-8.091c1.2-1.521,2.384-3.28,1.4-5.48-.863-1.963-.194-3.042,2.007-3.215,1.316-.108,2.837-.205,3.711-1.014,2.341-2.19,5.351-3.862,6-7.53.281-1.618,1.715-1.964,3.042-.971a3.8,3.8,0,0,0,3.862.507c2.978-1.057,5.707-2.708,8.782-3.56a36.3,36.3,0,0,0,5.221-1.974c2.395-1.079,2.363-1.133.6-2.967-.647-.68-1.262-1.392-1.877-2.1a1.575,1.575,0,0,0-1.758-.539q-3.641.7-7.25,1.575c-4.046.971-8.177,1.575-12.277,2.3-1.672.3-3.312-.1-4.1-1.607-1.187-2.3-3.312-3.722-4.758-5.739-.971-1.338-2.438-2.017-4.143-2.848a3.811,3.811,0,0,1,.259,2.212c-.917,3.506-3.916,5.049-6.548,6.872a5.415,5.415,0,0,1-4.434.378c1.014,3.959,3.646,6.613,6.117,9.267,1.575,1.683,2.212,2.816,1.456,5.038-1.985,5.88-4.294,11.651-6.753,17.337a3.39,3.39,0,0,0,.723,4.164A28.587,28.587,0,0,1,1402.6,747.837Zm-80.513-200.132c.335-4.024-1.046-7.5-2.643-10.853-.971-2.039-1.025-3.42.442-5.157.485-.572.982-1.133,1.467-1.715,2.168-2.589,4.175-5.362,6.57-7.724,1.737-1.726,3.312-3.549,4.919-5.383a1.825,1.825,0,0,0,.55-1.856c-.518-1.629-1.068-3.247-1.661-5.027-5.124,3.323-9.343,7.649-14.305,11.015a3.268,3.268,0,0,0-1.251,2.988c.173,2.212-.658,2.891-2.859,2.449-1.273-.259-2.8-.82-3.83-.367-2.967,1.316-6.516,1.694-8.339,5.07a1.694,1.694,0,0,1-3.075-.054,3.7,3.7,0,0,0-3.8-1.856c-3.938.345-7.875.388-11.813.367-1.823-.011-3.679-.173-5.427.593.615,1.543,1.219,3.042,1.813,4.542.367.939,1.1,1.165,2.05,1.295,5.9.841,11.792,1.758,17.682,2.654,2.147.324,4.445.744,4.866,3.3.464,2.837,1.931,5.222,2.87,7.832a7.939,7.939,0,0,0,2.255,2.848c1.154-2.535,2.276-4.9,5.578-4.639a.765.765,0,0,0,.5-.216C1316.984,545.634,1319.422,546.443,1322.087,547.705ZM1287.36,775.617a30.322,30.322,0,0,0-8.641,10.767c-1.036,2.168-2.783,4.24-2.179,6.818,1.251,5.308,2.233,10.7,4.337,15.772.842,2.028,1.963,2.352,3.927,1.349,3.743-1.909,6.958-4.6,10.335-7.034,1.7-1.219,3.819-2.179,4.5-4.369,1.813-5.847,2.9-11.781,1.489-17.962-.82.421-1.208,1.23-1.812,1.823-2.341,2.3-3.765,5.275-5.793,7.811-2.115,2.643-3.463-1.1-5.351-.356-.658.259-1.2-.744-1.4-1.51a.364.364,0,0,1-.011-.183c.539-1.068-.011-2.2.2-3.323A40.208,40.208,0,0,0,1287.36,775.617Zm103.977,5.308c.129,1.91-.453,3.636-.6,5.427-.226,2.74.561,5.329.917,7.973.507,3.787,2.039,6.948,5.61,8.943,1.942,1.09,3.582,2.729,5.469,3.927a38.709,38.709,0,0,0,5.2,3.28c1.316.572,2.535.68,3.377-.712a10.883,10.883,0,0,0,1.273-2.708c1.046-3.83,1.963-7.7,3-11.533a8.778,8.778,0,0,0-.755-7.2c-1.187-1.963-2.093-4.089-3.3-6.031-1.618-2.578-3.948-4.52-6.257-6.721-.561,4.1.216,7.811.421,11.543.086,1.467.162,3.344-1.575,3.118s-2.287,1.791-3.8,1.251a2.048,2.048,0,0,1-.949-.561,36.7,36.7,0,0,1-3.107-4.229C1394.983,784.5,1393.009,782.921,1391.337,780.925Zm105.886-164.887c4.6,1.575,8.846,2.611,13.237,2.125,2.535-.281,5.34.345,7.519-1.651a100.385,100.385,0,0,0,11.435-11.533c1.327-1.683,1.068-3-.777-4.11a100.586,100.586,0,0,0-14.661-6.84,6.558,6.558,0,0,0-3.841-.065,57.325,57.325,0,0,0-7.595,2.481c-2.88.992-5.157,3.107-7.789,5.027.863.216,1.446.388,2.05.507A89.779,89.779,0,0,0,1507,603.1c3.5.3,1.187,3.485,2.568,4.909.615.637-.1,1.694-.982,2.115-1.737.831-3.409,1.758-5.211,2.492A57.513,57.513,0,0,0,1497.223,616.038Zm-302.329.1c-.356-.788-1.133-.949-1.748-1.349-2.8-1.866-6-2.967-8.987-4.488-2.956-1.51.27-3.636-.712-5.383-.356-.647.636-1.381,1.456-1.683a1.082,1.082,0,0,1,.367-.054c1.683-.065,3.344-.367,5.027-.464,2.417-.14,4.812-.68,7.422-1.079-4.089-3.819-8.717-5.793-13.669-7.174-1.855-.518-3.69-1.208-5.642-.388-4.919,2.061-9.9,4-14.478,6.786-1.953,1.187-2.136,2.373-.777,4.24,2.481,3.4,5.8,5.987,8.685,9.008a11.356,11.356,0,0,0,7.9,3.959A36.793,36.793,0,0,0,1194.894,616.135ZM1217.959,717.9a4.006,4.006,0,0,0-2.05-.022c-3.247.766-6.538,1.392-9.731,2.363-3.388,1.025-2.255-2.74-3.981-3.517-.744-.334-.539-1.435-.108-2.212a1.561,1.561,0,0,1,.237-.291c1.295-1.359,2.589-2.708,3.959-4a69.244,69.244,0,0,0,4.639-5.383c-2.19.14-3.83.291-5.48.356-2.74.108-5.189,1.262-7.67,2.19-3.107,1.176-6.279,2.373-7.638,6.02-.906,2.438-2.319,4.682-3.409,7.055-.863,1.909-1.607,3.873-2.341,5.847a2.581,2.581,0,0,0,1.586,3.463,12.746,12.746,0,0,0,2.546.464q5.955.566,11.91,1.057c1.953.162,3.905.183,5.588-1.036C1210.709,726.887,1215.24,723.37,1217.959,717.9Zm256.5-.108a31.052,31.052,0,0,0,9.278,10.443c2.309,1.715,4.477,3.517,7.757,3.1,4.261-.55,8.566-.69,12.838-1.111,2.913-.291,4.153-1.305,3.97-3.2a9.275,9.275,0,0,0-.928-2.978c-1.866-3.927-3.819-7.811-5.685-11.738a6.306,6.306,0,0,0-3.517-3.409c-2.438-.928-4.812-2.039-7.271-2.891a25.341,25.341,0,0,0-8.9-1.036c.194.939.8,1.262,1.154,1.748,2.007,2.729,4.607,4.9,6.915,7.347,2.223,2.352-1.392,3.237-1.122,5.124.086.637-.8,1.219-1.672,1.219a2.461,2.461,0,0,1-.561-.043c-1.91-.507-3.841-.982-5.75-1.521A20.754,20.754,0,0,0,1474.46,717.792Zm-220.5-203.876c-.55-2.158-.691-4.207-1.37-6.106-1.359-3.8-3.711-7.034-5.934-10.346a4.53,4.53,0,0,0-2.6-1.726c-4.995-1.456-9.914-3.15-15.082-3.959-2.708-.421-3.69.539-3.646,2.87.086,4.855.647,9.677,1.2,14.51a8.854,8.854,0,0,0,3.215,5.869c3.388,3.053,6.775,6.074,11.2,7.573.5.173.971.885,1.478.432.485-.432-.043-1.036-.2-1.554-1-3.334-2.837-6.322-4.067-9.569-.561-1.489-.248-2.5,1.241-2.934a1.663,1.663,0,0,0,1.165-.982c.691-1.37,1.737-1.521,2.956-.734,1.575,1.014,3.139,2.007,4.639,3.161A56.1,56.1,0,0,0,1253.959,513.916Zm99.716-30.768c.917-1.92,1.683-3.539,2.46-5.146,1.467-3.031,1.553-6.387,2.147-9.6a9.329,9.329,0,0,0-2.028-7.9c-1.478-1.845-2.578-3.981-3.959-5.9-1.305-1.823-2.708-3.571-4.143-5.286a2.45,2.45,0,0,0-3.646-.183c-.6.723-1.349,1.305-1.877,2.082-2.471,3.6-4.909,7.217-7.358,10.821a6.99,6.99,0,0,0-1.154,4.067,66.18,66.18,0,0,0,.852,6.861c.388,3.668,2.276,6.764,3.884,10.184,1.791-3.722,2.417-7.541,3.636-11.166.842-2.5.842-2.492,3.4-1.985a1.579,1.579,0,0,0,.9-.065c1.813-.863,2.665-.011,3.193,1.651C1351.172,475.338,1351.83,479.275,1353.675,483.148Zm96.166,40.067a28.854,28.854,0,0,0,11.738-7.109c1.629-1.521,3.733-2.794,4.121-5.168a113.434,113.434,0,0,0,1.51-16.549c.043-2.039-1.37-3.031-3.377-2.7a120.2,120.2,0,0,0-15.255,4.013,4.565,4.565,0,0,0-2.514,1.521c-3.679,4.973-6.764,10.216-7.638,16.754.82-.453,1.489-.874,2.2-1.23,2.913-1.467,5.416-3.56,8.08-5.383,2.837-1.942,3.15,1.758,5.016,1.9.712.054.928.939.96,1.661a1.291,1.291,0,0,1-.162.539c-.723,1.7-1.349,3.452-2.233,5.1A30.574,30.574,0,0,0,1449.841,523.216Z" transform="translate(0 0)" fill="#e5e7e3"/>
    <path id="Path_9956" data-name="Path 9956" d="M1283.078,586.292c-.151-1.64-.432-2.675-2.093-3.29-3.841-1.392-5.189-4.963-6.538-8.393-1.726-4.369-1.812-9-1.888-13.593-.021-1.521-.82-2.74-1.208-4.1a29,29,0,0,0-2.158-5.534,8.565,8.565,0,0,1-1.251-4.6c.119-2.352,1.532-3.517,3.83-3.237,1.672.205,2.794,1.1,4.132,1.92,3.517,2.147,6.775,4.682,11.08,5.513,5.1.982,10.152,2.5,14.273,6,2.017,1.715,3.905,3.528,4.067,6.408.065,1.057.906,1.273,1.586,1.64.755.4,1.133.173,1.068-.766-.226-2.913.119-3.042,2.87-4.542,2.643-1.446,5.545-2.039,8.307-3.1,1.888-.723,3.4.227,4.876,2.859,1.122-1.2,1.553-2.276.583-3.916-1.963-3.323-.809-6.775.227-10.065,1.435-4.531,4.326-8.242,7.314-11.845a12.529,12.529,0,0,0,1.737-3.905c.766-2.028,1.845-4,2.05-6.182a7.959,7.959,0,0,1,2.33-4.553,2.856,2.856,0,0,1,3.787-.356,5.089,5.089,0,0,1,2.427,3.193,40.7,40.7,0,0,0,3.291,10.1c.949,2.244,2.719,4.143,4.218,6.138a24.229,24.229,0,0,1,5.1,13.172,8.15,8.15,0,0,1-1.262,5.092c-.8,1.316.248,2.168.906,3.161,1.953-3.247,2.363-3.247,6.052-2.406a55.885,55.885,0,0,1,8.156,2.9,3.434,3.434,0,0,1,2.125,3.474c-.011.593-.712,1.478.226,1.651a1.891,1.891,0,0,0,2.082-1.284c1.92-7.994,8.49-9.968,15.158-11.9,3.722-1.079,7.573-1.758,10.842-4.207,1.618-1.219,3.485-2.136,5.081-3.463a4.989,4.989,0,0,1,5.189-.065,4.931,4.931,0,0,1,.7,5.793c-1.856,3.01-2.783,6.387-3.819,9.688-.669,2.147-.55,4.563-.626,6.861a24.063,24.063,0,0,1-4.812,14.025,7.021,7.021,0,0,1-3.549,2.589c-.561.183-1.154.291-1.338.874-.194.637-.82,1.349-.41,1.942.5.712,1.079-.14,1.618-.291a2.466,2.466,0,0,1,2,.108,8.641,8.641,0,0,1,4.121,5.383c.054.2-.2.572.1.647,2.266.583,1.834,2.945,2.762,4.391.863,1.338.237,3.042-1.284,4.078-.291.194-.82.334-.636.788a1.285,1.285,0,0,0,.9.529c.787.14,1.586.378,2.3-.3,2.978-2.859,6.7-2.449,10.26-2,4.876.626,9.2,2.9,13.421,5.319,1.305.744,2.762.7,4.143,1.014a25.762,25.762,0,0,0,6.041.917,9.073,9.073,0,0,1,5.06,1.456,2.726,2.726,0,0,1,.993,3.657c-.583,1.1-1.316,2.46-2.719,2.945-2.848.982-5.3,2.719-7.929,4.121-3.085,1.651-4.93,4.531-7.357,6.84-3.83,3.646-8.156,6.3-13.474,7.034a3.694,3.694,0,0,1-2.341-.5c-1.651-1.057-2.643-.054-3.959,1.014.636.27,1.1.485,1.575.669,1.64.647,2.158,2.309,2.266,4.046.14,2.136-1.208,3.905-.852,6.117.216,1.349-.669,2.988-1.37,4.326-.852,1.629-2.535,1.877-4.412,1.694.55,1.489,1.068,2.546,2.87,2.33,2.3-.281,4.11,1.014,5.718,2.363a24.711,24.711,0,0,1,7.7,10.6,32.692,32.692,0,0,0,9.839,13.852,4.829,4.829,0,0,1,1.23,5.847c-.842,1.381-3.549,2.071-5.545,1.327a38.946,38.946,0,0,0-10.4-2.071c-2.913-.237-5.9.744-8.879.874a22.77,22.77,0,0,1-13.723-3.312,5.123,5.123,0,0,1-1.769-2.373,1.78,1.78,0,0,0-1.91-1.176c-.432.022-.96-.237-1.241.162-.324.453.216.8.442,1.133a2.715,2.715,0,0,1,.151,3.183c-1.09,1.607-2.212,3.28-4.164,4.035-.216.086-.593-.054-.636.259-.3,2.168-2.578,2.158-3.787,3.355-1.068,1.057-2.622.949-3.981,0-.453-.313-.841-1.564-1.51-.669a2.054,2.054,0,0,0,.13,2.611c4.65,3.722,4.2,8.717,3.884,13.841-.216,3.431-1.553,6.495-2.427,9.709-.615,2.276-.2,4.542-.518,6.753-.432,3.064,1.251,6.106-.2,9.17a3.4,3.4,0,0,1-4.617,1.629c-3.064-1.456-3.873-4.779-6.084-6.937-1.8-1.758-3.2-3.841-5.47-5.221-4.477-2.708-8.738-5.75-11.49-10.4-1.4-2.373-2.654-4.747-1.769-7.714.421-1.4-1.036-1.931-2.093-2.956-.022,1.877-.3,3.614-1.931,4.1-1.888.561-3.884,1.273-5.933.475-.227-.086-.583-.291-.658-.216-1.694,1.564-3.484-.022-5.232.119-1.726.129-2.622-1.338-3.15-4.283-1.327.982-2.373,1.758-1.759,3.808.647,2.2-.475,4.315-1.629,6.149a25.758,25.758,0,0,1-9.019,9.008,32.308,32.308,0,0,0-11.651,11.792c-1.047,1.726-3.56,3.053-4.941,2.622a4.681,4.681,0,0,1-2.978-5.308,36.1,36.1,0,0,0,.313-10.5c-.216-2.719-1.553-5.329-2.244-8.026a23.006,23.006,0,0,1,.647-14.834,5.041,5.041,0,0,1,1.974-2.222c.356-.237.863-.41.917-.885.075-.8.432-1.8-.183-2.341-.723-.637-1.025.518-1.553.809-.971.55-2.039,1.046-3,.356-1.553-1.133-3.377-1.748-4.714-3.409-.949-1.176-2.568-2.061-3.754-3.236a3.561,3.561,0,0,1-1.079-4.207c.2-.518,1.37-1.165.388-1.607a1.944,1.944,0,0,0-2.643.7c-2.039,4.132-5.987,4.844-9.925,5.675-4.369.928-8.652-.011-12.978-.345-4.132-.324-8.113.766-12.04,1.942-2.028.6-4.758.065-5.588-1.251a4.67,4.67,0,0,1,1.144-5.847,36.956,36.956,0,0,0,6.851-7.67c1.564-2.179,2.363-4.909,3.484-7.39a23.428,23.428,0,0,1,10-11.241,4.066,4.066,0,0,1,2.708-.593c1.726.334,2.524-.583,3.139-2.061-.539-.464-1.187-.194-1.769-.248a4.259,4.259,0,0,1-3.193-2.967c-.8-2-.388-4.153-1.338-6.149a8.028,8.028,0,0,1-.324-4.218c.259-1.974,1.737-3.021,3.981-3.355-1.4-1.219-2.309-2.125-4.024-1.241-2.233,1.154-4.531.356-6.667-.518a25.168,25.168,0,0,1-10.011-6.926,33.259,33.259,0,0,0-14.09-9.8c-1.6-.593-3.387-2.891-3.344-4.143a4.34,4.34,0,0,1,4.294-4.013c3.787.065,7.411-.917,11.058-1.64,2.007-.4,3.83-1.737,5.675-2.708,5.081-2.675,10.335-3.884,16.031-2.859a5.44,5.44,0,0,1,2.87,1.651,2.017,2.017,0,0,0,1.672.626c.647-.043,1.456-.086,1.694-.593.313-.669-.626-.777-1-1.133a2.752,2.752,0,0,1-1.079-2.837c.658-1.845.787-4.035,2.7-5.254.151-.1.432-.248.41-.291-.734-2.147,1.478-2.848,2.147-4.3C1278.3,585.5,1280.014,585.3,1283.078,586.292Zm-19.7,16.517a23.462,23.462,0,0,0-9.4,2.654,33.384,33.384,0,0,1-6.85,3.312,40.01,40.01,0,0,1-9.731,1.629c-.4.011-.939-.151-1.068.475s.41.7.777.885c1.715.842,3.5,1.6,5.168,2.514,3.5,1.91,6.149,4.844,8.76,7.746a25.024,25.024,0,0,0,8.782,6.1,4.876,4.876,0,0,0,3.916.464,6.158,6.158,0,0,1,7.293,1.359,14.209,14.209,0,0,0,3.873,2.816,2.023,2.023,0,0,1,1.338,2.417,2.091,2.091,0,0,1-2.233,1.629,19.2,19.2,0,0,0-3.927.27c-.539.1-1.057.14-.938.842.291,1.769-.647,3.636.615,5.351.626.841.173,2.589,1.316,2.837,1.025.227,2.255-.475,3.388-.788.3-.086.572-.259.863-.367a2.132,2.132,0,0,1,2.816.755c.7,1.025.226,1.877-.475,2.7a18.094,18.094,0,0,0-2.729,3.981c-1.4,2.978-3.107,3.927-6.344,3.668a2.317,2.317,0,0,0-1.381.442c-3.884,2.168-6.236,5.61-8,9.537-2.082,4.628-3.862,9.429-7.865,12.892-.8.69-1.478,1.521-2.233,2.276a.735.735,0,0,0-.194,1,.764.764,0,0,0,.863.194,42.127,42.127,0,0,1,4.121-1.09c2.417-.388,4.833-1.036,7.314-.777,4.736.5,9.472,1.478,14.219.378,2.546-.593,5.276-1.046,6.365-4.078a3.341,3.341,0,0,1,2.395-1.931c2.676-.8,5.491-.065,8.145-.8,1.219-.334,2.179-.162,2.719.939.572,1.176.032,2.147-.949,2.956-.96.788-1.823,1.694-2.762,2.514-.345.3-.485.68-.237.971.939,1.144,1.791,2.686,2.837,3.334,1.219.755,2.675,2.32,3.992,1.92,1.079-.324,1.7-2.158,2.524-3.312a3.247,3.247,0,0,0,.194-.324,2.086,2.086,0,0,1,2.449-1.295,2.037,2.037,0,0,1,1.521,2.3,24,24,0,0,0,.593,5.383c.5,2.524.313,5.081-2.47,6.484a1.706,1.706,0,0,0-.82.949c-1.651,3.873-1.327,7.854-.367,11.738a53.612,53.612,0,0,0,2.438,8.221,4.227,4.227,0,0,1,.151,1.661c-.032,3.021.281,6.063-.291,9.073-.076.367-.065.777.367.971.593.281.777-.281,1-.593a35.621,35.621,0,0,1,2.492-3.485c1.823-1.931,3.334-4.132,5.707-5.567,3.83-2.309,7.584-4.768,10.4-8.35,1.413-1.8,3.053-3.69,2.471-6.182a5.265,5.265,0,0,1,1.37-5.308c1.715-1.78,3.851-3.139,5.3-5.211a1.755,1.755,0,0,1,2.082-.421,1.61,1.61,0,0,1,1.219,1.7c-.054.939-.2,1.866-.313,2.794-.324,2.8-.151,2.783,2.578,3.409,1.521.345,2.848-.043,4.261-.1,1.78-.065,2.524-.885,2.158-2.686-.183-.917-.281-1.845-.378-2.773-.108-1,.075-1.953,1.144-2.33a2.2,2.2,0,0,1,2.632.9,21.9,21.9,0,0,0,3.549,3.517c2.071,1.661,3.69,3.614,2.557,6.6a2.392,2.392,0,0,0,.065,1.661c1.359,3.938,4.24,6.678,7.4,9.116,2.363,1.812,5.2,3.064,7.379,5.049a32.531,32.531,0,0,1,5.944,7.153c.291.475.55,1.37,1.294,1.111.852-.3.345-1.208.432-1.845.032-.227-.151-.464-.183-.712a27.9,27.9,0,0,1,.129-9.041c.539-2.686,1.51-5.372,2.309-8.048a19.38,19.38,0,0,0,.68-8.318c-.3-2.093-.647-4.283-2.924-5.491-1.251-.669-1.446-2.1-1.5-3.463-.108-2.578,1.079-5.027.766-7.627a1.882,1.882,0,0,1,1.564-2.222,2.084,2.084,0,0,1,2.309,1.208c.68,1.111,1.446,2.179,2.125,3.29.421.69.8.744,1.489.281,1.8-1.2,3.733-2.136,5.092-4,.842-1.165,1.37-1.78-.14-2.719a18.912,18.912,0,0,1-2.309-2.168,2.109,2.109,0,0,1-.572-2.719,2.035,2.035,0,0,1,2.406-.949,27.834,27.834,0,0,0,5.383.453c2.632-.086,5.146.539,6.041,3.625a1.576,1.576,0,0,0,.658.874,19.7,19.7,0,0,0,11.608,2.363c3.031-.216,6.085-1.176,9.062-.928a37.851,37.851,0,0,1,9.105,1.64c.55.183,1.359.917,1.845.065.453-.8-.475-1.23-.939-1.629-4.6-3.905-7.131-9.116-9.418-14.521a19.942,19.942,0,0,0-6.441-8.512c-.852-.626-1.748-1.683-2.967-1.338-2.514.69-4.078-.539-5.394-2.395-1.219-1.715-2.028-3.711-3.528-5.243-.809-.831-1.295-1.737-.507-2.827a2.207,2.207,0,0,1,2.848-.669c1.165.421,2.4.669,3.549,1.1.712.27,1.046.086,1.273-.572.831-2.363,1.7-4.693,1.316-7.293-.108-.766-.27-1.025-1.068-1.154a37.76,37.76,0,0,0-4.121-.27,1.985,1.985,0,0,1-1.974-1.694,1.885,1.885,0,0,1,1.1-2.179,25.161,25.161,0,0,0,4.337-3.129c2.071-1.7,4.4-3.021,7.153-1.154a1.353,1.353,0,0,0,.874.227c4.358-.626,7.746-3.085,10.939-5.9,2.7-2.363,4.617-5.459,7.811-7.433,2.276-1.413,4.714-2.46,7-3.8.378-.216.852-.334.669-.928-.151-.5-.593-.356-.939-.388a50.286,50.286,0,0,1-5.416-.507,43.73,43.73,0,0,1-11.694-4.628,20.95,20.95,0,0,0-11.133-2.395c-.906.054-2.028,0-2.611.8-2.007,2.729-4.617,2.082-7.109,1.23a24.552,24.552,0,0,0-4.822-1.305,2.091,2.091,0,0,1-.486-4.121c1.219-.475,2.406-1,3.6-1.532.367-.162.949-.27.744-.863a23.819,23.819,0,0,0-1.424-4.186c-2.136-3.549-3.312-3.582-6.592-.971-.194.162-.377.334-.572.485a1.9,1.9,0,0,1-2.578.173,2.044,2.044,0,0,1-.626-2.665,22.206,22.206,0,0,0,1.251-4.844c.356-2.3,1.025-4.779,3.69-5.372a5.273,5.273,0,0,0,3.312-2.46c1.813-2.6,2.481-5.685,3.032-8.7a58.9,58.9,0,0,0,.453-8.415,7.518,7.518,0,0,1,.388-2.007,55,55,0,0,1,3.452-8.8c.162-.313.475-.658.054-.992-.356-.291-.68-.129-1.014.108-1.122.777-2.244,1.564-3.4,2.3a22.417,22.417,0,0,1-7.174,3.42c-4.563.971-9.094,2.007-13.14,4.434-1.92,1.154-3.948,2.427-4.369,4.822-.475,2.7-2.05,4.865-4.812,5.416a15.7,15.7,0,0,0-4.24,1.845c-1.046.561-1.985.9-2.9.032s-.68-1.92-.162-2.934c.561-1.111,1.111-2.233,1.672-3.344.2-.4.453-.885-.065-1.144-1.338-.658-2.5-1.791-3.83-2.2-4.175-1.284-4.455-.982-5.513,3.355a6.436,6.436,0,0,0-.183.723,1.882,1.882,0,0,1-1.953,1.877c-1.23.054-1.769-.734-2.158-1.737a18.225,18.225,0,0,0-2.158-4.477c-1.78-2.384-1.672-4.639-.021-7.055a2.373,2.373,0,0,0,.529-1.165,19.22,19.22,0,0,0-4.046-11.684c-3.517-4.768-7.012-9.45-8.048-15.492-.1-.572.065-1.758-.971-1.791-1.219-.043-.615,1.316-1.144,1.856-.1.108,0,.378-.054.55-.993,3.452-2,6.915-4.218,9.817-2.622,3.4-5.329,6.753-6.678,10.9-.863,2.643-2.039,5.34.2,7.994a3.483,3.483,0,0,1,.367,3.237c-.744,2.924-2.891,5.178-3.7,8.091-.237.852-1.154,1.068-2.05.939a1.839,1.839,0,0,1-1.586-1.413c-.162-.539-.237-1.1-.378-1.64-.281-1.09-.281-2.417-.939-3.183-.809-.939-2.017.281-3.085.216-.065,0-.13.032-.183.022-1.888-.27-3.139,1.165-4.369,2.05-2.093,1.521.615,2.8.744,4.294a1.3,1.3,0,0,0,.259.5,2.134,2.134,0,0,1-.27,2.9c-.874.744-1.769.475-2.762-.054a28.783,28.783,0,0,0-4.391-1.964c-2.082-.712-4.51-1.618-4.6-4.348-.075-2.19-1.316-3.42-2.751-4.585-3.614-2.934-7.994-4.3-12.428-5.168a25.244,25.244,0,0,1-10.119-4.38c-.96-.69-2-1.262-2.988-1.92a.756.756,0,0,0-.874-.1c-.442.281-.216.615-.054.971a41.343,41.343,0,0,1,1.855,4.046c.831,2.384,1.942,4.736,2,7.314.1,4.553.334,9.084,1.92,13.4.788,2.147,1.64,4.5,3.938,5.383,2.87,1.1,4.488,2.7,4.693,5.761a15.5,15.5,0,0,0,1.251,4.844,1.978,1.978,0,0,1-.583,2.514,1.886,1.886,0,0,1-2.578-.043c-1.046-.788-2.136-1.532-3.15-2.373-.766-.637-1.23-.529-1.812.248-1.262,1.694-2.751,3.193-3.28,5.4-.3,1.23-.68,2.017.928,2.438,1.014.259,1.92.9,2.913,1.241a2.1,2.1,0,0,1-.5,4.164,20.33,20.33,0,0,0-4.65,1.251c-2.1.809-4.531,1.543-6.333-.334C1267.51,602.938,1265.817,602.841,1263.379,602.808Z" transform="translate(5.867 5.947)" fill="#e5e7e3"/>
    <path id="Path_9957" data-name="Path 9957" d="M1399.108,665.474c-3.884.766-7.886-.119-11.77,1.025-2.827.831-5.168-.324-6.8-2.762-.485-.734-.949-1.187-1.8-.712-2.837,1.586-5.7.809-8.544.1-2.125-.529-2.524-.237-2.125,1.9.55,2.945.4,5.729-1.553,8.177-.669.831-.162,1.4.388,1.92,2.319,2.222,2.686,4.714,1.446,7.67-1.629,3.884-2.276,8.037-3.01,12.158a2.63,2.63,0,0,1-1.791,2.179,2.178,2.178,0,0,1-2.74-.432c-1.208-1.4-3-2.05-4.294-3.258-2.352-2.2-5.189-3.56-7.789-5.329-1.834-1.241-2.341-3.344-2.039-5.491.14-1-.011-1.564-1.014-1.791-2.978-.69-4.758-2.837-6.343-5.222-1.327-2-1.737-2.017-3-.1-1.618,2.449-3.42,4.65-6.473,5.34a1.166,1.166,0,0,0-1,1.489,5.793,5.793,0,0,1-3.3,6.6c-3.905,2.05-7.228,4.952-10.648,7.7a2.451,2.451,0,0,1-2.729.518c-1.111-.432-1.91-1.068-1.866-2.287.065-1.618-.766-3.01-1-4.509a65.219,65.219,0,0,0-2.719-9.8,4.724,4.724,0,0,1,1.553-4.79c1.338-1.251,1.338-2.168.324-3.6-1.456-2.05-1.392-4.456-.96-6.85.453-2.514.129-2.783-2.319-2.158-2.794.723-5.6,1.4-8.35-.173a1.033,1.033,0,0,0-1.5.3c-1.974,3.388-4.855,3.776-8.393,2.956-3.733-.863-7.617-.615-11.425-.766a2.809,2.809,0,0,1-2.751-1.467,2.431,2.431,0,0,1,.345-3.075,17.914,17.914,0,0,0,1.737-3.269,96.657,96.657,0,0,0,4.391-9.763,4.711,4.711,0,0,1,4.412-2.751c1.64-.054,2.212-.615,2.309-2.147.183-2.87,2.168-4.671,4.046-6.527,1.6-1.586,1.521-1.823-.561-2.8-2.622-1.23-5.211-2.5-6.333-5.48a1.21,1.21,0,0,0-1.672-.766c-3.3,1.014-5.707,0-7.757-2.816-2.309-3.161-5.513-5.524-8.426-8.1a3.135,3.135,0,0,1-1.316-3.042c.173-1.349,1.057-1.877,2.255-2.147a28.666,28.666,0,0,0,3.6-1.532,82.807,82.807,0,0,0,9.364-4.477,5.137,5.137,0,0,1,5.491.8c1.111.831,1.8,1.014,2.783-.14,1.629-1.9,3.949-2.2,6.29-2.384,3.582-.28,3.582-.291,2.115-3.549-1-2.233-1.953-4.488-1-7.012.367-.992-.022-1.607-.982-2.071a6.191,6.191,0,0,1-3.938-6.4c.227-4.358-.636-8.652-1.338-12.935a2.79,2.79,0,0,1,3.539-3.075c4.617,1.532,9.181,3.193,14.057,3.884,2.287.324,3.56,2.222,4.11,4.412.248,1,.539,1.672,1.683,1.5,3.075-.453,5.427,1.133,7.735,2.783,1.942,1.392,2.093,1.305,2.762-.971.809-2.74,1.478-5.6,4.3-7.153a1.107,1.107,0,0,0,.475-1.489c-2.233-3.981-.183-6.8,2.352-9.655,2.266-2.557,3.819-5.631,5.61-8.523.647-1.036,1.219-1.791,2.568-1.8a2.577,2.577,0,0,1,2.7,1.877,19.011,19.011,0,0,0,1.888,2.978,91.826,91.826,0,0,0,6.3,8.792c1.359,1.715.841,3.808.054,5.7-.345.831-.626,1.64.259,2.147,2.87,1.651,3.5,4.563,4.3,7.368.561,1.942.852,2.115,2.46.928,2.46-1.812,4.941-3.463,8.231-2.978.852.129,1.23-.41,1.4-1.176.647-2.837,2.222-4.531,5.3-4.93,4.294-.55,8.35-2.115,12.417-3.517a2.72,2.72,0,0,1,3.085.464,2.316,2.316,0,0,1,.788,2.826,15.953,15.953,0,0,0-.518,3.873,104.9,104.9,0,0,0-.809,10.583c-.032,2.05-1.7,3.388-3.506,4.337-.755.4-1.737.658-1.316,1.877,1.046,3-.119,5.631-1.381,8.231-.971,2-.906,2.1,1.262,2.47,2.19.378,4.682.065,6.4,1.672,1.683,1.564,2.9,2.007,4.984.539a4.945,4.945,0,0,1,5.653.3c3.754,2.481,8.037,3.819,12.148,5.534.993.41,1.651.9,1.812,1.9.173,1.057.248,2.136-.885,2.848-1.456.9-2.417,2.406-3.7,3.388-2.686,2.028-4.628,4.682-6.915,7.045-1.521,1.564-3.592,1.435-5.48,1-1.219-.281-1.834-.216-2.33.982-1.144,2.783-3.7,3.938-6.192,5.114-2.05.971-2.147,1.23-.485,2.8,2.168,2.071,4.078,4.251,4.175,7.465.032.949.69,1.046,1.435,1.1,2.88.227,4.887,1.5,5.793,4.412,1.316,4.2,3.6,7.962,5.729,11.781a2.473,2.473,0,0,1,.032,2.783,2.311,2.311,0,0,1-2.4,1.413C1399.993,665.442,1399.551,665.474,1399.108,665.474Zm-37.672,26.906c1.079-1.241.55-2.406.777-3.452a25.557,25.557,0,0,1,1.079-3.172c.6-1.694,1.165-3.409,1.834-5.081a1.966,1.966,0,0,0-.432-2.406c-1.424-1.133-1.855-2.751-2.524-4.283a1.912,1.912,0,0,1,.766-2.751,3.187,3.187,0,0,0,1.607-3.15c-.032-1.683-.3-3.366-.313-5.049-.011-2.762,1.694-4.164,4.434-4.035a36.711,36.711,0,0,1,4.747,1c1.607.281,3.1.442,4.229-1.09a1.348,1.348,0,0,1,1.694-.5c1.338.777,3.085,1.2,3.841,2.589,1.176,2.147,2.772,1.931,4.768,1.661,2.9-.4,5.729-1.672,8.782-.939.388.1,1.111.248,1.349-.291a1.532,1.532,0,0,0-.561-1.672,6.107,6.107,0,0,1-1.8-3.193c-.7-1.931-1.413-3.851-2.093-5.782-.334-.949-.863-1.91-1.877-1.834-1.931.14-3.291-1.036-4.876-1.7a1.778,1.778,0,0,1-1.111-2.46c.669-1.51-.075-2.492-.874-3.571-1.079-1.467-2.632-2.514-3.657-4.046a3.765,3.765,0,0,1,1.09-5.642c1.532-.949,3.172-1.715,4.768-2.568a3.145,3.145,0,0,0,2.007-3.1,1.406,1.406,0,0,1,1.068-1.586c1.521-.216,3.085-1.133,4.574-.485,2.061.9,3.129-.065,4.423-1.489,2.028-2.233,3.344-5.168,6.29-6.548.421-.194,1.154-.755.885-1.273a1.919,1.919,0,0,0-1.543-.885c-1.359.194-2.255-.615-3.258-1.165q-2.88-1.57-5.675-3.29a2.028,2.028,0,0,0-2.438-.086c-1.392,1.349-3.2,1.295-4.833,1.823a1.731,1.731,0,0,1-2.417-1.144c-.475-1.575-1.661-1.942-2.978-2.19-1.845-.345-3.744-.27-5.556-.831a3.622,3.622,0,0,1-2.643-4.758c.583-1.769,1.37-3.474,2.061-5.2a2.986,2.986,0,0,0-.356-3.463,1.787,1.787,0,0,1,.075-2.7c1.187-1.154,2.05-2.708,3.841-3.2a1.788,1.788,0,0,0,1.294-1.683c.237-3.841-.529-7.735.734-11.522.3-.885-.13-1.133-1.133-.852-.939.27-1.5,1.111-2.481,1.251-2.395.356-4.79.787-7.185,1.144-1.618.248-2.87.852-3.1,2.686-.216,1.769-1.759,2.675-2.665,4a1.482,1.482,0,0,1-2.061.205,3.366,3.366,0,0,0-3.851.291c-1.424.906-2.8,1.888-4.294,2.7-2.406,1.305-4.65.485-5.61-2.05-.615-1.629-1-3.334-1.575-4.973-.442-1.262-1.046-2.395-2.675-2.524a1.516,1.516,0,0,1-1.478-1.651c.119-1.78-.367-3.668.82-5.3a1.858,1.858,0,0,0-.2-2.417c-2.222-2.978-5.265-5.351-6.646-8.976-.442-1.144-1.079-.8-1.5.076a13.422,13.422,0,0,1-1.759,3.258c-1.532,1.737-2.967,3.571-4.52,5.3a2.233,2.233,0,0,0-.378,3.042c1.09,1.661.572,3.539.636,5.319a1.38,1.38,0,0,1-1.359,1.349c-1.715.119-2.319,1.295-2.783,2.643-.583,1.7-.993,3.485-1.672,5.146a3.608,3.608,0,0,1-5.265,1.888c-1.6-.863-3.085-1.91-4.617-2.87a3.257,3.257,0,0,0-3.69-.27,1.558,1.558,0,0,1-2.212-.248c-.949-1.359-2.427-2.363-2.676-4.218a2.178,2.178,0,0,0-1.651-2.05c-3.992-.992-8.275-.831-11.878-3.118-.906,1.888.658,3.161.529,4.768-.183,2.373.011,4.779-.065,7.163a2.435,2.435,0,0,0,1.769,2.729c1.748.572,2.524,2.19,3.69,3.388a1.608,1.608,0,0,1-.173,2.244c-1.079,1.133-.809,2.33-.388,3.636.529,1.672,1.553,3.118,2.007,4.833.669,2.589-.27,4.456-2.891,5.081a36.576,36.576,0,0,1-4.067.593c-1.823.237-3.668.367-4.283,2.622a1.352,1.352,0,0,1-1.478.971c-1.618-.4-3.452-.216-4.8-1.359-1.327-1.111-2.417-.906-3.873-.151-2.891,1.5-5.351,3.884-8.782,4.3-.41.054-1.165.291-1.1.788a2.023,2.023,0,0,0,.982,1.273,6.039,6.039,0,0,1,2.125,1.456c1.51,1.92,3.085,3.787,4.639,5.675a2.628,2.628,0,0,0,3.431.96c1.7-.809,3.3.173,4.941.324a1.39,1.39,0,0,1,1.122,1.554c-.108,1.629.831,2.535,2.114,3.226,1.6.852,3.247,1.6,4.779,2.557a3.756,3.756,0,0,1,1.014,5.534c-1.057,1.6-2.665,2.654-3.765,4.2-.734,1.025-1.424,1.985-.8,3.42a1.8,1.8,0,0,1-1.057,2.492c-1.586.669-2.934,1.91-4.865,1.726-.723-.076-1.327.5-1.683,1.284-1.521,3.431-2.071,7.282-4.531,10.3-.636.788-.216,1.079.734,1.241,1.079.183,1.942-.529,3.107-.237,2.578.658,5.265.885,7.9,1.359a1.925,1.925,0,0,0,2.255-.928c.82-1.672,2.481-2.222,3.83-3.193a1.672,1.672,0,0,1,2.514.259c1.079,1.381,2.449,1.327,3.905,1.036,1.1-.227,2.158-.615,3.258-.82,1.7-.3,3.4-.69,4.941.744,1.78,1.661,1.305,3.69,1.09,5.631-.259,2.287-.658,4.488,1.813,5.944a1.611,1.611,0,0,1,.464,2.2c-.755,1.543-1.046,3.312-2.578,4.477a2.035,2.035,0,0,0-.421,2.557c.939,2.3,1.586,4.725,2.589,6.991.636,1.424-.421,3.118.863,4.315,1.715-.237,2.05-2.082,3.441-2.762,2.179-1.057,4.229-2.417,6.354-3.6a2.512,2.512,0,0,0,1.392-3.075c-.4-1.877.777-3.452,1.392-5.1a1.337,1.337,0,0,1,1.651-.6c1.543.507,2.5-.3,3.355-1.392,1.079-1.381,2.039-2.859,3.2-4.164,1.845-2.05,4.186-2.071,6.009-.043,1.208,1.349,2.2,2.88,3.323,4.3a2.8,2.8,0,0,0,3.226,1.295,1.4,1.4,0,0,1,1.78.69c.507,1.737,1.877,3.3,1.241,5.319a2.028,2.028,0,0,0,.8,2.341C1354.639,687.515,1358.6,689.014,1361.436,692.38Z" transform="translate(8.464 8.582)" fill="#e5e7e3"/>
    <path id="Path_9958" data-name="Path 9958" d="M1307.434,608.049a17.581,17.581,0,0,0-3-4.466c-1.176-1.456-2.481-2.8-3.711-4.207a2.037,2.037,0,0,1-.356-2.438c.432-.831,1.262-.917,2.125-.885a4.777,4.777,0,0,1,2.384,1.014,11.354,11.354,0,0,0,6.667,2.028,3.828,3.828,0,0,0,3.722-4.229c-.28-2.007-.237-4.1-1.262-5.955a3.563,3.563,0,0,1-.453-1.413,2.436,2.436,0,0,1,1.111-2.6c1.068-.539,1.9.032,2.6.874,1.834,2.212,3.711,4.391,5.567,6.581a2.5,2.5,0,0,0,1.726,1.144c.939-3.452.41-6.958.529-10.421.032-1.046-.054-2.071,1.208-2.427a2.155,2.155,0,0,1,2.5,1.23,26.642,26.642,0,0,1,1.23,2.9,10.968,10.968,0,0,0,3.539,4.865c1.953,1.327,4.283.6,5.631-1.338a20.469,20.469,0,0,0,2.848-5.6,3.789,3.789,0,0,1,.939-1.381,1.916,1.916,0,0,1,2.2-.647c.885.324,1.068,1.079,1.09,1.974.086,3.193-.334,6.4.27,9.569.075.4-.173,1,.3,1.176.507.183.949-.237,1.273-.615,1.877-2.179,3.744-4.358,5.588-6.57.788-.949,1.586-2.05,2.934-1.327a2.369,2.369,0,0,1,.917,3.28,26.275,26.275,0,0,0-1.489,6.3,4.19,4.19,0,0,0,5.2,4.617,14.919,14.919,0,0,0,5.48-2.222,3.987,3.987,0,0,1,1.51-.723c1-.194,2.082-.27,2.686.788.583,1.025.14,1.866-.594,2.708a83.979,83.979,0,0,0-5.621,6.753,4.056,4.056,0,0,0-.734,1.629c2.622.388,5.049-.5,7.53-.82,1.23-.162,2.438-.507,3.668-.572,1.813-.1,2.557,1.295,1.683,2.891a4.018,4.018,0,0,1-1.963,1.683,16.406,16.406,0,0,0-4.671,3.657,4.116,4.116,0,0,0,.906,6.419c1.791.928,3.6,1.92,5.729,1.953a4.034,4.034,0,0,1,2.438.852,1.964,1.964,0,0,1,.982,2.071,2,2,0,0,1-1.9,1.553,69.285,69.285,0,0,0-8.782,1.554c-.594.151-1.4.162-1.5.852-.086.572.626.852,1.09,1.176,2.33,1.7,4.952,2.9,7.422,4.358,1.046.615,2.017,1.284,1.51,2.632a2.444,2.444,0,0,1-2.988,1.413,20.476,20.476,0,0,0-6.635-.356,4.091,4.091,0,0,0-3.431,6.074,25.088,25.088,0,0,0,3.549,5.416,2.482,2.482,0,0,1,.226,3.431c-1,1.122-2.017.41-3.021-.162a82.923,82.923,0,0,0-7.444-4.218c-.507-.227-1.111-.583-1.5-.194-.248.248-.129.96-.021,1.435a73.751,73.751,0,0,0,2.783,7.9c.421,1.133,1.057,2.352-.28,3.193s-2.6.162-3.474-.917a23.023,23.023,0,0,0-4.488-4.2c-2.891-2.093-5.847-.906-6.8,2.568a28.577,28.577,0,0,0-.68,6.085c-.075,1.305-.485,2.578-1.985,2.816-1.553.248-1.91-1.014-2.341-2.158a72.1,72.1,0,0,0-3.182-8.339c-.194-.378-.291-.917-.841-.841-.388.054-.5.5-.68.831-1.446,2.762-2.212,5.793-3.312,8.7-.4,1.046-.831,1.877-2.017,1.866s-1.759-.928-2.017-1.931a6.313,6.313,0,0,1-.173-2.417c.3-1.942-.453-3.711-.917-5.48a3.941,3.941,0,0,0-5.955-2.125c-1.661,1.176-3.528,2.168-4.585,4.067a3.525,3.525,0,0,1-1.036,1.079c-.9.637-1.91,1.122-2.945.421-1.111-.744-.842-1.78-.421-2.859a76.328,76.328,0,0,0,2.934-8.242c.14-.529.367-1.241-.108-1.575-.259-.183-.939.14-1.392.334a76.485,76.485,0,0,0-7.617,4.283c-1,.561-1.91,1.079-2.87.108-.9-.917-.55-1.985-.086-2.967a6.625,6.625,0,0,1,1.025-1.327c1.64-1.963,3.1-4.024,3.247-6.678a3.553,3.553,0,0,0-3.258-3.873c-2.276-.237-4.574-.593-6.829.216a2.8,2.8,0,0,1-1.823-.119c-.863-.259-1.51-.637-1.661-1.564a1.978,1.978,0,0,1,1.241-2.1c2.535-1.478,5.07-2.934,7.584-4.456.55-.334,1.467-.615,1.23-1.435-.162-.55-.982-.593-1.6-.744a68.287,68.287,0,0,0-8.6-1.51,2.047,2.047,0,0,1-1.931-1.521c-.27-1.046.367-1.661,1.09-2.19a3.954,3.954,0,0,1,2.276-.766c2.125-.032,3.938-1.025,5.729-1.942a4.045,4.045,0,0,0,1.079-6.246c-1.295-1.305-2.449-2.827-4.272-3.549a6.832,6.832,0,0,1-1.748-1.079,2.385,2.385,0,0,1-.939-2.827c.485-1.23,1.618-1.068,2.589-.928,2.46.367,4.909.787,7.336,1.284A14.578,14.578,0,0,0,1307.434,608.049Zm60.382,3.668c-2.708-.324-5.9,1.791-7.66-2.179-.464-1.057-.691-1.78,0-2.719.906-1.241,1.37-2.762,2.837-4.035-3.053.14-5.707.41-7.983-1.543-2.222-1.9-2.708-4.423-2.87-7.681-1.068,2-2.632,2.675-3.765,3.841-1.413,1.456-2.643-.313-3.981-.367-.788-.032-1.111-.852-1.2-1.694-.162-1.564-.41-3.129-.636-4.79-5.265,4.844-7.5,4.865-13.8.183a29.53,29.53,0,0,0-.615,4.445c.022,2.319-2.093,1.769-3.172,2.557-.712.518-1.521.173-2.2-.464-1.154-1.079-2.373-2.093-3.69-3.247,0,2.9-.615,5.351-2.8,7.228-2.255,1.931-4.919,1.694-7.94,1.521,1.51,1.327,1.974,2.934,2.934,4.218a1.854,1.854,0,0,1,.183,2.1c-.971,2.007-2.287,3.258-4.779,2.816-1.047-.183-2.168-.129-3.452-.442,1.877,2.32,3.139,4.477,2.729,7.465-.432,3.107-2.546,4.682-5.07,6.441,2.017.043,3.463.96,5.07,1.349,1.953.475,1.144,2.406,1.7,3.625.345.744-.162,1.4-.841,1.91-1.381,1.025-2.719,2.115-4.121,3.215,2.816.3,5.092,1.219,6.678,3.657,1.629,2.492,1.23,5.06.507,7.886a40.437,40.437,0,0,0,3.992-1.478c1.262-.626,1.985-.324,3.129.529,1.607,1.187,1.834,2.255,1.392,4.089-.281,1.154-.593,2.363-.852,3.657,5.373-2.9,10.249-2.039,13.075,4.747a33.1,33.1,0,0,1,1.953-3.916,2.675,2.675,0,0,1,2.719-1.694,3.366,3.366,0,0,1,3.851,2.352c.475,1.057,1.014,2.125,1.6,3.161,2.643-6.43,7.336-7.66,13.086-4.639-.734-1.618-.636-3.269-1.165-4.779-.723-2.093,1.413-2.363,2.2-3.474.529-.744,1.413-.55,2.244-.194,1.327.583,2.708,1.057,4.434,1.715-.939-2.924-1.187-5.47.4-7.972,1.564-2.46,3.927-3.312,7-3.722-1.985-.841-3.032-2.255-4.456-3.15-1.791-1.122-.324-2.632-.464-3.938a1.522,1.522,0,0,1,1.359-1.586c1.607-.367,3.042-1.305,4.876-1.349C1363.824,621.146,1364.223,616.01,1367.815,611.717Z" transform="translate(10.597 10.869)" fill="#e5e7e3"/>
    <path id="Path_9959" data-name="Path 9959" d="M1334.366,643.759c-.68,1.791-1.187,3.172-1.737,4.531-.367.906-.917,1.726-2,1.769a2.316,2.316,0,0,1-2.136-1.586c-.194-.388-.464-.744-.658-1.133-.906-1.834-2.136-2.33-4.132-1.446-1.176.518-2.686,1.586-3.938.054-1.122-1.37-.1-2.719.324-4.046.27-.874.593-1.737,1.036-3-1.661.906-2.978,1.618-4.294,2.352a2.287,2.287,0,0,1-2.654.054,2.045,2.045,0,0,1-.6-2.535,20.141,20.141,0,0,0,.345-2.212,2.23,2.23,0,0,0-1.295-2.481,7.206,7.206,0,0,0-2.071-.788,2.279,2.279,0,0,1-2.093-1.856c-.173-1.068.561-1.737,1.413-2.244,1.262-.755,2.535-1.51,4.164-2.471-1.856-.378-3.377-.658-4.887-1.025-.863-.205-1.7-.539-1.92-1.575a2.151,2.151,0,0,1,1.111-2.384,1.561,1.561,0,0,0,.291-.237c2.729-2.406,2.8-2.686,1.014-5.772-.55-.949-1.262-1.78-.485-2.9.755-1.09,1.856-.852,2.913-.712,1.349.183,2.675.421,4.466.712-.9-1.122-1.575-1.942-2.233-2.794a10.8,10.8,0,0,1-1.392-1.985,1.809,1.809,0,0,1,1.586-2.686,23.14,23.14,0,0,1,2.449-.043c1.586.022,2.643-.55,2.8-2.3a13.954,13.954,0,0,1,.442-2.2c.518-1.953,1.931-2.427,3.506-1.187,1.327,1.046,2.158,2.546,3.463,3.927.432-1.888-.108-3.668.356-5.373.539-1.974,1.845-2.481,3.431-1.23.248.194.432.464.669.658,2.46,2.039,3.075,2.06,5.524-.076.874-.766,1.683-1.64,2.945-1.079,1.413.637,1.338,2.1,1.327,3.28-.011,1.208.086,2.384.043,3.948,1.154-1.381,2.007-2.514,2.967-3.539.723-.777,1.575-1.575,2.783-1.111,1.079.421,1.284,1.435,1.446,2.46.572,3.582.852,3.819,4.4,3.83,1.057,0,2.19-.183,2.783,1.036.626,1.273-.227,2.168-.874,3.053-.766,1.046-1.672,1.985-2.848,3.355,1.985-.291,3.517-.55,5.049-.744a2.177,2.177,0,0,1,2.471.9,2.108,2.108,0,0,1-.324,2.438c-.4.626-.712,1.316-1.057,1.974a2.168,2.168,0,0,0,.55,2.988c.583.475,1.1,1.036,1.7,1.478a2.164,2.164,0,0,1,.993,2.266c-.183,1.046-1.025,1.4-1.877,1.6-1.5.356-3.021.615-4.736.949,1.219,1.187,2.719,1.651,3.948,2.524.8.572,1.586,1.165,1.446,2.233-.151,1.122-1,1.543-2.039,1.909-1.392.5-3.236.7-3.431,2.665a11.139,11.139,0,0,0,.378,2.945c.367,2.179-.863,3.29-2.9,2.514a15.7,15.7,0,0,1-2.1-1.2c-.7-.388-1.413-.755-2.287-1.219.022,1.748,1.014,3.075,1.37,4.585a2.4,2.4,0,0,1-.367,2.46,2.212,2.212,0,0,1-2.611.313c-.636-.248-1.305-.41-1.931-.7a2.143,2.143,0,0,0-3.021.992c-.464.744-.863,1.521-1.349,2.255-1.057,1.586-2.686,1.586-3.571-.1C1335.672,647.352,1335.165,645.744,1334.366,643.759Zm-21.037-21.177c2.988.453,3.118.647,3.981,4.089.561,2.233-.809,3.193-2.6,4.1a8.319,8.319,0,0,1,3.182,5.437c3.441-1.7,2.967-1.456,5.966.766,1.769,1.316.949,2.934.485,4.563a10.347,10.347,0,0,1,6.052,2.276c.367-3.377,2.643-3.431,4.984-3.344,1.64.054,2.438,1.046,2.848,2.524.13.464.432.8.949.334,1.489-1.305,3.366-1.564,5.232-1.856-.949-3.1-.928-3.085,1.942-5.642,1.64-1.456,3.01-.345,4.52.41a8.333,8.333,0,0,1,3.118-5.394c-2.945-2.007-3.053-2.212-2.222-5.966.41-1.866,2.093-2.017,3.8-2.341-1.553-1.9-1.284-4.067-1.208-6.29-1.748.561-3.291.777-4.272-.8-1.251-2.017-2.654-4.132.2-6.192-1.812-.82-3.334-1.629-4.229-3.139-.6-1.025-.96-.744-1.618-.043-1.456,1.586-6.279.982-6.451-.982-.27-3.15-2.05-2.417-3.851-2.287a3.966,3.966,0,0,1-1.672-.183c-.9-.356-1.316-.216-1.241.809.2,2.826-2.19,3-3.927,3.711-1.23.507-2.3-.1-3.107-1.154-.237-.313-.626-1.111-1.111-.324a9.87,9.87,0,0,1-4.65,3.646c2.7,1.888,1.651,3.83.464,5.826a2.81,2.81,0,0,1-3.679,1.327c-.777-.248-.874.194-.777.777A7.952,7.952,0,0,1,1313.329,622.582Z" transform="translate(11.875 12.109)" fill="#e5e7e3"/>
  </g>
</svg>
