<svg xmlns="http://www.w3.org/2000/svg" width="246.712" height="252.959" viewBox="0 0 246.712 252.959">
  <path id="Intersection_3" data-name="Intersection 3" d="M9987.908,24911a7.051,7.051,0,0,1,2.513-.549c1.944-.062,2.645-.713,2.77-2.57.206-3.244,2.382-5.389,4.482-7.459l.175-.174.176-.176c.931-.918,1.394-1.463,1.318-1.92s-.675-.812-1.994-1.432h-.019a25.449,25.449,0,0,1-4.439-2.494,9.052,9.052,0,0,1-3.113-4.051,1.385,1.385,0,0,0-1.338-1.031,2.191,2.191,0,0,0-.656.105,9.448,9.448,0,0,1-2.807.457c-2.514,0-4.564-1.213-6.472-3.82a46.144,46.144,0,0,0-7.658-7.609l-.006-.006c-.132-.111-.263-.225-.407-.344l-.037-.037c-.619-.52-1.312-1.113-1.97-1.7a3.74,3.74,0,0,1-1.568-3.637,2.962,2.962,0,0,1,2.694-2.564,11.986,11.986,0,0,0,2.588-1.037l.05-.025.013-.006a17.316,17.316,0,0,1,1.663-.764,99.24,99.24,0,0,0,11.116-5.307l.068-.045a5,5,0,0,1,2.376-.588,7.163,7.163,0,0,1,4.2,1.531,2.965,2.965,0,0,0,1.738.807,2.156,2.156,0,0,0,1.588-.969c1.932-2.244,4.664-2.631,7.527-2.85,2.132-.17,3.2-.25,3.521-.783s-.119-1.512-.988-3.443v-.006l-.006-.008c-1.113-2.469-2.376-5.27-1.207-8.389.419-1.119.057-1.883-1.169-2.477a8.4,8.4,0,0,1-3.626-2.994,7.643,7.643,0,0,1-1.088-4.658,62.382,62.382,0,0,0-1.275-13.541l-.088-.52-.019-.125c-.031-.17-.057-.344-.088-.514-.044-.256-.087-.512-.125-.768a3.388,3.388,0,0,1,3.27-3.834,2.9,2.9,0,0,1,.963.164l.025.006c.675.225,1.351.449,1.976.662l.031.014.088.031a83.946,83.946,0,0,0,14.686,3.926c3.232.455,4.47,3.508,4.914,5.275.244,1,.538,1.826,1.613,1.826a2.659,2.659,0,0,0,.406-.031,8.706,8.706,0,0,1,1.263-.094c2.964,0,5.271,1.482,7.978,3.426,1.069.758,1.613,1.094,2.02,1.094.568,0,.813-.656,1.288-2.256l.181-.619c.882-3.045,1.788-6.2,4.964-7.945a1.338,1.338,0,0,0,.669-.826,1.247,1.247,0,0,0-.1-.951,7.3,7.3,0,0,1-.737-6.27,17.255,17.255,0,0,1,3.551-5.271,46.848,46.848,0,0,0,5.07-7.451l.037-.062c.407-.7,1.02-1.732,1.6-2.676.775-1.25,1.451-2.139,3.063-2.15a.314.314,0,0,1,.082-.008,3.079,3.079,0,0,1,3.15,2.252,10.68,10.68,0,0,0,1.413,2.338l.006.012c.263.352.569.77.838,1.207a109.024,109.024,0,0,0,7.534,10.516c1.688,2.133.919,4.764.063,6.809-.444,1.051-.726,1.969.313,2.57,3.17,1.818,4.063,4.977,4.927,8.027l.006.037c.05.182.131.463.213.744.394,1.357.675,2.006,1.231,2.006.026,0,.054,0,.081,0v4.9a4.61,4.61,0,0,1-.851.078,4.39,4.39,0,0,1-4.076-3.182c-.406-1.094-.744-2.238-1.044-3.252v-.012l-.006-.02-.013-.043c-.25-.85-.513-1.744-.812-2.625-.488-1.377-1.176-2.857-3.208-3.02a1.8,1.8,0,0,1-1.763-1.971c.031-.531.019-1.082.013-1.619v-.088c-.044-1.574-.081-3.193.963-4.625a2.212,2.212,0,0,0-.244-2.895c-.875-1.182-1.869-2.283-2.826-3.346l-.031-.031v-.006c-1.963-2.189-3.982-4.459-5.089-7.354-.212-.562-.494-.861-.807-.861-.331,0-.693.35-.987.955-.15.32-.288.627-.426.951l-.006.006a11.11,11.11,0,0,1-1.669,2.939c-.863.975-1.738,2.02-2.507,2.943l-.013.014-.013.018c-.856,1.031-1.863,2.232-2.876,3.352-1.138,1.295-1.275,2.389-.45,3.645a7.305,7.305,0,0,1,.8,4.652v.037l-.007.145v.012c-.024.5-.05,1.02-.031,1.514a1.653,1.653,0,0,1-1.625,1.613c-2.12.148-2.808,1.643-3.333,3.156-.269.795-.513,1.613-.719,2.313l-.019.057a38.845,38.845,0,0,1-1.257,3.789,4.282,4.282,0,0,1-4,2.863,4.864,4.864,0,0,1-2.295-.605c-1.294-.7-2.538-1.508-3.751-2.295l-.019-.014-.069-.043-.112-.074-.231-.15-.138-.088c-.394-.25-.8-.514-1.2-.764a4.737,4.737,0,0,0-2.557-.869,3.523,3.523,0,0,0-1.857.545,2.554,2.554,0,0,1-1.307.406,1.557,1.557,0,0,1-1.331-.7,14.608,14.608,0,0,0-1.138-1.389,6.9,6.9,0,0,1-2.069-3.658,2.588,2.588,0,0,0-1.976-2.457c-1.488-.369-3.063-.611-4.465-.824l-.168-.031h-.007c-3.251-.488-6.608-.994-9.559-2.869a4.039,4.039,0,0,0,.156,3.5,5.1,5.1,0,0,1,.475,2.207c-.131,1.656-.1,3.326-.075,4.934.02,1.25.031,2.463,0,3.631a2.887,2.887,0,0,0,2.113,3.258,7.278,7.278,0,0,1,3.282,2.732c.351.438.726.9,1.126,1.318a1.917,1.917,0,0,1-.2,2.689c-1.3,1.355-.981,2.77-.469,4.338a19.851,19.851,0,0,0,1.088,2.57l.012.025.025.057.013.012.006.02a16.841,16.841,0,0,1,1.257,3.105,5.187,5.187,0,0,1-.319,4.033,4.792,4.792,0,0,1-3.138,2.045,30.475,30.475,0,0,1-3.521.551h-.019l-.125.012h-.019c-.132.02-.263.031-.419.051l-.182.018c-.193.025-.388.045-.581.068l-.132.02a.443.443,0,0,0-.087.012c-.031,0-.062.008-.094.008l-.025.006c-2.1.275-4.082.537-4.782,3.094a1.682,1.682,0,0,1-1.507,1.2,1.813,1.813,0,0,1-.257-.025,13.747,13.747,0,0,0-1.812-.312h-.019v-.006a7.233,7.233,0,0,1-3.914-1.314,3.363,3.363,0,0,0-2.232-.932,5.219,5.219,0,0,0-2.4.752c-1.051.543-2.069,1.193-3.107,1.869l-.006-.008c-2.232,1.445-4.539,2.939-7.384,3.289a2.023,2.023,0,0,0-1.207.537.525.525,0,0,0-.112.4,2.413,2.413,0,0,0,1.182,1.52c.063.037.125.068.182.1l.068.031c.057.031.112.063.163.094l.043.014.025.018a5.727,5.727,0,0,1,2.057,1.482c1.226,1.576,2.551,3.17,3.714,4.582l.081.094.156.2.4.469.244.307c.294.344.631.75.95,1.143a3.429,3.429,0,0,0,2.657,1.508,3.314,3.314,0,0,0,1.444-.357,3.947,3.947,0,0,1,1.713-.381,9.453,9.453,0,0,1,2.251.369l.087.025.007.006h.019a11.8,11.8,0,0,0,1.838.369,1.66,1.66,0,0,1,1.338,1.855c-.144,2.145,1.275,3.189,2.525,3.859.606.33,1.232.643,1.895.975l.025.018.056.031.02.008c1.169.588,2.5,1.262,3.72,2.025a4.374,4.374,0,0,1,2.051,2.787,5.049,5.049,0,0,1-.832,3.834,16.294,16.294,0,0,1-2.3,2.588l-.037.037a17.3,17.3,0,0,0-2.17,2.389v.006c-.875,1.219-1.7,2.369-.956,4.082a2.444,2.444,0,0,1,.21,1.031Zm-20.031,0a7.8,7.8,0,0,1-.732-1.418,12.844,12.844,0,0,1-.706-3.445l-.007-.049v-.008a11.6,11.6,0,0,0-.894-3.852,9.668,9.668,0,0,1-.382-5.045c.288-2.238,1.889-3.588,4.758-4.008l-.031-.031-.144-.125-.05-.043-.025-.025-.006-.006c-1.082-.937-1.938-1.676-3.026-1.676a3.254,3.254,0,0,0-1.525.426,6.15,6.15,0,0,1-2.876.682,13.723,13.723,0,0,1-5.1-1.307,29.792,29.792,0,0,1-11.972-8.271,39.854,39.854,0,0,0-16.85-11.723c-1.851-.682-4.051-3.414-4-4.951a5.19,5.19,0,0,1,5.039-4.8h.094c.138.008.275.008.425.008a49.717,49.717,0,0,0,10.234-1.434l.007-.006.019-.006c.188-.037.375-.074.568-.119l.275-.057c.513-.105,1.082-.225,1.694-.35a16.719,16.719,0,0,0,4.952-2.2l.068-.037.119-.068c.5-.293,1.081-.631,1.65-.926a30.423,30.423,0,0,1,14.367-3.852,27.794,27.794,0,0,1,4.795.426,6.338,6.338,0,0,1,3.433,1.982,2.428,2.428,0,0,0,1.788.756c.037,0,.068-.006.1-.006h.138l.024-.006h.007c.756-.057,1.694-.125,1.976-.707.256-.543-.2-.781-.632-1.014l-.024-.012h-.02l-.012-.012-.013-.008a2.481,2.481,0,0,1-.507-.312c-.7-.662-1.794-1.98-1.281-3.395.2-.562.362-1.162.481-1.6.487-1.75.987-3.559,2.738-4.684.031-.018.075-.043.125-.074l.013-.006.013-.008c.156-.094.355-.219.337-.262-.575-1.687.382-2.639,1.307-3.557a5.924,5.924,0,0,0,1.263-1.588,3.22,3.22,0,0,1,3.214-2,11.956,11.956,0,0,1,3.545.707c-.169-1.826-.443-3.176-2.5-3.932-4.514-1.639-6.158-5.809-7.739-9.834l-.082-.207c-2.062-5.232-2.163-10.816-2.257-16.225v-.023a9.047,9.047,0,0,0-.844-3.252l-.013-.031-.006-.02c-.213-.537-.426-1.062-.588-1.605a34.452,34.452,0,0,0-2.576-6.621,10.316,10.316,0,0,1-1.494-5.482,4.3,4.3,0,0,1,1.095-2.914,3.6,3.6,0,0,1,2.713-1.014,6.522,6.522,0,0,1,.775.045,9.669,9.669,0,0,1,4.12,1.781l.006.006.138.082c.231.15.456.3.682.426.862.531,1.731,1.094,2.363,1.5,3.295,2.107,6.7,4.289,10.878,5.1a50.329,50.329,0,0,1,8.979,2.457,27.715,27.715,0,0,1,8.09,4.713c2.457,2.088,4.67,4.246,4.87,7.666.063,1.051.775,1.406,1.47,1.75l.012.006c.145.063.27.131.406.2a1.646,1.646,0,0,0,.713.225.468.468,0,0,0,.369-.145,1.346,1.346,0,0,0,.2-1c-.269-3.414.131-3.625,3.232-5.32l.2-.113a35.911,35.911,0,0,1,6.314-2.475l.063-.02.063-.018.031-.008c1.075-.344,2.3-.736,3.463-1.182a3.986,3.986,0,0,1,1.395-.281c1.6,0,3.007,1.176,4.427,3.7,1.318-1.393,1.894-2.668.7-4.676-2.295-3.889-1.032-7.9.188-11.771l.081-.27c1.726-5.42,5.12-9.8,8.753-14.168a10.41,10.41,0,0,0,1.669-3.482v-.006c.031-.1.063-.2.1-.3l.037-.119c.081-.225.169-.5.263-.764.225-.574.469-1.174.775-1.887v-.008l.006-.012.006-.012a19.01,19.01,0,0,0,1.67-5.465,9.418,9.418,0,0,1,2.788-5.445,3.13,3.13,0,0,1,2.4-1.094,3.922,3.922,0,0,1,2.133.662c1.193.807,2.669,2.125,2.895,3.82a46.231,46.231,0,0,0,3.67,11.447l.012.031c.095.213.176.406.251.6a25.489,25.489,0,0,0,3.738,5.652v.006l.068.088c.069.08.132.168.2.25l.119.156c.318.4.625.793.925,1.188a29.337,29.337,0,0,1,5.952,14.182v4.264a10.094,10.094,0,0,1-1.363,3.393c-.781,1.289-.1,2.189.613,3.139.2.256.338.443.469.645.105-.172.2-.32.281-.455v9.477c-1.23-.117-1.771-1.057-2.163-2.07l-.081-.205-.069-.17c-.037-.105-.074-.205-.118-.307v-.006a18.5,18.5,0,0,0-2.313-4.67c-2.057-2.758-2.069-5.434-.025-8.434a2.809,2.809,0,0,0,.632-1.4,22.9,22.9,0,0,0-4.839-13.961l-.15-.213-.05-.062a87.772,87.772,0,0,1-5.789-8.533,29.708,29.708,0,0,1-3.633-9.717,4,4,0,0,1-.037-.455v-.014c-.057-.7-.125-1.65-1.126-1.674h-.062c-.844,0-.906.58-.975,1.2l-.007.037a1.585,1.585,0,0,1-.325.982.527.527,0,0,0-.044.344v.012a.835.835,0,0,1-.019.307c-1.162,4.051-2.369,8.246-5.039,11.734l-.138.176c-.062.082-.131.17-.193.25l-.019.025c-.057.074-.119.15-.176.23l-.006.008c-2.913,3.764-5.927,7.658-7.452,12.348-.019.049-.038.1-.057.156s-.031.086-.044.137c-.05.137-.1.287-.156.449v.02c-.969,2.883-1.969,5.871.5,8.791.975,1.143.743,2.67.438,3.869a20.744,20.744,0,0,1-2.226,4.914l-.013.02v.006l-.013.02a21.39,21.39,0,0,0-2.176,4.713,1.775,1.775,0,0,1-1.882,1.162,3.95,3.95,0,0,1-.568-.037,2.209,2.209,0,0,1-1.9-1.693c-.094-.326-.169-.682-.237-.994l-.019-.094-.007-.037-.012-.057c-.007-.051-.02-.094-.031-.145v-.018c-.044-.2-.088-.414-.138-.613-.106-.395-.182-.85-.244-1.219a5.341,5.341,0,0,0-.882-2.582,1.137,1.137,0,0,0-.912-.432,3.819,3.819,0,0,0-1.27.33l-.05.02-.031.012a4.113,4.113,0,0,1-1.332.326h-.094a.329.329,0,0,0-.1.012l-.025.008a.223.223,0,0,0-.037.006h-.062a3,3,0,0,0-.544-.045,6.124,6.124,0,0,0-3.795,1.814h-.007l-.006.012c-.356.287-.619.494-.863.67a2.027,2.027,0,0,0-.937,1.262,3.025,3.025,0,0,0,.888,2.039l.007.006v.006l.012.02a3.923,3.923,0,0,1,.92,1.8.9.9,0,0,0,.2.43l.007.008.006.012a.14.14,0,0,0,.025.037l.006.006c.013.025.025.039.038.063a.118.118,0,0,0,.019.02l.006.02c.788,1.449.682,2.613-.318,3.469a2.115,2.115,0,0,1-1.4.551,4.033,4.033,0,0,1-1.9-.613,34.617,34.617,0,0,0-5.251-2.35c-2.282-.775-5.4-1.838-5.5-5.2-.088-2.67-1.676-4.172-3.288-5.49-4.727-3.832-10.429-5.314-14.861-6.17a30.407,30.407,0,0,1-12.1-5.24c-.657-.475-1.357-.912-2.082-1.355l-.025-.02c-.437-.27-.95-.588-1.463-.926a1.222,1.222,0,0,0-.644-.236.713.713,0,0,0-.4.125c-.481.293-.307.65-.125,1.031l.013.018a.234.234,0,0,0,.031.063l.019.045c.182.387.375.775.557,1.15l.112.225a30.37,30.37,0,0,1,1.544,3.463c.176.5.369,1.02.531,1.477l.057.143.05.119v.008a21.291,21.291,0,0,1,1.751,7.008c.112,5.244.381,10.8,2.294,16.018l.013.025c.919,2.512,1.957,5.357,4.7,6.408,3.707,1.424,5.383,3.488,5.607,6.895a18.341,18.341,0,0,0,1.5,5.789,2.381,2.381,0,0,1-.7,3.014,2.207,2.207,0,0,1-1.438.576,2.814,2.814,0,0,1-1.645-.631c-.118-.094-.237-.182-.362-.275-.081-.062-.169-.125-.256-.187-.145-.107-.282-.207-.419-.312l-.213-.15-.025-.014c-.737-.543-1.656-1.213-2.494-1.906a1.707,1.707,0,0,0-1.031-.494c-.375,0-.726.244-1.126.789-.25.33-.5.656-.725.938l-.182.23-.025.031a13.5,13.5,0,0,0-2.994,5.271c-.044.156-.069.273-.1.375v.006a3.132,3.132,0,0,0-.175,1.563c.138.457.563.756,1.382.969a10.5,10.5,0,0,1,1.869.758l.013.012.094.037.006.006.025.014a12.458,12.458,0,0,0,1.476.656,2.515,2.515,0,0,1-.588,4.977,24.1,24.1,0,0,0-5.564,1.5,12.2,12.2,0,0,1-4.2,1.008,4.441,4.441,0,0,1-3.376-1.408c-1.77-1.832-3.727-1.988-6.746-2.025a28.4,28.4,0,0,0-11.234,3.17c-.437.25-.788.451-1.057.607a33.136,33.136,0,0,1-7.14,3.363,47.8,47.8,0,0,1-11.629,1.943c-.088,0-.182,0-.275-.006l-.062-.006h-.156a.672.672,0,0,0-.781.582c-.131.6.275.773.663.943l.019.006.05.02a2.108,2.108,0,0,1,.194.086c.756.369,1.506.721,2.169,1.025l.088.039.175.086.031.008c1.231.588,2.514,1.188,3.72,1.85,4.227,2.307,7.4,5.84,10.466,9.26h.007a29.546,29.546,0,0,0,10.5,7.289,8.114,8.114,0,0,0,3.17.857,3.89,3.89,0,0,0,1.513-.3,8.787,8.787,0,0,1,3.433-.75,7.222,7.222,0,0,1,5.282,2.369,16.794,16.794,0,0,0,4.633,3.371c1.382.68,1.92,1.656,1.6,2.895a2.5,2.5,0,0,1-2.645,1.949h-.019l-.013-.006c-.269-.006-.519-.006-.756-.006a20.848,20.848,0,0,0-3.933.332.151.151,0,0,0-.051.006l-.006.006a.1.1,0,0,0-.057.012,1.369,1.369,0,0,0-.925.363.788.788,0,0,0-.088.613,9.332,9.332,0,0,1,0,2.287v.02a5.571,5.571,0,0,0,.738,4.1,3.617,3.617,0,0,1,.481,1.537c.138.863.269,1.676,1.088,1.85a1.98,1.98,0,0,0,.519.063,7.07,7.07,0,0,0,2.275-.568l.02-.006.019-.006.019-.006.025-.014.094-.037.087-.031c.356-.125.682-.244,1-.324a3.914,3.914,0,0,0,.568-.238l.013-.006a3.875,3.875,0,0,1,.45-.2,3.54,3.54,0,0,1,1.3-.275,2.414,2.414,0,0,1,2.063,1.176c.8,1.176.3,2.164-.428,3.057Zm-22.042,0a5.168,5.168,0,0,1,.084-3.324.527.527,0,0,0-.125-.414c-2.22-2.85-.932-5.289.838-7.951l.019-.025c.2-.3.388-.582.307-.781-.062-.133-.237-.219-.544-.27-.244-.043-.494-.1-.775-.162h-.019l-.062-.014h-.013a8.924,8.924,0,0,0-1.863-.268,3.151,3.151,0,0,0-.769.088,24.185,24.185,0,0,1-4.114.568h-.037a15.847,15.847,0,0,0-6.309,1.412,1,1,0,0,1-.487.1,4.715,4.715,0,0,1-.863-.125l-.043-.008h-.025a1.293,1.293,0,0,0-.144-.037c-.019-.006-.044-.012-.062-.02s-.044-.006-.062-.006a.3.3,0,0,0-.062-.012c-1.576-.275-2.477-1.406-3.352-2.494v-.008c-.225-.273-.456-.568-.7-.844-3.482-3.906-6.684-8.059-9.778-12.078l-.237-.307-.156-.2-.394-.508-.351-.455-.05-.062c-.812-1.051-1.65-2.139-2.482-3.2a2.456,2.456,0,0,0-1.882-1.193,1.9,1.9,0,0,0-.581.086,26.441,26.441,0,0,1-5.9.832c.156.406.307.813.419,1.125l.019.051.006.006a26.5,26.5,0,0,0,1.27,3.025c.77,1.445,1.632,2.9,2.395,4.172l.006.012.007.02a57.672,57.672,0,0,1,4.082,7.746l.044.111c.9,2.213,1.92,4.727,5.021,4.982a2.885,2.885,0,0,1,2.389,1.051c.368.619.293,1.52-.238,2.744-.062.164-.138.32-.219.494l-.006.008c-.6,1.324-1.22,2.693-.957,3.975.119.625.213,1.27.307,1.9l.006.02.031.23h-5.183a4.03,4.03,0,0,1-.193-1.256,6.085,6.085,0,0,1,.662-2.557,1.817,1.817,0,0,0-.475-2.477,20.249,20.249,0,0,1-5.283-7.439,46.978,46.978,0,0,0-2.869-5.689l-.182-.33c-.263-.471-.625-1.107-.95-1.721-.419-.768-.875-1.562-1.27-2.232l-.006-.012-.038-.068a36.343,36.343,0,0,1-2.632-5.184,4.215,4.215,0,0,1-.162-.455l-.007-.014-.006-.012c-.432-1.2-.926-2.557-2.576-2.752-.568-.062-1.144-.15-1.656-.219l-.257-.037-.081-.006a33.185,33.185,0,0,0-4.783-.451h-.537a1.246,1.246,0,0,1-.219.014,5.617,5.617,0,0,1-4.5-2.113,3.217,3.217,0,0,0-2.395-1.531,3.5,3.5,0,0,0-1.994.8,31.237,31.237,0,0,1-2.97,1.807,23.068,23.068,0,0,0-4.433,2.99,19.563,19.563,0,0,1,2.27-.133,21.078,21.078,0,0,1,9.891,2.582c2.745,1.451,4.576,3.508,5.171,5.8a7.974,7.974,0,0,1-1.376,6.482,35.931,35.931,0,0,1-2.913,3.934c-.356.4-.494.7-.437.932s.3.418.831.631l1.025.412.963.389.1.043c2.8,1.125,5.971,2.406,9.078,3.582.319.119.644.238.976.352l.006.006c2.245.8,4.57,1.625,5.733,4.113l.087.182.025.057a9.329,9.329,0,0,0,.845,1.58h-5.513a12.911,12.911,0,0,0-5.272-2.588l-.025-.006-.068-.02a23.744,23.744,0,0,1-2.726-.961l-.082-.039c-2.863-1.268-6.1-2.713-9.415-3.812a3.129,3.129,0,0,1-2.163-1.977,4.082,4.082,0,0,1,.9-3.588c.519-.682,1.075-1.395,1.557-2l.1-.125c.731-.924,1.557-1.969,2.288-3.012a4.486,4.486,0,0,0,.944-3.727,4.1,4.1,0,0,0-2.545-2.494,18.4,18.4,0,0,0-7.4-2.014,10.986,10.986,0,0,0-1.381.088,12.015,12.015,0,0,1-1.576.094c-.756,0-1.557-.051-2.169-.094h-.031l-.075-.008-.106-.006c-.644-.037-1.312-.08-1.963-.08a10,10,0,0,0-3.214.455,1.894,1.894,0,0,1-.631.1,2.417,2.417,0,0,1-2.207-1.777,2.516,2.516,0,0,1,1.469-3.168c2.3-1.27,4.42-2.676,6.465-4.039a66.678,66.678,0,0,1,8.659-5.133,2.786,2.786,0,0,0-2.563-1.895,7.452,7.452,0,0,0-2.082.406h-.013l-.544.168-.237.076c-.281.086-.569.182-.856.275h-.013l-.031.012c-3.514,1.1-7.14,2.238-10.984,2.238a17.794,17.794,0,0,1-2.113-.119,36.673,36.673,0,0,0-4.014-.193c-.726,0-1.463.012-2.183.043-.144.006-.293.006-.437.006a11.88,11.88,0,0,1-8.6-3.707c-.7-.687-1.845-1.8-3.276-3.193l-.081-.082c-3.389-3.295-7.228-7.033-10.822-10.74a15.166,15.166,0,0,1-2.014-2.895l-.019-.031-.062-.113-.031-.045c-.25-.424-.562-.943-.875-1.418-.763-1.125-.382-2.408,1.044-3.5a54.775,54.775,0,0,1,12.122-6.676c1.363-.562,2.7-1.189,4.064-1.832l.006-.006.1-.045a49.244,49.244,0,0,1,8.577-3.375,10.782,10.782,0,0,1,2.676-.383,6.4,6.4,0,0,1,1.764.238c.23.068.487.145.781.225.075.02.156.045.231.068.138.039.269.076.394.113,4.945,1.412,10.065,2.875,14.523,5.826l.307.2.031.018a34.489,34.489,0,0,1,5.183,3.951,3.39,3.39,0,0,0,2.307,1.213,3.438,3.438,0,0,0,2.313-1.187,80.934,80.934,0,0,1-6.164-7.6l-.025-.031c-1.344-1.812-2.876-3.869-4.5-5.764-.913-1.07-1.676-2.352-.494-3.809a2.086,2.086,0,0,1,1.676-.875,4.715,4.715,0,0,1,2.156.725,45.568,45.568,0,0,0,12.93,4.453,6.806,6.806,0,0,0,1.231.1,14.574,14.574,0,0,0,3.845-.645c2.194-.645,3.014-2.162,2.438-4.514a48.01,48.01,0,0,0-1.47-4.689l-.043-.125-.013-.018-.044-.125c-.05-.156-.106-.314-.163-.477l-.074-.213c-.094-.268-.2-.574-.319-.932a3.857,3.857,0,0,1,.394-3.531,3.39,3.39,0,0,1,2.839-1.369h.125c.588.02,1.106.025,1.619.025,1.513,0,3.1-.051,4.471-.107l.168-.006h.025l.612-.02c1.1-.037,2.376-.074,3.6-.086a72.731,72.731,0,0,0,7.728-.352,3.363,3.363,0,0,0,1.913-1.111l.006-.008.007-.006.006-.006.006-.006a3.989,3.989,0,0,1,1.639-1.088c1.219-.332,1.237-1.232,1.257-2.189a5.223,5.223,0,0,1,.105-1.137c.795-3.139-.693-5.434-2.125-7.646v-.006l-.05-.076v-.006a20.461,20.461,0,0,1-1.582-2.764c-.819-1.838-1.838-3.645-2.738-5.238l-.013-.02c-.731-1.275-1.494-2.637-2.176-4.006a3.354,3.354,0,0,1-.1-3,3.663,3.663,0,0,1,2.669-1.863c.52-.105,1.132-.225,1.713-.33l.307-.064c1.388-.256,3.107-.58,4.739-.992a4.064,4.064,0,0,0,2.751-2.027,3.969,3.969,0,0,0-.106-3.35,17.1,17.1,0,0,0-5.84-7.729,26.941,26.941,0,0,1-2.731-2.264l-.031-.031a19.237,19.237,0,0,0-4.439-3.287,2.228,2.228,0,0,1-.925-2.965,2.047,2.047,0,0,1,2.025-1.4,3.865,3.865,0,0,1,.538.045c2.088.361,4.214.582,6.271.793l.05.008.063.006a64.3,64.3,0,0,1,9.078,1.375,6.115,6.115,0,0,0,1.369.2,1.231,1.231,0,0,0,.987-.35,2.212,2.212,0,0,0,.231-1.738,1.19,1.19,0,0,0-1.132-1.145,19.184,19.184,0,0,1-4.726-1.869l-.075-.037c-.544-.268-1.163-.574-1.757-.844-5.9-2.65-10.566-7.09-14.724-11.5-2.057-2.156-2.376-4.988-2.688-7.732v-.025l-.019-.162c-.006-.076-.019-.156-.025-.232s-.019-.162-.031-.236l-.037-.363c-.75-6.295-1.27-12.7-1.632-17.568a11.02,11.02,0,0,1,.325-2.937v-.025l.006-.006a13.533,13.533,0,0,0,.344-2.482,2.271,2.271,0,0,1,2.477-2.1c.063,0,.131.008.206.008h.013l.075.006a61.147,61.147,0,0,1,9.059,1.395c2.657.68,5.271,1.463,8.165,2.35l.068.02.525.156c1.845.557,3.939,1.193,5.971,1.744a12.388,12.388,0,0,1,7.784,5.576c.481.775.994,1.57,1.438,2.252v.006l.057.088.006.006c2.076,3.225,4.221,6.564,5.308,10.377.713,2.482,1.37,5.016,1.951,7.527l.044.188c.506,2.232.513,2.27,3.275,2.758,0-.293.007-.562.013-.7v-.187c.007-.463.013-.908-.024-1.357a59.647,59.647,0,0,1,.219-7.934,63.447,63.447,0,0,0,.25-7.334c-.062-1.676.719-2.77,2.145-2.994a2.393,2.393,0,0,1,.456-.045c1.494,0,2.169,1.332,2.582,2.5a39.448,39.448,0,0,0,6.546,11.041,9.553,9.553,0,0,0,5.482,3.631,4.844,4.844,0,0,0,1.113.139,3.014,3.014,0,0,0,2.851-2.008c.645-1.344,1.194-2.75,1.72-4.107l.044-.119c.206-.537.519-1.35.85-2.137.726-1.758,1.826-2.684,3.17-2.684a5.1,5.1,0,0,1,3.139,1.389c4.245,3.482,8.771,7,13.454,10.441a6.728,6.728,0,0,0,3.889,1.287,4.459,4.459,0,0,0,2.345-.605,8.723,8.723,0,0,0,4.333-6.309,74.007,74.007,0,0,1,2.175-10.773l.025-.1.006-.018.169-.67a13.823,13.823,0,0,0,.313-2.125v-.025l.007-.094c.013-.074.019-.156.031-.23l.006-.094.007-.039c.006-.088.019-.174.024-.262a4.839,4.839,0,0,1,1.163-2.789,3.171,3.171,0,0,1,2.351-.988,5.247,5.247,0,0,1,2.339.633c.638.33,1.263.662,1.869.988l.112.063.125.068.019.006.125.068c1.013.545,2.157,1.164,3.3,1.7a5.012,5.012,0,0,0,2.164.549c1.663,0,2.907-1.08,3.494-3.037a17.213,17.213,0,0,0,.463-9.479,35.291,35.291,0,0,1-.625-3.525l-.013-.094a23.675,23.675,0,0,0-1.213-5.314,2.14,2.14,0,0,1,1.132-2.846,2.438,2.438,0,0,1,1.15-.3,2.65,2.65,0,0,1,2.063,1.137,75.011,75.011,0,0,0,5.14,5.764l.057.057a60.616,60.616,0,0,1,6.427,7.516c1.856-1.369,2.1-2.6.888-4.527a41.043,41.043,0,0,1-5.008-11.879,50.735,50.735,0,0,1-1.4-12.854,9.453,9.453,0,0,1,2.057-5.113l.257-.389.256-.387.394-.588.275-.412.081-.125.051-.076c2.757-4.1,5.876-8.758,9.071-13.109a16.831,16.831,0,0,1,2.075-2.232l.013-.012h.013l.013-.014a13.959,13.959,0,0,0,2.325-2.619,2.071,2.071,0,0,1,1.813-.912,3.856,3.856,0,0,1,2.557,1.088,67.451,67.451,0,0,1,7.853,9.684l.019.02.051.074c1.682,2.383,3.313,4.877,4.895,7.3l.238.361.031.051.274.418c.588.9,1.207,1.852,1.626,2.488,1.988,3,1.838,6.32,1.494,9.76a49.98,49.98,0,0,1-2.194,10.691,44.711,44.711,0,0,1-4.6,9.885c-.844,1.355-.162,2,.557,2.682l.024.025.013.006a5.123,5.123,0,0,1,.738.818,61.329,61.329,0,0,1,6.508-7.66v6.869a31.806,31.806,0,0,1-2.938,3.355c-1.45,1.4-.956,2.018-.068,3.137l.068.094a6.915,6.915,0,0,1,1.663,5.6c-.244,1.557-.331,3.176-.412,4.6l-.013.275c-.031.588-.075,1.32-.132,2.008a2.558,2.558,0,0,0,1.188,2.682c.232.146.444.281.644.41v5.381a18,18,0,0,0-2.525-1.4c-.138.426-.281.857-.463,1.406l-.125.363-.013.043-.013.025c-.4,1.188-.856,2.545-1.257,3.865a1.844,1.844,0,0,0,.231,1.9c.494.568.976,1.205,1.407,1.762l.019.025.05.076.025.023.006.014a24.059,24.059,0,0,0,2.657,3.086v6.371c-.088-.1-.175-.191-.263-.285l-.138-.15-.394-.426c-.25-.275-.507-.551-.75-.824l-.013-.014-.044-.043c-2.207-2.4-4.045-4.414-5.852-6.533-1.332-1.57-2.407-3.377-1.275-5.9a19.669,19.669,0,0,0,.976-3.008l.037-.125c.044-.174.106-.437.188-.693a54.351,54.351,0,0,0,1.413-11.516v-.006l.006-.051c.007-.105.007-.207.013-.307s.013-.193.019-.293c.057-1.182.125-2.525.238-3.814a2.5,2.5,0,0,0-.657-1.869,22.1,22.1,0,0,1-2.638-3.926l-.007-.014-.006-.006a28.854,28.854,0,0,0-1.869-2.969,48.135,48.135,0,0,1-7.584-16.525,6.09,6.09,0,0,1-.156-1.187v-.012c-.075-1.037-.15-2.119-1.338-2.814-.094.25-.175.451-.25.619l-.013.02a5.362,5.362,0,0,0-.388,1.145,40.387,40.387,0,0,1-4.982,13.979c-1.538,2.619-3.238,5.184-4.883,7.666l-.025.037-.044.063-.293.443c-.6.906-1.244,1.875-1.876,2.857a4.825,4.825,0,0,0-1.025,3.125c.094,1.17.169,2.377.231,3.545l.006.051.025.4v.088c.281,4.957.575,10.078,2.576,14.854a5.1,5.1,0,0,1,.35,3.352,7.311,7.311,0,0,1-1.707,2.939c-1.737,2.031-3.576,4.037-5.352,5.977l-.031.031-.263.287-.068.082c-3.014,3.27-6.427,6.971-9.341,10.846a1.8,1.8,0,0,1-.294.3l-.012.012c-.325.289-.669.588-.263,1.158a12.117,12.117,0,0,1,1.638,4.107l.013.055v.014l.006.025a18.2,18.2,0,0,0,.926,2.881,14.982,14.982,0,0,1,1.138,8.746,9.246,9.246,0,0,1-1.351,3.678,2.917,2.917,0,0,1-2.332,1.457,3.171,3.171,0,0,1-1.876-.727,6.016,6.016,0,0,0-3.606-1.406,7.189,7.189,0,0,0-3.627,1.207,1.819,1.819,0,0,1-.838.268c-1.6.088-2.375.9-2.588,2.738-.231,1.965-1.7,3.564-3.27,3.564a2.039,2.039,0,0,1-.6-.082,9.671,9.671,0,0,1-4.57-2.73c-2.838-3.1-4.183-6.965-5.482-10.7l-.007-.008-.006-.006-.05-.15v-.006l-.031-.094c-.231-.645-.463-1.312-.707-1.969a2.257,2.257,0,0,0-2.031-1.807c-7.391-1.469-14.855-2.395-21.188-3.107-3.77-.42-5.826-2.2-6.664-5.758a9.4,9.4,0,0,0-.851-2.082v-.014l-.081-.156a58.338,58.338,0,0,0-5.689-8.764l-.044-.07-.075-.094c-.925-1.25-1.882-2.537-2.77-3.857a2.434,2.434,0,0,0-1.419-1.043,35.742,35.742,0,0,1-3.639-1.17l-.025-.012-.037-.014-.013-.006-.231-.08a30.35,30.35,0,0,0-3.67-1.145,47.91,47.91,0,0,1-16.918-7.729,9.166,9.166,0,0,1-.981-.824l-.019-.02-.013-.006-.006-.02h-.006a4.167,4.167,0,0,0-2.889-1.494h-.019a5.347,5.347,0,0,0,.731,2.1l.006.02a44.836,44.836,0,0,1,4.857,13.09c.907,5.234,1.5,9.859,1.832,14.137a3.875,3.875,0,0,0,1.15,2.588c1.2,1.182,2.357,2.383,3.12,3.189l.019.018.025.025c3.395,3.539,6.908,7.2,11.472,9.535,1.882.955,2.751,2.537,2.727,4.977-.031,2.793-.15,5.594-.288,8.709v.031c-.2,4.633-.406,9.428-.187,14.178a2.682,2.682,0,0,1-.031.457v.014a1.183,1.183,0,0,0,.663,1.443c2.213,1.139,4.357,2.463,6.352,3.721a24.326,24.326,0,0,1,4.6,3.506,11.607,11.607,0,0,1,2.957,4.984,4.145,4.145,0,0,1-.382,3.631,2.789,2.789,0,0,1-2.345,1.063h-.344c-2.538,0-3.876.994-4.62,3.439a1.643,1.643,0,0,1-.419.781c-1.7,1.445-1.844,2.92-.506,5.1a3.45,3.45,0,0,1,.438,2.914,3.228,3.228,0,0,1-1.963,1.932,9.835,9.835,0,0,1-3.589.693,9.347,9.347,0,0,1-1.194-.074c-3.751-.463-6.908-2.307-9.966-4.09l-.024-.018h-.007l-.068-.045c-.819-.475-1.77-1.025-2.714-1.537a3.488,3.488,0,0,0-1.663-.514,3.6,3.6,0,0,0-1.65.514c-3.882,2.076-7.546,4.414-11.091,6.67l-.062.045c-2.694,1.713-5.477,3.482-8.334,5.139a5.726,5.726,0,0,1-2.8.912,3.267,3.267,0,0,1-1.838-.568c-4.114-2.707-8.841-3.963-13.41-5.176l-.038-.014-.081-.012-.481-.139-.156-.037c-.9-.236-1.832-.486-2.738-.75-.206-.057-.432-.125-.707-.219l-.1-.031-.025-.012a7.956,7.956,0,0,0-2.375-.508,2.716,2.716,0,0,0-1.376.344,24.52,24.52,0,0,1-3.688,1.607h-.006l-.15.063a28.488,28.488,0,0,0-3.313,1.375c-5.052,2.645-10.653,4.17-18.181,4.959h-.05c-.113.006-.213.012-.319.012-.263,0-.531-.025-.763-.043l-.144-.014h-.031l-.031-.006a9.168,9.168,0,0,0-.919-.057,2.619,2.619,0,0,0-2.045.826c.145.105.281.219.4.324l.037.031.013.014.019.012.007.006a2.307,2.307,0,0,0,.825.545c3.732,1.02,6.946,3.094,10.053,5.1l.013.012c.469.3.9.582,1.338.852a35.819,35.819,0,0,1,5.7,4.889l.056.057c.632.625,1.382,1.361,2.126,2.049l.263.244c2.92,2.721,5.677,5.289,10.19,5.289.182,0,.338,0,.481-.006.27-.012.563-.018.907-.018,1.456,0,2.994.131,4.119.23l.138.012.082.008c1.281.111,2.744.23,4.2.23a19.4,19.4,0,0,0,3.463-.287c.275-.051.551-.113.9-.2l.063-.012c.051-.012.106-.025.163-.043h.019a10.288,10.288,0,0,1,2.382-.389,3.344,3.344,0,0,1,2.645,1.162c.069.076.144.158.213.238.056.057.106.113.156.17l.037.037c.2.225.395.432.557.605l.006.014.007.006a50,50,0,0,1,5.214,6.346,74.917,74.917,0,0,0,5.89,7.465l.024.031.007.006.024.031c1.126,1.3,2.526,2.926,3.776,4.527l.007.012c.024.031.05.063.075.1l.006.014.006.006c.231.3.513.676.944.676a1.071,1.071,0,0,0,.432-.113,14.076,14.076,0,0,1,4.745-.963h.006a26.245,26.245,0,0,0,2.688-.318,21.009,21.009,0,0,1,3.97-.42,12.1,12.1,0,0,1,6.408,1.676c1.676,1.014,2.57,2.107,2.651,3.258.075,1.125-.612,2.295-2.051,3.469-1.332,1.088-1.619,2.152-.925,3.439a5.266,5.266,0,0,1,.581,3.02,2.37,2.37,0,0,0,1.412,2.813Zm-91.376-71.9-.213.088-.618.256c-.057.025-.113.049-.169.068-.1.043-.2.088-.294.125s-.187.082-.288.119l-.068.025c-.075.031-.15.068-.225.1-.119.049-.238.094-.356.143l-.025.014a109.2,109.2,0,0,0-15.061,7.178,3.564,3.564,0,0,0-1.938,2.188,3.767,3.767,0,0,0,1.013,2.875,54.706,54.706,0,0,0,6.677,7.152c1.226,1.15,2.52,2.377,3.708,3.627,2.926,3.063,5.745,4.477,9.44,4.727,1.169.088,2.388.131,3.632.131a42.367,42.367,0,0,0,14.492-2.437,2.66,2.66,0,0,0-1.437-1.25l-.007-.008-.062-.031-.012-.006a5.469,5.469,0,0,1-.563-.307,45.549,45.549,0,0,0-6.8-3.525l-.112-.051-.019-.006-.244-.111c-1.119-.5-2.395-1.076-3.582-1.684a2.391,2.391,0,0,1-1.52-1.775,4.469,4.469,0,0,1,.438-1.963l.007-.006a3.152,3.152,0,0,0,.225-2.7.733.733,0,0,1-.031-.617,3.091,3.091,0,0,1,1.775-1.389,1.16,1.16,0,0,1,.438-.062c.962-.045,1.932-.15,2.876-.25l.012-.006.294-.031.019-.008h.007c.131-.012.263-.031.394-.043l.05-.006c.775-.082,1.576-.17,2.357-.213a54.228,54.228,0,0,0,6.039-.818l.05-.008.013-.006.082-.012.137-.025c.9-.156,1.713-.293,2.558-.426-4.239-3.957-9.278-6.6-16.343-8.57l-.037-.014c-.106-.023-.213-.055-.319-.086s-.206-.062-.312-.094l-.062-.025a13.928,13.928,0,0,0-3.727-.707A5.7,5.7,0,0,0,9854.459,24839.1Zm71.9-8.209a42.843,42.843,0,0,0-4.12,3.738l-.056.057-.007.006-.162.162a45.654,45.654,0,0,1-3.414,3.158c-.594.48-1.244.98-1.769,1.381l-.025.02-.006.006c-2.17,1.662-4.414,3.377-5.846,5.939.344.162.693.307.987.426l.025.012a6.559,6.559,0,0,1,1.7.889,5.308,5.308,0,0,0,3.4,1.4,6.934,6.934,0,0,0,3.951-1.545c4.914-3.451,10.178-6.477,15.273-9.4l.063-.039.038-.018c.769-.443,1.675-.963,2.563-1.477a5.584,5.584,0,0,1,2.727-.824,3.405,3.405,0,0,1,2.288.85,22.226,22.226,0,0,0,4.745,2.889l.024.012.038.02a27.633,27.633,0,0,1,3.444,1.906,7.749,7.749,0,0,0,3.607,1.057h.031c.588.076,1.113.145,1.67.25-1.514-2.312-1.188-4.414-.694-6.545a2.767,2.767,0,0,1,1.156-1.469l.007-.008a2.163,2.163,0,0,0,.976-1.275c.568-3.951,3.582-4.857,6.771-5.82l.031-.006c-2.194-3.463-5.651-5.289-9-7.053l-.043-.018-.312-.162c-.332-.176-.613-.326-.876-.471a9.939,9.939,0,0,1-3.207-2.219,5.637,5.637,0,0,1-.925-3.545c-.132-4.951.056-10.041.225-14.529v-.062l.019-.613c.088-2.449.175-4.977.219-7.488,0-.1.007-.213.013-.307a1.917,1.917,0,0,0-.851-2.045c-1.307-.738-2.569-1.562-3.907-2.432l-.075-.051-.05-.037-.05-.031c-.263-.17-.538-.357-.807-.525l-.193-.131-.294-.187a84.55,84.55,0,0,0-2.508,11.072v.006c-.562,3.113-1.138,6.326-2.025,9.439a4.237,4.237,0,0,0,1.088,4.359c.906.855,1.294,1.611,1.194,2.307-.106.719-.744,1.363-1.95,1.957l-.057.031c-.044.023-.094.043-.138.068-.019.012-.044.018-.062.031s-.044.025-.068.037h-.013l-.007.006c-1.4.7-2.851,1.414-3.563,2.7-.325.594-.687,1.2-.981,1.688l-.006.014-.05.088c-1.626,2.725-3.3,5.545-2.739,9.17a2.156,2.156,0,0,1-.387,1.8,1.827,1.827,0,0,1-1.444.594,3.269,3.269,0,0,1-1.032-.174,4.623,4.623,0,0,0-1.463-.244A5.072,5.072,0,0,0,9926.356,24830.891Zm-29.99,10.49.406.088.068.012a41.33,41.33,0,0,1,7,1.945,2.182,2.182,0,0,0,.882.188,3.144,3.144,0,0,0,1.625-.545,10.734,10.734,0,0,0,2.57-2.426l.063-.074v-.006a14.394,14.394,0,0,1,1.825-1.877c2.907-2.312,5.989-4.838,8.853-7.621l.219-.219.007-.006a27.216,27.216,0,0,1,6.746-5.307,8.389,8.389,0,0,1,.931-.369c1-.352,2.133-.75,2.082-1.877-.138-2.881.569-4.713,2.357-6.127a1.121,1.121,0,0,0,.375-.807c-.05-2.168,1.444-3.02,3.032-3.912l.013-.008.063-.037a3.5,3.5,0,0,1,.369-.168h.012c.469-.193,1-.412.895-1.164-.663-4.488.325-8.7,1.494-12.965a59.043,59.043,0,0,0,1.238-6.252l.019-.113.006-.02.007-.037v-.006a49,49,0,0,1,1.744-7.939c.412-1.213.719-2.758-.525-3.971-.419-.418-.869-.826-1.25-1.17l-.057-.049c-.557-.506-1.207-1.094-1.775-1.707-.27-.281-.569-.568-.882-.863l-.081-.08-.175-.164c-1.5-1.412-3.052-2.875-2.876-5.051.263-3.32-1.788-3.619-3.958-3.945h-.019l-.132-.02c-.7-.1-1.381-.242-2.038-.387l-.062-.012h-.031l-.037-.008-.019-.006a22.292,22.292,0,0,0-4.708-.611c-.394,0-.788.012-1.175.043.344.27.681.52.975.738l.275.211.138.1.006.006a16.922,16.922,0,0,1,3.558,3.164,31.16,31.16,0,0,1,3.207,5.352,10.469,10.469,0,0,1,1.051,3.963,8.091,8.091,0,0,1-.65,3.707,8.2,8.2,0,0,1-5.452,4.445c-.612.188-1.257.313-1.882.438h-.013l-.125.031-.081.014a14.429,14.429,0,0,0-3.494,1c.024.08.05.162.074.244l.013.037v.006a2.915,2.915,0,0,0,.182.514c1.895,3.813,3.964,7.564,5.971,11.2.075.131.149.262.231.412l.024.037.007.012c1.475,2.633,3.007,5.359,1.313,8.541a1.151,1.151,0,0,0,.05,1.1l.007.014a3.531,3.531,0,0,1,.137.344,3.59,3.59,0,0,1-.412,2.863,3.031,3.031,0,0,1-2.051,1.432,2.5,2.5,0,0,0-1.663.932,6.3,6.3,0,0,1-2.738,2.076,9.832,9.832,0,0,1-3.407.619c-1.694.043-3.451.1-4.945.148l-1.106.039-.481.018-.257.006c-2.52.082-4.982.164-7.421.219-.638.014-1.182.051-1.382.352-.156.244-.1.656.169,1.287a16.754,16.754,0,0,1,1.494,6.232c.063,3.178-.875,5.291-2.856,6.447a16.4,16.4,0,0,1-8.284,2.324,17.824,17.824,0,0,1-7.334-1.674,2.72,2.72,0,0,1-.344-.187,1.638,1.638,0,0,0-.831-.307,1.227,1.227,0,0,0-.781.33c1.138,1.42,2.331,2.826,3.488,4.189l.024.031.057.063.013.025.156.176c.682.8,1.694,2.006,2.682,3.207.45.549.794.787,1.145.787a1.821,1.821,0,0,0,.913-.363,8.386,8.386,0,0,1,4.3-1.387A5.588,5.588,0,0,1,9896.366,24841.381Zm76.023-78.662c.213.52.426,1.045.625,1.557l.22.551c.125.3.243.605.368.912l.207.52q.375.946.75,1.889c.419,1.074,1.219,1.381,2.45,1.549,4.546.645,9.166,1.346,13.636,2.025l.081.008,1.232.193.75.113.375.055c1.575.244,2.782.426,3.9.594l1.169.182h.013c2.356.363,5.282.807,5.808,3.945a25.671,25.671,0,0,0,2.12,6.215l.006.012.013.031c.4.9.894,2.02,1.288,3.107a8.857,8.857,0,0,0,2.525,3.238l.006.008.169.162v-.006c1.244-2.732,2.532-5.564,6.09-5.564.162,0,.35.012.5.018l.075.006h.031a.905.905,0,0,0,.563-.256,5.518,5.518,0,0,1,3.876-1.625,12.005,12.005,0,0,1,5.026,1.5c.413-4.977-1.419-9.309-3.163-12.979a6.637,6.637,0,0,1-.825-3.221,4.962,4.962,0,0,1,1.356-2.949.674.674,0,0,1,.063-.07l.038-.049c.043-.051.087-.1.131-.15l.226-.264.012-.012.02-.02c.375-.43.837-.969,1.263-1.48.781-.937,1.581-1.932,2.226-2.732l.118-.145.02-.023a72.081,72.081,0,0,1,5.5-6.34c1.838-1.82,3.532-3.758,5.171-5.627l.156-.182.193-.219.369-.42a2.138,2.138,0,0,0,.65-2.205c-.551-1.732-1.15-3.521-1.632-4.965l-.007-.006c-.056-.17-.112-.344-.169-.514l-.037-.111c-.031-.088-.057-.17-.088-.25l-.056-.176a98.536,98.536,0,0,0-8.984,6.871l-.068.057-.038.031-.019.018-.025.014c-2.544,2.113-5.183,4.295-7.965,6.189a3.886,3.886,0,0,0-1.5,3.568,3.29,3.29,0,0,1-.52,2.533,2.009,2.009,0,0,1-1.569.551,6.473,6.473,0,0,1-1.325-.156c-.306-.057-.638-.133-1.013-.232h-.013a10.809,10.809,0,0,0-2.457-.406,2.752,2.752,0,0,0-1.1.2c-.807.357-1.657.658-2.477.945l-.144.057-.031.006-.031.006c-2.775.982-5.646,1.994-7.29,5.051a2.005,2.005,0,0,1-1.75,1.145,2.325,2.325,0,0,1-1.932-1.213,4.3,4.3,0,0,0-3.939-2.238,5.309,5.309,0,0,0-.594.031c-4.62.395-9.2.438-12.241.438h-.869c-.106,0-.206,0-.312-.006h-.7c-.269,0-.569-.006-.95-.012h-.081l-.187-.006c-.275-.008-.563-.008-.838-.008A10.755,10.755,0,0,0,9972.39,24762.719Zm24.515-5.113a.975.975,0,0,0,.1.031.3.3,0,0,1,.068.023c.038.008.082.02.125.031.069.02.138.039.207.063h.013a10.513,10.513,0,0,0,2.338.514c.237,0,.388-.043.463-.145a9.541,9.541,0,0,1,6.939-3.795.3.3,0,0,0,.182-.137,3.84,3.84,0,0,1,2.875-1.232,6.326,6.326,0,0,1,1.9.326,2.689,2.689,0,0,0,.8.15,1.991,1.991,0,0,0,1.569-1l.206-.273.075-.1.013-.012a28.758,28.758,0,0,1,4.271-4.8,23.335,23.335,0,0,1,2.5-1.746l.069-.043.013-.012a20.984,20.984,0,0,0,2.906-2.082,71.234,71.234,0,0,1,8.729-7.047c2.588-1.676,4.664-3.352,3.832-6.889a15.58,15.58,0,0,1-.269-1.738l-.007-.068c-.019-.187-.05-.445-.074-.7l-.025-.162v-.012c-.281-2.445-.575-4.977,1.15-7.033a3.971,3.971,0,0,0,1.15-2.176,2.958,2.958,0,0,0-1.094-2.17c-1.463-1.488-2.795-3.127-4.083-4.709l-.025-.031-.149-.18v-.008c-.544-.656-1.051-1.281-1.563-1.893a2.466,2.466,0,0,0-.25.105l-.112.043c-.075.031-.15.063-.219.088a15,15,0,0,1,1.138,6.047,23.022,23.022,0,0,1-.969,6,10.937,10.937,0,0,1-2.97,5.119,7.24,7.24,0,0,1-4.989,1.957h-.013a9.75,9.75,0,0,1-3.576-.73,23.329,23.329,0,0,1-2.957-1.471l-.031-.012-.031-.02-.075-.043-.175-.094-.057-.031c-.656-.363-1.344-.738-2.081-1.088a69.67,69.67,0,0,0-2.02,8.564l-.007.02v.012l-.006.025c-.244,1.287-.531,2.783-.851,4.227-.075.332-.144.676-.212,1.014l-.007.031c-.006.043-.019.086-.024.125-.013.063-.025.117-.038.174l-.006.037c-.426,2.258-.869,4.584-2.982,6.178-.075.057-.15.113-.226.168-.062.039-.125.082-.181.125a5.288,5.288,0,0,0-2.188,2.488,2.626,2.626,0,0,1-2.507,1.525,2.729,2.729,0,0,1-1.182-.256,5.137,5.137,0,0,0-2.226-.486,9.632,9.632,0,0,0-1.132.074,5.474,5.474,0,0,1-4.02-1.037c-2.563-1.732-4.971-3.74-7.3-5.678l-.037-.037-.051-.045-.024-.023-.176-.145c-1.443-1.193-2.963-2.275-4.433-3.32l-.024-.025-.2-.137-.013-.006-.206-.15c-.487-.344-.994-.7-1.481-1.057a8.932,8.932,0,0,0-1.063,2.369l-.019.051-.013.031-.006.025c-.094.281-.187.549-.294.813a17.65,17.65,0,0,1-1.194,2.332l-.006.012-.094.17-.044.068-.044.08c-.068.119-.125.213-.175.3-1.156,2.051-4.339,4.064-6.427,4.064a3.152,3.152,0,0,1-.4-.031c-4.333-.645-7.471-3.295-9.729-5.527a18.014,18.014,0,0,1-2.713-3.783l-.025-.043-.081-.131-.025-.045c-.35-.574-.712-1.174-1.1-1.744-.132,1.619-.15,3.227-.169,4.777v.057l-.007.432v.037c-.019,1.082-.037,2.2-.094,3.295-.1,2.057.031,3.52,2.67,3.65a5.035,5.035,0,0,1,3.645,2.014c1.632,2.156,3.045,4.2,4.333,6.232a2.852,2.852,0,0,0,2.463,1.676,2.62,2.62,0,0,0,.382-.025,81.113,81.113,0,0,1,9.115-.486c.344,0,.738.006,1.169.012.113,0,.231,0,.344.006h.344c.5.006.907.02,1.276.025h.193l.188.006c.481.006,1.038.02,1.575.02a25.283,25.283,0,0,0,3.295-.176,30.85,30.85,0,0,1,4.227-.324A16.419,16.419,0,0,1,9996.9,24757.605Zm-85.559-40.2a3.778,3.778,0,0,0-.788,2.807c.1,5.672.751,11.367,1.382,16.881l.05.469a10.643,10.643,0,0,0,3.846,7.021l.019.02c3.938,3.543,8.009,7.213,13.373,9.033a2.231,2.231,0,0,1,.525.3l.037.023a1.489,1.489,0,0,0,.781.363.624.624,0,0,0,.426-.176c.431-.375.193-.867-.031-1.344l-.013-.031a3.784,3.784,0,0,1-.2-.475,46.4,46.4,0,0,0-2.745-6.641l-.019-.037-.006-.012c-.726-1.539-1.481-3.133-2.095-4.764a2.871,2.871,0,0,1-.112-2.363,2.409,2.409,0,0,1,1.6-1.145,1.989,1.989,0,0,0,1.388-1.17,2.175,2.175,0,0,1,1.913-1.449,3.058,3.058,0,0,1,1.619.574l.182.119.013.006.043.025c1.757,1.131,3.583,2.3,5.314,3.627a36.679,36.679,0,0,0,4.721,2.92l.019.012.081.051c.625.344,1.407.773,2.132,1.2-.281-1.094-.487-2.238-.638-3.076v-.012l-.019-.1a25.666,25.666,0,0,0-.988-4.115c-1.432-4.008-3.819-7.539-6.133-10.959l-.05-.074h-.007c-.144-.213-.274-.414-.412-.613-.15-.225-.3-.443-.45-.662l-.037-.062a5.379,5.379,0,0,0-3.114-2.07c-.987-.281-2.007-.588-2.907-.863l-.331-.1-.6-.182-.138-.043a105.681,105.681,0,0,0-14.055-3.545,9.1,9.1,0,0,0-1.344-.113A2.969,2.969,0,0,0,9911.346,24717.4Zm148.266-24.783c.438,1.383.818,2.795,1.182,4.164l.068.264.019.055.013.039a52.544,52.544,0,0,0,3.139,9.314c.125-.25.244-.5.356-.744l.088-.187.193-.406c.188-.387.362-.756.544-1.125l.031-.074.031-.062.487-1.033c.45-.943.832-1.73,1.213-2.525a27.423,27.423,0,0,0,2.082-8.359l.007-.006c.125-.937.281-2.037.481-3.113a11.214,11.214,0,0,0-2.426-9.439,41.724,41.724,0,0,1-2.708-3.971l-.012-.02-.02-.031-.037-.055-.094-.15c-.594-.937-1.207-1.908-1.869-2.832-1.707-2.395-3.539-4.639-4.945-6.328a3.155,3.155,0,0,0-2.376-1.08,2.561,2.561,0,0,0-1.994.867c-.25.307-.531.6-.8.869l-.019.02-.094.094-.019.02-.006.006-.007.006a10.176,10.176,0,0,0-1.294,1.482c-1.845,2.693-3.714,5.445-5.364,7.871l-.068.1-.088.137-.094.125-.112.176c-.25.363-.5.738-.757,1.113-.669.98-1.426,2.1-2.319,3.414a8.406,8.406,0,0,0-1.376,4.863,30.979,30.979,0,0,0,.557,5.076l.007.014v.012c.162.963.35,2.051.456,3.094.369,3.5,1.863,6.533,3.451,9.742v.006l.019.037.006.012c.382.764.788,1.588,1.163,2.389a49.568,49.568,0,0,0,2.982-8.7l.013-.018c.45-1.67.869-3.17,1.356-4.633l.006-.006c.688-2.064.9-2.684,1.957-2.684a11.7,11.7,0,0,1,2.007.3l.044.006.05.014a2.627,2.627,0,0,0,.432.037,1.721,1.721,0,0,0,.638-.113,3.586,3.586,0,0,1,1.525-.412C10058.38,24690.246,10059.086,24690.977,10059.611,24692.621Zm-43.008,213.719-.625-.062-.068-.008-.025-.006a31.949,31.949,0,0,0-3.645-.275,11.164,11.164,0,0,0-3.808.6,2.159,2.159,0,0,1-.763.131,5.355,5.355,0,0,1-1.388-.256l-.007-.008h-.019a2.269,2.269,0,0,1-.507-4.395l.657-.381c.193-.113.394-.232.594-.344l.356-.207c.087-.049.175-.1.256-.15l.025-.012.851-.494.063-.037c2.063-1.2,4.194-2.445,6.271-3.707.131-.076.256-.145.375-.2h.006c.619-.33,1.319-.707,1.082-1.512-.15-.525-.8-.658-1.432-.789h-.025v-.006a3.491,3.491,0,0,1-.356-.074l-.087-.014a80.177,80.177,0,0,0-10.285-1.807,2.44,2.44,0,0,1-2.307-1.826c-.331-1.275.5-2.02,1.307-2.619a4.709,4.709,0,0,1,2.72-.912c2.413-.031,4.5-1.107,6.5-2.145l.006.006.031-.025.075-.037a.432.432,0,0,0,.044-.02c.063-.031.125-.068.193-.1a4.8,4.8,0,0,0,2.464-3.539,4.513,4.513,0,0,0-1.182-3.937c-.331-.338-.613-.631-.863-.9l-.024-.025a12.3,12.3,0,0,0-4.221-3.32,7.951,7.951,0,0,1-2.088-1.281,2.829,2.829,0,0,1-1.119-3.383,1.829,1.829,0,0,1,1.913-1.219,7.817,7.817,0,0,1,1.182.113c3.045.443,6,.963,8.771,1.537a13.6,13.6,0,0,0,2.214.164c.456,0,.981-.02,1.693-.051a18.441,18.441,0,0,0-3.169-4.832l-.007-.008-.006-.012c-.112-.137-.226-.27-.331-.4l-.075-.088c-.882-1.1-1.838-2.156-2.82-3.232l-.006-.012-.125-.137c-.513-.557-1.013-1.113-1.481-1.652a2.423,2.423,0,0,1-.426-2.912,2.219,2.219,0,0,1,2.22-1.076c.075,0,.163.006.257.014h.063a5.148,5.148,0,0,1,2.6,1.057c.031.023.075.049.125.08s.081.057.125.082a13.709,13.709,0,0,0,7.434,2.432c.138,0,.281-.006.406-.006.044,0,.094-.006.131-.006a4.837,4.837,0,0,0,3.482-1.713,4.286,4.286,0,0,0,.976-3.346c-.062-.437-.112-.889-.156-1.287-.013-.139-.031-.281-.044-.426a13.829,13.829,0,0,0-1.312-5.408,4.084,4.084,0,0,1-.544-1.693c-.112-1.576.325-2.59,1.331-3.107a2.219,2.219,0,0,1,.976-.25,2.877,2.877,0,0,1,2.132,1.3c1.356,1.639,2.732,3.258,4.4,5.2l.106.125.087.105.426.5.524.613c.369.443.751.887,1.126,1.324l.006.008a2.964,2.964,0,0,0,2.051,1.355,29.929,29.929,0,0,0,.65-8.607v-.057c-.031-1.232-.062-2.539-.019-3.795a1.1,1.1,0,0,1,.006-.139v-.156c.025-1.137.05-2.219,1.438-2.607a2.339,2.339,0,0,1,.693-.1,2.748,2.748,0,0,1,2.307,1.576,12.339,12.339,0,0,1,.92,2.076l.006.012.013.043.013.031c.156.432.318.877.519,1.3a13.1,13.1,0,0,0,4.227,5.82,4.487,4.487,0,0,0,2.538.807,5.25,5.25,0,0,0,4.2-2.412,24.146,24.146,0,0,0,3.395-6.689,3.864,3.864,0,0,1,.95-1.451l.02-.025.012-.012c.032-.031.057-.062.088-.094l.057-.068a2.409,2.409,0,0,1,1.819-.92,2.2,2.2,0,0,1,.818.15c1.095.406,1.27,1.369,1.295,2.357.031,1.268,0,2.594-.031,3.764v.055a35.577,35.577,0,0,0,.362,7.621,2,2,0,0,1,.006.477v.025c-.019.375-.037.762.351.9a.828.828,0,0,0,.3.064,1.82,1.82,0,0,0,1.22-.8c1.827-2.119,3.49-4.053,4.938-5.77V24851c0,.652-.011,1.3-.031,1.945-.04-.453-.073-.939-.1-1.463a10.215,10.215,0,0,1-3.045,3.338l-.007.006a13.88,13.88,0,0,0-1.443,1.244,1.951,1.951,0,0,1-1.426.689,3.981,3.981,0,0,1-1.694-.557l-.006-.008-.025-.006a4.082,4.082,0,0,0-1.619-.549c-1.051-.051-1.345-1.295-1.426-2.033-.138-1.363-.331-2.732-.519-4.062l-.007-.025-.006-.014-.031-.256c-.019-.131-.037-.256-.057-.387l-.019-.113-.013-.113c-.037-.242-.074-.5-.105-.756-2.933,2.707-5.277,4.389-7.859,4.389-2.532,0-5.183-1.594-8.64-4.17-.069.443-.145.875-.238,1.352l-.05.268v.014a19.507,19.507,0,0,0-.45,3.688c.019,1.877-1.15,2.176-2.282,2.471l-.019.006a4.3,4.3,0,0,0-1.487.574,1.516,1.516,0,0,1-.895.3,2.672,2.672,0,0,1-1.744-.857c-.906-.844-1.869-1.674-2.8-2.48l-.069-.062c-.387-.332-.975-.838-1.537-1.338a14.315,14.315,0,0,1-.694,4.775,8.89,8.89,0,0,1-2.657,3.863,9.054,9.054,0,0,1-6.265,1.957c-.956,0-2.031-.068-2.813-.111l-.425-.02a11.236,11.236,0,0,1,2.407,3.252l.006.018.075.125a14.556,14.556,0,0,0,1.025,1.645,2.219,2.219,0,0,1,.219,2.514c-1.169,2.406-2.576,3.482-4.576,3.482a6.491,6.491,0,0,1-1.138-.107,14.078,14.078,0,0,0-1.551-.174h-.019a15.817,15.817,0,0,1-2.563-.357c2.376,2.926,3.745,5.439,3.27,8.928a8.131,8.131,0,0,1-2.095,4.453,22.49,22.49,0,0,1-3.97,3.244,12.034,12.034,0,0,1,4.07.969l.006.006.207.076h.006a16,16,0,0,0,1.775.568c1.551.381,1.645,1.545,1.731,2.67v.025a4.757,4.757,0,0,0,.307,1.637c.351.758.013,1.525-1.007,2.283-1.175.869-2.307,1.768-3.4,2.637l-.062.051c-.3.238-.569.449-.825.656-.219.17-.432.338-.638.506,3.813.4,6.276,1.744,7.983,4.365a8.181,8.181,0,0,1,1.351,4.188q-2.263.384-4.581.6A4.238,4.238,0,0,0,10016.6,24906.34Zm13.686.693a5.943,5.943,0,0,0,.257-1.477l.006-.086a6.766,6.766,0,0,1,.15-1.088,2.639,2.639,0,0,0-1.544-2.957,8.247,8.247,0,0,0-2.482-.939,2.728,2.728,0,0,1-2.5-2.23c-.219-1.352.788-2.145,1.688-2.684l.056-.037c1.889-1.119,3.376-2.006,4.927-2.912-.394-.082-.769-.156-1.138-.232l-.119-.025-.144-.025c-.119-.023-.231-.049-.338-.068h-.012l-.207-.043c-1.419-.287-2.638-.531-3.895-.826-1.038-.25-2.032-.656-2.288-1.887a2.533,2.533,0,0,1,1.325-2.852,1.933,1.933,0,0,0,.35-.287c1.67-1.471,2.477-2.258,2.633-3.145s-.332-1.877-1.426-3.758c-.062-.113-.138-.232-.231-.381l-.019-.039c-.588-.963-1.138-1.869-.325-3.051a2.225,2.225,0,0,1,2.013-.994,8.852,8.852,0,0,1,1.213.113c.075.006.163.02.257.031,1.063.145,2.082.307,3.6.563l.331.057,1.406.23-.006-.006-.257-.318c-.337-.426-.631-.789-.894-1.119l-.081-.1c-.513-.633-.976-1.207-1.432-1.789-.069-.1-.145-.193-.226-.3l-.037-.043c-.031-.037-.057-.074-.088-.113l-.025-.031a9.632,9.632,0,0,1-1.287-1.893,2.267,2.267,0,0,1,0-2.1,2.355,2.355,0,0,1,1.9-1.107,15,15,0,0,1,1.582-.074c.243,0,.506.006.8.012h.125a1.766,1.766,0,0,1,.2.008h.318c2.045,0,3.083-.869,3.251-2.746a15.332,15.332,0,0,1,.494-2.488l.031-.148c.388-1.439,1.176-2.232,2.226-2.232a3.3,3.3,0,0,1,1.976.818,15.233,15.233,0,0,1,2.451,2.676l.013.014.013.012.037.051.019.031c.494.625,1.007,1.281,1.607,1.912a12.837,12.837,0,0,0,.193-3.238v-.012a10.745,10.745,0,0,1,.237-3.178c.395-1.469,1.169-2.281,2.176-2.281a3.179,3.179,0,0,1,1.92.813,3.62,3.62,0,0,1,.356.338l.056.063.007.006.012.02a.689.689,0,0,1,.069.074l.013.006a2.911,2.911,0,0,0,.287.283c1.463,1.213,2.376,1.824,3.289,1.824.938,0,1.888-.674,3.313-1.918l.269-.232.013-.012a3.671,3.671,0,0,1,2.313-1.258,2.268,2.268,0,0,1,.932.213c1.613.732,1.6,2.4,1.588,3.738v.008l-.006.174c-.006.514.006,1.02.025,1.6v.043l.006.156.006.182c.025.8.051,1.7.013,2.744.444-.531.845-1.025,1.231-1.5l.057-.068.025-.031c.756-.937,1.476-1.814,2.244-2.633a3.62,3.62,0,0,1,2.488-1.494,2.34,2.34,0,0,1,.838.162c1.244.494,1.52,1.625,1.726,2.945a10.229,10.229,0,0,0,.9,3.412q-.6,2.35-1.38,4.621a7.473,7.473,0,0,1-2.627-2.514c-.325-.557-.6-.8-.888-.8-.319,0-.663.338-1.044.75a4.584,4.584,0,0,1-3.326,1.082c-2.032,0-4.264-.789-4.389-2.258-.226-2.576-1.3-2.932-2.426-2.932a9.414,9.414,0,0,0-1.251.105h-.024a.489.489,0,0,0-.106.014.718.718,0,0,0-.112.012.7.7,0,0,0-.163.02c-.175.012-.35.031-.525.049-.193.014-.355.014-.519.014a3.855,3.855,0,0,1-1.481-.238,2.347,2.347,0,0,0-.851-.207.535.535,0,0,0-.437.162,1.332,1.332,0,0,0-.2,1.02c.2,2.77-1.682,3.395-3.507,4l-.02.012h-.012c-.407.139-.794.27-1.157.414a2.685,2.685,0,0,1-1.05.219,3.455,3.455,0,0,1-2.657-1.588c-.025-.031-.044-.062-.069-.094l-.012-.025-.044-.057c-.194-.295-.432-.613-.694-.613-.182,0-.35.131-.513.395a12.07,12.07,0,0,1-5.564,4.363c1.457,1.014,2.113,2.139,2.02,3.434a8.731,8.731,0,0,1-1.463,3.525,3.257,3.257,0,0,1-2.9,1.857,4.954,4.954,0,0,1-1.494-.264,1.461,1.461,0,0,0-.463-.08.462.462,0,0,0-.375.148c-.138.15-.169.432-.094.863a9.484,9.484,0,0,1-1.326,6.377c3.539.551,3.714.732,4.758,4.9.682,2.725-1.081,3.869-3.106,4.895a9.976,9.976,0,0,1,3.8,6.508c1.807-.9,2.707-1.332,3.444-1.332.757,0,1.345.457,2.526,1.369l.019.008.69.525a59.6,59.6,0,0,1-11.91,4.523A2.768,2.768,0,0,1,10030.289,24907.033Z" transform="translate(-9828.285 -24658.043)" opacity="0.2"/>
</svg>
