<svg id="track__project__goal__image" width="678" height="2595" viewBox="0 0 678 2595" fill="none" xmlns="http://www.w3.org/2000/svg">
        <path class="line" stroke="#000" stroke-width="2" 
        d="M582.119 2594.55C581.741 2537.9 545.863 2418.03 405.371 2391.75C229.755 2358.89 81.3317 2188.94 196.898 1991.8C203.318 1962.34 249.923 1891.41 384.976 1843.37C553.793 1783.32 627.438 1688.15 652.365 1598.65C677.291 1509.14 713.547 1344.85 588.916 1230.42C464.286 1115.99 358.917 1117.12 224.09 1112.59C89.2631 1108.06 -75.0221 914.312 39.411 697.909C66.1539 649.955 149.055 553.273 266.714 550.177C413.789 546.307 556.645 593.813 556.645 217.35C556.645 194.71 544.258 123.309 496.494 100.324C443.492 74.8195 449.62 16.3616 452.649 1.07031"  />
    
    <path class="dashed" stroke="#fff" stroke-width="3" stroke-dasharray="6 6"
        d="M582.119 2594.55C581.741 2537.9 545.863 2418.03 405.371 2391.75C229.755 2358.89 81.3317 2188.94 196.898 1991.8C203.318 1962.34 249.923 1891.41 384.976 1843.37C553.793 1783.32 627.438 1688.15 652.365 1598.65C677.291 1509.14 713.547 1344.85 588.916 1230.42C464.286 1115.99 358.917 1117.12 224.09 1112.59C89.2631 1108.06 -75.0221 914.312 39.411 697.909C66.1539 649.955 149.055 553.273 266.714 550.177C413.789 546.307 556.645 593.813 556.645 217.35C556.645 194.71 544.258 123.309 496.494 100.324C443.492 74.8195 449.62 16.3616 452.649 1.07031" />
</svg>
