<svg xmlns="http://www.w3.org/2000/svg" xmlns:xlink="http://www.w3.org/1999/xlink" width="809" height="778" viewBox="0 0 809 778">
  <defs>
    <filter id="Path_24838" x="206.147" y="87.786" width="61.96" height="61.96" filterUnits="userSpaceOnUse">
      <feOffset dy="3" input="SourceAlpha"/>
      <feGaussianBlur stdDeviation="3" result="blur"/>
      <feFlood flood-opacity="0.161"/>
      <feComposite operator="in" in2="blur"/>
      <feComposite in="SourceGraphic"/>
    </filter>
    <filter id="Rectangle_1467" x="210.5" y="344.852" width="100.442" height="51.711" filterUnits="userSpaceOnUse">
      <feOffset dy="10" input="SourceAlpha"/>
      <feGaussianBlur stdDeviation="5" result="blur-2"/>
      <feFlood flood-opacity="0.031"/>
      <feComposite operator="in" in2="blur-2"/>
      <feComposite in="SourceGraphic"/>
    </filter>
    <filter id="Rectangle_1467-2" x="316.5" y="344.852" width="100.442" height="51.711" filterUnits="userSpaceOnUse">
      <feOffset dy="10" input="SourceAlpha"/>
      <feGaussianBlur stdDeviation="5" result="blur-3"/>
      <feFlood flood-opacity="0.031"/>
      <feComposite operator="in" in2="blur-3"/>
      <feComposite in="SourceGraphic"/>
    </filter>
    <filter id="Rectangle_1467-3" x="425.5" y="344.852" width="100.442" height="51.711" filterUnits="userSpaceOnUse">
      <feOffset dy="10" input="SourceAlpha"/>
      <feGaussianBlur stdDeviation="5" result="blur-4"/>
      <feFlood flood-opacity="0.031"/>
      <feComposite operator="in" in2="blur-4"/>
      <feComposite in="SourceGraphic"/>
    </filter>
    <clipPath id="clip-path">
      <rect width="300" height="28" fill="none"/>
    </clipPath>
  </defs>
  <g id="Group_7575" data-name="Group 7575" transform="translate(-583 -15253)">
    <g id="Rectangle_2028" data-name="Rectangle 2028" transform="translate(773 15253)" fill="none" stroke="#fff" stroke-width="2">
      <rect width="353" height="778" stroke="none"/>
      <rect x="1" y="1" width="351" height="776" fill="none"/>
    </g>
    <g id="Rectangle_2029" data-name="Rectangle 2029" transform="translate(793 15253)" fill="none" stroke="#fff" stroke-width="2" opacity="0.8">
      <rect width="313" height="778" stroke="none"/>
      <rect x="1" y="1" width="311" height="776" fill="none"/>
    </g>
    <text id="_24px" data-name="24px" transform="translate(1340 15509)" fill="#fff" font-size="24" font-family="Access-Regular, Access"><tspan x="0" y="0">24px</tspan></text>
    <text id="Size_2" data-name="Size 2" transform="translate(583 15759)" fill="#fff" font-size="24" font-family="Access-Regular, Access"><tspan x="0" y="0">Size 2</tspan></text>
    <text id="Categories" transform="translate(800 15490)" fill="#fff" font-size="14" font-family="Access-Regular, Access"><tspan x="0" y="0">Categories</tspan></text>
    <text id="Play_and_earn" data-name="Play and earn" transform="translate(800 15708)" fill="#fff" font-size="14" font-family="Access-Regular, Access"><tspan x="0" y="0">Play and earn</tspan></text>
    <text id="Get_point_and_cashback" data-name="Get point and cashback" transform="translate(800 15857)" fill="#fff" font-size="14" font-family="Access-Regular, Access"><tspan x="0" y="0">Get point and cashback</tspan></text>
    <text id="See_All" data-name="See All" transform="translate(1058 15490)" fill="#fff" font-size="14" font-family="Access-Regular, Access"><tspan x="0" y="0">See All</tspan></text>
    <text id="See_All-2" data-name="See All" transform="translate(1058 15857)" fill="#fff" font-size="14" font-family="Access-Regular, Access"><tspan x="0" y="0">See All</tspan></text>
    <g id="Rectangle_2030" data-name="Rectangle 2030" transform="translate(773 15451)" fill="none" stroke="#fff" stroke-width="2" opacity="0.5">
      <path d="M23,0H330a23,23,0,0,1,23,23V580a0,0,0,0,1,0,0H0a0,0,0,0,1,0,0V23A23,23,0,0,1,23,0Z" stroke="none"/>
      <path d="M23,1H330a22,22,0,0,1,22,22V578a1,1,0,0,1-1,1H2a1,1,0,0,1-1-1V23A22,22,0,0,1,23,1Z" fill="none"/>
    </g>
    <path id="Path_24412" data-name="Path 24412" d="M44.6,274.684l-9.333-7.624-9.333,7.624a1.823,1.823,0,0,0-.667,1.407v9.155a1.823,1.823,0,0,0,1.817,1.814h4.85v-4.993a3.333,3.333,0,0,1,6.667,0v4.993h4.85a1.823,1.823,0,0,0,1.817-1.814v-9.155a1.823,1.823,0,0,0-.667-1.407Z" transform="translate(792.729 15689.537)" fill="#fff"/>
    <path id="Path_23985" data-name="Path 23985" d="M326.813,269.743a5.674,5.674,0,1,1-5.673-5.683A5.678,5.678,0,0,1,326.813,269.743ZM311.68,283.466c0-3.388,4.242-6.145,9.457-6.145s9.457,2.756,9.457,6.145v3.327H311.68Z" transform="translate(739 15695.537)" fill="#ffa4a4" fill-rule="evenodd"/>
    <rect id="Rectangle_2034" data-name="Rectangle 2034" width="19" height="4" rx="2" transform="translate(819 15983)" fill="#fff"/>
    <path id="Path_24413" data-name="Path 24413" d="M0,0S114.429-11.772,177.179,27.728,251,158,251,158" transform="translate(1114.995 15323.598)" fill="none" stroke="#fff" stroke-width="2" stroke-dasharray="10"/>
    <path id="Path_24414" data-name="Path 24414" d="M0,0S5.651,90.45,55.151,140.2,198,199,198,199" transform="translate(613.995 15777.598)" fill="none" stroke="#fff" stroke-width="2" stroke-dasharray="10"/>
    <line id="Line_85" data-name="Line 85" y2="778" transform="translate(950.5 15253)" fill="none" stroke="#fff" stroke-width="2" opacity="0.5"/>
    <path id="Path_24831" data-name="Path 24831" d="M25.855,15.828h1.039a2.283,2.283,0,0,0,1.54-.516,1.723,1.723,0,0,0,.561-1.353,1.688,1.688,0,0,0-1.906-1.913,1.987,1.987,0,0,0-1.435.516,1.786,1.786,0,0,0-.531,1.353H23.74a2.77,2.77,0,0,1,.942-2.145,3.449,3.449,0,0,1,2.407-.86,3.4,3.4,0,0,1,2.414.815,2.943,2.943,0,0,1,.875,2.265,2.376,2.376,0,0,1-.463,1.375,2.753,2.753,0,0,1-1.248.994,2.653,2.653,0,0,1,1.383.942,2.6,2.6,0,0,1,.493,1.607,2.969,2.969,0,0,1-.957,2.325,3.582,3.582,0,0,1-2.489.86,3.692,3.692,0,0,1-2.5-.83,2.757,2.757,0,0,1-.957-2.19h1.39a1.779,1.779,0,0,0,.561,1.375,2.132,2.132,0,0,0,1.5.516,2.092,2.092,0,0,0,1.532-.523,2.016,2.016,0,0,0,.531-1.5,1.83,1.83,0,0,0-.583-1.458,2.54,2.54,0,0,0-1.682-.523H25.855Zm6.46,5.389a.876.876,0,0,1,.209-.6.984.984,0,0,1,1.286,0,.841.841,0,0,1,.224.6.8.8,0,0,1-.224.576,1.008,1.008,0,0,1-1.286,0A.827.827,0,0,1,32.315,21.217Zm.007-6.6a.875.875,0,0,1,.209-.6.984.984,0,0,1,1.286,0,.84.84,0,0,1,.224.6.8.8,0,0,1-.224.575,1.007,1.007,0,0,1-1.286,0A.827.827,0,0,1,32.323,14.617Zm7.925,7.325h-1.39V12.726L36.07,13.75V12.495l3.962-1.487h.217Zm9.129-4.784a3.367,3.367,0,0,1-1.039.83,2.786,2.786,0,0,1-1.315.314,2.918,2.918,0,0,1-1.644-.463,3.027,3.027,0,0,1-1.076-1.3,4.472,4.472,0,0,1-.381-1.861,4.565,4.565,0,0,1,.411-1.966,3.069,3.069,0,0,1,1.181-1.338,3.356,3.356,0,0,1,1.779-.463,3.025,3.025,0,0,1,2.541,1.211,5.233,5.233,0,0,1,.934,3.289v.4a7.051,7.051,0,0,1-1.256,4.642,4.831,4.831,0,0,1-3.79,1.495h-.269V20.784h.292a3.813,3.813,0,0,0,2.631-.889A3.851,3.851,0,0,0,49.377,17.159Zm-2.13,0a2.119,2.119,0,0,0,1.278-.426,2.5,2.5,0,0,0,.86-1.054v-.553a3.8,3.8,0,0,0-.591-2.212,1.8,1.8,0,0,0-2.96-.149,2.867,2.867,0,0,0-.553,1.839,3.032,3.032,0,0,0,.531,1.839A1.7,1.7,0,0,0,47.247,17.159Z" transform="translate(776.505 15253.145)" fill="#fff"/>
    <path id="Path_24832" data-name="Path 24832" d="M325.441,16.487l.553-5.426h5.576v1.278h-4.4l-.328,2.967a3.509,3.509,0,0,1,1.816-.471,3,3,0,0,1,2.362.987,3.839,3.839,0,0,1,.875,2.653,3.723,3.723,0,0,1-.912,2.653,3.306,3.306,0,0,1-2.534.964,3.44,3.44,0,0,1-2.354-.8,3.19,3.19,0,0,1-1.039-2.212h1.308a2.21,2.21,0,0,0,.665,1.413,2.081,2.081,0,0,0,1.42.471,1.855,1.855,0,0,0,1.51-.658,2.738,2.738,0,0,0,.553-1.816,2.5,2.5,0,0,0-.6-1.749,2,2,0,0,0-1.577-.665,2.278,2.278,0,0,0-1.42.4l-.366.3Zm13.038.673a3.364,3.364,0,0,1-1.039.83,2.783,2.783,0,0,1-1.315.314,2.92,2.92,0,0,1-1.644-.463,3.021,3.021,0,0,1-1.076-1.3,4.462,4.462,0,0,1-.382-1.861,4.56,4.56,0,0,1,.411-1.966,3.067,3.067,0,0,1,1.181-1.338,3.356,3.356,0,0,1,1.779-.463,3.024,3.024,0,0,1,2.541,1.211,5.231,5.231,0,0,1,.935,3.289v.4a7.048,7.048,0,0,1-1.256,4.642,4.828,4.828,0,0,1-3.789,1.495h-.269V20.784h.291a3.811,3.811,0,0,0,2.631-.889A3.849,3.849,0,0,0,338.479,17.159Zm-2.13,0a2.118,2.118,0,0,0,1.278-.426,2.5,2.5,0,0,0,.859-1.054v-.553a3.805,3.805,0,0,0-.59-2.212,1.8,1.8,0,0,0-2.96-.149,2.868,2.868,0,0,0-.553,1.839,3.03,3.03,0,0,0,.531,1.839A1.7,1.7,0,0,0,336.349,17.159Zm5.085-4.006a2.216,2.216,0,0,1,.62-1.614,2.163,2.163,0,0,1,1.607-.635,2.12,2.12,0,0,1,1.607.643,2.265,2.265,0,0,1,.62,1.652v.531a2.184,2.184,0,0,1-.628,1.615,2.145,2.145,0,0,1-1.584.62,2.205,2.205,0,0,1-1.607-.62,2.24,2.24,0,0,1-.635-1.667Zm1.031.576a1.426,1.426,0,0,0,.329.964,1.116,1.116,0,0,0,.882.374,1.078,1.078,0,0,0,.852-.366,1.442,1.442,0,0,0,.329-1v-.546a1.444,1.444,0,0,0-.321-.964,1.194,1.194,0,0,0-1.749,0,1.489,1.489,0,0,0-.321.994Zm4.269,5.546a2.191,2.191,0,0,1,.62-1.607,2.36,2.36,0,0,1,3.214-.007,2.253,2.253,0,0,1,.629,1.667v.531a2.2,2.2,0,0,1-.629,1.614,2.14,2.14,0,0,1-1.592.628,2.2,2.2,0,0,1-1.606-.62,2.236,2.236,0,0,1-.635-1.667Zm1.031.583a1.432,1.432,0,0,0,.329.972,1.114,1.114,0,0,0,.881.374,1.089,1.089,0,0,0,.86-.366,1.5,1.5,0,0,0,.32-1.009v-.553a1.408,1.408,0,0,0-.328-.964,1.086,1.086,0,0,0-.867-.374,1.113,1.113,0,0,0-.867.374,1.431,1.431,0,0,0-.329.994Zm-3.774,1.263-.785-.493,5.314-8.506.785.493Z" transform="translate(747.657 15253.145)" fill="#fff"/>
    <path id="Path_24833" data-name="Path 24833" d="M281.188,23.511l7.948-9.9a12.941,12.941,0,0,0-15.909,0l7.947,9.9.008.007Z" transform="translate(742.816 15253.141)" fill="#fff" fill-rule="evenodd"/>
    <path id="Path_24834" data-name="Path 24834" d="M290.25,23.917h13.667V10.25Z" transform="translate(744.406 15253.082)" fill="#fff" fill-rule="evenodd"/>
    <path id="Path_24835" data-name="Path 24835" d="M252,19.075h1.367v-4.1H252Zm2.05,1.367h1.367V13.608H254.05Zm12.984-5.467v4.1H268.4v-4.1Zm-2.05,5.467h1.367V13.608h-1.367Zm-1.709-9.567h-6.149A1.024,1.024,0,0,0,256.1,11.9V22.151a1.024,1.024,0,0,0,1.026,1.025h6.149a1.024,1.024,0,0,0,1.026-1.025V11.9A1.024,1.024,0,0,0,263.275,10.875Zm-.341,10.934h-5.467V12.242h5.467Z" transform="translate(740.833 15253.141)" fill="#fff" fill-rule="evenodd"/>
    <path id="Path_24836" data-name="Path 24836" d="M245.811,14.152l-3.9-3.9h-.683v5.187L238.088,12.3l-.963.964,3.82,3.82-3.82,3.82.963.964,3.137-3.137v5.187h.683l3.9-3.9-2.939-2.932Zm-3.219-1.285,1.285,1.285-1.285,1.285Zm1.285,7.148L242.592,21.3V18.731Z" transform="translate(739.444 15253.082)" fill="#fff" fill-rule="evenodd"/>
    <path id="Path_24837" data-name="Path 24837" d="M317.3,11.617h-1.142V10.25h-2.733v1.367h-1.142a.913.913,0,0,0-.909.909V23a.914.914,0,0,0,.909.916h5.009a.914.914,0,0,0,.916-.909V12.526A.913.913,0,0,0,317.3,11.617Z" transform="translate(746.379 15253.082)" fill="#fff" fill-rule="evenodd"/>
    <g id="Group_7489" data-name="Group 7489" transform="translate(2.734 -1032)">
      <path id="Path_24843" data-name="Path 24843" d="M10.424,0h55.6a10.424,10.424,0,0,1,0,20.849h-55.6A10.424,10.424,0,0,1,10.424,0Z" transform="translate(1020.829 16390.342)" fill="#fff"/>
      <path id="Path_24844" data-name="Path 24844" d="M3.741-30.315H7.386v.577H4.418v2.032h2.8v.577h-2.8v2.709H3.741Zm7.9,1.823v4.072h-.661v-.694a1.325,1.325,0,0,1-.539.56,1.585,1.585,0,0,1-.782.192,1.4,1.4,0,0,1-1.1-.406,1.732,1.732,0,0,1-.368-1.2v-2.525h.677v2.508a1.215,1.215,0,0,0,.217.8.853.853,0,0,0,.686.255,1.126,1.126,0,0,0,.861-.347,1.283,1.283,0,0,0,.326-.916v-2.3ZM12.9-30.315h.677v5.895H12.9Zm1.94,0h.677v5.895h-.677Zm5.619.585H18.415v-.585h4.8v.585H21.157v5.309h-.694Zm3.478,1.237h.677v4.072h-.677Zm.752-1.764v.761h-.819v-.761Zm5.719,1.664q1.354,0,1.354,1.614v2.558H31.09v-2.525a1.364,1.364,0,0,0-.2-.819.741.741,0,0,0-.631-.259,1,1,0,0,0-.8.343,1.4,1.4,0,0,0-.293.936v2.324H28.49v-2.525a1.339,1.339,0,0,0-.2-.824.759.759,0,0,0-.635-.255,1,1,0,0,0-.8.343,1.4,1.4,0,0,0-.293.936v2.324h-.677v-4.072h.669v.644a1.323,1.323,0,0,1,.51-.552,1.453,1.453,0,0,1,.752-.192,1.2,1.2,0,0,1,1.246.8,1.32,1.32,0,0,1,.535-.589A1.576,1.576,0,0,1,30.413-28.593Zm6,2.241H33.439a1.6,1.6,0,0,0,.385,1.074,1.319,1.319,0,0,0,.995.364,2.016,2.016,0,0,0,1.3-.485l.226.493a1.909,1.909,0,0,1-.686.4,2.564,2.564,0,0,1-.853.146,2,2,0,0,1-1.5-.56,2.118,2.118,0,0,1-.548-1.547A2.428,2.428,0,0,1,33-27.577a1.809,1.809,0,0,1,.681-.748,1.881,1.881,0,0,1,1-.268,1.593,1.593,0,0,1,1.271.531,2.155,2.155,0,0,1,.46,1.459Zm-1.722-1.714a1.134,1.134,0,0,0-.857.334,1.528,1.528,0,0,0-.38.945h2.366a1.448,1.448,0,0,0-.309-.949A1.038,1.038,0,0,0,34.694-28.066Zm2.717-2.249h.677v5.895h-.677Zm1.94,1.823h.677v4.072h-.677Zm.752-1.764v.761h-.819v-.761Zm3.236,1.664q1.463,0,1.463,1.614v2.558h-.677v-2.517a1.262,1.262,0,0,0-.222-.828.881.881,0,0,0-.707-.259,1.193,1.193,0,0,0-.895.343,1.272,1.272,0,0,0-.334.928v2.333h-.677v-4.072h.669v.669a1.371,1.371,0,0,1,.56-.573A1.681,1.681,0,0,1,43.339-28.593Zm6.112,2.241H46.474a1.6,1.6,0,0,0,.385,1.074,1.319,1.319,0,0,0,.995.364,2.016,2.016,0,0,0,1.3-.485l.226.493a1.909,1.909,0,0,1-.686.4,2.564,2.564,0,0,1-.853.146,2,2,0,0,1-1.5-.56,2.118,2.118,0,0,1-.548-1.547,2.428,2.428,0,0,1,.242-1.108,1.809,1.809,0,0,1,.681-.748,1.881,1.881,0,0,1,1-.268,1.593,1.593,0,0,1,1.271.531,2.155,2.155,0,0,1,.46,1.459Zm-1.722-1.714a1.135,1.135,0,0,0-.857.334,1.528,1.528,0,0,0-.38.945h2.366a1.448,1.448,0,0,0-.309-.949A1.038,1.038,0,0,0,47.729-28.066Z" transform="translate(1033.088 16428.072)" fill="#8d8d8d"/>
      <path id="Path_24845" data-name="Path 24845" d="M8.986-57.754a2.9,2.9,0,0,1,1.514.41,2.958,2.958,0,0,1,1.081,1.119,3.145,3.145,0,0,1,.4,1.559,3.109,3.109,0,0,1-.291,1.346,3.007,3.007,0,0,1-.8,1.04,2.9,2.9,0,0,1-1.16.589l2.536,4.378H10.709L8.233-51.579H6.607v4.266H5.265V-57.754Zm-.134,4.833a1.728,1.728,0,0,0,.895-.242,1.777,1.777,0,0,0,.649-.66,1.831,1.831,0,0,0,.239-.925,1.831,1.831,0,0,0-.239-.925,1.777,1.777,0,0,0-.649-.66,1.728,1.728,0,0,0-.895-.242H6.607v3.654Zm7.995,5.8a3.477,3.477,0,0,1-1.868-.529,3.881,3.881,0,0,1-1.357-1.428,3.953,3.953,0,0,1-.5-1.965,3.988,3.988,0,0,1,.5-1.976,3.873,3.873,0,0,1,1.357-1.432,3.477,3.477,0,0,1,1.868-.529,3.477,3.477,0,0,1,1.868.529,3.873,3.873,0,0,1,1.357,1.432,3.988,3.988,0,0,1,.5,1.976,3.953,3.953,0,0,1-.5,1.965,3.881,3.881,0,0,1-1.357,1.428A3.477,3.477,0,0,1,16.847-47.12Zm0-1.342a2.174,2.174,0,0,0,1.2-.354,2.522,2.522,0,0,0,.865-.947,2.671,2.671,0,0,0,.317-1.279,2.683,2.683,0,0,0-.321-1.29,2.544,2.544,0,0,0-.869-.951,2.162,2.162,0,0,0-1.2-.354,2.174,2.174,0,0,0-1.2.354,2.515,2.515,0,0,0-.865.951,2.708,2.708,0,0,0-.317,1.29,2.667,2.667,0,0,0,.324,1.3,2.492,2.492,0,0,0,.873.936A2.2,2.2,0,0,0,16.847-48.462ZM27.2-47.314v-3.915a2.719,2.719,0,0,0-.28-1.227,2.3,2.3,0,0,0-.757-.891,1.8,1.8,0,0,0-1.044-.328,1.765,1.765,0,0,0-1.052.324,2.093,2.093,0,0,0-.7.884,3.041,3.041,0,0,0-.246,1.238v3.915h-1.35V-58.5h1.342v4.721a2.224,2.224,0,0,1,2.125-1.193,2.986,2.986,0,0,1,1.7.5,3.4,3.4,0,0,1,1.167,1.354,4.3,4.3,0,0,1,.433,1.857v3.945Zm3.557-8.576a.691.691,0,0,1-.511-.216.7.7,0,0,1-.213-.507.709.709,0,0,1,.213-.515.691.691,0,0,1,.511-.216.7.7,0,0,1,.515.216.7.7,0,0,1,.216.515.694.694,0,0,1-.216.507A.7.7,0,0,1,30.755-55.89Zm.649,1.119v7.458H30.062v-7.458Zm4.109,1.6-.007,5.854H34.163l.007-5.854H32.918V-54.51h1.253l-.007-2.6h1.342l.007,2.6h1.656v1.342ZM45.775-47.12a5.067,5.067,0,0,1-1.641-.268,4.15,4.15,0,0,1-1.376-.768,2.728,2.728,0,0,1-.824-1.171l1.26-.47a1.548,1.548,0,0,0,.529.7,2.887,2.887,0,0,0,.928.47,3.765,3.765,0,0,0,1.122.168,3.434,3.434,0,0,0,1.216-.213,2.235,2.235,0,0,0,.91-.6,1.292,1.292,0,0,0,.343-.88q0-1.268-2.468-1.693a9.167,9.167,0,0,1-2.014-.537,3.178,3.178,0,0,1-1.309-.951,2.417,2.417,0,0,1-.481-1.547,2.56,2.56,0,0,1,.522-1.581,3.409,3.409,0,0,1,1.395-1.074,4.67,4.67,0,0,1,1.887-.38,5.086,5.086,0,0,1,1.626.265,4.105,4.105,0,0,1,1.38.768,2.847,2.847,0,0,1,.843,1.189l-1.268.455a1.548,1.548,0,0,0-.529-.7A2.833,2.833,0,0,0,46.9-56.4a3.844,3.844,0,0,0-1.122-.164,3.252,3.252,0,0,0-1.208.209,2.266,2.266,0,0,0-.91.6,1.283,1.283,0,0,0-.343.873,1.258,1.258,0,0,0,.306.9,1.806,1.806,0,0,0,.805.477,11.76,11.76,0,0,0,1.35.3,6.523,6.523,0,0,1,2.748,1.029,2.356,2.356,0,0,1,1.063,2.021,2.56,2.56,0,0,1-.522,1.581A3.409,3.409,0,0,1,47.669-47.5,4.689,4.689,0,0,1,45.775-47.12Zm10.918-.194v-3.915a2.719,2.719,0,0,0-.28-1.227,2.3,2.3,0,0,0-.757-.891,1.8,1.8,0,0,0-1.044-.328,1.765,1.765,0,0,0-1.052.324,2.093,2.093,0,0,0-.7.884,3.041,3.041,0,0,0-.246,1.238v3.915h-1.35V-58.5h1.342v4.721a2.224,2.224,0,0,1,2.125-1.193,2.986,2.986,0,0,1,1.7.5A3.4,3.4,0,0,1,57.6-53.116a4.3,4.3,0,0,1,.433,1.857v3.945Zm9.971,0H65.321v-1.223A2.917,2.917,0,0,1,64.3-47.5a2.757,2.757,0,0,1-1.447.38,3.8,3.8,0,0,1-1.965-.529,3.972,3.972,0,0,1-1.428-1.428,3.8,3.8,0,0,1-.529-1.965,3.835,3.835,0,0,1,.529-1.976,3.963,3.963,0,0,1,1.428-1.432,3.8,3.8,0,0,1,1.965-.529,2.757,2.757,0,0,1,1.447.38,2.917,2.917,0,0,1,1.022,1.037v-1.208h1.342Zm-3.8-1.1a2.183,2.183,0,0,0,1.227-.351,2.326,2.326,0,0,0,.824-.951,3,3,0,0,0,.291-1.324,3,3,0,0,0-.295-1.335,2.321,2.321,0,0,0-.828-.951,2.187,2.187,0,0,0-1.219-.347,2.444,2.444,0,0,0-1.283.354,2.622,2.622,0,0,0-.936.958,2.605,2.605,0,0,0-.347,1.32,2.584,2.584,0,0,0,.351,1.32,2.622,2.622,0,0,0,.94.955A2.45,2.45,0,0,0,62.868-48.417Zm9.9-5.019a1.709,1.709,0,0,0-.887-.239,1.835,1.835,0,0,0-1.07.328,2.2,2.2,0,0,0-.738.887,2.84,2.84,0,0,0-.265,1.231v3.915h-1.35v-7.45H69.8v1.1a3.031,3.031,0,0,1,1-.962,2.5,2.5,0,0,1,1.286-.343,2.985,2.985,0,0,1,.9.112Zm2.454-1.335v.955a3.03,3.03,0,0,1,.813-.805,1.86,1.86,0,0,1,1.014-.268,2.789,2.789,0,0,1,1.492.4,3.216,3.216,0,0,1,1.081,1.13A3.1,3.1,0,0,1,80.7-54.5a2.814,2.814,0,0,1,1.488-.4,2.925,2.925,0,0,1,1.648.477,3.2,3.2,0,0,1,1.122,1.29,3.973,3.973,0,0,1,.4,1.775v4.035H84.01v-4.035a2.715,2.715,0,0,0-.224-1.115,1.878,1.878,0,0,0-.638-.794,1.637,1.637,0,0,0-.966-.291,1.708,1.708,0,0,0-.984.295,1.957,1.957,0,0,0-.671.8,2.552,2.552,0,0,0-.239,1.107v4.035H78.947v-4.035a2.519,2.519,0,0,0-.242-1.107,1.985,1.985,0,0,0-.675-.8,1.708,1.708,0,0,0-.984-.295,1.516,1.516,0,0,0-.932.313,2.124,2.124,0,0,0-.656.835,2.676,2.676,0,0,0-.239,1.126v3.96H73.875v-7.458Zm18.838,7.458H92.713v-1.223A2.917,2.917,0,0,1,91.692-47.5a2.757,2.757,0,0,1-1.447.38,3.8,3.8,0,0,1-1.965-.529,3.972,3.972,0,0,1-1.428-1.428,3.8,3.8,0,0,1-.529-1.965,3.835,3.835,0,0,1,.529-1.976A3.963,3.963,0,0,1,88.28-54.45a3.8,3.8,0,0,1,1.965-.529,2.757,2.757,0,0,1,1.447.38,2.917,2.917,0,0,1,1.022,1.037v-1.208h1.342Zm-3.8-1.1a2.182,2.182,0,0,0,1.227-.351,2.326,2.326,0,0,0,.824-.951,3,3,0,0,0,.291-1.324,3,3,0,0,0-.295-1.335,2.321,2.321,0,0,0-.828-.951,2.187,2.187,0,0,0-1.219-.347,2.444,2.444,0,0,0-1.283.354,2.622,2.622,0,0,0-.936.958,2.605,2.605,0,0,0-.347,1.32,2.584,2.584,0,0,0,.351,1.32,2.622,2.622,0,0,0,.94.955A2.45,2.45,0,0,0,90.26-48.417Z" transform="translate(848.099 16446.322)" fill="#fff"/>
      <path id="Path_24846" data-name="Path 24846" d="M2.82-34.773h.858v5.816H6.634v.858H2.82Zm6.507,6.8a2.223,2.223,0,0,1-1.194-.338,2.476,2.476,0,0,1-.868-.915,2.54,2.54,0,0,1-.322-1.259,2.54,2.54,0,0,1,.322-1.259,2.476,2.476,0,0,1,.868-.915A2.223,2.223,0,0,1,9.327-33a2.232,2.232,0,0,1,1.211.341,2.372,2.372,0,0,1,.851.927,2.749,2.749,0,0,1,.307,1.3,2.542,2.542,0,0,1-.01.257H7.859a1.673,1.673,0,0,0,.26.686,1.485,1.485,0,0,0,.517.481,1.389,1.389,0,0,0,.691.176,1.372,1.372,0,0,0,.739-.207,1.617,1.617,0,0,0,.548-.579l.872.2a2.579,2.579,0,0,1-.522.751,2.374,2.374,0,0,1-.748.508A2.23,2.23,0,0,1,9.327-27.975Zm1.492-2.87a1.576,1.576,0,0,0-.253-.7,1.576,1.576,0,0,0-.536-.508,1.384,1.384,0,0,0-.7-.188,1.386,1.386,0,0,0-.7.184,1.546,1.546,0,0,0-.532.5,1.681,1.681,0,0,0-.262.706ZM13.78-28.1l-1.74-4.777h.915l1.373,3.78,1.373-3.78h.915L14.876-28.1Zm5.458.124a2.223,2.223,0,0,1-1.194-.338,2.476,2.476,0,0,1-.868-.915,2.54,2.54,0,0,1-.322-1.259,2.54,2.54,0,0,1,.322-1.259,2.476,2.476,0,0,1,.868-.915A2.223,2.223,0,0,1,19.238-33a2.232,2.232,0,0,1,1.211.341,2.372,2.372,0,0,1,.851.927,2.749,2.749,0,0,1,.307,1.3,2.542,2.542,0,0,1-.01.257H17.77a1.673,1.673,0,0,0,.26.686,1.485,1.485,0,0,0,.517.481,1.389,1.389,0,0,0,.691.176,1.372,1.372,0,0,0,.739-.207,1.617,1.617,0,0,0,.548-.579l.872.2a2.579,2.579,0,0,1-.522.751,2.374,2.374,0,0,1-.748.508A2.23,2.23,0,0,1,19.238-27.975Zm1.492-2.87a1.576,1.576,0,0,0-.253-.7,1.576,1.576,0,0,0-.536-.508,1.384,1.384,0,0,0-.7-.188,1.386,1.386,0,0,0-.7.184,1.546,1.546,0,0,0-.532.5,1.681,1.681,0,0,0-.262.706Zm1.721-4.4h.858V-28.1h-.858Zm7.413,3.861v.858H26.813v-.858ZM33.3-27.975a2.125,2.125,0,0,1-1.354-.462,2.956,2.956,0,0,1-.9-1.251,4.646,4.646,0,0,1-.317-1.747,4.665,4.665,0,0,1,.317-1.75,2.937,2.937,0,0,1,.9-1.251A2.132,2.132,0,0,1,33.3-34.9a2.112,2.112,0,0,1,1.349.46,2.955,2.955,0,0,1,.9,1.251,4.665,4.665,0,0,1,.317,1.75,4.646,4.646,0,0,1-.317,1.747,2.974,2.974,0,0,1-.9,1.251A2.105,2.105,0,0,1,33.3-27.975Zm0-.858a1.389,1.389,0,0,0,.958-.353,2.162,2.162,0,0,0,.6-.944,4.052,4.052,0,0,0,.2-1.306,4.043,4.043,0,0,0-.2-1.33,2.11,2.11,0,0,0-.6-.932,1.4,1.4,0,0,0-.949-.341,1.405,1.405,0,0,0-.97.355,2.152,2.152,0,0,0-.6.946,4.08,4.08,0,0,0-.2,1.3,4.008,4.008,0,0,0,.2,1.306,2.17,2.17,0,0,0,.6.944A1.4,1.4,0,0,0,33.3-28.833Zm3.232-.029q.9-.777,1.6-1.433a12.457,12.457,0,0,0,1.251-1.349,2.047,2.047,0,0,0,.551-1.142,1.23,1.23,0,0,0-.167-.627,1.257,1.257,0,0,0-.45-.458,1.192,1.192,0,0,0-.622-.169,1.2,1.2,0,0,0-.624.169,1.27,1.27,0,0,0-.455.458,1.217,1.217,0,0,0-.169.627h-.858a2.055,2.055,0,0,1,.286-1.065,2.116,2.116,0,0,1,.77-.765,2.055,2.055,0,0,1,1.051-.281,2.029,2.029,0,0,1,1.049.284,2.116,2.116,0,0,1,.765.77,2.063,2.063,0,0,1,.284,1.058,2.938,2.938,0,0,1-.748,1.716,19.207,19.207,0,0,1-1.964,2.112h2.789v.858H36.528Z" transform="translate(850.854 16442.055)" fill="#fff"/>
      <g transform="matrix(1, 0, 0, 1, 580.27, 16285)" filter="url(#Path_24838)">
        <g id="Path_24838-2" data-name="Path 24838" transform="translate(217.15 95.79)" fill="#ffa4a4">
          <path d="M 19.97986602783203 40.95973587036133 C 17.14804649353027 40.95973587036133 14.4003963470459 40.4048957824707 11.81324577331543 39.31062698364258 C 9.314866065979004 38.2538948059082 7.071296215057373 36.74130630493164 5.144855976104736 34.81487655639648 C 3.218425989151001 32.88844680786133 1.705836057662964 30.64487648010254 0.6491060256958008 28.14648628234863 C -0.4451639652252197 25.55933570861816 -1.000003933906555 22.81168556213379 -1.000003933906555 19.97986602783203 C -1.000003933906555 17.14804649353027 -0.4451639652252197 14.4003963470459 0.6491060256958008 11.81324577331543 C 1.705836057662964 9.314866065979004 3.218425989151001 7.071296215057373 5.144855976104736 5.144855976104736 C 7.071296215057373 3.218425989151001 9.314866065979004 1.705836057662964 11.81324577331543 0.6491060256958008 C 14.4003963470459 -0.4451639652252197 17.14804649353027 -1.000003933906555 19.97986602783203 -1.000003933906555 C 22.81168556213379 -1.000003933906555 25.55933570861816 -0.4451639652252197 28.14648628234863 0.6491060256958008 C 30.64487648010254 1.705836057662964 32.88844680786133 3.218425989151001 34.81487655639648 5.144855976104736 C 36.74130630493164 7.071296215057373 38.2538948059082 9.314866065979004 39.31062698364258 11.81324577331543 C 40.4048957824707 14.4003963470459 40.95973587036133 17.14804649353027 40.95973587036133 19.97986602783203 C 40.95973587036133 22.81168556213379 40.4048957824707 25.55933570861816 39.31062698364258 28.14648628234863 C 38.2538948059082 30.64487648010254 36.74130630493164 32.88844680786133 34.81487655639648 34.81487655639648 C 32.88844680786133 36.74130630493164 30.64487648010254 38.2538948059082 28.14648628234863 39.31062698364258 C 25.55933570861816 40.4048957824707 22.81168556213379 40.95973587036133 19.97986602783203 40.95973587036133 Z" stroke="none"/>
          <path d="M 19.97986602783203 -3.814697265625e-06 C 8.945285797119141 -3.814697265625e-06 -3.814697265625e-06 8.945285797119141 -3.814697265625e-06 19.97986602783203 C -3.814697265625e-06 31.01443481445312 8.945285797119141 39.95973587036133 19.97986602783203 39.95973587036133 C 31.01443481445312 39.95973587036133 39.95973587036133 31.01443481445312 39.95973587036133 19.97986602783203 C 39.95973587036133 8.945285797119141 31.01443481445312 -3.814697265625e-06 19.97986602783203 -3.814697265625e-06 M 19.97986602783203 -2.000003814697266 C 22.94624519348145 -2.000003814697266 25.82495498657227 -1.418582916259766 28.53603744506836 -0.2718925476074219 C 31.15361595153809 0.8352470397949219 33.50402450561523 2.419807434082031 35.52197647094727 4.437744140625 C 37.53992462158203 6.455696105957031 39.12447738647461 8.806106567382812 40.23162460327148 11.42369651794434 C 41.37831497192383 14.134765625 41.95973587036133 17.01348686218262 41.95973587036133 19.97986602783203 C 41.95973587036133 22.94624519348145 41.37831497192383 25.82495498657227 40.23162460327148 28.53603744506836 C 39.12447738647461 31.15361595153809 37.53992462158203 33.50402450561523 35.52197647094727 35.52197647094727 C 33.50402450561523 37.53992462158203 31.15361595153809 39.12447738647461 28.53603744506836 40.23162460327148 C 25.82495498657227 41.37831497192383 22.94624519348145 41.95973587036133 19.97986602783203 41.95973587036133 C 17.01348686218262 41.95973587036133 14.134765625 41.37831497192383 11.42369651794434 40.23162460327148 C 8.806106567382812 39.12447738647461 6.455696105957031 37.53992462158203 4.437744140625 35.52197647094727 C 2.419807434082031 33.50402450561523 0.8352470397949219 31.15361595153809 -0.2718925476074219 28.53603744506836 C -1.418582916259766 25.82495498657227 -2.000003814697266 22.94624519348145 -2.000003814697266 19.97986602783203 C -2.000003814697266 17.01348686218262 -1.418582916259766 14.134765625 -0.2718925476074219 11.42369651794434 C 0.8352470397949219 8.806106567382812 2.419807434082031 6.455696105957031 4.437744140625 4.437744140625 C 6.455696105957031 2.419807434082031 8.806106567382812 0.8352470397949219 11.42369651794434 -0.2718925476074219 C 14.134765625 -1.418582916259766 17.01348686218262 -2.000003814697266 19.97986602783203 -2.000003814697266 Z" stroke="none" fill="#fff"/>
        </g>
      </g>
    </g>
    <path id="Path_19527" data-name="Path 19527" d="M225.49,64.889a3.842,3.842,0,0,1-1.49-.314,3.374,3.374,0,0,1-1.231-.848l.424-.889a3.275,3.275,0,0,0,1.08.793,3.079,3.079,0,0,0,1.231.26,2.4,2.4,0,0,0,2.065-1,5.03,5.03,0,0,0,.725-2.967v-.684a2.654,2.654,0,0,1-.984,1.422,2.74,2.74,0,0,1-1.654.506,2.931,2.931,0,0,1-1.5-.383,2.783,2.783,0,0,1-1.025-1.08,3.257,3.257,0,0,1-.369-1.572,3.3,3.3,0,0,1,.383-1.613,2.875,2.875,0,0,1,1.08-1.107,3.1,3.1,0,0,1,1.6-.41,3.062,3.062,0,0,1,2.625,1.244,5.634,5.634,0,0,1,.93,3.459,6.257,6.257,0,0,1-1.025,3.842A3.394,3.394,0,0,1,225.49,64.889Zm.4-4.662a1.99,1.99,0,0,0,1.49-.588,2.146,2.146,0,0,0,.574-1.545,2.117,2.117,0,0,0-.574-1.545,2.13,2.13,0,0,0-2.967,0,2.117,2.117,0,0,0-.574,1.545,2.146,2.146,0,0,0,.574,1.545A1.974,1.974,0,0,0,225.886,60.227Zm7.665,4.662a3.839,3.839,0,0,1-1.49-.314,3.357,3.357,0,0,1-1.231-.848l.424-.889a3.265,3.265,0,0,0,1.08.793,3.072,3.072,0,0,0,1.231.26,2.4,2.4,0,0,0,2.065-1,5.038,5.038,0,0,0,.725-2.967v-.684a2.664,2.664,0,0,1-.984,1.422,2.742,2.742,0,0,1-1.654.506,2.929,2.929,0,0,1-1.5-.383,2.783,2.783,0,0,1-1.025-1.08,3.257,3.257,0,0,1-.369-1.572,3.292,3.292,0,0,1,.383-1.613,2.861,2.861,0,0,1,1.08-1.107,3.1,3.1,0,0,1,1.6-.41,3.065,3.065,0,0,1,2.625,1.244,5.64,5.64,0,0,1,.93,3.459,6.257,6.257,0,0,1-1.025,3.842A3.4,3.4,0,0,1,233.551,64.889Zm.4-4.662a1.992,1.992,0,0,0,1.49-.588,2.146,2.146,0,0,0,.574-1.545,2.117,2.117,0,0,0-.574-1.545,2.13,2.13,0,0,0-2.967,0,2.117,2.117,0,0,0-.574,1.545,2.146,2.146,0,0,0,.574,1.545A1.974,1.974,0,0,0,233.947,60.227Zm7.664,4.662a3.839,3.839,0,0,1-1.49-.314,3.374,3.374,0,0,1-1.231-.848l.424-.889a3.275,3.275,0,0,0,1.08.793,3.079,3.079,0,0,0,1.231.26,2.4,2.4,0,0,0,2.065-1,5.03,5.03,0,0,0,.725-2.967v-.684a2.664,2.664,0,0,1-.984,1.422,2.742,2.742,0,0,1-1.654.506,2.929,2.929,0,0,1-1.5-.383,2.783,2.783,0,0,1-1.025-1.08,3.257,3.257,0,0,1-.369-1.572,3.3,3.3,0,0,1,.383-1.613,2.868,2.868,0,0,1,1.08-1.107,3.1,3.1,0,0,1,1.6-.41,3.062,3.062,0,0,1,2.625,1.244,5.634,5.634,0,0,1,.93,3.459,6.257,6.257,0,0,1-1.025,3.842A3.394,3.394,0,0,1,241.611,64.889Zm.4-4.662a1.992,1.992,0,0,0,1.49-.588,2.146,2.146,0,0,0,.574-1.545,2.117,2.117,0,0,0-.574-1.545,2.13,2.13,0,0,0-2.967,0,2.117,2.117,0,0,0-.574,1.545,2.146,2.146,0,0,0,.574,1.545A1.974,1.974,0,0,0,242.007,60.227Zm7.664,4.662a3.842,3.842,0,0,1-1.49-.314,3.374,3.374,0,0,1-1.231-.848l.424-.889a3.275,3.275,0,0,0,1.08.793,3.079,3.079,0,0,0,1.231.26,2.4,2.4,0,0,0,2.065-1,5.03,5.03,0,0,0,.725-2.967v-.684a2.654,2.654,0,0,1-.984,1.422,2.74,2.74,0,0,1-1.654.506,2.931,2.931,0,0,1-1.5-.383,2.783,2.783,0,0,1-1.025-1.08,3.257,3.257,0,0,1-.369-1.572,3.3,3.3,0,0,1,.383-1.613,2.875,2.875,0,0,1,1.08-1.107A3.1,3.1,0,0,1,250,55a3.062,3.062,0,0,1,2.625,1.244,5.634,5.634,0,0,1,.93,3.459,6.257,6.257,0,0,1-1.025,3.842A3.394,3.394,0,0,1,249.671,64.889Zm.4-4.662a1.99,1.99,0,0,0,1.49-.588,2.146,2.146,0,0,0,.574-1.545,2.117,2.117,0,0,0-.574-1.545,2.13,2.13,0,0,0-2.967,0,2.117,2.117,0,0,0-.574,1.545,2.146,2.146,0,0,0,.574,1.545A1.974,1.974,0,0,0,250.067,60.227Zm7.665,4.662a3.839,3.839,0,0,1-1.49-.314,3.357,3.357,0,0,1-1.231-.848l.424-.889a3.265,3.265,0,0,0,1.08.793,3.072,3.072,0,0,0,1.231.26,2.4,2.4,0,0,0,2.065-1,5.038,5.038,0,0,0,.725-2.967v-.684a2.664,2.664,0,0,1-.984,1.422,2.742,2.742,0,0,1-1.654.506,2.929,2.929,0,0,1-1.5-.383,2.783,2.783,0,0,1-1.025-1.08A3.257,3.257,0,0,1,255,58.135a3.292,3.292,0,0,1,.383-1.613,2.861,2.861,0,0,1,1.08-1.107,3.1,3.1,0,0,1,1.6-.41,3.064,3.064,0,0,1,2.625,1.244,5.64,5.64,0,0,1,.93,3.459,6.256,6.256,0,0,1-1.025,3.842A3.4,3.4,0,0,1,257.732,64.889Zm.4-4.662a1.992,1.992,0,0,0,1.49-.588,2.146,2.146,0,0,0,.574-1.545,2.116,2.116,0,0,0-.574-1.545,2.13,2.13,0,0,0-2.967,0,2.117,2.117,0,0,0-.574,1.545,2.146,2.146,0,0,0,.574,1.545A1.974,1.974,0,0,0,258.128,60.227Z" transform="translate(762.178 15254.996)" fill="#fff"/>
    <path id="Path_19528" data-name="Path 19528" d="M54.149,55.434v-3.3l.6,0h0c.481,0,.952,0,1.421-.008a6.33,6.33,0,0,0,1.168-.1,4.1,4.1,0,0,0,2.7-6.354,4.313,4.313,0,0,0-3.72-1.871c-1.187-.015-2.375-.011-3.563-.008q-.792,0-1.584,0c-.046,0-.092,0-.138.008h0l-.071.005V55.434Zm.016-6.1V46.613c.221,0,.441,0,.661-.007.489-.008.974-.016,1.455.016a1.36,1.36,0,0,1,1.014,1.832,1.242,1.242,0,0,1-1.288.877ZM29.16,43.814H25.993V55.436h3.175V51.114h3.418v4.32h3.164V43.817H32.57v4.508H29.16ZM43.031,55.438a5.929,5.929,0,0,1-5.022-2.919,5.387,5.387,0,0,1-.777-3.108,5.5,5.5,0,0,1,1.729-3.878,6.019,6.019,0,0,1,3.433-1.643,6.385,6.385,0,0,1,3.493.436,5.71,5.71,0,0,1,1.207,9.929A6.622,6.622,0,0,1,43.031,55.438Zm.322-8.6a2.884,2.884,0,0,0-2.482,1.4,2.727,2.727,0,0,0,0,2.792,2.843,2.843,0,1,0,2.477-4.192ZM23.294,49.189A2.97,2.97,0,0,1,24.652,51.5a3.433,3.433,0,0,1-.386,2.136A3.394,3.394,0,0,1,22.35,55.11a7.391,7.391,0,0,1-3.093.285,8.533,8.533,0,0,1-3.128-.846c-.125-.062-.245-.132-.37-.206l-.193-.112V50.856l1.713,1.131h0a5.162,5.162,0,0,0,2.424.785,4.986,4.986,0,0,0,1.179-.052.736.736,0,0,0,.639-.557.563.563,0,0,0-.308-.711,9.258,9.258,0,0,0-1.271-.493l-.391-.117a10.793,10.793,0,0,1-2.117-.791,3.09,3.09,0,0,1-1.5-3.766,3.38,3.38,0,0,1,1.831-1.942,5.421,5.421,0,0,1,2.623-.54,8.078,8.078,0,0,1,3.489.825c.126.064.247.138.375.215l.184.111v2.983l-1.629-.851a5.534,5.534,0,0,0-2.611-.639,2.11,2.11,0,0,0-.677.146.658.658,0,0,0-.429.648.568.568,0,0,0,.376.557,13.735,13.735,0,0,0,1.384.462l.178.048A7.55,7.55,0,0,1,23.294,49.189Z" transform="translate(784.581 15255.686)" fill="#fff" fill-rule="evenodd"/>
    <g id="Group_3194" data-name="Group 3194" transform="translate(846.472 15299.5)">
      <path id="Path_19529" data-name="Path 19529" d="M65.447,55.523H63.474a.41.41,0,0,1-.429-.243.5.5,0,0,1,.074-.522q1.6-2.336,3.19-4.677c.239-.351.241-.454,0-.807q-1.584-2.319-3.17-4.634a.544.544,0,0,1-.1-.561c.091-.21.263-.232.452-.231q1.918.006,3.836,0a.547.547,0,0,1,.5.288q1.658,2.606,3.323,5.207A.489.489,0,0,1,71.16,50q-1.682,2.64-3.363,5.286a.439.439,0,0,1-.422.242C66.734,55.516,66.09,55.523,65.447,55.523Z" transform="translate(-63 -43.816)" fill="#fff"/>
      <path id="Path_19530" data-name="Path 19530" d="M72.072,48.868l-.4-.641-.081-.125.15-.211s1.6-2.537,2.445-3.848a.38.38,0,0,1,.578-.133.472.472,0,0,1,.076.626q-1.348,2.125-2.7,4.246Z" transform="translate(-63.201 -43.815)" fill="#fff"/>
      <path id="Path_19531" data-name="Path 19531" d="M72.066,50.635c.3.475.6.934.891,1.394q.906,1.421,1.81,2.844a1.084,1.084,0,0,1,.129.242.467.467,0,0,1-.009.3.417.417,0,0,1-.184.219.365.365,0,0,1-.51-.144c-.219-.328-.429-.663-.64-1-.616-.967-1.852-2.9-1.852-2.9l-.134-.21.142-.2S71.939,50.833,72.066,50.635Z" transform="translate(-63.2 -43.975)" fill="#fff"/>
      <path id="Path_19532" data-name="Path 19532" d="M71.251,47.61l-.426-.678-.05-.1.07-.106s1.146-1.808,1.724-2.708a.366.366,0,0,1,.561-.123.441.441,0,0,1,.086.62C72.573,45.541,71.251,47.61,71.251,47.61Z" transform="translate(-63.182 -43.815)" fill="#fff"/>
      <path id="Path_19533" data-name="Path 19533" d="M71.243,51.928c.46.721.9,1.411,1.339,2.1.2.32.41.638.61.961a.465.465,0,0,1-.078.657c-.2.145-.416.086-.572-.157-.569-.888-1.7-2.671-1.7-2.671l-.083-.116.073-.124S71.091,52.165,71.243,51.928Z" transform="translate(-63.181 -44.005)" fill="#fff"/>
      <path id="Path_19534" data-name="Path 19534" d="M70.417,46.353c-.156-.244-.419-.668-.419-.668l-.057-.093L70,45.484s.62-.989.94-1.475a.4.4,0,0,1,.109-.12.363.363,0,0,1,.144-.063.349.349,0,0,1,.155,0,.369.369,0,0,1,.14.072.414.414,0,0,1,.108.121.451.451,0,0,1,.057.157.466.466,0,0,1,0,.169.451.451,0,0,1-.062.155C71.213,45.114,70.823,45.717,70.417,46.353Z" transform="translate(-63.162 -43.815)" fill="#fff"/>
      <path id="Path_19535" data-name="Path 19535" d="M70.412,53.214c.41.646.8,1.258,1.186,1.879a.465.465,0,0,1,.049.317.433.433,0,0,1-.165.265.366.366,0,0,1-.287.066.39.39,0,0,1-.249-.17c-.326-.494-.953-1.5-.953-1.5l-.059-.095L70,53.866S70.256,53.454,70.412,53.214Z" transform="translate(-63.162 -44.035)" fill="#fff"/>
    </g>
    <path id="Path_19536" data-name="Path 19536" d="M15.566,64.477a3.518,3.518,0,0,1,3.663-3.662,3.518,3.518,0,0,1,3.662,3.662c0,1.831-3.662,6.1-3.662,6.1S15.566,66.308,15.566,64.477Zm2.442,0a1.221,1.221,0,1,0,1.221-1.221A1.221,1.221,0,0,0,18.008,64.477Z" transform="translate(784.581 15255.287)" fill="#fff" fill-rule="evenodd"/>
    <path id="Path_19537" data-name="Path 19537" d="M28.05,69.615V61.352h1.219v3.563H33.9V61.352h1.207v8.262H33.9v-3.68H29.269v3.68Zm11.6.105a6.1,6.1,0,0,1-1.781-.246,4.146,4.146,0,0,1-1.371-.715l.387-.961a4.322,4.322,0,0,0,1.254.668,4.769,4.769,0,0,0,1.512.223,2.451,2.451,0,0,0,1.465-.352,1.125,1.125,0,0,0,.48-.938.891.891,0,0,0-.34-.738,2.672,2.672,0,0,0-1.137-.445l-1.254-.258a3.31,3.31,0,0,1-1.664-.773,1.964,1.964,0,0,1-.539-1.453,2.24,2.24,0,0,1,.387-1.3,2.56,2.56,0,0,1,1.1-.867,3.9,3.9,0,0,1,1.617-.316,4.563,4.563,0,0,1,1.559.258,3.278,3.278,0,0,1,1.231.727l-.4.926a3.506,3.506,0,0,0-2.4-.879,2.251,2.251,0,0,0-1.383.387,1.235,1.235,0,0,0-.5,1.031,1.018,1.018,0,0,0,.316.785,2.223,2.223,0,0,0,1.055.445l1.242.258a3.746,3.746,0,0,1,1.746.762,1.731,1.731,0,0,1,.574,1.371,2.114,2.114,0,0,1-.387,1.266,2.55,2.55,0,0,1-1.09.844A4.345,4.345,0,0,1,39.651,69.72Zm4.4-.105V61.352h3.422A3.007,3.007,0,0,1,49.534,62a2.236,2.236,0,0,1,.727,1.781,2.317,2.317,0,0,1-.492,1.524,2.441,2.441,0,0,1-1.395.785,1.754,1.754,0,0,1,.949.9l1.43,2.625H49.417l-1.43-2.637a1.326,1.326,0,0,0-.574-.609,1.781,1.781,0,0,0-.82-.164H45.268v3.41Zm1.219-4.324h2q1.8,0,1.8-1.488t-1.8-1.477h-2Zm9.515,4.324V61.352H56v7.219h4.09v1.043Zm8.028.105a2.352,2.352,0,0,1-1.066-.234,1.985,1.985,0,0,1-.75-.633,1.573,1.573,0,0,1-.27-.9,1.465,1.465,0,0,1,.316-1,1.983,1.983,0,0,1,1.066-.527,9.832,9.832,0,0,1,2.016-.164h.4v-.3A1.358,1.358,0,0,0,64.241,65a1.241,1.241,0,0,0-.926-.293,3.314,3.314,0,0,0-.984.152,4.083,4.083,0,0,0-1.008.457l-.363-.832a3.582,3.582,0,0,1,1.113-.5,4.726,4.726,0,0,1,1.277-.188,2.363,2.363,0,0,1,1.734.563,2.339,2.339,0,0,1,.563,1.734v3.528H64.534v-.949a1.672,1.672,0,0,1-.656.773A1.956,1.956,0,0,1,62.811,69.72Zm.234-.844a1.393,1.393,0,0,0,1.055-.445,1.571,1.571,0,0,0,.422-1.125v-.316h-.387a8.627,8.627,0,0,0-1.348.082,1.328,1.328,0,0,0-.691.281.689.689,0,0,0-.2.527.944.944,0,0,0,.3.727A1.23,1.23,0,0,0,63.045,68.876Zm4.623,2.848,1.02-2.262L66.3,63.9h1.266l1.758,4.348L71.1,63.9h1.219l-3.41,7.829Zm7.746-2a2.963,2.963,0,0,1-1.5-.363,2.525,2.525,0,0,1-.984-1.02,3.449,3.449,0,0,1-.34-1.582,3.376,3.376,0,0,1,.34-1.57,2.507,2.507,0,0,1,.984-1.031,2.962,2.962,0,0,1,1.5-.363,2.914,2.914,0,0,1,1.477.363,2.507,2.507,0,0,1,.984,1.031,3.283,3.283,0,0,1,.352,1.57,3.353,3.353,0,0,1-.352,1.582,2.525,2.525,0,0,1-.984,1.02A2.914,2.914,0,0,1,75.414,69.72Zm0-.914a1.459,1.459,0,0,0,1.172-.527,2.3,2.3,0,0,0,.445-1.524,2.253,2.253,0,0,0-.445-1.512,1.579,1.579,0,0,0-2.356,0,2.253,2.253,0,0,0-.445,1.512,2.3,2.3,0,0,0,.445,1.524A1.472,1.472,0,0,0,75.414,68.806Zm6.043.914q-2.074,0-2.074-2.309V63.9h1.184v3.528a1.543,1.543,0,0,0,.281,1.02,1.112,1.112,0,0,0,.891.328,1.4,1.4,0,0,0,1.078-.445,1.667,1.667,0,0,0,.422-1.2V63.9h1.184v5.719H83.274V68.7a1.9,1.9,0,0,1-.75.762A2.176,2.176,0,0,1,81.458,69.72Zm6.933,0a2.127,2.127,0,0,1-1.606-.551,2.216,2.216,0,0,1-.527-1.594V64.81H85.144V63.9h1.113V62.173h1.184V63.9h1.77v.914h-1.77v2.672a1.458,1.458,0,0,0,.258.938,1.08,1.08,0,0,0,.867.316,1.848,1.848,0,0,0,.363-.035q.176-.047.352-.105l.188.891a1.5,1.5,0,0,1-.492.164A2.605,2.605,0,0,1,88.391,69.72Z" transform="translate(784.289 15255.277)" fill="#fff"/>
    <path id="Path_19538" data-name="Path 19538" d="M99.066,64.315l3.928,2.93,3.928-2.93" transform="translate(776.245 15255.205)" fill="none" stroke="#fff" stroke-linejoin="round" stroke-width="1.2"/>
    <path id="Path_19544" data-name="Path 19544" d="M340.325,66.446l-1.063-1.02C335.49,61.82,333,59.441,333,56.521a4.1,4.1,0,0,1,4.029-4.248,4.3,4.3,0,0,1,3.3,1.614,4.3,4.3,0,0,1,3.3-1.614,4.1,4.1,0,0,1,4.029,4.248c0,2.92-2.49,5.3-6.263,8.913Z" transform="translate(752.359 15255.487)" fill="#fff"/>
    <path id="Path_19545" data-name="Path 19545" d="M312.883,54.978l-.668.988h-1.388a2.211,2.211,0,0,1,.354.547,2.634,2.634,0,0,1,.2.708h1.5l-.668.988h-.834a2.636,2.636,0,0,1-.32.9,2.419,2.419,0,0,1-.621.708,2.979,2.979,0,0,1-.921.461,3.931,3.931,0,0,1-1.189.167l4.059,4.319h-1.776l-3.919-4.213v-.988h.982a3.97,3.97,0,0,0,.855-.087,2.519,2.519,0,0,0,.7-.26,1.752,1.752,0,0,0,.507-.421,1.435,1.435,0,0,0,.287-.588H306.36l.668-.988h2.99a1.553,1.553,0,0,0-.66-.915,2.4,2.4,0,0,0-1.369-.341H306.36l.668-.988Zm4.928,3.744a3.141,3.141,0,0,1,1.586.383,2.611,2.611,0,0,1,1.053,1.08,3.287,3.287,0,0,1,.369,1.586,3.123,3.123,0,0,1-.41,1.613,2.79,2.79,0,0,1-1.135,1.094,3.693,3.693,0,0,1-1.723.383,5.032,5.032,0,0,1-1.736-.314,4.439,4.439,0,0,1-1.436-.875l.424-.861a4.289,4.289,0,0,0,2.748,1.107,2.143,2.143,0,0,0,1.586-.574,2.384,2.384,0,0,0,0-3.1,1.98,1.98,0,0,0-1.5-.588,2.592,2.592,0,0,0-2.2,1.121h-.779V55.126h5.784v.93H315.76v3.432a2.568,2.568,0,0,1,.9-.561A3.172,3.172,0,0,1,317.811,58.722Z" transform="translate(752.981 15255.424)" fill="#fff"/>
    <path id="Path_24848" data-name="Path 24848" d="M.367,0H37.722a.367.367,0,0,1,.367.367v10.01a.367.367,0,0,1-.367.367H.367A.367.367,0,0,1,0,10.376V.367A.367.367,0,0,1,.367,0Z" transform="translate(1037.504 15292.844)" fill="#fff"/>
    <path id="Path_19646" data-name="Path 19646" d="M293.788,42.749v1.91a2.49,2.49,0,0,1-.645.211,4.174,4.174,0,0,1-.8.076,2.12,2.12,0,0,1-1.061-.252,1.69,1.69,0,0,1-.686-.727,2.86,2.86,0,0,1,0-2.268,1.665,1.665,0,0,1,.674-.727,2.05,2.05,0,0,1,1.037-.252,2.275,2.275,0,0,1,.8.135,1.641,1.641,0,0,1,.621.387l-.182.369a2.015,2.015,0,0,0-.592-.369,1.771,1.771,0,0,0-.645-.111,1.332,1.332,0,0,0-1.072.439,2.318,2.318,0,0,0,.006,2.537,1.4,1.4,0,0,0,1.113.434,3.008,3.008,0,0,0,.99-.158v-1.26h-1.026v-.375Zm3.154.8h-2.086a1.136,1.136,0,0,0,.27.756.93.93,0,0,0,.7.252,1.413,1.413,0,0,0,.914-.34l.158.346a1.371,1.371,0,0,1-.48.281,1.845,1.845,0,0,1-.6.1,1.413,1.413,0,0,1-1.055-.393,1.491,1.491,0,0,1-.381-1.084,1.683,1.683,0,0,1,.17-.773,1.27,1.27,0,0,1,.475-.527,1.334,1.334,0,0,1,.7-.188,1.112,1.112,0,0,1,.891.375,1.5,1.5,0,0,1,.322,1.02Zm-1.207-1.2a.8.8,0,0,0-.6.234,1.081,1.081,0,0,0-.264.662h1.658a1,1,0,0,0-.217-.662A.723.723,0,0,0,295.735,42.345Zm3.005,2.215a1.906,1.906,0,0,0,.258-.018l-.023.375a1.713,1.713,0,0,1-.293.023.923.923,0,0,1-1.037-1.02v-1.5h-.557v-.375h.557v-.867h.475v.867h.809v.375h-.809v1.465Q298.118,44.56,298.74,44.56Zm1.973.34V42.046h.475V44.9Zm-.047-4.09h.574v.533h-.574Zm2.525,3.75a1.906,1.906,0,0,0,.258-.018l-.023.375a1.713,1.713,0,0,1-.293.023.924.924,0,0,1-1.037-1.02v-1.5h-.557v-.375h.557v-.867h.475v.867h.809v.375h-.809v1.465Q302.569,44.56,303.19,44.56Zm4.9-3.791h.451V44.9h-.369l-2.49-3.322V44.9h-.451V40.769h.369l2.49,3.322Zm2.448,4.172a1.39,1.39,0,0,1-.715-.182,1.239,1.239,0,0,1-.475-.516,1.785,1.785,0,0,1-.164-.785,1.747,1.747,0,0,1,.164-.779,1.231,1.231,0,0,1,.475-.522,1.5,1.5,0,0,1,1.43,0,1.184,1.184,0,0,1,.475.522,1.7,1.7,0,0,1,.17.779,1.733,1.733,0,0,1-.17.785,1.19,1.19,0,0,1-.475.516A1.39,1.39,0,0,1,310.54,44.941Zm0-.393a.78.78,0,0,0,.645-.275,1.265,1.265,0,0,0,.229-.815,1.244,1.244,0,0,0-.229-.8.867.867,0,0,0-1.289,0,1.244,1.244,0,0,0-.229.8,1.278,1.278,0,0,0,.223.809A.79.79,0,0,0,310.54,44.548Zm5.768-2.5h.475L315.722,44.9h-.457l-.8-2.209-.809,2.209H313.2l-1.061-2.854h.492l.809,2.291.826-2.291h.41l.815,2.291Z" transform="translate(753.355 15255.758)"/>
    <path id="Path_19647" data-name="Path 19647" d="M303.449,49.947l2.114-2.2h-4.229Z" transform="translate(753.099 15255.594)" fill="#fff"/>
    <circle id="Ellipse_811" data-name="Ellipse 811" cx="8" cy="8" r="8" transform="translate(966 15307)" fill="#fff"/>
    <circle id="Ellipse_812" data-name="Ellipse 812" cx="8" cy="8" r="8" transform="translate(1040 15307)" fill="#fff"/>
    <g id="Group_7490" data-name="Group 7490" transform="translate(-1251.874 10983)">
      <path id="Path_24849" data-name="Path 24849" d="M38.874,0A39.1,39.1,0,1,1,0,39.1,38.989,38.989,0,0,1,38.874,0Z" transform="translate(2056.374 4534.678)" fill="#ffa4a4" stroke="#fff" stroke-width="2"/>
      <path id="Path_24852" data-name="Path 24852" d="M38.874,0A39.1,39.1,0,1,1,0,39.1,38.989,38.989,0,0,1,38.874,0Z" transform="translate(2162.374 4534.678)" fill="#ffa4a4" stroke="#fff" stroke-width="2"/>
      <path id="Path_24854" data-name="Path 24854" d="M38.874,0A39.1,39.1,0,1,1,0,39.1,38.989,38.989,0,0,1,38.874,0Z" transform="translate(2271.374 4534.678)" fill="#ffa4a4" stroke="#fff" stroke-width="2"/>
      <path id="Path_24850" data-name="Path 24850" d="M-146.712-36.928H-142v1.143h-3.567v2h3.018v1.143h-3.018v3.716h-1.143Zm8.507,3.43a1.29,1.29,0,0,0-.692-.194,1.353,1.353,0,0,0-.789.237,1.579,1.579,0,0,0-.535.649,2.115,2.115,0,0,0-.192.9v2.978h-1.149v-5.711h1.143v.789a2.257,2.257,0,0,1,.743-.7,1.888,1.888,0,0,1,.955-.249,2.371,2.371,0,0,1,.7.086Zm3.173,4.722a2.665,2.665,0,0,1-1.432-.406,2.969,2.969,0,0,1-1.04-1.1,3.046,3.046,0,0,1-.386-1.509,3.046,3.046,0,0,1,.386-1.509,2.969,2.969,0,0,1,1.04-1.1,2.666,2.666,0,0,1,1.432-.406,2.649,2.649,0,0,1,1.449.412,2.9,2.9,0,0,1,1.02,1.112,3.235,3.235,0,0,1,.372,1.541q0,.172-.017.354h-4.459a1.932,1.932,0,0,0,.3.749,1.618,1.618,0,0,0,.572.523,1.565,1.565,0,0,0,.766.192,1.492,1.492,0,0,0,.815-.22,1.8,1.8,0,0,0,.609-.632l1.166.269a3.092,3.092,0,0,1-.626.9,2.847,2.847,0,0,1-.9.609A2.674,2.674,0,0,1-135.033-28.776Zm1.669-3.482a1.792,1.792,0,0,0-.294-.769,1.776,1.776,0,0,0-.6-.557,1.541,1.541,0,0,0-.777-.206,1.542,1.542,0,0,0-.775.2,1.768,1.768,0,0,0-.595.552,1.837,1.837,0,0,0-.3.777Zm4.139,3.447a3.007,3.007,0,0,1-.946-.151,2.588,2.588,0,0,1-.812-.432,1.682,1.682,0,0,1-.512-.652l.972-.417a.949.949,0,0,0,.274.32,1.594,1.594,0,0,0,.457.249,1.565,1.565,0,0,0,.532.094,1.377,1.377,0,0,0,.752-.2.605.605,0,0,0,.312-.535.492.492,0,0,0-.157-.383,1.015,1.015,0,0,0-.357-.212q-.2-.069-.606-.177a3.964,3.964,0,0,1-1.5-.637,1.33,1.33,0,0,1-.546-1.118,1.557,1.557,0,0,1,.292-.932,1.9,1.9,0,0,1,.777-.626,2.492,2.492,0,0,1,1.04-.22,2.723,2.723,0,0,1,1.261.292,2.1,2.1,0,0,1,.872.8l-.909.537a1.117,1.117,0,0,0-.483-.457,1.472,1.472,0,0,0-.706-.183,1.378,1.378,0,0,0-.766.2.633.633,0,0,0-.3.563.459.459,0,0,0,.117.326.784.784,0,0,0,.292.194,5,5,0,0,0,.489.154l.314.091a4.745,4.745,0,0,1,1.435.706,1.243,1.243,0,0,1,.509,1.066,1.485,1.485,0,0,1-.289.895,1.934,1.934,0,0,1-.772.62A2.433,2.433,0,0,1-129.225-28.81Zm7.249-.114V-31.9a1.979,1.979,0,0,0-.206-.9,1.691,1.691,0,0,0-.555-.652,1.313,1.313,0,0,0-.76-.24,1.279,1.279,0,0,0-.769.237,1.5,1.5,0,0,0-.5.646,2.286,2.286,0,0,0-.174.906v2.978h-1.149V-37.5h1.143v3.55a1.471,1.471,0,0,1,.629-.649,2.038,2.038,0,0,1,.932-.2,2.322,2.322,0,0,1,1.321.386,2.612,2.612,0,0,1,.9,1.043,3.335,3.335,0,0,1,.334,1.441v3Zm5.031-8h4.711v1.143H-115.8v2h3.018v1.143H-115.8v3.716h-1.143Zm8.507,3.43a1.29,1.29,0,0,0-.692-.194,1.353,1.353,0,0,0-.789.237,1.579,1.579,0,0,0-.535.649,2.115,2.115,0,0,0-.192.9v2.978h-1.149v-5.711h1.143v.789a2.257,2.257,0,0,1,.743-.7,1.888,1.888,0,0,1,.955-.249,2.37,2.37,0,0,1,.7.086Zm2.075-1.143v2.973a1.974,1.974,0,0,0,.206.9,1.651,1.651,0,0,0,.569.649,1.435,1.435,0,0,0,.809.24,1.345,1.345,0,0,0,.786-.24,1.6,1.6,0,0,0,.537-.649,2.1,2.1,0,0,0,.192-.9v-2.973h1.143v5.717h-1.143v-.8a2.3,2.3,0,0,1-.74.7,1.856,1.856,0,0,1-.952.252,2.322,2.322,0,0,1-1.321-.386,2.587,2.587,0,0,1-.9-1.046,3.38,3.38,0,0,1-.332-1.443v-3Zm6.22-.812a.582.582,0,0,1-.426-.18.582.582,0,0,1-.18-.426.582.582,0,0,1,.18-.426.582.582,0,0,1,.426-.18.589.589,0,0,1,.432.18.582.582,0,0,1,.18.426.579.579,0,0,1-.18.429A.594.594,0,0,1-100.143-35.453Zm.56.812v5.717h-1.143v-5.717Zm3.219,1.309-.006,4.408h-1.143l.006-4.408h-.926v-1.143h.926l-.006-1.961h1.143l.006,1.961h1.218v1.143Zm4.1,4.522a3.007,3.007,0,0,1-.946-.151,2.588,2.588,0,0,1-.812-.432,1.682,1.682,0,0,1-.512-.652l.972-.417a.949.949,0,0,0,.274.32,1.594,1.594,0,0,0,.457.249,1.564,1.564,0,0,0,.532.094,1.377,1.377,0,0,0,.752-.2.605.605,0,0,0,.312-.535.492.492,0,0,0-.157-.383,1.015,1.015,0,0,0-.357-.212q-.2-.069-.606-.177a3.964,3.964,0,0,1-1.5-.637,1.33,1.33,0,0,1-.546-1.118,1.557,1.557,0,0,1,.292-.932,1.9,1.9,0,0,1,.777-.626,2.492,2.492,0,0,1,1.04-.22,2.723,2.723,0,0,1,1.261.292,2.1,2.1,0,0,1,.872.8l-.909.537a1.117,1.117,0,0,0-.483-.457,1.472,1.472,0,0,0-.706-.183,1.378,1.378,0,0,0-.766.2.633.633,0,0,0-.3.563.459.459,0,0,0,.117.326.784.784,0,0,0,.292.194,5,5,0,0,0,.489.154l.314.091a4.745,4.745,0,0,1,1.435.706,1.243,1.243,0,0,1,.509,1.066,1.485,1.485,0,0,1-.289.895,1.934,1.934,0,0,1-.772.62A2.433,2.433,0,0,1-92.266-28.81Zm8.049.034a2.32,2.32,0,0,1-1.226-.334A2.4,2.4,0,0,1-86.306-30a2.373,2.373,0,0,1-.312-1.186,2.25,2.25,0,0,1,.131-.82,2.38,2.38,0,0,1,.429-.677q.3-.343,1.035-1.08a7.99,7.99,0,0,1-.58-.629,1.611,1.611,0,0,1-.266-.463,1.668,1.668,0,0,1-.08-.549,1.69,1.69,0,0,1,.237-.883,1.761,1.761,0,0,1,.635-.629,1.679,1.679,0,0,1,.86-.232,1.705,1.705,0,0,1,.869.232,1.725,1.725,0,0,1,.635.632,1.71,1.71,0,0,1,.234.88,1.634,1.634,0,0,1-.086.56,1.657,1.657,0,0,1-.269.463,8.189,8.189,0,0,1-.572.617l1.772,1.772,1.366-1.361v1.612l-.566.566,1.446,1.441-.806.806-1.441-1.435q-.737.737-1.086,1.035a2.371,2.371,0,0,1-.677.423A2.313,2.313,0,0,1-84.216-28.776Zm.223-5.854q.234-.229.329-.332a.667.667,0,0,0,.134-.206.715.715,0,0,0,.04-.257.69.69,0,0,0-.1-.372.718.718,0,0,0-.272-.257.728.728,0,0,0-.352-.091.684.684,0,0,0-.36.1.748.748,0,0,0-.263.266.689.689,0,0,0-.1.354.672.672,0,0,0,.043.257.735.735,0,0,0,.131.2q.089.1.306.312l.24.24Zm-.223,4.711a1.227,1.227,0,0,0,.454-.074,1.326,1.326,0,0,0,.377-.243q.192-.169.6-.586l.349-.354-1.778-1.778-.354.354q-.423.423-.589.612a1.291,1.291,0,0,0-.237.369,1.224,1.224,0,0,0-.071.449,1.21,1.21,0,0,0,.172.635,1.267,1.267,0,0,0,.457.452A1.22,1.22,0,0,0-84.216-29.92Zm-57.765,6.94h1.212l2.412,6.637,2.413-6.637h1.212l-2.91,8h-1.435Zm9.776,8.152a2.666,2.666,0,0,1-1.432-.406,2.969,2.969,0,0,1-1.04-1.1,3.046,3.046,0,0,1-.386-1.509,3.046,3.046,0,0,1,.386-1.509,2.969,2.969,0,0,1,1.04-1.1,2.666,2.666,0,0,1,1.432-.406,2.649,2.649,0,0,1,1.449.412,2.9,2.9,0,0,1,1.02,1.112,3.235,3.235,0,0,1,.372,1.541q0,.172-.017.354h-4.459a1.933,1.933,0,0,0,.3.749,1.618,1.618,0,0,0,.572.523,1.565,1.565,0,0,0,.766.192,1.492,1.492,0,0,0,.815-.22,1.8,1.8,0,0,0,.609-.632l1.166.269a3.092,3.092,0,0,1-.626.9,2.847,2.847,0,0,1-.9.609A2.674,2.674,0,0,1-132.206-14.827Zm1.669-3.482a1.792,1.792,0,0,0-.294-.769,1.777,1.777,0,0,0-.6-.557,1.541,1.541,0,0,0-.777-.206,1.542,1.542,0,0,0-.775.2,1.768,1.768,0,0,0-.595.552,1.837,1.837,0,0,0-.3.777Zm7.615,3.487a2.419,2.419,0,0,1-.417,1.381,2.882,2.882,0,0,1-1.112.972,3.228,3.228,0,0,1-1.478.352,2.733,2.733,0,0,1-1.146-.254,3.177,3.177,0,0,1-.98-.695,2.814,2.814,0,0,1-.623-.983l1.052-.474a1.7,1.7,0,0,0,.369.643,1.878,1.878,0,0,0,.612.452,1.69,1.69,0,0,0,.717.163,2.1,2.1,0,0,0,.906-.2,1.8,1.8,0,0,0,.695-.557,1.3,1.3,0,0,0,.263-.795v-1a2.165,2.165,0,0,1-.746.729,1.994,1.994,0,0,1-1.026.266,2.808,2.808,0,0,1-1.475-.406,3.013,3.013,0,0,1-1.072-1.095,2.962,2.962,0,0,1-.4-1.506,2.978,2.978,0,0,1,.4-1.509,3.006,3.006,0,0,1,1.072-1.1,2.808,2.808,0,0,1,1.475-.406,1.994,1.994,0,0,1,1.026.266,2.165,2.165,0,0,1,.746.729v-.84h1.143Zm-2.9-1.109a1.523,1.523,0,0,0,.869-.257,1.741,1.741,0,0,0,.6-.695,2.133,2.133,0,0,0,.214-.952,2.146,2.146,0,0,0-.214-.958,1.741,1.741,0,0,0-.6-.695,1.523,1.523,0,0,0-.869-.257,1.657,1.657,0,0,0-.9.257,1.866,1.866,0,0,0-.649.695,1.957,1.957,0,0,0-.24.958,1.957,1.957,0,0,0,.24.958,1.836,1.836,0,0,0,.652.692A1.675,1.675,0,0,0-125.82-15.931Zm6.62,1.1a2.665,2.665,0,0,1-1.432-.406,2.969,2.969,0,0,1-1.04-1.1,3.046,3.046,0,0,1-.386-1.509,3.046,3.046,0,0,1,.386-1.509,2.969,2.969,0,0,1,1.04-1.1,2.665,2.665,0,0,1,1.432-.406,2.649,2.649,0,0,1,1.449.412,2.9,2.9,0,0,1,1.02,1.112,3.235,3.235,0,0,1,.372,1.541q0,.172-.017.354h-4.459a1.933,1.933,0,0,0,.3.749,1.618,1.618,0,0,0,.572.523,1.565,1.565,0,0,0,.766.192,1.492,1.492,0,0,0,.815-.22,1.8,1.8,0,0,0,.609-.632l1.166.269a3.093,3.093,0,0,1-.626.9,2.847,2.847,0,0,1-.9.609A2.674,2.674,0,0,1-119.2-14.827Zm1.669-3.482a1.792,1.792,0,0,0-.294-.769,1.776,1.776,0,0,0-.6-.557,1.541,1.541,0,0,0-.777-.206,1.542,1.542,0,0,0-.775.2,1.768,1.768,0,0,0-.595.552,1.837,1.837,0,0,0-.3.777Zm3.882-1.075-.006,4.408H-114.8l.006-4.408h-.926v-1.143h.926l-.006-1.961h1.143l.006,1.961h1.218v1.143Zm7.752,4.408h-1.143v-.869a2.249,2.249,0,0,1-.76.743,2.035,2.035,0,0,1-1.058.274,2.914,2.914,0,0,1-1.506-.406,3.045,3.045,0,0,1-1.095-1.095,2.914,2.914,0,0,1-.406-1.506,2.94,2.94,0,0,1,.406-1.515,3.038,3.038,0,0,1,1.095-1.1,2.914,2.914,0,0,1,1.506-.406,2.051,2.051,0,0,1,1.058.272,2.206,2.206,0,0,1,.76.746v-.858h1.143Zm-2.95-.955a1.579,1.579,0,0,0,.892-.257,1.73,1.73,0,0,0,.6-.692,2.128,2.128,0,0,0,.214-.955,2.154,2.154,0,0,0-.214-.966,1.7,1.7,0,0,0-.606-.689,1.6,1.6,0,0,0-.889-.254,1.749,1.749,0,0,0-.926.257,1.9,1.9,0,0,0-.672.695,1.9,1.9,0,0,0-.249.958,1.887,1.887,0,0,0,.252.958,1.887,1.887,0,0,0,.677.692A1.758,1.758,0,0,0-108.847-15.931Zm7.277-4.922a2.929,2.929,0,0,1,1.509.406,3.031,3.031,0,0,1,1.1,1.1,2.929,2.929,0,0,1,.406,1.509,2.929,2.929,0,0,1-.406,1.509,3.031,3.031,0,0,1-1.1,1.1,2.929,2.929,0,0,1-1.509.406,2.024,2.024,0,0,1-1.052-.274,2.249,2.249,0,0,1-.76-.743v.869h-1.143v-8.575h1.143v3.716a2.215,2.215,0,0,1,.757-.746A2.036,2.036,0,0,1-101.57-20.853Zm-.011,4.916a1.779,1.779,0,0,0,.932-.257,1.88,1.88,0,0,0,.677-.695,1.893,1.893,0,0,0,.249-.952,1.886,1.886,0,0,0-.254-.96,1.9,1.9,0,0,0-.68-.695,1.768,1.768,0,0,0-.923-.254,1.569,1.569,0,0,0-.886.257,1.725,1.725,0,0,0-.6.695,2.146,2.146,0,0,0-.214.958,2.117,2.117,0,0,0,.217.96,1.738,1.738,0,0,0,.6.689A1.568,1.568,0,0,0-101.581-15.936Zm4-7.615h1.143v8.569h-1.143Zm5.1,8.724a2.665,2.665,0,0,1-1.432-.406,2.969,2.969,0,0,1-1.04-1.1,3.046,3.046,0,0,1-.386-1.509,3.046,3.046,0,0,1,.386-1.509,2.969,2.969,0,0,1,1.04-1.1,2.665,2.665,0,0,1,1.432-.406,2.649,2.649,0,0,1,1.449.412,2.9,2.9,0,0,1,1.02,1.112,3.235,3.235,0,0,1,.372,1.541q0,.172-.017.354h-4.459a1.933,1.933,0,0,0,.3.749,1.619,1.619,0,0,0,.572.523,1.565,1.565,0,0,0,.766.192,1.492,1.492,0,0,0,.815-.22,1.8,1.8,0,0,0,.609-.632l1.166.269a3.093,3.093,0,0,1-.626.9,2.847,2.847,0,0,1-.9.609A2.674,2.674,0,0,1-92.486-14.827Zm1.669-3.482a1.792,1.792,0,0,0-.294-.769,1.777,1.777,0,0,0-.6-.557,1.541,1.541,0,0,0-.777-.206,1.542,1.542,0,0,0-.775.2,1.768,1.768,0,0,0-.595.552,1.837,1.837,0,0,0-.3.777Zm4.139,3.447a3.007,3.007,0,0,1-.946-.151,2.588,2.588,0,0,1-.812-.432,1.682,1.682,0,0,1-.512-.652l.972-.417a.949.949,0,0,0,.274.32,1.594,1.594,0,0,0,.457.249,1.565,1.565,0,0,0,.532.094,1.377,1.377,0,0,0,.752-.2.605.605,0,0,0,.312-.535.492.492,0,0,0-.157-.383,1.015,1.015,0,0,0-.357-.212q-.2-.069-.606-.177a3.964,3.964,0,0,1-1.5-.637,1.33,1.33,0,0,1-.546-1.118,1.556,1.556,0,0,1,.292-.932,1.9,1.9,0,0,1,.777-.626,2.492,2.492,0,0,1,1.04-.22,2.723,2.723,0,0,1,1.261.292,2.1,2.1,0,0,1,.872.8l-.909.537a1.117,1.117,0,0,0-.483-.457,1.472,1.472,0,0,0-.706-.183,1.378,1.378,0,0,0-.766.2.633.633,0,0,0-.3.563.459.459,0,0,0,.117.326.784.784,0,0,0,.292.194,5,5,0,0,0,.489.154l.314.091a4.745,4.745,0,0,1,1.435.706,1.243,1.243,0,0,1,.509,1.066,1.485,1.485,0,0,1-.289.895,1.934,1.934,0,0,1-.772.62A2.433,2.433,0,0,1-86.677-14.861Z" transform="translate(2208.087 4687.847)" fill="#fff" stroke="rgba(255,255,255,0)" stroke-width="1"/>
      <path id="Path_24851" data-name="Path 24851" d="M-146.712-36.928H-142v1.143h-3.567v2h3.018v1.143h-3.018v3.716h-1.143Zm8.507,3.43a1.29,1.29,0,0,0-.692-.194,1.353,1.353,0,0,0-.789.237,1.579,1.579,0,0,0-.535.649,2.115,2.115,0,0,0-.192.9v2.978h-1.149v-5.711h1.143v.789a2.257,2.257,0,0,1,.743-.7,1.888,1.888,0,0,1,.955-.249,2.371,2.371,0,0,1,.7.086Zm3.173,4.722a2.665,2.665,0,0,1-1.432-.406,2.969,2.969,0,0,1-1.04-1.1,3.046,3.046,0,0,1-.386-1.509,3.046,3.046,0,0,1,.386-1.509,2.969,2.969,0,0,1,1.04-1.1,2.666,2.666,0,0,1,1.432-.406,2.649,2.649,0,0,1,1.449.412,2.9,2.9,0,0,1,1.02,1.112,3.235,3.235,0,0,1,.372,1.541q0,.172-.017.354h-4.459a1.932,1.932,0,0,0,.3.749,1.618,1.618,0,0,0,.572.523,1.565,1.565,0,0,0,.766.192,1.492,1.492,0,0,0,.815-.22,1.8,1.8,0,0,0,.609-.632l1.166.269a3.092,3.092,0,0,1-.626.9,2.847,2.847,0,0,1-.9.609A2.674,2.674,0,0,1-135.033-28.776Zm1.669-3.482a1.792,1.792,0,0,0-.294-.769,1.776,1.776,0,0,0-.6-.557,1.541,1.541,0,0,0-.777-.206,1.542,1.542,0,0,0-.775.2,1.768,1.768,0,0,0-.595.552,1.837,1.837,0,0,0-.3.777Zm4.139,3.447a3.007,3.007,0,0,1-.946-.151,2.588,2.588,0,0,1-.812-.432,1.682,1.682,0,0,1-.512-.652l.972-.417a.949.949,0,0,0,.274.32,1.594,1.594,0,0,0,.457.249,1.565,1.565,0,0,0,.532.094,1.377,1.377,0,0,0,.752-.2.605.605,0,0,0,.312-.535.492.492,0,0,0-.157-.383,1.015,1.015,0,0,0-.357-.212q-.2-.069-.606-.177a3.964,3.964,0,0,1-1.5-.637,1.33,1.33,0,0,1-.546-1.118,1.557,1.557,0,0,1,.292-.932,1.9,1.9,0,0,1,.777-.626,2.492,2.492,0,0,1,1.04-.22,2.723,2.723,0,0,1,1.261.292,2.1,2.1,0,0,1,.872.8l-.909.537a1.117,1.117,0,0,0-.483-.457,1.472,1.472,0,0,0-.706-.183,1.378,1.378,0,0,0-.766.2.633.633,0,0,0-.3.563.459.459,0,0,0,.117.326.784.784,0,0,0,.292.194,5,5,0,0,0,.489.154l.314.091a4.745,4.745,0,0,1,1.435.706,1.243,1.243,0,0,1,.509,1.066,1.485,1.485,0,0,1-.289.895,1.934,1.934,0,0,1-.772.62A2.433,2.433,0,0,1-129.225-28.81Zm7.249-.114V-31.9a1.979,1.979,0,0,0-.206-.9,1.691,1.691,0,0,0-.555-.652,1.313,1.313,0,0,0-.76-.24,1.279,1.279,0,0,0-.769.237,1.5,1.5,0,0,0-.5.646,2.286,2.286,0,0,0-.174.906v2.978h-1.149V-37.5h1.143v3.55a1.471,1.471,0,0,1,.629-.649,2.038,2.038,0,0,1,.932-.2,2.322,2.322,0,0,1,1.321.386,2.612,2.612,0,0,1,.9,1.043,3.335,3.335,0,0,1,.334,1.441v3Zm5.031-8h4.711v1.143H-115.8v2h3.018v1.143H-115.8v3.716h-1.143Zm8.507,3.43a1.29,1.29,0,0,0-.692-.194,1.353,1.353,0,0,0-.789.237,1.579,1.579,0,0,0-.535.649,2.115,2.115,0,0,0-.192.9v2.978h-1.149v-5.711h1.143v.789a2.257,2.257,0,0,1,.743-.7,1.888,1.888,0,0,1,.955-.249,2.37,2.37,0,0,1,.7.086Zm2.075-1.143v2.973a1.974,1.974,0,0,0,.206.9,1.651,1.651,0,0,0,.569.649,1.435,1.435,0,0,0,.809.24,1.345,1.345,0,0,0,.786-.24,1.6,1.6,0,0,0,.537-.649,2.1,2.1,0,0,0,.192-.9v-2.973h1.143v5.717h-1.143v-.8a2.3,2.3,0,0,1-.74.7,1.856,1.856,0,0,1-.952.252,2.322,2.322,0,0,1-1.321-.386,2.587,2.587,0,0,1-.9-1.046,3.38,3.38,0,0,1-.332-1.443v-3Zm6.22-.812a.582.582,0,0,1-.426-.18.582.582,0,0,1-.18-.426.582.582,0,0,1,.18-.426.582.582,0,0,1,.426-.18.589.589,0,0,1,.432.18.582.582,0,0,1,.18.426.579.579,0,0,1-.18.429A.594.594,0,0,1-100.143-35.453Zm.56.812v5.717h-1.143v-5.717Zm3.219,1.309-.006,4.408h-1.143l.006-4.408h-.926v-1.143h.926l-.006-1.961h1.143l.006,1.961h1.218v1.143Zm4.1,4.522a3.007,3.007,0,0,1-.946-.151,2.588,2.588,0,0,1-.812-.432,1.682,1.682,0,0,1-.512-.652l.972-.417a.949.949,0,0,0,.274.32,1.594,1.594,0,0,0,.457.249,1.564,1.564,0,0,0,.532.094,1.377,1.377,0,0,0,.752-.2.605.605,0,0,0,.312-.535.492.492,0,0,0-.157-.383,1.015,1.015,0,0,0-.357-.212q-.2-.069-.606-.177a3.964,3.964,0,0,1-1.5-.637,1.33,1.33,0,0,1-.546-1.118,1.557,1.557,0,0,1,.292-.932,1.9,1.9,0,0,1,.777-.626,2.492,2.492,0,0,1,1.04-.22,2.723,2.723,0,0,1,1.261.292,2.1,2.1,0,0,1,.872.8l-.909.537a1.117,1.117,0,0,0-.483-.457,1.472,1.472,0,0,0-.706-.183,1.378,1.378,0,0,0-.766.2.633.633,0,0,0-.3.563.459.459,0,0,0,.117.326.784.784,0,0,0,.292.194,5,5,0,0,0,.489.154l.314.091a4.745,4.745,0,0,1,1.435.706,1.243,1.243,0,0,1,.509,1.066,1.485,1.485,0,0,1-.289.895,1.934,1.934,0,0,1-.772.62A2.433,2.433,0,0,1-92.266-28.81Zm8.049.034a2.32,2.32,0,0,1-1.226-.334A2.4,2.4,0,0,1-86.306-30a2.373,2.373,0,0,1-.312-1.186,2.25,2.25,0,0,1,.131-.82,2.38,2.38,0,0,1,.429-.677q.3-.343,1.035-1.08a7.99,7.99,0,0,1-.58-.629,1.611,1.611,0,0,1-.266-.463,1.668,1.668,0,0,1-.08-.549,1.69,1.69,0,0,1,.237-.883,1.761,1.761,0,0,1,.635-.629,1.679,1.679,0,0,1,.86-.232,1.705,1.705,0,0,1,.869.232,1.725,1.725,0,0,1,.635.632,1.71,1.71,0,0,1,.234.88,1.634,1.634,0,0,1-.086.56,1.657,1.657,0,0,1-.269.463,8.189,8.189,0,0,1-.572.617l1.772,1.772,1.366-1.361v1.612l-.566.566,1.446,1.441-.806.806-1.441-1.435q-.737.737-1.086,1.035a2.371,2.371,0,0,1-.677.423A2.313,2.313,0,0,1-84.216-28.776Zm.223-5.854q.234-.229.329-.332a.667.667,0,0,0,.134-.206.715.715,0,0,0,.04-.257.69.69,0,0,0-.1-.372.718.718,0,0,0-.272-.257.728.728,0,0,0-.352-.091.684.684,0,0,0-.36.1.748.748,0,0,0-.263.266.689.689,0,0,0-.1.354.672.672,0,0,0,.043.257.735.735,0,0,0,.131.2q.089.1.306.312l.24.24Zm-.223,4.711a1.227,1.227,0,0,0,.454-.074,1.326,1.326,0,0,0,.377-.243q.192-.169.6-.586l.349-.354-1.778-1.778-.354.354q-.423.423-.589.612a1.291,1.291,0,0,0-.237.369,1.224,1.224,0,0,0-.071.449,1.21,1.21,0,0,0,.172.635,1.267,1.267,0,0,0,.457.452A1.22,1.22,0,0,0-84.216-29.92Zm-57.765,6.94h1.212l2.412,6.637,2.413-6.637h1.212l-2.91,8h-1.435Zm9.776,8.152a2.666,2.666,0,0,1-1.432-.406,2.969,2.969,0,0,1-1.04-1.1,3.046,3.046,0,0,1-.386-1.509,3.046,3.046,0,0,1,.386-1.509,2.969,2.969,0,0,1,1.04-1.1,2.666,2.666,0,0,1,1.432-.406,2.649,2.649,0,0,1,1.449.412,2.9,2.9,0,0,1,1.02,1.112,3.235,3.235,0,0,1,.372,1.541q0,.172-.017.354h-4.459a1.933,1.933,0,0,0,.3.749,1.618,1.618,0,0,0,.572.523,1.565,1.565,0,0,0,.766.192,1.492,1.492,0,0,0,.815-.22,1.8,1.8,0,0,0,.609-.632l1.166.269a3.092,3.092,0,0,1-.626.9,2.847,2.847,0,0,1-.9.609A2.674,2.674,0,0,1-132.206-14.827Zm1.669-3.482a1.792,1.792,0,0,0-.294-.769,1.777,1.777,0,0,0-.6-.557,1.541,1.541,0,0,0-.777-.206,1.542,1.542,0,0,0-.775.2,1.768,1.768,0,0,0-.595.552,1.837,1.837,0,0,0-.3.777Zm7.615,3.487a2.419,2.419,0,0,1-.417,1.381,2.882,2.882,0,0,1-1.112.972,3.228,3.228,0,0,1-1.478.352,2.733,2.733,0,0,1-1.146-.254,3.177,3.177,0,0,1-.98-.695,2.814,2.814,0,0,1-.623-.983l1.052-.474a1.7,1.7,0,0,0,.369.643,1.878,1.878,0,0,0,.612.452,1.69,1.69,0,0,0,.717.163,2.1,2.1,0,0,0,.906-.2,1.8,1.8,0,0,0,.695-.557,1.3,1.3,0,0,0,.263-.795v-1a2.165,2.165,0,0,1-.746.729,1.994,1.994,0,0,1-1.026.266,2.808,2.808,0,0,1-1.475-.406,3.013,3.013,0,0,1-1.072-1.095,2.962,2.962,0,0,1-.4-1.506,2.978,2.978,0,0,1,.4-1.509,3.006,3.006,0,0,1,1.072-1.1,2.808,2.808,0,0,1,1.475-.406,1.994,1.994,0,0,1,1.026.266,2.165,2.165,0,0,1,.746.729v-.84h1.143Zm-2.9-1.109a1.523,1.523,0,0,0,.869-.257,1.741,1.741,0,0,0,.6-.695,2.133,2.133,0,0,0,.214-.952,2.146,2.146,0,0,0-.214-.958,1.741,1.741,0,0,0-.6-.695,1.523,1.523,0,0,0-.869-.257,1.657,1.657,0,0,0-.9.257,1.866,1.866,0,0,0-.649.695,1.957,1.957,0,0,0-.24.958,1.957,1.957,0,0,0,.24.958,1.836,1.836,0,0,0,.652.692A1.675,1.675,0,0,0-125.82-15.931Zm6.62,1.1a2.665,2.665,0,0,1-1.432-.406,2.969,2.969,0,0,1-1.04-1.1,3.046,3.046,0,0,1-.386-1.509,3.046,3.046,0,0,1,.386-1.509,2.969,2.969,0,0,1,1.04-1.1,2.665,2.665,0,0,1,1.432-.406,2.649,2.649,0,0,1,1.449.412,2.9,2.9,0,0,1,1.02,1.112,3.235,3.235,0,0,1,.372,1.541q0,.172-.017.354h-4.459a1.933,1.933,0,0,0,.3.749,1.618,1.618,0,0,0,.572.523,1.565,1.565,0,0,0,.766.192,1.492,1.492,0,0,0,.815-.22,1.8,1.8,0,0,0,.609-.632l1.166.269a3.093,3.093,0,0,1-.626.9,2.847,2.847,0,0,1-.9.609A2.674,2.674,0,0,1-119.2-14.827Zm1.669-3.482a1.792,1.792,0,0,0-.294-.769,1.776,1.776,0,0,0-.6-.557,1.541,1.541,0,0,0-.777-.206,1.542,1.542,0,0,0-.775.2,1.768,1.768,0,0,0-.595.552,1.837,1.837,0,0,0-.3.777Zm3.882-1.075-.006,4.408H-114.8l.006-4.408h-.926v-1.143h.926l-.006-1.961h1.143l.006,1.961h1.218v1.143Zm7.752,4.408h-1.143v-.869a2.249,2.249,0,0,1-.76.743,2.035,2.035,0,0,1-1.058.274,2.914,2.914,0,0,1-1.506-.406,3.045,3.045,0,0,1-1.095-1.095,2.914,2.914,0,0,1-.406-1.506,2.94,2.94,0,0,1,.406-1.515,3.038,3.038,0,0,1,1.095-1.1,2.914,2.914,0,0,1,1.506-.406,2.051,2.051,0,0,1,1.058.272,2.206,2.206,0,0,1,.76.746v-.858h1.143Zm-2.95-.955a1.579,1.579,0,0,0,.892-.257,1.73,1.73,0,0,0,.6-.692,2.128,2.128,0,0,0,.214-.955,2.154,2.154,0,0,0-.214-.966,1.7,1.7,0,0,0-.606-.689,1.6,1.6,0,0,0-.889-.254,1.749,1.749,0,0,0-.926.257,1.9,1.9,0,0,0-.672.695,1.9,1.9,0,0,0-.249.958,1.887,1.887,0,0,0,.252.958,1.887,1.887,0,0,0,.677.692A1.758,1.758,0,0,0-108.847-15.931Zm7.277-4.922a2.929,2.929,0,0,1,1.509.406,3.031,3.031,0,0,1,1.1,1.1,2.929,2.929,0,0,1,.406,1.509,2.929,2.929,0,0,1-.406,1.509,3.031,3.031,0,0,1-1.1,1.1,2.929,2.929,0,0,1-1.509.406,2.024,2.024,0,0,1-1.052-.274,2.249,2.249,0,0,1-.76-.743v.869h-1.143v-8.575h1.143v3.716a2.215,2.215,0,0,1,.757-.746A2.036,2.036,0,0,1-101.57-20.853Zm-.011,4.916a1.779,1.779,0,0,0,.932-.257,1.88,1.88,0,0,0,.677-.695,1.893,1.893,0,0,0,.249-.952,1.886,1.886,0,0,0-.254-.96,1.9,1.9,0,0,0-.68-.695,1.768,1.768,0,0,0-.923-.254,1.569,1.569,0,0,0-.886.257,1.725,1.725,0,0,0-.6.695,2.146,2.146,0,0,0-.214.958,2.117,2.117,0,0,0,.217.96,1.738,1.738,0,0,0,.6.689A1.568,1.568,0,0,0-101.581-15.936Zm4-7.615h1.143v8.569h-1.143Zm5.1,8.724a2.665,2.665,0,0,1-1.432-.406,2.969,2.969,0,0,1-1.04-1.1,3.046,3.046,0,0,1-.386-1.509,3.046,3.046,0,0,1,.386-1.509,2.969,2.969,0,0,1,1.04-1.1,2.665,2.665,0,0,1,1.432-.406,2.649,2.649,0,0,1,1.449.412,2.9,2.9,0,0,1,1.02,1.112,3.235,3.235,0,0,1,.372,1.541q0,.172-.017.354h-4.459a1.933,1.933,0,0,0,.3.749,1.619,1.619,0,0,0,.572.523,1.565,1.565,0,0,0,.766.192,1.492,1.492,0,0,0,.815-.22,1.8,1.8,0,0,0,.609-.632l1.166.269a3.093,3.093,0,0,1-.626.9,2.847,2.847,0,0,1-.9.609A2.674,2.674,0,0,1-92.486-14.827Zm1.669-3.482a1.792,1.792,0,0,0-.294-.769,1.777,1.777,0,0,0-.6-.557,1.541,1.541,0,0,0-.777-.206,1.542,1.542,0,0,0-.775.2,1.768,1.768,0,0,0-.595.552,1.837,1.837,0,0,0-.3.777Zm4.139,3.447a3.007,3.007,0,0,1-.946-.151,2.588,2.588,0,0,1-.812-.432,1.682,1.682,0,0,1-.512-.652l.972-.417a.949.949,0,0,0,.274.32,1.594,1.594,0,0,0,.457.249,1.565,1.565,0,0,0,.532.094,1.377,1.377,0,0,0,.752-.2.605.605,0,0,0,.312-.535.492.492,0,0,0-.157-.383,1.015,1.015,0,0,0-.357-.212q-.2-.069-.606-.177a3.964,3.964,0,0,1-1.5-.637,1.33,1.33,0,0,1-.546-1.118,1.556,1.556,0,0,1,.292-.932,1.9,1.9,0,0,1,.777-.626,2.492,2.492,0,0,1,1.04-.22,2.723,2.723,0,0,1,1.261.292,2.1,2.1,0,0,1,.872.8l-.909.537a1.117,1.117,0,0,0-.483-.457,1.472,1.472,0,0,0-.706-.183,1.378,1.378,0,0,0-.766.2.633.633,0,0,0-.3.563.459.459,0,0,0,.117.326.784.784,0,0,0,.292.194,5,5,0,0,0,.489.154l.314.091a4.745,4.745,0,0,1,1.435.706,1.243,1.243,0,0,1,.509,1.066,1.485,1.485,0,0,1-.289.895,1.934,1.934,0,0,1-.772.62A2.433,2.433,0,0,1-86.677-14.861Z" transform="translate(2314.087 4687.847)" fill="#fff" stroke="rgba(255,255,255,0)" stroke-width="1"/>
      <path id="Path_24853" data-name="Path 24853" d="M-146.712-36.928H-142v1.143h-3.567v2h3.018v1.143h-3.018v3.716h-1.143Zm8.507,3.43a1.29,1.29,0,0,0-.692-.194,1.353,1.353,0,0,0-.789.237,1.579,1.579,0,0,0-.535.649,2.115,2.115,0,0,0-.192.9v2.978h-1.149v-5.711h1.143v.789a2.257,2.257,0,0,1,.743-.7,1.888,1.888,0,0,1,.955-.249,2.371,2.371,0,0,1,.7.086Zm3.173,4.722a2.665,2.665,0,0,1-1.432-.406,2.969,2.969,0,0,1-1.04-1.1,3.046,3.046,0,0,1-.386-1.509,3.046,3.046,0,0,1,.386-1.509,2.969,2.969,0,0,1,1.04-1.1,2.666,2.666,0,0,1,1.432-.406,2.649,2.649,0,0,1,1.449.412,2.9,2.9,0,0,1,1.02,1.112,3.235,3.235,0,0,1,.372,1.541q0,.172-.017.354h-4.459a1.932,1.932,0,0,0,.3.749,1.618,1.618,0,0,0,.572.523,1.565,1.565,0,0,0,.766.192,1.492,1.492,0,0,0,.815-.22,1.8,1.8,0,0,0,.609-.632l1.166.269a3.092,3.092,0,0,1-.626.9,2.847,2.847,0,0,1-.9.609A2.674,2.674,0,0,1-135.033-28.776Zm1.669-3.482a1.792,1.792,0,0,0-.294-.769,1.776,1.776,0,0,0-.6-.557,1.541,1.541,0,0,0-.777-.206,1.542,1.542,0,0,0-.775.2,1.768,1.768,0,0,0-.595.552,1.837,1.837,0,0,0-.3.777Zm4.139,3.447a3.007,3.007,0,0,1-.946-.151,2.588,2.588,0,0,1-.812-.432,1.682,1.682,0,0,1-.512-.652l.972-.417a.949.949,0,0,0,.274.32,1.594,1.594,0,0,0,.457.249,1.565,1.565,0,0,0,.532.094,1.377,1.377,0,0,0,.752-.2.605.605,0,0,0,.312-.535.492.492,0,0,0-.157-.383,1.015,1.015,0,0,0-.357-.212q-.2-.069-.606-.177a3.964,3.964,0,0,1-1.5-.637,1.33,1.33,0,0,1-.546-1.118,1.557,1.557,0,0,1,.292-.932,1.9,1.9,0,0,1,.777-.626,2.492,2.492,0,0,1,1.04-.22,2.723,2.723,0,0,1,1.261.292,2.1,2.1,0,0,1,.872.8l-.909.537a1.117,1.117,0,0,0-.483-.457,1.472,1.472,0,0,0-.706-.183,1.378,1.378,0,0,0-.766.2.633.633,0,0,0-.3.563.459.459,0,0,0,.117.326.784.784,0,0,0,.292.194,5,5,0,0,0,.489.154l.314.091a4.745,4.745,0,0,1,1.435.706,1.243,1.243,0,0,1,.509,1.066,1.485,1.485,0,0,1-.289.895,1.934,1.934,0,0,1-.772.62A2.433,2.433,0,0,1-129.225-28.81Zm7.249-.114V-31.9a1.979,1.979,0,0,0-.206-.9,1.691,1.691,0,0,0-.555-.652,1.313,1.313,0,0,0-.76-.24,1.279,1.279,0,0,0-.769.237,1.5,1.5,0,0,0-.5.646,2.286,2.286,0,0,0-.174.906v2.978h-1.149V-37.5h1.143v3.55a1.471,1.471,0,0,1,.629-.649,2.038,2.038,0,0,1,.932-.2,2.322,2.322,0,0,1,1.321.386,2.612,2.612,0,0,1,.9,1.043,3.335,3.335,0,0,1,.334,1.441v3Zm5.031-8h4.711v1.143H-115.8v2h3.018v1.143H-115.8v3.716h-1.143Zm8.507,3.43a1.29,1.29,0,0,0-.692-.194,1.353,1.353,0,0,0-.789.237,1.579,1.579,0,0,0-.535.649,2.115,2.115,0,0,0-.192.9v2.978h-1.149v-5.711h1.143v.789a2.257,2.257,0,0,1,.743-.7,1.888,1.888,0,0,1,.955-.249,2.37,2.37,0,0,1,.7.086Zm2.075-1.143v2.973a1.974,1.974,0,0,0,.206.9,1.651,1.651,0,0,0,.569.649,1.435,1.435,0,0,0,.809.24,1.345,1.345,0,0,0,.786-.24,1.6,1.6,0,0,0,.537-.649,2.1,2.1,0,0,0,.192-.9v-2.973h1.143v5.717h-1.143v-.8a2.3,2.3,0,0,1-.74.7,1.856,1.856,0,0,1-.952.252,2.322,2.322,0,0,1-1.321-.386,2.587,2.587,0,0,1-.9-1.046,3.38,3.38,0,0,1-.332-1.443v-3Zm6.22-.812a.582.582,0,0,1-.426-.18.582.582,0,0,1-.18-.426.582.582,0,0,1,.18-.426.582.582,0,0,1,.426-.18.589.589,0,0,1,.432.18.582.582,0,0,1,.18.426.579.579,0,0,1-.18.429A.594.594,0,0,1-100.143-35.453Zm.56.812v5.717h-1.143v-5.717Zm3.219,1.309-.006,4.408h-1.143l.006-4.408h-.926v-1.143h.926l-.006-1.961h1.143l.006,1.961h1.218v1.143Zm4.1,4.522a3.007,3.007,0,0,1-.946-.151,2.588,2.588,0,0,1-.812-.432,1.682,1.682,0,0,1-.512-.652l.972-.417a.949.949,0,0,0,.274.32,1.594,1.594,0,0,0,.457.249,1.564,1.564,0,0,0,.532.094,1.377,1.377,0,0,0,.752-.2.605.605,0,0,0,.312-.535.492.492,0,0,0-.157-.383,1.015,1.015,0,0,0-.357-.212q-.2-.069-.606-.177a3.964,3.964,0,0,1-1.5-.637,1.33,1.33,0,0,1-.546-1.118,1.557,1.557,0,0,1,.292-.932,1.9,1.9,0,0,1,.777-.626,2.492,2.492,0,0,1,1.04-.22,2.723,2.723,0,0,1,1.261.292,2.1,2.1,0,0,1,.872.8l-.909.537a1.117,1.117,0,0,0-.483-.457,1.472,1.472,0,0,0-.706-.183,1.378,1.378,0,0,0-.766.2.633.633,0,0,0-.3.563.459.459,0,0,0,.117.326.784.784,0,0,0,.292.194,5,5,0,0,0,.489.154l.314.091a4.745,4.745,0,0,1,1.435.706,1.243,1.243,0,0,1,.509,1.066,1.485,1.485,0,0,1-.289.895,1.934,1.934,0,0,1-.772.62A2.433,2.433,0,0,1-92.266-28.81Zm8.049.034a2.32,2.32,0,0,1-1.226-.334A2.4,2.4,0,0,1-86.306-30a2.373,2.373,0,0,1-.312-1.186,2.25,2.25,0,0,1,.131-.82,2.38,2.38,0,0,1,.429-.677q.3-.343,1.035-1.08a7.99,7.99,0,0,1-.58-.629,1.611,1.611,0,0,1-.266-.463,1.668,1.668,0,0,1-.08-.549,1.69,1.69,0,0,1,.237-.883,1.761,1.761,0,0,1,.635-.629,1.679,1.679,0,0,1,.86-.232,1.705,1.705,0,0,1,.869.232,1.725,1.725,0,0,1,.635.632,1.71,1.71,0,0,1,.234.88,1.634,1.634,0,0,1-.086.56,1.657,1.657,0,0,1-.269.463,8.189,8.189,0,0,1-.572.617l1.772,1.772,1.366-1.361v1.612l-.566.566,1.446,1.441-.806.806-1.441-1.435q-.737.737-1.086,1.035a2.371,2.371,0,0,1-.677.423A2.313,2.313,0,0,1-84.216-28.776Zm.223-5.854q.234-.229.329-.332a.667.667,0,0,0,.134-.206.715.715,0,0,0,.04-.257.69.69,0,0,0-.1-.372.718.718,0,0,0-.272-.257.728.728,0,0,0-.352-.091.684.684,0,0,0-.36.1.748.748,0,0,0-.263.266.689.689,0,0,0-.1.354.672.672,0,0,0,.043.257.735.735,0,0,0,.131.2q.089.1.306.312l.24.24Zm-.223,4.711a1.227,1.227,0,0,0,.454-.074,1.326,1.326,0,0,0,.377-.243q.192-.169.6-.586l.349-.354-1.778-1.778-.354.354q-.423.423-.589.612a1.291,1.291,0,0,0-.237.369,1.224,1.224,0,0,0-.071.449,1.21,1.21,0,0,0,.172.635,1.267,1.267,0,0,0,.457.452A1.22,1.22,0,0,0-84.216-29.92Zm-57.765,6.94h1.212l2.412,6.637,2.413-6.637h1.212l-2.91,8h-1.435Zm9.776,8.152a2.666,2.666,0,0,1-1.432-.406,2.969,2.969,0,0,1-1.04-1.1,3.046,3.046,0,0,1-.386-1.509,3.046,3.046,0,0,1,.386-1.509,2.969,2.969,0,0,1,1.04-1.1,2.666,2.666,0,0,1,1.432-.406,2.649,2.649,0,0,1,1.449.412,2.9,2.9,0,0,1,1.02,1.112,3.235,3.235,0,0,1,.372,1.541q0,.172-.017.354h-4.459a1.933,1.933,0,0,0,.3.749,1.618,1.618,0,0,0,.572.523,1.565,1.565,0,0,0,.766.192,1.492,1.492,0,0,0,.815-.22,1.8,1.8,0,0,0,.609-.632l1.166.269a3.092,3.092,0,0,1-.626.9,2.847,2.847,0,0,1-.9.609A2.674,2.674,0,0,1-132.206-14.827Zm1.669-3.482a1.792,1.792,0,0,0-.294-.769,1.777,1.777,0,0,0-.6-.557,1.541,1.541,0,0,0-.777-.206,1.542,1.542,0,0,0-.775.2,1.768,1.768,0,0,0-.595.552,1.837,1.837,0,0,0-.3.777Zm7.615,3.487a2.419,2.419,0,0,1-.417,1.381,2.882,2.882,0,0,1-1.112.972,3.228,3.228,0,0,1-1.478.352,2.733,2.733,0,0,1-1.146-.254,3.177,3.177,0,0,1-.98-.695,2.814,2.814,0,0,1-.623-.983l1.052-.474a1.7,1.7,0,0,0,.369.643,1.878,1.878,0,0,0,.612.452,1.69,1.69,0,0,0,.717.163,2.1,2.1,0,0,0,.906-.2,1.8,1.8,0,0,0,.695-.557,1.3,1.3,0,0,0,.263-.795v-1a2.165,2.165,0,0,1-.746.729,1.994,1.994,0,0,1-1.026.266,2.808,2.808,0,0,1-1.475-.406,3.013,3.013,0,0,1-1.072-1.095,2.962,2.962,0,0,1-.4-1.506,2.978,2.978,0,0,1,.4-1.509,3.006,3.006,0,0,1,1.072-1.1,2.808,2.808,0,0,1,1.475-.406,1.994,1.994,0,0,1,1.026.266,2.165,2.165,0,0,1,.746.729v-.84h1.143Zm-2.9-1.109a1.523,1.523,0,0,0,.869-.257,1.741,1.741,0,0,0,.6-.695,2.133,2.133,0,0,0,.214-.952,2.146,2.146,0,0,0-.214-.958,1.741,1.741,0,0,0-.6-.695,1.523,1.523,0,0,0-.869-.257,1.657,1.657,0,0,0-.9.257,1.866,1.866,0,0,0-.649.695,1.957,1.957,0,0,0-.24.958,1.957,1.957,0,0,0,.24.958,1.836,1.836,0,0,0,.652.692A1.675,1.675,0,0,0-125.82-15.931Zm6.62,1.1a2.665,2.665,0,0,1-1.432-.406,2.969,2.969,0,0,1-1.04-1.1,3.046,3.046,0,0,1-.386-1.509,3.046,3.046,0,0,1,.386-1.509,2.969,2.969,0,0,1,1.04-1.1,2.665,2.665,0,0,1,1.432-.406,2.649,2.649,0,0,1,1.449.412,2.9,2.9,0,0,1,1.02,1.112,3.235,3.235,0,0,1,.372,1.541q0,.172-.017.354h-4.459a1.933,1.933,0,0,0,.3.749,1.618,1.618,0,0,0,.572.523,1.565,1.565,0,0,0,.766.192,1.492,1.492,0,0,0,.815-.22,1.8,1.8,0,0,0,.609-.632l1.166.269a3.093,3.093,0,0,1-.626.9,2.847,2.847,0,0,1-.9.609A2.674,2.674,0,0,1-119.2-14.827Zm1.669-3.482a1.792,1.792,0,0,0-.294-.769,1.776,1.776,0,0,0-.6-.557,1.541,1.541,0,0,0-.777-.206,1.542,1.542,0,0,0-.775.2,1.768,1.768,0,0,0-.595.552,1.837,1.837,0,0,0-.3.777Zm3.882-1.075-.006,4.408H-114.8l.006-4.408h-.926v-1.143h.926l-.006-1.961h1.143l.006,1.961h1.218v1.143Zm7.752,4.408h-1.143v-.869a2.249,2.249,0,0,1-.76.743,2.035,2.035,0,0,1-1.058.274,2.914,2.914,0,0,1-1.506-.406,3.045,3.045,0,0,1-1.095-1.095,2.914,2.914,0,0,1-.406-1.506,2.94,2.94,0,0,1,.406-1.515,3.038,3.038,0,0,1,1.095-1.1,2.914,2.914,0,0,1,1.506-.406,2.051,2.051,0,0,1,1.058.272,2.206,2.206,0,0,1,.76.746v-.858h1.143Zm-2.95-.955a1.579,1.579,0,0,0,.892-.257,1.73,1.73,0,0,0,.6-.692,2.128,2.128,0,0,0,.214-.955,2.154,2.154,0,0,0-.214-.966,1.7,1.7,0,0,0-.606-.689,1.6,1.6,0,0,0-.889-.254,1.749,1.749,0,0,0-.926.257,1.9,1.9,0,0,0-.672.695,1.9,1.9,0,0,0-.249.958,1.887,1.887,0,0,0,.252.958,1.887,1.887,0,0,0,.677.692A1.758,1.758,0,0,0-108.847-15.931Zm7.277-4.922a2.929,2.929,0,0,1,1.509.406,3.031,3.031,0,0,1,1.1,1.1,2.929,2.929,0,0,1,.406,1.509,2.929,2.929,0,0,1-.406,1.509,3.031,3.031,0,0,1-1.1,1.1,2.929,2.929,0,0,1-1.509.406,2.024,2.024,0,0,1-1.052-.274,2.249,2.249,0,0,1-.76-.743v.869h-1.143v-8.575h1.143v3.716a2.215,2.215,0,0,1,.757-.746A2.036,2.036,0,0,1-101.57-20.853Zm-.011,4.916a1.779,1.779,0,0,0,.932-.257,1.88,1.88,0,0,0,.677-.695,1.893,1.893,0,0,0,.249-.952,1.886,1.886,0,0,0-.254-.96,1.9,1.9,0,0,0-.68-.695,1.768,1.768,0,0,0-.923-.254,1.569,1.569,0,0,0-.886.257,1.725,1.725,0,0,0-.6.695,2.146,2.146,0,0,0-.214.958,2.117,2.117,0,0,0,.217.96,1.738,1.738,0,0,0,.6.689A1.568,1.568,0,0,0-101.581-15.936Zm4-7.615h1.143v8.569h-1.143Zm5.1,8.724a2.665,2.665,0,0,1-1.432-.406,2.969,2.969,0,0,1-1.04-1.1,3.046,3.046,0,0,1-.386-1.509,3.046,3.046,0,0,1,.386-1.509,2.969,2.969,0,0,1,1.04-1.1,2.665,2.665,0,0,1,1.432-.406,2.649,2.649,0,0,1,1.449.412,2.9,2.9,0,0,1,1.02,1.112,3.235,3.235,0,0,1,.372,1.541q0,.172-.017.354h-4.459a1.933,1.933,0,0,0,.3.749,1.619,1.619,0,0,0,.572.523,1.565,1.565,0,0,0,.766.192,1.492,1.492,0,0,0,.815-.22,1.8,1.8,0,0,0,.609-.632l1.166.269a3.093,3.093,0,0,1-.626.9,2.847,2.847,0,0,1-.9.609A2.674,2.674,0,0,1-92.486-14.827Zm1.669-3.482a1.792,1.792,0,0,0-.294-.769,1.777,1.777,0,0,0-.6-.557,1.541,1.541,0,0,0-.777-.206,1.542,1.542,0,0,0-.775.2,1.768,1.768,0,0,0-.595.552,1.837,1.837,0,0,0-.3.777Zm4.139,3.447a3.007,3.007,0,0,1-.946-.151,2.588,2.588,0,0,1-.812-.432,1.682,1.682,0,0,1-.512-.652l.972-.417a.949.949,0,0,0,.274.32,1.594,1.594,0,0,0,.457.249,1.565,1.565,0,0,0,.532.094,1.377,1.377,0,0,0,.752-.2.605.605,0,0,0,.312-.535.492.492,0,0,0-.157-.383,1.015,1.015,0,0,0-.357-.212q-.2-.069-.606-.177a3.964,3.964,0,0,1-1.5-.637,1.33,1.33,0,0,1-.546-1.118,1.556,1.556,0,0,1,.292-.932,1.9,1.9,0,0,1,.777-.626,2.492,2.492,0,0,1,1.04-.22,2.723,2.723,0,0,1,1.261.292,2.1,2.1,0,0,1,.872.8l-.909.537a1.117,1.117,0,0,0-.483-.457,1.472,1.472,0,0,0-.706-.183,1.378,1.378,0,0,0-.766.2.633.633,0,0,0-.3.563.459.459,0,0,0,.117.326.784.784,0,0,0,.292.194,5,5,0,0,0,.489.154l.314.091a4.745,4.745,0,0,1,1.435.706,1.243,1.243,0,0,1,.509,1.066,1.485,1.485,0,0,1-.289.895,1.934,1.934,0,0,1-.772.62A2.433,2.433,0,0,1-86.677-14.861Z" transform="translate(2423.087 4687.847)" fill="#fff" stroke="rgba(255,255,255,0)" stroke-width="1"/>
      <g id="Group_2916" data-name="Group 2916" transform="translate(2060.567 4620.352)">
        <g transform="matrix(1, 0, 0, 1, -225.69, -350.35)" filter="url(#Rectangle_1467)">
          <rect id="Rectangle_1467-4" data-name="Rectangle 1467" width="69.442" height="20.711" rx="10.355" transform="translate(226 350.35)" fill="#ffa4a4" stroke="#fff" stroke-width="1"/>
        </g>
        <text id="_10_off" data-name="10% off" transform="translate(35.307 14.437)" fill="#fff" stroke="rgba(255,255,255,0)" stroke-width="1" font-size="11" font-family="Urbanist-Bold, Urbanist" font-weight="700"><tspan x="-17" y="0">10% off</tspan></text>
      </g>
      <g id="Group_7491" data-name="Group 7491" transform="translate(2166.567 4620.352)">
        <g transform="matrix(1, 0, 0, 1, -331.69, -350.35)" filter="url(#Rectangle_1467-2)">
          <rect id="Rectangle_1467-5" data-name="Rectangle 1467" width="69.442" height="20.711" rx="10.355" transform="translate(332 350.35)" fill="#ffa4a4" stroke="#fff" stroke-width="1"/>
        </g>
        <text id="_10_off-2" data-name="10% off" transform="translate(35.307 14.437)" fill="#fff" stroke="rgba(255,255,255,0)" stroke-width="1" font-size="11" font-family="Urbanist-Bold, Urbanist" font-weight="700"><tspan x="-17" y="0">10% off</tspan></text>
      </g>
      <g id="Group_7492" data-name="Group 7492" transform="translate(2275.567 4620.352)">
        <g transform="matrix(1, 0, 0, 1, -440.69, -350.35)" filter="url(#Rectangle_1467-3)">
          <rect id="Rectangle_1467-6" data-name="Rectangle 1467" width="69.442" height="20.711" rx="10.355" transform="translate(441 350.35)" fill="#ffa4a4" stroke="#fff" stroke-width="1"/>
        </g>
        <text id="_10_off-3" data-name="10% off" transform="translate(35.307 14.437)" fill="#fff" stroke="rgba(255,255,255,0)" stroke-width="1" font-size="11" font-family="Urbanist-Bold, Urbanist" font-weight="700"><tspan x="-17" y="0">10% off</tspan></text>
      </g>
    </g>
    <g id="Group_7383" data-name="Group 7383" transform="translate(0 -528)">
      <circle id="Ellipse_595" data-name="Ellipse 595" cx="23" cy="23" r="23" transform="translate(927 16473)" fill="#ffa4a4" stroke="#fff" stroke-width="2"/>
      <path id="Path_23970" data-name="Path 23970" d="M171.908,237.86h4.329a1.237,1.237,0,0,1,1.237,1.237v4.329a1.237,1.237,0,0,1-1.237,1.237h-4.329a1.237,1.237,0,0,1-1.237-1.237V239.1A1.237,1.237,0,0,1,171.908,237.86Zm1.237,2.474H175v1.855h-1.855Zm3.092,3.094h-4.329V239.1h4.329Zm-4.329,2.472h4.329a1.237,1.237,0,0,1,1.237,1.237v4.329a1.237,1.237,0,0,1-1.237,1.237h-4.329a1.237,1.237,0,0,1-1.237-1.237v-4.329A1.237,1.237,0,0,1,171.908,245.9Zm4.329,5.567h-4.329v-4.329h4.329Zm-3.092-3.091H175v1.855h-1.855Zm11.133-10.516h-4.329a1.237,1.237,0,0,0-1.237,1.237v4.329a1.237,1.237,0,0,0,1.237,1.237h4.329a1.237,1.237,0,0,0,1.237-1.237V239.1A1.237,1.237,0,0,0,184.278,237.86Zm-4.329,5.568h4.329V239.1h-4.329Zm3.092,4.946H184.9v-1.855h-1.855Zm-3.711,0v-1.855h1.855v1.855Zm3.711-8.04h-1.855v1.855h1.855Zm-1.855,9.9h0v0h0Zm0,0h1.855v-1.855h-1.855v1.854H179.33v1.855h1.855Zm3.711,1.854V250.23h-1.855v1.855Z" transform="translate(772.329 16245.035)" fill="#fff" fill-rule="evenodd"/>
      <path id="Path_23971" data-name="Path 23971" d="M170.669,269a4.642,4.642,0,0,1-1.392-.195,3.224,3.224,0,0,1-1.076-.585l.269-.612a3.464,3.464,0,0,0,.993.538,3.754,3.754,0,0,0,1.206.176,2.024,2.024,0,0,0,1.234-.306,1,1,0,0,0,.408-.826.793.793,0,0,0-.3-.649,2.25,2.25,0,0,0-.974-.38l-.965-.195a2.661,2.661,0,0,1-1.308-.6,1.53,1.53,0,0,1-.427-1.132,1.769,1.769,0,0,1,.3-1.02,2.007,2.007,0,0,1,.844-.677,3.013,3.013,0,0,1,1.243-.241,3.443,3.443,0,0,1,1.225.213,2.555,2.555,0,0,1,.956.594l-.269.594a2.639,2.639,0,0,0-.881-.547,2.906,2.906,0,0,0-1.039-.176,1.839,1.839,0,0,0-1.169.343,1.066,1.066,0,0,0-.436.891.934.934,0,0,0,.269.705,1.824,1.824,0,0,0,.9.38l.965.2a2.969,2.969,0,0,1,1.382.594,1.331,1.331,0,0,1,.455,1.067,1.622,1.622,0,0,1-.3.965,1.864,1.864,0,0,1-.835.649A3.22,3.22,0,0,1,170.669,269Zm5.515,0a2.275,2.275,0,0,1-1.169-.288,2,2,0,0,1-.761-.826,2.85,2.85,0,0,1-.26-1.253,2.345,2.345,0,0,1,.584-1.688,2.1,2.1,0,0,1,1.6-.622,2.4,2.4,0,0,1,.826.148,1.821,1.821,0,0,1,.677.417l-.26.547a1.706,1.706,0,0,0-.594-.38,1.688,1.688,0,0,0-.6-.121,1.349,1.349,0,0,0-1.085.445,1.864,1.864,0,0,0-.38,1.262,1.986,1.986,0,0,0,.38,1.28,1.324,1.324,0,0,0,1.085.464,1.687,1.687,0,0,0,.6-.121,1.65,1.65,0,0,0,.594-.39l.26.547a1.908,1.908,0,0,1-.687.427A2.375,2.375,0,0,1,176.184,269Zm3.88,0a1.922,1.922,0,0,1-.835-.176,1.513,1.513,0,0,1-.575-.5,1.23,1.23,0,0,1-.213-.705,1.146,1.146,0,0,1,.25-.779,1.524,1.524,0,0,1,.844-.408,7.9,7.9,0,0,1,1.614-.13h.3v-.288a1.166,1.166,0,0,0-.241-.826.962.962,0,0,0-.751-.26,2.594,2.594,0,0,0-.789.121,2.964,2.964,0,0,0-.779.371l-.26-.547a2.87,2.87,0,0,1,.854-.4,3.487,3.487,0,0,1,.974-.148,1.733,1.733,0,0,1,1.29.427,1.809,1.809,0,0,1,.427,1.327v2.839h-.705v-.779a1.391,1.391,0,0,1-.547.631A1.547,1.547,0,0,1,180.065,269Zm.121-.566a1.184,1.184,0,0,0,.909-.38,1.41,1.41,0,0,0,.353-.983v-.278h-.288a7.435,7.435,0,0,0-1.188.074,1.076,1.076,0,0,0-.6.241.627.627,0,0,0-.167.464.81.81,0,0,0,.26.622A1.044,1.044,0,0,0,180.185,268.434Zm3.494.482v-4.509h.733v.77a1.467,1.467,0,0,1,.631-.64,1.952,1.952,0,0,1,.918-.213q1.605,0,1.6,1.781v2.811h-.751v-2.765a1.382,1.382,0,0,0-.25-.918.947.947,0,0,0-.779-.3,1.307,1.307,0,0,0-.993.39,1.42,1.42,0,0,0-.362,1.021v2.57Z" transform="translate(771.799 16239.492)" fill="#fff"/>
    </g>
    <g id="Path_24857" data-name="Path 24857" transform="translate(800 15737)" fill="#ffa4a4">
      <path d="M 281 75 L 16 75 C 11.99334621429443 75 8.226499557495117 73.43972778320312 5.393384456634521 70.60657501220703 C 2.560269117355347 67.77346038818359 1 64.00665283203125 1 60 L 1 16 C 1 11.99334621429443 2.560269117355347 8.22653865814209 5.393384456634521 5.393423080444336 C 8.226499557495117 2.560269117355347 11.99334621429443 1 16 1 L 281 1 C 285.0066528320312 1 288.7734680175781 2.560269117355347 291.6065673828125 5.393423080444336 C 294.4397277832031 8.22653865814209 296 11.99334621429443 296 16 L 296 60 C 296 64.00665283203125 294.4397277832031 67.77346038818359 291.6065673828125 70.60657501220703 C 288.7734680175781 73.43972778320312 285.0066528320312 75 281 75 Z" stroke="none"/>
      <path d="M 16 2 C 12.26046752929688 2 8.744781494140625 3.456268310546875 6.100494384765625 6.100502014160156 C 3.456268310546875 8.744766235351562 2 12.26045989990234 2 16 L 2 60 C 2 63.73954010009766 3.456268310546875 67.25523376464844 6.100494384765625 69.89949798583984 C 8.744781494140625 72.54373168945312 12.26046752929688 74 16 74 L 281 74 C 284.7395324707031 74 288.2552185058594 72.54373168945312 290.8995056152344 69.89949798583984 C 293.5437316894531 67.25523376464844 295 63.73954010009766 295 60 L 295 16 C 295 12.26045989990234 293.5437316894531 8.744766235351562 290.8995056152344 6.100502014160156 C 288.2552185058594 3.456268310546875 284.7395324707031 2 281 2 L 16 2 M 16 0 L 281 0 C 289.8365478515625 0 297 7.163459777832031 297 16 L 297 60 C 297 68.83654022216797 289.8365478515625 76 281 76 L 16 76 C 7.1634521484375 76 0 68.83654022216797 0 60 L 0 16 C 0 7.163459777832031 7.1634521484375 0 16 0 Z" stroke="none" fill="#fff"/>
    </g>
    <text id="Win_Reward_Points_on_Every_Day" data-name="Win Reward Points on 
Every Day" transform="translate(830 15773)" fill="#fff" font-size="14" font-family="Access-Regular, Access"><tspan x="0" y="0">Win Reward Points on </tspan><tspan x="0" y="16">Every Day</tspan></text>
    <text id="SPIN_NOW" data-name="SPIN NOW" transform="translate(1009 15794)" fill="#fff" font-size="12" font-family="Access-ExtraBold, Access" font-weight="800"><tspan x="0" y="0">SPIN NOW</tspan></text>
    <g id="Ellipse_813" data-name="Ellipse 813" transform="translate(1004 15706)" fill="#ffa4a4" stroke="#fff" stroke-width="2">
      <circle cx="34.5" cy="34.5" r="34.5" stroke="none"/>
      <circle cx="34.5" cy="34.5" r="33.5" fill="none"/>
    </g>
    <g id="Repeat_Grid_1" data-name="Repeat Grid 1" transform="translate(800 15877)" clip-path="url(#clip-path)">
      <g transform="translate(-800 -16954)">
        <g id="Rectangle_2084" data-name="Rectangle 2084" transform="translate(800 16954)" fill="#ffa4a4" stroke="#fff" stroke-width="2">
          <rect width="87" height="28" rx="14" stroke="none"/>
          <rect x="1" y="1" width="85" height="26" rx="13" fill="none"/>
        </g>
      </g>
      <g transform="translate(-694 -16954)">
        <g id="Rectangle_2084-2" data-name="Rectangle 2084" transform="translate(800 16954)" fill="#ffa4a4" stroke="#fff" stroke-width="2">
          <rect width="87" height="28" rx="14" stroke="none"/>
          <rect x="1" y="1" width="85" height="26" rx="13" fill="none"/>
        </g>
      </g>
      <g transform="translate(-588 -16954)">
        <g id="Rectangle_2084-3" data-name="Rectangle 2084" transform="translate(800 16954)" fill="#ffa4a4" stroke="#fff" stroke-width="2">
          <rect width="87" height="28" rx="14" stroke="none"/>
          <rect x="1" y="1" width="85" height="26" rx="13" fill="none"/>
        </g>
      </g>
    </g>
  </g>
</svg>
