<svg id="Group_7678" data-name="Group 7678" xmlns="http://www.w3.org/2000/svg" width="193.851" height="267.246" viewBox="0 0 193.851 267.246">
  <path id="Subtraction_18" data-name="Subtraction 18" d="M0,0H0V267.246A138.261,138.261,0,0,0,25.046,262.4a137.171,137.171,0,0,0,23.176-9.124,137.208,137.208,0,0,0,20.854-12.958,136.846,136.846,0,0,0,18.078-16.346A135.37,135.37,0,0,0,102,204.686,133.38,133.38,0,0,0,113.171,182.9a132.075,132.075,0,0,0,7.033-23.837,133.362,133.362,0,0,0,2.445-25.441,133.368,133.368,0,0,0-2.445-25.441,132.057,132.057,0,0,0-7.033-23.836A133.365,133.365,0,0,0,102,62.559,135.41,135.41,0,0,0,87.154,43.27,136.915,136.915,0,0,0,69.076,26.924,137.209,137.209,0,0,0,48.223,13.967,137.231,137.231,0,0,0,25.046,4.843,138.3,138.3,0,0,0,0,0Z" transform="translate(71.203)" fill="#e3334a"/>
  <path id="Subtraction_19" data-name="Subtraction 19" d="M99.628,108.544H0V0A111.177,111.177,0,0,1,70.8,35.149,109.973,109.973,0,0,1,82.858,50.818a108.337,108.337,0,0,1,9.071,17.7,107.081,107.081,0,0,1,7.7,40.029Z" transform="translate(99.628 146.006) rotate(180)" fill="#fdb913"/>
</svg>
