<svg xmlns="http://www.w3.org/2000/svg" xmlns:xlink="http://www.w3.org/1999/xlink" width="128.352" height="129.137" viewBox="0 0 128.352 129.137">
  <defs>
    <clipPath id="clip-path">
      <rect id="Rectangle_1134" data-name="Rectangle 1134" width="128.352" height="129.139" transform="translate(646.564 5446.2)" fill="#fff"/>
    </clipPath>
  </defs>
  <g id="Group_2066" data-name="Group 2066" transform="translate(-646.564 -5446.199)" clip-path="url(#clip-path)">
    <path id="Path_17632" data-name="Path 17632" d="M656.011,5544.4a61.105,61.105,0,0,1-8.689-23.961c-2-13.647-.1-26.783,6.318-38.957,9.854-18.776,25.187-30.436,46.01-34.215,17.1-3.074,32.94.514,47.357,10.382.41.254.909.446,1.153.959a7.836,7.836,0,0,1-2.287,2.563c-2.147,1.856-4.024,4.036-6.254,5.766-.352.257-.654.641-1.166.641a4.318,4.318,0,0,1-1.518-.641,50.547,50.547,0,0,0-59.556,5.191,49.87,49.87,0,0,0-16.742,29.729,50.713,50.713,0,0,0,4.357,31.4,7.343,7.343,0,0,1,.917,2.241,1.7,1.7,0,0,1-.711,1.151c-2.55,2.31-5.087,4.615-7.542,7.051C657.229,5544.085,656.818,5544.788,656.011,5544.4Z" transform="translate(0.003 0.016)" fill="#fee34e"/>
    <path id="Path_17633" data-name="Path 17633" d="M726.317,5462.429a63.2,63.2,0,0,1-14.961,37.159,63.6,63.6,0,0,1-55.865,22.556c.1-1.409,1.288-1.984,2.127-2.752,3.646-3.271,7.112-6.793,10.8-10,.154-.127.32-.257.5-.384,2.922-.771,5.927-1.217,8.81-2.114a51.49,51.49,0,0,0,33.145-33.318c.538-1.668.916-3.331,1.288-5,.109-.514.045-1.09.609-1.347a1.822,1.822,0,0,0,1.442-.7c3.2-3.269,6.728-6.15,9.95-9.419.551-.514,1.16-1.476,1.986-1.025.634.254.244,1.279.237,1.984A21.158,21.158,0,0,1,726.317,5462.429Z" transform="translate(48.271 52.843)" fill="#fed535"/>
    <path id="Path_17634" data-name="Path 17634" d="M674.207,5452.1a55.432,55.432,0,0,1,4.594,13.712,2.026,2.026,0,0,1-.724,2.371c-2.691,2.628-5.4,5.19-8.2,7.686-1.217,1.027-2.191,2.183-1.986,3.975.045.384.391,1.538-.859,1.089a3.545,3.545,0,0,1-.211-1.666,48.91,48.91,0,0,0-2.576-16.72,3.8,3.8,0,0,1-.192-.9c.038-1.027.827-1.474,1.448-2.049,2.473-2.182,4.812-4.488,7.227-6.664C673.137,5452.548,673.458,5451.907,674.207,5452.1Z" transform="translate(94.562 31.71)" fill="#fed535"/>
    <path id="Path_17635" data-name="Path 17635" d="M666.265,5479.082a46.424,46.424,0,0,1-14.57-6.088,2.309,2.309,0,0,1,.871-1.217q4.1-3.649,8.009-7.494a2.384,2.384,0,0,1,1.14-.705c1.826.449,3.479,1.346,5.267,1.922a49.373,49.373,0,0,0,10.521,2.179,1.809,1.809,0,0,1,1.256.449.224.224,0,0,1,0,.257c-4.2,2.433-7.164,6.339-10.815,9.416C667.431,5478.314,667.021,5478.955,666.265,5479.082Z" transform="translate(27.745 93.98)" fill="#fed535"/>
    <path id="Path_17636" data-name="Path 17636" d="M680.34,5461.705q-4.479,4.132-8.957,8.265a11.408,11.408,0,0,1-1.032.833c-.525-.13-.654-.576-.826-.96a49.82,49.82,0,0,0-6.157-11.279,1.839,1.839,0,0,1-.449-1.151c.148-.514.583-.771,1.006-1.09,2.7-1.795,5.35-3.655,8.079-5.383.494-.321.968-.771,1.647-.644A52.174,52.174,0,0,1,680.34,5461.705Z" transform="translate(88.436 22.043)" fill="#fee79a"/>
    <path id="Path_17637" data-name="Path 17637" d="M661.13,5479.727a58.111,58.111,0,0,1-11.514-8.905,81.587,81.587,0,0,1,9.354-8.651c.987,0,1.589.771,2.23,1.347.711.641,1.448,1.216,2.223,1.795a1.007,1.007,0,0,1,.346.257,7.957,7.957,0,0,0,1.147.833c.622.7,1.6.9,2.127,1.662a1.589,1.589,0,0,1,.057.452C665.282,5472.356,663.27,5476.074,661.13,5479.727Z" transform="translate(16.503 86.353)" fill="#feef9b"/>
    <path id="Path_17638" data-name="Path 17638" d="M660.964,5456.981l9.451-8.843a41.611,41.611,0,0,1,8.489,7.3,9.986,9.986,0,0,1-2.191,2.244c-1.826,1.925-3.9,3.525-5.7,5.447a2.262,2.262,0,0,1-1.858.833c-1.249-.387-1.871-1.6-2.851-2.368-1.5-1.154-2.909-2.439-4.511-3.461C661.412,5457.879,660.823,5457.685,660.964,5456.981Z" transform="translate(77.75 10.491)" fill="#feef9b"/>
    <path id="Path_17639" data-name="Path 17639" d="M648.04,5468.828c.73-.127,1.083-.7,1.563-1.152,2.736-2.5,5.254-5.19,8.176-7.5.147.062.288.13.41.191a.768.768,0,0,1,.288.319,80.845,80.845,0,0,0,5.376,7.756,1.072,1.072,0,0,1,.211.576c-.3,1.279-1.378,1.984-2.262,2.755-2.127,1.792-3.953,3.91-6.145,5.64-.276.188-.526.511-.91.511A48.434,48.434,0,0,1,648.04,5468.828Z" transform="translate(7.981 75.594)" fill="#feef9b"/>
    <path id="Path_17640" data-name="Path 17640" d="M665.411,5469.521c.077-.254.276-.579.218-.83-.525-2.309.878-3.655,2.384-5,2.839-2.628,5.6-5.252,8.458-7.812.583-.578.378-1.092.461-1.668a37.036,37.036,0,0,1,1.1,7.178,56.019,56.019,0,0,1,.359,9.737,4.544,4.544,0,0,1-.237.833v-6.15c-.756-.13-1.045.384-1.4.7-3.607,3.4-7.2,6.791-10.822,10.189-.282.254-.647,1.347-1.23.192a1.509,1.509,0,0,1-.282-1.284c.179-1.73.461-3.46.545-5.122a1.528,1.528,0,0,1,.115-.576A1.754,1.754,0,0,1,665.411,5469.521Z" transform="translate(96.426 43.312)" fill="#fee79a"/>
    <path id="Path_17641" data-name="Path 17641" d="M653.969,5475.578c3.383-3.652,7.253-6.791,10.751-10.316.506-.514,1.134-.319,1.711-.446a2.061,2.061,0,0,1,.666-.321c3.056-.192,6.119.065,9.175-.254a1.026,1.026,0,0,1,.436.062.914.914,0,0,1,.346.319c-3.345,3.142-6.689,6.345-10.028,9.484a26.762,26.762,0,0,0-3.3,3.331A45.7,45.7,0,0,1,653.969,5475.578Z" transform="translate(40.041 97.547)" fill="#fee79a"/>
    <path id="Path_17642" data-name="Path 17642" d="M662.225,5457.611a2.912,2.912,0,0,0,1.775-1.09c2.2-2.113,4.4-4.228,6.612-6.277a7.021,7.021,0,0,1,1.352-.965,28.464,28.464,0,0,1,3.319,3.717c.179.64-.333,1.027-.73,1.346-2.685,2.371-5.235,4.869-7.849,7.305a1.663,1.663,0,0,1-.519.319A10.741,10.741,0,0,1,662.225,5457.611Z" transform="translate(84.683 16.653)" fill="#fee34e"/>
    <path id="Path_17643" data-name="Path 17643" d="M649.089,5470.466c2.544-2.371,5.087-4.8,7.624-7.243a21.405,21.405,0,0,0,1.519-1.662,8.879,8.879,0,0,1,3.626,3.971c-1.692,1.6-3.293,3.4-5.119,4.869-1.467,1.217-2.454,2.947-4.274,3.718Q650.783,5472.293,649.089,5470.466Z" transform="translate(13.653 83.054)" fill="#fee34e"/>
    <path id="Path_17644" data-name="Path 17644" d="M651.413,5474.624a57.86,57.86,0,0,1,3.216-6.729c.788-1.6,1.711-3.074,2.57-4.677.41-.257.762,0,1.115.195,1.384.7,2.653,1.6,4.1,2.176.32.13.641.319.583.771a114.379,114.379,0,0,1-9.771,9.159C652.483,5475.519,651.983,5474.943,651.413,5474.624Z" transform="translate(26.22 91.457)" fill="#fee79a"/>
    <path id="Path_17645" data-name="Path 17645" d="M662.876,5458.819c2.217-2.627,4.947-4.745,7.394-7.112a9.641,9.641,0,0,0,1.781-1.857,18.537,18.537,0,0,1,2.127,2.752l-10.584,7.051c-.032.065-.083.127-.141.127h-.179a1.081,1.081,0,0,1-.43-.641A.352.352,0,0,1,662.876,5458.819Z" transform="translate(87.914 19.737)" fill="#feef9b"/>
    <path id="Path_17646" data-name="Path 17646" d="M739.948,5467.575a1.775,1.775,0,0,1,.064.318c-.717.192-.73.192-1.467-.511-2.018-1.925-3.857-4.039-6.055-5.77a48.8,48.8,0,0,0-25.347-10.505c-13.654-1.473-26.039,1.861-36.829,10.505a49.481,49.481,0,0,0-18.7,32.872,50.845,50.845,0,0,0,3.043,25.629,50.335,50.335,0,0,0,8.355,13.966,35.52,35.52,0,0,0,5.318,5.386c.474.381,1.108.833.833,1.662-1.755-.829-2.9-2.5-4.517-3.522l-3.614-3.909a64.111,64.111,0,0,1-6.132-8.905,53.743,53.743,0,0,1-5.555-16.083,51.73,51.73,0,0,1,3.607-29.792,51.2,51.2,0,0,1,71.082-24.6c1.294.706,2.543,1.474,3.812,2.18a65.146,65.146,0,0,1,8.208,6.79Z" transform="translate(10.849 10.984)" fill="#ea9e06"/>
    <path id="Path_17647" data-name="Path 17647" d="M720.157,5451.369c.09.065.186.065.282.13a56.449,56.449,0,0,1,7.291,13.456,51.8,51.8,0,0,1,3.056,19.924,47.039,47.039,0,0,1-.711,7.37,62.153,62.153,0,0,1-2.915,10.057,51.676,51.676,0,0,1-21.24,24.926,52.485,52.485,0,0,1-19.875,6.983,73.679,73.679,0,0,1-10.617.195,75.509,75.509,0,0,1-7.554-1.22,58.347,58.347,0,0,1-9.726-3.331l-5.792-3.077a1.68,1.68,0,0,0-.045-.253,72.736,72.736,0,0,1,4.607-8.01c2.127-3.526,4.434-6.921,6.779-10.314a3,3,0,0,1,1.134-1.154,40.937,40.937,0,0,1,7.413-.195,3.377,3.377,0,0,0,3.268-1.665c4.677-7.048,9.521-13.97,14.352-20.822a2.344,2.344,0,0,0,.019-2.947,10.378,10.378,0,0,1-1.5-2.5,4.94,4.94,0,0,1,2.826-2.689c.859.319,1.185,1.217,1.647,1.919.545.835.9.708,1.39-.062,1.878-2.819,3.787-5.637,5.792-8.326,1.673-2.31,2.947-4.872,5-6.922,3.345-2.309,6.381-5.128,9.72-7.5C716.555,5453.994,718.26,5452.589,720.157,5451.369Z" transform="translate(31.07 27.956)" fill="#fd9c1a"/>
    <path id="Path_17648" data-name="Path 17648" d="M738.577,5466.614c-1.474,1.922-3.646,2.947-5.5,4.42-2.8,2.179-5.606,4.358-8.368,6.6a8,8,0,0,1-1.179.706c-.3-.771.333-1.216.609-1.792.4-.835.455-1.6-.391-2.182a1.428,1.428,0,0,0-2,.514c-1.41,1.795-2.646,3.718-3.947,5.574q-3.431,5-6.913,10a1.992,1.992,0,0,1-1.217,1.024l-2.666,2.436c-.647-.065-.916-.579-1.218-1.025-3.742-5.317-7.509-10.638-11.091-16.08a5.272,5.272,0,0,0-5.062-2.758c-4.9.192-9.809.062-14.711.062-.859,0-1.8-.062-2.287.836-.481.959.045,1.792.609,2.563q6.6,8.84,13.205,17.683c1.909,2.628,1.922,3.142-.045,5.77-4.293,5.763-8.528,11.53-12.776,17.3-.609.833-1.544,1.668-.987,2.884.583,1.217,1.82.833,2.845.833,2.018.062,4.043,0,6.074.062.589,0,1.237-.127,1.691.452-4.113,5.894-8.028,11.981-11.641,18.194-.225.384-.365.833-.84,1.027a7.367,7.367,0,0,1-2.127-1.412,3.568,3.568,0,0,0-1.237-1.024v.062c-.474-1.086-1.538-1.6-2.326-2.371a52.36,52.36,0,0,1-12.847-19.157,51.519,51.519,0,0,1,.391-37.481,51.057,51.057,0,0,1,36.958-30.755,50.329,50.329,0,0,1,30.043,3.139,50.881,50.881,0,0,1,17.242,12.428c.359.387.589,1.09,1.345.963C738.334,5466.292,738.442,5466.423,738.577,5466.614Z" transform="translate(12.643 12.775)" fill="#febb00"/>
    <path id="Path_17649" data-name="Path 17649" d="M651.787,5462.719a1.208,1.208,0,0,1,1.237,1.024A2.575,2.575,0,0,1,651.787,5462.719Z" transform="translate(28.242 89.33)" fill="#ea9e06"/>
    <path id="Path_17650" data-name="Path 17650" d="M663.79,5501.264c-2.941-.068-5.875-.068-8.81-.068-.98,0-1.865-.127-2.3-1.086a2.33,2.33,0,0,1,.481-2.436c4.543-6.088,9.086-12.239,13.622-18.389,1.756-2.306,1.762-2.562.051-4.869-4.556-6.15-9.079-12.239-13.673-18.327a2.459,2.459,0,0,1-.481-2.56c.429-.962,1.352-1.024,2.319-1.024h16.71a2.76,2.76,0,0,1,1.6.319,3.216,3.216,0,0,1,1.192,1.089c4.088,5.959,8.208,11.854,12.34,17.813.231.319.475.638.718.959.622.962,1.23,1.86,1.871,2.754a2.136,2.136,0,0,1,.026,2.693q-7.66,11.05-15.3,22.1a2.326,2.326,0,0,1-.82.771,2.067,2.067,0,0,1-1.083.189C669.441,5501.2,666.615,5501.2,663.79,5501.264Z" transform="translate(32.071 33.999)" fill="#fee584"/>
    <path id="Path_17651" data-name="Path 17651" d="M673.263,5475.694a1.733,1.733,0,0,1-1.269,1.792,1.933,1.933,0,0,1-1.2,0,1.66,1.66,0,0,1-.929-.768c-1.083-1.538-2.165-3.012-3.236-4.615-2.518-3.587-4.966-7.305-7.567-10.893-.891-1.216-.8-1.984.109-3.139,1.3-1.6,1.217-1.668,2.371,0,3.645,5.253,7.272,10.509,10.892,15.827C672.827,5474.478,673.365,5474.989,673.263,5475.694Z" transform="translate(64.227 57.581)" fill="#fee584"/>
    <path id="Path_17652" data-name="Path 17652" d="M658.384,5470.257c3.793-5.383,7.586-10.827,11.386-16.275,1.076-1.536,2.057-1.86,3.075-1.155,1.019.771.987,1.8.026,3.269a9.33,9.33,0,0,0-.609,1.027c-3.216,4.609-6.433,9.225-9.649,13.774-.609.9-1.218,1.73-1.916,2.752Z" transform="translate(63.914 33.93)" fill="#fee584"/>
    <path id="Path_17653" data-name="Path 17653" d="M659.845,5457.6c3.024,4.354,5.959,8.524,8.849,12.75a1.94,1.94,0,0,1-.462,2.947,1.963,1.963,0,0,1-2.7-.83c-2.351-3.46-4.684-6.921-7.112-10.317a1.7,1.7,0,0,1-.013-2.5A21.374,21.374,0,0,0,659.845,5457.6Z" transform="translate(61.101 61.645)" fill="#fee584"/>
    <path id="Path_17654" data-name="Path 17654" d="M659.391,5458.408c1.827,2.693,3.62,5.19,5.318,7.754a1.816,1.816,0,0,1-.487,2.689,1.841,1.841,0,0,1-2.627-.641c-1.4-1.922-2.7-3.906-4.081-5.831a.963.963,0,0,1-.244-.638.941.941,0,0,1,.244-.579C658.149,5460.331,658.712,5459.433,659.391,5458.408Z" transform="translate(57.896 66.025)" fill="#fee584"/>
    <path id="Path_17655" data-name="Path 17655" d="M660.006,5468.4c-.7-.96-1.307-1.857-1.967-2.755-.442-.576-.032-.96.25-1.347l7.42-10.762a1.9,1.9,0,1,1,3.121,2.117C665.959,5459.878,663.024,5464.041,660.006,5468.4Z" transform="translate(60.997 33.928)" fill="#fee584"/>
    <path id="Path_17656" data-name="Path 17656" d="M663.146,5452.5a1.749,1.749,0,0,1,1.73,2.625c-1.55,2.563-3.338,5-5.042,7.435a.665.665,0,0,1-.34.254c-1-.511-1.256-1.665-1.98-2.433a.746.746,0,0,1-.013-1.092c1.4-1.981,2.774-3.968,4.171-6.021A1.563,1.563,0,0,1,663.146,5452.5Z" transform="translate(57.889 34.005)" fill="#fee584"/>
  </g>
</svg>
