<svg id="Group_7738" data-name="Group 7738" xmlns="http://www.w3.org/2000/svg" width="169.158" height="185.758" viewBox="0 0 169.158 185.758">
  <path id="Path_1594" data-name="Path 1594" d="M90.832,181.481a73.91,73.91,0,0,0,23.311-5.011,75.076,75.076,0,0,0,10.667-5.19,77.082,77.082,0,0,0,9.8-6.841,79.519,79.519,0,0,0,8.673-8.3,82.719,82.719,0,0,0,7.364-9.5,86.159,86.159,0,0,0,5.981-10.542,89.466,89.466,0,0,0,4.521-11.42,92.1,92.1,0,0,0,2.949-12.016,94.835,94.835,0,0,0,1.338-12.321,96.665,96.665,0,0,0-.269-12.449,97.674,97.674,0,0,0-10.27-35.909,95.26,95.26,0,0,0-6.342-10.668,92.066,92.066,0,0,0-7.683-9.72A89.036,89.036,0,0,0,132,23.087,85.739,85.739,0,0,0,122.181,16a82.365,82.365,0,0,0-10.651-5.565A76.174,76.174,0,0,0,88.443,4.421a76.016,76.016,0,0,0-11.858-.26A73.676,73.676,0,0,0,64.806,5.784a72.7,72.7,0,0,0-11.5,3.565,73.677,73.677,0,0,0-10.9,5.4,76.19,76.19,0,0,0-9.983,7.181,79.587,79.587,0,0,0-8.881,8.839A83.454,83.454,0,0,0,15.95,41.138,85.852,85.852,0,0,0,9.9,52.7,89.918,89.918,0,0,0,5.587,65.2a93.375,93.375,0,0,0-2.5,13.193,95.886,95.886,0,0,0-.6,13.632,97.738,97.738,0,0,0,7.753,35.546,95.575,95.575,0,0,0,8.584,15.859,91.581,91.581,0,0,0,11.365,13.82A86.852,86.852,0,0,0,43.741,168.3a82.16,82.16,0,0,0,14.97,7.8,78.273,78.273,0,0,0,15.864,4.429A75.6,75.6,0,0,0,90.832,181.481Z" fill="#f0cd00"/>
  <path id="Path_1595" data-name="Path 1595" d="M86.9,180.964a73.215,73.215,0,0,0,29.643-8.812,75.035,75.035,0,0,0,12.706-8.783A78.178,78.178,0,0,0,140.1,152.007a82.89,82.89,0,0,0,8.52-13.409,87.35,87.35,0,0,0,5.889-14.792,91.362,91.362,0,0,0,3.19-15.77,94.351,94.351,0,0,0,.4-16.365,95.678,95.678,0,0,0-6.343-31.936,94.211,94.211,0,0,0-7.087-14.563,91.291,91.291,0,0,0-9.528-13.127,86.77,86.77,0,0,0-11.617-11.068,82.649,82.649,0,0,0-13.195-8.52A78.943,78.943,0,0,0,95.89,6.7,76.074,76.074,0,0,0,80.545,3.935,73.076,73.076,0,0,0,65.081,5.227a72.336,72.336,0,0,0-14.81,4.538,73.369,73.369,0,0,0-13.708,7.707A76.126,76.126,0,0,0,24.433,28.257,80.976,80.976,0,0,0,14.56,41.681,85.732,85.732,0,0,0,7.466,57.065,90.309,90.309,0,0,0,3.394,73.906a93.852,93.852,0,0,0-.825,17.765,95.671,95.671,0,0,0,6.865,34.841,93.555,93.555,0,0,0,8.051,15.646,89.934,89.934,0,0,0,10.8,13.733,84.921,84.921,0,0,0,12.978,11.087A80.5,80.5,0,0,0,55.7,174.933a76.927,76.927,0,0,0,15.376,4.694A74.337,74.337,0,0,0,86.9,180.964Z" transform="translate(7.33 0.352)" fill="#ffde50"/>
  <path id="Path_1596" data-name="Path 1596" d="M3.51,123.114,98.584,4.554q1.705.758,3.383,1.6T105.291,7.9q1.645.913,3.261,1.9t3.195,2.052q1.446.98,2.852,2.052t2.765,2.212q1.359,1.14,2.673,2.341t2.578,2.438L20.972,150.472q-1.27-1.35-2.483-2.765t-2.365-2.89q-1.152-1.475-2.242-3.006T11.77,138.7q-1.147-1.882-2.238-3.792t-2.125-3.854q-1.034-1.945-2.008-3.928T3.51,123.114Z" transform="translate(14.371 5.668)" fill="#ffea94"/>
  <path id="Path_1597" data-name="Path 1597" d="M4.124,133.133,104.271,3.458q1.266,1.631,2.478,3.3t2.368,3.364q1.156,1.7,2.258,3.431t2.146,3.5q.878,1.568,1.688,3.17t1.549,3.232q.739,1.629,1.406,3.285t1.26,3.329L30.636,147.613q-1.67-.521-3.318-1.111t-3.272-1.257q-1.625-.666-3.223-1.412t-3.168-1.579q-1.755-1-3.478-2.073t-3.418-2.21q-1.694-1.14-3.353-2.348T4.124,133.133Z" transform="translate(39.652 30.777)" fill="#ffea94"/>
  <path id="Path_1598" data-name="Path 1598" d="M71.459,150.23a59.38,59.38,0,0,0,12.789-2.28,60.2,60.2,0,0,0,11.838-4.908,62.3,62.3,0,0,0,10.589-7.293,65.407,65.407,0,0,0,9.055-9.452,68.978,68.978,0,0,0,7.118-11.175,72.652,72.652,0,0,0,4.922-12.341,75.8,75.8,0,0,0,2.659-13.159,77.986,77.986,0,0,0,.317-13.645,79.744,79.744,0,0,0-5.215-26.758,78.223,78.223,0,0,0-5.9-12.191,75.668,75.668,0,0,0-7.952-10.973,72.753,72.753,0,0,0-9.694-9.193A69.274,69.274,0,0,0,90.974,9.771,65.683,65.683,0,0,0,78.938,4.977,62.621,62.621,0,0,0,66.169,2.7,60.006,60.006,0,0,0,41.1,7.919a61.436,61.436,0,0,0-11.279,6.563,64.063,64.063,0,0,0-9.942,9.056,67.505,67.505,0,0,0-8.046,11.189A71.463,71.463,0,0,0,6.094,47.477a75.042,75.042,0,0,0-3.256,13.9,77.689,77.689,0,0,0-.6,14.6A79.334,79.334,0,0,0,7.8,104.634a77.989,77.989,0,0,0,6.557,12.928,75.052,75.052,0,0,0,8.819,11.4,71.334,71.334,0,0,0,10.639,9.266,67.059,67.059,0,0,0,11.864,6.727A63.217,63.217,0,0,0,58.358,149,60.379,60.379,0,0,0,71.459,150.23Z" transform="translate(21.572 16.039)" fill="#ffbd00"/>
  <path id="Path_1599" data-name="Path 1599" d="M15.263,110.222q-1.768-1.363-3.428-2.879t-3.2-3.173q-1.544-1.658-2.962-3.448t-2.7-3.7L94.637,2.613l7.644,8.521,4.183,12.778,7.129,23.35-4.767,34.014L98.574,100.852,81.4,116.71a36.661,36.661,0,0,1-5.984,4.3,35.021,35.021,0,0,1-6.613,2.938,33.894,33.894,0,0,1-7.057,1.488,33.544,33.544,0,0,1-7.31-.06,58.843,58.843,0,0,1-10.381-1.089,60.7,60.7,0,0,1-10.134-2.917,63.022,63.022,0,0,1-9.671-4.7A66.015,66.015,0,0,1,15.263,110.222Z" transform="translate(36.013 41.008)" fill="#fe9c17"/>
  <path id="Path_1600" data-name="Path 1600" d="M3.038.127a62.581,62.581,0,0,1,12.77,2.279,65.547,65.547,0,0,1,12.04,4.8A69,69,0,0,1,38.86,14.332a72.521,72.521,0,0,1,9.7,9.247,75.872,75.872,0,0,1,7.953,10.978,78.328,78.328,0,0,1,5.9,12.182,79.388,79.388,0,0,1,3.742,13.055,79,79,0,0,1,1.461,13.612,78.079,78.079,0,0,1-.323,13.645,75.892,75.892,0,0,1-2.662,13.159,72.69,72.69,0,0,1-4.923,12.341,69.023,69.023,0,0,1-7.118,11.176,65.412,65.412,0,0,1-9.054,9.452,62.327,62.327,0,0,1-10.586,7.293,60.187,60.187,0,0,1-11.835,4.907,59.361,59.361,0,0,1-12.787,2.28l-.771.032-.768.032-.767.032-.767.032a61.415,61.415,0,0,0,12.348-2.9,61.954,61.954,0,0,0,11.361-5.292,63.592,63.592,0,0,0,10.111-7.474,66.215,66.215,0,0,0,8.609-9.461,69.942,69.942,0,0,0,6.755-11.032A73.186,73.186,0,0,0,59.1,99.537,76.089,76.089,0,0,0,61.619,86.7a78.294,78.294,0,0,0,.3-13.292,79.319,79.319,0,0,0-1.4-13.262,79.568,79.568,0,0,0-3.559-12.739,78.622,78.622,0,0,0-5.609-11.933,76.6,76.6,0,0,0-7.567-10.835,73.333,73.333,0,0,0-9.256-9.264A70.022,70.022,0,0,0,23.975,8.079a66.885,66.885,0,0,0-11.6-5.152A64.187,64.187,0,0,0,0,.108c.253.01.505.014.757.015s.5,0,.757-.005.505-.006.758,0S2.783.117,3.038.127Z" transform="translate(84.703 18.613)" fill="#f68e00"/>
  <path id="Path_1601" data-name="Path 1601" d="M52.6,51.538l-18.054.141L37.47,1.224,2.232,67.968l18.748-.2,7.362,51.4Z" transform="translate(58.188 32.387)" fill="#f68e00"/>
  <path id="Path_1602" data-name="Path 1602" d="M52.351,51.39,34.4,51.531,32.211,1.052,2.261,67.773l18.64-.2,2.16,51.42Z" transform="translate(63.417 32.559)" fill="#ffea94"/>
</svg>
