<svg id="Group_7685" data-name="Group 7685" xmlns="http://www.w3.org/2000/svg" width="193.851" height="267.246" viewBox="0 0 193.851 267.246">
  <path id="Subtraction_18" data-name="Subtraction 18" d="M0,267.246H0V0A138.261,138.261,0,0,1,25.046,4.843a137.171,137.171,0,0,1,23.176,9.124A137.208,137.208,0,0,1,69.076,26.924,136.848,136.848,0,0,1,87.154,43.271,135.369,135.369,0,0,1,102,62.56a133.381,133.381,0,0,1,11.167,21.786,132.076,132.076,0,0,1,7.033,23.837,133.362,133.362,0,0,1,2.445,25.441,133.368,133.368,0,0,1-2.445,25.441,132.057,132.057,0,0,1-7.033,23.836A133.365,133.365,0,0,1,102,204.687a135.41,135.41,0,0,1-14.849,19.289,136.916,136.916,0,0,1-18.078,16.346,137.21,137.21,0,0,1-20.854,12.957A137.233,137.233,0,0,1,25.046,262.4,138.3,138.3,0,0,1,0,267.246Z" transform="translate(122.648 267.246) rotate(180)" fill="#fdb913"/>
  <path id="Subtraction_19" data-name="Subtraction 19" d="M99.628,0H0V108.544A111.177,111.177,0,0,0,70.8,73.4,109.974,109.974,0,0,0,82.858,57.727a108.337,108.337,0,0,0,9.071-17.7A107.081,107.081,0,0,0,99.628,0Z" transform="translate(94.223 37.461)" fill="#e3334a"/>
</svg>
