<svg xmlns="http://www.w3.org/2000/svg" width="193.851" height="267.246" viewBox="0 0 193.851 267.246">
  <g id="Group_7675" data-name="Group 7675" transform="translate(-11)">
    <path id="Subtraction_18" data-name="Subtraction 18" d="M0,0H0V267.246A138.261,138.261,0,0,0,25.046,262.4a137.172,137.172,0,0,0,23.176-9.124,137.208,137.208,0,0,0,20.854-12.958,136.848,136.848,0,0,0,18.078-16.346A135.369,135.369,0,0,0,102,204.686,133.381,133.381,0,0,0,113.171,182.9a132.076,132.076,0,0,0,7.033-23.837,133.362,133.362,0,0,0,2.445-25.441,133.368,133.368,0,0,0-2.445-25.441,132.058,132.058,0,0,0-7.033-23.836A133.365,133.365,0,0,0,102,62.559,135.41,135.41,0,0,0,87.154,43.27,136.916,136.916,0,0,0,69.076,26.924,137.21,137.21,0,0,0,48.223,13.967,137.232,137.232,0,0,0,25.046,4.843,138.294,138.294,0,0,0,0,0Z" transform="translate(82.203)" fill="#fdb913"/>
    <path id="Subtraction_19" data-name="Subtraction 19" d="M99.628,108.544H0V0A111.177,111.177,0,0,1,70.8,35.149,109.974,109.974,0,0,1,82.858,50.818a108.337,108.337,0,0,1,9.071,17.7,107.081,107.081,0,0,1,7.7,40.029Z" transform="translate(110.628 146.006) rotate(180)" fill="#e3334a"/>
  </g>
</svg>
