<svg xmlns="http://www.w3.org/2000/svg" width="569.091" height="774.374" viewBox="0 0 569.091 774.374">
  <g id="Group_1366" data-name="Group 1366" transform="translate(0 -0.001)">
    <path id="Path_322" data-name="Path 322" d="M1467.917,372.739a17.6,17.6,0,1,1-17.6-17.6,17.6,17.6,0,0,1,17.6,17.6" transform="translate(-1053.052 -27.72)" fill="#461f52"/>
    <path id="Path_323" data-name="Path 323" d="M1433.146,372.739a17.6,17.6,0,1,1-17.6-17.6,17.6,17.6,0,0,1,17.6,17.6" transform="translate(-968.463 -27.72)" fill="#e4cae3"/>
    
    <path id="Path_325" data-name="Path 325" d="M1502.688,339.825a17.6,17.6,0,1,1-17.6-17.6,17.6,17.6,0,0,1,17.6,17.6" transform="translate(-1137.64 52.356)" fill="#e4cae3"/>
    <path id="Path_326" data-name="Path 326" d="M1502.688,201.193a17.6,17.6,0,1,1-17.6-17.6,17.6,17.6,0,0,1,17.6,17.6" transform="translate(-1137.64 389.612)" fill="#e4cae3"/>
    <path id="Path_327" data-name="Path 327" d="M1732.907,225.028a17.6,17.6,0,1,1-17.6-17.6,17.6,17.6,0,0,1,17.6,17.6" transform="translate(-1697.703 331.627)" fill="#e4cae3"/>
    <path id="Path_328" data-name="Path 328" d="M1467.917,339.825a17.6,17.6,0,1,1-17.6-17.6,17.6,17.6,0,0,1,17.6,17.6" transform="translate(-1053.052 52.356)" fill="#f6b3a0"/>
    <path id="Path_329" data-name="Path 329" d="M1398.375,339.825a17.6,17.6,0,1,1-17.6-17.6,17.6,17.6,0,0,1,17.6,17.6" transform="translate(-883.875 52.356)" fill="#e5680c"/>
    <path id="Path_330" data-name="Path 330" d="M1502.688,306.908a17.6,17.6,0,1,1-17.6-17.6,17.6,17.6,0,0,1,17.6,17.6" transform="translate(-1137.64 132.433)" fill="#fff"/>
    <path id="Path_331" data-name="Path 331" d="M1467.917,306.908a17.6,17.6,0,1,1-17.6-17.6,17.6,17.6,0,0,1,17.6,17.6" transform="translate(-1053.052 132.433)" fill="#e4cae3"/>
    <path id="Path_332" data-name="Path 332" d="M1379.149,212.74a17.6,17.6,0,1,1-17.6-17.6,17.6,17.6,0,0,1,17.6,17.6" transform="translate(-837.102 361.516)" fill="#e4cae3"/>
    <path id="Path_333" data-name="Path 333" d="M1433.146,306.908a17.6,17.6,0,1,1-17.6-17.6,17.6,17.6,0,0,1,17.6,17.6" transform="translate(-968.463 132.433)" fill="#f6b3a0"/>
    <path id="Path_334" data-name="Path 334" d="M1366.863,286.277a17.6,17.6,0,1,1-17.6-17.6,17.6,17.6,0,0,1,17.6,17.6" transform="translate(-807.214 182.623)" fill="#f6b3a0"/>
    <path id="Path_335" data-name="Path 335" d="M1648.647,222.944a10.706,10.706,0,1,1-10.706-10.705,10.7,10.7,0,0,1,10.706,10.705" transform="translate(-1512.483 333.71)" fill="#f6b3a0"/>
    <path id="Path_336" data-name="Path 336" d="M1398.375,306.908a17.6,17.6,0,1,1-17.6-17.6,17.6,17.6,0,0,1,17.6,17.6" transform="translate(-883.875 132.433)" fill="#fff"/>
    <path id="Path_337" data-name="Path 337" d="M1502.688,273.992a17.6,17.6,0,1,1-17.6-17.6,17.6,17.6,0,0,1,17.6,17.6" transform="translate(-1137.64 212.511)" fill="#461f52"/>
    <path id="Path_338" data-name="Path 338" d="M1433.146,273.992a17.6,17.6,0,1,1-17.6-17.6,17.6,17.6,0,0,1,17.6,17.6" transform="translate(-968.463 212.511)" fill="#461f52"/>
    <path id="Path_339" data-name="Path 339" d="M1433.146,176.621a17.6,17.6,0,1,1-17.6-17.6,17.6,17.6,0,0,1,17.6,17.6" transform="translate(-968.463 449.387)" fill="#461f52"/>
    <path id="Path_340" data-name="Path 340" d="M1360.272,244.606a17.6,17.6,0,1,1-17.6-17.6,17.6,17.6,0,0,1,17.6,17.6" transform="translate(-791.181 283.998)" fill="#461f52"/>
    <path id="Path_341" data-name="Path 341" d="M1398.375,273.992a17.6,17.6,0,1,1-17.6-17.6,17.6,17.6,0,0,1,17.6,17.6" transform="translate(-883.875 212.511)" fill="#f6b3a0"/>
    <path id="Path_342" data-name="Path 342" d="M1502.688,241.075a17.6,17.6,0,1,1-17.6-17.6,17.6,17.6,0,0,1,17.6,17.6" transform="translate(-1137.64 292.588)" fill="#e5680c"/>
    <path id="Path_343" data-name="Path 343" d="M1467.917,241.075a17.6,17.6,0,1,1-17.6-17.6,17.6,17.6,0,0,1,17.6,17.6" transform="translate(-1053.052 292.588)" fill="#e4cae3"/>
    <path id="Path_344" data-name="Path 344" d="M1433.146,241.075a17.6,17.6,0,1,1-17.6-17.6,17.6,17.6,0,0,1,17.6,17.6" transform="translate(-968.463 292.588)" fill="#f6b3a0"/>
    <path id="Path_345" data-name="Path 345" d="M1398.375,241.075a17.6,17.6,0,1,1-17.6-17.6,17.6,17.6,0,0,1,17.6,17.6" transform="translate(-883.875 292.588)" fill="#e5680c"/>
    <path id="Path_346" data-name="Path 346" d="M1467.917,201.193a17.6,17.6,0,1,1-17.6-17.6,17.6,17.6,0,0,1,17.6,17.6" transform="translate(-1053.052 389.612)" fill="#e5680c"/>
    <path id="Path_347" data-name="Path 347" d="M1363.935,327.537a17.6,17.6,0,1,1-17.6-17.6,17.6,17.6,0,0,1,17.6,17.6" transform="translate(-800.091 82.245)" fill="#e5680c"/>
    <path id="Path_348" data-name="Path 348" d="M1646.2,339.682a17.6,17.6,0,1,1-17.6-17.6,17.6,17.6,0,0,1,17.6,17.6" transform="translate(-1486.76 52.703)" fill="#461f52"/>
    <path id="Path_349" data-name="Path 349" d="M1468.208,429.045a17.6,17.6,0,1,1-17.6-17.6,17.6,17.6,0,0,1,17.6,17.6" transform="translate(-1053.761 -164.694)" fill="#f6b3a0"/>
    <path id="Path_350" data-name="Path 350" d="M1586.017,269.176a17.6,17.6,0,1,1-17.6-17.6,17.6,17.6,0,0,1,17.6,17.6" transform="translate(-1340.358 224.222)" fill="#f6b3a0"/>
    <path id="Path_351" data-name="Path 351" d="M1552.839,85.352a17.6,17.6,0,1,1-17.6-17.6,17.6,17.6,0,0,1,17.6,17.6" transform="translate(-1259.644 671.422)" fill="#f6b3a0"/>
    <path id="Path_352" data-name="Path 352" d="M1557.571,306.764a17.6,17.6,0,1,1-17.6-17.6,17.6,17.6,0,0,1,17.6,17.6" transform="translate(-1271.157 132.78)" fill="#fff"/>
    
  </g>
</svg>
