
<svg xmlns="http://www.w3.org/2000/svg" width="593.803" height="807.999" viewBox="0 0 593.803 807.999">
  <g id="Group_222" data-name="Group 222" transform="translate(-1325.068 -67.749)">
    <path id="Path_322" data-name="Path 322" d="M1432.712,373.5a18.367,18.367,0,1,1,18.367,18.365,18.367,18.367,0,0,1-18.367-18.365" transform="translate(53.278 142.243)" fill="#461f52"/>
    <path id="Path_323" data-name="Path 323" d="M1397.941,373.5a18.367,18.367,0,1,1,18.367,18.365,18.367,18.367,0,0,1-18.367-18.365" transform="translate(36.068 142.243)" fill="#e4cae3"/>
  
    <path id="Path_325" data-name="Path 325" d="M1467.483,340.587a18.367,18.367,0,1,1,18.367,18.367,18.367,18.367,0,0,1-18.367-18.367" transform="translate(70.488 125.951)" fill="#e4cae3"/>
    <path id="Path_326" data-name="Path 326" d="M1467.483,201.955a18.367,18.367,0,1,1,18.367,18.367,18.367,18.367,0,0,1-18.367-18.367" transform="translate(70.488 57.335)" fill="#e4cae3"/>
    <path id="Path_327" data-name="Path 327" d="M1697.7,225.79a18.366,18.366,0,1,1,18.365,18.367A18.365,18.365,0,0,1,1697.7,225.79" transform="translate(184.435 69.133)" fill="#e4cae3"/>
    <path id="Path_328" data-name="Path 328" d="M1432.712,340.587a18.367,18.367,0,1,1,18.367,18.367,18.366,18.366,0,0,1-18.367-18.367" transform="translate(53.278 125.951)" fill="#f6b3a0"/>
    <path id="Path_329" data-name="Path 329" d="M1363.171,340.587a18.366,18.366,0,1,1,18.365,18.367,18.365,18.365,0,0,1-18.365-18.367" transform="translate(18.859 125.951)" fill="#e5680c"/>
    <path id="Path_330" data-name="Path 330" d="M1467.483,307.672a18.367,18.367,0,1,1,18.367,18.367,18.368,18.368,0,0,1-18.367-18.367" transform="translate(70.488 109.659)" fill="#fff"/>
    <path id="Path_331" data-name="Path 331" d="M1432.712,307.672a18.367,18.367,0,1,1,18.367,18.367,18.368,18.368,0,0,1-18.367-18.367" transform="translate(53.278 109.659)" fill="#e4cae3"/>
    <path id="Path_332" data-name="Path 332" d="M1343.944,213.506a18.367,18.367,0,1,1,18.367,18.365,18.367,18.367,0,0,1-18.367-18.365" transform="translate(9.343 63.052)" fill="#e4cae3"/>
    <path id="Path_333" data-name="Path 333" d="M1397.941,307.672a18.367,18.367,0,1,1,18.367,18.367,18.368,18.368,0,0,1-18.367-18.367" transform="translate(36.068 109.659)" fill="#f6b3a0"/>
    <path id="Path_334" data-name="Path 334" d="M1331.658,287.041a18.367,18.367,0,1,1,18.367,18.367,18.368,18.368,0,0,1-18.367-18.367" transform="translate(3.262 99.448)" fill="#f6b3a0"/>
    <path id="Path_335" data-name="Path 335" d="M1627.236,223.408a11.17,11.17,0,1,1,11.17,11.17,11.169,11.169,0,0,1-11.17-11.17" transform="translate(149.558 71.515)" fill="#f6b3a0"/>
    <path id="Path_336" data-name="Path 336" d="M1363.171,307.672a18.366,18.366,0,1,1,18.365,18.367,18.366,18.366,0,0,1-18.365-18.367" transform="translate(18.859 109.659)" fill="#fff"/>
    <path id="Path_337" data-name="Path 337" d="M1467.483,274.754a18.367,18.367,0,1,1,18.367,18.367,18.367,18.367,0,0,1-18.367-18.367" transform="translate(70.488 93.367)" fill="#461f52"/>
    <path id="Path_338" data-name="Path 338" d="M1397.941,274.754a18.367,18.367,0,1,1,18.367,18.367,18.366,18.366,0,0,1-18.367-18.367" transform="translate(36.068 93.367)" fill="#461f52"/>
    <path id="Path_339" data-name="Path 339" d="M1397.941,177.385a18.367,18.367,0,1,1,18.367,18.367,18.368,18.368,0,0,1-18.367-18.367" transform="translate(36.068 45.174)" fill="#461f52"/>
    <path id="Path_340" data-name="Path 340" d="M1325.068,245.37a18.366,18.366,0,1,1,18.365,18.367,18.366,18.366,0,0,1-18.365-18.367" transform="translate(0 78.823)" fill="#461f52"/>
    <path id="Path_341" data-name="Path 341" d="M1363.171,274.754a18.366,18.366,0,1,1,18.365,18.367,18.365,18.365,0,0,1-18.365-18.367" transform="translate(18.859 93.367)" fill="#f6b3a0"/>
    <path id="Path_342" data-name="Path 342" d="M1467.483,241.839a18.367,18.367,0,1,1,18.367,18.367,18.368,18.368,0,0,1-18.367-18.367" transform="translate(70.488 77.075)" fill="#e5680c"/>
    <path id="Path_343" data-name="Path 343" d="M1432.712,241.839a18.367,18.367,0,1,1,18.367,18.367,18.368,18.368,0,0,1-18.367-18.367" transform="translate(53.278 77.075)" fill="#e4cae3"/>
    <path id="Path_344" data-name="Path 344" d="M1397.941,241.839a18.367,18.367,0,1,1,18.367,18.367,18.368,18.368,0,0,1-18.367-18.367" transform="translate(36.068 77.075)" fill="#f6b3a0"/>
    <path id="Path_345" data-name="Path 345" d="M1363.171,241.839a18.366,18.366,0,1,1,18.365,18.367,18.366,18.366,0,0,1-18.365-18.367" transform="translate(18.859 77.075)" fill="#e5680c"/>
    <path id="Path_346" data-name="Path 346" d="M1432.712,201.955a18.367,18.367,0,1,1,18.367,18.367,18.366,18.366,0,0,1-18.367-18.367" transform="translate(53.278 57.335)" fill="#e5680c"/>
    <path id="Path_347" data-name="Path 347" d="M1328.73,328.3a18.367,18.367,0,1,1,18.367,18.365A18.367,18.367,0,0,1,1328.73,328.3" transform="translate(1.812 119.87)" fill="#e5680c"/>
    <path id="Path_348" data-name="Path 348" d="M1610.992,340.446a18.367,18.367,0,1,1,18.367,18.367,18.368,18.368,0,0,1-18.367-18.367" transform="translate(141.518 125.88)" fill="#461f52"/>
    <path id="Path_349" data-name="Path 349" d="M1433,429.809a18.366,18.366,0,1,1,18.367,18.367A18.368,18.368,0,0,1,1433,429.809" transform="translate(53.423 170.111)" fill="#f6b3a0"/>
    <path id="Path_350" data-name="Path 350" d="M1550.812,269.942a18.367,18.367,0,1,1,18.367,18.365,18.367,18.367,0,0,1-18.367-18.365" transform="translate(111.732 90.985)" fill="#f6b3a0"/>
    <path id="Path_351" data-name="Path 351" d="M1517.634,86.114A18.367,18.367,0,1,1,1536,104.481a18.366,18.366,0,0,1-18.367-18.367" transform="translate(95.31 0)" fill="#f6b3a0"/>
    <path id="Path_352" data-name="Path 352" d="M1522.367,307.53a18.366,18.366,0,1,1,18.365,18.365,18.365,18.365,0,0,1-18.365-18.365" transform="translate(97.653 109.589)" fill="#fff"/>
  </g>
</svg>
