<svg xmlns="http://www.w3.org/2000/svg" width="1364" height="1422.85" viewBox="0 0 1364 1422.85">
  <g id="Group_7307" data-name="Group 7307" transform="translate(-278 -12410.15)">
    <path id="Path_6788" data-name="Path 6788" d="M184-88.69v11.76q0,35.28-23.275,57.7T99.96,3.185q-39.69,0-65.538-25.725T8.575-85.75q0-37.24,25.848-63.088T98.49-174.685a88.772,88.772,0,0,1,43.855,11.025,80.479,80.479,0,0,1,30.87,29.645L148.96-120.05a50.912,50.912,0,0,0-20.335-19.723,61.079,61.079,0,0,0-30.135-7.472q-26.95,0-44.345,17.64t-17.4,44.1q0,26.46,17.518,43.855t45.938,17.4q22.785,0,37.118-10.658a46.893,46.893,0,0,0,18.253-28.542H98.245V-88.69ZM233.118-145.9a16.244,16.244,0,0,1-11.882,5.022,16.244,16.244,0,0,1-11.883-5.022,16.244,16.244,0,0,1-5.023-11.883,16.446,16.446,0,0,1,4.9-11.882,16.124,16.124,0,0,1,12.005-5.023,16.124,16.124,0,0,1,12,5.023,16.446,16.446,0,0,1,4.9,11.882A16.244,16.244,0,0,1,233.118-145.9ZM208.005,0V-122.5h26.46V0ZM265.09,0V-178.85h26.46V0Zm83.545-101.92q10.045-22.785,37.73-22.785V-96.04q-15.19-.98-26.46,7.228T348.635-61.74V0h-26.46V-122.5h26.46ZM458.15,3.185q-26.95,0-45.815-18.62T393.47-61.25q0-27.2,18.865-45.815t45.815-18.62q27.2,0,45.938,18.62T522.83-61.25q0,27.2-18.742,45.815T458.15,3.185Zm-27.2-36.75Q441.98-22.54,458.15-22.54t27.2-11.025Q496.37-44.59,496.37-61.25T485.345-88.935Q474.32-99.96,458.15-99.96t-27.2,11.025Q419.93-77.91,419.93-61.25T430.955-33.565ZM624.505-122.5H652.68L605.64,3.92Q588,51.45,545.86,49V24.255q12.5.735,20.09-5.268T578.445.245l1.225-2.45L527.73-122.5h28.91l36.528,88.924Z" transform="translate(278 12589)" fill="#fff"/>
    <path id="Path_6781" data-name="Path 6781" d="M3.92-1.4h9.8V0H2.436V-19.6H13.58v1.4H3.92v7.616h8.96v1.4H3.92ZM28.448,0H26.74L22.008-6.114,17.276,0H15.568l5.593-7.208L15.9-14h1.708l4.4,5.691L26.432-14h1.68l-5.25,6.783Zm10-12.628H34.272v9.1a2.689,2.689,0,0,0,.448,1.736,1.892,1.892,0,0,0,1.372.6,14.061,14.061,0,0,0,2.352-.07V0A6.6,6.6,0,0,1,34.23-.392Q32.844-1.2,32.844-3.528v-9.1h-3.08V-14h3.08v-3.5l1.428-.42V-14h4.172Zm4.76,1.372A4.647,4.647,0,0,1,47.88-14.2v1.344a4.657,4.657,0,0,0-3.332,1.274A4.988,4.988,0,0,0,43.2-7.784V0H41.8V-14h1.4ZM62.188-14h1.428V0H62.188V-3.164A6.6,6.6,0,0,1,59.724-.616a6.871,6.871,0,0,1-3.556.924,7.008,7.008,0,0,1-5.124-2.114A7.037,7.037,0,0,1,48.916-7a7.037,7.037,0,0,1,2.128-5.194,7.008,7.008,0,0,1,5.124-2.114,6.871,6.871,0,0,1,3.556.924,6.6,6.6,0,0,1,2.464,2.548ZM52.066-2.772A5.708,5.708,0,0,0,56.28-1.036a5.662,5.662,0,0,0,4.2-1.736A5.8,5.8,0,0,0,62.188-7a5.8,5.8,0,0,0-1.708-4.228,5.662,5.662,0,0,0-4.2-1.736,5.708,5.708,0,0,0-4.214,1.736A5.778,5.778,0,0,0,50.344-7,5.778,5.778,0,0,0,52.066-2.772Zm26.586-7.392a5.289,5.289,0,0,1,2.436,1.876,4.917,4.917,0,0,1,.924,2.94,5.152,5.152,0,0,1-1.568,3.78A5.152,5.152,0,0,1,76.664,0H68.208V-19.6H76.02a4.962,4.962,0,0,1,3.64,1.512,4.962,4.962,0,0,1,1.512,3.64,4.8,4.8,0,0,1-.686,2.534A4.718,4.718,0,0,1,78.652-10.164ZM76.02-18.2H69.692v7.5H76.02A3.488,3.488,0,0,0,78.61-11.8a3.658,3.658,0,0,0,1.078-2.646,3.658,3.658,0,0,0-1.078-2.646A3.488,3.488,0,0,0,76.02-18.2Zm.644,16.8a3.677,3.677,0,0,0,2.73-1.162,3.848,3.848,0,0,0,1.134-2.786,3.848,3.848,0,0,0-1.134-2.786A3.677,3.677,0,0,0,76.664-9.3H69.692v7.9ZM91.784.308a7.154,7.154,0,0,1-5.222-2.114A7.014,7.014,0,0,1,84.42-7a7.014,7.014,0,0,1,2.142-5.194,7.154,7.154,0,0,1,5.222-2.114,7.121,7.121,0,0,1,5.194,2.114A7.014,7.014,0,0,1,99.12-7a7.014,7.014,0,0,1-2.142,5.194A7.121,7.121,0,0,1,91.784.308ZM87.57-2.772a5.708,5.708,0,0,0,4.214,1.736,5.662,5.662,0,0,0,4.2-1.736A5.8,5.8,0,0,0,97.692-7a5.8,5.8,0,0,0-1.708-4.228,5.662,5.662,0,0,0-4.2-1.736,5.708,5.708,0,0,0-4.214,1.736A5.778,5.778,0,0,0,85.848-7,5.778,5.778,0,0,0,87.57-2.772ZM102.48,0V-20.44h1.4V0Zm18.06-19.6h1.4V0h-1.4V-3.248a6.519,6.519,0,0,1-2.45,2.6,6.788,6.788,0,0,1-3.57.952,6.994,6.994,0,0,1-5.138-2.114A7.061,7.061,0,0,1,107.268-7a7.061,7.061,0,0,1,2.114-5.194,6.994,6.994,0,0,1,5.138-2.114,6.788,6.788,0,0,1,3.57.952,6.519,6.519,0,0,1,2.45,2.6ZM110.39-2.772A5.708,5.708,0,0,0,114.6-1.036a5.708,5.708,0,0,0,4.214-1.736A5.778,5.778,0,0,0,120.54-7a5.778,5.778,0,0,0-1.722-4.228,5.708,5.708,0,0,0-4.214-1.736,5.708,5.708,0,0,0-4.214,1.736A5.778,5.778,0,0,0,108.668-7,5.778,5.778,0,0,0,110.39-2.772Z" transform="translate(296 12707)" fill="#fff"/>
    <path id="Path_6785" data-name="Path 6785" d="M.756,0V-2.884L7.448-9.772q2.24-2.352,2.24-3.92a2.471,2.471,0,0,0-.714-1.848,2.51,2.51,0,0,0-1.834-.7,3.463,3.463,0,0,0-3.276,2.3l-3.248-1.9a6.847,6.847,0,0,1,2.66-3.08,7.148,7.148,0,0,1,3.808-1.064,6.7,6.7,0,0,1,4.564,1.666,5.668,5.668,0,0,1,1.9,4.494q0,3.047-3.216,6.261L6.491-3.724H13.86V0Zm29.6-6.916v3.584h-2.1V0H24.36V-3.332H15.092V-6.916L21.616-19.6H25.76L19.268-6.916H24.36v-4.648h3.892v4.648Zm10.192-7.476a6.374,6.374,0,0,1,4.83,2.142,7.4,7.4,0,0,1,2,5.25,7.4,7.4,0,0,1-2,5.25A6.374,6.374,0,0,1,40.544.392a5.419,5.419,0,0,1-4.536-2.044V5.6H32.4V-14h3.612v1.652A5.419,5.419,0,0,1,40.544-14.392ZM37.1-4.158a3.731,3.731,0,0,0,2.772,1.106,3.777,3.777,0,0,0,2.786-1.106A3.847,3.847,0,0,0,43.764-7a3.847,3.847,0,0,0-1.106-2.842,3.777,3.777,0,0,0-2.786-1.106A3.731,3.731,0,0,0,37.1-9.842,3.874,3.874,0,0,0,36.008-7,3.874,3.874,0,0,0,37.1-4.158ZM61.852,0H57.68L54.642-4.243,51.6,0H47.432l5.131-7.147L47.656-14h4.172l2.824,3.944L57.484-14h4.144l-4.9,6.844Z" transform="translate(670 12785)" fill="#fff"/>
    <path id="Path_6784" data-name="Path 6784" d="M5.46-19.6H8.82V0H4.956V-15.512l-3.7,1.036-.952-3.3ZM23.1-10.192A5.2,5.2,0,0,1,25.816-5.46a5.27,5.27,0,0,1-1.89,4.284A7.8,7.8,0,0,1,18.788.392a7.792,7.792,0,0,1-5.152-1.568A5.287,5.287,0,0,1,11.76-5.46a5.207,5.207,0,0,1,2.688-4.732,4.749,4.749,0,0,1-2.044-4.06,5.176,5.176,0,0,1,1.834-4.228,6.915,6.915,0,0,1,4.55-1.512,6.86,6.86,0,0,1,4.536,1.512,5.193,5.193,0,0,1,1.82,4.228A4.7,4.7,0,0,1,23.1-10.192Zm-2.492-5.544a2.654,2.654,0,0,0-1.82-.616,2.654,2.654,0,0,0-1.82.616,2.123,2.123,0,0,0-.7,1.68,2.166,2.166,0,0,0,.7,1.694,2.617,2.617,0,0,0,1.82.63,2.617,2.617,0,0,0,1.82-.63,2.166,2.166,0,0,0,.7-1.694A2.123,2.123,0,0,0,20.608-15.736ZM16.478-3.962a3.558,3.558,0,0,0,2.31.714,3.558,3.558,0,0,0,2.31-.714,2.431,2.431,0,0,0,.882-2A2.4,2.4,0,0,0,21.1-7.938a3.558,3.558,0,0,0-2.31-.714,3.558,3.558,0,0,0-2.31.714A2.4,2.4,0,0,0,15.6-5.964,2.431,2.431,0,0,0,16.478-3.962ZM36.54-14.392a6.374,6.374,0,0,1,4.83,2.142,7.4,7.4,0,0,1,2,5.25,7.4,7.4,0,0,1-2,5.25A6.374,6.374,0,0,1,36.54.392,5.419,5.419,0,0,1,32-1.652V5.6H28.392V-14H32v1.652A5.419,5.419,0,0,1,36.54-14.392ZM33.1-4.158a3.731,3.731,0,0,0,2.772,1.106,3.777,3.777,0,0,0,2.786-1.106A3.847,3.847,0,0,0,39.76-7a3.847,3.847,0,0,0-1.106-2.842,3.777,3.777,0,0,0-2.786-1.106A3.731,3.731,0,0,0,33.1-9.842,3.874,3.874,0,0,0,32-7,3.874,3.874,0,0,0,33.1-4.158ZM57.848,0H53.676L50.638-4.243,47.6,0H43.428l5.131-7.147L43.652-14h4.172l2.824,3.944L53.48-14h4.144l-4.9,6.844Z" transform="translate(462 12785)" fill="#fff"/>
    <path id="Path_6786" data-name="Path 6786" d="M15.848-6.916v3.584h-2.1V0H9.856V-3.332H.588V-6.916L7.112-19.6h4.144L4.764-6.916H9.856v-4.648h3.892v4.648Zm12.88-3.276A5.2,5.2,0,0,1,31.444-5.46a5.27,5.27,0,0,1-1.89,4.284A7.8,7.8,0,0,1,24.416.392a7.792,7.792,0,0,1-5.152-1.568A5.287,5.287,0,0,1,17.388-5.46a5.207,5.207,0,0,1,2.688-4.732,4.749,4.749,0,0,1-2.044-4.06,5.176,5.176,0,0,1,1.834-4.228,6.915,6.915,0,0,1,4.55-1.512,6.86,6.86,0,0,1,4.536,1.512,5.193,5.193,0,0,1,1.82,4.228A4.7,4.7,0,0,1,28.728-10.192Zm-2.492-5.544a2.654,2.654,0,0,0-1.82-.616,2.654,2.654,0,0,0-1.82.616,2.123,2.123,0,0,0-.7,1.68,2.166,2.166,0,0,0,.7,1.694,2.617,2.617,0,0,0,1.82.63,2.617,2.617,0,0,0,1.82-.63,2.166,2.166,0,0,0,.7-1.694A2.123,2.123,0,0,0,26.236-15.736ZM22.106-3.962a3.558,3.558,0,0,0,2.31.714,3.558,3.558,0,0,0,2.31-.714,2.431,2.431,0,0,0,.882-2,2.4,2.4,0,0,0-.882-1.974,3.558,3.558,0,0,0-2.31-.714,3.558,3.558,0,0,0-2.31.714,2.4,2.4,0,0,0-.882,1.974A2.431,2.431,0,0,0,22.106-3.962Zm20.062-10.43A6.374,6.374,0,0,1,47-12.25,7.4,7.4,0,0,1,49-7a7.4,7.4,0,0,1-2,5.25A6.374,6.374,0,0,1,42.168.392a5.419,5.419,0,0,1-4.536-2.044V5.6H34.02V-14h3.612v1.652A5.419,5.419,0,0,1,42.168-14.392ZM38.724-4.158A3.731,3.731,0,0,0,41.5-3.052a3.777,3.777,0,0,0,2.786-1.106A3.847,3.847,0,0,0,45.388-7a3.847,3.847,0,0,0-1.106-2.842A3.777,3.777,0,0,0,41.5-10.948a3.731,3.731,0,0,0-2.772,1.106A3.874,3.874,0,0,0,37.632-7,3.874,3.874,0,0,0,38.724-4.158ZM63.476,0H59.3L56.266-4.243,53.228,0H49.056l5.131-7.147L49.28-14h4.172l2.824,3.944L59.108-14h4.144l-4.9,6.844Z" transform="translate(879 12785)" fill="#fff"/>
    <path id="Path_6787" data-name="Path 6787" d="M7.974-13.244a7.031,7.031,0,0,1,4.96,1.974A6.512,6.512,0,0,1,14.84-6.44a6.53,6.53,0,0,1-1.988,4.914A7.073,7.073,0,0,1,7.728.392a7.054,7.054,0,0,1-5.11-1.9A6.542,6.542,0,0,1,.644-6.44a6.91,6.91,0,0,1,1.148-3.948L7.9-19.6H12.32ZM5.4-4.116a3.261,3.261,0,0,0,2.324.868,3.311,3.311,0,0,0,2.338-.868A3.014,3.014,0,0,0,11-6.44a2.98,2.98,0,0,0-.938-2.3A3.311,3.311,0,0,0,7.728-9.6,3.292,3.292,0,0,0,5.4-8.75,2.992,2.992,0,0,0,4.48-6.44,3.037,3.037,0,0,0,5.4-4.116Zm22.344-6.076A5.2,5.2,0,0,1,30.464-5.46a5.27,5.27,0,0,1-1.89,4.284A7.8,7.8,0,0,1,23.436.392a7.792,7.792,0,0,1-5.152-1.568A5.287,5.287,0,0,1,16.408-5.46,5.207,5.207,0,0,1,19.1-10.192a4.749,4.749,0,0,1-2.044-4.06,5.176,5.176,0,0,1,1.834-4.228,6.915,6.915,0,0,1,4.55-1.512,6.86,6.86,0,0,1,4.536,1.512,5.193,5.193,0,0,1,1.82,4.228A4.7,4.7,0,0,1,27.748-10.192Zm-2.492-5.544a2.654,2.654,0,0,0-1.82-.616,2.654,2.654,0,0,0-1.82.616,2.123,2.123,0,0,0-.7,1.68,2.166,2.166,0,0,0,.7,1.694,2.617,2.617,0,0,0,1.82.63,2.617,2.617,0,0,0,1.82-.63,2.166,2.166,0,0,0,.7-1.694A2.123,2.123,0,0,0,25.256-15.736ZM21.126-3.962a3.558,3.558,0,0,0,2.31.714,3.558,3.558,0,0,0,2.31-.714,2.431,2.431,0,0,0,.882-2,2.4,2.4,0,0,0-.882-1.974,3.558,3.558,0,0,0-2.31-.714,3.558,3.558,0,0,0-2.31.714,2.4,2.4,0,0,0-.882,1.974A2.431,2.431,0,0,0,21.126-3.962Zm20.062-10.43a6.374,6.374,0,0,1,4.83,2.142,7.4,7.4,0,0,1,2,5.25,7.4,7.4,0,0,1-2,5.25A6.374,6.374,0,0,1,41.188.392a5.419,5.419,0,0,1-4.536-2.044V5.6H33.04V-14h3.612v1.652A5.419,5.419,0,0,1,41.188-14.392ZM37.744-4.158a3.731,3.731,0,0,0,2.772,1.106A3.777,3.777,0,0,0,43.3-4.158,3.847,3.847,0,0,0,44.408-7,3.847,3.847,0,0,0,43.3-9.842a3.777,3.777,0,0,0-2.786-1.106,3.731,3.731,0,0,0-2.772,1.106A3.874,3.874,0,0,0,36.652-7,3.874,3.874,0,0,0,37.744-4.158ZM62.5,0H58.324L55.286-4.243,52.248,0H48.076l5.131-7.147L48.3-14h4.172L55.3-10.056,58.128-14h4.144l-4.9,6.844Z" transform="translate(1088 12785)" fill="#fff"/>
    <path id="Path_6782" data-name="Path 6782" d="M12.88-10.164a5.289,5.289,0,0,1,2.436,1.876,4.917,4.917,0,0,1,.924,2.94,5.152,5.152,0,0,1-1.568,3.78A5.152,5.152,0,0,1,10.892,0H2.436V-19.6h7.812a4.962,4.962,0,0,1,3.64,1.512,4.962,4.962,0,0,1,1.512,3.64,4.8,4.8,0,0,1-.686,2.534A4.718,4.718,0,0,1,12.88-10.164ZM10.248-18.2H3.92v7.5h6.328a3.488,3.488,0,0,0,2.59-1.106,3.658,3.658,0,0,0,1.078-2.646,3.658,3.658,0,0,0-1.078-2.646A3.488,3.488,0,0,0,10.248-18.2Zm.644,16.8a3.677,3.677,0,0,0,2.73-1.162,3.848,3.848,0,0,0,1.134-2.786,3.848,3.848,0,0,0-1.134-2.786A3.677,3.677,0,0,0,10.892-9.3H3.92v7.9ZM26.012.308A7.154,7.154,0,0,1,20.79-1.806,7.014,7.014,0,0,1,18.648-7a7.014,7.014,0,0,1,2.142-5.194,7.154,7.154,0,0,1,5.222-2.114,7.121,7.121,0,0,1,5.194,2.114A7.014,7.014,0,0,1,33.348-7a7.014,7.014,0,0,1-2.142,5.194A7.121,7.121,0,0,1,26.012.308ZM21.8-2.772a5.708,5.708,0,0,0,4.214,1.736,5.662,5.662,0,0,0,4.2-1.736A5.8,5.8,0,0,0,31.92-7a5.8,5.8,0,0,0-1.708-4.228,5.662,5.662,0,0,0-4.2-1.736A5.708,5.708,0,0,0,21.8-11.228,5.778,5.778,0,0,0,20.076-7,5.778,5.778,0,0,0,21.8-2.772ZM36.708,0V-20.44h1.4V0Zm18.06-19.6h1.4V0h-1.4V-3.248a6.519,6.519,0,0,1-2.45,2.6,6.788,6.788,0,0,1-3.57.952A6.994,6.994,0,0,1,43.61-1.806,7.061,7.061,0,0,1,41.5-7a7.061,7.061,0,0,1,2.114-5.194,6.994,6.994,0,0,1,5.138-2.114,6.788,6.788,0,0,1,3.57.952,6.519,6.519,0,0,1,2.45,2.6ZM44.618-2.772a5.708,5.708,0,0,0,4.214,1.736,5.708,5.708,0,0,0,4.214-1.736A5.778,5.778,0,0,0,54.768-7a5.778,5.778,0,0,0-1.722-4.228,5.708,5.708,0,0,0-4.214-1.736,5.708,5.708,0,0,0-4.214,1.736A5.778,5.778,0,0,0,42.9-7,5.778,5.778,0,0,0,44.618-2.772Z" transform="translate(556 12707)" fill="#fff"/>
    <path id="Path_6783" data-name="Path 6783" d="M14.812,0,10.088-8.036H3.92V0H2.436V-19.6h7.728a5.578,5.578,0,0,1,4.088,1.708A5.578,5.578,0,0,1,15.96-13.8a5.53,5.53,0,0,1-1.218,3.528,5.756,5.756,0,0,1-3.094,2.044L16.52,0ZM3.92-18.2v8.764h6.244a4.134,4.134,0,0,0,3.052-1.274,4.236,4.236,0,0,0,1.26-3.094,4.283,4.283,0,0,0-1.26-3.108A4.112,4.112,0,0,0,10.164-18.2Zm21,3.892a6.337,6.337,0,0,1,5,2.184,7.592,7.592,0,0,1,1.918,5.18q0,.112-.014.336t-.014.336H19.124a5.66,5.66,0,0,0,1.89,3.794A5.9,5.9,0,0,0,25.06-1.036a5.956,5.956,0,0,0,2.94-.7,4.781,4.781,0,0,0,1.9-1.848l1.232.728a6.2,6.2,0,0,1-2.464,2.31,7.6,7.6,0,0,1-3.64.854A7.193,7.193,0,0,1,19.74-1.75,7.085,7.085,0,0,1,17.668-7a7.188,7.188,0,0,1,2.03-5.222A6.968,6.968,0,0,1,24.92-14.308Zm0,1.344a5.615,5.615,0,0,0-3.976,1.484,5.792,5.792,0,0,0-1.82,3.836H30.38A5.752,5.752,0,0,0,28.6-11.55,5.289,5.289,0,0,0,24.92-12.964ZM47.544-14h1.4V-.672a6.11,6.11,0,0,1-1.988,4.816,7.233,7.233,0,0,1-4.984,1.764,8.76,8.76,0,0,1-4.116-.9,5.584,5.584,0,0,1-2.492-2.464l1.232-.7q1.344,2.716,5.376,2.716A5.684,5.684,0,0,0,46.06,3.15,5.03,5.03,0,0,0,47.544-.672V-3.248a6.519,6.519,0,0,1-2.45,2.6,6.788,6.788,0,0,1-3.57.952,6.994,6.994,0,0,1-5.138-2.114A7.061,7.061,0,0,1,34.272-7a7.061,7.061,0,0,1,2.114-5.194,6.994,6.994,0,0,1,5.138-2.114,6.788,6.788,0,0,1,3.57.952,6.519,6.519,0,0,1,2.45,2.6ZM37.394-2.772a5.708,5.708,0,0,0,4.214,1.736,5.708,5.708,0,0,0,4.214-1.736A5.778,5.778,0,0,0,47.544-7a5.778,5.778,0,0,0-1.722-4.228,5.708,5.708,0,0,0-4.214-1.736,5.708,5.708,0,0,0-4.214,1.736A5.778,5.778,0,0,0,35.672-7,5.778,5.778,0,0,0,37.394-2.772ZM63.336-14h1.4V0h-1.4V-2.66A5.2,5.2,0,0,1,58.324.308a5.245,5.245,0,0,1-3.962-1.526,5.625,5.625,0,0,1-1.47-4.074V-14H54.32v8.708A4.357,4.357,0,0,0,55.4-2.184a3.965,3.965,0,0,0,3.038,1.148,4.677,4.677,0,0,0,3.528-1.428,5.751,5.751,0,0,0,1.372-4.144ZM69.048,0V-20.44h1.4V0ZM87.08-14h1.428V0H87.08V-3.164A6.6,6.6,0,0,1,84.616-.616,6.871,6.871,0,0,1,81.06.308a7.008,7.008,0,0,1-5.124-2.114A7.037,7.037,0,0,1,73.808-7a7.037,7.037,0,0,1,2.128-5.194,7.008,7.008,0,0,1,5.124-2.114,6.871,6.871,0,0,1,3.556.924,6.6,6.6,0,0,1,2.464,2.548ZM76.958-2.772a5.708,5.708,0,0,0,4.214,1.736,5.662,5.662,0,0,0,4.2-1.736A5.8,5.8,0,0,0,87.08-7a5.8,5.8,0,0,0-1.708-4.228,5.662,5.662,0,0,0-4.2-1.736,5.708,5.708,0,0,0-4.214,1.736A5.778,5.778,0,0,0,75.236-7,5.778,5.778,0,0,0,76.958-2.772ZM94.22-11.256A4.647,4.647,0,0,1,98.9-14.2v1.344a4.657,4.657,0,0,0-3.332,1.274A4.988,4.988,0,0,0,94.22-7.784V0h-1.4V-14h1.4Z" transform="translate(749 12707)" fill="#fff"/>
    <rect id="Rectangle_1655" data-name="Rectangle 1655" width="1364" height="906" rx="30" transform="translate(278 12927)" fill="#241a1b"/>
    <path id="Path_6611" data-name="Path 6611" d="M990.26,769.114a14.489,14.489,0,0,1-12.1-22.419l117.885-158.354a14.172,14.172,0,0,0-.015-16.959L977.961,413.4a14.523,14.523,0,0,1,12.127-22.51h141.25A16.524,16.524,0,0,1,1145,398.077c17.813,25.853,99.8,142.964,121.624,174.146a12.986,12.986,0,0,1-.111,15.105c-26.627,36.934-102.266,146.373-124,178.247a8.246,8.246,0,0,1-6.819,3.571Z" transform="translate(-309.399 12789.761)" fill="#e3334a" stroke="#fff" stroke-width="2" fill-rule="evenodd"/>
    <path id="Path_7" data-name="Path 7" d="M1275.014,670.062l-107.1-153.792-18.919,27.173L1249.54,687.795a15.519,15.519,0,0,0,25.474-17.733Z" transform="translate(-189.401 12880.581)" fill="#241a1b" stroke="#fff" stroke-width="2" fill-rule="evenodd"/>
    <path id="Path_8" data-name="Path 8" d="M1227.588,649.746l-76.316-109.591-18.927,27.172,69.769,100.152a15.519,15.519,0,0,0,25.474-17.733Z" transform="translate(-203.704 12901.104)" fill="#a4a4a4" stroke="#fff" stroke-width="2" fill-rule="evenodd"/>
    <path id="Path_9" data-name="Path 9" d="M1134.434,563.946l-18.927,27.172,38.86,55.784a15.53,15.53,0,0,0,25.476-17.768Z" transform="translate(-218.172 12921.546)" fill="#fff" stroke="#fff" stroke-width="2" fill-rule="evenodd"/>
    <path id="Path_10" data-name="Path 10" d="M1275.18,415.027,1168.075,568.777l-18.919-27.129L1249.7,397.294a15.522,15.522,0,0,1,25.482,17.733Z" transform="translate(-189.26 12772.286)" fill="#4a8af5" stroke="#fff" stroke-width="2" fill-rule="evenodd"/>
    <path id="Path_11" data-name="Path 11" d="M1227.752,414.913,1151.436,524.5l-18.926-27.165,69.767-100.157a15.52,15.52,0,0,1,25.475,17.733Z" transform="translate(-203.563 12772.189)" fill="#00a651" stroke="#fff" stroke-width="2" fill-rule="evenodd"/>
    <path id="Path_12" data-name="Path 12" d="M1134.591,480.207l-18.92-27.167,38.863-55.785a15.53,15.53,0,0,1,25.474,17.77Z" transform="translate(-218.03 12772.255)" fill="#fdb913" stroke="#fff" stroke-width="2" fill-rule="evenodd"/>
    <path id="Path_6789" data-name="Path 6789" d="M5.958-7.488H8.514L7.686-4.824H5.13Zm4.428,0h2.556V-9.162H10.908l.972-3.168H10.008L9.036-9.162H6.48l.99-3.168H5.6l-.99,3.168H1.638v1.674H4.086L3.258-4.824H.72V-3.15H2.736L1.764,0H3.636l.972-3.15H7.164L6.174,0H8.046l.99-3.15h2.97V-4.824H9.558ZM14.454,0h7.758V-1.746H17.064l3.078-3.636a5.528,5.528,0,0,0,1.692-3.69,3.41,3.41,0,0,0-.468-1.764,3.52,3.52,0,0,0-3.15-1.674,4.958,4.958,0,0,0-3.906,2.16l1.26,1.26a3.537,3.537,0,0,1,2.592-1.6A1.63,1.63,0,0,1,19.872-9,3.905,3.905,0,0,1,18.7-6.5L14.454-1.4Zm14.8-9.378v4.77h-3.4Zm1.872,6.552H32.85V-4.608H31.122V-12.33H29.358L23.58-4.23v1.4h5.67V0h1.872ZM36.2,0h1.89V-12.33H36.162l-2.088,1.476v2L36.2-10.368Zm9.864-9.666L47.988-4.86H44.136ZM49.932,0H52.02l-5-12.33H45.18L40.158,0h2.034L43.4-3.042h5.31ZM54.99,0h1.89V-12.33H54.954l-2.088,1.476v2l2.124-1.512Zm9.18-5.472c1.656,0,2.574.7,2.574,1.854s-.9,1.836-2.574,1.836h-1.8v-3.69Zm-.09-5.076c1.368,0,2.142.648,2.142,1.638,0,1.008-.774,1.656-2.142,1.656H62.37v-3.294ZM64.08,0a6.364,6.364,0,0,0,2.43-.432,3.267,3.267,0,0,0,2.2-3.1,3.208,3.208,0,0,0-2.034-2.934,2.879,2.879,0,0,0,1.512-2.556c0-2.088-1.6-3.312-4.194-3.312H60.426V0Z" transform="translate(1102.54 13686.387)" fill="#fff"/>
    <path id="Path_6790" data-name="Path 6790" d="M5.958-7.488H8.514L7.686-4.824H5.13Zm4.428,0h2.556V-9.162H10.908l.972-3.168H10.008L9.036-9.162H6.48l.99-3.168H5.6l-.99,3.168H1.638v1.674H4.086L3.258-4.824H.72V-3.15H2.736L1.764,0H3.636l.972-3.15H7.164L6.174,0H8.046l.99-3.15h2.97V-4.824H9.558Zm6.984-3.024h5.364V-12.33H15.39V0h1.98V-5.094h4.968V-6.912H17.37Zm9.81,0h5.364V-12.33H25.2V0h1.98V-5.094h4.968V-6.912H27.18Zm9.81,0h5.364V-12.33H35.01V0h1.98V-5.094h4.968V-6.912H36.99Zm9.81,0h5.364V-12.33H44.82V0H46.8V-5.094h4.968V-6.912H46.8Zm9.81,0h5.364V-12.33H54.63V0h1.98V-5.094h4.968V-6.912H56.61Zm9.81,0h5.364V-12.33H64.44V0h1.98V-5.094h4.968V-6.912H66.42Z" transform="translate(879.958 13704.676)" fill="#fff"/>
    <path id="Path_6791" data-name="Path 6791" d="M5.958-7.488H8.514L7.686-4.824H5.13Zm4.428,0h2.556V-9.162H10.908l.972-3.168H10.008L9.036-9.162H6.48l.99-3.168H5.6l-.99,3.168H1.638v1.674H4.086L3.258-4.824H.72V-3.15H2.736L1.764,0H3.636l.972-3.15H7.164L6.174,0H8.046l.99-3.15h2.97V-4.824H9.558Zm9.432-2.178L21.744-4.86H17.892ZM23.688,0h2.088l-5-12.33H18.936L13.914,0h2.034l1.206-3.042h5.31ZM32.2-9.378v4.77H28.8Zm1.872,6.552H35.8V-4.608H34.074V-12.33H32.31l-5.778,8.1v1.4H32.2V0h1.872Zm8.514-6.84L44.514-4.86H40.662ZM46.458,0h2.088l-5-12.33H41.706L36.684,0h2.034l1.206-3.042h5.31Zm8.514-9.378v4.77h-3.4Zm1.872,6.552h1.728V-4.608H56.844V-12.33H55.08L49.3-4.23v1.4h5.67V0h1.872Zm8.514-6.84L67.284-4.86H63.432ZM69.228,0h2.088l-5-12.33H64.476L59.454,0h2.034l1.206-3.042H68Zm8.514-9.378v4.77h-3.4Zm1.872,6.552h1.728V-4.608H79.614V-12.33H77.85l-5.778,8.1v1.4h5.67V0h1.872Z" transform="translate(989.508 13729.728)" fill="#a4a4a4"/>
    <path id="Path_6792" data-name="Path 6792" d="M5.958-7.488H8.514L7.686-4.824H5.13Zm4.428,0h2.556V-9.162H10.908l.972-3.168H10.008L9.036-9.162H6.48l.99-3.168H5.6l-.99,3.168H1.638v1.674H4.086L3.258-4.824H.72V-3.15H2.736L1.764,0H3.636l.972-3.15H7.164L6.174,0H8.046l.99-3.15h2.97V-4.824H9.558ZM15.39,0h7.47V-1.818H17.37V-5.436h5.094V-7.254H17.37v-3.258h5.49V-12.33H15.39Zm13.1.18a4.563,4.563,0,0,0,2.034-.468,3.551,3.551,0,0,0,1.98-3.222,3.211,3.211,0,0,0-2.016-2.97,3.022,3.022,0,0,0,1.494-2.574,3.463,3.463,0,0,0-.468-1.782A3.685,3.685,0,0,0,28.3-12.51a4.872,4.872,0,0,0-3.87,2.16l1.242,1.224a3.482,3.482,0,0,1,2.574-1.566A1.641,1.641,0,0,1,30.024-9a1.708,1.708,0,0,1-1.818,1.728H26.478v1.764h1.746a2.069,2.069,0,0,1,2.322,1.944,1.913,1.913,0,0,1-2.052,1.908,4.341,4.341,0,0,1-3.078-1.566L24.264-1.854A5.436,5.436,0,0,0,28.494.18Zm9.666,0a4.563,4.563,0,0,0,2.034-.468,3.551,3.551,0,0,0,1.98-3.222,3.211,3.211,0,0,0-2.016-2.97,3.022,3.022,0,0,0,1.494-2.574,3.463,3.463,0,0,0-.468-1.782,3.685,3.685,0,0,0-3.222-1.674,4.872,4.872,0,0,0-3.87,2.16l1.242,1.224a3.483,3.483,0,0,1,2.574-1.566A1.641,1.641,0,0,1,39.69-9a1.708,1.708,0,0,1-1.818,1.728H36.144v1.764H37.89a2.069,2.069,0,0,1,2.322,1.944A1.913,1.913,0,0,1,38.16-1.656a4.341,4.341,0,0,1-3.078-1.566L33.93-1.854A5.436,5.436,0,0,0,38.16.18Zm9.666,0A4.563,4.563,0,0,0,49.86-.288,3.551,3.551,0,0,0,51.84-3.51a3.211,3.211,0,0,0-2.016-2.97,3.022,3.022,0,0,0,1.494-2.574,3.463,3.463,0,0,0-.468-1.782,3.685,3.685,0,0,0-3.222-1.674,4.872,4.872,0,0,0-3.87,2.16L45-9.126a3.483,3.483,0,0,1,2.574-1.566A1.641,1.641,0,0,1,49.356-9a1.708,1.708,0,0,1-1.818,1.728H45.81v1.764h1.746a2.069,2.069,0,0,1,2.322,1.944,1.913,1.913,0,0,1-2.052,1.908,4.341,4.341,0,0,1-3.078-1.566L43.6-1.854A5.436,5.436,0,0,0,47.826.18Zm11.2-9.558v4.77h-3.4Zm1.872,6.552h1.728V-4.608H60.894V-12.33H59.13l-5.778,8.1v1.4h5.67V0h1.872Zm8.514-6.84L71.334-4.86H67.482ZM73.278,0h2.088l-5-12.33H68.526L63.5,0h2.034l1.206-3.042h5.31Z" transform="translate(1103.383 13372.914)" fill="#e3334a"/>
    <path id="Path_6793" data-name="Path 6793" d="M5.958-7.488H8.514L7.686-4.824H5.13Zm4.428,0h2.556V-9.162H10.908l.972-3.168H10.008L9.036-9.162H6.48l.99-3.168H5.6l-.99,3.168H1.638v1.674H4.086L3.258-4.824H.72V-3.15H2.736L1.764,0H3.636l.972-3.15H7.164L6.174,0H8.046l.99-3.15h2.97V-4.824H9.558Zm6.984-3.024h5.364V-12.33H15.39V0h1.98V-5.094h4.968V-6.912H17.37Zm11.052.036c2.97,0,4.734,1.6,4.734,4.32,0,2.682-1.782,4.32-4.734,4.32H27.2v-8.64ZM28.332,0a8.334,8.334,0,0,0,3.654-.756,5.639,5.639,0,0,0,3.222-5.4A6.219,6.219,0,0,0,34.38-9.45c-1.134-1.872-3.24-2.88-6.048-2.88H25.2V0ZM41.6-5.472c1.656,0,2.574.7,2.574,1.854s-.9,1.836-2.574,1.836H39.8v-3.69Zm-.09-5.076c1.368,0,2.142.648,2.142,1.638,0,1.008-.774,1.656-2.142,1.656H39.8v-3.294ZM41.508,0a6.364,6.364,0,0,0,2.43-.432,3.267,3.267,0,0,0,2.2-3.1A3.208,3.208,0,0,0,44.1-6.462a2.879,2.879,0,0,0,1.512-2.556c0-2.088-1.6-3.312-4.194-3.312H37.854V0Zm10.71-10.728a2.172,2.172,0,0,1,1.638.684,2.336,2.336,0,0,1,.666,1.692,2.39,2.39,0,0,1-.666,1.728,2.213,2.213,0,0,1-1.638.666,2.092,2.092,0,0,1-1.62-.666,2.458,2.458,0,0,1-.63-1.728,2.336,2.336,0,0,1,.648-1.692A2.15,2.15,0,0,1,52.218-10.728Zm2.358,7.074c1.3-1.89,1.854-3.258,1.854-4.644a4.208,4.208,0,0,0-.54-2.142,4.088,4.088,0,0,0-3.672-2.07,4.438,4.438,0,0,0-2.142.522,4.128,4.128,0,0,0-2.07,3.636,3.989,3.989,0,0,0,.558,2.088,4.085,4.085,0,0,0,3.654,2.016A4.212,4.212,0,0,0,52.9-4.3L49.9,0h2.16ZM60.012,0H61.9V-12.33H59.976l-2.088,1.476v2l2.124-1.512Zm8.352.18A4.563,4.563,0,0,0,70.4-.288a3.551,3.551,0,0,0,1.98-3.222,3.211,3.211,0,0,0-2.016-2.97,3.022,3.022,0,0,0,1.494-2.574,3.463,3.463,0,0,0-.468-1.782,3.685,3.685,0,0,0-3.222-1.674,4.872,4.872,0,0,0-3.87,2.16l1.242,1.224a3.483,3.483,0,0,1,2.574-1.566A1.641,1.641,0,0,1,69.894-9a1.708,1.708,0,0,1-1.818,1.728H66.348v1.764h1.746a2.069,2.069,0,0,1,2.322,1.944,1.913,1.913,0,0,1-2.052,1.908,4.341,4.341,0,0,1-3.078-1.566L64.134-1.854A5.436,5.436,0,0,0,68.364.18Z" transform="translate(876.529 13068.949)" fill="#fdb913"/>
    <path id="Path_6794" data-name="Path 6794" d="M5.958-7.488H8.514L7.686-4.824H5.13Zm4.428,0h2.556V-9.162H10.908l.972-3.168H10.008L9.036-9.162H6.48l.99-3.168H5.6l-.99,3.168H1.638v1.674H4.086L3.258-4.824H.72V-3.15H2.736L1.764,0H3.636l.972-3.15H7.164L6.174,0H8.046l.99-3.15h2.97V-4.824H9.558Zm9.45-1.89v4.77h-3.4Zm1.872,6.552h1.728V-4.608H21.708V-12.33H19.944l-5.778,8.1v1.4h5.67V0h1.872Zm8.514-6.84L32.148-4.86H28.3ZM34.092,0H36.18l-5-12.33H29.34L24.318,0h2.034l1.206-3.042h5.31Zm5.364-3.582A2.108,2.108,0,0,1,41.742-5.6,2.092,2.092,0,0,1,44.01-3.582a1.741,1.741,0,0,1-.648,1.4,2.443,2.443,0,0,1-1.62.576A2.457,2.457,0,0,1,40.1-2.178,1.792,1.792,0,0,1,39.456-3.582ZM39.87-9a1.762,1.762,0,0,1,1.872-1.71A1.762,1.762,0,0,1,43.614-9a1.747,1.747,0,0,1-1.872,1.746A1.747,1.747,0,0,1,39.87-9ZM41.742.18a4.74,4.74,0,0,0,2.142-.486,3.579,3.579,0,0,0,2.106-3.2A3.456,3.456,0,0,0,44.19-6.5a3.079,3.079,0,0,0,1.386-2.556,3.155,3.155,0,0,0-.5-1.764,3.889,3.889,0,0,0-3.33-1.692,4.052,4.052,0,0,0-1.926.45,3.435,3.435,0,0,0-1.908,3.006A3.079,3.079,0,0,0,39.294-6.5a3.413,3.413,0,0,0-1.8,2.988,3.231,3.231,0,0,0,.558,1.89A4.431,4.431,0,0,0,41.742.18ZM53.208-9.666,55.134-4.86H51.282ZM57.078,0h2.088l-5-12.33H52.326L47.3,0h2.034l1.206-3.042h5.31Zm6.048-10.512H68.49V-12.33H61.146V0h1.98V-5.094h4.968V-6.912H63.126ZM74.07.18a4.418,4.418,0,0,0,2.124-.522A3.981,3.981,0,0,0,78.21-3.906a4.228,4.228,0,0,0-.522-2.088,3.946,3.946,0,0,0-3.564-1.962,4.653,4.653,0,0,0-1.71.324l.27-2.934h4.572V-12.33H71.064l-.54,6.066,1.44.81a3.208,3.208,0,0,1,2.052-.72,2.175,2.175,0,0,1,2.232,2.268,2.329,2.329,0,0,1-.63,1.638,2.061,2.061,0,0,1-1.548.63,4.044,4.044,0,0,1-3.024-1.584l-1.17,1.386A5.348,5.348,0,0,0,74.07.18Z" transform="translate(1117.729 13081.503)" fill="#4a8af5"/>
    <path id="Path_6795" data-name="Path 6795" d="M5.958-7.488H8.514L7.686-4.824H5.13Zm4.428,0h2.556V-9.162H10.908l.972-3.168H10.008L9.036-9.162H6.48l.99-3.168H5.6l-.99,3.168H1.638v1.674H4.086L3.258-4.824H.72V-3.15H2.736L1.764,0H3.636l.972-3.15H7.164L6.174,0H8.046l.99-3.15h2.97V-4.824H9.558ZM17.1-8.55c.414-1.368,1.17-2.088,2.106-2.088,1.458,0,2.43,1.674,2.43,4.482a8.6,8.6,0,0,1-.306,2.394c-.414,1.35-1.188,2.088-2.124,2.088A1.747,1.747,0,0,1,17.964-2.2a5.644,5.644,0,0,1-1.188-3.96A7.86,7.86,0,0,1,17.1-8.55ZM19.206.18a3.592,3.592,0,0,0,2.34-.81c1.35-1.08,2.106-3.06,2.106-5.526a9.294,9.294,0,0,0-.54-3.294,4.206,4.206,0,0,0-3.906-3.06,3.592,3.592,0,0,0-2.34.81c-1.35,1.08-2.106,3.078-2.106,5.544A9.021,9.021,0,0,0,15.3-2.9C16.074-.936,17.46.18,19.206.18Zm9-8.73c.414-1.368,1.17-2.088,2.106-2.088,1.458,0,2.43,1.674,2.43,4.482a8.6,8.6,0,0,1-.306,2.394c-.414,1.35-1.188,2.088-2.124,2.088A1.747,1.747,0,0,1,29.07-2.2a5.644,5.644,0,0,1-1.188-3.96A7.86,7.86,0,0,1,28.206-8.55ZM30.312.18a3.592,3.592,0,0,0,2.34-.81C34-1.71,34.758-3.69,34.758-6.156a9.294,9.294,0,0,0-.54-3.294,4.206,4.206,0,0,0-3.906-3.06,3.592,3.592,0,0,0-2.34.81c-1.35,1.08-2.106,3.078-2.106,5.544a9.021,9.021,0,0,0,.54,3.258C27.18-.936,28.566.18,30.312.18ZM42.03-9.666,43.956-4.86H40.1ZM45.9,0h2.088l-5-12.33H41.148L36.126,0H38.16l1.206-3.042h5.31Zm7.4-6.354a2.161,2.161,0,0,1,1.62.684,2.35,2.35,0,0,1,.648,1.71,2.379,2.379,0,0,1-.648,1.71,2.2,2.2,0,0,1-1.62.666A2.213,2.213,0,0,1,51.66-2.25a2.379,2.379,0,0,1-.648-1.71,2.35,2.35,0,0,1,.648-1.71A2.172,2.172,0,0,1,53.3-6.354ZM53.3.18a4.392,4.392,0,0,0,2.178-.54,3.994,3.994,0,0,0,2.052-3.6,3.985,3.985,0,0,0-.54-2.106,4.225,4.225,0,0,0-3.69-2,3.839,3.839,0,0,0-.666.054l3.006-4.32h-2.16l-2.52,3.672C49.644-6.75,49.1-5.4,49.1-4.014a4.259,4.259,0,0,0,.558,2.124A4.086,4.086,0,0,0,53.3.18Zm9.918,0A4.418,4.418,0,0,0,65.34-.342a3.981,3.981,0,0,0,2.016-3.564,4.228,4.228,0,0,0-.522-2.088A3.946,3.946,0,0,0,63.27-7.956a4.653,4.653,0,0,0-1.71.324l.27-2.934H66.4V-12.33H60.21l-.54,6.066,1.44.81a3.208,3.208,0,0,1,2.052-.72,2.175,2.175,0,0,1,2.232,2.268,2.329,2.329,0,0,1-.63,1.638,2.061,2.061,0,0,1-1.548.63,4.044,4.044,0,0,1-3.024-1.584l-1.17,1.386A5.348,5.348,0,0,0,63.216.18ZM70.9,0h1.89V-12.33H70.866l-2.088,1.476v2L70.9-10.368Z" transform="translate(1006.544 13040.257)" fill="#00a651"/>
    <path id="Path_6796" data-name="Path 6796" d="M22.89,66.02,0,0" transform="translate(924.501 13084.264)" fill="none" stroke="#fff" stroke-linecap="round" stroke-width="3"/>
    <path id="Path_6797" data-name="Path 6797" d="M0,98.632,28.693,0" transform="translate(1024.028 13055.569)" fill="none" stroke="#fff" stroke-linecap="round" stroke-width="3"/>
    <path id="Path_6798" data-name="Path 6798" d="M0,0H110.5" transform="translate(978.092 13369.397)" fill="none" stroke="#fff" stroke-linecap="round" stroke-width="3"/>
    <path id="Path_6799" data-name="Path 6799" d="M0,0,43.936,77.112" transform="translate(1088.588 13582.802)" fill="none" stroke="#fff" stroke-linecap="round" stroke-width="3"/>
    <path id="Path_6800" data-name="Path 6800" d="M12.553,0,0,90.562" transform="translate(936.157 13589.079)" fill="none" stroke="#fff" stroke-linecap="round" stroke-width="3"/>
    <path id="Path_6801" data-name="Path 6801" d="M0,0,16.14,112.978" transform="translate(1018.648 13585.491)" fill="none" stroke="#fff" stroke-linecap="round" stroke-width="3"/>
    <path id="Path_6802" data-name="Path 6802" d="M0,62.766,59.179,0" transform="translate(1087.691 13099.955)" fill="none" stroke="#fff" stroke-linecap="round" stroke-width="3"/>
  </g>
</svg>
