<svg xmlns="http://www.w3.org/2000/svg" width="532.733" height="715.471" viewBox="0 0 532.733 715.471">
  <g id="Group_7294" data-name="Group 7294" transform="translate(-664.995 -13019.257)">
    <path id="Path_6611" data-name="Path 6611" d="M990.26,769.114a14.489,14.489,0,0,1-12.1-22.419l117.885-158.354a14.172,14.172,0,0,0-.015-16.959L977.961,413.4a14.523,14.523,0,0,1,12.127-22.51h141.25A16.524,16.524,0,0,1,1145,398.077c17.813,25.853,99.8,142.964,121.624,174.146a12.986,12.986,0,0,1-.111,15.105c-26.627,36.934-102.266,146.373-124,178.247a8.246,8.246,0,0,1-6.819,3.571Z" transform="translate(-309.399 12789.761)" fill="#e3334a" stroke="#fff" stroke-width="2" fill-rule="evenodd"/>
    <path id="Path_7" data-name="Path 7" d="M1275.014,670.062l-107.1-153.792-18.919,27.173L1249.54,687.795a15.519,15.519,0,0,0,25.474-17.733Z" transform="translate(-189.401 12880.581)" fill="#241a1b" stroke="#fff" stroke-width="2" fill-rule="evenodd"/>
    <path id="Path_8" data-name="Path 8" d="M1227.588,649.746l-76.316-109.591-18.927,27.172,69.769,100.152a15.519,15.519,0,0,0,25.474-17.733Z" transform="translate(-203.704 12901.104)" fill="#a4a4a4" stroke="#fff" stroke-width="2" fill-rule="evenodd"/>
    <path id="Path_9" data-name="Path 9" d="M1134.434,563.946l-18.927,27.172,38.86,55.784a15.53,15.53,0,0,0,25.476-17.768Z" transform="translate(-218.172 12921.546)" fill="#fff" stroke="#fff" stroke-width="2" fill-rule="evenodd"/>
    <path id="Path_10" data-name="Path 10" d="M1275.18,415.027,1168.075,568.777l-18.919-27.129L1249.7,397.294a15.522,15.522,0,0,1,25.482,17.733Z" transform="translate(-189.26 12772.286)" fill="#4a8af5" stroke="#fff" stroke-width="2" fill-rule="evenodd"/>
    <path id="Path_11" data-name="Path 11" d="M1227.752,414.913,1151.436,524.5l-18.926-27.165,69.767-100.157a15.52,15.52,0,0,1,25.475,17.733Z" transform="translate(-203.563 12772.189)" fill="#00a651" stroke="#fff" stroke-width="2" fill-rule="evenodd"/>
    <path id="Path_12" data-name="Path 12" d="M1134.591,480.207l-18.92-27.167,38.863-55.785a15.53,15.53,0,0,1,25.474,17.77Z" transform="translate(-218.03 12772.255)" fill="#fdb913" stroke="#fff" stroke-width="2" fill-rule="evenodd"/>
    <text id="_241A1B" data-name="#241A1B" transform="translate(1102.54 13686.387)" fill="#fff" font-size="18" font-family="Access-Bold, Access" font-weight="700"><tspan x="0" y="0">#241A1B</tspan></text>
    <text id="_FFFFFF" data-name="#FFFFFF" transform="translate(879.958 13704.676)" fill="#fff" font-size="18" font-family="Access-Bold, Access" font-weight="700"><tspan x="0" y="0">#FFFFFF</tspan></text>
    <text id="_A4A4A4" data-name="#A4A4A4" transform="translate(989.508 13729.728)" fill="#a4a4a4" font-size="18" font-family="Access-Bold, Access" font-weight="700"><tspan x="0" y="0">#A4A4A4</tspan></text>
    <text id="_E3334A" data-name="#E3334A" transform="translate(1103.383 13372.914)" fill="#e3334a" font-size="18" font-family="Access-Bold, Access" font-weight="700"><tspan x="0" y="0">#E3334A</tspan></text>
    <text id="_FDB913" data-name="#FDB913" transform="translate(876.529 13068.949)" fill="#fdb913" font-size="18" font-family="Access-Bold, Access" font-weight="700"><tspan x="0" y="0">#FDB913</tspan></text>
    <text id="_4A8AF5" data-name="#4A8AF5" transform="translate(1117.729 13081.503)" fill="#4a8af5" font-size="18" font-family="Access-Bold, Access" font-weight="700"><tspan x="0" y="0">#4A8AF5</tspan></text>
    <text id="_00A651" data-name="#00A651" transform="translate(1006.544 13040.257)" fill="#00a651" font-size="18" font-family="Access-Bold, Access" font-weight="700"><tspan x="0" y="0">#00A651</tspan></text>
    <line id="Line_58" data-name="Line 58" x1="22.89" y1="66.02" transform="translate(924.501 13084.264)" fill="none" stroke="#fff" stroke-linecap="round" stroke-width="3"/>
    <line id="Line_59" data-name="Line 59" y1="98.632" x2="28.693" transform="translate(1024.028 13055.569)" fill="none" stroke="#fff" stroke-linecap="round" stroke-width="3"/>
    <line id="Line_60" data-name="Line 60" x2="110.496" transform="translate(978.092 13369.397)" fill="none" stroke="#fff" stroke-linecap="round" stroke-width="3"/>
    <line id="Line_62" data-name="Line 62" x2="43.936" y2="77.112" transform="translate(1088.588 13582.802)" fill="none" stroke="#fff" stroke-linecap="round" stroke-width="3"/>
    <line id="Line_63" data-name="Line 63" x1="12.553" y2="90.562" transform="translate(936.157 13589.079)" fill="none" stroke="#fff" stroke-linecap="round" stroke-width="3"/>
    <line id="Line_64" data-name="Line 64" x2="16.14" y2="112.978" transform="translate(1018.648 13585.491)" fill="none" stroke="#fff" stroke-linecap="round" stroke-width="3"/>
    <line id="Line_61" data-name="Line 61" y1="62.766" x2="59.179" transform="translate(1087.691 13099.955)" fill="none" stroke="#fff" stroke-linecap="round" stroke-width="3"/>
  </g>
</svg>
