<svg id="Group_7254" data-name="Group 7254" xmlns="http://www.w3.org/2000/svg" width="72" height="72" viewBox="0 0 72 72">
  <g id="Ellipse_55" data-name="Ellipse 55" fill="none" stroke="#fff" stroke-width="4">
    <circle cx="36" cy="36" r="36" stroke="none"/>
    <circle cx="36" cy="36" r="34" fill="none"/>
  </g>
  <g id="right-arrow-angle" transform="translate(28 19)">
    <g id="_x38_" transform="translate(0)">
      <g id="Group_6359" data-name="Group 6359">
        <path id="Path_6757" data-name="Path 6757" d="M183.944,15.787,167.074.413a1.423,1.423,0,0,0-2.005,0,1.406,1.406,0,0,0,0,2l15.853,14.448L165.07,31.3a1.406,1.406,0,0,0,0,2,1.423,1.423,0,0,0,2,0l16.87-15.374a1.389,1.389,0,0,0,.4-1.068A1.4,1.4,0,0,0,183.944,15.787Z" transform="translate(-164.654)" fill="#fff" stroke="#fff" stroke-width="2"/>
      </g>
    </g>
  </g>
</svg>
