<svg xmlns="http://www.w3.org/2000/svg" width="70.931" height="14.317" viewBox="0 0 70.931 14.317">
  <g id="Group_7251" data-name="Group 7251" transform="translate(0 0)">
    <path id="Path_2" data-name="Path 2" d="M524.237,394.3a3.431,3.431,0,1,0,3.408,3.444,3.455,3.455,0,0,0-3.408-3.444Zm-.382,10.576a7.006,7.006,0,0,1-5.966-3.587,7.215,7.215,0,0,1,1.13-8.588,7.057,7.057,0,0,1,4.079-2.02,7.356,7.356,0,0,1,4.15.536,6.83,6.83,0,0,1,4.077,4.927,7.053,7.053,0,0,1-2.644,7.279A7.672,7.672,0,0,1,523.855,404.879Z" transform="translate(-491.198 -390.563)" fill="#fff" fill-rule="evenodd"/>
    <path id="Path_3" data-name="Path 3" d="M309.492,390.573h3.763v5.546h4.052v-5.542h3.778v14.28h-3.759v-5.311h-4.061v5.314h-3.773Z" transform="translate(-297.095 -390.542)" fill="#fff" fill-rule="evenodd"/>
    <path id="Path_4" data-name="Path 4" d="M774.523,393.558V396.9c.745,0,1.467,0,2.19,0a1.477,1.477,0,0,0,1.53-1.077,1.679,1.679,0,0,0-1.2-2.253c-.831-.056-1.669-.011-2.516-.011Zm-.018,6.793V404.4h-3.779V390.114c.084-.006.166-.016.249-.016,2.039,0,4.078-.021,6.115.006a5.112,5.112,0,0,1,1.207,10.112,7.185,7.185,0,0,1-1.387.128C776.12,400.364,775.33,400.351,774.5,400.351Z" transform="translate(-728.621 -390.091)" fill="#fff" fill-rule="evenodd"/>
    <path id="Path_5" data-name="Path 5" d="M127.82,399.727a3.674,3.674,0,0,0-1.614-2.834,9.5,9.5,0,0,0-2.9-1.142,16.4,16.4,0,0,1-1.645-.568.7.7,0,0,1-.448-.687.809.809,0,0,1,.51-.8,2.426,2.426,0,0,1,.8-.18,6.4,6.4,0,0,1,3.1.786l1.936,1.045v-3.665c-.237-.143-.445-.284-.665-.4a9.318,9.318,0,0,0-4.142-1.014,6.252,6.252,0,0,0-3.117.665,4.1,4.1,0,0,0-2.176,2.386,3.857,3.857,0,0,0,1.781,4.631,15.416,15.416,0,0,0,2.98,1.116,10.656,10.656,0,0,1,1.51.607.7.7,0,0,1,.367.874.884.884,0,0,1-.759.684,5.718,5.718,0,0,1-1.4.063,5.988,5.988,0,0,1-2.881-.964h0l-2.035-1.391v4.149c.237.14.447.277.668.39a9.864,9.864,0,0,0,3.716,1.04,8.5,8.5,0,0,0,3.675-.35,4.056,4.056,0,0,0,2.276-1.817A4.362,4.362,0,0,0,127.82,399.727Z" transform="translate(-117.026 -390.257)" fill="#fff" fill-rule="evenodd"/>
    <g id="Group_5" data-name="Group 5" transform="translate(55.302 0.028)">
      <path id="Path_6" data-name="Path 6" d="M976.1,405.142a.546.546,0,0,1-.456-.845l4.441-5.965a.534.534,0,0,0,0-.639l-4.448-5.951a.547.547,0,0,1,.457-.848h5.321a.622.622,0,0,1,.515.271c.671.974,3.76,5.386,4.582,6.56a.489.489,0,0,1,0,.569c-1,1.391-3.852,5.514-4.671,6.715a.311.311,0,0,1-.257.134Z" transform="translate(-975.548 -390.871)" fill="#fff" fill-rule="evenodd"/>
      <path id="Path_7" data-name="Path 7" d="M1153.353,521.593l-3.707-5.323-.655.94,3.48,5a.537.537,0,0,0,.882-.614Z" transform="translate(-1137.832 -508.167)" fill="#fff" fill-rule="evenodd"/>
      <path id="Path_8" data-name="Path 8" d="M1135.641,543.948,1133,540.155l-.655.94,2.415,3.466a.537.537,0,0,0,.881-.614Z" transform="translate(-1122.256 -530.515)" fill="#fff" fill-rule="evenodd"/>
      <path id="Path_9" data-name="Path 9" d="M1116.162,563.946l-.655.94,1.345,1.931a.537.537,0,0,0,.882-.615Z" transform="translate(-1106.501 -552.775)" fill="#fff" fill-rule="evenodd"/>
      <path id="Path_10" data-name="Path 10" d="M1153.517,391.488l-3.707,5.321-.655-.939,3.48-5a.537.537,0,0,1,.882.614Z" transform="translate(-1137.985 -390.637)" fill="#fff" fill-rule="evenodd"/>
      <path id="Path_11" data-name="Path 11" d="M1135.805,391.375l-2.641,3.793-.655-.94,2.414-3.466a.537.537,0,0,1,.882.614Z" transform="translate(-1122.409 -390.531)" fill="#fff" fill-rule="evenodd"/>
      <path id="Path_12" data-name="Path 12" d="M1116.326,393.709l-.655-.94,1.345-1.931a.537.537,0,0,1,.881.615Z" transform="translate(-1106.655 -390.603)" fill="#fff" fill-rule="evenodd"/>
    </g>
  </g>
</svg>
