<svg xmlns="http://www.w3.org/2000/svg" xmlns:xlink="http://www.w3.org/1999/xlink" width="179" height="47" viewBox="0 0 179 47">
  <defs>
    <linearGradient id="linear-gradient" x1="0.914" y1="0.05" x2="-0.62" y2="0.261" gradientUnits="objectBoundingBox">
      <stop offset="0" stop-color="#00a0ff"/>
      <stop offset="0.007" stop-color="#00a1ff"/>
      <stop offset="0.26" stop-color="#00beff"/>
      <stop offset="0.512" stop-color="#00d2ff"/>
      <stop offset="0.76" stop-color="#00dfff"/>
      <stop offset="1" stop-color="#00e3ff"/>
    </linearGradient>
    <linearGradient id="linear-gradient-2" x1="1.076" y1="0.5" x2="-1.306" y2="0.5" gradientUnits="objectBoundingBox">
      <stop offset="0" stop-color="#ffe000"/>
      <stop offset="0.409" stop-color="#ffbd00"/>
      <stop offset="0.775" stop-color="orange"/>
      <stop offset="1" stop-color="#ff9c00"/>
    </linearGradient>
    <linearGradient id="linear-gradient-3" x1="0.862" y1="0.179" x2="-0.092" y2="2.263" gradientUnits="objectBoundingBox">
      <stop offset="0" stop-color="#ff3a44"/>
      <stop offset="1" stop-color="#c31162"/>
    </linearGradient>
    <linearGradient id="linear-gradient-4" x1="-0.188" y1="-0.542" x2="0.238" y2="0.39" gradientUnits="objectBoundingBox">
      <stop offset="0" stop-color="#32a071"/>
      <stop offset="0.068" stop-color="#2da771"/>
      <stop offset="0.476" stop-color="#15cf74"/>
      <stop offset="0.801" stop-color="#06e775"/>
      <stop offset="1" stop-color="#00f076"/>
    </linearGradient>
  </defs>
  <g id="Group_6380" data-name="Group 6380" transform="translate(0)">
    <g id="Rectangle_1347" data-name="Rectangle 1347" transform="translate(0 0)" stroke="#fff" stroke-width="1">
      <rect width="179" height="47" rx="8" stroke="none"/>
      <rect x="0.5" y="0.5" width="178" height="46" rx="7.5" fill="none"/>
    </g>
    <g id="download_1_" data-name="download (1)" transform="translate(31.659 10.473)">
      <path id="Path_6574" data-name="Path 6574" d="M66.483,6.395a3.01,3.01,0,0,1-2.247-.93A3.167,3.167,0,0,1,63.329,3.2,3.1,3.1,0,0,1,64.237.93,3,3,0,0,1,66.481,0a3.041,3.041,0,0,1,2.247.93A3.161,3.161,0,0,1,69.635,3.2a3.168,3.168,0,0,1-.908,2.267,2.984,2.984,0,0,1-2.244.932Zm-26.638,0a3.121,3.121,0,0,1-2.257-.917A3.081,3.081,0,0,1,36.66,3.2,3.081,3.081,0,0,1,37.589.92,3.081,3.081,0,0,1,39.846,0a3.145,3.145,0,0,1,1.26.261,2.548,2.548,0,0,1,.959.686l.059.072-.668.656L41.387,1.6A1.9,1.9,0,0,0,39.836.927a2.144,2.144,0,0,0-1.546.631A2.2,2.2,0,0,0,37.639,3.2a2.205,2.205,0,0,0,.651,1.643,2.261,2.261,0,0,0,3.135,0,1.708,1.708,0,0,0,.454-1.028H39.735V2.893H42.8l.012.084a3.386,3.386,0,0,1,.044.464,2.777,2.777,0,0,1-.765,2.047,2.984,2.984,0,0,1-2.244.908Zm35.418-.131h-.945L71.426,1.635l.025.834V6.262h-.945V.133h1.078l.03.047,2.72,4.36-.025-.831V.133h.954V6.264Zm-15.878,0h-.957V1.056h-1.66V.133h4.274v.922h-1.66V6.264h0Zm-3.4,0h-.954V.133h.954Zm-5.364,0h-.954V1.056h-1.66V.133h4.274v.922h-1.66Zm-3.218-.01h-3.66V.133h3.66v.922H44.7V2.737h2.439V3.65H44.7V5.332h2.7Zm17.53-1.423a2.112,2.112,0,0,0,1.546.641,2.059,2.059,0,0,0,1.546-.641A2.22,2.22,0,0,0,68.661,3.2a2.224,2.224,0,0,0-.629-1.633A2.116,2.116,0,0,0,66.486.925a2.049,2.049,0,0,0-1.544.641A2.22,2.22,0,0,0,64.311,3.2,2.222,2.222,0,0,0,64.937,4.831Z" transform="translate(-5.728 0)" fill="#fff"/>
      <path id="Path_6575" data-name="Path 6575" d="M63.205,16.705a4.207,4.207,0,1,0,4.22,4.207A4.141,4.141,0,0,0,63.205,16.705Zm0,6.748a2.435,2.435,0,0,1-2.372-2.55,2.379,2.379,0,1,1,4.745,0A2.427,2.427,0,0,1,63.205,23.453ZM54,16.705a4.207,4.207,0,1,0,4.22,4.207A4.141,4.141,0,0,0,54,16.705Zm0,6.748a2.435,2.435,0,0,1-2.373-2.55,2.379,2.379,0,1,1,4.745,0A2.429,2.429,0,0,1,54,23.453ZM43.044,17.99v1.781h4.274a3.753,3.753,0,0,1-.967,2.242,4.361,4.361,0,0,1-3.3,1.307,4.748,4.748,0,0,1,0-9.5A4.562,4.562,0,0,1,46.272,15.1l1.263-1.263a6.209,6.209,0,0,0-4.471-1.8,6.529,6.529,0,1,0,0,13.056,5.976,5.976,0,0,0,4.56-1.835,5.909,5.909,0,0,0,1.549-4.175,5.5,5.5,0,0,0-.1-1.11H43.041S43.044,17.99,43.044,17.99Zm44.809,1.386a3.91,3.91,0,0,0-3.6-2.681A4,4,0,0,0,80.283,20.9a4.112,4.112,0,0,0,4.175,4.207,4.176,4.176,0,0,0,3.5-1.867l-1.428-.957a2.393,2.393,0,0,1-2.067,1.164,2.149,2.149,0,0,1-2.045-1.275l5.626-2.331S87.852,19.376,87.852,19.376Zm-5.736,1.406a2.309,2.309,0,0,1,2.2-2.451,1.622,1.622,0,0,1,1.561.89Zm-4.57,4.077h1.847V12.5H77.546ZM74.512,17.64h-.067a2.914,2.914,0,0,0-2.22-.945,4.207,4.207,0,0,0,0,8.407,2.906,2.906,0,0,0,2.22-.957h.067v.6c0,1.605-.858,2.471-2.242,2.471a2.333,2.333,0,0,1-2.121-1.495l-1.606.671a4.016,4.016,0,0,0,3.724,2.484c2.165,0,4-1.275,4-4.385V16.947H74.522v.693h-.01Zm-2.121,5.813a2.412,2.412,0,0,1-2.34-2.538,2.425,2.425,0,0,1,2.34-2.56,2.365,2.365,0,0,1,2.242,2.56A2.336,2.336,0,0,1,72.392,23.453ZM96.5,12.5H92.084V24.858h1.848V20.177H96.5a3.846,3.846,0,1,0,0-7.68Zm.055,5.953H93.929V14.209h2.627a2.121,2.121,0,1,1,0,4.242Zm11.406-1.768a3.479,3.479,0,0,0-3.3,1.889l1.638.681a1.756,1.756,0,0,1,1.682-.912,1.784,1.784,0,0,1,1.947,1.593v.131a4.138,4.138,0,0,0-1.924-.474c-1.769,0-3.562.967-3.562,2.779a2.857,2.857,0,0,0,3.065,2.725,2.6,2.6,0,0,0,2.351-1.208h.067v.957h1.78V20.108C111.708,17.9,110.07,16.683,107.962,16.683Zm-.232,6.77c-.6,0-1.45-.3-1.45-1.056,0-.957,1.056-1.319,1.956-1.319a3.206,3.206,0,0,1,1.682.417A2.224,2.224,0,0,1,107.73,23.452ZM118.2,16.946l-2.121,5.362h-.067l-2.2-5.362h-1.988l3.3,7.495-1.879,4.165h1.924l5.073-11.661H118.2Zm-16.627,7.912h1.847V12.5h-1.847Z" transform="translate(-5.693 -1.88)" fill="#fff" fill-rule="evenodd"/>
      <path id="Path_6576" data-name="Path 6576" d="M.451.888A2,2,0,0,0,0,2.284V24.151a1.907,1.907,0,0,0,.461,1.384l.076.067L12.79,13.349v-.274L.528.821.451.887Z" transform="translate(0 -0.128)" fill-rule="evenodd" fill="url(#linear-gradient)"/>
      <path id="Path_6577" data-name="Path 6577" d="M19.233,18.959l-4.087-4.087v-.286L19.233,10.5l.089.054L24.156,13.3c1.384.779,1.384,2.067,0,2.856L19.322,18.9l-.089.054Z" transform="translate(-2.367 -1.64)" fill-rule="evenodd" fill="url(#linear-gradient-2)"/>
      <path id="Path_6578" data-name="Path 6578" d="M17.039,19.687l-4.175-4.175L.535,27.841a1.618,1.618,0,0,0,2.054.067l14.449-8.22Z" transform="translate(-0.084 -2.424)" fill-rule="evenodd" fill="url(#linear-gradient-3)"/>
      <path id="Path_6579" data-name="Path 6579" d="M17.039,8.982,2.59.774A1.6,1.6,0,0,0,.535.841L12.864,13.157l4.175-4.175Z" transform="translate(-0.084 -0.069)" fill-rule="evenodd" fill="url(#linear-gradient-4)"/>
      <path id="Path_6580" data-name="Path 6580" d="M16.952,20.355,2.6,28.508a1.629,1.629,0,0,1-1.978.01l-.076.076.076.067a1.632,1.632,0,0,0,1.978-.01l14.449-8.208-.1-.089Z" transform="translate(-0.085 -3.18)" fill-rule="evenodd" opacity="0.2"/>
      <path id="Path_6581" data-name="Path 6581" d="M24.91,16.8l-4.935,2.8.089.089L24.9,16.94a1.732,1.732,0,0,0,1.033-1.428A1.779,1.779,0,0,1,24.91,16.8Z" transform="translate(-3.121 -2.424)" fill-rule="evenodd" opacity="0.12"/>
      <path id="Path_6582" data-name="Path 6582" d="M2.506.917,21.789,11.872a1.817,1.817,0,0,1,1.033,1.285,1.732,1.732,0,0,0-1.033-1.428L2.506.774C1.122-.018,0,.643,0,2.224v.143C0,.784,1.122.135,2.506.917Z" transform="translate(0 -0.069)" fill="#fff" fill-rule="evenodd" opacity="0.25"/>
    </g>
  </g>
</svg>
