<svg xmlns="http://www.w3.org/2000/svg" xmlns:xlink="http://www.w3.org/1999/xlink" width="1920" height="1137" viewBox="0 0 1920 1137">
  <defs>
    <linearGradient id="linear-gradient" x1="0.5" x2="0.5" y2="1" gradientUnits="objectBoundingBox">
      <stop offset="0" stop-color="#fff" stop-opacity="0"/>
      <stop offset="1" stop-color="#fff"/>
    </linearGradient>
  </defs>
  <g id="Group_7363" data-name="Group 7363" transform="translate(-1.094 -9925)">
    <g id="Group_7183" data-name="Group 7183" transform="translate(-184.406 -1023.75)" opacity="0.2">
      <line id="Line_28" data-name="Line 28" y2="978.854" transform="translate(535.5 11106.5)" fill="none" stroke="#241a1b" stroke-width="1"/>
      <line id="Line_28-2" data-name="Line 28" y2="978.854" transform="translate(714.5 11106.5)" fill="none" stroke="#241a1b" stroke-width="1"/>
      <line id="Line_28-3" data-name="Line 28" y2="978.854" transform="translate(908.523 11106.5)" fill="none" stroke="#241a1b" stroke-width="1"/>
      <line id="Line_28-4" data-name="Line 28" y2="978.854" transform="translate(1095.034 11106.5)" fill="none" stroke="#241a1b" stroke-width="1"/>
      <line id="Line_28-5" data-name="Line 28" y2="978.854" transform="translate(1281.545 11106.5)" fill="none" stroke="#241a1b" stroke-width="1"/>
      <line id="Line_28-6" data-name="Line 28" y2="978.854" transform="translate(1475.568 11106.5)" fill="none" stroke="#241a1b" stroke-width="1"/>
      <line id="Line_28-7" data-name="Line 28" y2="978.854" transform="translate(1654.568 11106.5)" fill="none" stroke="#241a1b" stroke-width="1"/>
    </g>
    <g id="Path_6818" data-name="Path 6818" transform="translate(263.094 10197)" fill="#ffe4e7">
      <path d="M 287 75.5 L 30 75.5 C 26.01729202270508 75.5 22.15399932861328 74.72008514404297 18.51741600036621 73.18196105957031 C 15.00462532043457 71.6961669921875 11.84974956512451 69.56903839111328 9.14033317565918 66.85966491699219 C 6.430958271026611 64.15025329589844 4.303833484649658 60.99537658691406 2.818041563034058 57.48258209228516 C 1.279916644096375 53.84600067138672 0.5 49.98270797729492 0.5 46 L 0.5 30 C 0.5 26.01729202270508 1.279916644096375 22.15399932861328 2.818041563034058 18.51741600036621 C 4.303833484649658 15.00462532043457 6.430958271026611 11.84974956512451 9.14033317565918 9.14033317565918 C 11.84974956512451 6.430958271026611 15.00462532043457 4.303833484649658 18.51741600036621 2.818041563034058 C 22.15399932861328 1.279916644096375 26.01729202270508 0.5 30 0.5 L 287 0.5 C 290.9826965332031 0.5 294.8460083007812 1.279916644096375 298.4825744628906 2.818041563034058 C 301.995361328125 4.303833484649658 305.1502380371094 6.430958271026611 307.8596801757812 9.14033317565918 C 310.5690307617188 11.84974956512451 312.6961669921875 15.00462532043457 314.1819458007812 18.51741600036621 C 315.7200927734375 22.15399932861328 316.5 26.01729202270508 316.5 30 L 316.5 46 C 316.5 49.98270797729492 315.7200927734375 53.84600067138672 314.1819458007812 57.48258209228516 C 312.6961669921875 60.99537658691406 310.5690307617188 64.15025329589844 307.8596801757812 66.85966491699219 C 305.1502380371094 69.56903839111328 301.995361328125 71.6961669921875 298.4825744628906 73.18196105957031 C 294.8460083007812 74.72008514404297 290.9826965332031 75.5 287 75.5 Z" stroke="none"/>
      <path d="M 30 1 C 26.0845947265625 1 22.28683471679688 1.766624450683594 18.71221923828125 3.278541564941406 C 15.25900268554688 4.739128112792969 12.15753173828125 6.830291748046875 9.493927001953125 9.493919372558594 C 6.830291748046875 12.15754318237305 4.7391357421875 15.25899887084961 3.278533935546875 18.71220779418945 C 1.766632080078125 22.28683471679688 1 26.0845832824707 1 30 L 1 46 C 1 49.9154167175293 1.766632080078125 53.71316528320312 3.278533935546875 57.28779220581055 C 4.7391357421875 60.74100112915039 6.830291748046875 63.84246063232422 9.493927001953125 66.50608062744141 C 12.15753173828125 69.16970825195312 15.25900268554688 71.26087188720703 18.71221923828125 72.72145843505859 C 22.28683471679688 74.23337554931641 26.0845947265625 75 30 75 L 287 75 C 290.9154052734375 75 294.7131652832031 74.23337554931641 298.2877807617188 72.72145843505859 C 301.7409973144531 71.26087188720703 304.8424682617188 69.16970825195312 307.5060729980469 66.50608062744141 C 310.1697082519531 63.84246063232422 312.2608642578125 60.74100112915039 313.7214660644531 57.28779220581055 C 315.2333679199219 53.71316528320312 316 49.9154167175293 316 46 L 316 30 C 316 26.0845832824707 315.2333679199219 22.28683471679688 313.7214660644531 18.71220779418945 C 312.2608642578125 15.25899887084961 310.1697082519531 12.15754318237305 307.5060729980469 9.493919372558594 C 304.8424682617188 6.830291748046875 301.7409973144531 4.739128112792969 298.2877807617188 3.278541564941406 C 294.7131652832031 1.766624450683594 290.9154052734375 1 287 1 L 30 1 M 30 0 L 287 0 C 303.5685424804688 0 317 13.43145751953125 317 30 L 317 46 C 317 62.56854248046875 303.5685424804688 76 287 76 L 30 76 C 13.43145751953125 76 0 62.56854248046875 0 46 L 0 30 C 0 13.43145751953125 13.43145751953125 0 30 0 Z" stroke="none" fill="#e3334a"/>
    </g>
    <g id="Path_6809" data-name="Path 6809" transform="translate(1036.094 10220)" fill="#ebdbff">
      <path d="M 362 75.5 L 30 75.5 C 26.01729965209961 75.5 22.15399932861328 74.72010040283203 18.51740074157715 73.18195343017578 C 15.0046501159668 71.69615173339844 11.84974956512451 69.56905364990234 9.140350341796875 66.85964965820312 C 6.430950164794922 64.15025329589844 4.303850173950195 60.9953498840332 2.818049907684326 57.48260116577148 C 1.279899954795837 53.84600067138672 0.5 49.98270034790039 0.5 46 L 0.5 30 C 0.5 26.01729965209961 1.279899954795837 22.15399932861328 2.818049907684326 18.51740074157715 C 4.303850173950195 15.0046501159668 6.430950164794922 11.84974956512451 9.140350341796875 9.140350341796875 C 11.84974956512451 6.430950164794922 15.0046501159668 4.303850173950195 18.51740074157715 2.818049907684326 C 22.15399932861328 1.279899954795837 26.01729965209961 0.5 30 0.5 L 362 0.5 C 365.9826965332031 0.5 369.8460083007812 1.279899954795837 373.4826049804688 2.818049907684326 C 376.995361328125 4.303850173950195 380.1502380371094 6.430950164794922 382.8596496582031 9.140350341796875 C 385.5690612792969 11.84974956512451 387.6961364746094 15.0046501159668 389.1819458007812 18.51740074157715 C 390.7200927734375 22.15399932861328 391.5 26.01729965209961 391.5 30 L 391.5 46 C 391.5 49.98270034790039 390.7200927734375 53.84600067138672 389.1819458007812 57.48260116577148 C 387.6961364746094 60.9953498840332 385.5690612792969 64.15025329589844 382.8596496582031 66.85964965820312 C 380.1502380371094 69.56905364990234 376.995361328125 71.69615173339844 373.4826049804688 73.18195343017578 C 369.8460083007812 74.72010040283203 365.9826965332031 75.5 362 75.5 Z" stroke="none"/>
      <path d="M 30 1 C 26.0845947265625 1 22.28680419921875 1.7666015625 18.71218872070312 3.278549194335938 C 15.25900268554688 4.739097595214844 12.15756225585938 6.830253601074219 9.493896484375 9.493896484375 C 6.83026123046875 12.15755081176758 4.739105224609375 15.25899887084961 3.278564453125 18.71220016479492 C 1.7666015625 22.28680038452148 1 26.08459854125977 1 30 L 1 46 C 1 49.91539764404297 1.7666015625 53.71319961547852 3.278564453125 57.28779983520508 C 4.739105224609375 60.74100112915039 6.83026123046875 63.84244918823242 9.493896484375 66.506103515625 C 12.15756225585938 69.16975402832031 15.25900268554688 71.26090240478516 18.71218872070312 72.72145080566406 C 22.28680419921875 74.2333984375 26.0845947265625 75 30 75 L 362 75 C 365.9154052734375 75 369.7131958007812 74.2333984375 373.2878112792969 72.72145080566406 C 376.7409973144531 71.26090240478516 379.8424377441406 69.16975402832031 382.506103515625 66.506103515625 C 385.1697387695312 63.84244918823242 387.2608947753906 60.74100112915039 388.721435546875 57.28779983520508 C 390.2333984375 53.71319961547852 391 49.91539764404297 391 46 L 391 30 C 391 26.08459854125977 390.2333984375 22.28680038452148 388.721435546875 18.71220016479492 C 387.2608947753906 15.25899887084961 385.1697387695312 12.15755081176758 382.506103515625 9.493896484375 C 379.8424377441406 6.830253601074219 376.7409973144531 4.739097595214844 373.2878112792969 3.278549194335938 C 369.7131958007812 1.7666015625 365.9154052734375 1 362 1 L 30 1 M 30 0 L 362 0 C 378.5685424804688 0 392 13.43144989013672 392 30 L 392 46 C 392 62.56855010986328 378.5685424804688 76 362 76 L 30 76 C 13.43145751953125 76 0 62.56855010986328 0 46 L 0 30 C 0 13.43144989013672 13.43145751953125 0 30 0 Z" stroke="none" fill="#7c1cf4"/>
    </g>
    <g id="Path_6810" data-name="Path 6810" transform="translate(401.094 10348)" fill="#daffd4">
      <path d="M 428 75.5 L 30 75.5 C 26.01729393005371 75.5 22.15399932861328 74.72011566162109 18.51741218566895 73.18193817138672 C 15.00464725494385 71.69617462158203 11.84976482391357 69.56906127929688 9.140353202819824 66.85964965820312 C 6.430941104888916 64.15023803710938 4.303823471069336 60.99535369873047 2.818058729171753 57.48258972167969 C 1.279882311820984 53.84600067138672 0.5 49.98270416259766 0.5 46 L 0.5 30 C 0.5 26.01729393005371 1.279882311820984 22.15399932861328 2.818058729171753 18.51741218566895 C 4.303823471069336 15.00464725494385 6.430941104888916 11.84976482391357 9.140353202819824 9.140353202819824 C 11.84976482391357 6.430941104888916 15.00464725494385 4.303823471069336 18.51741218566895 2.818058729171753 C 22.15399932861328 1.279882311820984 26.01729393005371 0.5 30 0.5 L 428 0.5 C 431.9826965332031 0.5 435.8460083007812 1.279882311820984 439.4825744628906 2.818058729171753 C 442.995361328125 4.303823471069336 446.1502380371094 6.430941104888916 448.8596496582031 9.140353202819824 C 451.5690612792969 11.84976482391357 453.6961669921875 15.00464725494385 455.1819458007812 18.51741218566895 C 456.7201232910156 22.15399932861328 457.5 26.01729393005371 457.5 30 L 457.5 46 C 457.5 49.98270416259766 456.7201232910156 53.84600067138672 455.1819458007812 57.48258972167969 C 453.6961669921875 60.99535369873047 451.5690612792969 64.15023803710938 448.8596496582031 66.85964965820312 C 446.1502380371094 69.56906127929688 442.995361328125 71.69617462158203 439.4825744628906 73.18193817138672 C 435.8460083007812 74.72011566162109 431.9826965332031 75.5 428 75.5 Z" stroke="none"/>
      <path d="M 30 1 C 26.0845947265625 1 22.28683471679688 1.766586303710938 18.71218872070312 3.278526306152344 C 15.25900268554688 4.739120483398438 12.15753173828125 6.830291748046875 9.493896484375 9.493881225585938 C 6.830291748046875 12.15752792358398 4.739105224609375 15.25899887084961 3.278533935546875 18.71217727661133 C 1.7666015625 22.28682327270508 1 26.08458709716797 1 30 L 1 46 C 1 49.91541290283203 1.7666015625 53.71317672729492 3.278533935546875 57.28782272338867 C 4.739105224609375 60.74100112915039 6.830291748046875 63.84246826171875 9.493896484375 66.50611877441406 C 12.15753173828125 69.16970825195312 15.25900268554688 71.26087951660156 18.71218872070312 72.72147369384766 C 22.28683471679688 74.23341369628906 26.0845947265625 75 30 75 L 428 75 C 431.9154052734375 75 435.7131652832031 74.23341369628906 439.2878112792969 72.72147369384766 C 442.7409973144531 71.26087951660156 445.8424682617188 69.16970825195312 448.506103515625 66.50611877441406 C 451.1697082519531 63.84246826171875 453.2608947753906 60.74100112915039 454.7214660644531 57.28782272338867 C 456.2333984375 53.71317672729492 457 49.91541290283203 457 46 L 457 30 C 457 26.08458709716797 456.2333984375 22.28682327270508 454.7214660644531 18.71217727661133 C 453.2608947753906 15.25899887084961 451.1697082519531 12.15752792358398 448.506103515625 9.493881225585938 C 445.8424682617188 6.830291748046875 442.7409973144531 4.739120483398438 439.2878112792969 3.278526306152344 C 435.7131652832031 1.766586303710938 431.9154052734375 1 428 1 L 30 1 M 30 0 L 428 0 C 444.5685424804688 0 458 13.43146896362305 458 30 L 458 46 C 458 62.56852722167969 444.5685424804688 76 428 76 L 30 76 C 13.43145751953125 76 0 62.56852722167969 0 46 L 0 30 C 0 13.43146896362305 13.43145751953125 0 30 0 Z" stroke="none" fill="#00a651"/>
    </g>
    <g id="Path_6807" data-name="Path 6807" transform="translate(1047.094 10381)" fill="#daffd4">
      <path d="M 428 75.5 L 30 75.5 C 26.01729393005371 75.5 22.15399932861328 74.72011566162109 18.51741218566895 73.18193817138672 C 15.00464725494385 71.69617462158203 11.84976482391357 69.56906127929688 9.140353202819824 66.85964965820312 C 6.430941104888916 64.15023803710938 4.303823471069336 60.99535369873047 2.818058729171753 57.48258972167969 C 1.279882311820984 53.84600067138672 0.5 49.98270416259766 0.5 46 L 0.5 30 C 0.5 26.01729393005371 1.279882311820984 22.15399932861328 2.818058729171753 18.51741218566895 C 4.303823471069336 15.00464725494385 6.430941104888916 11.84976482391357 9.140353202819824 9.140353202819824 C 11.84976482391357 6.430941104888916 15.00464725494385 4.303823471069336 18.51741218566895 2.818058729171753 C 22.15399932861328 1.279882311820984 26.01729393005371 0.5 30 0.5 L 428 0.5 C 431.9826965332031 0.5 435.8460083007812 1.279882311820984 439.4825744628906 2.818058729171753 C 442.995361328125 4.303823471069336 446.1502380371094 6.430941104888916 448.8596496582031 9.140353202819824 C 451.5690612792969 11.84976482391357 453.6961669921875 15.00464725494385 455.1819458007812 18.51741218566895 C 456.7201232910156 22.15399932861328 457.5 26.01729393005371 457.5 30 L 457.5 46 C 457.5 49.98270416259766 456.7201232910156 53.84600067138672 455.1819458007812 57.48258972167969 C 453.6961669921875 60.99535369873047 451.5690612792969 64.15023803710938 448.8596496582031 66.85964965820312 C 446.1502380371094 69.56906127929688 442.995361328125 71.69617462158203 439.4825744628906 73.18193817138672 C 435.8460083007812 74.72011566162109 431.9826965332031 75.5 428 75.5 Z" stroke="none"/>
      <path d="M 30 1 C 26.0845947265625 1 22.28683471679688 1.766586303710938 18.71218872070312 3.278526306152344 C 15.25900268554688 4.739120483398438 12.15753173828125 6.830291748046875 9.493896484375 9.493881225585938 C 6.830291748046875 12.15752792358398 4.739105224609375 15.25899887084961 3.278533935546875 18.71217727661133 C 1.7666015625 22.28682327270508 1 26.08458709716797 1 30 L 1 46 C 1 49.91541290283203 1.7666015625 53.71317672729492 3.278533935546875 57.28782272338867 C 4.739105224609375 60.74100112915039 6.830291748046875 63.84246826171875 9.493896484375 66.50611877441406 C 12.15753173828125 69.16970825195312 15.25900268554688 71.26087951660156 18.71218872070312 72.72147369384766 C 22.28683471679688 74.23341369628906 26.0845947265625 75 30 75 L 428 75 C 431.9154052734375 75 435.7131652832031 74.23341369628906 439.2878112792969 72.72147369384766 C 442.7409973144531 71.26087951660156 445.8424682617188 69.16970825195312 448.506103515625 66.50611877441406 C 451.1697082519531 63.84246826171875 453.2608947753906 60.74100112915039 454.7214660644531 57.28782272338867 C 456.2333984375 53.71317672729492 457 49.91541290283203 457 46 L 457 30 C 457 26.08458709716797 456.2333984375 22.28682327270508 454.7214660644531 18.71217727661133 C 453.2608947753906 15.25899887084961 451.1697082519531 12.15752792358398 448.506103515625 9.493881225585938 C 445.8424682617188 6.830291748046875 442.7409973144531 4.739120483398438 439.2878112792969 3.278526306152344 C 435.7131652832031 1.766586303710938 431.9154052734375 1 428 1 L 30 1 M 30 0 L 428 0 C 444.5685424804688 0 458 13.43146896362305 458 30 L 458 46 C 458 62.56852722167969 444.5685424804688 76 428 76 L 30 76 C 13.43145751953125 76 0 62.56852722167969 0 46 L 0 30 C 0 13.43146896362305 13.43145751953125 0 30 0 Z" stroke="none" fill="#00a651"/>
    </g>
    <g id="Path_6803" data-name="Path 6803" transform="translate(1176.094 10538)" fill="#fff4d6">
      <path d="M 356 75.5 L 30 75.5 C 26.01729965209961 75.5 22.15399932861328 74.72010040283203 18.51740074157715 73.18195343017578 C 15.0046501159668 71.69615173339844 11.84974956512451 69.56905364990234 9.140350341796875 66.85964965820312 C 6.430950164794922 64.15025329589844 4.303850173950195 60.9953498840332 2.818049907684326 57.48260116577148 C 1.279899954795837 53.84600067138672 0.5 49.98270034790039 0.5 46 L 0.5 30 C 0.5 26.01729965209961 1.279899954795837 22.15399932861328 2.818049907684326 18.51740074157715 C 4.303850173950195 15.0046501159668 6.430950164794922 11.84974956512451 9.140350341796875 9.140350341796875 C 11.84974956512451 6.430950164794922 15.0046501159668 4.303850173950195 18.51740074157715 2.818049907684326 C 22.15399932861328 1.279899954795837 26.01729965209961 0.5 30 0.5 L 356 0.5 C 359.9826965332031 0.5 363.8460083007812 1.279899954795837 367.4826049804688 2.818049907684326 C 370.995361328125 4.303850173950195 374.1502380371094 6.430950164794922 376.8596496582031 9.140350341796875 C 379.5690612792969 11.84974956512451 381.6961364746094 15.0046501159668 383.1819458007812 18.51740074157715 C 384.7200927734375 22.15399932861328 385.5 26.01729965209961 385.5 30 L 385.5 46 C 385.5 49.98270034790039 384.7200927734375 53.84600067138672 383.1819458007812 57.48260116577148 C 381.6961364746094 60.9953498840332 379.5690612792969 64.15025329589844 376.8596496582031 66.85964965820312 C 374.1502380371094 69.56905364990234 370.995361328125 71.69615173339844 367.4826049804688 73.18195343017578 C 363.8460083007812 74.72010040283203 359.9826965332031 75.5 356 75.5 Z" stroke="none"/>
      <path d="M 30 1 C 26.0845947265625 1 22.28680419921875 1.7666015625 18.71218872070312 3.278549194335938 C 15.25900268554688 4.739097595214844 12.15756225585938 6.830253601074219 9.493896484375 9.493896484375 C 6.83026123046875 12.15755081176758 4.739105224609375 15.25899887084961 3.278564453125 18.71220016479492 C 1.7666015625 22.28680038452148 1 26.08459854125977 1 30 L 1 46 C 1 49.91539764404297 1.7666015625 53.71319961547852 3.278564453125 57.28779983520508 C 4.739105224609375 60.74100112915039 6.83026123046875 63.84244918823242 9.493896484375 66.506103515625 C 12.15756225585938 69.16975402832031 15.25900268554688 71.26090240478516 18.71218872070312 72.72145080566406 C 22.28680419921875 74.2333984375 26.0845947265625 75 30 75 L 356 75 C 359.9154052734375 75 363.7131958007812 74.2333984375 367.2878112792969 72.72145080566406 C 370.7409973144531 71.26090240478516 373.8424377441406 69.16975402832031 376.506103515625 66.506103515625 C 379.1697387695312 63.84244918823242 381.2608947753906 60.74100112915039 382.721435546875 57.28779983520508 C 384.2333984375 53.71319961547852 385 49.91539764404297 385 46 L 385 30 C 385 26.08459854125977 384.2333984375 22.28680038452148 382.721435546875 18.71220016479492 C 381.2608947753906 15.25899887084961 379.1697387695312 12.15755081176758 376.506103515625 9.493896484375 C 373.8424377441406 6.830253601074219 370.7409973144531 4.739097595214844 367.2878112792969 3.278549194335938 C 363.7131958007812 1.7666015625 359.9154052734375 1 356 1 L 30 1 M 30 0 L 356 0 C 372.5685424804688 0 386 13.43144989013672 386 30 L 386 46 C 386 62.56855010986328 372.5685424804688 76 356 76 L 30 76 C 13.43145751953125 76 0 62.56855010986328 0 46 L 0 30 C 0 13.43144989013672 13.43145751953125 0 30 0 Z" stroke="none" fill="#fdb913"/>
    </g>
    <g id="Path_6808" data-name="Path 6808" transform="translate(555.094 10485)" fill="#fff4d6">
      <path d="M 422 75.5 L 30 75.5 C 26.01727867126465 75.5 22.15399932861328 74.72010803222656 18.51738929748535 73.18194580078125 C 15.00461101531982 71.6961669921875 11.84972190856934 69.56905364990234 9.14033317565918 66.85966491699219 C 6.430944442749023 64.15027618408203 4.303833484649658 60.99538803100586 2.818055629730225 57.48261260986328 C 1.279888868331909 53.84600067138672 0.5 49.98272323608398 0.5 46 L 0.5 30 C 0.5 26.01727867126465 1.279888868331909 22.15399932861328 2.818055629730225 18.51738929748535 C 4.303833484649658 15.00461101531982 6.430944442749023 11.84972190856934 9.14033317565918 9.14033317565918 C 11.84972190856934 6.430944442749023 15.00461101531982 4.303833484649658 18.51738929748535 2.818055629730225 C 22.15399932861328 1.279888868331909 26.01727867126465 0.5 30 0.5 L 422 0.5 C 425.9827270507812 0.5 429.8460083007812 1.279888868331909 433.4826049804688 2.818055629730225 C 436.9953918457031 4.303833484649658 440.1502685546875 6.430944442749023 442.8596801757812 9.14033317565918 C 445.5690612792969 11.84972190856934 447.6961669921875 15.00461101531982 449.1819458007812 18.51738929748535 C 450.7201232910156 22.15399932861328 451.5 26.01727867126465 451.5 30 L 451.5 46 C 451.5 49.98272323608398 450.7201232910156 53.84600067138672 449.1819458007812 57.48261260986328 C 447.6961669921875 60.99538803100586 445.5690612792969 64.15027618408203 442.8596801757812 66.85966491699219 C 440.1502685546875 69.56905364990234 436.9953918457031 71.6961669921875 433.4826049804688 73.18194580078125 C 429.8460083007812 74.72010803222656 425.9827270507812 75.5 422 75.5 Z" stroke="none"/>
      <path d="M 30 1 C 26.08456420898438 1 22.28683471679688 1.766609191894531 18.712158203125 3.278556823730469 C 15.25900268554688 4.739112854003906 12.15756225585938 6.830276489257812 9.493896484375 9.493888854980469 C 6.830291748046875 12.15755462646484 4.739105224609375 15.25899887084961 3.278564453125 18.71216583251953 C 1.7666015625 22.28683471679688 1 26.08455657958984 1 30 L 1 46 C 1 49.91544342041016 1.7666015625 53.71316528320312 3.278564453125 57.28783416748047 C 4.739105224609375 60.74100112915039 6.830291748046875 63.84244537353516 9.493896484375 66.50611114501953 C 12.15756225585938 69.16972351074219 15.25900268554688 71.26088714599609 18.712158203125 72.72144317626953 C 22.28683471679688 74.23339080810547 26.08456420898438 75 30 75 L 422 75 C 425.9154357910156 75 429.7131652832031 74.23339080810547 433.287841796875 72.72144317626953 C 436.7409973144531 71.26088714599609 439.8424377441406 69.16972351074219 442.506103515625 66.50611114501953 C 445.1697082519531 63.84244537353516 447.2608947753906 60.74100112915039 448.721435546875 57.28783416748047 C 450.2333984375 53.71316528320312 451 49.91544342041016 451 46 L 451 30 C 451 26.08455657958984 450.2333984375 22.28683471679688 448.721435546875 18.71216583251953 C 447.2608947753906 15.25899887084961 445.1697082519531 12.15755462646484 442.506103515625 9.493888854980469 C 439.8424377441406 6.830276489257812 436.7409973144531 4.739112854003906 433.287841796875 3.278556823730469 C 429.7131652832031 1.766609191894531 425.9154357910156 1 422 1 L 30 1 M 30 0 L 422 0 C 438.5685424804688 0 452 13.43144607543945 452 30 L 452 46 C 452 62.56855773925781 438.5685424804688 76 422 76 L 30 76 C 13.43145751953125 76 0 62.56855773925781 0 46 L 0 30 C 0 13.43144607543945 13.43145751953125 0 30 0 Z" stroke="none" fill="#fdb913"/>
    </g>
    <g id="Path_6811" data-name="Path 6811" transform="translate(427.094 10618)" fill="#dfebff">
      <path d="M 428 75.5 L 30 75.5 C 26.01729393005371 75.5 22.15399932861328 74.72011566162109 18.51741218566895 73.18193817138672 C 15.00464725494385 71.69617462158203 11.84976482391357 69.56906127929688 9.140353202819824 66.85964965820312 C 6.430941104888916 64.15023803710938 4.303823471069336 60.99535369873047 2.818058729171753 57.48258972167969 C 1.279882311820984 53.84600067138672 0.5 49.98270416259766 0.5 46 L 0.5 30 C 0.5 26.01729393005371 1.279882311820984 22.15399932861328 2.818058729171753 18.51741218566895 C 4.303823471069336 15.00464725494385 6.430941104888916 11.84976482391357 9.140353202819824 9.140353202819824 C 11.84976482391357 6.430941104888916 15.00464725494385 4.303823471069336 18.51741218566895 2.818058729171753 C 22.15399932861328 1.279882311820984 26.01729393005371 0.5 30 0.5 L 428 0.5 C 431.9826965332031 0.5 435.8460083007812 1.279882311820984 439.4825744628906 2.818058729171753 C 442.995361328125 4.303823471069336 446.1502380371094 6.430941104888916 448.8596496582031 9.140353202819824 C 451.5690612792969 11.84976482391357 453.6961669921875 15.00464725494385 455.1819458007812 18.51741218566895 C 456.7201232910156 22.15399932861328 457.5 26.01729393005371 457.5 30 L 457.5 46 C 457.5 49.98270416259766 456.7201232910156 53.84600067138672 455.1819458007812 57.48258972167969 C 453.6961669921875 60.99535369873047 451.5690612792969 64.15023803710938 448.8596496582031 66.85964965820312 C 446.1502380371094 69.56906127929688 442.995361328125 71.69617462158203 439.4825744628906 73.18193817138672 C 435.8460083007812 74.72011566162109 431.9826965332031 75.5 428 75.5 Z" stroke="none"/>
      <path d="M 30 1 C 26.0845947265625 1 22.28683471679688 1.766586303710938 18.71218872070312 3.278526306152344 C 15.25900268554688 4.739120483398438 12.15753173828125 6.830291748046875 9.493896484375 9.493881225585938 C 6.830291748046875 12.15752792358398 4.739105224609375 15.25899887084961 3.278533935546875 18.71217727661133 C 1.7666015625 22.28682327270508 1 26.08458709716797 1 30 L 1 46 C 1 49.91541290283203 1.7666015625 53.71317672729492 3.278533935546875 57.28782272338867 C 4.739105224609375 60.74100112915039 6.830291748046875 63.84246826171875 9.493896484375 66.50611877441406 C 12.15753173828125 69.16970825195312 15.25900268554688 71.26087951660156 18.71218872070312 72.72147369384766 C 22.28683471679688 74.23341369628906 26.0845947265625 75 30 75 L 428 75 C 431.9154052734375 75 435.7131652832031 74.23341369628906 439.2878112792969 72.72147369384766 C 442.7409973144531 71.26087951660156 445.8424682617188 69.16970825195312 448.506103515625 66.50611877441406 C 451.1697082519531 63.84246826171875 453.2608947753906 60.74100112915039 454.7214660644531 57.28782272338867 C 456.2333984375 53.71317672729492 457 49.91541290283203 457 46 L 457 30 C 457 26.08458709716797 456.2333984375 22.28682327270508 454.7214660644531 18.71217727661133 C 453.2608947753906 15.25899887084961 451.1697082519531 12.15752792358398 448.506103515625 9.493881225585938 C 445.8424682617188 6.830291748046875 442.7409973144531 4.739120483398438 439.2878112792969 3.278526306152344 C 435.7131652832031 1.766586303710938 431.9154052734375 1 428 1 L 30 1 M 30 0 L 428 0 C 444.5685424804688 0 458 13.43146896362305 458 30 L 458 46 C 458 62.56852722167969 444.5685424804688 76 428 76 L 30 76 C 13.43145751953125 76 0 62.56852722167969 0 46 L 0 30 C 0 13.43146896362305 13.43145751953125 0 30 0 Z" stroke="none" fill="#4a8af5"/>
    </g>
    <g id="Path_6804" data-name="Path 6804" transform="translate(1022.094 10687)" fill="#dfebff">
      <path d="M 550 75.5 L 30 75.5 C 26.01728630065918 75.5 22.15399932861328 74.72006988525391 18.51742935180664 73.18193054199219 C 15.00464248657227 71.69614410400391 11.84978580474854 69.56906890869141 9.14035701751709 66.85964202880859 C 6.431000232696533 64.15028381347656 4.303857326507568 60.99535751342773 2.818071365356445 57.48257064819336 C 1.27992856502533 53.84600067138672 0.5 49.98271560668945 0.5 46 L 0.5 30 C 0.5 26.01728630065918 1.27992856502533 22.15399932861328 2.818071365356445 18.51742935180664 C 4.303857326507568 15.00464248657227 6.431000232696533 11.8497142791748 9.14035701751709 9.14035701751709 C 11.84978580474854 6.430928707122803 15.00464248657227 4.303857326507568 18.51742935180664 2.818071365356445 C 22.15399932861328 1.27992856502533 26.01728630065918 0.5 30 0.5 L 550 0.5 C 553.9827270507812 0.5 557.8460083007812 1.27992856502533 561.4825439453125 2.818071365356445 C 564.995361328125 4.303857326507568 568.1502685546875 6.430928707122803 570.859619140625 9.14035701751709 C 573.569091796875 11.8497142791748 575.6961669921875 15.00464248657227 577.1819458007812 18.51742935180664 C 578.7200927734375 22.15399932861328 579.5 26.01728630065918 579.5 30 L 579.5 46 C 579.5 49.98271560668945 578.7200927734375 53.84600067138672 577.1819458007812 57.48257064819336 C 575.6961669921875 60.99535751342773 573.569091796875 64.15028381347656 570.859619140625 66.85964202880859 C 568.1502685546875 69.56906890869141 564.995361328125 71.69614410400391 561.4825439453125 73.18193054199219 C 557.8460083007812 74.72006988525391 553.9827270507812 75.5 550 75.5 Z" stroke="none"/>
      <path d="M 30 1 C 26.0845947265625 1 22.28680419921875 1.766639709472656 18.71221923828125 3.278572082519531 C 15.25897216796875 4.739143371582031 12.157470703125 6.830284118652344 9.49383544921875 9.493858337402344 C 6.83026123046875 12.15750122070312 4.7391357421875 15.25899887084961 3.278564453125 18.71221542358398 C 1.76666259765625 22.28678512573242 1 26.08457183837891 1 30 L 1 46 C 1 49.91542816162109 1.76666259765625 53.71321487426758 3.278564453125 57.28778839111328 C 4.7391357421875 60.74100112915039 6.83026123046875 63.84249877929688 9.49383544921875 66.50614166259766 C 12.157470703125 69.16971588134766 15.25897216796875 71.26085662841797 18.71221923828125 72.72142791748047 C 22.28680419921875 74.23336029052734 26.0845947265625 75 30 75 L 550 75 C 553.9154052734375 75 557.713134765625 74.23336029052734 561.2877807617188 72.72142791748047 C 564.7410278320312 71.26085662841797 567.8424072265625 69.16971588134766 570.5060424804688 66.50607299804688 C 573.1697387695312 63.84249877929688 575.2608642578125 60.74100112915039 576.721435546875 57.28778839111328 C 578.2333374023438 53.71321487426758 579 49.91542816162109 579 46 L 579 30 C 579 26.08457183837891 578.2333374023438 22.28678512573242 576.721435546875 18.71221542358398 C 575.2608642578125 15.25899887084961 573.1697387695312 12.15750122070312 570.5060424804688 9.493927001953125 C 567.8424072265625 6.830284118652344 564.7410278320312 4.739143371582031 561.2877807617188 3.278572082519531 C 557.713134765625 1.766639709472656 553.9154052734375 1 550 1 L 30 1 M 30 0 L 550 0 C 566.5684814453125 0 580 13.43142700195312 580 30 L 580 46 C 580 62.56857299804688 566.5684814453125 76 550 76 L 30 76 C 13.43145751953125 76 0 62.56857299804688 0 46 L 0 30 C 0 13.43142700195312 13.43145751953125 0 30 0 Z" stroke="none" fill="#4a8af5"/>
    </g>
    <path id="Path_6822" data-name="Path 6822" d="M-37.928-12.848c1.914,0,2.948.858,2.948,2.266s-1.012,2.266-2.948,2.266H-40.3v-4.532ZM-34.188,0h2.662l-3.652-6.6a4.274,4.274,0,0,0,2.662-4.048,4.175,4.175,0,0,0-.638-2.332c-.88-1.386-2.508-2.09-4.862-2.09H-42.7V0h2.4V-6.094l2.86-.022Zm6.248-6.006a2.642,2.642,0,0,1,2.464-2,2.672,2.672,0,0,1,2.508,2Zm7.3,2.068a7.461,7.461,0,0,0,.088-.99,5.32,5.32,0,0,0-.66-2.618A4.814,4.814,0,0,0-25.476-10.1a4.646,4.646,0,0,0-2.486.682A5.18,5.18,0,0,0-30.4-4.928a5.133,5.133,0,0,0,.682,2.6A5.127,5.127,0,0,0-25.256.22a6.382,6.382,0,0,0,4.312-1.628l-1.43-1.584a4.146,4.146,0,0,1-2.9,1.122,2.833,2.833,0,0,1-2.684-2.068Zm1.584,2.552a6.01,6.01,0,0,0,4,1.606c2.222,0,3.74-1.21,3.74-3.08,0-1.562-.99-2.53-2.992-3.124a6.087,6.087,0,0,1-1.628-.638A.739.739,0,0,1-16.3-7.26c0-.528.44-.88,1.254-.88A3.52,3.52,0,0,1-12.76-7.106L-11.55-8.8a5.331,5.331,0,0,0-3.476-1.3c-2.024,0-3.476,1.122-3.476,2.86,0,1.65.946,2.552,3.212,3.234a6.6,6.6,0,0,1,1.474.572.771.771,0,0,1,.308.616c0,.616-.572,1.056-1.54,1.056A3.875,3.875,0,0,1-17.82-3.1Zm12.078-4.62a2.642,2.642,0,0,1,2.464-2A2.672,2.672,0,0,1-2-6.006ZM.33-3.938a7.461,7.461,0,0,0,.088-.99,5.32,5.32,0,0,0-.66-2.618A4.814,4.814,0,0,0-4.51-10.1,4.646,4.646,0,0,0-7-9.416,5.18,5.18,0,0,0-9.438-4.928a5.133,5.133,0,0,0,.682,2.6A5.127,5.127,0,0,0-4.29.22,6.382,6.382,0,0,0,.022-1.408l-1.43-1.584a4.146,4.146,0,0,1-2.9,1.122A2.833,2.833,0,0,1-7-3.938ZM7.37-7.964a2.586,2.586,0,0,1,1.43.4,3.009,3.009,0,0,1,1.364,2.64,3.129,3.129,0,0,1-.374,1.54A2.675,2.675,0,0,1,7.37-1.914a2.617,2.617,0,0,1-1.408-.4A2.941,2.941,0,0,1,4.576-4.928,3.342,3.342,0,0,1,4.95-6.49,2.675,2.675,0,0,1,7.37-7.964ZM10.076,0h2.288V-9.878H10.34l-.2,1.1a4.1,4.1,0,0,0-3.08-1.32,4.7,4.7,0,0,0-2.464.66,5.189,5.189,0,0,0-2.354,4.51A5.424,5.424,0,0,0,2.882-2.31,4.619,4.619,0,0,0,7.062.22a4.2,4.2,0,0,0,3.014-1.232ZM20.394-7.656a2.373,2.373,0,0,1,.858.2l.022-2.266a.586.586,0,0,0-.286-.11h-.066l-.176.022a3.648,3.648,0,0,0-2.684,1.034v-1.1H15.8V0h2.266V-6.336A2.748,2.748,0,0,1,20.394-7.656ZM23.65-2.31A4.91,4.91,0,0,0,28.072.22a5.4,5.4,0,0,0,4-1.782L30.558-3.124a3.472,3.472,0,0,1-2.486,1.21,2.617,2.617,0,0,1-1.408-.4A2.971,2.971,0,0,1,25.3-4.928a3.342,3.342,0,0,1,.374-1.562,2.643,2.643,0,0,1,2.4-1.474A3.355,3.355,0,0,1,30.36-6.93l1.518-1.584A5.539,5.539,0,0,0,28.072-10.1a5.006,5.006,0,0,0-2.6.66,5.057,5.057,0,0,0-2.508,4.51A5.227,5.227,0,0,0,23.65-2.31ZM40.964,0h2.31V-5.83c0-2.728-1.43-4.422-3.806-4.422a3.928,3.928,0,0,0-2.882,1.32V-15.51H34.254V0h2.332V-6.424a2.938,2.938,0,0,1,2.4-1.628c1.232,0,1.98.88,1.98,2.442Z" transform="translate(338.094 10245)" fill="#241a1b" opacity="0.9"/>
    <path id="Path_6812" data-name="Path 6812" d="M-53.306.22a5.838,5.838,0,0,0,3.014-.748A5.966,5.966,0,0,0-47.63-5.9V-15.07h-2.442v9.13c0,2.486-1.21,3.894-3.234,3.894S-56.54-3.454-56.54-5.94v-9.13h-2.442V-5.9a7.016,7.016,0,0,0,.7,3.234A5.253,5.253,0,0,0-53.306.22Zm8.162-1.606a6.01,6.01,0,0,0,4,1.606c2.222,0,3.74-1.21,3.74-3.08,0-1.562-.99-2.53-2.992-3.124a6.087,6.087,0,0,1-1.628-.638.739.739,0,0,1-.374-.638c0-.528.44-.88,1.254-.88a3.52,3.52,0,0,1,2.288,1.034l1.21-1.694a5.331,5.331,0,0,0-3.476-1.3c-2.024,0-3.476,1.122-3.476,2.86,0,1.65.946,2.552,3.212,3.234a6.6,6.6,0,0,1,1.474.572.771.771,0,0,1,.308.616c0,.616-.572,1.056-1.54,1.056A3.875,3.875,0,0,1-43.912-3.1Zm12.078-4.62a2.642,2.642,0,0,1,2.464-2,2.672,2.672,0,0,1,2.508,2Zm7.3,2.068a7.461,7.461,0,0,0,.088-.99,5.32,5.32,0,0,0-.66-2.618A4.814,4.814,0,0,0-30.6-10.1a4.646,4.646,0,0,0-2.486.682A5.18,5.18,0,0,0-35.53-4.928a5.133,5.133,0,0,0,.682,2.6A5.127,5.127,0,0,0-30.382.22,6.382,6.382,0,0,0-26.07-1.408L-27.5-2.992A4.146,4.146,0,0,1-30.4-1.87a2.833,2.833,0,0,1-2.684-2.068Zm7.216-3.718a2.373,2.373,0,0,1,.858.2l.022-2.266a.586.586,0,0,0-.286-.11h-.066l-.176.022a3.648,3.648,0,0,0-2.684,1.034v-1.1h-2.266V0h2.266V-6.336A2.748,2.748,0,0,1-18.546-7.656ZM-4.84-12.848H-.418V-15.07H-11.7v2.222h4.422V0H-4.84ZM3.476-6.006a2.642,2.642,0,0,1,2.464-2,2.672,2.672,0,0,1,2.508,2Zm7.3,2.068a7.461,7.461,0,0,0,.088-.99,5.32,5.32,0,0,0-.66-2.618A4.814,4.814,0,0,0,5.94-10.1a4.646,4.646,0,0,0-2.486.682A5.18,5.18,0,0,0,1.012-4.928a5.133,5.133,0,0,0,.682,2.6A5.127,5.127,0,0,0,6.16.22a6.382,6.382,0,0,0,4.312-1.628L9.042-2.992a4.146,4.146,0,0,1-2.9,1.122A2.833,2.833,0,0,1,3.454-3.938Zm1.584,2.552a6.01,6.01,0,0,0,4,1.606c2.222,0,3.74-1.21,3.74-3.08,0-1.562-.99-2.53-2.992-3.124a6.087,6.087,0,0,1-1.628-.638.739.739,0,0,1-.374-.638c0-.528.44-.88,1.254-.88a3.52,3.52,0,0,1,2.288,1.034L19.866-8.8a5.331,5.331,0,0,0-3.476-1.3c-2.024,0-3.476,1.122-3.476,2.86,0,1.65.946,2.552,3.212,3.234a6.6,6.6,0,0,1,1.474.572.771.771,0,0,1,.308.616c0,.616-.572,1.056-1.54,1.056A3.875,3.875,0,0,1,13.6-3.1ZM23.54-9.966l-2.068.11v2H23.43v4.378c0,2.288,1.276,3.7,3.322,3.7A4.035,4.035,0,0,0,29.7-1.122L28.49-2.794a2.315,2.315,0,0,1-1.518.836c-.726,0-1.21-.55-1.21-1.54V-7.854H29V-9.966H25.762v-2.728h-1.98ZM31.7,0h2.332V-10.01H31.7Zm-.154-12.892a1.424,1.424,0,0,0,1.3,1.5,1.426,1.426,0,0,0,1.32-1.5,1.426,1.426,0,0,0-1.32-1.5A1.424,1.424,0,0,0,31.548-12.892ZM44,0h2.332V-5.764c0-2.706-1.43-4.334-3.828-4.334a4.094,4.094,0,0,0-2.97,1.408l-.22-1.188H37.29V0h2.332V-6.336a2.96,2.96,0,0,1,2.42-1.584c1.232,0,1.958.88,1.958,2.4ZM54.142-7.942a2.749,2.749,0,0,1,1.43.4,3.086,3.086,0,0,1,1.364,2.684A3.216,3.216,0,0,1,56.562-3.3a2.7,2.7,0,0,1-2.42,1.5,2.586,2.586,0,0,1-1.408-.4,3.016,3.016,0,0,1-1.386-2.662,3.368,3.368,0,0,1,.374-1.584A2.7,2.7,0,0,1,54.142-7.942ZM54.186,4.62A6.378,6.378,0,0,0,57.112,4c1.716-.88,2.024-1.782,2.024-3.872V-9.878H57.112l-.2,1.1a4.1,4.1,0,0,0-3.08-1.32,4.466,4.466,0,0,0-2.464.682,5.239,5.239,0,0,0-2.354,4.554,5.449,5.449,0,0,0,.638,2.64A4.66,4.66,0,0,0,53.834.352a4.221,4.221,0,0,0,3.344-1.628V.132c0,1.606-.946,2.354-3.058,2.354a5.074,5.074,0,0,1-1.672-.242A6.136,6.136,0,0,1,50.754,1.1L49.522,2.882A6.863,6.863,0,0,0,51.7,4.268,7.524,7.524,0,0,0,54.186,4.62Z" transform="translate(1134.094 10268)" fill="#241a1b" opacity="0.9"/>
    <path id="Path_6821" data-name="Path 6821" d="M-43.054.22A5.838,5.838,0,0,0-40.04-.528,5.966,5.966,0,0,0-37.378-5.9V-15.07H-39.82v9.13c0,2.486-1.21,3.894-3.234,3.894s-3.234-1.408-3.234-3.894v-9.13H-48.73V-5.9a7.016,7.016,0,0,0,.7,3.234A5.253,5.253,0,0,0-43.054.22ZM-24.574,0h2.86l-5.324-7.788,4.95-7.282h-2.706l-3.608,5.3-3.608-5.3h-2.86l4.95,7.26L-35.244,0h2.706l3.982-5.83Zm14.08-12.8c3.63,0,5.786,1.958,5.786,5.28,0,3.278-2.178,5.28-5.786,5.28h-1.5V-12.8ZM-10.6,0A10.186,10.186,0,0,0-6.138-.924,6.892,6.892,0,0,0-2.2-7.524,7.6,7.6,0,0,0-3.212-11.55c-1.386-2.288-3.96-3.52-7.392-3.52h-3.828V0ZM2.376-6.006a2.642,2.642,0,0,1,2.464-2,2.672,2.672,0,0,1,2.508,2Zm7.3,2.068a7.461,7.461,0,0,0,.088-.99,5.32,5.32,0,0,0-.66-2.618A4.814,4.814,0,0,0,4.84-10.1a4.646,4.646,0,0,0-2.486.682A5.18,5.18,0,0,0-.088-4.928a5.133,5.133,0,0,0,.682,2.6A5.127,5.127,0,0,0,5.06.22,6.382,6.382,0,0,0,9.372-1.408L7.942-2.992a4.146,4.146,0,0,1-2.9,1.122A2.833,2.833,0,0,1,2.354-3.938Zm1.584,2.552a6.01,6.01,0,0,0,4,1.606c2.222,0,3.74-1.21,3.74-3.08,0-1.562-.99-2.53-2.992-3.124a6.087,6.087,0,0,1-1.628-.638.739.739,0,0,1-.374-.638c0-.528.44-.88,1.254-.88a3.52,3.52,0,0,1,2.288,1.034L18.766-8.8a5.331,5.331,0,0,0-3.476-1.3c-2.024,0-3.476,1.122-3.476,2.86,0,1.65.946,2.552,3.212,3.234a6.6,6.6,0,0,1,1.474.572.771.771,0,0,1,.308.616c0,.616-.572,1.056-1.54,1.056A3.875,3.875,0,0,1,12.5-3.1ZM21.45,0h2.332V-10.01H21.45ZM21.3-12.892a1.424,1.424,0,0,0,1.3,1.5,1.426,1.426,0,0,0,1.32-1.5,1.426,1.426,0,0,0-1.32-1.5A1.424,1.424,0,0,0,21.3-12.892Zm10.3,4.95a2.749,2.749,0,0,1,1.43.4,3.086,3.086,0,0,1,1.364,2.684A3.216,3.216,0,0,1,34.012-3.3a2.7,2.7,0,0,1-2.42,1.5,2.586,2.586,0,0,1-1.408-.4A3.016,3.016,0,0,1,28.8-4.862a3.367,3.367,0,0,1,.374-1.584A2.7,2.7,0,0,1,31.592-7.942ZM31.636,4.62A6.378,6.378,0,0,0,34.562,4c1.716-.88,2.024-1.782,2.024-3.872V-9.878H34.562l-.2,1.1a4.1,4.1,0,0,0-3.08-1.32,4.466,4.466,0,0,0-2.464.682,5.239,5.239,0,0,0-2.354,4.554,5.45,5.45,0,0,0,.638,2.64A4.66,4.66,0,0,0,31.284.352a4.221,4.221,0,0,0,3.344-1.628V.132c0,1.606-.946,2.354-3.058,2.354A5.074,5.074,0,0,1,29.9,2.244,6.136,6.136,0,0,1,28.2,1.1L26.972,2.882A6.863,6.863,0,0,0,29.15,4.268,7.524,7.524,0,0,0,31.636,4.62ZM46.662,0h2.332V-5.764c0-2.706-1.43-4.334-3.828-4.334A4.094,4.094,0,0,0,42.2-8.69l-.22-1.188H39.952V0h2.332V-6.336A2.96,2.96,0,0,1,44.7-7.92c1.232,0,1.958.88,1.958,2.4Z" transform="translate(490.094 10396)" fill="#241a1b" opacity="0.9"/>
    <path id="Path_6813" data-name="Path 6813" d="M-43.054.22A5.838,5.838,0,0,0-40.04-.528,5.966,5.966,0,0,0-37.378-5.9V-15.07H-39.82v9.13c0,2.486-1.21,3.894-3.234,3.894s-3.234-1.408-3.234-3.894v-9.13H-48.73V-5.9a7.016,7.016,0,0,0,.7,3.234A5.253,5.253,0,0,0-43.054.22ZM-24.574,0h2.86l-5.324-7.788,4.95-7.282h-2.706l-3.608,5.3-3.608-5.3h-2.86l4.95,7.26L-35.244,0h2.706l3.982-5.83Zm14.08-12.8c3.63,0,5.786,1.958,5.786,5.28,0,3.278-2.178,5.28-5.786,5.28h-1.5V-12.8ZM-10.6,0A10.186,10.186,0,0,0-6.138-.924,6.892,6.892,0,0,0-2.2-7.524,7.6,7.6,0,0,0-3.212-11.55c-1.386-2.288-3.96-3.52-7.392-3.52h-3.828V0ZM2.376-6.006a2.642,2.642,0,0,1,2.464-2,2.672,2.672,0,0,1,2.508,2Zm7.3,2.068a7.461,7.461,0,0,0,.088-.99,5.32,5.32,0,0,0-.66-2.618A4.814,4.814,0,0,0,4.84-10.1a4.646,4.646,0,0,0-2.486.682A5.18,5.18,0,0,0-.088-4.928a5.133,5.133,0,0,0,.682,2.6A5.127,5.127,0,0,0,5.06.22,6.382,6.382,0,0,0,9.372-1.408L7.942-2.992a4.146,4.146,0,0,1-2.9,1.122A2.833,2.833,0,0,1,2.354-3.938Zm1.584,2.552a6.01,6.01,0,0,0,4,1.606c2.222,0,3.74-1.21,3.74-3.08,0-1.562-.99-2.53-2.992-3.124a6.087,6.087,0,0,1-1.628-.638.739.739,0,0,1-.374-.638c0-.528.44-.88,1.254-.88a3.52,3.52,0,0,1,2.288,1.034L18.766-8.8a5.331,5.331,0,0,0-3.476-1.3c-2.024,0-3.476,1.122-3.476,2.86,0,1.65.946,2.552,3.212,3.234a6.6,6.6,0,0,1,1.474.572.771.771,0,0,1,.308.616c0,.616-.572,1.056-1.54,1.056A3.875,3.875,0,0,1,12.5-3.1ZM21.45,0h2.332V-10.01H21.45ZM21.3-12.892a1.424,1.424,0,0,0,1.3,1.5,1.426,1.426,0,0,0,1.32-1.5,1.426,1.426,0,0,0-1.32-1.5A1.424,1.424,0,0,0,21.3-12.892Zm10.3,4.95a2.749,2.749,0,0,1,1.43.4,3.086,3.086,0,0,1,1.364,2.684A3.216,3.216,0,0,1,34.012-3.3a2.7,2.7,0,0,1-2.42,1.5,2.586,2.586,0,0,1-1.408-.4A3.016,3.016,0,0,1,28.8-4.862a3.367,3.367,0,0,1,.374-1.584A2.7,2.7,0,0,1,31.592-7.942ZM31.636,4.62A6.378,6.378,0,0,0,34.562,4c1.716-.88,2.024-1.782,2.024-3.872V-9.878H34.562l-.2,1.1a4.1,4.1,0,0,0-3.08-1.32,4.466,4.466,0,0,0-2.464.682,5.239,5.239,0,0,0-2.354,4.554,5.45,5.45,0,0,0,.638,2.64A4.66,4.66,0,0,0,31.284.352a4.221,4.221,0,0,0,3.344-1.628V.132c0,1.606-.946,2.354-3.058,2.354A5.074,5.074,0,0,1,29.9,2.244,6.136,6.136,0,0,1,28.2,1.1L26.972,2.882A6.863,6.863,0,0,0,29.15,4.268,7.524,7.524,0,0,0,31.636,4.62ZM46.662,0h2.332V-5.764c0-2.706-1.43-4.334-3.828-4.334A4.094,4.094,0,0,0,42.2-8.69l-.22-1.188H39.952V0h2.332V-6.336A2.96,2.96,0,0,1,44.7-7.92c1.232,0,1.958.88,1.958,2.4Z" transform="translate(1136.094 10429)" fill="#241a1b" opacity="0.9"/>
    <path id="Path_6805" data-name="Path 6805" d="M-39.116.22A5.838,5.838,0,0,0-36.1-.528,5.966,5.966,0,0,0-33.44-5.9V-15.07h-2.442v9.13c0,2.486-1.21,3.894-3.234,3.894S-42.35-3.454-42.35-5.94v-9.13h-2.442V-5.9a7.016,7.016,0,0,0,.7,3.234A5.253,5.253,0,0,0-39.116.22ZM-29.744,0h2.42V-15.07h-2.42Zm15.312-12.8c3.63,0,5.786,1.958,5.786,5.28,0,3.278-2.178,5.28-5.786,5.28h-1.5V-12.8ZM-14.542,0a10.186,10.186,0,0,0,4.466-.924,6.892,6.892,0,0,0,3.938-6.6A7.6,7.6,0,0,0-7.15-11.55c-1.386-2.288-3.96-3.52-7.392-3.52H-18.37V0Zm12.98-6.006a2.642,2.642,0,0,1,2.464-2,2.672,2.672,0,0,1,2.508,2Zm7.3,2.068a7.461,7.461,0,0,0,.088-.99,5.32,5.32,0,0,0-.66-2.618A4.814,4.814,0,0,0,.9-10.1a4.646,4.646,0,0,0-2.486.682A5.18,5.18,0,0,0-4.026-4.928a5.133,5.133,0,0,0,.682,2.6A5.127,5.127,0,0,0,1.122.22,6.382,6.382,0,0,0,5.434-1.408L4-2.992A4.146,4.146,0,0,1,1.1-1.87,2.833,2.833,0,0,1-1.584-3.938ZM7.326-1.386a6.01,6.01,0,0,0,4,1.606c2.222,0,3.74-1.21,3.74-3.08,0-1.562-.99-2.53-2.992-3.124a6.087,6.087,0,0,1-1.628-.638.739.739,0,0,1-.374-.638c0-.528.44-.88,1.254-.88a3.52,3.52,0,0,1,2.288,1.034L14.828-8.8a5.331,5.331,0,0,0-3.476-1.3c-2.024,0-3.476,1.122-3.476,2.86,0,1.65.946,2.552,3.212,3.234a6.6,6.6,0,0,1,1.474.572.771.771,0,0,1,.308.616c0,.616-.572,1.056-1.54,1.056A3.875,3.875,0,0,1,8.558-3.1ZM17.512,0h2.332V-10.01H17.512Zm-.154-12.892a1.424,1.424,0,0,0,1.3,1.5,1.426,1.426,0,0,0,1.32-1.5,1.426,1.426,0,0,0-1.32-1.5A1.424,1.424,0,0,0,17.358-12.892Zm10.3,4.95a2.749,2.749,0,0,1,1.43.4,3.086,3.086,0,0,1,1.364,2.684A3.216,3.216,0,0,1,30.074-3.3a2.7,2.7,0,0,1-2.42,1.5,2.586,2.586,0,0,1-1.408-.4A3.016,3.016,0,0,1,24.86-4.862a3.367,3.367,0,0,1,.374-1.584A2.7,2.7,0,0,1,27.654-7.942ZM27.7,4.62A6.378,6.378,0,0,0,30.624,4c1.716-.88,2.024-1.782,2.024-3.872V-9.878H30.624l-.2,1.1a4.1,4.1,0,0,0-3.08-1.32,4.466,4.466,0,0,0-2.464.682,5.239,5.239,0,0,0-2.354,4.554,5.45,5.45,0,0,0,.638,2.64A4.66,4.66,0,0,0,27.346.352,4.221,4.221,0,0,0,30.69-1.276V.132c0,1.606-.946,2.354-3.058,2.354a5.074,5.074,0,0,1-1.672-.242A6.136,6.136,0,0,1,24.266,1.1L23.034,2.882a6.863,6.863,0,0,0,2.178,1.386A7.524,7.524,0,0,0,27.7,4.62ZM42.724,0h2.332V-5.764c0-2.706-1.43-4.334-3.828-4.334a4.094,4.094,0,0,0-2.97,1.408l-.22-1.188H36.014V0h2.332V-6.336a2.96,2.96,0,0,1,2.42-1.584c1.232,0,1.958.88,1.958,2.4Z" transform="translate(1265.094 10586)" fill="#241a1b" opacity="0.9"/>
    <path id="Path_6814" data-name="Path 6814" d="M-39.116.22A5.838,5.838,0,0,0-36.1-.528,5.966,5.966,0,0,0-33.44-5.9V-15.07h-2.442v9.13c0,2.486-1.21,3.894-3.234,3.894S-42.35-3.454-42.35-5.94v-9.13h-2.442V-5.9a7.016,7.016,0,0,0,.7,3.234A5.253,5.253,0,0,0-39.116.22ZM-29.744,0h2.42V-15.07h-2.42Zm15.312-12.8c3.63,0,5.786,1.958,5.786,5.28,0,3.278-2.178,5.28-5.786,5.28h-1.5V-12.8ZM-14.542,0a10.186,10.186,0,0,0,4.466-.924,6.892,6.892,0,0,0,3.938-6.6A7.6,7.6,0,0,0-7.15-11.55c-1.386-2.288-3.96-3.52-7.392-3.52H-18.37V0Zm12.98-6.006a2.642,2.642,0,0,1,2.464-2,2.672,2.672,0,0,1,2.508,2Zm7.3,2.068a7.461,7.461,0,0,0,.088-.99,5.32,5.32,0,0,0-.66-2.618A4.814,4.814,0,0,0,.9-10.1a4.646,4.646,0,0,0-2.486.682A5.18,5.18,0,0,0-4.026-4.928a5.133,5.133,0,0,0,.682,2.6A5.127,5.127,0,0,0,1.122.22,6.382,6.382,0,0,0,5.434-1.408L4-2.992A4.146,4.146,0,0,1,1.1-1.87,2.833,2.833,0,0,1-1.584-3.938ZM7.326-1.386a6.01,6.01,0,0,0,4,1.606c2.222,0,3.74-1.21,3.74-3.08,0-1.562-.99-2.53-2.992-3.124a6.087,6.087,0,0,1-1.628-.638.739.739,0,0,1-.374-.638c0-.528.44-.88,1.254-.88a3.52,3.52,0,0,1,2.288,1.034L14.828-8.8a5.331,5.331,0,0,0-3.476-1.3c-2.024,0-3.476,1.122-3.476,2.86,0,1.65.946,2.552,3.212,3.234a6.6,6.6,0,0,1,1.474.572.771.771,0,0,1,.308.616c0,.616-.572,1.056-1.54,1.056A3.875,3.875,0,0,1,8.558-3.1ZM17.512,0h2.332V-10.01H17.512Zm-.154-12.892a1.424,1.424,0,0,0,1.3,1.5,1.426,1.426,0,0,0,1.32-1.5,1.426,1.426,0,0,0-1.32-1.5A1.424,1.424,0,0,0,17.358-12.892Zm10.3,4.95a2.749,2.749,0,0,1,1.43.4,3.086,3.086,0,0,1,1.364,2.684A3.216,3.216,0,0,1,30.074-3.3a2.7,2.7,0,0,1-2.42,1.5,2.586,2.586,0,0,1-1.408-.4A3.016,3.016,0,0,1,24.86-4.862a3.367,3.367,0,0,1,.374-1.584A2.7,2.7,0,0,1,27.654-7.942ZM27.7,4.62A6.378,6.378,0,0,0,30.624,4c1.716-.88,2.024-1.782,2.024-3.872V-9.878H30.624l-.2,1.1a4.1,4.1,0,0,0-3.08-1.32,4.466,4.466,0,0,0-2.464.682,5.239,5.239,0,0,0-2.354,4.554,5.45,5.45,0,0,0,.638,2.64A4.66,4.66,0,0,0,27.346.352,4.221,4.221,0,0,0,30.69-1.276V.132c0,1.606-.946,2.354-3.058,2.354a5.074,5.074,0,0,1-1.672-.242A6.136,6.136,0,0,1,24.266,1.1L23.034,2.882a6.863,6.863,0,0,0,2.178,1.386A7.524,7.524,0,0,0,27.7,4.62ZM42.724,0h2.332V-5.764c0-2.706-1.43-4.334-3.828-4.334a4.094,4.094,0,0,0-2.97,1.408l-.22-1.188H36.014V0h2.332V-6.336a2.96,2.96,0,0,1,2.42-1.584c1.232,0,1.958.88,1.958,2.4Z" transform="translate(644.094 10533)" fill="#241a1b" opacity="0.9"/>
    <path id="Path_6815" data-name="Path 6815" d="M-59.983-12.8c3.63,0,5.786,1.958,5.786,5.28,0,3.278-2.178,5.28-5.786,5.28h-1.5V-12.8ZM-60.093,0a10.186,10.186,0,0,0,4.466-.924,6.892,6.892,0,0,0,3.938-6.6A7.6,7.6,0,0,0-52.7-11.55c-1.386-2.288-3.96-3.52-7.392-3.52h-3.828V0Zm12.98-6.006a2.642,2.642,0,0,1,2.464-2,2.672,2.672,0,0,1,2.508,2Zm7.3,2.068a7.461,7.461,0,0,0,.088-.99,5.32,5.32,0,0,0-.66-2.618A4.814,4.814,0,0,0-44.649-10.1a4.646,4.646,0,0,0-2.486.682,5.18,5.18,0,0,0-2.442,4.488,5.133,5.133,0,0,0,.682,2.6A5.127,5.127,0,0,0-44.429.22a6.382,6.382,0,0,0,4.312-1.628l-1.43-1.584a4.146,4.146,0,0,1-2.9,1.122,2.833,2.833,0,0,1-2.684-2.068ZM-32.439,0l4-9.878h-2.376L-33.5-2.97l-2.684-6.908h-2.486l4,9.878Zm7.7-6.006a2.642,2.642,0,0,1,2.464-2,2.672,2.672,0,0,1,2.508,2Zm7.3,2.068a7.461,7.461,0,0,0,.088-.99,5.32,5.32,0,0,0-.66-2.618A4.814,4.814,0,0,0-22.275-10.1a4.646,4.646,0,0,0-2.486.682A5.18,5.18,0,0,0-27.2-4.928a5.133,5.133,0,0,0,.682,2.6A5.127,5.127,0,0,0-22.055.22a6.382,6.382,0,0,0,4.312-1.628l-1.43-1.584a4.146,4.146,0,0,1-2.9,1.122,2.833,2.833,0,0,1-2.684-2.068ZM-14.971,0h2.332V-15.51h-2.332Zm10.01-7.964a2.586,2.586,0,0,1,1.43.4,2.983,2.983,0,0,1,1.364,2.64,3.253,3.253,0,0,1-.374,1.54,2.675,2.675,0,0,1-2.42,1.474,2.617,2.617,0,0,1-1.408-.4A2.941,2.941,0,0,1-7.755-4.928a3.053,3.053,0,0,1,.4-1.562A2.643,2.643,0,0,1-4.961-7.964Zm0,8.184A5.227,5.227,0,0,0-2.343-.462,4.986,4.986,0,0,0,.165-4.928,5.368,5.368,0,0,0-.5-7.59,4.986,4.986,0,0,0-4.961-10.1a5.2,5.2,0,0,0-2.618.66,5.057,5.057,0,0,0-2.508,4.51A5.227,5.227,0,0,0-9.405-2.31,4.969,4.969,0,0,0-4.961.22ZM7.887-7.942a2.749,2.749,0,0,1,1.43.4,3.047,3.047,0,0,1,1.364,2.662,3.342,3.342,0,0,1-.374,1.562A2.717,2.717,0,0,1,7.887-1.8a2.586,2.586,0,0,1-1.408-.4A3.1,3.1,0,0,1,5.093-4.884a3.482,3.482,0,0,1,.374-1.562A2.672,2.672,0,0,1,7.887-7.942ZM8.195.352a4.7,4.7,0,0,0,2.464-.7,5.174,5.174,0,0,0,2.354-4.532A5.468,5.468,0,0,0,12.4-7.546a4.648,4.648,0,0,0-4.2-2.552,4.1,4.1,0,0,0-3.08,1.32l-.2-1.1H2.893V4.4H5.225V-.858A4.033,4.033,0,0,0,8.195.352ZM29.007,0h2.376V-5.764c0-2.706-1.408-4.334-3.784-4.334a4.528,4.528,0,0,0-3.41,1.738A3.622,3.622,0,0,0,20.955-10.1a4.014,4.014,0,0,0-2.926,1.386l-.22-1.166H15.741V0h2.376V-6.336a2.847,2.847,0,0,1,2.354-1.606c1.21,0,1.914.836,1.914,2.42V0h2.354V-6.138c.682-1.21,1.452-1.8,2.354-1.8,1.21,0,1.914.836,1.914,2.42Zm7.37-6.006a2.642,2.642,0,0,1,2.464-2,2.672,2.672,0,0,1,2.508,2Zm7.3,2.068a7.461,7.461,0,0,0,.088-.99,5.32,5.32,0,0,0-.66-2.618A4.814,4.814,0,0,0,38.841-10.1a4.646,4.646,0,0,0-2.486.682,5.18,5.18,0,0,0-2.442,4.488,5.133,5.133,0,0,0,.682,2.6A5.127,5.127,0,0,0,39.061.22a6.382,6.382,0,0,0,4.312-1.628l-1.43-1.584a4.146,4.146,0,0,1-2.9,1.122,2.833,2.833,0,0,1-2.684-2.068ZM53.009,0h2.332V-5.764c0-2.706-1.43-4.334-3.828-4.334a4.094,4.094,0,0,0-2.97,1.408l-.22-1.188H46.3V0h2.332V-6.336a2.96,2.96,0,0,1,2.42-1.584c1.232,0,1.958.88,1.958,2.4Zm6.424-9.966-2.068.11v2h1.958v4.378c0,2.288,1.276,3.7,3.322,3.7a4.035,4.035,0,0,0,2.948-1.342l-1.21-1.672a2.315,2.315,0,0,1-1.518.836c-.726,0-1.21-.55-1.21-1.54V-7.854h3.234V-9.966H61.655v-2.728h-1.98Z" transform="translate(531.094 10666)" fill="#241a1b" opacity="0.9"/>
    <path id="Path_6806" data-name="Path 6806" d="M-59.983-12.8c3.63,0,5.786,1.958,5.786,5.28,0,3.278-2.178,5.28-5.786,5.28h-1.5V-12.8ZM-60.093,0a10.186,10.186,0,0,0,4.466-.924,6.892,6.892,0,0,0,3.938-6.6A7.6,7.6,0,0,0-52.7-11.55c-1.386-2.288-3.96-3.52-7.392-3.52h-3.828V0Zm12.98-6.006a2.642,2.642,0,0,1,2.464-2,2.672,2.672,0,0,1,2.508,2Zm7.3,2.068a7.461,7.461,0,0,0,.088-.99,5.32,5.32,0,0,0-.66-2.618A4.814,4.814,0,0,0-44.649-10.1a4.646,4.646,0,0,0-2.486.682,5.18,5.18,0,0,0-2.442,4.488,5.133,5.133,0,0,0,.682,2.6A5.127,5.127,0,0,0-44.429.22a6.382,6.382,0,0,0,4.312-1.628l-1.43-1.584a4.146,4.146,0,0,1-2.9,1.122,2.833,2.833,0,0,1-2.684-2.068ZM-32.439,0l4-9.878h-2.376L-33.5-2.97l-2.684-6.908h-2.486l4,9.878Zm7.7-6.006a2.642,2.642,0,0,1,2.464-2,2.672,2.672,0,0,1,2.508,2Zm7.3,2.068a7.461,7.461,0,0,0,.088-.99,5.32,5.32,0,0,0-.66-2.618A4.814,4.814,0,0,0-22.275-10.1a4.646,4.646,0,0,0-2.486.682A5.18,5.18,0,0,0-27.2-4.928a5.133,5.133,0,0,0,.682,2.6A5.127,5.127,0,0,0-22.055.22a6.382,6.382,0,0,0,4.312-1.628l-1.43-1.584a4.146,4.146,0,0,1-2.9,1.122,2.833,2.833,0,0,1-2.684-2.068ZM-14.971,0h2.332V-15.51h-2.332Zm10.01-7.964a2.586,2.586,0,0,1,1.43.4,2.983,2.983,0,0,1,1.364,2.64,3.253,3.253,0,0,1-.374,1.54,2.675,2.675,0,0,1-2.42,1.474,2.617,2.617,0,0,1-1.408-.4A2.941,2.941,0,0,1-7.755-4.928a3.053,3.053,0,0,1,.4-1.562A2.643,2.643,0,0,1-4.961-7.964Zm0,8.184A5.227,5.227,0,0,0-2.343-.462,4.986,4.986,0,0,0,.165-4.928,5.368,5.368,0,0,0-.5-7.59,4.986,4.986,0,0,0-4.961-10.1a5.2,5.2,0,0,0-2.618.66,5.057,5.057,0,0,0-2.508,4.51A5.227,5.227,0,0,0-9.405-2.31,4.969,4.969,0,0,0-4.961.22ZM7.887-7.942a2.749,2.749,0,0,1,1.43.4,3.047,3.047,0,0,1,1.364,2.662,3.342,3.342,0,0,1-.374,1.562A2.717,2.717,0,0,1,7.887-1.8a2.586,2.586,0,0,1-1.408-.4A3.1,3.1,0,0,1,5.093-4.884a3.482,3.482,0,0,1,.374-1.562A2.672,2.672,0,0,1,7.887-7.942ZM8.195.352a4.7,4.7,0,0,0,2.464-.7,5.174,5.174,0,0,0,2.354-4.532A5.468,5.468,0,0,0,12.4-7.546a4.648,4.648,0,0,0-4.2-2.552,4.1,4.1,0,0,0-3.08,1.32l-.2-1.1H2.893V4.4H5.225V-.858A4.033,4.033,0,0,0,8.195.352ZM29.007,0h2.376V-5.764c0-2.706-1.408-4.334-3.784-4.334a4.528,4.528,0,0,0-3.41,1.738A3.622,3.622,0,0,0,20.955-10.1a4.014,4.014,0,0,0-2.926,1.386l-.22-1.166H15.741V0h2.376V-6.336a2.847,2.847,0,0,1,2.354-1.606c1.21,0,1.914.836,1.914,2.42V0h2.354V-6.138c.682-1.21,1.452-1.8,2.354-1.8,1.21,0,1.914.836,1.914,2.42Zm7.37-6.006a2.642,2.642,0,0,1,2.464-2,2.672,2.672,0,0,1,2.508,2Zm7.3,2.068a7.461,7.461,0,0,0,.088-.99,5.32,5.32,0,0,0-.66-2.618A4.814,4.814,0,0,0,38.841-10.1a4.646,4.646,0,0,0-2.486.682,5.18,5.18,0,0,0-2.442,4.488,5.133,5.133,0,0,0,.682,2.6A5.127,5.127,0,0,0,39.061.22a6.382,6.382,0,0,0,4.312-1.628l-1.43-1.584a4.146,4.146,0,0,1-2.9,1.122,2.833,2.833,0,0,1-2.684-2.068ZM53.009,0h2.332V-5.764c0-2.706-1.43-4.334-3.828-4.334a4.094,4.094,0,0,0-2.97,1.408l-.22-1.188H46.3V0h2.332V-6.336a2.96,2.96,0,0,1,2.42-1.584c1.232,0,1.958.88,1.958,2.4Zm6.424-9.966-2.068.11v2h1.958v4.378c0,2.288,1.276,3.7,3.322,3.7a4.035,4.035,0,0,0,2.948-1.342l-1.21-1.672a2.315,2.315,0,0,1-1.518.836c-.726,0-1.21-.55-1.21-1.54V-7.854h3.234V-9.966H61.655v-2.728h-1.98Z" transform="translate(1126.094 10735)" fill="#241a1b" opacity="0.9"/>
    <g id="Path_6816" data-name="Path 6816" transform="translate(175.094 9925)" fill="none">
      <path d="M30,0H857a30,30,0,0,1,30,30V63a30,30,0,0,1-30,30H30A30,30,0,0,1,0,63V30A30,30,0,0,1,30,0Z" stroke="none"/>
      <path d="M 30 1 C 26.08453369140625 1 22.28680419921875 1.766670227050781 18.71221923828125 3.278556823730469 C 15.25897216796875 4.739112854003906 12.15753173828125 6.830223083496094 9.493896484375 9.493888854980469 C 6.8302001953125 12.15755462646484 4.7391357421875 15.25900268554688 3.278564453125 18.71221923828125 C 1.76666259765625 22.28678131103516 1 26.08455657958984 1 30 L 1 63 C 1 66.91544342041016 1.76666259765625 70.71322631835938 3.278564453125 74.28778076171875 C 4.7391357421875 77.74099731445312 6.8302001953125 80.84244537353516 9.493896484375 83.50611114501953 C 12.15753173828125 86.16977691650391 15.25897216796875 88.26088714599609 18.71221923828125 89.72144317626953 C 22.28680419921875 91.23332977294922 26.08453369140625 92 30 92 L 857 92 C 860.9154663085938 92 864.7131958007812 91.23332977294922 868.2877807617188 89.72144317626953 C 871.7410278320312 88.26088714599609 874.8424682617188 86.16977691650391 877.506103515625 83.50611114501953 C 880.1697998046875 80.84244537353516 882.2608642578125 77.74099731445312 883.721435546875 74.28778076171875 C 885.2333374023438 70.71322631835938 886 66.91544342041016 886 63 L 886 30 C 886 26.08455657958984 885.2333374023438 22.28678131103516 883.721435546875 18.71221923828125 C 882.2608642578125 15.25900268554688 880.1697998046875 12.15755462646484 877.506103515625 9.493888854980469 C 874.8424682617188 6.830223083496094 871.7410278320312 4.739112854003906 868.2877807617188 3.278556823730469 C 864.7131958007812 1.766670227050781 860.9154663085938 1 857 1 L 30 1 M 30 0 L 857 0 C 873.5685424804688 0 887 13.43144226074219 887 30 L 887 63 C 887 79.56855773925781 873.5685424804688 93 857 93 L 30 93 C 13.43145751953125 93 0 79.56855773925781 0 63 L 0 30 C 0 13.43144226074219 13.43145751953125 0 30 0 Z" stroke="none" fill="#241a1b"/>
    </g>
    <g id="Path_6817" data-name="Path 6817" transform="translate(1091.094 9925)" fill="none">
      <path d="M26,0H648a26,26,0,0,1,26,26V67a26,26,0,0,1-26,26H26A26,26,0,0,1,0,67V26A26,26,0,0,1,26,0Z" stroke="none"/>
      <path d="M 26 1 C 22.62457275390625 1 19.35064697265625 1.660835266113281 16.2691650390625 2.964248657226562 C 13.2923583984375 4.223335266113281 10.61859130859375 6.026084899902344 8.32232666015625 8.322334289550781 C 6.02606201171875 10.61858367919922 4.22332763671875 13.29233551025391 2.9642333984375 16.2691650390625 C 1.66082763671875 19.35066986083984 1 22.62458038330078 1 26 L 1 67 C 1 70.37541198730469 1.66082763671875 73.64933776855469 2.9642333984375 76.7308349609375 C 4.22332763671875 79.70766448974609 6.02606201171875 82.38141632080078 8.32232666015625 84.67766571044922 C 10.61859130859375 86.97391510009766 13.2923583984375 88.77666473388672 16.2691650390625 90.03575134277344 C 19.35064697265625 91.33916473388672 22.62457275390625 92 26 92 L 648 92 C 651.3754272460938 92 654.6493530273438 91.33916473388672 657.7307739257812 90.03575134277344 C 660.7076416015625 88.77666473388672 663.38134765625 86.97391510009766 665.6776733398438 84.67766571044922 C 667.9739379882812 82.38141632080078 669.7766723632812 79.70766448974609 671.0357666015625 76.7308349609375 C 672.3391723632812 73.64933776855469 673 70.37541198730469 673 67 L 673 26 C 673 22.62458038330078 672.3391723632812 19.35066986083984 671.0357666015625 16.2691650390625 C 669.7766723632812 13.29233551025391 667.9739379882812 10.61858367919922 665.6776733398438 8.322334289550781 C 663.38134765625 6.026084899902344 660.7076416015625 4.223335266113281 657.7307739257812 2.964248657226562 C 654.6493530273438 1.660835266113281 651.3754272460938 1 648 1 L 26 1 M 26 0 L 648 0 C 662.3593139648438 0 674 11.64058685302734 674 26 L 674 67 C 674 81.35942077636719 662.3593139648438 93 648 93 L 26 93 C 11.64056396484375 93 0 81.35942077636719 0 67 L 0 26 C 0 11.64058685302734 11.64056396484375 0 26 0 Z" stroke="none" fill="#241a1b"/>
    </g>
    <path id="Path_6819" data-name="Path 6819" d="M-49.548,0l6.24-16.44h-2.616L-50.652-3.96-53.82-16.44h-1.656L-58.74-3.84l-4.512-12.6H-66.06L-60.012,0h2.5l2.832-9.84L-51.948,0Zm8.9,0h9.96V-2.424H-38V-7.248h6.792V-9.672H-38v-4.344h7.32V-16.44h-9.96ZM-27.06,0h9.96V-2.424h-7.32V-7.248h6.792V-9.672H-24.42v-4.344h7.32V-16.44h-9.96ZM-3.972,0h3.5l-8.28-8.664L-1-16.44H-4.308L-10.764-10.1l-.048-6.336h-2.664V0h2.664l.048-6.816ZM9.9-14.016h7.152V-16.44H7.26V0H9.9V-6.792h6.624V-9.216H9.9ZM20.1,0h2.64V-16.44H20.1ZM32.436-14.016c2.088,0,3.216.936,3.216,2.472s-1.1,2.472-3.216,2.472H29.844v-4.944ZM36.516,0h2.9L35.436-7.2a4.663,4.663,0,0,0,2.9-4.416,4.555,4.555,0,0,0-.7-2.544c-.96-1.512-2.736-2.28-5.3-2.28H27.228V0h2.616V-6.648l3.12-.024ZM46.692.24a6.015,6.015,0,0,0,2.736-.624A4.661,4.661,0,0,0,52.092-4.56c0-2.3-1.344-3.72-4.44-4.752a10.214,10.214,0,0,1-3.144-1.44,1.816,1.816,0,0,1-.672-1.416c0-1.272.984-2.088,2.64-2.088a5.293,5.293,0,0,1,3.672,1.8l1.56-1.848a7.3,7.3,0,0,0-5.256-2.376,6.37,6.37,0,0,0-2.664.552,4.339,4.339,0,0,0-2.544,4.008,4.2,4.2,0,0,0,.456,2.088c.648,1.176,2.04,2.088,4.56,2.928a8.756,8.756,0,0,1,2.616,1.248,1.735,1.735,0,0,1,.6,1.368c0,1.344-1.128,2.328-2.784,2.328a6.093,6.093,0,0,1-4.728-2.328l-1.536,1.9A8.305,8.305,0,0,0,46.692.24ZM61.116-14.016H65.94V-16.44H53.628v2.424h4.824V0h2.664Z" transform="translate(619.094 9982)" fill="#241a1b"/>
    <path id="Path_6820" data-name="Path 6820" d="M-67.032,0l6.24-16.44h-2.616L-68.136-3.96-71.3-16.44H-72.96l-3.264,12.6-4.512-12.6h-2.808L-77.5,0H-75l2.832-9.84L-69.432,0Zm8.9,0h9.96V-2.424h-7.32V-7.248H-48.7V-9.672h-6.792v-4.344h7.32V-16.44h-9.96Zm13.584,0h9.96V-2.424H-41.9V-7.248h6.792V-9.672H-41.9v-4.344h7.32V-16.44h-9.96Zm23.088,0h3.5l-8.28-8.664,7.752-7.776h-3.312L-28.248-10.1-28.3-16.44H-30.96V0H-28.3l.048-6.816ZM-5.4.24A6.015,6.015,0,0,0-2.664-.384,4.661,4.661,0,0,0,0-4.56c0-2.3-1.344-3.72-4.44-4.752a10.214,10.214,0,0,1-3.144-1.44,1.816,1.816,0,0,1-.672-1.416c0-1.272.984-2.088,2.64-2.088a5.294,5.294,0,0,1,3.672,1.8L-.384-14.3A7.3,7.3,0,0,0-5.64-16.68a6.37,6.37,0,0,0-2.664.552,4.339,4.339,0,0,0-2.544,4.008,4.2,4.2,0,0,0,.456,2.088c.648,1.176,2.04,2.088,4.56,2.928A8.756,8.756,0,0,1-3.216-5.856a1.735,1.735,0,0,1,.6,1.368c0,1.344-1.128,2.328-2.784,2.328a6.093,6.093,0,0,1-4.728-2.328l-1.536,1.9A8.305,8.305,0,0,0-5.4.24ZM3.36,0h9.96V-2.424H6V-7.248h6.792V-9.672H6v-4.344h7.32V-16.44H3.36ZM16.944-3.912A7.908,7.908,0,0,0,24.024.24a8.478,8.478,0,0,0,6.168-2.856L28.44-4.488a5.733,5.733,0,0,1-4.416,2.232,5.152,5.152,0,0,1-2.76-.792A5.853,5.853,0,0,1,18.6-8.208a6.517,6.517,0,0,1,.72-3.072,5.2,5.2,0,0,1,4.7-2.9,5.863,5.863,0,0,1,4.248,1.992l1.68-1.824a8.044,8.044,0,0,0-5.928-2.664,7.887,7.887,0,0,0-4.176,1.1,8.4,8.4,0,0,0-3.984,7.368A8.718,8.718,0,0,0,16.944-3.912ZM40.152-14.184a5.042,5.042,0,0,1,2.784.768,5.939,5.939,0,0,1,2.64,5.208,6.421,6.421,0,0,1-.7,3.048,5.239,5.239,0,0,1-4.728,2.9,5.152,5.152,0,0,1-2.76-.792,5.853,5.853,0,0,1-2.664-5.16,6.517,6.517,0,0,1,.72-3.072A5.178,5.178,0,0,1,40.152-14.184Zm0,14.424a7.991,7.991,0,0,0,4.176-1.1,8.352,8.352,0,0,0,4.008-7.344,8.992,8.992,0,0,0-1.056-4.32,7.956,7.956,0,0,0-7.128-4.152,7.991,7.991,0,0,0-4.176,1.1,8.443,8.443,0,0,0-4.008,7.368,8.718,8.718,0,0,0,1.08,4.3A7.919,7.919,0,0,0,40.152.24ZM62.256,0h2.472V-16.44h-2.5v11.9l-7.9-11.9H51.864V0h2.5V-11.9ZM73.632-13.968c3.96,0,6.312,2.136,6.312,5.76,0,3.576-2.376,5.76-6.312,5.76H72v-11.52ZM73.512,0a11.112,11.112,0,0,0,4.872-1.008,7.519,7.519,0,0,0,4.3-7.2,8.292,8.292,0,0,0-1.1-4.392c-1.512-2.5-4.32-3.84-8.064-3.84H69.336V0Z" transform="translate(1428.094 9982)" fill="#241a1b"/>
    <path id="Path_6823" data-name="Path 6823" d="M-10.043,0h2.376l-2.354-15.07h-2.332L-16.6-3.036-20.867-15.07h-2.376L-25.6,0h2.376l1.628-10.6L-17.831,0h2.42l3.762-10.56ZM2.321-13a4.622,4.622,0,0,1,2.552.7,5.444,5.444,0,0,1,2.42,4.774A5.886,5.886,0,0,1,6.655-4.73,4.8,4.8,0,0,1,2.321-2.068a4.723,4.723,0,0,1-2.53-.726,5.365,5.365,0,0,1-2.442-4.73,5.974,5.974,0,0,1,.66-2.816A4.746,4.746,0,0,1,2.321-13ZM2.321.22A7.325,7.325,0,0,0,6.149-.792,7.656,7.656,0,0,0,9.823-7.524a8.242,8.242,0,0,0-.968-3.96A7.293,7.293,0,0,0,2.321-15.29a7.325,7.325,0,0,0-3.828,1.012A7.74,7.74,0,0,0-5.181-7.524a7.991,7.991,0,0,0,.99,3.938A7.259,7.259,0,0,0,2.321.22ZM22.583,0h2.266V-15.07H22.561V-4.158L15.323-15.07H13.057V0h2.288V-10.912Z" transform="translate(256.094 10091)" fill="#241a1b" opacity="0.9"/>
    <path id="Path_6824" data-name="Path 6824" d="M-12.485-12.848h4.422V-15.07H-19.349v2.222h4.422V0h2.442ZM-.143.22A5.838,5.838,0,0,0,2.871-.528,5.966,5.966,0,0,0,5.533-5.9V-15.07H3.091v9.13c0,2.486-1.21,3.894-3.234,3.894S-3.377-3.454-3.377-5.94v-9.13H-5.819V-5.9a7.016,7.016,0,0,0,.7,3.234A5.253,5.253,0,0,0-.143.22ZM9.449,0h9.13V-2.222h-6.71V-6.644H18.1V-8.866H11.869v-3.982h6.71V-15.07H9.449Z" transform="translate(443.094 10091)" fill="#241a1b" opacity="0.9"/>
    <path id="Path_6825" data-name="Path 6825" d="M-9.251,0l5.72-15.07h-2.4L-10.263-3.63l-2.9-11.44h-1.518L-17.677-3.52l-4.136-11.55h-2.574L-18.843,0h2.288l2.6-9.02L-11.451,0Zm8.162,0h9.13V-2.222H1.331V-6.644H7.557V-8.866H1.331v-3.982h6.71V-15.07h-9.13ZM15.3-12.8c3.63,0,5.786,1.958,5.786,5.28,0,3.278-2.178,5.28-5.786,5.28h-1.5V-12.8ZM15.191,0a10.186,10.186,0,0,0,4.466-.924,6.892,6.892,0,0,0,3.938-6.6,7.6,7.6,0,0,0-1.012-4.026c-1.386-2.288-3.96-3.52-7.392-3.52H11.363V0Z" transform="translate(630.094 10091)" fill="#241a1b" opacity="0.9"/>
    <path id="Path_6826" data-name="Path 6826" d="M-14.377-12.848h4.422V-15.07H-21.241v2.222h4.422V0h2.442ZM2.167,0H4.609V-15.07H2.167v6.182H-4.961V-15.07H-7.4V0h2.442V-6.666H2.167ZM14.2.22a5.838,5.838,0,0,0,3.014-.748A5.966,5.966,0,0,0,19.877-5.9V-15.07H17.435v9.13c0,2.486-1.21,3.894-3.234,3.894S10.967-3.454,10.967-5.94v-9.13H8.525V-5.9a7.016,7.016,0,0,0,.7,3.234A5.253,5.253,0,0,0,14.2.22Z" transform="translate(817.094 10091)" fill="#241a1b" opacity="0.9"/>
    <path id="Path_6827" data-name="Path 6827" d="M-11.33-12.848h6.556V-15.07H-13.75V0h2.42V-6.226h6.072V-8.448H-11.33Zm14.344,0c1.914,0,2.948.858,2.948,2.266S4.95-8.316,3.014-8.316H.638v-4.532ZM6.754,0H9.416L5.764-6.6a4.274,4.274,0,0,0,2.662-4.048,4.175,4.175,0,0,0-.638-2.332c-.88-1.386-2.508-2.09-4.862-2.09H-1.76V0h2.4V-6.094L3.5-6.116ZM11.44,0h2.42V-15.07H11.44Z" transform="translate(1004.094 10091)" fill="#241a1b" opacity="0.9"/>
    <path id="Path_6828" data-name="Path 6828" d="M-10.043,0h2.376l-2.354-15.07h-2.332L-16.6-3.036-20.867-15.07h-2.376L-25.6,0h2.376l1.628-10.6L-17.831,0h2.42l3.762-10.56ZM2.321-13a4.622,4.622,0,0,1,2.552.7,5.444,5.444,0,0,1,2.42,4.774A5.886,5.886,0,0,1,6.655-4.73,4.8,4.8,0,0,1,2.321-2.068a4.723,4.723,0,0,1-2.53-.726,5.365,5.365,0,0,1-2.442-4.73,5.974,5.974,0,0,1,.66-2.816A4.746,4.746,0,0,1,2.321-13ZM2.321.22A7.325,7.325,0,0,0,6.149-.792,7.656,7.656,0,0,0,9.823-7.524a8.242,8.242,0,0,0-.968-3.96A7.293,7.293,0,0,0,2.321-15.29a7.325,7.325,0,0,0-3.828,1.012A7.74,7.74,0,0,0-5.181-7.524a7.991,7.991,0,0,0,.99,3.938A7.259,7.259,0,0,0,2.321.22ZM22.583,0h2.266V-15.07H22.561V-4.158L15.323-15.07H13.057V0h2.288V-10.912Z" transform="translate(1191.094 10091)" fill="#241a1b" opacity="0.9"/>
    <path id="Path_6829" data-name="Path 6829" d="M-12.485-12.848h4.422V-15.07H-19.349v2.222h4.422V0h2.442ZM-.143.22A5.838,5.838,0,0,0,2.871-.528,5.966,5.966,0,0,0,5.533-5.9V-15.07H3.091v9.13c0,2.486-1.21,3.894-3.234,3.894S-3.377-3.454-3.377-5.94v-9.13H-5.819V-5.9a7.016,7.016,0,0,0,.7,3.234A5.253,5.253,0,0,0-.143.22ZM9.449,0h9.13V-2.222h-6.71V-6.644H18.1V-8.866H11.869v-3.982h6.71V-15.07H9.449Z" transform="translate(1378.094 10091)" fill="#241a1b" opacity="0.9"/>
    <path id="Path_6830" data-name="Path 6830" d="M-9.251,0l5.72-15.07h-2.4L-10.263-3.63l-2.9-11.44h-1.518L-17.677-3.52l-4.136-11.55h-2.574L-18.843,0h2.288l2.6-9.02L-11.451,0Zm8.162,0h9.13V-2.222H1.331V-6.644H7.557V-8.866H1.331v-3.982h6.71V-15.07h-9.13ZM15.3-12.8c3.63,0,5.786,1.958,5.786,5.28,0,3.278-2.178,5.28-5.786,5.28h-1.5V-12.8ZM15.191,0a10.186,10.186,0,0,0,4.466-.924,6.892,6.892,0,0,0,3.938-6.6,7.6,7.6,0,0,0-1.012-4.026c-1.386-2.288-3.96-3.52-7.392-3.52H11.363V0Z" transform="translate(1565.094 10091)" fill="#241a1b" opacity="0.9"/>
    <path id="Path_6802" data-name="Path 6802" d="M0,0H1920V246H0Z" transform="translate(1.094 10816)" fill="url(#linear-gradient)"/>
  </g>
</svg>
