<svg xmlns="http://www.w3.org/2000/svg" xmlns:xlink="http://www.w3.org/1999/xlink" width="1377" height="1140" viewBox="0 0 1377 1140">
  <defs>
    <filter id="Path_6840" x="495" y="420" width="387" height="299" filterUnits="userSpaceOnUse">
      <feOffset dy="20" input="SourceAlpha"/>
      <feGaussianBlur stdDeviation="15" result="blur"/>
      <feFlood flood-color="#241a1b" flood-opacity="0.161"/>
      <feComposite operator="in" in2="blur"/>
      <feComposite in="SourceGraphic"/>
    </filter>
    <filter id="Path_6847" x="0" y="425" width="375" height="290" filterUnits="userSpaceOnUse">
      <feOffset dy="20" input="SourceAlpha"/>
      <feGaussianBlur stdDeviation="15" result="blur-2"/>
      <feFlood flood-color="#241a1b" flood-opacity="0.149"/>
      <feComposite operator="in" in2="blur-2"/>
      <feComposite in="SourceGraphic"/>
    </filter>
    <filter id="Path_6842" x="1002" y="425" width="375" height="290" filterUnits="userSpaceOnUse">
      <feOffset dy="20" input="SourceAlpha"/>
      <feGaussianBlur stdDeviation="15" result="blur-3"/>
      <feFlood flood-color="#241a1b" flood-opacity="0.149"/>
      <feComposite operator="in" in2="blur-3"/>
      <feComposite in="SourceGraphic"/>
    </filter>
    <filter id="Path_6850" x="501" y="0" width="375" height="290" filterUnits="userSpaceOnUse">
      <feOffset dy="20" input="SourceAlpha"/>
      <feGaussianBlur stdDeviation="15" result="blur-4"/>
      <feFlood flood-color="#241a1b" flood-opacity="0.149"/>
      <feComposite operator="in" in2="blur-4"/>
      <feComposite in="SourceGraphic"/>
    </filter>
    <filter id="Path_6838" x="501" y="851" width="375" height="289" filterUnits="userSpaceOnUse">
      <feOffset dy="20" input="SourceAlpha"/>
      <feGaussianBlur stdDeviation="15" result="blur-5"/>
      <feFlood flood-color="#241a1b" flood-opacity="0.149"/>
      <feComposite operator="in" in2="blur-5"/>
      <feComposite in="SourceGraphic"/>
    </filter>
  </defs>
  <g id="Group_7365" data-name="Group 7365" transform="translate(-273.094 -15136)">
    <g transform="matrix(1, 0, 0, 1, 273.09, 15136)" filter="url(#Path_6840)">
      <path id="Path_6840-2" data-name="Path 6840" d="M17,0H280a17,17,0,0,1,17,17V192a17,17,0,0,1-17,17H17A17,17,0,0,1,0,192V17A17,17,0,0,1,17,0Z" transform="translate(540 445)" fill="#241a1b"/>
    </g>
    <g id="Group_6970" data-name="Group 6970" transform="translate(832.87 15591.996)">
      <circle id="Ellipse_119" data-name="Ellipse 119" cx="3.864" cy="3.864" r="3.864" fill="#e3334a"/>
      <circle id="Ellipse_120" data-name="Ellipse 120" cx="3.864" cy="3.864" r="3.864" transform="translate(11.593)" fill="#fdb913"/>
      <circle id="Ellipse_121" data-name="Ellipse 121" cx="3.864" cy="3.864" r="3.864" transform="translate(23.186)" fill="#00a651"/>
    </g>
    <path id="Path_6841" data-name="Path 6841" d="M13.806,0h2.886V-17.81H13.806V-10.5H5.382V-17.81H2.5V0H5.382V-7.878h8.424ZM29.38-15.366a5.462,5.462,0,0,1,3.016.832,6.434,6.434,0,0,1,2.86,5.642,6.956,6.956,0,0,1-.754,3.3A5.676,5.676,0,0,1,29.38-2.444,5.582,5.582,0,0,1,26.39-3.3,6.341,6.341,0,0,1,23.5-8.892a7.06,7.06,0,0,1,.78-3.328A5.609,5.609,0,0,1,29.38-15.366ZM29.38.26A8.656,8.656,0,0,0,33.9-.936a9.048,9.048,0,0,0,4.342-7.956,9.741,9.741,0,0,0-1.144-4.68,8.619,8.619,0,0,0-7.722-4.5,8.657,8.657,0,0,0-4.524,1.2,9.147,9.147,0,0,0-4.342,7.982,9.444,9.444,0,0,0,1.17,4.654A8.579,8.579,0,0,0,29.38.26ZM59.566,0h2.808L59.592-17.81H56.836L51.818-3.588,46.774-17.81H43.966L41.184,0h2.808l1.924-12.532L50.362,0h2.86l4.446-12.48Zm6.916,0h10.79V-2.626h-7.93V-7.852H76.7v-2.626H69.342v-4.706h7.93V-17.81H66.482Z" transform="translate(917.094 15695.999)" fill="#fff"/>
    <g transform="matrix(1, 0, 0, 1, 273.09, 15136)" filter="url(#Path_6847)">
      <path id="Path_6847-2" data-name="Path 6847" d="M17,0H268a17,17,0,0,1,17,17V183a17,17,0,0,1-17,17H17A17,17,0,0,1,0,183V17A17,17,0,0,1,17,0Z" transform="translate(45 450)" fill="#e6e6e6"/>
    </g>
    <g id="Group_6970-2" data-name="Group 6970" transform="translate(337.22 15595.268)">
      <circle id="Ellipse_119-2" data-name="Ellipse 119" cx="3.702" cy="3.702" r="3.702" fill="#e3334a"/>
      <circle id="Ellipse_120-2" data-name="Ellipse 120" cx="3.702" cy="3.702" r="3.702" transform="translate(11.105)" fill="#fdb913"/>
      <circle id="Ellipse_121-2" data-name="Ellipse 121" cx="3.702" cy="3.702" r="3.702" transform="translate(22.211)" fill="#00a651"/>
    </g>
    <path id="Path_6849" data-name="Path 6849" d="M18.278,0l6.76-17.81H22.2L17.082-4.29,13.65-17.81H11.856L8.32-4.16,3.432-17.81H.39L6.942,0h2.7l3.068-10.66L15.678,0ZM39.234,0H42.12V-17.81H39.234V-10.5H30.81V-17.81H27.924V0H30.81V-7.878h8.424ZM53.872-7.592,60.06-17.81H56.966L52.52-10.4l-4.472-7.41H44.8L50.986-7.644V0h2.886ZM73.684.26a6.516,6.516,0,0,0,2.964-.676A5.049,5.049,0,0,0,79.534-4.94c0-2.5-1.456-4.03-4.81-5.148a11.065,11.065,0,0,1-3.406-1.56,1.967,1.967,0,0,1-.728-1.534c0-1.378,1.066-2.262,2.86-2.262,1.326,0,2.5.572,3.978,1.95l1.69-2a7.9,7.9,0,0,0-5.694-2.574,6.9,6.9,0,0,0-2.886.6,4.7,4.7,0,0,0-2.756,4.342,4.553,4.553,0,0,0,.494,2.262c.7,1.274,2.21,2.262,4.94,3.172A9.485,9.485,0,0,1,76.05-6.344a1.879,1.879,0,0,1,.65,1.482c0,1.456-1.222,2.522-3.016,2.522a6.6,6.6,0,0,1-5.122-2.522L66.9-2.808A9,9,0,0,0,73.684.26ZM94.484,0H97.37V-17.81H94.484V-10.5H86.06V-17.81H83.174V0H86.06V-7.878h8.424Zm15.574-15.366a5.462,5.462,0,0,1,3.016.832,6.434,6.434,0,0,1,2.86,5.642,6.956,6.956,0,0,1-.754,3.3,5.676,5.676,0,0,1-5.122,3.146,5.582,5.582,0,0,1-2.99-.858,6.341,6.341,0,0,1-2.886-5.59,7.06,7.06,0,0,1,.78-3.328A5.609,5.609,0,0,1,110.058-15.366Zm0,15.626a8.657,8.657,0,0,0,4.524-1.2,9.048,9.048,0,0,0,4.342-7.956,9.741,9.741,0,0,0-1.144-4.68,8.619,8.619,0,0,0-7.722-4.5,8.657,8.657,0,0,0-4.524,1.2,9.147,9.147,0,0,0-4.342,7.982,9.444,9.444,0,0,0,1.17,4.654A8.579,8.579,0,0,0,110.058.26ZM127.92-15.184c2.288,0,3.562,1.118,3.562,3.016s-1.2,2.99-3.562,2.99h-2.366v-6.006Zm-.078,8.632c3.978,0,6.526-2.158,6.526-5.616,0-3.536-2.47-5.642-6.526-5.642h-5.1V0h2.808V-6.552ZM148.46,0h3.38l-6.292-9.2,5.85-8.606h-3.2l-4.264,6.266-4.264-6.266h-3.38l5.85,8.58L135.85,0h3.2l4.706-6.89Z" transform="translate(381.094 15696)" fill="#241a1b"/>
    <g transform="matrix(1, 0, 0, 1, 273.09, 15136)" filter="url(#Path_6842)">
      <path id="Path_6842-2" data-name="Path 6842" d="M17,0H268a17,17,0,0,1,17,17V183a17,17,0,0,1-17,17H17A17,17,0,0,1,0,183V17A17,17,0,0,1,17,0Z" transform="translate(1047 450)" fill="#e6e6e6"/>
    </g>
    <g id="Group_6970-3" data-name="Group 6970" transform="translate(1339.18 15595.268)">
      <circle id="Ellipse_119-3" data-name="Ellipse 119" cx="3.702" cy="3.702" r="3.702" fill="#e3334a"/>
      <circle id="Ellipse_120-3" data-name="Ellipse 120" cx="3.702" cy="3.702" r="3.702" transform="translate(11.105)" fill="#fdb913"/>
      <circle id="Ellipse_121-3" data-name="Ellipse 121" cx="3.702" cy="3.702" r="3.702" transform="translate(22.211)" fill="#00a651"/>
    </g>
    <path id="Path_6843" data-name="Path 6843" d="M7.9-7.9c2.392,0,3.718,1.014,3.718,2.678S10.322-2.574,7.9-2.574H5.3V-7.9Zm-.13-7.332c1.976,0,3.094.936,3.094,2.366,0,1.456-1.118,2.392-3.094,2.392H5.3v-4.758ZM7.774,0a9.192,9.192,0,0,0,3.51-.624A4.719,4.719,0,0,0,14.456-5.1a4.634,4.634,0,0,0-2.938-4.238A4.158,4.158,0,0,0,13.7-13.026c0-3.016-2.314-4.784-6.058-4.784H2.5V0Zm17,.26A6.9,6.9,0,0,0,28.34-.624a7.051,7.051,0,0,0,3.146-6.344V-17.81H28.6V-7.02c0,2.938-1.43,4.6-3.822,4.6s-3.822-1.664-3.822-4.6V-17.81H18.07V-6.968A8.291,8.291,0,0,0,18.9-3.146,6.209,6.209,0,0,0,24.778.26ZM41.34.26A6.516,6.516,0,0,0,44.3-.416,5.049,5.049,0,0,0,47.19-4.94c0-2.5-1.456-4.03-4.81-5.148a11.065,11.065,0,0,1-3.406-1.56,1.967,1.967,0,0,1-.728-1.534c0-1.378,1.066-2.262,2.86-2.262,1.326,0,2.5.572,3.978,1.95l1.69-2A7.9,7.9,0,0,0,41.08-18.07a6.9,6.9,0,0,0-2.886.6,4.7,4.7,0,0,0-2.756,4.342,4.553,4.553,0,0,0,.494,2.262c.7,1.274,2.21,2.262,4.94,3.172a9.485,9.485,0,0,1,2.834,1.352,1.879,1.879,0,0,1,.65,1.482c0,1.456-1.222,2.522-3.016,2.522a6.6,6.6,0,0,1-5.122-2.522L34.554-2.808A9,9,0,0,0,41.34.26ZM50.57,0h2.86V-17.81H50.57ZM69.55,0h2.678V-17.81h-2.7v12.9L60.97-17.81H58.292V0H61V-12.9Zm7.67,0H88.01V-2.626H80.08V-7.852h7.358v-2.626H80.08v-4.706h7.93V-17.81H77.22ZM97.162.26a6.516,6.516,0,0,0,2.964-.676,5.049,5.049,0,0,0,2.886-4.524c0-2.5-1.456-4.03-4.81-5.148a11.065,11.065,0,0,1-3.406-1.56,1.967,1.967,0,0,1-.728-1.534c0-1.378,1.066-2.262,2.86-2.262,1.326,0,2.5.572,3.978,1.95l1.69-2A7.9,7.9,0,0,0,96.9-18.07a6.9,6.9,0,0,0-2.886.6A4.7,4.7,0,0,0,91.26-13.13a4.553,4.553,0,0,0,.494,2.262c.7,1.274,2.21,2.262,4.94,3.172a9.485,9.485,0,0,1,2.834,1.352,1.879,1.879,0,0,1,.65,1.482c0,1.456-1.222,2.522-3.016,2.522A6.6,6.6,0,0,1,92.04-4.862L90.376-2.808A9,9,0,0,0,97.162.26Zm14.716,0a6.516,6.516,0,0,0,2.964-.676,5.049,5.049,0,0,0,2.886-4.524c0-2.5-1.456-4.03-4.81-5.148a11.065,11.065,0,0,1-3.406-1.56,1.967,1.967,0,0,1-.728-1.534c0-1.378,1.066-2.262,2.86-2.262,1.326,0,2.5.572,3.978,1.95l1.69-2a7.9,7.9,0,0,0-5.694-2.574,6.9,6.9,0,0,0-2.886.6,4.7,4.7,0,0,0-2.756,4.342,4.553,4.553,0,0,0,.494,2.262c.7,1.274,2.21,2.262,4.94,3.172a9.485,9.485,0,0,1,2.834,1.352,1.879,1.879,0,0,1,.65,1.482c0,1.456-1.222,2.522-3.016,2.522a6.6,6.6,0,0,1-5.122-2.522l-1.664,2.054A9,9,0,0,0,111.878.26Z" transform="translate(1401.094 15696)" fill="#241a1b"/>
    <g transform="matrix(1, 0, 0, 1, 273.09, 15136)" filter="url(#Path_6850)">
      <path id="Path_6850-2" data-name="Path 6850" d="M17,0H268a17,17,0,0,1,17,17V183a17,17,0,0,1-17,17H17A17,17,0,0,1,0,183V17A17,17,0,0,1,17,0Z" transform="translate(546 25)" fill="#e6e6e6"/>
    </g>
    <g id="Group_6970-4" data-name="Group 6970" transform="translate(838.2 15170.792)">
      <circle id="Ellipse_119-4" data-name="Ellipse 119" cx="3.702" cy="3.702" r="3.702" fill="#e3334a"/>
      <circle id="Ellipse_120-4" data-name="Ellipse 120" cx="3.702" cy="3.702" r="3.702" transform="translate(11.105)" fill="#fdb913"/>
      <circle id="Ellipse_121-4" data-name="Ellipse 121" cx="3.702" cy="3.702" r="3.702" transform="translate(22.211)" fill="#00a651"/>
    </g>
    <path id="Path_6851" data-name="Path 6851" d="M8.892-13.962,11.674-7.02H6.11ZM14.482,0H17.5L10.27-17.81H7.618L.364,0H3.3L5.044-4.394h7.67ZM25.766-7.9c2.392,0,3.718,1.014,3.718,2.678s-1.3,2.652-3.718,2.652h-2.6V-7.9Zm-.13-7.332c1.976,0,3.094.936,3.094,2.366,0,1.456-1.118,2.392-3.094,2.392h-2.47v-4.758ZM25.636,0a9.192,9.192,0,0,0,3.51-.624A4.719,4.719,0,0,0,32.318-5.1,4.634,4.634,0,0,0,29.38-9.334a4.158,4.158,0,0,0,2.184-3.692c0-3.016-2.314-4.784-6.058-4.784H20.358V0ZM43.992-15.366a5.462,5.462,0,0,1,3.016.832,6.434,6.434,0,0,1,2.86,5.642,6.956,6.956,0,0,1-.754,3.3,5.676,5.676,0,0,1-5.122,3.146A5.582,5.582,0,0,1,41-3.3a6.341,6.341,0,0,1-2.886-5.59,7.06,7.06,0,0,1,.78-3.328A5.609,5.609,0,0,1,43.992-15.366Zm0,15.626a8.656,8.656,0,0,0,4.524-1.2,9.048,9.048,0,0,0,4.342-7.956,9.741,9.741,0,0,0-1.144-4.68,8.619,8.619,0,0,0-7.722-4.5,8.657,8.657,0,0,0-4.524,1.2,9.147,9.147,0,0,0-4.342,7.982A9.444,9.444,0,0,0,36.3-4.238,8.579,8.579,0,0,0,43.992.26Zm19.032,0a6.9,6.9,0,0,0,3.562-.884,7.051,7.051,0,0,0,3.146-6.344V-17.81H66.846V-7.02c0,2.938-1.43,4.6-3.822,4.6S59.2-4.082,59.2-7.02V-17.81H56.316V-6.968a8.291,8.291,0,0,0,.832,3.822A6.209,6.209,0,0,0,63.024.26ZM80.5-15.184h5.226V-17.81H72.384v2.626H77.61V0H80.5ZM100.8.26a6.9,6.9,0,0,0,3.562-.884,7.051,7.051,0,0,0,3.146-6.344V-17.81h-2.886V-7.02c0,2.938-1.43,4.6-3.822,4.6S96.98-4.082,96.98-7.02V-17.81H94.094V-6.968a8.291,8.291,0,0,0,.832,3.822A6.209,6.209,0,0,0,100.8.26Zm16.562,0a6.516,6.516,0,0,0,2.964-.676,5.049,5.049,0,0,0,2.886-4.524c0-2.5-1.456-4.03-4.81-5.148A11.065,11.065,0,0,1,115-11.648a1.967,1.967,0,0,1-.728-1.534c0-1.378,1.066-2.262,2.86-2.262,1.326,0,2.5.572,3.978,1.95l1.69-2A7.9,7.9,0,0,0,117.1-18.07a6.9,6.9,0,0,0-2.886.6,4.7,4.7,0,0,0-2.756,4.342,4.553,4.553,0,0,0,.494,2.262c.7,1.274,2.21,2.262,4.94,3.172a9.485,9.485,0,0,1,2.834,1.352,1.879,1.879,0,0,1,.65,1.482c0,1.456-1.222,2.522-3.016,2.522a6.6,6.6,0,0,1-5.122-2.522l-1.664,2.054A9,9,0,0,0,117.364.26Z" transform="translate(897.094 15271)" fill="#241a1b"/>
    <g transform="matrix(1, 0, 0, 1, 273.09, 15136)" filter="url(#Path_6838)">
      <path id="Path_6838-2" data-name="Path 6838" d="M17,0H268a17,17,0,0,1,17,17V182a17,17,0,0,1-17,17H17A17,17,0,0,1,0,182V17A17,17,0,0,1,17,0Z" transform="translate(546 876)" fill="#e6e6e6"/>
    </g>
    <g id="Group_6970-5" data-name="Group 6970" transform="translate(838.2 16020.977)">
      <circle id="Ellipse_119-5" data-name="Ellipse 119" cx="3.702" cy="3.702" r="3.702" fill="#e3334a"/>
      <circle id="Ellipse_120-5" data-name="Ellipse 120" cx="3.702" cy="3.702" r="3.702" transform="translate(11.105)" fill="#fdb913"/>
      <circle id="Ellipse_121-5" data-name="Ellipse 121" cx="3.702" cy="3.702" r="3.702" transform="translate(22.211)" fill="#00a651"/>
    </g>
    <path id="Path_6839" data-name="Path 6839" d="M2.5-4.238a8.567,8.567,0,0,0,7.67,4.5,9.185,9.185,0,0,0,6.682-3.094l-1.9-2.028a6.211,6.211,0,0,1-4.784,2.418A5.582,5.582,0,0,1,7.176-3.3,6.341,6.341,0,0,1,4.29-8.892a7.06,7.06,0,0,1,.78-3.328,5.637,5.637,0,0,1,5.1-3.146,6.351,6.351,0,0,1,4.6,2.158l1.82-1.976a8.714,8.714,0,0,0-6.422-2.886,8.545,8.545,0,0,0-4.524,1.2A9.094,9.094,0,0,0,1.326-8.892,9.444,9.444,0,0,0,2.5-4.238ZM27.638-15.366a5.462,5.462,0,0,1,3.016.832,6.434,6.434,0,0,1,2.86,5.642,6.956,6.956,0,0,1-.754,3.3,5.676,5.676,0,0,1-5.122,3.146,5.582,5.582,0,0,1-2.99-.858,6.341,6.341,0,0,1-2.886-5.59,7.06,7.06,0,0,1,.78-3.328A5.609,5.609,0,0,1,27.638-15.366Zm0,15.626a8.656,8.656,0,0,0,4.524-1.2A9.048,9.048,0,0,0,36.5-8.892a9.741,9.741,0,0,0-1.144-4.68,8.619,8.619,0,0,0-7.722-4.5,8.656,8.656,0,0,0-4.524,1.2,9.147,9.147,0,0,0-4.342,7.982,9.444,9.444,0,0,0,1.17,4.654A8.579,8.579,0,0,0,27.638.26ZM51.584,0h2.678V-17.81h-2.7v12.9L43-17.81H40.326V0h2.7V-12.9ZM65.39-15.184h5.226V-17.81H57.278v2.626H62.5V0H65.39Zm14.638,1.222L82.81-7.02H77.246ZM85.618,0h3.016L81.406-17.81H78.754L71.5,0h2.938L76.18-4.394h7.67Zm5.876-4.238a8.567,8.567,0,0,0,7.67,4.5,9.185,9.185,0,0,0,6.682-3.094l-1.9-2.028a6.211,6.211,0,0,1-4.784,2.418,5.582,5.582,0,0,1-2.99-.858,6.341,6.341,0,0,1-2.886-5.59,7.06,7.06,0,0,1,.78-3.328,5.637,5.637,0,0,1,5.1-3.146,6.351,6.351,0,0,1,4.6,2.158l1.82-1.976a8.714,8.714,0,0,0-6.422-2.886,8.545,8.545,0,0,0-4.524,1.2,9.094,9.094,0,0,0-4.316,7.982A9.444,9.444,0,0,0,91.494-4.238Zm23.582-10.946H120.3V-17.81H106.964v2.626h5.226V0h2.886ZM135.382.26a6.9,6.9,0,0,0,3.562-.884,7.051,7.051,0,0,0,3.146-6.344V-17.81H139.2V-7.02c0,2.938-1.43,4.6-3.822,4.6s-3.822-1.664-3.822-4.6V-17.81h-2.886V-6.968a8.291,8.291,0,0,0,.832,3.822A6.209,6.209,0,0,0,135.382.26Zm16.562,0a6.516,6.516,0,0,0,2.964-.676,5.049,5.049,0,0,0,2.886-4.524c0-2.5-1.456-4.03-4.81-5.148a11.065,11.065,0,0,1-3.406-1.56,1.967,1.967,0,0,1-.728-1.534c0-1.378,1.066-2.262,2.86-2.262,1.326,0,2.5.572,3.978,1.95l1.69-2a7.9,7.9,0,0,0-5.694-2.574,6.9,6.9,0,0,0-2.886.6,4.7,4.7,0,0,0-2.756,4.342,4.553,4.553,0,0,0,.494,2.262c.7,1.274,2.21,2.262,4.94,3.172a9.485,9.485,0,0,1,2.834,1.352,1.879,1.879,0,0,1,.65,1.482c0,1.456-1.222,2.522-3.016,2.522a6.6,6.6,0,0,1-5.122-2.522l-1.664,2.054A9,9,0,0,0,151.944.26Z" transform="translate(879.094 16121)" fill="#241a1b"/>
    <path id="Icon_ionic-ios-arrow-round-forward" data-name="Icon ionic-ios-arrow-round-forward" d="M27.638.455a1.618,1.618,0,0,0-.012,2.279l7.529,7.542H1.6a1.61,1.61,0,0,0,0,3.22H35.142l-7.529,7.542a1.63,1.63,0,0,0,.012,2.279,1.6,1.6,0,0,0,2.266-.012L40.1,13.025h0a1.808,1.808,0,0,0,.334-.508,1.536,1.536,0,0,0,.124-.619,1.614,1.614,0,0,0-.458-1.127L29.892.492A1.578,1.578,0,0,0,27.638.455Z" transform="translate(973.649 15825.699) rotate(90)" fill="#241a1b"/>
    <path id="Icon_ionic-ios-arrow-round-forward-2" data-name="Icon ionic-ios-arrow-round-forward" d="M27.638,23.322a1.618,1.618,0,0,1-.012-2.279L35.155,13.5H1.6a1.61,1.61,0,0,1,0-3.22H35.142L27.613,2.741A1.63,1.63,0,0,1,27.625.463a1.6,1.6,0,0,1,2.266.012L40.1,10.753h0a1.808,1.808,0,0,1,.334.508,1.536,1.536,0,0,1,.124.619,1.614,1.614,0,0,1-.458,1.127l-10.2,10.278A1.578,1.578,0,0,1,27.638,23.322Z" transform="translate(949.871 15976.074) rotate(-90)" fill="#241a1b"/>
    <g id="Path_6844" data-name="Path 6844" transform="translate(944.936 15883.133)" fill="#676767">
      <path d="M 17.27517509460449 33.22190475463867 C 16.8745059967041 33.22190475463867 16.49781608581543 33.06587600708008 16.21451568603516 32.78256607055664 L 1.767765522003174 18.33582496643066 C 1.484455585479736 18.05250549316406 1.328425526618958 17.67582511901855 1.328425526618958 17.27516555786133 C 1.328425526618958 16.87449645996094 1.484455585479736 16.49781608581543 1.767765522003174 16.21451568603516 L 16.21450614929199 1.767765522003174 C 16.49781608581543 1.484455585479736 16.87449645996094 1.328425526618958 17.27516555786133 1.328425526618958 C 17.67582511901855 1.328425526618958 18.05250549316406 1.484455585479736 18.33582496643066 1.767765522003174 L 32.78256607055664 16.21450614929199 C 33.06587600708008 16.49782562255859 33.22190475463867 16.8745059967041 33.22190475463867 17.27517509460449 C 33.22190475463867 17.67583465576172 33.06587600708008 18.05251502990723 32.78256607055664 18.33583641052246 L 18.33583641052246 32.78257369995117 C 18.05252647399902 33.06587600708008 17.67583465576172 33.22190475463867 17.27517509460449 33.22190475463867 Z" stroke="none"/>
      <path d="M 17.27515602111816 1.828426361083984 C 17.0080451965332 1.828426361083984 16.75692558288574 1.932445526123047 16.56805610656738 2.121326446533203 L 2.121315002441406 16.56806564331055 C 1.932445526123047 16.75693511962891 1.828426361083984 17.00805473327637 1.828426361083984 17.27516555786133 C 1.828426361083984 17.54227638244629 1.932445526123047 17.79339599609375 2.121326446533203 17.98226547241211 L 16.56805610656738 32.42900466918945 C 16.75692558288574 32.61788558959961 17.00805473327637 32.72190475463867 17.27516555786133 32.72190475463867 C 17.54227638244629 32.72190475463867 17.79340553283691 32.61788558959961 17.98227500915527 32.42901611328125 L 32.42900466918945 17.98227500915527 C 32.61788558959961 17.79340553283691 32.72190475463867 17.54227638244629 32.72190475463867 17.27516555786133 C 32.72190475463867 17.00806617736816 32.61788558959961 16.75693511962891 32.42900466918945 16.56806564331055 L 17.98226547241211 2.121326446533203 C 17.79339599609375 1.932445526123047 17.54226493835449 1.828426361083984 17.27515602111816 1.828426361083984 M 17.27515983581543 0.8284263610839844 C 17.78700637817383 0.8284263610839844 18.29885101318359 1.023689270019531 18.68937683105469 1.414215087890625 L 33.13611602783203 15.8609561920166 C 33.91716384887695 16.64200592041016 33.91716384887695 17.90833473205566 33.13611602783203 18.68938446044922 L 18.68938446044922 33.13612365722656 C 17.90833282470703 33.91716766357422 16.64199256896973 33.91716384887695 15.8609447479248 33.13611602783203 L 1.414215087890625 18.68937683105469 C 0.6331672668457031 17.9083251953125 0.6331672668457031 16.64199638366699 1.414215087890625 15.8609561920166 L 15.8609447479248 1.414215087890625 C 16.2514705657959 1.023689270019531 16.76331520080566 0.8284263610839844 17.27515983581543 0.8284263610839844 Z" stroke="none" fill="#241a1b"/>
    </g>
    <path id="Icon_ionic-ios-arrow-round-forward-3" data-name="Icon ionic-ios-arrow-round-forward" d="M27.638.455a1.618,1.618,0,0,0-.012,2.279l7.529,7.542H1.6a1.61,1.61,0,0,0,0,3.22H35.142l-7.529,7.542a1.63,1.63,0,0,0,.012,2.279,1.6,1.6,0,0,0,2.266-.012L40.1,13.025h0a1.808,1.808,0,0,0,.334-.508,1.536,1.536,0,0,0,.124-.619,1.614,1.614,0,0,0-.458-1.127L29.892.492A1.578,1.578,0,0,0,27.638.455Z" transform="translate(783.29 15696.864) rotate(180)" fill="#241a1b"/>
    <path id="Icon_ionic-ios-arrow-round-forward-4" data-name="Icon ionic-ios-arrow-round-forward" d="M27.638,23.322a1.618,1.618,0,0,1-.012-2.279L35.155,13.5H1.6a1.61,1.61,0,0,1,0-3.22H35.142L27.613,2.741A1.63,1.63,0,0,1,27.625.463a1.6,1.6,0,0,1,2.266.012L40.1,10.753h0a1.808,1.808,0,0,1,.334.508,1.536,1.536,0,0,1,.124.619,1.614,1.614,0,0,1-.458,1.127l-10.2,10.278A1.578,1.578,0,0,1,27.638,23.322Z" transform="translate(632.915 15673.086)" fill="#241a1b"/>
    <g id="Path_6846" data-name="Path 6846" transform="translate(725.855 15668.15) rotate(90)" fill="#676767">
      <path d="M 17.27517509460449 33.22190475463867 C 16.8745059967041 33.22190475463867 16.49781608581543 33.06587600708008 16.21451568603516 32.78256607055664 L 1.767765522003174 18.33582496643066 C 1.484455585479736 18.05250549316406 1.328425526618958 17.67582511901855 1.328425526618958 17.27516555786133 C 1.328425526618958 16.87449645996094 1.484455585479736 16.49781608581543 1.767765522003174 16.21451568603516 L 16.21450614929199 1.767765522003174 C 16.49781608581543 1.484455585479736 16.87449645996094 1.328425526618958 17.27516555786133 1.328425526618958 C 17.67582511901855 1.328425526618958 18.05250549316406 1.484455585479736 18.33582496643066 1.767765522003174 L 32.78256607055664 16.21450614929199 C 33.06587600708008 16.49782562255859 33.22190475463867 16.8745059967041 33.22190475463867 17.27517509460449 C 33.22190475463867 17.67583465576172 33.06587600708008 18.05251502990723 32.78256607055664 18.33583641052246 L 18.33583641052246 32.78257369995117 C 18.05252647399902 33.06587600708008 17.67583465576172 33.22190475463867 17.27517509460449 33.22190475463867 Z" stroke="none"/>
      <path d="M 17.27515602111816 1.828426361083984 C 17.0080451965332 1.828426361083984 16.75692558288574 1.932445526123047 16.56805610656738 2.121326446533203 L 2.121315002441406 16.56806564331055 C 1.932445526123047 16.75693511962891 1.828426361083984 17.00805473327637 1.828426361083984 17.27516555786133 C 1.828426361083984 17.54227638244629 1.932445526123047 17.79339599609375 2.121326446533203 17.98226547241211 L 16.56805610656738 32.42900466918945 C 16.75692558288574 32.61788558959961 17.00805473327637 32.72190475463867 17.27516555786133 32.72190475463867 C 17.54227638244629 32.72190475463867 17.79340553283691 32.61788558959961 17.98227500915527 32.42901611328125 L 32.42900466918945 17.98227500915527 C 32.61788558959961 17.79340553283691 32.72190475463867 17.54227638244629 32.72190475463867 17.27516555786133 C 32.72190475463867 17.00806617736816 32.61788558959961 16.75693511962891 32.42900466918945 16.56806564331055 L 17.98226547241211 2.121326446533203 C 17.79339599609375 1.932445526123047 17.54226493835449 1.828426361083984 17.27515602111816 1.828426361083984 M 17.27515983581543 0.8284263610839844 C 17.78700637817383 0.8284263610839844 18.29885101318359 1.023689270019531 18.68937683105469 1.414215087890625 L 33.13611602783203 15.8609561920166 C 33.91716384887695 16.64200592041016 33.91716384887695 17.90833473205566 33.13611602783203 18.68938446044922 L 18.68938446044922 33.13612365722656 C 17.90833282470703 33.91716766357422 16.64199256896973 33.91716384887695 15.8609447479248 33.13611602783203 L 1.414215087890625 18.68937683105469 C 0.6331672668457031 17.9083251953125 0.6331672668457031 16.64199638366699 1.414215087890625 15.8609561920166 L 15.8609447479248 1.414215087890625 C 16.2514705657959 1.023689270019531 16.76331520080566 0.8284263610839844 17.27515983581543 0.8284263610839844 Z" stroke="none" fill="#241a1b"/>
    </g>
    <path id="Icon_ionic-ios-arrow-round-forward-5" data-name="Icon ionic-ios-arrow-round-forward" d="M27.638.455a1.618,1.618,0,0,0-.012,2.279l7.529,7.542H1.6a1.61,1.61,0,0,0,0,3.22H35.142l-7.529,7.542a1.63,1.63,0,0,0,.012,2.279,1.6,1.6,0,0,0,2.266-.012L40.1,13.025h0a1.808,1.808,0,0,0,.334-.508,1.536,1.536,0,0,0,.124-.619,1.614,1.614,0,0,0-.458-1.127L29.892.492A1.578,1.578,0,0,0,27.638.455Z" transform="translate(1290.273 15696.864) rotate(180)" fill="#241a1b"/>
    <path id="Icon_ionic-ios-arrow-round-forward-6" data-name="Icon ionic-ios-arrow-round-forward" d="M27.638,23.322a1.618,1.618,0,0,1-.012-2.279L35.155,13.5H1.6a1.61,1.61,0,0,1,0-3.22H35.142L27.613,2.741A1.63,1.63,0,0,1,27.625.463a1.6,1.6,0,0,1,2.266.012L40.1,10.753h0a1.808,1.808,0,0,1,.334.508,1.536,1.536,0,0,1,.124.619,1.614,1.614,0,0,1-.458,1.127l-10.2,10.278A1.578,1.578,0,0,1,27.638,23.322Z" transform="translate(1139.898 15673.086)" fill="#241a1b"/>
    <g id="Path_6845" data-name="Path 6845" transform="translate(1232.839 15668.15) rotate(90)" fill="#676767">
      <path d="M 17.27517509460449 33.22190475463867 C 16.8745059967041 33.22190475463867 16.49781608581543 33.06587600708008 16.21451568603516 32.78256607055664 L 1.767765522003174 18.33582496643066 C 1.484455585479736 18.05250549316406 1.328425526618958 17.67582511901855 1.328425526618958 17.27516555786133 C 1.328425526618958 16.87449645996094 1.484455585479736 16.49781608581543 1.767765522003174 16.21451568603516 L 16.21450614929199 1.767765522003174 C 16.49781608581543 1.484455585479736 16.87449645996094 1.328425526618958 17.27516555786133 1.328425526618958 C 17.67582511901855 1.328425526618958 18.05250549316406 1.484455585479736 18.33582496643066 1.767765522003174 L 32.78256607055664 16.21450614929199 C 33.06587600708008 16.49782562255859 33.22190475463867 16.8745059967041 33.22190475463867 17.27517509460449 C 33.22190475463867 17.67583465576172 33.06587600708008 18.05251502990723 32.78256607055664 18.33583641052246 L 18.33583641052246 32.78257369995117 C 18.05252647399902 33.06587600708008 17.67583465576172 33.22190475463867 17.27517509460449 33.22190475463867 Z" stroke="none"/>
      <path d="M 17.27515602111816 1.828426361083984 C 17.0080451965332 1.828426361083984 16.75692558288574 1.932445526123047 16.56805610656738 2.121326446533203 L 2.121315002441406 16.56806564331055 C 1.932445526123047 16.75693511962891 1.828426361083984 17.00805473327637 1.828426361083984 17.27516555786133 C 1.828426361083984 17.54227638244629 1.932445526123047 17.79339599609375 2.121326446533203 17.98226547241211 L 16.56805610656738 32.42900466918945 C 16.75692558288574 32.61788558959961 17.00805473327637 32.72190475463867 17.27516555786133 32.72190475463867 C 17.54227638244629 32.72190475463867 17.79340553283691 32.61788558959961 17.98227500915527 32.42901611328125 L 32.42900466918945 17.98227500915527 C 32.61788558959961 17.79340553283691 32.72190475463867 17.54227638244629 32.72190475463867 17.27516555786133 C 32.72190475463867 17.00806617736816 32.61788558959961 16.75693511962891 32.42900466918945 16.56806564331055 L 17.98226547241211 2.121326446533203 C 17.79339599609375 1.932445526123047 17.54226493835449 1.828426361083984 17.27515602111816 1.828426361083984 M 17.27515983581543 0.8284263610839844 C 17.78700637817383 0.8284263610839844 18.29885101318359 1.023689270019531 18.68937683105469 1.414215087890625 L 33.13611602783203 15.8609561920166 C 33.91716384887695 16.64200592041016 33.91716384887695 17.90833473205566 33.13611602783203 18.68938446044922 L 18.68938446044922 33.13612365722656 C 17.90833282470703 33.91716766357422 16.64199256896973 33.91716384887695 15.8609447479248 33.13611602783203 L 1.414215087890625 18.68937683105469 C 0.6331672668457031 17.9083251953125 0.6331672668457031 16.64199638366699 1.414215087890625 15.8609561920166 L 15.8609447479248 1.414215087890625 C 16.2514705657959 1.023689270019531 16.76331520080566 0.8284263610839844 17.27515983581543 0.8284263610839844 Z" stroke="none" fill="#241a1b"/>
    </g>
    <path id="Icon_ionic-ios-arrow-round-forward-7" data-name="Icon ionic-ios-arrow-round-forward" d="M27.638.455a1.618,1.618,0,0,0-.012,2.279l7.529,7.542H1.6a1.61,1.61,0,0,0,0,3.22H35.142l-7.529,7.542a1.63,1.63,0,0,0,.012,2.279,1.6,1.6,0,0,0,2.266-.012L40.1,13.025h0a1.808,1.808,0,0,0,.334-.508,1.536,1.536,0,0,0,.124-.619,1.614,1.614,0,0,0-.458-1.127L29.892.492A1.578,1.578,0,0,0,27.638.455Z" transform="translate(973.649 15396.011) rotate(90)" fill="#241a1b"/>
    <path id="Icon_ionic-ios-arrow-round-forward-8" data-name="Icon ionic-ios-arrow-round-forward" d="M27.638,23.322a1.618,1.618,0,0,1-.012-2.279L35.155,13.5H1.6a1.61,1.61,0,0,1,0-3.22H35.142L27.613,2.741A1.63,1.63,0,0,1,27.625.463a1.6,1.6,0,0,1,2.266.012L40.1,10.753h0a1.808,1.808,0,0,1,.334.508,1.536,1.536,0,0,1,.124.619,1.614,1.614,0,0,1-.458,1.127l-10.2,10.278A1.578,1.578,0,0,1,27.638,23.322Z" transform="translate(949.872 15546.386) rotate(-90)" fill="#241a1b"/>
    <g id="Path_6848" data-name="Path 6848" transform="translate(945.094 15454)" fill="#676767">
      <path d="M 16.99999809265137 32.67157745361328 C 16.59932899475098 32.67157745361328 16.22264862060547 32.51554870605469 15.9393482208252 32.23223876953125 L 1.767768144607544 18.0606575012207 C 1.484458088874817 17.7773380279541 1.328428149223328 17.40065765380859 1.328428149223328 16.99999809265137 C 1.328428149223328 16.59932899475098 1.484458088874817 16.22264862060547 1.767768144607544 15.9393482208252 L 15.93933773040771 1.767768144607544 C 16.22264862060547 1.484458088874817 16.59932899475098 1.328428149223328 16.99999809265137 1.328428149223328 C 17.40065765380859 1.328428149223328 17.7773380279541 1.484458088874817 18.0606575012207 1.767768144607544 L 32.23223876953125 15.93933773040771 C 32.51554870605469 16.22265815734863 32.67157745361328 16.59933853149414 32.67157745361328 17.00000762939453 C 32.67157745361328 17.40066719055176 32.51554870605469 17.77734756469727 32.23223876953125 18.0606689453125 L 18.0606575012207 32.23223876953125 C 17.77734756469727 32.51554870605469 17.40066719055176 32.67157745361328 16.99999809265137 32.67157745361328 Z" stroke="none"/>
      <path d="M 16.99999809265137 1.828418731689453 C 16.7328987121582 1.828418731689453 16.48177719116211 1.932437896728516 16.29289817810059 2.121328353881836 L 2.121318817138672 16.29290771484375 C 1.932437896728516 16.48177719116211 1.828418731689453 16.73288726806641 1.828418731689453 16.99999809265137 C 1.828418731689453 17.26710891723633 1.932437896728516 17.51822853088379 2.121318817138672 17.70709800720215 L 16.29289817810059 31.87867736816406 C 16.48176765441895 32.06754684448242 16.73288726806641 32.17156982421875 16.99999809265137 32.17156982421875 C 17.26710891723633 32.17156982421875 17.51822853088379 32.06754684448242 17.70709800720215 31.87867736816406 L 31.87867736816406 17.70711898803711 C 32.26857757568359 17.31720733642578 32.26857757568359 16.68279838562012 31.87867736816406 16.29289817810059 L 17.70709800720215 2.121328353881836 C 17.51821899414062 1.932437896728516 17.26709747314453 1.828418731689453 16.99999809265137 1.828418731689453 M 16.9999942779541 0.8284225463867188 C 17.51183891296387 0.8284225463867188 18.02368354797363 1.023689270019531 18.41420745849609 1.414218902587891 L 32.58578872680664 15.58578872680664 C 33.36682891845703 16.3668384552002 33.36682891845703 17.6331672668457 32.58578872680664 18.41421890258789 L 18.41420745849609 32.58578872680664 C 17.6331672668457 33.36682891845703 16.36682891845703 33.36682891845703 15.58578872680664 32.58578872680664 L 1.414207458496094 18.41420745849609 C 0.6331596374511719 17.63315773010254 0.6331596374511719 16.36682891845703 1.414218902587891 15.58578872680664 L 15.58578872680664 1.414218902587891 C 15.97630882263184 1.023689270019531 16.48814964294434 0.8284225463867188 16.9999942779541 0.8284225463867188 Z" stroke="none" fill="#241a1b"/>
    </g>
  </g>
</svg>
